<?xml version="1.0" encoding="UTF-8"?>
<!-- Created with Inkscape (http://www.inkscape.org/) -->
<svg width="960" height="540" version="1.1" viewBox="0 0 960 540" xml:space="preserve" xmlns="http://www.w3.org/2000/svg"><defs><clipPath id="a"><path d="m0 0h365760v205740h-365760z"/></clipPath></defs><g transform="matrix(1.3333333,0,0,-1.3333333,0,540)"><g transform="matrix(1,0,0,-1,0,405)"><g transform="scale(.0019685)"><g clip-path="url(#a)"><path d="m16589 17801h336708v22908h-336708z" fill-opacity="0"/><g transform="scale(381)"><g transform="translate(43.540684,46.721786)"><g transform="translate(9,41.255997)" fill="#ed4e38" aria-label="CONTEXTO HISTÓRICO"><path d="m9.8111996 0.40319998q-4.4351998 0-6.3167998-2.31839988-1.8479999-2.3519999-1.8479999-6.7535997v-9.8111994q0-4.5024 1.8479999-6.7872 1.848-2.3184 6.3167998-2.3184 4.2671994 0 6.0479994 2.0496t1.7808 5.8128v2.352h-5.88v-2.7216q0-1.5792-0.336-2.4192t-1.6127994-0.84q-1.2768 0-1.68 0.9072-0.4032 0.8736-0.4032 2.4528v12.8015993q0 1.6128 0.4032 2.4863999 0.4368 0.84 1.68 0.84 1.2431994 0 1.5791994-0.84 0.3696-0.8735999 0.3696-2.4863999v-2.8560003h5.88v2.3520003q0 3.8303999-1.7808 5.9807998-1.7808 2.11679988-6.0479994 2.11679988z"/><path d="m32.727997 0.40319998q-4.4016 0-6.2832-2.25119988-1.881599-2.2847999-1.881599-6.7199997v-10.1135994q0-4.4352 1.881599-6.6528 1.8816-2.2512 6.2832-2.2512 4.4352 0 6.3168 2.2512 1.9152 2.2512 1.9152 6.6528v10.1135994q0 4.4351998-1.9152 6.7199997-1.8816 2.25119988-6.3168 2.25119988zm0-4.26719978q1.2768 0 1.68-0.84 0.4032-0.8735999 0.4032-2.3519999v-13.1039993q0-1.512-0.4032-2.352t-1.68-0.84q-1.2096 0-1.6128 0.8736-0.4032 0.84-0.4032 2.3184v13.1039993q0 1.4784 0.3696 2.3519999 0.3696 0.84 1.6464 0.84z"/><path d="m48.622357-27.215999h4.2336l5.5776 13.104v-13.104h4.9728v27.215999h-4.0656l-5.5776-14.111999v14.111999h-5.1408z"/><path d="m73.924725-22.747199h-4.0992v-4.4688h14.212799v4.4688h-4.065599v22.747199h-6.048z"/><path d="m90.423928-27.215999h12.230402v4.0992h-6.216002v6.7536h4.737602v4.1664h-4.737602v8.1311992h6.283202v4.0655998h-12.297602z"/><path d="m112.93749-14.649599-5.04-12.5664h5.6784l2.9904 7.3584 2.4192-7.3584h5.0064l-4.7712 14.1456 5.3088 13.070399h-5.6448l-3.3264-8.1311996-2.9232 8.1311996h-4.9728z"/><path d="m133.19988-22.747199h-4.0992v-4.4688h14.2128v4.4688h-4.0656v22.747199h-6.048z"/><path d="m157.22543 0.40319998q-4.4016 0-6.2832-2.25119988-1.8816-2.2847999-1.8816-6.7199997v-10.1135994q0-4.4352 1.8816-6.6528 1.8816-2.2512 6.2832-2.2512 4.4352 0 6.3168 2.2512 1.9152 2.2512 1.9152 6.6528v10.1135994q0 4.4351998-1.9152 6.7199997-1.8816 2.25119988-6.3168 2.25119988zm0-4.26719978q1.2768 0 1.68-0.84 0.4032-0.8735999 0.4032-2.3519999v-13.1039993q0-1.512-0.4032-2.352t-1.68-0.84q-1.2096 0-1.6128 0.8736-0.4032 0.84-0.4032 2.3184v13.1039993q0 1.4784 0.3696 2.3519999 0.3696 0.84 1.6464 0.84z"/><path d="m185.82214-27.215999h6.0144v11.0208h4.2v-11.0208h6.048v27.215999h-6.048v-11.894399h-4.2v11.894399h-6.0144z"/><path d="m210.25091-27.215999h6.0144v27.215999h-6.0144z"/><path d="m231.55486 0.40319998q-3.8976 0-5.8128-2.04959988-1.88159-2.0831999-2.01599-6.5855997l5.14079-0.7728q0.0336 2.5871999 0.6048 3.7295998 0.6048 1.1088 1.7808 1.1088 1.512 0 1.512-1.9823999 0-1.5791999-0.7392-2.7215999-0.7056-1.1424004-2.2512-2.4527994l-2.352-2.0496q-1.7472-1.4784-2.72159-3.1248-0.9408-1.68-0.9408-3.9648 0-3.4272 2.01599-5.2752 2.0496-1.848 5.6112-1.848 3.864 0 5.2416 2.2512 1.4112 2.2512 1.512 5.4768l-5.1744 0.6384q-0.0672-2.1168-0.4032-3.024-0.3024-0.9408-1.3776-0.9408-0.7728 0-1.2096 0.672-0.4032 0.6384-0.4032 1.4448 0 1.3776 0.6048 2.3184 0.6384 0.9408 2.016 2.1504l2.2512 1.9824q2.016 1.7136 3.1248 3.628799 1.1088 1.9152004 1.1088 4.5360003 0 1.9151999-0.9072 3.4943998-0.8736 1.5456-2.4864 2.45279992-1.6128 0.90719996-3.7296 0.90719996z"/><path d="m248.05408-22.747199h-4.0992v-4.4688h14.2128v4.4688h-4.0656v22.747199h-6.048z"/><path d="m272.07963 0.40319998q-4.4016 0-6.2832-2.25119988-1.8816-2.2847999-1.8816-6.7199997v-10.1135994q0-4.4352 1.8816-6.6528 1.8816-2.2512 6.2832-2.2512 4.4352 0 6.3168 2.2512 1.9152 2.2512 1.9152 6.6528v10.1135994q0 4.4351998-1.9152 6.7199997-1.8816 2.25119988-6.3168 2.25119988zm0-4.26719978q1.2768 0 1.68-0.84 0.4032-0.8735999 0.4032-2.3519999v-13.1039993q0-1.512-0.4032-2.352t-1.68-0.84q-1.2096 0-1.6128 0.8736-0.4032 0.84-0.4032 2.3184v13.1039993q0 1.4784 0.3696 2.3519999 0.3696 0.84 1.6464 0.84zm0.336-32.2559982h5.5776l-4.2336 6.753599h-3.4608z"/><path d="m287.97398-27.215999h7.4928q4.4688 0 6.7536 1.5792t2.2848 5.6112q0 2.7216-0.7056 4.3344t-2.6208 2.52l3.7296 13.171199h-6.216l-2.9904-12.196799h-1.7136v12.196799h-6.0144zm7.6944 11.5584q1.8144 0 2.52-0.9408 0.7392-0.9744 0.7392-2.8896 0-1.848-0.672-2.7552-0.672-0.9408-2.3184-0.9408h-1.9488v7.5264z"/><path d="m312.16755-27.215999h6.0144v27.215999h-6.0144z"/><path d="m334.04271 0.40319998q-4.4352 0-6.3168-2.31839988-1.848-2.3519999-1.848-6.7535997v-9.8111994q0-4.5024 1.848-6.7872 1.848-2.3184 6.3168-2.3184 4.2672 0 6.048 2.0496t1.7808 5.8128v2.352h-5.88v-2.7216q0-1.5792-0.336-2.4192t-1.6128-0.84-1.68 0.9072q-0.4032 0.8736-0.4032 2.4528v12.8015993q0 1.6128 0.4032 2.4863999 0.4368 0.84 1.68 0.84t1.5792-0.84q0.3696-0.8735999 0.3696-2.4863999v-2.8560003h5.88v2.3520003q0 3.8303999-1.7808 5.9807998-1.7808 2.11679988-6.048 2.11679988z"/><path d="m356.95951 0.40319998q-4.40159 0-6.28319-2.25119988-1.8816-2.2847999-1.8816-6.7199997v-10.1135994q0-4.4352 1.8816-6.6528 1.8816-2.2512 6.28319-2.2512 4.4352 0 6.3168 2.2512 1.9152 2.2512 1.9152 6.6528v10.1135994q0 4.4351998-1.9152 6.7199997-1.8816 2.25119988-6.3168 2.25119988zm0-4.26719978q1.2768 0 1.68-0.84 0.4032-0.8735999 0.4032-2.3519999v-13.1039993q0-1.512-0.4032-2.352t-1.68-0.84q-1.20959 0-1.61279 0.8736-0.4032 0.84-0.4032 2.3184v13.1039993q0 1.4784 0.3696 2.3519999 0.3696 0.84 1.64639 0.84z"/></g></g></g><path d="m16589 46099h329112v136656h-329112z" fill-opacity="0"/><g fill="#ed4e38" font-size="9144px" stroke-width="381"><text x="23638.988" y="58306.238" font-family="ArialMT"><tspan x="23638.988" y="58306.238" stroke-width="381">●</tspan></text><text x="38306" y="58306.238" font-family="Merriweather"><tspan x="38306" y="58306.238" stroke-width="381">Primeira Revolução Industrial;</tspan></text><text x="23638.988" y="74765.438" font-family="ArialMT"><tspan x="23638.988" y="74765.438" stroke-width="381">●</tspan></text><text x="38306" y="74765.438" font-family="Merriweather"><tspan x="38306 44240.457 48428.41 51473.363 57544.977 62235.848 65280.801 71023.234 74068.188 79627.734 81794.867 87473.289 92447.625 94614.758 97659.703 103210.12 108989.12 114118.91 117163.86 122842.28 127972.06 133650.48 138624.81" y="74765.438" stroke-width="381">Princípio de igualdade.</tspan></text><text x="23638.988" y="91224.641" font-family="ArialMT"><tspan x="23638.988" y="91224.641" stroke-width="381">●</tspan></text><text x="38306" y="91224.641" font-family="Merriweather"><tspan x="38306 44277.031 49836.586 55908.203 59629.809 63817.762 68947.547 72669.156 78448.164 83577.945 86622.898 89667.852 94285.57 98007.18 103136.96 107754.68 112088.94 115572.8 120547.14 125676.92 131748.53 137490.97 140974.83 146104.62 150795.48 156364.19 162143.2 167117.53 171735.25 173902.38 180339.75 185899.31 191678.31 196296.03 200913.75 205888.08 211017.88 216796.89 218964.02 222895.94 226919.3 232295.97 236319.31 241787.44 243954.56 249696.98 251864.12 255887.48 261264.16 266640.84 272428.97 276360.88 278528.03 283502.38" y="91224.641" stroke-width="381">Contratualistas Jean-Jacques Rousseau (1712 - 1778) e </tspan></text><text x="38306" y="107683.83" font-family="Merriweather"><tspan x="38306 47358.562 52918.113 58989.727 62711.336 67685.672 72303.391 77872.086 83651.094 86696.047 91670.383 97449.391 99616.523 103548.45 107571.8 113643.41 119431.57 125466.61 127633.73 133376.17 135543.3 139566.66 144943.33 150320 155751.55" y="107683.83" stroke-width="381">Montesquieu (1689 - 1775)</tspan></text></g></g></g></g></g></svg>
