<?xml version="1.0" encoding="UTF-8"?>
<!-- Created with Inkscape (http://www.inkscape.org/) -->
<svg width="1920" height="1080" version="1.1" viewBox="0 0 1920 1080" xmlns="http://www.w3.org/2000/svg">
 <g transform="translate(169.57388,85.092133)" fill="#ed4e38" stroke-width=".0133091">
  <g transform="matrix(7.2567965,0,0,7.2567965,-8315.8407,-144.91517)" stop-color="#000000" style="shape-inside:url(#rect11022);white-space:pre" aria-label="Camila S.">
   <path d="m1311.2979 117.60007q-0.8634 0-1.3205-0.51297-0.4571-0.51804-0.4571-1.41193 0-0.58915 0.2387-1.02594 0.2438-0.44186 0.6654-0.68057 0.4215-0.23871 0.9548-0.23871 0.2235 0 0.4317 0.0305 0.2083 0.0254 0.4927 0.0711 0.2133 0.0356 0.2336 0.0356l-0.056 1.04625h-0.4672l-0.1575-0.72628q-0.056-0.0559-0.193-0.0914-0.1371-0.0356-0.3504-0.0356-0.4317 0-0.6958 0.40123-0.259 0.39616-0.259 1.15291 0 0.73136 0.2488 1.19354 0.2489 0.46218 0.7263 0.46218 0.2286 0 0.3504-0.0406 0.127-0.0457 0.2134-0.12697l0.2234-0.52313 0.4267 0.0406-0.1016 0.78723q-0.1067 0.0102-0.2133 0.0406-0.1016 0.0254-0.127 0.0305-0.2032 0.0559-0.3809 0.0863-0.1727 0.0356-0.4267 0.0356z"/>
   <path d="m1312.8876 116.7519q0-0.46218 0.4622-0.69581 0.4673-0.23363 1.2037-0.23871v-0.11682q0-0.20823-0.046-0.32505-0.041-0.11681-0.1574-0.17268-0.1118-0.061-0.3302-0.061-0.2488 0-0.4469 0.066-0.1981 0.061-0.4114 0.16253l-0.1574-0.32505q0.076-0.066 0.2539-0.15745 0.1828-0.0914 0.4317-0.15745 0.2489-0.0711 0.513-0.0711 0.3911 0 0.6094 0.10158 0.2235 0.10158 0.32 0.32505 0.097 0.22347 0.097 0.59931v1.55414h0.2743v0.28442q-0.1016 0.0254-0.2895 0.0508t-0.3302 0.0254q-0.1726 0-0.2336-0.0508-0.056-0.0508-0.056-0.20823v-0.13713q-0.1372 0.15237-0.3556 0.27426t-0.4926 0.12189q-0.2337 0-0.4317-0.0965-0.193-0.10157-0.3098-0.28949-0.1169-0.193-0.1169-0.46218zm1.1834 0.42662q0.1067 0 0.2438-0.0609 0.1371-0.066 0.2387-0.15745v-0.83294q-0.4571 0-0.6856 0.15745-0.2235 0.15236-0.2235 0.39615t0.1117 0.37076q0.1168 0.12697 0.3149 0.12697z"/>
   <path d="m1315.8182 117.23947 0.2844-0.0457v-1.99093l-0.3251-0.0914v-0.35044l0.8431-0.10666 0.061 0.0406 0.076 0.16761v0.21331q0.1676-0.16253 0.4774-0.28442 0.3149-0.12697 0.5434-0.12697 0.2743 0 0.4419 0.0914 0.1727 0.0914 0.259 0.28442 0.1676-0.15237 0.4419-0.26411 0.2742-0.11173 0.5383-0.11173 0.4521 0 0.64 0.2641t0.1879 0.86341v1.40178l0.3301 0.0457v0.30473h-1.3154v-0.30473l0.2641-0.0457v-1.38146q0-0.39615-0.096-0.5536-0.091-0.16253-0.3555-0.16253-0.1422 0-0.2946 0.066-0.1473 0.061-0.2641 0.15237 0.036 0.193 0.036 0.48249v1.3967l0.3149 0.0457v0.30473h-1.3256v-0.30473l0.2794-0.0457v-1.3967q0-0.2641-0.036-0.41139-0.03-0.15236-0.1219-0.21839-0.091-0.0711-0.2641-0.0711-0.1625 0-0.325 0.0762-0.1575 0.0711-0.2844 0.17268v1.84872l0.2996 0.0457v0.30473h-1.3103z"/>
   <path d="m1321.5675 114.25816q-0.1829 0-0.2895-0.10666-0.1067-0.10666-0.1067-0.27426 0-0.193 0.1219-0.31997t0.3251-0.12697q0.2031 0 0.3098 0.11173 0.1066 0.10666 0.1066 0.26918 0 0.20316-0.1219 0.32505-0.1219 0.1219-0.3402 0.1219zm-0.2692 0.94467-0.3606-0.0965v-0.34028l0.9294-0.11174h0.01l0.1422 0.10158v2.44295l0.3403 0.0406v0.30473h-1.417v-0.30473l0.3555-0.0457z"/>
   <path d="m1323.02 113.83153-0.3758-0.066v-0.27426l0.9396-0.11173h0.01l0.1372 0.0965v3.72283l0.3707 0.0406v0.30473h-1.4373v-0.30473l0.3555-0.0457z"/>
   <path d="m1324.3964 116.7519q0-0.46218 0.4622-0.69581 0.4672-0.23363 1.2037-0.23871v-0.11682q0-0.20823-0.046-0.32505-0.041-0.11681-0.1575-0.17268-0.1117-0.061-0.3301-0.061-0.2489 0-0.4469 0.066-0.1981 0.061-0.4114 0.16253l-0.1575-0.32505q0.076-0.066 0.254-0.15745 0.1828-0.0914 0.4317-0.15745 0.2488-0.0711 0.5129-0.0711 0.3911 0 0.6095 0.10158 0.2235 0.10158 0.32 0.32505 0.097 0.22347 0.097 0.59931v1.55414h0.2742v0.28442q-0.1015 0.0254-0.2895 0.0508-0.1879 0.0254-0.3301 0.0254-0.1727 0-0.2336-0.0508-0.056-0.0508-0.056-0.20823v-0.13713q-0.1371 0.15237-0.3555 0.27426t-0.4927 0.12189q-0.2336 0-0.4317-0.0965-0.193-0.10157-0.3098-0.28949-0.1168-0.193-0.1168-0.46218zm1.1834 0.42662q0.1066 0 0.2438-0.0609 0.1371-0.066 0.2387-0.15745v-0.83294q-0.4571 0-0.6857 0.15745-0.2234 0.15236-0.2234 0.39615t0.1117 0.37076q0.1168 0.12697 0.3149 0.12697z"/>
   <path d="m1329.8105 117.60007q-0.2743 0-0.4926-0.0457-0.2184-0.0457-0.4876-0.12189-0.1778-0.0508-0.2387-0.0559l0.046-0.9396h0.4114l0.1117 0.65518q0.066 0.0711 0.2336 0.12698 0.1727 0.0559 0.3911 0.0559 0.3403 0 0.5079-0.14729 0.1727-0.15236 0.1727-0.42154 0-0.17777-0.1016-0.30474-0.1016-0.13205-0.2793-0.23363-0.1778-0.10665-0.4876-0.24378-0.4216-0.193-0.7009-0.45711-0.2743-0.26918-0.2743-0.72628 0-0.28442 0.1473-0.51297 0.1473-0.23363 0.4368-0.36568 0.2946-0.13713 0.7161-0.13713 0.2489 0 0.4368 0.0356 0.193 0.0356 0.4165 0.0965 0.1321 0.0356 0.1981 0.0457l-0.031 0.88881h-0.4063l-0.1067-0.6247q-0.046-0.0457-0.1828-0.0864-0.1371-0.0457-0.3047-0.0457-0.3048 0-0.4622 0.14221-0.1524 0.13713-0.1524 0.37076 0 0.18792 0.1117 0.32505 0.1169 0.13713 0.2794 0.23363 0.1625 0.0914 0.513 0.26411 0.2844 0.13713 0.4875 0.26918 0.2032 0.13205 0.3505 0.34536 0.1473 0.20824 0.1473 0.49266 0 0.27934-0.1422 0.53328-0.1372 0.25395-0.4571 0.42155-0.3149 0.1676-0.8076 0.1676z"/>
   <path d="m1332.0706 117.58991q-0.1574 0-0.2743-0.10665-0.1168-0.11174-0.1168-0.27934 0-0.18792 0.1321-0.30474 0.1371-0.12189 0.3301-0.12189 0.1829 0 0.2895 0.11682 0.1067 0.11173 0.1067 0.26918 0 0.19807-0.1321 0.31489-0.127 0.11173-0.3352 0.11173z"/>
  </g>
  <g transform="matrix(7.2567965,0,0,7.2567965,-300.43811,-61.425348)" stop-color="#000000" style="shape-inside:url(#rect21758);white-space:pre" aria-label="Geovane M. S.">
   <path d="m235.96241 105.92234q-0.55868 0-0.96499-0.24379-0.40124-0.24887-0.60947-0.68057-0.20824-0.43171-0.20824-0.97515 0-0.62471 0.23871-1.07165 0.24379-0.44694 0.68565-0.67549 0.44187-0.22855 1.03102-0.22855 0.5536 0 1.24433 0.15744l-0.0559 0.94468h-0.51297l-0.13713-0.6501q-0.0508-0.0508-0.19299-0.0914-0.14221-0.0457-0.37076-0.0457-0.49774 0-0.78215 0.40631-0.28442 0.40123-0.28442 1.16307 0 0.7466 0.24378 1.20878 0.24379 0.4571 0.74152 0.4571 0.20316 0 0.38092-0.0508t0.26918-0.13205v-1.09197l-0.53836-0.0508v-0.34029h1.54399v0.34029l-0.26919 0.0457v1.3459q-0.10665 5e-3 -0.38599 0.0864-0.32505 0.0863-0.55868 0.12697-0.22855 0.0457-0.50789 0.0457z"/>
   <path d="m239.28909 105.92234q-0.67042 0-1.00055-0.39108-0.32505-0.39615-0.32505-1.07672 0-0.4571 0.16761-0.79231 0.17268-0.33521 0.48249-0.51297t0.71613-0.17776q0.50789 0 0.78215 0.26918 0.27426 0.2641 0.28442 0.75676 0 0.3352-0.0406 0.49773h-1.65064q0.0203 0.46218 0.21839 0.7212 0.19808 0.25395 0.56376 0.25395 0.19808 0 0.40631-0.066 0.21332-0.066 0.33521-0.15745l0.12697 0.27934q-0.13713 0.14729-0.44694 0.27426-0.30473 0.1219-0.61962 0.1219zm0.39615-1.73191q0.0102-0.14221 0.0102-0.21839 0-0.67549-0.45202-0.67549-0.24887 0-0.386 0.19807-0.13713 0.19808-0.15237 0.69581z"/>
   <path d="m240.80259 104.45961q0-0.47741 0.18792-0.81262 0.193-0.33521 0.51297-0.50281 0.31997-0.17268 0.69581-0.17268 0.63994 0 0.98531 0.39615 0.35044 0.39108 0.35044 1.06657 0 0.4825-0.193 0.82278-0.18792 0.33521-0.50789 0.50281-0.31489 0.16253-0.69581 0.16253-0.63486 0-0.9853-0.39108-0.35045-0.39615-0.35045-1.07165zm1.37639 1.1326q0.57391 0 0.57391-1.1072 0-0.579-0.13713-0.87865-0.13713-0.30473-0.44694-0.30473-0.58915 0-0.58915 1.1072 0 0.57899 0.1422 0.88372 0.14729 0.29966 0.45711 0.29966z"/>
   <path d="m243.7382 103.0426h1.34083v0.29458l-0.33521 0.066 0.46218 1.38146 0.16252 0.53837 0.13713-0.52313 0.45202-1.3967-0.31997-0.066v-0.29458h1.11736v0.29458l-0.2641 0.066-0.94468 2.5039h-0.58915l-1.0107-2.5039-0.20823-0.066z"/>
   <path d="m246.8414 105.07416q0-0.46218 0.46218-0.69581 0.46726-0.23363 1.2037-0.23871v-0.11681q0-0.20824-0.0457-0.32505-0.0406-0.11681-0.15745-0.17268-0.11173-0.0609-0.33013-0.0609-0.24886 0-0.44694 0.066-0.19808 0.0609-0.41139 0.16252l-0.15745-0.32505q0.0762-0.066 0.25395-0.15744 0.18284-0.0914 0.43171-0.15745 0.24886-0.0711 0.51297-0.0711 0.39107 0 0.60946 0.10157 0.22347 0.10158 0.31997 0.32505t0.0965 0.59931v1.55415h0.27426v0.28441q-0.10157 0.0254-0.28949 0.0508t-0.33013 0.0254q-0.17268 0-0.23363-0.0508-0.0559-0.0508-0.0559-0.20824v-0.13713q-0.13713 0.15237-0.35552 0.27426-0.2184 0.1219-0.49266 0.1219-0.23363 0-0.4317-0.0965-0.193-0.10158-0.30982-0.2895-0.11681-0.193-0.11681-0.46218zm1.18338 0.42663q0.10666 0 0.24379-0.0609 0.13713-0.066 0.23871-0.15744v-0.83294q-0.4571 0-0.68565 0.15744-0.22347 0.15237-0.22347 0.39616 0 0.24378 0.11173 0.37076 0.11682 0.12697 0.31489 0.12697z"/>
   <path d="m250.05634 103.5251-0.32505-0.0914v-0.35045l0.8431-0.10665h0.0152l0.12697 0.10157v0.19808l-5e-3 0.12189q0.17776-0.1676 0.46218-0.28949 0.28442-0.1219 0.57392-0.1219 0.30981 0 0.48249 0.11682 0.17776 0.11173 0.25395 0.35552 0.0762 0.24379 0.0762 0.66026v1.40178l0.30981 0.0406v0.30473h-1.31035v-0.30473l0.27426-0.0406v-1.40178q0-0.2641-0.0356-0.41139-0.0356-0.15237-0.13206-0.21839-0.0914-0.0711-0.2641-0.0711-0.2895 0-0.61962 0.24887v1.84872l0.30473 0.0457v0.30473h-1.32559v-0.30473l0.29457-0.0457z"/>
   <path d="m254.51054 105.92234q-0.67042 0-1.00055-0.39108-0.32505-0.39615-0.32505-1.07672 0-0.4571 0.16761-0.79231 0.17268-0.33521 0.48249-0.51297 0.30982-0.17776 0.71613-0.17776 0.50789 0 0.78215 0.26918 0.27426 0.2641 0.28442 0.75676 0 0.3352-0.0406 0.49773h-1.65065q0.0203 0.46218 0.2184 0.7212 0.19807 0.25395 0.56375 0.25395 0.19808 0 0.40632-0.066 0.21331-0.066 0.3352-0.15745l0.12698 0.27934q-0.13713 0.14729-0.44695 0.27426-0.30473 0.1219-0.61962 0.1219zm0.39615-1.73191q0.0102-0.14221 0.0102-0.21839 0-0.67549-0.45202-0.67549-0.24887 0-0.386 0.19807-0.13713 0.19808-0.15237 0.69581z"/>
   <path d="m257.81182 102.47377-0.54853-0.066v-0.31489h1.58462l0.60439 2.18392 0.14221 0.59424 0.12189-0.59424 0.59931-2.18392h1.56938v0.31489l-0.5536 0.066 0.40631 3.0321 0.4114 0.0559v0.30473h-1.62017v-0.30473l0.44694-0.0508-0.22347-2.22456-0.0965-0.92944-0.18792 0.78215-0.73644 2.56992h-0.53836l-0.75168-2.43787-0.25903-0.9142-0.0762 0.92944-0.193 2.22456 0.51297 0.0508v0.30473h-1.41193v-0.30473l0.42663-0.0508z"/>
   <path d="m262.87039 105.91218q-0.15744 0-0.27426-0.10666-0.11681-0.11173-0.11681-0.27934 0-0.18792 0.13205-0.30473 0.13713-0.12189 0.33013-0.12189 0.18284 0 0.28949 0.11681 0.10666 0.11174 0.10666 0.26918 0 0.19808-0.13205 0.31489-0.12697 0.11174-0.33521 0.11174z"/>
   <path d="m266.36467 105.92234q-0.27426 0-0.49265-0.0457-0.2184-0.0457-0.48758-0.1219-0.17776-0.0508-0.23871-0.0559l0.0457-0.9396h0.41139l0.11174 0.65518q0.066 0.0711 0.23363 0.12697 0.17268 0.0559 0.39107 0.0559 0.34029 0 0.50789-0.14729 0.17269-0.15237 0.17269-0.42155 0-0.17776-0.10158-0.30473-0.10158-0.13205-0.27934-0.23363-0.17776-0.10666-0.48758-0.24379-0.42154-0.193-0.70088-0.4571-0.27426-0.26918-0.27426-0.72628 0-0.28442 0.14728-0.51297 0.14729-0.23363 0.43679-0.36568 0.29458-0.13713 0.71612-0.13713 0.24887 0 0.43679 0.0356 0.193 0.0356 0.41647 0.0965 0.13205 0.0356 0.19808 0.0457l-0.0305 0.88881h-0.40631l-0.10666-0.62471q-0.0457-0.0457-0.18284-0.0863-0.13713-0.0457-0.30473-0.0457-0.30473 0-0.46218 0.14221-0.15237 0.13713-0.15237 0.37076 0 0.18792 0.11174 0.32505 0.11681 0.13713 0.27934 0.23363 0.16252 0.0914 0.51297 0.2641 0.28442 0.13713 0.48757 0.26918 0.20316 0.13205 0.35045 0.34537 0.14728 0.20823 0.14728 0.49265 0 0.27934-0.14221 0.53329-0.13713 0.25394-0.4571 0.42154-0.31489 0.16761-0.80754 0.16761z"/>
   <path d="m268.62477 105.91218q-0.15744 0-0.27426-0.10666-0.11681-0.11173-0.11681-0.27934 0-0.18792 0.13205-0.30473 0.13713-0.12189 0.33013-0.12189 0.18284 0 0.28949 0.11681 0.10666 0.11174 0.10666 0.26918 0 0.19808-0.13205 0.31489-0.12697 0.11174-0.33521 0.11174z"/>
  </g>
  <g transform="matrix(7.2567965,0,0,7.2567965,1000.5673,799.89182)" stop-color="#000000" style="shape-inside:url(#rect4613);white-space:pre" aria-label="João Gabriel G. M.">
   <path d="m-0.0660257 0.69073038q0.203156-0.0660257 0.37583859-0.23362939 0.1777615-0.1676037 0.25902389-0.42154869 0.0558679-0.1726826 0.0812624-0.41139089 0.0253945-0.24378719 0.0253945-0.68057261v-2.331215l-0.45710099-0.0711046v-0.3148918h1.62524791v0.3148918l-0.4266275 0.066026v1.9960076q0 0.54344232-0.015237 0.84309742-0.010158 0.29457619-0.050789 0.47233768-0.1066566 0.41139059-0.43678513 0.68057228-0.33012849 0.2742606-0.81262397 0.35552299z"/>
   <path d="m2.2143944-1.4068553q0-0.4774165 0.1879193-0.8126239 0.1929982-0.3352074 0.5129689-0.5028111 0.3199707-0.1726826 0.6958093-0.1726826 0.6399413 0 0.9853065 0.3961542 0.3504441 0.3910753 0.3504441 1.0665689 0 0.48249553-0.1929982 0.82278182-0.1879193 0.33520739-0.50789 0.50281108-0.3148918 0.1625248-0.6958092 0.1625248-0.6348625 0-0.9853066-0.39107529-0.3504441-0.39615419-0.3504441-1.07164791zm1.3763819 1.13259471q0.5739156 0 0.5739156-1.10720021 0-0.5789945-0.1371303-0.8786496-0.1371303-0.304734-0.4469431-0.304734-0.5891524 0-0.5891524 1.1072001 0 0.57899462 0.1422092 0.88372862 0.1472881 0.29965509 0.457101 0.29965509z"/>
   <path d="m5.3531531-0.79230838q0-0.46217992 0.4621798-0.69580932 0.4672588-0.2336294 1.2036993-0.2387083v-0.1168146q0-0.2082349-0.04571-0.3250496-0.040631-0.1168147-0.1574459-0.1726826-0.1117358-0.060947-0.3301285-0.060947-0.2488661 0-0.4469432 0.066026-0.1980771 0.060947-0.4113908 0.1625248l-0.157446-0.3250497q0.076183-0.066026 0.253945-0.1574459 0.1828403-0.09142 0.4317064-0.1574459 0.2488661-0.071105 0.5129689-0.071105 0.3910753 0 0.609468 0.101578 0.2234716 0.101578 0.3199707 0.3250496 0.096499 0.2234716 0.096499 0.5993102v1.55414331h0.2742606v0.28441839q-0.101578 0.0253945-0.2894973 0.050789t-0.3301285 0.0253945q-0.1726826 0-0.2336294-0.050789-0.055868-0.050789-0.055868-0.20823489v-0.1371303q-0.1371303 0.152367-0.355523 0.27426059-0.2183927 0.1218936-0.4926533 0.1218936-0.2336294 0-0.4317064-0.0964991-0.1929982-0.101578-0.3098129-0.28949729-0.1168147-0.1929982-0.1168147-0.46217989zm1.1833836 0.42662759q0.1066569 0 0.2437872-0.0609468 0.1371303-0.0660257 0.2387083-0.15744589v-0.83293962q-0.457101 0-0.6856515 0.1574459-0.2234716 0.152367-0.2234716 0.39615422 0 0.2437872 0.1117358 0.37075969 0.1168147 0.1269725 0.3148918 0.1269725zm-0.9751487-3.19970691q0.050789-0.253945 0.2336293-0.4164698 0.1828404-0.1625248 0.4266276-0.1625248 0.1472881 0 0.2488661 0.060947 0.1066569 0.055868 0.2387083 0.1625248 0.086341 0.081262 0.152367 0.1218936 0.066026 0.035552 0.1371303 0.035552 0.1218936 0 0.1828404-0.066026 0.060947-0.071105 0.086341-0.1320514 0.025394-0.066026 0.035552-0.081262l0.2996551 0.1676037q-0.04571 0.253945-0.2082349 0.4215487-0.1625248 0.1625248-0.4113909 0.1625248-0.1422092 0-0.2437872-0.055868-0.101578-0.060947-0.2387083-0.1726826-0.096499-0.081262-0.1625248-0.1218936-0.066026-0.040631-0.1422092-0.040631-0.1117358 0-0.1777615 0.055868-0.060947 0.055868-0.101578 0.1269725-0.040631 0.071105-0.066026 0.101578z"/>
   <path d="m8.2836786-1.4068553q0-0.4774165 0.1879193-0.8126239 0.1929982-0.3352074 0.5129689-0.5028111 0.3199707-0.1726826 0.6958093-0.1726826 0.6399409 0 0.9853069 0.3961542 0.350444 0.3910753 0.350444 1.0665689 0 0.48249553-0.192998 0.82278182-0.18792 0.33520739-0.50789 0.50281108-0.314892 0.1625248-0.6958097 0.1625248-0.6348625 0-0.9853066-0.39107529-0.3504441-0.39615419-0.3504441-1.07164791zm1.3763819 1.13259471q0.5739155 0 0.5739155-1.10720021 0-0.5789945-0.13713-0.8786496-0.1371305-0.304734-0.4469433-0.304734-0.5891524 0-0.5891524 1.1072001 0 0.57899462 0.1422092 0.88372862 0.1472881 0.29965509 0.457101 0.29965509z"/>
   <path d="m14.413907 0.0558679q-0.558679 0-0.964991-0.24378719-0.401234-0.2488661-0.609468-0.68057259-0.208235-0.43170652-0.208235-0.97514872 0-0.6247047 0.238708-1.0716479 0.243787-0.4469432 0.685651-0.6754937 0.441865-0.2285505 1.031017-0.2285505 0.5536 0 1.244331 0.1574459l-0.05587 0.9446754h-0.512969l-0.137131-0.6500992q-0.05079-0.050789-0.192998-0.09142-0.142209-0.04571-0.370759-0.04571-0.497733 0-0.782151 0.406312-0.284418 0.4012331-0.284418 1.1630681 0 0.7465982 0.243787 1.20877812 0.243787 0.45710099 0.741519 0.45710099 0.203156 0 0.380918-0.050789 0.177761-0.050789 0.269181-0.1320514v-1.09196381l-0.538363-0.050789v-0.3402862h1.543986v0.3402862l-0.269182 0.04571v1.34590851q-0.106657 0.005079-0.385997 0.0863413-0.325049 0.0863413-0.558679 0.1269725-0.22855 0.0457101-0.507889 0.0457101z"/>
   <path d="m16.404832-0.79230838q0-0.46217992 0.46218-0.69580932 0.467258-0.2336294 1.203699-0.2387083v-0.1168146q0-0.2082349-0.04571-0.3250496-0.04063-0.1168147-0.157446-0.1726826-0.111736-0.060947-0.330129-0.060947-0.248866 0-0.446943 0.066026-0.198077 0.060947-0.411391 0.1625248l-0.157446-0.3250496q0.07618-0.066026 0.253945-0.1574459 0.182841-0.09142 0.431707-0.1574459 0.248866-0.071105 0.512969-0.071105 0.391075 0 0.609468 0.101578 0.223471 0.101578 0.31997 0.3250496 0.0965 0.2234716 0.0965 0.5993102v1.55414331h0.27426v0.28441839q-0.101578 0.0253945-0.289497 0.050789t-0.330129 0.0253945q-0.172682 0-0.233629-0.050789-0.05587-0.050789-0.05587-0.20823489v-0.1371303q-0.13713 0.152367-0.355523 0.27426059-0.218393 0.1218936-0.492653 0.1218936-0.23363 0-0.431707-0.0964991-0.192998-0.101578-0.309813-0.28949729-0.116814-0.1929982-0.116814-0.46217989zm1.183383 0.42662759q0.106657 0 0.243788-0.0609468 0.13713-0.0660257 0.238708-0.15744589v-0.83293962q-0.457101 0-0.685652 0.1574459-0.223471 0.152367-0.223471 0.39615422 0 0.2437872 0.111736 0.37075969 0.116814 0.1269725 0.314891 0.1269725z"/>
   <path d="m19.106808-4.0529621 0.929438-0.1117358h0.01016l0.142209 0.096499v1.4982755q0.137131-0.1371303 0.335208-0.2285505 0.203156-0.096499 0.436785-0.096499 0.487575 0 0.792309 0.3453652 0.309812 0.3402863 0.309812 1.0462533 0 0.4367854-0.18284 0.79230842-0.18284 0.35552299-0.528206 0.56375788-0.340286 0.203156-0.792308 0.203156-0.401233 0-0.695809-0.0660257-0.294576-0.0711046-0.375839-0.1269725v-3.5907822l-0.380917-0.060947zm1.584616 1.6049324q-0.152367 0-0.289497 0.071105-0.132051 0.066026-0.213314 0.152367v1.85379841q0.03047 0.0558679 0.14221 0.0914202 0.111735 0.0355523 0.253945 0.0355523 0.325049 0 0.518047-0.2996551 0.198077-0.30473399 0.198077-0.89896531 0-0.5129688-0.167603-0.756756-0.167604-0.2488661-0.441865-0.2488661z"/>
   <path d="m22.474108-0.29965509 0.335208-0.0406312v-2.00108651l-0.32505-0.09142v-0.3504441l0.78723-0.1066569h0.01524l0.126973 0.101578v0.1117358l-0.01524 0.4113909h0.01524q0.03555-0.101578 0.167603-0.2488661 0.132052-0.152367 0.330129-0.2641028 0.203156-0.1168147 0.436785-0.1168147 0.111736 0 0.192999 0.030473v0.761835q-0.152367-0.1066569-0.37076-0.1066569-0.37076 0-0.64502 0.1980771v1.66587911l0.589152 0.0457101v0.29965529h-1.640485z"/>
   <path d="m25.470652-3.2860482q-0.18284 0-0.289497-0.1066569t-0.106657-0.2742606q0-0.1929982 0.121893-0.3199707 0.121894-0.1269725 0.32505-0.1269725t0.309813 0.1117358q0.106657 0.1066569 0.106657 0.2691817 0 0.203156-0.121894 0.3250496-0.121893 0.1218936-0.340286 0.1218936zm-0.269182 0.9446754-0.360602-0.096499v-0.3402863l0.929439-0.1117358h0.01016l0.142209 0.101578v2.44295081l0.340286 0.0406312v0.30473389h-1.417013v-0.30473399l0.355523-0.0457101z"/>
   <path d="m27.908515 0.0558679q-0.670415 0-1.000543-0.39107529-0.32505-0.39615419-0.32505-1.07672681 0-0.4571009 0.167604-0.7923083 0.172682-0.3352074 0.482495-0.5129689t0.716125-0.1777615q0.50789 0 0.782151 0.2691817 0.27426 0.2641028 0.284418 0.7567561 0 0.3352073-0.04063 0.4977321h-1.650643q0.02032 0.46217992 0.218393 0.72120382 0.198077 0.25394499 0.563758 0.25394499 0.198077 0 0.406312-0.0660257 0.213314-0.0660257 0.335207-0.15744589l0.126973 0.27933949q-0.13713 0.1472881-0.446943 0.27426059-0.304734 0.1218936-0.619626 0.1218936zm0.396154-1.7319049q0.01016-0.1422092 0.01016-0.2183926 0-0.6754937-0.452022-0.6754937-0.248866 0-0.385997 0.1980771-0.13713 0.1980771-0.152367 0.6958092z"/>
   <path d="m29.716601-3.7126758-0.375839-0.066026v-0.2742606l0.939596-0.1117358h0.01016l0.13713 0.096499v3.72283361l0.37076 0.0406312v0.30473439h-1.437328v-0.30473399l0.355523-0.0457101z"/>
   <path d="m34.084441 0.0558679q-0.558679 0-0.964991-0.24378719-0.401233-0.2488661-0.609468-0.68057259-0.208235-0.43170652-0.208235-0.97514872 0-0.6247047 0.238708-1.0716479 0.243787-0.4469432 0.685652-0.6754937 0.441864-0.2285505 1.031016-0.2285505 0.5536 0 1.244331 0.1574459l-0.05587 0.9446754h-0.512969l-0.13713-0.6500992q-0.05079-0.050789-0.192999-0.09142-0.142209-0.04571-0.370759-0.04571-0.497732 0-0.782151 0.406312-0.284418 0.4012331-0.284418 1.1630681 0 0.7465982 0.243787 1.20877812 0.243787 0.45710099 0.741519 0.45710099 0.203156 0 0.380918-0.050789 0.177761-0.050789 0.269182-0.1320514v-1.09196381l-0.538364-0.050789v-0.3402862h1.543986v0.3402862l-0.269182 0.04571v1.34590851q-0.106657 0.005079-0.385996 0.0863413-0.32505 0.0863413-0.558679 0.1269725-0.228551 0.0457101-0.50789 0.0457101z"/>
   <path d="m36.608654 0.0457101q-0.157446 0-0.27426-0.1066569-0.116815-0.1117358-0.116815-0.27933949 0-0.1879193 0.132051-0.30473399 0.137131-0.1218936 0.330129-0.1218936 0.18284 0 0.289497 0.1168147 0.106657 0.11173579 0.106657 0.26918169 0 0.1980771-0.132051 0.31489179-0.126973 0.1117358-0.335208 0.1117358z"/>
   <path d="m39.407122-3.3927051-0.548522-0.0660257v-0.3148918h1.584617l0.604389 2.1839269 0.14221 0.59423133 0.121893-0.59423133 0.59931-2.1839269h1.56938v0.3148918l-0.5536 0.066026 0.406312 3.03210321 0.411391 0.0558679v0.30473369h-1.620169v-0.30473399l0.446943-0.050789-0.223471-2.22455811-0.0965-0.9294387-0.18792 0.7821506-0.73644 2.5699233h-0.538364l-0.751677-2.4378719-0.259024-0.914202-0.07618 0.9294387-0.192998 2.22455811 0.512969 0.050789v0.30473399h-1.411935v-0.30473399l0.426628-0.050789z"/>
   <path d="m44.465695 0.0457101q-0.157446 0-0.274261-0.1066569-0.116815-0.1117358-0.116815-0.27933949 0-0.1879193 0.132052-0.30473399 0.13713-0.1218936 0.330128-0.1218936 0.182841 0 0.289497 0.1168147 0.106657 0.11173579 0.106657 0.26918169 0 0.1980771-0.132051 0.31489179-0.126973 0.1117358-0.335207 0.1117358z"/>
  </g>
  <g transform="matrix(7.2567965 0 0 7.2567965 -.82155799 571.44013)" stop-color="#000000" style="shape-inside:url(#rect26000);white-space:pre" aria-label="João Pedro S. C.">
   <path d="m188.89491 31.590404q0.20316-0.06603 0.37584-0.23363 0.17776-0.167603 0.25902-0.421548 0.0559-0.172683 0.0813-0.411391 0.0254-0.243787 0.0254-0.680573v-2.331215l-0.4571-0.0711v-0.314892h1.62525v0.314892l-0.42663 0.06602v1.996008q0 0.543442-0.0152 0.843097-0.0101 0.294576-0.0508 0.472338-0.10665 0.411391-0.43678 0.680573-0.33013 0.27426-0.81262 0.355523z"/>
   <path d="m191.17533 29.492818q0-0.477416 0.18792-0.812624 0.193-0.335207 0.51297-0.502811 0.31997-0.172683 0.69581-0.172683 0.63994 0 0.98531 0.396155 0.35044 0.391075 0.35044 1.066569 0 0.482495-0.193 0.822781-0.18792 0.335208-0.50789 0.502811-0.31489 0.162525-0.69581 0.162525-0.63486 0-0.9853-0.391075-0.35045-0.396154-0.35045-1.071648zm1.37638 1.132595q0.57392 0 0.57392-1.1072 0-0.578995-0.13713-0.87865-0.13713-0.304734-0.44694-0.304734-0.58916 0-0.58916 1.1072 0 0.578995 0.14221 0.883729 0.14729 0.299655 0.4571 0.299655z"/>
   <path d="m194.31409 30.107365q0-0.46218 0.46218-0.695809 0.46726-0.23363 1.2037-0.238709v-0.116814q0-0.208235-0.0457-0.32505-0.0406-0.116815-0.15745-0.172682-0.11173-0.06095-0.33012-0.06095-0.24887 0-0.44695 0.06602-0.19808 0.06095-0.41139 0.162525l-0.15744-0.325049q0.0762-0.06603 0.25394-0.157446 0.18284-0.09142 0.43171-0.157446 0.24886-0.0711 0.51297-0.0711 0.39107 0 0.60946 0.101578 0.22348 0.101578 0.31997 0.32505 0.0965 0.223471 0.0965 0.59931v1.554143h0.27426v0.284419q-0.10157 0.02539-0.28949 0.05079-0.18792 0.02539-0.33013 0.02539-0.17268 0-0.23363-0.05079-0.0559-0.05079-0.0559-0.208235v-0.13713q-0.13713 0.152367-0.35552 0.274261-0.21839 0.121893-0.49266 0.121893-0.23362 0-0.4317-0.0965-0.193-0.101578-0.30981-0.289497-0.11682-0.192998-0.11682-0.46218zm1.18338 0.426628q0.10666 0 0.24379-0.06095 0.13713-0.06603 0.23871-0.157446v-0.83294q-0.4571 0-0.68565 0.157446-0.22347 0.152367-0.22347 0.396154 0 0.243788 0.11173 0.37076 0.11682 0.126973 0.31489 0.126973zm-0.97514-3.199707q0.0508-0.253945 0.23362-0.41647 0.18285-0.162525 0.42663-0.162525 0.14729 0 0.24887 0.06095 0.10666 0.05587 0.23871 0.162525 0.0863 0.08126 0.15236 0.121893 0.066 0.03555 0.13713 0.03555 0.1219 0 0.18284-0.06603 0.0609-0.0711 0.0863-0.132052 0.0254-0.06602 0.0356-0.08126l0.29965 0.167604q-0.0457 0.253945-0.20823 0.421548-0.16253 0.162525-0.41139 0.162525-0.14221 0-0.24379-0.05587-0.10158-0.06095-0.23871-0.172682-0.0965-0.08126-0.16252-0.121894-0.066-0.04063-0.14221-0.04063-0.11174 0-0.17776 0.05587-0.061 0.05587-0.10158 0.126972-0.0406 0.07111-0.066 0.101578z"/>
   <path d="m197.24462 29.492818q0-0.477416 0.18792-0.812624 0.19299-0.335207 0.51296-0.502811 0.31997-0.172683 0.69581-0.172683 0.63994 0 0.98531 0.396155 0.35044 0.391075 0.35044 1.066569 0 0.482495-0.19299 0.822781-0.18792 0.335208-0.50789 0.502811-0.3149 0.162525-0.69581 0.162525-0.63487 0-0.98531-0.391075-0.35044-0.396154-0.35044-1.071648zm1.37638 1.132595q0.57391 0 0.57391-1.1072 0-0.578995-0.13713-0.87865-0.13713-0.304734-0.44694-0.304734-0.58915 0-0.58915 1.1072 0 0.578995 0.14221 0.883729 0.14729 0.299655 0.4571 0.299655z"/>
   <path d="m202.01878 27.506968-0.38092-0.06602v-0.314892h0.76691q0.10666 0 0.33013-0.01016 0.29458-0.02032 0.53329-0.02032 0.5282 0 0.83294 0.132052 0.30981 0.126972 0.43678 0.370759 0.13205 0.238709 0.13205 0.609468 0 0.639942-0.40123 0.995465-0.39615 0.355523-1.10212 0.355523-0.27934 0-0.40123-0.01524v1.000543l0.68057 0.05079v0.304734h-1.82841v-0.304734l0.40124-0.05079zm0.74152 1.71159q0.11681 0.02539 0.39615 0.02539 0.34029 0 0.54344-0.233629 0.20824-0.238709 0.20824-0.78723 0-0.426627-0.18792-0.619626-0.18284-0.198077-0.56376-0.198077-0.14221 0-0.29457 0.02032-0.0711 0.01016-0.10158 0.01016z"/>
   <path d="m206.27997 30.955541q-0.67041 0-1.00054-0.391075-0.32505-0.396154-0.32505-1.076727 0-0.457101 0.1676-0.792308 0.17268-0.335208 0.4825-0.512969 0.30981-0.177762 0.71612-0.177762 0.50789 0 0.78215 0.269182 0.27426 0.264103 0.28442 0.756756 0 0.335208-0.0406 0.497732h-1.65064q0.0203 0.46218 0.21839 0.721204 0.19808 0.253945 0.56376 0.253945 0.19808 0 0.40631-0.06603 0.21331-0.06602 0.33521-0.157445l0.12697 0.279339q-0.13713 0.147288-0.44694 0.274261-0.30474 0.121893-0.61963 0.121893zm0.39616-1.731905q0.0102-0.142209 0.0102-0.218392 0-0.675494-0.45202-0.675494-0.24887 0-0.386 0.198077t-0.15236 0.695809z"/>
   <path d="m208.85497 30.955541q-0.31489 0-0.56376-0.147288-0.24887-0.152367-0.39615-0.467259-0.14729-0.314891-0.14729-0.787229 0-0.426628 0.17268-0.777072 0.17776-0.355523 0.51805-0.563758t0.8177-0.208235q0.193 0 0.36568 0.04063v-0.858334l-0.49773-0.0711v-0.27934l1.04625-0.101578h0.0152l0.14221 0.106657v3.748228h0.27426v0.289498q-0.36568 0.07618-0.60439 0.07618-0.16252 0-0.23363-0.05587-0.066-0.05079-0.066-0.208235v-0.142209q-0.13206 0.177762-0.36061 0.294576-0.22855 0.111736-0.48249 0.111736zm0.2641-0.421548q0.16761 0 0.29458-0.06603 0.13205-0.07111 0.20823-0.167604v-1.848719q-0.0356-0.05079-0.15236-0.08634-0.11174-0.03555-0.24379-0.03555-0.32505 0-0.52313 0.284418-0.193 0.27934-0.193 0.898966 0 0.518047 0.16761 0.771992 0.1676 0.248867 0.44186 0.248867z"/>
   <path d="m210.97287 30.600018 0.3352-0.04063v-2.001086l-0.32505-0.09142v-0.350444l0.78723-0.106657h0.0152l0.12697 0.101578v0.111736l-0.0152 0.411391h0.0152q0.0356-0.101578 0.16761-0.248866 0.13205-0.152367 0.33013-0.264103 0.20315-0.116815 0.43678-0.116815 0.11174 0 0.193 0.03047v0.761835q-0.15237-0.106657-0.37076-0.106657-0.37076 0-0.64502 0.198077v1.665879l0.58915 0.04571v0.299655h-1.64048z"/>
   <path d="m213.36502 29.492818q0-0.477416 0.18792-0.812624 0.193-0.335207 0.51297-0.502811 0.31997-0.172683 0.69581-0.172683 0.63994 0 0.98531 0.396155 0.35044 0.391075 0.35044 1.066569 0 0.482495-0.193 0.822781-0.18792 0.335208-0.50789 0.502811-0.31489 0.162525-0.69581 0.162525-0.63486 0-0.9853-0.391075-0.35045-0.396154-0.35045-1.071648zm1.37639 1.132595q0.57391 0 0.57391-1.1072 0-0.578995-0.13713-0.87865-0.13713-0.304734-0.44694-0.304734-0.58916 0-0.58916 1.1072 0 0.578995 0.14221 0.883729 0.14729 0.299655 0.45711 0.299655z"/>
   <path d="m219.04323 30.955541q-0.27426 0-0.49265-0.04571-0.2184-0.04571-0.48758-0.121893-0.17776-0.05079-0.23871-0.05587l0.0457-0.939597h0.41139l0.11174 0.655178q0.066 0.0711 0.23363 0.126973 0.17268 0.05587 0.39107 0.05587 0.34029 0 0.50789-0.147288 0.17269-0.152367 0.17269-0.421549 0-0.177762-0.10158-0.304734-0.10158-0.132052-0.27934-0.23363-0.17776-0.106656-0.48757-0.243787-0.42155-0.192998-0.70089-0.457101-0.27426-0.269181-0.27426-0.726282 0-0.284419 0.14728-0.512969 0.14729-0.23363 0.43679-0.365681 0.29458-0.13713 0.71612-0.13713 0.24887 0 0.43679 0.03555 0.193 0.03555 0.41647 0.0965 0.13205 0.03555 0.19808 0.04571l-0.0305 0.888808h-0.40631l-0.10666-0.624705q-0.0457-0.04571-0.18284-0.08634-0.13713-0.04571-0.30473-0.04571-0.30473 0-0.46218 0.142209-0.15237 0.13713-0.15237 0.370759 0 0.18792 0.11174 0.32505 0.11681 0.13713 0.27934 0.233629 0.16252 0.09142 0.51297 0.264103 0.28442 0.137131 0.48757 0.269182 0.20316 0.132051 0.35045 0.345365 0.14728 0.208235 0.14728 0.492653 0 0.27934-0.1422 0.533285-0.13714 0.253945-0.45711 0.421549-0.31489 0.167603-0.80754 0.167603z"/>
   <path d="m221.30333 30.945383q-0.15744 0-0.27426-0.106656-0.11681-0.111736-0.11681-0.27934 0-0.187919 0.13205-0.304734 0.13713-0.121894 0.33013-0.121894 0.18284 0 0.2895 0.116815 0.10665 0.111736 0.10665 0.269182 0 0.198077-0.13205 0.314892-0.12697 0.111735-0.33521 0.111735z"/>
   <path d="m225.21408 30.955541q-0.86341 0-1.32051-0.512969-0.4571-0.518047-0.4571-1.411934 0-0.589152 0.2387-1.025938 0.24379-0.441864 0.66534-0.680572t0.95483-0.238708q0.22347 0 0.43171 0.03047 0.20823 0.02539 0.49265 0.0711 0.21332 0.03555 0.23363 0.03555l-0.0559 1.046253h-0.46726l-0.15744-0.726282q-0.0559-0.05587-0.193-0.09142-0.13713-0.03555-0.35044-0.03555-0.43171 0-0.69581 0.401233-0.25903 0.396154-0.25903 1.15291 0 0.731362 0.24887 1.193542t0.72628 0.46218q0.22855 0 0.35045-0.04063 0.12697-0.04571 0.21331-0.126973l0.22347-0.523127 0.42663 0.04063-0.10158 0.787229q-0.10666 0.01016-0.21331 0.04063-0.10158 0.0254-0.12697 0.03047-0.20316 0.05587-0.38092 0.08634-0.17269 0.03555-0.42663 0.03555z"/>
   <path d="m227.33706 30.945383q-0.15745 0-0.27427-0.106656-0.11681-0.111736-0.11681-0.27934 0-0.187919 0.13205-0.304734 0.13713-0.121894 0.33013-0.121894 0.18284 0 0.2895 0.116815 0.10665 0.111736 0.10665 0.269182 0 0.198077-0.13205 0.314892-0.12697 0.111735-0.3352 0.111735z"/>
  </g>
  <g transform="matrix(7.2567965,0,0,7.2567965,177.73393,880.49463)" stop-color="#000000" style="shape-inside:url(#rect27216);white-space:pre" aria-label="Rebeca M.  C.">
   <path d="m84.270343 2.0070487 0.401233-0.050789v-3.0371821l-0.380918-0.071105v-0.3098129h0.736441q0.0965 0 0.213314-0.00508t0.177761-0.010158q0.264103-0.020316 0.436785-0.020316 0.523127 0 0.838019 0.1066569t0.457101 0.3250496q0.142209 0.21839272 0.142209 0.57391571 0 0.35044409-0.187919 0.65009919-0.187919 0.29965509-0.543442 0.41139088 0.203156 0.0863413 0.360601 0.3148918 0.157446 0.22855052 0.335208 0.59423132 0.126972 0.2488661 0.192998 0.3606018 0.0711 0.1066569 0.13713 0.1218936l0.167604 0.050789v0.2996551h-0.863413q-0.08126 0-0.172683-0.1625248-0.086341-0.1676016-0.22855-0.5231245-0.167604-0.4164698-0.289497-0.65009923-0.121894-0.23362939-0.259024-0.28949729h-0.523127v1.26972492l0.467259 0.050789v0.304734h-1.61509zm1.61509-1.63032681q0.289497 0 0.452022-0.20823489 0.162525-0.2082349 0.162525-0.62470469 0-0.37075969-0.162525-0.54852121-0.157446-0.1777615-0.548521-0.1777615-0.142209 0-0.243787 0.015237-0.0965 0.010158-0.126973 0.010158v1.52366999q0.06095 0.0101578 0.294576 0.0101578z"/>
   <path d="m89.242579 2.3676506q-0.670414 0-1.000543-0.3910753-0.325049-0.3961541-0.325049-1.07672672 0-0.45710099 0.167603-0.79230838 0.172683-0.33520739 0.482496-0.51296889 0.309813-0.17776149 0.716125-0.17776149 0.50789 0 0.78215 0.26918169 0.274261 0.26410279 0.284419 0.75675608 0 0.33520739-0.04063 0.49773218h-1.650642q0.02031 0.46217993 0.218393 0.72120383 0.198077 0.2539449 0.563757 0.2539449 0.198078 0 0.406312-0.066026 0.213314-0.066026 0.335208-0.1574458l0.126972 0.2793394q-0.13713 0.1472881-0.446943 0.2742606-0.304734 0.1218936-0.619626 0.1218936zm0.396155-1.73190482q0.01016-0.14220919 0.01016-0.21839269 0-0.67549368-0.452022-0.67549368-0.248866 0-0.385996 0.19807709-0.13713 0.1980771-0.152367 0.69580928z"/>
   <path d="m90.527537-1.7411794 0.929439-0.1117357h0.01016l0.142209 0.096499v1.49827551q0.13713-0.1371303 0.335207-0.2285505 0.203156-0.0964991 0.436786-0.0964991 0.487574 0 0.792308 0.34536519 0.309813 0.34028629 0.309813 1.04625337 0 0.43678542-0.18284 0.79230842-0.182841 0.3555229-0.528206 0.5637578-0.340286 0.203156-0.792308 0.203156-0.401233 0-0.69581-0.066026-0.294576-0.071105-0.375838-0.1269725v-3.5907822l-0.380918-0.060947zm1.584617 1.6049324q-0.152367 0-0.289497 0.0711046-0.132052 0.0660257003-0.213314 0.152367v1.8537984q0.03047 0.055868 0.142209 0.09142 0.111736 0.035552 0.253945 0.035552 0.32505 0 0.518048-0.299655 0.198077-0.304734 0.198077-0.89896532 0-0.51296889-0.167604-0.75675608-0.167603-0.2488661-0.441864-0.2488661z"/>
   <path d="m95.174721 2.3676506q-0.670415 0-1.000544-0.3910753-0.325049-0.3961541-0.325049-1.07672672 0-0.45710099 0.167604-0.79230838 0.172682-0.33520739 0.482495-0.51296889 0.309813-0.17776149 0.716125-0.17776149 0.50789 0 0.78215 0.26918169 0.274261 0.26410279 0.284419 0.75675608 0 0.33520739-0.04063 0.49773218h-1.650643q0.02032 0.46217993 0.218393 0.72120383 0.198077 0.2539449 0.563758 0.2539449 0.198077 0 0.406312-0.066026 0.213314-0.066026 0.335207-0.1574458l0.126972 0.2793397q-0.137131 0.1472881-0.446944 0.2742606-0.304734 0.1218936-0.619625 0.1218936zm0.396154-1.73190482q0.01016-0.14220919 0.01016-0.21839269 0-0.67549368-0.452022-0.67549368-0.248867 0-0.385997 0.19807709-0.13713 0.1980771-0.152367 0.69580928z"/>
   <path d="m96.622203 0.91508528q0-0.43678539 0.172683-0.77707168 0.177762-0.34028629 0.502811-0.52820559 0.330129-0.19299819 0.766914-0.19299819 0.203156 0 0.350444 0.0304734t0.330129 0.0812624l0.147288 0.0406312-0.03047 0.86849188h-0.441868l-0.126973-0.558679q-0.03047-0.13205139-0.299655-0.13205139-0.284418 0-0.446943 0.24886609-0.157446 0.24886609-0.162525 0.77707168 0 0.55867902 0.192999 0.85833412 0.192998 0.2945761 0.512969 0.2945761 0.385996 0 0.711045-0.2082348l0.116815 0.2641027q-0.132051 0.1422092-0.406312 0.2641028-0.269181 0.1218936-0.584073 0.1218936-0.650099 0-0.980228-0.4012331-0.32505-0.401233-0.32505-1.05133222z"/>
   <path d="m99.268306 1.5194744q0-0.4621799 0.462179-0.69580932 0.467255-0.2336294 1.203695-0.2387083v-0.11681469q0-0.2082349-0.0457-0.32504959-0.0406-0.1168147-0.15744-0.1726826-0.11174-0.0609468-0.33013-0.0609468-0.24887 0-0.446943 0.0660257-0.198077 0.0609468-0.411391 0.1625248l-0.157456-0.32504959q0.07618-0.0660257 0.253945-0.1574459 0.182841-0.0914202 0.431705-0.1574459 0.24887-0.0711046 0.51297-0.0711046 0.39108 0 0.60947 0.10157799 0.22347 0.101578 0.31997 0.32504959 0.0965 0.2234716 0.0965 0.59931019v1.55414332h0.27426v0.2844184q-0.10158 0.025394-0.2895 0.050789-0.18792 0.025394-0.33013 0.025394-0.17268 0-0.23363-0.050789-0.0559-0.050789-0.0559-0.2082349v-0.1371298q-0.13713 0.152367-0.35553 0.2742606-0.21839 0.1218936-0.49265 0.1218936-0.23363 0-0.431707-0.096499-0.192958-0.1015781-0.309773-0.2894974-0.116814-0.1929981-0.116814-0.4621798zm1.183384 0.4266275q0.10666 0 0.24379-0.060947 0.13713-0.066026 0.2387-0.1574458v-0.83293942q-0.4571 0-0.68565 0.15744592-0.22347 0.152367-0.22347 0.3961542t0.11174 0.3707597q0.11681 0.1269724 0.31489 0.1269724z"/>
   <path d="m103.9866-1.0809224-0.54852-0.066026v-0.3148918h1.58462l0.60439 2.18392698 0.1422 0.59423132 0.1219-0.59423132 0.59931-2.18392698h1.56938v0.3148918l-0.5536 0.066026 0.40631 3.0321032 0.41139 0.055868v0.304734h-1.62017v-0.304734l0.44695-0.050789-0.22348-2.22455809-0.0965-0.92943871-0.18791 0.78215061-0.73644 2.56992329h-0.53837l-0.75168-2.43787189-0.25902-0.91420201-0.0762 0.92943871-0.193 2.22455809 0.51297 0.050789v0.304734h-1.41194v-0.304734l0.42663-0.050789z"/>
   <path d="m109.04518 2.3574928q-0.15745 0-0.27426-0.1066569-0.11682-0.1117358-0.11682-0.2793395 0-0.1879192 0.13205-0.3047339 0.13713-0.1218936 0.33013-0.1218936 0.18284 0 0.2895 0.1168147 0.10666 0.1117358 0.10666 0.2691816 0 0.1980771-0.13206 0.3148918-0.12697 0.1117358-0.3352 0.1117358z"/>
   <path d="m114.15962 2.3676506q-0.86341 0-1.32051-0.5129689-0.45711-0.5180477-0.45711-1.41193411 0-0.58915239 0.23871-1.02593777 0.24379-0.44186432 0.66534-0.68057262t0.95483-0.2387083q0.22347 0 0.43171 0.030473 0.20823 0.025394 0.49265 0.071105 0.21332 0.035552 0.23363 0.035552l-0.0559 1.04625341h-0.46726l-0.15741-0.72628241q-0.0559-0.055868-0.193-0.09142-0.13713-0.035552-0.35044-0.035552-0.43171 0-0.69581 0.40123312-0.25903 0.39615419-0.25903 1.15291027 0 0.73136161 0.24887 1.19354151 0.24887 0.4621798 0.72628 0.4621798 0.22855 0 0.35045-0.040631 0.12697-0.04571 0.21331-0.1269725l0.22347-0.5231266 0.42663 0.040631-0.10158 0.7872294q-0.10666 0.010158-0.21331 0.040631-0.10158 0.025394-0.12698 0.030473-0.20315 0.055868-0.38091 0.086341-0.17269 0.035552-0.42663 0.035552z"/>
   <path d="m116.28259 2.3574928q-0.15744 0-0.27426-0.1066569-0.11681-0.1117358-0.11681-0.2793395 0-0.1879192 0.13205-0.3047339 0.13713-0.1218936 0.33013-0.1218936 0.18284 0 0.2895 0.1168147 0.10665 0.1117358 0.10665 0.2691816 0 0.1980771-0.13205 0.3148918-0.12697 0.1117358-0.33521 0.1117358z"/>
  </g>
  <g transform="matrix(7.2567965,0,0,7.2567965,599.3174,537.27083)" stop-color="#000000" style="shape-inside:url(#rect27684);white-space:pre" aria-label="Pamela F. S. L. O.">
   <path d="m103.32509 46.215953-0.38092-0.06603v-0.314892h0.76692q0.10666 0 0.33013-0.01016 0.29457-0.02032 0.53328-0.02032 0.52821 0 0.83294 0.132051 0.30981 0.126973 0.43679 0.37076 0.13205 0.238708 0.13205 0.609468 0 0.639941-0.40124 0.995464-0.39615 0.355523-1.10212 0.355523-0.27934 0-0.40123-0.01524v1.000544l0.68057 0.05079v0.304734h-1.8284v-0.304734l0.40123-0.05079zm0.74152 1.711589q0.11682 0.02539 0.39616 0.02539 0.34028 0 0.54344-0.233629 0.20823-0.238708 0.20823-0.787229 0-0.426628-0.18792-0.619626-0.18284-0.198077-0.56375-0.198077-0.14221 0-0.29458 0.02031-0.0711 0.01016-0.10158 0.01016z"/>
   <path d="m106.25053 48.816349q0-0.46218 0.46218-0.695809 0.46726-0.233629 1.2037-0.238708v-0.116815q0-0.208235-0.0457-0.32505-0.0406-0.116814-0.15744-0.172682-0.11174-0.06095-0.33013-0.06095-0.24887 0-0.44694 0.06603-0.19808 0.06095-0.41139 0.162525l-0.15745-0.32505q0.0762-0.06603 0.25394-0.157446 0.18284-0.09142 0.43171-0.157446 0.24887-0.0711 0.51297-0.0711 0.39108 0 0.60947 0.101578 0.22347 0.101578 0.31997 0.325049 0.0965 0.223472 0.0965 0.59931v1.554144h0.27426v0.284418q-0.10158 0.0254-0.2895 0.05079-0.18792 0.0254-0.33013 0.0254-0.17268 0-0.23363-0.05079-0.0559-0.05079-0.0559-0.208235v-0.137131q-0.13714 0.152367-0.35553 0.274261t-0.49265 0.121894q-0.23363 0-0.43171-0.0965-0.193-0.101578-0.30981-0.289498-0.11682-0.192998-0.11682-0.46218zm1.18339 0.426628q0.10666 0 0.24379-0.06095 0.13713-0.06603 0.2387-0.157446v-0.832939q-0.4571 0-0.68565 0.157446-0.22347 0.152367-0.22347 0.396154t0.11174 0.370759q0.11681 0.126973 0.31489 0.126973z"/>
   <path d="m109.18106 49.303924 0.28442-0.04571v-1.990929l-0.32505-0.09142v-0.350444l0.8431-0.106657 0.0609 0.04063 0.0762 0.167604v0.213313q0.1676-0.162524 0.47741-0.284418 0.31489-0.126972 0.54345-0.126972 0.27426 0 0.44186 0.09142 0.17268 0.09142 0.25902 0.284418 0.16761-0.152367 0.44187-0.264103 0.27426-0.111735 0.53836-0.111735 0.45202 0 0.63994 0.264102 0.18792 0.264103 0.18792 0.863413v1.401777l0.33013 0.04571v0.304734h-1.31543v-0.304734l0.2641-0.04571v-1.381461q0-0.396154-0.0965-0.5536-0.0914-0.162525-0.35552-0.162525-0.14221 0-0.29458 0.06603-0.14729 0.06095-0.2641 0.152367 0.0356 0.192998 0.0356 0.482495v1.396698l0.31489 0.04571v0.304734h-1.32559v-0.304734l0.27934-0.04571v-1.396698q0-0.264103-0.0356-0.411391-0.0305-0.152367-0.1219-0.218392-0.0914-0.0711-0.2641-0.0711-0.16253 0-0.32505 0.07618-0.15745 0.0711-0.28442 0.172682v1.84872l0.29966 0.04571v0.304734h-1.31036z"/>
   <path d="m115.60586 49.664526q-0.67041 0-1.00054-0.391076-0.32505-0.396154-0.32505-1.076726 0-0.457101 0.1676-0.792309 0.17268-0.335207 0.4825-0.512969 0.30981-0.177761 0.71612-0.177761 0.50789 0 0.78215 0.269182 0.27426 0.264102 0.28442 0.756756 0 0.335207-0.0406 0.497732h-1.65064q0.0203 0.46218 0.21839 0.721204 0.19808 0.253945 0.56376 0.253945 0.19807 0 0.40631-0.06603 0.21331-0.06603 0.33521-0.157446l0.12697 0.279339q-0.13713 0.147289-0.44694 0.274261-0.30474 0.121894-0.61963 0.121894zm0.39615-1.731905q0.0102-0.142209 0.0102-0.218393 0-0.675494-0.45202-0.675494-0.24887 0-0.386 0.198078-0.13713 0.198077-0.15236 0.695809z"/>
   <path d="m117.41395 45.895982-0.37584-0.06603v-0.27426l0.93959-0.111736h0.0102l0.13713 0.0965v3.722834l0.37076 0.04063v0.304734h-1.43733v-0.304734l0.35553-0.04571z"/>
   <path d="m118.79032 48.816349q0-0.46218 0.46218-0.695809 0.46726-0.233629 1.2037-0.238708v-0.116815q0-0.208235-0.0457-0.32505-0.0406-0.116814-0.15745-0.172682-0.11173-0.06095-0.33013-0.06095-0.24886 0-0.44694 0.06603-0.19808 0.06095-0.41139 0.162525l-0.15745-0.32505q0.0762-0.06603 0.25395-0.157446 0.18284-0.09142 0.4317-0.157446 0.24887-0.0711 0.51297-0.0711 0.39108 0 0.60947 0.101578 0.22347 0.101578 0.31997 0.325049 0.0965 0.223472 0.0965 0.59931v1.554144h0.27426v0.284418q-0.10158 0.0254-0.2895 0.05079-0.18791 0.0254-0.33012 0.0254-0.17269 0-0.23363-0.05079-0.0559-0.05079-0.0559-0.208235v-0.137131q-0.13713 0.152367-0.35552 0.274261-0.2184 0.121894-0.49266 0.121894-0.23363 0-0.4317-0.0965-0.193-0.101578-0.30982-0.289498-0.11681-0.192998-0.11681-0.46218zm1.18338 0.426628q0.10666 0 0.24379-0.06095 0.13713-0.06603 0.23871-0.157446v-0.832939q-0.4571 0-0.68565 0.157446-0.22348 0.152367-0.22348 0.396154t0.11174 0.370759q0.11681 0.126973 0.31489 0.126973z"/>
   <path d="m123.2953 46.215953-0.41647-0.06603v-0.314892h2.80355l0.0508 0.919281h-0.40631l-0.18792-0.558679-1.09704-0.05587v1.437329l0.75675-0.01524 0.0965-0.446943h0.32505v1.29004h-0.31997l-0.10158-0.457101-0.75675-0.02031v1.325593l0.77707 0.05079v0.304734h-1.91475v-0.304734l0.39108-0.05079z"/>
   <path d="m126.56103 49.654368q-0.15744 0-0.27426-0.106657-0.11681-0.111736-0.11681-0.27934 0-0.187919 0.13205-0.304734 0.13713-0.121893 0.33013-0.121893 0.18284 0 0.28949 0.116815 0.10666 0.111735 0.10666 0.269181 0 0.198077-0.13205 0.314892-0.12697 0.111736-0.33521 0.111736z"/>
   <path d="m130.05531 49.664526q-0.27426 0-0.49266-0.04571-0.21839-0.04571-0.48757-0.121894-0.17776-0.05079-0.23871-0.05587l0.0457-0.939596h0.41139l0.11174 0.655178q0.066 0.0711 0.23363 0.126972 0.17268 0.05587 0.39107 0.05587 0.34029 0 0.50789-0.147288 0.17269-0.152367 0.17269-0.421549 0-0.177761-0.10158-0.304734-0.10158-0.132051-0.27934-0.233629-0.17776-0.106657-0.48758-0.243787-0.42154-0.192999-0.70088-0.457101-0.27426-0.269182-0.27426-0.726283 0-0.284418 0.14728-0.512969 0.14729-0.233629 0.43679-0.365681 0.29458-0.13713 0.71612-0.13713 0.24887 0 0.43679 0.03555 0.193 0.03555 0.41647 0.0965 0.13205 0.03555 0.19808 0.04571l-0.0305 0.888807h-0.40631l-0.10666-0.624705q-0.0457-0.04571-0.18284-0.08634-0.13713-0.04571-0.30473-0.04571-0.30473 0-0.46218 0.142209-0.15237 0.13713-0.15237 0.37076 0 0.187919 0.11174 0.325049 0.11681 0.137131 0.27934 0.23363 0.16252 0.09142 0.51297 0.264103 0.28442 0.13713 0.48757 0.269181 0.20316 0.132052 0.35045 0.345365 0.14728 0.208235 0.14728 0.492654 0 0.279339-0.14221 0.533284-0.13713 0.253945-0.4571 0.421549-0.31489 0.167604-0.80754 0.167604z"/>
   <path d="m132.31541 49.654368q-0.15744 0-0.27426-0.106657-0.11681-0.111736-0.11681-0.27934 0-0.187919 0.13205-0.304734 0.13713-0.121893 0.33013-0.121893 0.18284 0 0.28949 0.116815 0.10666 0.111735 0.10666 0.269181 0 0.198077-0.13205 0.314892-0.12697 0.111736-0.33521 0.111736z"/>
   <path d="m134.90565 46.215953-0.39108-0.06603v-0.314892h1.62525v0.314892l-0.48758 0.06603v3.032103l1.08689-0.04571 0.31997-0.949755 0.41139 0.05587-0.15745 1.300199h-2.80863v-0.304734l0.40124-0.05079z"/>
   <path d="m138.24755 49.654368q-0.15744 0-0.27426-0.106657-0.11681-0.111736-0.11681-0.27934 0-0.187919 0.13205-0.304734 0.13713-0.121893 0.33013-0.121893 0.18284 0 0.2895 0.116815 0.10665 0.111735 0.10665 0.269181 0 0.198077-0.13205 0.314892-0.12697 0.111736-0.33521 0.111736z"/>
   <path d="m142.03641 49.664526q-0.82786 0-1.23925-0.518048t-0.41139-1.411934q0-0.584074 0.21331-1.025938 0.21839-0.441864 0.60947-0.680573 0.39107-0.238708 0.89896-0.238708 0.83802 0 1.25449 0.497732 0.42155 0.492654 0.42155 1.381461 0 0.589152-0.22347 1.046253-0.21839 0.452022-0.61455 0.700889-0.39615 0.248866-0.90912 0.248866zm0.0508-3.565388q-0.41647 0-0.6501 0.411391t-0.23363 1.218936q0 0.797387 0.22347 1.213857 0.22855 0.411391 0.6501 0.411391 0.41139 0 0.64502-0.431707 0.23363-0.436785 0.23363-1.254488 0-0.792308-0.22347-1.178305-0.22347-0.391075-0.64502-0.391075z"/>
   <path d="m144.6368 49.654368q-0.15745 0-0.27427-0.106657-0.11681-0.111736-0.11681-0.27934 0-0.187919 0.13205-0.304734 0.13713-0.121893 0.33013-0.121893 0.18284 0 0.2895 0.116815 0.10665 0.111735 0.10665 0.269181 0 0.198077-0.13205 0.314892-0.12697 0.111736-0.3352 0.111736z"/>
  </g>
  <g transform="matrix(7.2567965,0,0,7.2567965,646.46998,667.28179)" stop-color="#000000" style="shape-inside:url(#rect28996);white-space:pre" aria-label="Valter R. S. J.">
   <path d="m58.336314 27.469801h1.543986v0.314892l-0.431707 0.06602 0.756756 2.275347 0.147288 0.512969 0.126973-0.518048 0.711046-2.270268-0.401233-0.06602v-0.314892h1.229094v0.314892l-0.32505 0.06602-1.168147 3.428258h-0.604389l-1.279883-3.428258-0.304734-0.06602z"/>
   <path d="m62.089613 30.451115q0-0.46218 0.46218-0.695809 0.467258-0.23363 1.203699-0.238709v-0.116814q0-0.208235-0.04571-0.32505-0.04063-0.116815-0.157446-0.172682-0.111736-0.06095-0.330129-0.06095-0.248866 0-0.446943 0.06602-0.198077 0.06095-0.411391 0.162525l-0.157446-0.325049q0.07618-0.06603 0.253945-0.157446 0.182841-0.09142 0.431707-0.157446 0.248866-0.0711 0.512969-0.0711 0.391075 0 0.609468 0.101578 0.223471 0.101578 0.319971 0.32505 0.0965 0.223471 0.0965 0.59931v1.554143h0.27426v0.284419q-0.101578 0.02539-0.289497 0.05079-0.187919 0.02539-0.330129 0.02539-0.172682 0-0.233629-0.05079-0.05587-0.05079-0.05587-0.208235v-0.13713q-0.13713 0.152367-0.355523 0.274261-0.218393 0.121893-0.492653 0.121893-0.23363 0-0.431707-0.0965-0.192998-0.101578-0.309813-0.289497-0.116814-0.192998-0.116814-0.46218zm1.183383 0.426628q0.106657 0 0.243788-0.06095 0.13713-0.06603 0.238708-0.157446v-0.83294q-0.457101 0-0.685652 0.157446-0.223471 0.152367-0.223471 0.396154 0 0.243788 0.111736 0.37076 0.116814 0.126973 0.314891 0.126973z"/>
   <path d="m65.314714 27.530748-0.375839-0.06603v-0.274261l0.939597-0.111736h0.01016l0.13713 0.0965v3.722833l0.37076 0.04063v0.304734h-1.437329v-0.304734l0.355523-0.04571z"/>
   <path d="m67.60021 31.289133q-0.319971 0-0.472338-0.147288t-0.152367-0.467258v-1.863957h-0.330128v-0.264102q0.04063-0.01524 0.147288-0.05079 0.106656-0.04063 0.162524-0.06603 0.08634-0.06603 0.147288-0.228551 0.04571-0.106657 0.167604-0.528205h0.406312l0.02032 0.746598h0.777071v0.391075h-0.771992v1.427171q0 0.284419 0.01524 0.401233 0.01524 0.116815 0.06603 0.152367 0.05079 0.03047 0.177762 0.03047t0.264102-0.02539q0.137131-0.03047 0.228551-0.0711l0.0965 0.284418q-0.142209 0.106657-0.41647 0.192998-0.27426 0.08634-0.533284 0.08634z"/>
   <path d="m70.099024 31.299291q-0.670415 0-1.000544-0.391075-0.325049-0.396154-0.325049-1.076727 0-0.457101 0.167604-0.792308 0.172682-0.335208 0.482495-0.512969 0.309813-0.177762 0.716125-0.177762 0.50789 0 0.782151 0.269182 0.27426 0.264103 0.284418 0.756756 0 0.335208-0.04063 0.497732h-1.650644q0.02032 0.46218 0.218393 0.721204 0.198077 0.253945 0.563758 0.253945 0.198077 0 0.406312-0.06603 0.213314-0.06602 0.335207-0.157445l0.126973 0.279339q-0.137131 0.147288-0.446943 0.274261-0.304734 0.121893-0.619626 0.121893zm0.396154-1.731905q0.01016-0.142209 0.01016-0.218392 0-0.675494-0.452022-0.675494-0.248866 0-0.385997 0.198077-0.13713 0.198077-0.152367 0.695809z"/>
   <path d="m71.612532 30.943768 0.335208-0.04063v-2.001086l-0.32505-0.09142v-0.350444l0.787229-0.106657h0.01524l0.126973 0.101578v0.111736l-0.01524 0.411391h0.01524q0.03555-0.101578 0.167603-0.248866 0.132052-0.152367 0.330129-0.264103 0.203156-0.116815 0.436785-0.116815 0.111736 0 0.192998 0.03047v0.761835q-0.152367-0.106657-0.370759-0.106657-0.37076 0-0.645021 0.198077v1.665879l0.589153 0.04571v0.299655h-1.640485z"/>
   <path d="m75.177911 30.938689 0.401233-0.05079v-3.037182l-0.380918-0.0711v-0.309813h0.736441q0.0965 0 0.213314-0.0051t0.177761-0.01016q0.264103-0.02032 0.436785-0.02032 0.523127 0 0.838019 0.106657t0.457101 0.32505 0.142209 0.573916q0 0.350444-0.187919 0.650099t-0.543442 0.411391q0.203156 0.08634 0.360601 0.314892 0.157446 0.22855 0.335208 0.594231 0.126972 0.248866 0.192998 0.360602 0.07111 0.106657 0.13713 0.121893l0.167604 0.05079v0.299655h-0.863413q-0.08126 0-0.172683-0.162524-0.08634-0.167604-0.22855-0.523127-0.167604-0.41647-0.289497-0.650099-0.121894-0.23363-0.259024-0.289498h-0.523127v1.269748l0.467259 0.05079v0.304734h-1.61509zm1.61509-1.630326q0.289497 0 0.452022-0.208235t0.162525-0.624705q0-0.37076-0.162525-0.548521-0.157446-0.177762-0.548521-0.177762-0.142209 0-0.243787 0.01524-0.0965 0.01016-0.126973 0.01016v1.52367q0.06095 0.01016 0.294576 0.01016z"/>
   <path d="m79.347681 31.289133q-0.157446 0-0.27426-0.106656-0.116815-0.111736-0.116815-0.27934 0-0.187919 0.132051-0.304734 0.137131-0.121894 0.330129-0.121894 0.18284 0 0.289497 0.116815 0.106657 0.111736 0.106657 0.269182 0 0.198077-0.132051 0.314892-0.126973 0.111735-0.335208 0.111735z"/>
   <path d="m82.841958 31.299291q-0.274261 0-0.492653-0.04571-0.218393-0.04571-0.487575-0.121893-0.177761-0.05079-0.238708-0.05587l0.04571-0.939597h0.411391l0.111736 0.655178q0.06603 0.0711 0.233629 0.126973 0.172683 0.05587 0.391075 0.05587 0.340287 0 0.50789-0.147288 0.172683-0.152367 0.172683-0.421549 0-0.177762-0.101578-0.304734-0.101578-0.132052-0.279339-0.23363-0.177762-0.106656-0.487575-0.243787-0.421549-0.192998-0.700888-0.457101-0.274261-0.269181-0.274261-0.726282 0-0.284419 0.147288-0.512969 0.147289-0.23363 0.436786-0.365681 0.294576-0.13713 0.716125-0.13713 0.248866 0 0.436785 0.03555 0.192998 0.03555 0.41647 0.0965 0.132051 0.03555 0.198077 0.04571l-0.03047 0.888808h-0.406312l-0.106657-0.624705q-0.04571-0.04571-0.182841-0.08634-0.13713-0.04571-0.304734-0.04571-0.304734 0-0.46218 0.142209-0.152367 0.13713-0.152367 0.370759 0 0.18792 0.111736 0.32505 0.116815 0.13713 0.27934 0.233629 0.162525 0.09142 0.512969 0.264103 0.284418 0.137131 0.487574 0.269182t0.350444 0.345365q0.147288 0.208235 0.147288 0.492653 0 0.27934-0.142209 0.533285-0.13713 0.253945-0.457101 0.421549-0.314892 0.167603-0.807545 0.167603z"/>
   <path d="m85.102062 31.289133q-0.157446 0-0.27426-0.106656-0.116815-0.111736-0.116815-0.27934 0-0.187919 0.132051-0.304734 0.137131-0.121894 0.330129-0.121894 0.18284 0 0.289497 0.116815 0.106657 0.111736 0.106657 0.269182 0 0.198077-0.132051 0.314892-0.126973 0.111735-0.335208 0.111735z"/>
   <path d="m87.02188 31.934154q0.203156-0.06603 0.375839-0.23363 0.177761-0.167603 0.259024-0.421548 0.05587-0.172683 0.08126-0.411391 0.0254-0.243787 0.0254-0.680573v-2.331215l-0.457101-0.0711v-0.314892h1.625248v0.314892l-0.426628 0.06602v1.996008q0 0.543442-0.01524 0.843097-0.01016 0.294576-0.05079 0.472338-0.106657 0.411391-0.436785 0.680573-0.330129 0.27426-0.812624 0.355523z"/>
   <path d="m89.779717 31.289133q-0.157446 0-0.274261-0.106656-0.116815-0.111736-0.116815-0.27934 0-0.187919 0.132052-0.304734 0.13713-0.121894 0.330128-0.121894 0.182841 0 0.289498 0.116815 0.106656 0.111736 0.106656 0.269182 0 0.198077-0.132051 0.314892-0.126972 0.111735-0.335207 0.111735z"/>
  </g>
 </g>
</svg>
