<?xml version="1.0" encoding="UTF-8"?>
<!-- Created with Inkscape (http://www.inkscape.org/) -->
<svg width="1920" height="1080" version="1.1" viewBox="0 0 1920 1080" xmlns="http://www.w3.org/2000/svg">
 <g transform="translate(169.57388,85.092133)">
  <g fill="#000000" font-weight="bold" letter-spacing="0px" stroke-width=".365035" word-spacing="0px">
   <g font-size="5.0789px">
    <text transform="matrix(.26458333 0 0 .26458333 -168.01593 -85.092133)" dominant-baseline="auto" font-family="'Source Serif Pro'" stop-color="#000000" text-align="justify" style="-inkscape-stroke:none;font-feature-settings:normal;font-variant-alternates:normal;font-variant-caps:normal;font-variant-east-asian:normal;font-variant-ligatures:normal;font-variant-numeric:normal;font-variant-position:normal;inline-size:0;line-height:1;shape-inside:url(#rect3866);shape-margin:0;shape-padding:0;text-decoration-color:#000000;text-decoration-line:none;text-decoration-style:solid;text-indent:0;text-orientation:mixed;text-transform:none;white-space:pre" xml:space="preserve"/>
    <text transform="matrix(.26458333 0 0 .26458333 -168.01593 -85.092133)" x="1317.4629" y="134.71243" dominant-baseline="auto" font-family="'Source Serif Pro'" stop-color="#000000" text-align="justify" style="-inkscape-stroke:none;font-feature-settings:normal;font-variant-alternates:normal;font-variant-caps:normal;font-variant-east-asian:normal;font-variant-ligatures:normal;font-variant-numeric:normal;font-variant-position:normal;inline-size:0;line-height:1;shape-inside:url(#rect4613);shape-margin:0;shape-padding:0;text-decoration-color:#000000;text-decoration-line:none;text-decoration-style:solid;text-indent:0;text-orientation:mixed;text-transform:none;white-space:pre" xml:space="preserve"/>
    <text transform="matrix(.26458333 0 0 .26458333 -168.01593 -85.092133)" dominant-baseline="auto" font-family="Gilroy" stop-color="#000000" text-align="justify" style="-inkscape-stroke:none;font-feature-settings:normal;font-variant-alternates:normal;font-variant-caps:normal;font-variant-east-asian:normal;font-variant-ligatures:normal;font-variant-numeric:normal;font-variant-position:normal;font-variation-settings:normal;inline-size:0;line-height:1;shape-inside:url(#rect4566);shape-margin:0;shape-padding:0;text-decoration-color:#000000;text-decoration-line:none;text-decoration-style:solid;text-indent:0;text-orientation:mixed;text-transform:none;white-space:pre" xml:space="preserve"/>
   </g>
   <text transform="translate(-169.57388,-85.092133)" dominant-baseline="auto" font-family="Gilroy" font-size="5.07889994px" stop-color="#000000" text-align="justify" style="-inkscape-stroke:none;font-feature-settings:normal;font-variant-alternates:normal;font-variant-caps:normal;font-variant-east-asian:normal;font-variant-ligatures:normal;font-variant-numeric:normal;font-variant-position:normal;font-variation-settings:normal;inline-size:0;line-height:1;shape-inside:url(#rect99295);shape-margin:0;shape-padding:0;text-decoration-color:#000000;text-decoration-line:none;text-decoration-style:solid;text-indent:0;text-orientation:mixed;text-transform:none;white-space:pre" xml:space="preserve"/>
  </g>
  <g transform="matrix(17.421636,0,0,17.421636,-16194.946,-1519.7791)" fill="#ed4e38" stop-color="#000000" stroke-width=".020953" style="shape-inside:url(#rect103391);white-space:pre" aria-label="ESTADO SOCIALISTA ">
   <path d="m979.97778 89.947227h1.79285v0.578995h-0.95991v1.091964h0.74152v0.584073h-0.74152v1.290041h0.97007v0.568836h-1.80301z"/>
   <path d="m983.57657 94.117004q-0.56884 0-0.85326-0.309813-0.28442-0.314891-0.30981-0.970069l0.7212-0.121894q0.0102 0.391075 0.10666 0.578994 0.10158 0.182841 0.29966 0.182841 0.14728 0 0.21331-0.09142 0.066-0.0965 0.066-0.243788 0-0.243787-0.11173-0.41139-0.10666-0.172683-0.34029-0.375839l-0.42662-0.37076q-0.25395-0.213313-0.39108-0.457101-0.13205-0.243787-0.13205-0.584073 0-0.502811 0.29457-0.771993 0.29966-0.274261 0.82279-0.274261 0.55868 0 0.77707 0.32505 0.21839 0.319971 0.24886 0.817703l-0.72628 0.106657q-0.0102-0.32505-0.0762-0.477417-0.061-0.157446-0.24887-0.157446-0.13713 0-0.21331 0.106657-0.0762 0.101578-0.0762 0.243787 0 0.203156 0.0864 0.345366 0.0914 0.13713 0.28441 0.304734l0.41647 0.36568q0.29458 0.259024 0.46218 0.548522 0.16761 0.284418 0.16761 0.670414 0 0.294577-0.13205 0.528206-0.13206 0.22855-0.37584 0.360602-0.23871 0.132051-0.5536 0.132051z"/>
   <path d="m985.77358 90.566853h-0.63487v-0.619626h2.10267v0.619626h-0.62471v3.494283h-0.84309z"/>
   <path d="m988.36674 89.947227h0.92944l0.7923 4.113909h-0.77199l-0.15237-0.904044h-0.65009l-0.15745 0.904044h-0.78723zm0.71612 2.691817-0.24886-1.655721-0.24379 1.655721z"/>
   <path d="m990.81261 89.947227h1.00562q0.51805 0 0.80755 0.137131 0.29457 0.132051 0.41647 0.411391 0.12697 0.279339 0.12697 0.741519v1.498276q0 0.472337-0.1219 0.761834-0.12189 0.284419-0.41139 0.426628-0.28949 0.13713-0.79738 0.13713h-1.02594zm1.01578 3.529836q0.21839 0 0.31997-0.06603 0.10666-0.0711 0.13205-0.203156 0.0305-0.132051 0.0305-0.380917v-1.701432q0-0.233629-0.0355-0.350444-0.0305-0.121893-0.13205-0.177761-0.10158-0.06095-0.31997-0.06095h-0.17776v2.940683z"/>
   <path d="m995.18339 94.117004q-0.65518 0-0.93452-0.340286-0.27934-0.345365-0.27934-1.010701v-1.533828q0-0.665336 0.27934-1.000543 0.27934-0.335208 0.93452-0.335208 0.6501 0 0.92944 0.340287 0.28442 0.335207 0.28442 0.995464v1.538907q0 0.660257-0.28442 1.005622-0.27934 0.340286-0.92944 0.340286zm0-0.59931q0.21331 0 0.28442-0.142209 0.0762-0.147288 0.0762-0.401233v-1.945219q0-0.253945-0.0762-0.391075-0.0711-0.142209-0.28442-0.142209-0.21331 0-0.2895 0.142209-0.0711 0.13713-0.0711 0.391075v1.945219q0 0.259024 0.0711 0.401233t0.2895 0.142209z"/>
   <path d="m999.90245 94.117004q-0.56884 0-0.85326-0.309813-0.28441-0.314891-0.30981-0.970069l0.72121-0.121894q0.0101 0.391075 0.10665 0.578994 0.10158 0.182841 0.29966 0.182841 0.1473 0 0.2133-0.09142 0.066-0.0965 0.066-0.243788 0-0.243787-0.1117-0.41139-0.10666-0.172683-0.34028-0.375839l-0.42663-0.37076q-0.25395-0.213313-0.39108-0.457101-0.13205-0.243787-0.13205-0.584073 0-0.502811 0.29458-0.771993 0.29965-0.274261 0.82278-0.274261 0.55868 0 0.77708 0.32505 0.2184 0.319971 0.2489 0.817703l-0.7263 0.106657q-0.01-0.32505-0.076-0.477417-0.061-0.157446-0.24888-0.157446-0.13713 0-0.21331 0.106657-0.0762 0.101578-0.0762 0.243787 0 0.203156 0.0863 0.345366 0.0914 0.13713 0.28442 0.304734l0.41651 0.36568q0.2945 0.259024 0.4621 0.548522 0.1676 0.284418 0.1676 0.670414 0 0.294577-0.132 0.528206-0.1321 0.22855-0.3758 0.360602-0.2388 0.132051-0.55365 0.132051z"/>
   <path d="m1002.8664 94.117004q-0.6552 0-0.9345-0.340286-0.2794-0.345365-0.2794-1.010701v-1.533828q0-0.665336 0.2794-1.000543 0.2793-0.335208 0.9345-0.335208 0.6501 0 0.9294 0.340287 0.2844 0.335207 0.2844 0.995464v1.538907q0 0.660257-0.2844 1.005622-0.2793 0.340286-0.9294 0.340286zm0-0.59931q0.2133 0 0.2844-0.142209 0.076-0.147288 0.076-0.401233v-1.945219q0-0.253945-0.076-0.391075-0.071-0.142209-0.2844-0.142209-0.2133 0-0.2895 0.142209-0.071 0.13713-0.071 0.391075v1.945219q0 0.259024 0.071 0.401233t0.2895 0.142209z"/>
   <path d="m1006.0893 94.117004q-0.6552 0-0.9294-0.350444-0.2743-0.355523-0.2743-1.020859v-1.472881q0-0.680572 0.2692-1.025937 0.2743-0.350445 0.9345-0.350445 0.6298 0 0.8888 0.309813 0.2641 0.304734 0.2641 0.87865v0.345365h-0.8126v-0.380917q0-0.182841-0.02-0.294576-0.015-0.111736-0.091-0.182841-0.071-0.07618-0.2235-0.07618-0.2286 0-0.2946 0.147288t-0.066 0.431706v1.869035q0 0.289498 0.076 0.431707t0.2844 0.142209q0.2133 0 0.2743-0.142209 0.061-0.147288 0.061-0.431707v-0.401233h0.8126v0.340287q0 0.589152-0.259 0.914202-0.259 0.31997-0.8939 0.31997z"/>
   <path d="m1008.073 89.947227h0.833v4.113909h-0.833z"/>
   <path d="m1010.4325 89.947227h0.9295l0.7923 4.113909h-0.772l-0.1524-0.904044h-0.6501l-0.1574 0.904044h-0.7872zm0.7162 2.691817-0.2489-1.655721-0.2438 1.655721z"/>
   <path d="m1012.8784 89.947227h0.833v3.545073h0.97v0.568836h-1.803z"/>
   <path d="m1015.3954 89.947227h0.8329v4.113909h-0.8329z"/>
   <path d="m1018.2222 94.117004q-0.5688 0-0.8533-0.309813-0.2844-0.314891-0.3098-0.970069l0.7212-0.121894q0.01 0.391075 0.1067 0.578994 0.1016 0.182841 0.2996 0.182841 0.1473 0 0.2134-0.09142 0.066-0.0965 0.066-0.243788 0-0.243787-0.1118-0.41139-0.1066-0.172683-0.3402-0.375839l-0.4267-0.37076q-0.2539-0.213313-0.391-0.457101-0.1321-0.243787-0.1321-0.584073 0-0.502811 0.2946-0.771993 0.2996-0.274261 0.8228-0.274261 0.5586 0 0.777 0.32505 0.2184 0.319971 0.2489 0.817703l-0.7263 0.106657q-0.01-0.32505-0.076-0.477417-0.061-0.157446-0.2488-0.157446-0.1372 0-0.2133 0.106657-0.076 0.101578-0.076 0.243787 0 0.203156 0.086 0.345366 0.091 0.13713 0.2844 0.304734l0.4165 0.36568q0.2946 0.259024 0.4622 0.548522 0.1676 0.284418 0.1676 0.670414 0 0.294577-0.1321 0.528206-0.132 0.22855-0.3758 0.360602-0.2387 0.132051-0.5536 0.132051z"/>
   <path d="m1020.4192 90.566853h-0.6349v-0.619626h2.1027v0.619626h-0.6247v3.494283h-0.8431z"/>
   <path d="m1023.0124 89.947227h0.9294l0.7923 4.113909h-0.772l-0.1524-0.904044h-0.65l-0.1575 0.904044h-0.7872zm0.7161 2.691817-0.2489-1.655721-0.2438 1.655721z"/>
  </g>
  <path d="m882.97056 164.23822h454.84064" fill="#ed4e38" stroke="#ed4e38" stroke-linecap="square" stroke-miterlimit="10" stroke-width="10.2" style="paint-order:fill markers stroke"/>
 </g>
</svg>
