<svg width="960" height="540" xml:space="preserve" xmlns="http://www.w3.org/2000/svg"><defs><clipPath id="a"><path d="M0 0h365760v205740H0z"/></clipPath></defs><g clip-path="url(#a)" transform="scale(.00262)"><path d="M16589 17801h336708v22908H16589z" fill="none"/><path d="M23756.068 33673.155q-1689.811 0-2406.701-883.31-704.088-896.113-704.088-2573.122v-3738.067q0-1715.415 704.088-2585.923 704.088-883.31 2406.7-883.31 1625.804 0 2304.288 780.897t678.485 2214.677v896.112h-2240.28v-1036.93q0-601.675-128.016-921.715t-614.476-320.04q-486.461 0-640.08 345.643-153.62 332.842-153.62 934.517v4877.409q0 614.477 153.62 947.318 166.42 320.04 640.08 320.04 473.659 0 601.675-320.04 140.817-332.841 140.817-947.318v-1088.136h2240.28v896.112q0 1459.382-678.485 2278.685-678.484 806.5-2304.287 806.5zm8731.299 0q-1677.01 0-2393.899-857.708-716.889-870.508-716.889-2560.32v-3853.28q0-1689.812 716.89-2534.718 716.889-857.707 2393.898-857.707 1689.812 0 2406.701 857.707 729.691 857.708 729.691 2534.717v3853.281q0 1689.812-729.69 2560.32-716.89 857.708-2406.702 857.708zm0-1625.804q486.461 0 640.08-320.04 153.62-332.841 153.62-896.112v-4992.623q0-576.072-153.62-896.112t-640.08-320.04q-460.857 0-614.476 332.841-153.62 320.04-153.62 883.31V30831.2q0 563.27 140.818 896.112 140.818 320.04 627.278 320.04zm6055.752-8897.111h1613.001l2125.066 4992.624V23150.24h1894.637v10369.295h-1548.994l-2125.066-5376.671v5376.671H38543.12zm9640.201 1702.613h-1561.794V23150.24h5415.076v1702.613h-1548.993v8666.682H48183.32zm6286.197-1702.613H59129.3v1561.795h-2368.296v2573.122h1805.026v1587.398h-1805.026v3097.987h2393.9v1548.993h-4685.387zm8577.667 4787.798-1920.24-4787.798h2163.47l1139.343 2803.55 921.715-2803.55h1907.439l-1817.828 5389.473 2022.653 4979.822h-2150.669l-1267.358-3097.987-1113.74 3097.987h-1894.636zm7719.971-3085.185H69205.36V23150.24h5415.076v1702.613h-1548.993v8666.682h-2304.288zm9153.735 8820.302q-1677.01 0-2393.9-857.708-716.89-870.508-716.89-2560.32v-3853.28q0-1689.812 716.89-2534.718 716.89-857.707 2393.9-857.707 1689.81 0 2406.7 857.707 729.691 857.708 729.691 2534.717v3853.281q0 1689.812-729.69 2560.32-716.89 857.708-2406.702 857.708zm0-1625.804q486.46 0 640.08-320.04 153.619-332.841 153.619-896.112v-4992.623q0-576.072-153.62-896.112t-640.08-320.04q-460.857 0-614.476 332.841-153.62 320.04-153.62 883.31V30831.2q0 563.27 140.818 896.112 140.818 320.04 627.278 320.04zm10895.346-8897.111h2291.486v4198.925h1600.2V23150.24h2304.288v10369.295h-2304.288V28987.77h-1600.2v4531.766h-2291.486zm9307.361 0h2291.487v10369.295h-2291.487zm8116.805 10522.915q-1484.985 0-2214.677-780.898-716.885-793.7-768.092-2509.114l1958.641-294.436q12.802 985.723 230.43 1420.977 230.428 422.453 678.484 422.453 576.072 0 576.072-755.294 0-601.676-281.635-1036.93-268.834-435.254-857.708-934.516l-896.112-780.898q-665.683-563.27-1036.925-1190.549-358.445-640.08-358.445-1510.589 0-1305.763 768.092-2009.85 780.898-704.089 2137.867-704.089 1472.184 0 1997.05 857.707 537.667 857.708 576.072 2086.661l-1971.447 243.23q-25.603-806.5-153.619-1152.143-115.214-358.445-524.865-358.445-294.437 0-460.858 256.032-153.62 243.23-153.62 550.469 0 524.865 230.43 883.31 243.23 358.445 768.096 819.302l857.707 755.295q768.096 652.881 1190.549 1382.572 422.452 729.691 422.452 1728.216 0 729.691-345.643 1331.367-332.841 588.873-947.318 934.516-614.477 345.644-1420.978 345.644zm6286.203-8820.302h-1561.795V23150.24h5415.077v1702.613h-1548.994v8666.682h-2304.288zm9153.735 8820.302q-1677.01 0-2393.9-857.708-716.89-870.508-716.89-2560.32v-3853.28q0-1689.812 716.89-2534.718 716.89-857.707 2393.9-857.707 1689.81 0 2406.7 857.707 729.692 857.708 729.692 2534.717v3853.281q0 1689.812-729.692 2560.32-716.89 857.708-2406.7 857.708zm0-1625.804q486.46 0 640.08-320.04 153.619-332.841 153.619-896.112v-4992.623q0-576.072-153.62-896.112t-640.08-320.04q-460.857 0-614.476 332.841-153.62 320.04-153.62 883.31V30831.2q0 563.27 140.818 896.112 140.818 320.04 627.279 320.04zm128.016-12289.535h2125.065l-1613.001 2573.121h-1318.565zm5927.731 3392.424h2854.757q1702.613 0 2573.121 601.675t870.51 2137.867q0 1036.93-268.834 1651.407t-998.525 960.12l1420.977 5018.226h-2368.296l-1139.342-4646.98h-652.882v4646.98h-2291.486zm2931.566 4403.75q691.287 0 960.12-358.445 281.636-371.246 281.636-1100.937 0-704.088-256.032-1049.731-256.032-358.445-883.31-358.445h-742.494v2867.558zm6286.184-4403.75h2291.487v10369.295h-2291.487zm8334.436 10522.915q-1689.811 0-2406.7-883.31-704.089-896.113-704.089-2573.122v-3738.067q0-1715.415 704.088-2585.923 704.088-883.31 2406.701-883.31 1625.803 0 2304.288 780.897t678.485 2214.677v896.112h-2240.28v-1036.93q0-601.675-128.016-921.715t-614.477-320.04-640.08 345.643q-153.62 332.842-153.62 934.517v4877.409q0 614.477 153.62 947.318 166.42 320.04 640.08 320.04t601.675-320.04q140.818-332.841 140.818-947.318v-1088.136h2240.28v896.112q0 1459.382-678.485 2278.685-678.485 806.5-2304.288 806.5zm8731.301 0q-1677.006 0-2393.895-857.708-716.89-870.508-716.89-2560.32v-3853.28q0-1689.812 716.89-2534.718 716.89-857.707 2393.895-857.707 1689.811 0 2406.7 857.707 729.692 857.708 729.692 2534.717v3853.281q0 1689.812-729.691 2560.32-716.89 857.708-2406.701 857.708zm0-1625.804q486.46 0 640.08-320.04 153.62-332.841 153.62-896.112v-4992.623q0-576.072-153.62-896.112t-640.08-320.04q-460.854 0-614.473 332.841-153.62 320.04-153.62 883.31V30831.2q0 563.27 140.818 896.112 140.818 320.04 627.275 320.04z" fill="#ed4e38" aria-label="CONTEXTO HISTÓRICO"/><path d="M16589 46099h329112v136656H16589z" fill="none"/><g fill="#ed4e38" font-size="9144" stroke-width="381"><text x="23638.988" y="58306.238" font-family="ArialMT"><tspan x="23638.988" y="58306.238">●</tspan></text><text x="38306" y="58306.238" font-family="Merriweather"><tspan x="38306" y="58306.238">Primeira Revolução Industrial;</tspan></text><text x="23638.988" y="74765.438" font-family="ArialMT"><tspan x="23638.988" y="74765.438">●</tspan></text><text x="38306" y="74765.438" font-family="Merriweather"><tspan x="38306 44240.457 48428.41 51473.363 57544.977 62235.848 65280.801 71023.234 74068.188 79627.734 81794.867 87473.289 92447.625 94614.758 97659.703 103210.12 108989.12 114118.91 117163.86 122842.28 127972.06 133650.48 138624.81" y="74765.438">Princípio de igualdade.</tspan></text><text x="23638.988" y="91224.641" font-family="ArialMT"><tspan x="23638.988" y="91224.641">●</tspan></text><text x="38306" y="91224.641" font-family="Merriweather"><tspan x="38306 44277.031 49836.586 55908.203 59629.809 63817.762 68947.547 72669.156 78448.164 83577.945 86622.898 89667.852 94285.57 98007.18 103136.96 107754.68 112088.94 115572.8 120547.14 125676.92 131748.53 137490.97 140974.83 146104.62 150795.48 156364.19 162143.2 167117.53 171735.25 173902.38 180339.75 185899.31 191678.31 196296.03 200913.75 205888.08 211017.88 216796.89 218964.02 222895.94 226919.3 232295.97 236319.31 241787.44 243954.56 249696.98 251864.12 255887.48 261264.16 266640.84 272428.97 276360.88 278528.03 283502.38" y="91224.641">Contratualistas Jean-Jacques Rousseau (1712 - 1778) e </tspan></text><text x="38306" y="107683.83" font-family="Merriweather"><tspan x="38306 47358.562 52918.113 58989.727 62711.336 67685.672 72303.391 77872.086 83651.094 86696.047 91670.383 97449.391 99616.523 103548.45 107571.8 113643.41 119431.57 125466.61 127633.73 133376.17 135543.3 139566.66 144943.33 150320 155751.55" y="107683.83">Montesquieu (1689 - 1775)</tspan></text></g></g></svg>