<svg version="1.1" viewBox="0 0 960 540" xml:space="preserve" xmlns="http://www.w3.org/2000/svg"><g transform="matrix(1.3333333,0,0,-1.3333333,0,540)"><path d="m32.655447 369.95873h662.809693v-45.0944h-662.809693z" fill-opacity="0"/><g transform="scale(1,-1)" fill="#ed4e38" stroke-width=".749999" aria-label="SOCIALISMO CIENTÍFICO "><path d="m46.335406-338.71439q-2.923188 0-4.359583-1.53719-1.411194-1.56239-1.511994-4.93918l3.855585-0.5796q0.0252 1.94039 0.453598 2.79719 0.453598 0.8316 1.335595 0.8316 1.133995 0 1.133995-1.4868 0-1.18439-0.554397-2.04119-0.529198-0.85679-1.688394-1.83959l-1.763993-1.53719q-1.310394-1.1088-2.041191-2.3436-0.705598-1.25999-0.705598-2.97358 0-2.57039 1.511994-3.95639 1.537194-1.38599 4.208384-1.38599 2.897988 0 3.931184 1.68839 1.058396 1.68839 1.133995 4.10758l-3.880784 0.4788q-0.0504-1.58759-0.302399-2.26799-0.226799-0.7056-1.033196-0.7056-0.579598 0-0.907196 0.504-0.302399 0.4788-0.302399 1.0836 0 1.03319 0.453598 1.73879 0.478798 0.7056 1.511994 1.61279l1.688393 1.4868q1.511994 1.28519 2.343591 2.72159 0.831597 1.43639 0.831597 3.40198 0 1.4364-0.680397 2.62079-0.655198 1.1592-1.864793 1.8396-1.209595 0.68039-2.797189 0.68039z"/><path d="m62.716552-338.71439q-3.301187 0-4.712382-1.68839-1.411194-1.71359-1.411194-5.03998v-7.58517q0-3.32639 1.411194-4.98958 1.411195-1.68839 4.712382-1.68839 3.326386 0 4.737581 1.68839 1.436394 1.68839 1.436394 4.98958v7.58517q0 3.32639-1.436394 5.03998-1.411195 1.68839-4.737581 1.68839zm0-3.20038q0.957596 0 1.259995-0.63 0.302398-0.6552 0.302398-1.76399v-9.82796q0-1.134-0.302398-1.764-0.302399-0.62999-1.259995-0.62999-0.907197 0-1.209595 0.65519-0.302399 0.63-0.302399 1.7388v9.82796q0 1.10879 0.277199 1.76399 0.277199 0.63 1.234795 0.63z"/><path d="m80.483657-338.71439q-3.326387 0-4.737581-1.73879-1.385995-1.76399-1.385995-5.06518v-7.35837q0-3.37679 1.385995-5.09038 1.385994-1.73879 4.737581-1.73879 3.200387 0 4.535982 1.53719 1.335594 1.5372 1.335594 4.35958v1.764h-4.409982v-2.04119q0-1.1844-0.251999-1.8144-0.251999-0.62999-1.209595-0.62999t-1.259995 0.68039q-0.302399 0.6552-0.302399 1.8396v9.60116q0 1.20959 0.302399 1.86479 0.327599 0.63 1.259995 0.63t1.184395-0.63q0.277199-0.6552 0.277199-1.86479v-2.14199h4.409982v1.76399q0 2.87279-1.335594 4.48558-1.335595 1.58759-4.535982 1.58759z"/><path d="m91.850014-359.4287h4.510782v20.41192h-4.510782z"/><path d="m105.28274-359.4287h5.14078l3.80518 20.41192h-4.15798l-0.6804-4.30919h-2.99879l-0.70559 4.30919h-4.25879zm3.67918 13.40634-1.08359-7.96317-1.0836 7.96317z"/><path d="m119.29507-359.4287h4.51078v17.36273h4.68718v3.04919h-9.19796z"/><path d="m133.48379-359.4287h4.51078v20.41192h-4.51078z"/><path d="m149.4617-338.71439q-2.92319 0-4.35958-1.53719-1.41119-1.56239-1.51199-4.93918l3.85558-0.5796q0.0252 1.94039 0.4536 2.79719 0.4536 0.8316 1.33559 0.8316 1.134 0 1.134-1.4868 0-1.18439-0.5544-2.04119-0.5292-0.85679-1.68839-1.83959l-1.76399-1.53719q-1.3104-1.1088-2.0412-2.3436-0.70559-1.25999-0.70559-2.97358 0-2.57039 1.51199-3.95639 1.53719-1.38599 4.20838-1.38599 2.89799 0 3.93119 1.68839 1.05839 1.68839 1.13399 4.10758l-3.88078 0.4788q-0.0504-1.58759-0.3024-2.26799-0.2268-0.7056-1.0332-0.7056-0.57959 0-0.90719 0.504-0.3024 0.4788-0.3024 1.0836 0 1.03319 0.4536 1.73879 0.4788 0.7056 1.51199 1.61279l1.68839 1.4868q1.512 1.28519 2.3436 2.72159 0.83159 1.43639 0.83159 3.40198 0 1.4364-0.6804 2.62079-0.65519 1.1592-1.86479 1.8396-1.20959 0.68039-2.79719 0.68039z"/><path d="m160.07204-359.4287h4.83838l2.24279 11.86915 2.41919-11.86915h4.66198l0.3528 20.41192h-3.20039l-0.378-13.58275-2.36879 13.58275h-2.84759l-2.51999-13.68355-0.30239 13.68355h-3.25079z"/><path d="m186.38191-338.71439q-3.30119 0-4.71238-1.68839-1.4112-1.71359-1.4112-5.03998v-7.58517q0-3.32639 1.4112-4.98958 1.41119-1.68839 4.71238-1.68839 3.32638 0 4.73758 1.68839 1.43639 1.68839 1.43639 4.98958v7.58517q0 3.32639-1.43639 5.03998-1.4112 1.68839-4.73758 1.68839zm0-3.20038q0.95759 0 1.25999-0.63 0.3024-0.6552 0.3024-1.76399v-9.82796q0-1.134-0.3024-1.764-0.3024-0.62999-1.25999-0.62999-0.9072 0-1.2096 0.65519-0.3024 0.63-0.3024 1.7388v9.82796q0 1.10879 0.2772 1.76399 0.2772 0.63 1.2348 0.63z"/><path d="m213.60015-338.71439q-3.32638 0-4.73758-1.73879-1.38599-1.76399-1.38599-5.06518v-7.35837q0-3.37679 1.38599-5.09038 1.386-1.73879 4.73758-1.73879 3.20039 0 4.53599 1.53719 1.33559 1.5372 1.33559 4.35958v1.764h-4.40998v-2.04119q0-1.1844-0.252-1.8144-0.252-0.62999-1.2096-0.62999-0.95759 0-1.25999 0.68039-0.3024 0.6552-0.3024 1.8396v9.60116q0 1.20959 0.3024 1.86479 0.3276 0.63 1.25999 0.63 0.9324 0 1.1844-0.63 0.2772-0.6552 0.2772-1.86479v-2.14199h4.40998v1.76399q0 2.87279-1.33559 4.48558-1.3356 1.58759-4.53599 1.58759z"/><path d="m224.96652-359.4287h4.51078v20.41192h-4.51078z"/><path d="m235.52645-359.4287h9.17277v3.07438h-4.66199v5.06518h3.55319v3.12479h-3.55319v6.09838h4.71238v3.04919h-9.22316z"/><path d="m249.79078-359.4287h3.17519l4.18318 9.82796v-9.82796h3.72959v20.41192h-3.04919l-4.18319-10.58396v10.58396h-3.85558z"/><path d="m268.76749-356.07712h-3.07439v-3.35158h10.65956v3.35158h-3.04919v17.06034h-4.53598z"/><path d="m281.16704-359.4287h4.51078v20.41192h-4.51078zm2.46959-6.67798h4.18318l-3.17519 5.06518h-2.59558z"/><path d="m291.72697-359.4287h8.81996v3.04918h-4.30918v5.14078h3.75478v3.14999h-3.75478v9.07197h-4.51078z"/><path d="m305.68887-359.4287h4.51079v20.41192h-4.51079z"/><path d="m322.09519-338.71439q-3.32638 0-4.73758-1.73879-1.38599-1.76399-1.38599-5.06518v-7.35837q0-3.37679 1.38599-5.09038 1.386-1.73879 4.73758-1.73879 3.20039 0 4.53599 1.53719 1.33559 1.5372 1.33559 4.35958v1.764h-4.40998v-2.04119q0-1.1844-0.252-1.8144-0.252-0.62999-1.2096-0.62999-0.95759 0-1.25999 0.68039-0.3024 0.6552-0.3024 1.8396v9.60116q0 1.20959 0.3024 1.86479 0.3276 0.63 1.25999 0.63 0.9324 0 1.1844-0.63 0.2772-0.6552 0.2772-1.86479v-2.14199h4.40998v1.76399q0 2.87279-1.33559 4.48558-1.3356 1.58759-4.53599 1.58759z"/><path d="m339.28273-338.71439q-3.30119 0-4.71239-1.68839-1.41119-1.71359-1.41119-5.03998v-7.58517q0-3.32639 1.41119-4.98958 1.4112-1.68839 4.71239-1.68839 3.32638 0 4.73758 1.68839 1.43639 1.68839 1.43639 4.98958v7.58517q0 3.32639-1.43639 5.03998-1.4112 1.68839-4.73758 1.68839zm0-3.20038q0.95759 0 1.25999-0.63 0.3024-0.6552 0.3024-1.76399v-9.82796q0-1.134-0.3024-1.764-0.3024-0.62999-1.25999-0.62999-0.9072 0-1.2096 0.65519-0.3024 0.63-0.3024 1.7388v9.82796q0 1.10879 0.2772 1.76399 0.2772 0.63 1.2348 0.63z"/></g><path d="m32.655447 314.25412h647.856973v-269.007338h-647.856973z" fill-opacity="0"/><g fill="#ed4e38" stroke-width=".749999"><g transform="scale(1,-1)" aria-label="Marx fundou a teoria do socialismo cientíﬁco;"><path d="m78.578348-302.35509-2.108989-0.209v-0.817h4.483977l2.944985 8.77796 0.702996 2.54598 0.626997-2.54598 2.925984-8.77796h4.445977v0.817l-2.089989 0.209 1.500992 12.08394 1.728991 0.18999v0.817h-5.110973v-0.817l1.766991-0.17099-0.873996-8.66396-0.417998-3.79998-0.835995 2.62199-3.438982 10.14594h-0.759996l-3.229983-9.08195-1.234994-3.68598-0.379998 3.79998-0.778996 8.66396 1.86199 0.17099v0.817h-4.749975v-0.817l1.614992-0.17099z"/><path d="m94.861321-292.03815q0-1.84299 1.823991-2.65998 1.82399-0.836 4.540978-0.893v-0.58899q0-0.969-0.209-1.52-0.19-0.56999-0.684-0.81699-0.493995-0.266-1.38699-0.266-0.968995 0-1.766991 0.304-0.778996 0.285-1.519992 0.70299l-0.417998-0.83599q0.208999-0.19 0.873996-0.532 0.664996-0.342 1.519992-0.608 0.854995-0.26599 1.652991-0.26599 1.291992 0 2.032992 0.36099 0.75999 0.361 1.08299 1.159 0.342 0.79799 0.342 2.14699v6.26996h1.17799v0.703q-1.04499 0.285-1.76699 0.285-0.45599 0-0.62699-0.152-0.171-0.133-0.171-0.646v-0.70299q-0.684 0.60799-1.500995 1.08299-0.797996 0.456-1.82399 0.456-1.367993 0-2.279988-0.76-0.892996-0.75999-0.892996-2.22299zm3.742981 1.86199q0.531997 0 1.272993-0.34199 0.740995-0.342 1.348995-0.817v-3.36298q-2.29899 0.019-3.495984 0.68399-1.177994 0.665-1.177994 1.786 0 1.08299 0.550998 1.57699 0.550997 0.47499 1.500992 0.47499z"/><path d="m105.4063-290.06216 1.51999-0.114v-8.37895l-1.46299-0.323v-0.855l2.41299-0.30399h0.038l0.36099 0.30399v0.304l-0.038 1.444h0.038q0.038-0.038 0.494-0.57 0.475-0.551 1.38699-1.045 0.931-0.49399 1.86199-0.49399 0.304 0 0.57 0.076v1.67199q-0.076-0.057-0.342-0.114-0.247-0.057-0.53199-0.057-1.083 0-1.84299 0.323-0.76 0.32299-1.406 0.79799v7.20096l2.52699 0.152v0.779h-5.58597z"/><path d="m117.85126-294.56513-3.24898-4.23698-1.121-0.228v-0.779h4.38898v0.779l-1.38699 0.228 1.88099 2.65999 0.56999 0.83599 0.513-0.81699 1.99499-2.67899-1.46299-0.228v-0.779h3.93298v0.779l-1.178 0.228-3.24898 4.06598 3.41998 4.52197 1.14 0.152v0.798h-4.50298v-0.798l1.34899-0.171-1.89999-2.79298-0.58899-0.855-0.532 0.836-2.01399 2.81198 1.67199 0.171v0.798h-4.35098v-0.798l1.311-0.171z"/><path d="m131.22724-298.66911h-1.91899v-0.76l1.91899-0.361v-0.93099q0-1.13999 0.589-2.08999 0.58899-0.96899 1.51999-1.53899 0.94999-0.57 1.97599-0.57 0.608 0 1.06399 0.152v1.55799q-0.152-0.114-0.62699-0.228-0.456-0.114-1.064-0.114-1.00699 0-1.46299 0.532t-0.456 1.80499v1.42499h2.75499v1.121h-2.75499v8.45495l2.16599 0.133v0.817h-5.37697v-0.817l1.67199-0.152z"/><path d="m145.78119-289.09316q-0.49399 0-0.72199-0.171t-0.228-0.627v-0.74099q-0.703 0.62699-1.65299 1.10199-0.95 0.475-1.89999 0.475-1.72899 0-2.46999-0.969-0.722-0.96899-0.722-3.15398v-5.58597l-1.12099-0.323v-0.703l2.29899-0.24699h0.019l0.342 0.22799v6.40297q0 1.197 0.17099 1.88099 0.171 0.665 0.627 0.988 0.456 0.32299 1.32999 0.32299 0.836 0 1.596-0.36099 0.75999-0.361 1.31099-0.855v-7.33396l-1.44399-0.323v-0.703l2.52698-0.24699h0.019l0.437 0.22799v9.70895h1.17799l-0.019 0.722q-0.095 0.019-0.551 0.152t-1.026 0.133z"/><path d="m150.20821-298.55511-1.46299-0.323v-0.855l2.41298-0.30399h0.057l0.361 0.30399v0.836l-0.019 0.475q0.703-0.608 1.86199-1.121 1.159-0.51299 2.14699-0.51299 1.21599 0 1.86199 0.47499 0.665 0.456 0.912 1.425 0.26599 0.94999 0.26599 2.56498v5.37697l1.425 0.133v0.817h-4.23698v-0.817l1.27299-0.133v-5.39597q0-1.19699-0.171-1.88099-0.152-0.68399-0.62699-1.02599-0.456-0.361-1.349-0.361-0.75999 0-1.65299 0.38-0.87399 0.38-1.51999 0.89299v7.37196l1.38699 0.152v0.817h-4.19897v-0.817l1.27299-0.152z"/><path d="m165.59818-289.05516q-1.121 0-2.07099-0.57-0.95-0.589-1.52-1.76699-0.56999-1.17799-0.56999-2.88798 0-1.634 0.66499-2.94499 0.665-1.32999 1.88099-2.08999 1.235-0.77899 2.86899-0.77899 1.04499 0 2.01399 0.228v-3.76199l-1.97599-0.18999v-0.684l3.11598-0.323h0.038l0.361 0.266v14.43992h1.15899v0.741q-0.095 0.019-0.64599 0.152-0.551 0.133-1.178 0.133-0.43699 0-0.62699-0.152-0.171-0.152-0.171-0.665v-0.66499q-0.589 0.64599-1.44399 1.08299-0.836 0.437-1.89999 0.437zm0.62699-1.19699q0.817 0 1.53899-0.38 0.741-0.399 1.102-0.874v-6.99196q-0.152-0.266-0.798-0.456-0.62699-0.19-1.34899-0.19-1.63399 0-2.62199 1.178-0.98799 1.15899-0.98799 3.53398 0 2.12799 0.87399 3.15398 0.874 1.026 2.24199 1.026z"/><path d="m173.16016-294.60313q0-1.65299 0.68399-2.90699 0.703-1.25399 1.82399-1.91899 1.14-0.66499 2.37499-0.66499 2.39399 0 3.53398 1.55799 1.159 1.55799 1.159 3.98998 0 1.65299-0.703 2.90698-0.684 1.254-1.82399 1.91899-1.12099 0.665-2.35599 0.665-2.39399 0-3.55298-1.55799-1.13999-1.55799-1.13999-3.98998zm4.78797 4.55997q1.46299 0 2.26099-1.12099t0.798-3.26798q0-2.05199-0.741-3.36299-0.741-1.31099-2.29899-1.31099-1.46299 0-2.27999 1.121-0.79799 1.12099-0.79799 3.26798 0 2.07099 0.74099 3.38198 0.76 1.29199 2.31799 1.29199z"/><path d="m193.16709-289.09316q-0.494 0-0.722-0.171t-0.228-0.627v-0.74099q-0.70299 0.62699-1.65299 1.10199-0.94999 0.475-1.89999 0.475-1.72899 0-2.46999-0.969-0.72199-0.96899-0.72199-3.15398v-5.58597l-1.121-0.323v-0.703l2.29899-0.24699h0.019l0.342 0.22799v6.40297q0 1.197 0.171 1.88099 0.171 0.665 0.627 0.988 0.45599 0.32299 1.32999 0.32299 0.83599 0 1.59599-0.36099 0.76-0.361 1.31099-0.855v-7.33396l-1.44399-0.323v-0.703l2.52699-0.24699h0.019l0.437 0.22799v9.70895h1.17799l-0.019 0.722q-0.095 0.019-0.551 0.152-0.45599 0.133-1.02599 0.133z"/><path d="m201.01412-292.03815q0-1.84299 1.82399-2.65998 1.82399-0.836 4.54097-0.893v-0.58899q0-0.969-0.209-1.52-0.19-0.56999-0.68399-0.81699-0.494-0.266-1.387-0.266-0.96899 0-1.76699 0.304-0.77899 0.285-1.51999 0.70299l-0.418-0.83599q0.209-0.19 0.874-0.532t1.51999-0.608q0.855-0.26599 1.65299-0.26599 1.292 0 2.03299 0.36099 0.76 0.361 1.083 1.159 0.34199 0.79799 0.34199 2.14699v6.26996h1.178v0.703q-1.045 0.285-1.76699 0.285-0.456 0-0.627-0.152-0.171-0.133-0.171-0.646v-0.70299q-0.684 0.60799-1.50099 1.08299-0.798 0.456-1.82399 0.456-1.36799 0-2.27999-0.76-0.89299-0.75999-0.89299-2.22299zm3.74298 1.86199q0.53199 0 1.27299-0.34199 0.741-0.342 1.34899-0.817v-3.36298q-2.29899 0.019-3.49598 0.68399-1.17799 0.665-1.17799 1.786 0 1.08299 0.55099 1.57699 0.551 0.47499 1.501 0.47499z"/><path d="m219.27307-289.05516q-1.007 0-1.52-0.456-0.51299-0.475-0.51299-1.67199v-7.50496h-1.444v-0.741q0.95-0.209 1.102-0.304 0.285-0.15199 0.418-0.58899 0.114-0.285 0.304-1.026 0.18999-0.74099 0.28499-1.15899h0.874v2.69798h3.36298v1.121h-3.36298v6.15597q0 1.10199 0.076 1.55799 0.076 0.437 0.304 0.57t0.79799 0.133q0.551 0 1.235-0.152 0.68399-0.152 1.02599-0.323l0.247 0.72199q-0.437 0.342-1.44399 0.665-1.007 0.304-1.74799 0.304z"/><path d="m228.31703-289.05516q-2.20398 0-3.40098-1.50099-1.17799-1.52-1.17799-4.02798 0-1.61499 0.62699-2.86899 0.627-1.25399 1.729-1.93799 1.12099-0.70299 2.50798-0.70299 1.69099 0 2.62199 0.96899 0.94999 0.969 1.02599 2.79299 0 1.17799-0.114 1.67199h-6.76396q0 1.99499 0.89299 3.26798 0.912 1.25399 2.54599 1.25399 0.798 0 1.63399-0.28499 0.836-0.285 1.292-0.684l0.30399 0.703q-0.55099 0.56999-1.61499 0.96899-1.04499 0.38-2.10899 0.38zm2.22299-6.49797q0.057-0.399 0.057-0.83599-0.019-1.254-0.608-1.99499-0.56999-0.741-1.76699-0.741-2.60298 0-2.83098 3.57198z"/><path d="m233.96005-294.60313q0-1.65299 0.684-2.90699 0.703-1.25399 1.82399-1.91899 1.13999-0.66499 2.37499-0.66499 2.39398 0 3.53398 1.55799 1.15899 1.55799 1.15899 3.98998 0 1.65299-0.70299 2.90698-0.684 1.254-1.82399 1.91899-1.121 0.665-2.35599 0.665-2.39399 0-3.55298-1.55799-1.14-1.55799-1.14-3.98998zm4.78798 4.55997q1.46299 0 2.26099-1.12099 0.79799-1.12099 0.79799-3.26798 0-2.05199-0.74099-3.36299-0.741-1.31099-2.29899-1.31099-1.463 0-2.27999 1.121-0.798 1.12099-0.798 3.26798 0 2.07099 0.741 3.38198 0.76 1.29199 2.31799 1.29199z"/><path d="m245.34103-290.06216 1.51999-0.114v-8.37895l-1.46299-0.323v-0.855l2.41299-0.30399h0.038l0.36099 0.30399v0.304l-0.038 1.444h0.038q0.038-0.038 0.494-0.57 0.475-0.551 1.38699-1.045 0.931-0.49399 1.86199-0.49399 0.304 0 0.57 0.076v1.67199q-0.076-0.057-0.342-0.114-0.247-0.057-0.53199-0.057-1.083 0-1.84299 0.323-0.76 0.32299-1.406 0.79799v7.20096l2.52699 0.152v0.779h-5.58597z"/><path d="m256.03799-301.80409q-1.02599 0-1.02599-1.083 0-0.551 0.32299-0.89299 0.323-0.361 0.874-0.361 0.57 0 0.817 0.323 0.24699 0.30399 0.24699 0.75999 0 0.589-0.32299 0.931-0.304 0.323-0.893 0.323zm-0.608 3.24898-1.48199-0.323v-0.855l2.60299-0.30399h0.038l0.38 0.30399v9.51895l1.65299 0.133v0.817h-4.86398v-0.817l1.67199-0.152z"/><path d="m260.08499-292.03815q0-1.84299 1.82399-2.65998 1.82399-0.836 4.54098-0.893v-0.58899q0-0.969-0.209-1.52-0.19-0.56999-0.684-0.81699-0.49399-0.266-1.38699-0.266-0.96899 0-1.76699 0.304-0.779 0.285-1.51999 0.70299l-0.418-0.83599q0.209-0.19 0.874-0.532 0.66499-0.342 1.51999-0.608 0.85499-0.26599 1.65299-0.26599 1.29199 0 2.03299 0.36099 0.75999 0.361 1.08299 1.159 0.342 0.79799 0.342 2.14699v6.26996h1.17799v0.703q-1.04499 0.285-1.76699 0.285-0.45599 0-0.62699-0.152-0.171-0.133-0.171-0.646v-0.70299q-0.684 0.60799-1.50099 1.08299-0.798 0.456-1.82399 0.456-1.368 0-2.27999-0.76-0.893-0.75999-0.893-2.22299zm3.74298 1.86199q0.532 0 1.273-0.34199 0.74099-0.342 1.34899-0.817v-3.36298q-2.29899 0.019-3.49598 0.68399-1.178 0.665-1.178 1.786 0 1.08299 0.551 1.57699 0.551 0.47499 1.50099 0.47499z"/><path d="m279.23694-289.05516q-1.121 0-2.07099-0.57-0.95-0.589-1.51999-1.76699-0.57-1.17799-0.57-2.88798 0-1.634 0.665-2.94499 0.66499-1.32999 1.88099-2.08999 1.23499-0.77899 2.86898-0.77899 1.045 0 2.01399 0.228v-3.76199l-1.97599-0.18999v-0.684l3.11599-0.323h0.038l0.36099 0.266v14.43992h1.159v0.741q-0.095 0.019-0.646 0.152t-1.17799 0.133q-0.437 0-0.627-0.152-0.171-0.152-0.171-0.665v-0.66499q-0.589 0.64599-1.44399 1.08299-0.836 0.437-1.89999 0.437zm0.627-1.19699q0.81699 0 1.53899-0.38 0.74099-0.399 1.10199-0.874v-6.99196q-0.152-0.266-0.79799-0.456-0.627-0.19-1.349-0.19-1.63399 0-2.62198 1.178-0.988 1.15899-0.988 3.53398 0 2.12799 0.874 3.15398 0.87399 1.026 2.24199 1.026z"/><path d="m286.79897-294.60313q0-1.65299 0.68399-2.90699 0.703-1.25399 1.82399-1.91899 1.14-0.66499 2.37499-0.66499 2.39399 0 3.53398 1.55799 1.159 1.55799 1.159 3.98998 0 1.65299-0.703 2.90698-0.684 1.254-1.82399 1.91899-1.121 0.665-2.35599 0.665-2.39399 0-3.55298-1.55799-1.13999-1.55799-1.13999-3.98998zm4.78797 4.55997q1.46299 0 2.26099-1.12099 0.79799-1.12099 0.79799-3.26798 0-2.05199-0.74099-3.36299-0.741-1.31099-2.29899-1.31099-1.46299 0-2.27999 1.121-0.79799 1.12099-0.79799 3.26798 0 2.07099 0.74099 3.38198 0.76 1.29199 2.31799 1.29199z"/><path d="m304.16491-290.76515q0.209 0.323 0.874 0.56999 0.66499 0.247 1.42499 0.247 2.31799 0 2.31799-1.70999 0-0.77899-0.646-1.25399-0.646-0.494-2.20399-1.083-1.53899-0.55099-2.24199-1.31099-0.70299-0.75999-0.70299-2.03299 0-0.81699 0.49399-1.42499 0.513-0.608 1.349-0.931 0.85499-0.34199 1.84299-0.34199 0.96899 0 1.61499 0.171 0.665 0.17099 1.31099 0.41799v2.26099h-0.93099l-0.342-1.38699q-0.133-0.247-0.684-0.418-0.532-0.171-1.17799-0.171-0.912 0-1.48199 0.418-0.57 0.399-0.57 1.08299 0 0.608 0.285 1.007t0.70299 0.646q0.418 0.22799 1.159 0.53199l0.361 0.152q1.08299 0.418 1.74799 0.798 0.66499 0.361 1.10199 0.96899 0.437 0.589 0.437 1.48199 0 1.406-1.083 2.22299-1.06399 0.798-2.84998 0.798-0.817 0-1.86199-0.266-1.045-0.266-1.55799-0.532v-2.39398h1.02599z"/><path d="m312.03087-294.60313q0-1.65299 0.68399-2.90699 0.703-1.25399 1.824-1.91899 1.13999-0.66499 2.37498-0.66499 2.39399 0 3.53398 1.55799 1.159 1.55799 1.159 3.98998 0 1.65299-0.703 2.90698-0.68399 1.254-1.82399 1.91899-1.12099 0.665-2.35599 0.665-2.39398 0-3.55298-1.55799-1.13999-1.55799-1.13999-3.98998zm4.78797 4.55997q1.463 0 2.26099-1.12099 0.798-1.12099 0.798-3.26798 0-2.05199-0.741-3.36299-0.74099-1.31099-2.29899-1.31099-1.46299 0-2.27998 1.121-0.798 1.12099-0.798 3.26798 0 2.07099 0.741 3.38198 0.75999 1.29199 2.31798 1.29199z"/><path d="m323.12686-294.47013q0-1.53899 0.589-2.81199 0.608-1.29199 1.78599-2.05199 1.19699-0.75999 2.90698-0.75999 0.741 0 1.444 0.19 0.70299 0.17099 1.21599 0.37999l-0.076 2.71699h-0.94999l-0.399-1.82399q-0.114-0.57-1.63399-0.57-1.482 0-2.37499 1.14-0.874 1.13999-0.874 3.11598 0 2.35599 0.95 3.57198 0.94999 1.21599 2.46999 1.21599 0.79799 0 1.53899-0.26599 0.75999-0.266 1.25399-0.608l0.304 0.627q-0.551 0.55099-1.51999 0.94999-0.969 0.399-1.91899 0.399-1.50099 0-2.56499-0.703-1.06399-0.72199-1.61499-1.93799-0.532-1.23499-0.532-2.77398z"/><path d="m335.22984-301.80409q-1.026 0-1.026-1.083 0-0.551 0.323-0.89299 0.323-0.361 0.874-0.361 0.57 0 0.81699 0.323 0.247 0.30399 0.247 0.75999 0 0.589-0.323 0.931-0.30399 0.323-0.89299 0.323zm-0.608 3.24898-1.48199-0.323v-0.855l2.60299-0.30399h0.038l0.37999 0.30399v9.51895l1.653 0.133v0.817h-4.86398v-0.817l1.67199-0.152z"/><path d="m339.27686-292.03815q0-1.84299 1.82399-2.65998 1.82399-0.836 4.54097-0.893v-0.58899q0-0.969-0.209-1.52-0.18999-0.56999-0.68399-0.81699-0.494-0.266-1.387-0.266-0.96899 0-1.76699 0.304-0.77899 0.285-1.51999 0.70299l-0.418-0.83599q0.209-0.19 0.874-0.532t1.51999-0.608q0.855-0.26599 1.65299-0.26599 1.292 0 2.03299 0.36099 0.76 0.361 1.083 1.159 0.342 0.79799 0.342 2.14699v6.26996h1.17799v0.703q-1.045 0.285-1.76699 0.285-0.456 0-0.627-0.152-0.171-0.133-0.171-0.646v-0.70299q-0.68399 0.60799-1.50099 1.08299-0.798 0.456-1.82399 0.456-1.36799 0-2.27999-0.76-0.89299-0.75999-0.89299-2.22299zm3.74298 1.86199q0.53199 0 1.27299-0.34199 0.741-0.342 1.34899-0.817v-3.36298q-2.29898 0.019-3.49598 0.68399-1.17799 0.665-1.17799 1.786 0 1.08299 0.55099 1.57699 0.551 0.47499 1.501 0.47499z"/><path d="m351.3038-303.62809-1.615-0.17099v-0.703l2.77399-0.323h0.019l0.361 0.247v14.36392l1.78599 0.133v0.817h-4.99698v-0.817l1.672-0.152z"/><path d="m358.2198-301.80409q-1.026 0-1.026-1.083 0-0.551 0.323-0.89299 0.323-0.361 0.874-0.361 0.57 0 0.81699 0.323 0.247 0.30399 0.247 0.75999 0 0.589-0.323 0.931-0.30399 0.323-0.89299 0.323zm-0.608 3.24898-1.48199-0.323v-0.855l2.60299-0.30399h0.038l0.37999 0.30399v9.51895l1.653 0.133v0.817h-4.86398v-0.817l1.67199-0.152z"/><path d="m363.71078-290.76515q0.209 0.323 0.87399 0.56999 0.665 0.247 1.425 0.247 2.31798 0 2.31798-1.70999 0-0.77899-0.64599-1.25399-0.646-0.494-2.20399-1.083-1.53899-0.55099-2.24199-1.31099-0.703-0.75999-0.703-2.03299 0-0.81699 0.494-1.42499 0.513-0.608 1.34899-0.931 0.855-0.34199 1.84299-0.34199 0.969 0 1.615 0.171 0.66499 0.17099 1.31099 0.41799v2.26099h-0.931l-0.34199-1.38699q-0.133-0.247-0.684-0.418-0.532-0.171-1.17799-0.171-0.912 0-1.482 0.418-0.56999 0.399-0.56999 1.08299 0 0.608 0.285 1.007 0.28499 0.399 0.70299 0.646 0.418 0.22799 1.159 0.53199l0.36099 0.152q1.083 0.418 1.74799 0.798 0.665 0.361 1.102 0.96899 0.437 0.589 0.437 1.48199 0 1.406-1.083 2.22299-1.06399 0.798-2.84998 0.798-0.817 0-1.86199-0.266-1.045-0.266-1.558-0.532v-2.39398h1.026z"/><path d="m371.55777-290.08116 1.21599-0.152v-8.32195l-1.46299-0.323v-0.855l2.41299-0.30399 0.41799 0.30399v0.836l-0.019 0.475q0.703-0.608 1.84299-1.121 1.14-0.51299 2.07099-0.51299 1.026 0 1.63399 0.34199 0.627 0.342 0.95 1.064 0.589-0.494 1.70999-0.95 1.13999-0.45599 2.08999-0.45599 1.19699 0 1.84299 0.45599 0.665 0.456 0.931 1.406 0.26599 0.94999 0.26599 2.56498v5.39597l1.444 0.152v0.817h-4.25598v-0.817l1.29199-0.152v-5.33897q0-1.19699-0.171-1.89999-0.171-0.70299-0.66499-1.06399-0.494-0.361-1.444-0.361-0.70299 0-1.48199 0.323-0.75999 0.304-1.31099 0.70299 0.19 0.874 0.19 2.27999v5.35797l1.44399 0.152v0.817h-4.35098v-0.817l1.368-0.152v-5.37697q0-1.21599-0.152-1.89999-0.133-0.68399-0.589-1.02599t-1.34899-0.342q-0.741 0-1.615 0.38-0.85499 0.361-1.50099 0.87399v7.39096l1.349 0.152v0.817h-4.10398z"/><path d="m390.27275-294.60313q0-1.65299 0.684-2.90699 0.70299-1.25399 1.82399-1.91899 1.13999-0.66499 2.37499-0.66499 2.39398 0 3.53398 1.55799 1.15899 1.55799 1.15899 3.98998 0 1.65299-0.703 2.90698-0.68399 1.254-1.82399 1.91899-1.12099 0.665-2.35598 0.665-2.39399 0-3.55299-1.55799-1.13999-1.55799-1.13999-3.98998zm4.78798 4.55997q1.46299 0 2.26098-1.12099 0.798-1.12099 0.798-3.26798 0-2.05199-0.741-3.36299-0.74099-1.31099-2.29898-1.31099-1.463 0-2.27999 1.121-0.798 1.12099-0.798 3.26798 0 2.07099 0.741 3.38198 0.75999 1.29199 2.31799 1.29199z"/><path d="m405.8717-294.47013q0-1.53899 0.589-2.81199 0.608-1.29199 1.78599-2.05199 1.197-0.75999 2.90699-0.75999 0.74099 0 1.44399 0.19 0.703 0.17099 1.21599 0.37999l-0.076 2.71699h-0.94999l-0.399-1.82399q-0.114-0.57-1.63399-0.57-1.48199 0-2.37499 1.14-0.87399 1.13999-0.87399 3.11598 0 2.35599 0.94999 3.57198 0.95 1.21599 2.46999 1.21599 0.79799 0 1.53899-0.26599 0.76-0.266 1.25399-0.608l0.304 0.627q-0.551 0.55099-1.51999 0.94999t-1.91899 0.399q-1.50099 0-2.56499-0.703-1.06399-0.72199-1.61499-1.93799-0.532-1.23499-0.532-2.77398z"/><path d="m417.97468-301.80409q-1.02599 0-1.02599-1.083 0-0.551 0.323-0.89299 0.32299-0.361 0.87399-0.361 0.57 0 0.817 0.323 0.247 0.30399 0.247 0.75999 0 0.589-0.323 0.931-0.304 0.323-0.893 0.323zm-0.60799 3.24898-1.482-0.323v-0.855l2.60299-0.30399h0.038l0.38 0.30399v9.51895l1.65299 0.133v0.817h-4.86398v-0.817l1.672-0.152z"/><path d="m426.52464-289.05516q-2.20398 0-3.40098-1.50099-1.17799-1.52-1.17799-4.02798 0-1.61499 0.627-2.86899 0.62699-1.25399 1.72899-1.93799 1.12099-0.70299 2.50798-0.70299 1.69099 0 2.62199 0.96899 0.94999 0.969 1.02599 2.79299 0 1.17799-0.114 1.67199h-6.76396q0 1.99499 0.893 3.26798 0.91199 1.25399 2.54598 1.25399 0.798 0 1.63399-0.28499 0.836-0.285 1.292-0.684l0.304 0.703q-0.551 0.56999-1.615 0.96899-1.04499 0.38-2.10899 0.38zm2.22299-6.49797q0.057-0.399 0.057-0.83599-0.019-1.254-0.60799-1.99499-0.57-0.741-1.76699-0.741-2.60299 0-2.83099 3.57198z"/><path d="m433.36464-298.55511-1.46299-0.323v-0.855l2.41299-0.30399h0.057l0.36099 0.30399v0.836l-0.019 0.475q0.703-0.608 1.862-1.121 1.15899-0.51299 2.14698-0.51299 1.216 0 1.86199 0.47499 0.665 0.456 0.912 1.425 0.266 0.94999 0.266 2.56498v5.37697l1.42499 0.133v0.817h-4.23698v-0.817l1.273-0.133v-5.39597q0-1.19699-0.171-1.88099-0.152-0.68399-0.627-1.02599-0.456-0.361-1.34899-0.361-0.76 0-1.65299 0.38-0.874 0.38-1.52 0.89299v7.37196l1.387 0.152v0.817h-4.19898v-0.817l1.27299-0.152z"/><path d="m447.86161-289.05516q-1.00699 0-1.51999-0.456-0.513-0.475-0.513-1.67199v-7.50496h-1.44399v-0.741q0.95-0.209 1.102-0.304 0.28499-0.15199 0.41799-0.58899 0.114-0.285 0.304-1.026 0.19-0.74099 0.285-1.15899h0.874v2.69798h3.36298v1.121h-3.36298v6.15597q0 1.10199 0.076 1.55799 0.076 0.437 0.30399 0.57 0.228 0.133 0.798 0.133 0.551 0 1.23499-0.152 0.684-0.152 1.026-0.323l0.247 0.72199q-0.437 0.342-1.444 0.665-1.00699 0.304-1.74799 0.304z"/><path d="m453.90361-298.55511-1.48199-0.323v-0.855l2.60299-0.30399h0.038l0.37999 0.30399v9.51895l1.65299 0.133v0.817h-4.86397v-0.817l1.67199-0.152zm-0.684-3.74298 2.94499-3.66698 1.29199 1.04499q-0.38 0.57-1.69099 1.70999-1.29199 1.121-1.95699 1.425z"/><path d="m460.09759-298.66911h-1.91899v-0.76l1.91899-0.361v-0.93099q0-1.13999 0.58899-2.08999 0.589-0.96899 1.52-1.53899 0.94999-0.57 1.97599-0.57 0.60799 0 1.06399 0.152v1.55799q-0.152-0.114-0.627-0.228-0.45599-0.114-1.06399-0.114-1.007 0-1.46299 0.532-0.456 0.532-0.456 1.80499v1.42499h2.75498v1.121h-2.75498v8.45495l2.16599 0.133v0.817h-5.37697v-0.817l1.67199-0.152zm8.07495-3.13498q-1.02599 0-1.02599-1.083 0-0.551 0.323-0.89299 0.323-0.361 0.87399-0.361 0.57 0 0.817 0.323 0.247 0.30399 0.247 0.75999 0 0.589-0.323 0.931-0.304 0.323-0.893 0.323zm-0.60799 3.24898-1.48199-0.323v-0.855l2.60298-0.30399h0.038l0.38 0.30399v9.51895l1.65299 0.133v0.817h-4.86397v-0.817l1.67199-0.152z"/><path d="m471.89658-294.47013q0-1.53899 0.58899-2.81199 0.608-1.29199 1.78599-2.05199 1.197-0.75999 2.90699-0.75999 0.741 0 1.44399 0.19 0.703 0.17099 1.216 0.37999l-0.076 2.71699h-0.95l-0.399-1.82399q-0.114-0.57-1.63399-0.57-1.48199 0-2.37499 1.14-0.87399 1.13999-0.87399 3.11598 0 2.35599 0.94999 3.57198 0.95 1.21599 2.46999 1.21599 0.798 0 1.53899-0.26599 0.76-0.266 1.254-0.608l0.30399 0.627q-0.55099 0.55099-1.51999 0.94999-0.96899 0.399-1.91899 0.399-1.50099 0-2.56498-0.703-1.064-0.72199-1.615-1.93799-0.53199-1.23499-0.53199-2.77398z"/><path d="m481.77653-294.60313q0-1.65299 0.684-2.90699 0.703-1.25399 1.82399-1.91899 1.14-0.66499 2.37499-0.66499 2.39399 0 3.53398 1.55799 1.15899 1.55799 1.15899 3.98998 0 1.65299-0.70299 2.90698-0.684 1.254-1.82399 1.91899-1.121 0.665-2.35599 0.665-2.39399 0-3.55298-1.55799-1.14-1.55799-1.14-3.98998zm4.78798 4.55997q1.46299 0 2.26099-1.12099 0.79799-1.12099 0.79799-3.26798 0-2.05199-0.74099-3.36299-0.741-1.31099-2.29899-1.31099-1.46299 0-2.27999 1.121-0.79799 1.12099-0.79799 3.26798 0 2.07099 0.74099 3.38198 0.76 1.29199 2.31799 1.29199z"/><path d="m495.43755-296.95912q-0.437 0-0.741-0.285-0.304-0.304-0.304-0.77899 0-0.532 0.361-0.893 0.38-0.361 0.87399-0.361 0.513 0 0.76 0.304 0.266 0.304 0.266 0.76 0 0.53199-0.361 0.89299t-0.85499 0.361zm0.057 5.05397q0.60799 0 0.96899 0.57t0.361 1.61499q0 1.045-0.304 1.97599-0.304 0.931-0.779 1.59599-0.47499 0.665-0.94999 0.95h-0.019l-0.551-0.38v-0.171q0.228-0.171 0.494-0.70299 0.285-0.513 0.475-1.197 0.209-0.684 0.209-1.32999 0-0.285-0.114-0.456-0.095-0.171-0.304-0.399-0.247-0.247-0.38-0.47499-0.114-0.228-0.114-0.627 0-0.437 0.266-0.703 0.285-0.266 0.665-0.266z"/></g><g transform="scale(1,-1)" aria-label="Juntamente com Engels publicou a obra “Manifesto do Partido”;"><path d="m75.386365-252.46125q0.873996-0.228 1.557992-0.874 0.683996-0.627 0.968995-1.55799 0.246999-0.779 0.303998-1.74799 0.076-0.969 0.076-3.22998v-8.26496l-1.89999-0.228v-0.817h5.300972v0.817l-1.82399 0.228v9.32895q0 1.19699-0.038 1.97599-0.038 0.76-0.151999 1.36799-0.303999 1.53899-1.424993 2.48899-1.101994 0.94999-2.450987 1.19699z"/><path d="m92.0873-254.89324q-0.493998 0-0.721996-0.171-0.227999-0.171-0.227999-0.627v-0.74099q-0.702997 0.62699-1.652992 1.10199t-1.89999 0.475q-1.728991 0-2.469987-0.969-0.721996-0.96899-0.721996-3.15398v-5.58597l-1.120994-0.323v-0.70299l2.298988-0.247h0.019l0.341998 0.228v6.40296q0 1.197 0.170999 1.88099 0.170999 0.665 0.626997 0.988 0.455997 0.323 1.329993 0.323 0.835996 0 1.595992-0.361t1.310993-0.855v-7.33396l-1.443993-0.323v-0.70299l2.526987-0.247h0.019l0.436998 0.228v9.70894h1.177994l-0.019 0.722q-0.095 0.019-0.550998 0.152-0.455997 0.133-1.025994 0.133z"/><path d="m96.514315-264.35519-1.462992-0.323v-0.85499l2.412987-0.304h0.057l0.360998 0.304v0.83599l-0.019 0.475q0.702997-0.608 1.861991-1.121 1.158991-0.51299 2.146991-0.51299 1.21599 0 1.86199 0.47499 0.66499 0.456 0.91199 1.425 0.266 0.94999 0.266 2.56498v5.37698l1.42499 0.13299v0.817h-4.23697v-0.817l1.27299-0.13299v-5.39598q0-1.19699-0.171-1.88099-0.152-0.68399-0.627-1.02599-0.45599-0.361-1.34899-0.361-0.76 0-1.652991 0.38-0.873995 0.38-1.519992 0.89299v7.37197l1.386993 0.15199v0.817h-4.198978v-0.817l1.272993-0.15199z"/><path d="m111.01128-254.85524q-1.007 0-1.51999-0.456-0.513-0.475-0.513-1.67199v-7.50496h-1.44399v-0.741q0.94999-0.209 1.10199-0.30399 0.285-0.152 0.418-0.589 0.114-0.285 0.304-1.026 0.19-0.74099 0.285-1.15899h0.87399v2.69799h3.36298v1.12099h-3.36298v6.15597q0 1.10199 0.076 1.55799 0.076 0.437 0.304 0.57t0.798 0.133q0.55099 0 1.23499-0.152t1.02599-0.323l0.247 0.72199q-0.437 0.342-1.44399 0.665-1.00699 0.304-1.74799 0.304z"/><path d="m115.55228-257.83823q0-1.84299 1.82399-2.65998 1.82399-0.836 4.54097-0.893v-0.58899q0-0.969-0.20899-1.52-0.19-0.56999-0.684-0.81699-0.494-0.266-1.38699-0.266-0.969 0-1.76699 0.304-0.779 0.285-1.52 0.70299l-0.41799-0.83599q0.20899-0.19 0.87399-0.532t1.51999-0.60799q0.855-0.266 1.65299-0.266 1.292 0 2.03299 0.36099 0.76 0.361 1.083 1.159 0.342 0.79799 0.342 2.14699v6.26996h1.17799v0.703q-1.04499 0.285-1.76699 0.285-0.456 0-0.627-0.152-0.171-0.133-0.171-0.646v-0.70299q-0.68399 0.60799-1.50099 1.08299-0.79799 0.456-1.82399 0.456-1.36799 0-2.27999-0.76-0.89299-0.75999-0.89299-2.22299zm3.74298 1.862q0.532 0 1.27299-0.342 0.741-0.342 1.34899-0.817v-3.36298q-2.29898 0.019-3.49598 0.684-1.17799 0.66499-1.17799 1.78599 0 1.08299 0.551 1.57699 0.55099 0.475 1.50099 0.475z"/><path d="m126.00226-255.88124 1.21599-0.15199v-8.32196l-1.46299-0.323v-0.85499l2.41298-0.304 0.418 0.304v0.83599l-0.019 0.475q0.703-0.608 1.84299-1.121 1.14-0.51299 2.07099-0.51299 1.026 0 1.63399 0.342 0.627 0.34199 0.95 1.06399 0.589-0.494 1.70999-0.95 1.13999-0.45599 2.08999-0.45599 1.19699 0 1.84299 0.45599 0.665 0.456 0.93099 1.406 0.266 0.94999 0.266 2.56498v5.39598l1.44399 0.15199v0.817h-4.25597v-0.817l1.29199-0.15199v-5.33898q0-1.19699-0.171-1.89999-0.171-0.70299-0.665-1.06399-0.49399-0.361-1.44399-0.361-0.70299 0-1.48199 0.323-0.76 0.304-1.31099 0.703 0.19 0.87399 0.19 2.27998v5.35798l1.44399 0.15199v0.817h-4.35098v-0.817l1.36799-0.15199v-5.37698q0-1.21599-0.152-1.89999-0.13299-0.68399-0.58899-1.02599t-1.349-0.342q-0.74099 0-1.61499 0.38-0.85499 0.361-1.50099 0.87399v7.39097l1.34899 0.15199v0.817h-4.10397z"/><path d="m149.3342-254.85524q-2.20399 0-3.40098-1.50099-1.178-1.51999-1.178-4.02798 0-1.61499 0.627-2.86899 0.627-1.25399 1.72899-1.93799 1.121-0.70299 2.50799-0.70299 1.69099 0 2.62198 0.96899 0.95 0.969 1.026 2.79299 0 1.17799-0.114 1.67199h-6.76396q0 1.99499 0.89299 3.26798 0.912 1.254 2.54599 1.254 0.79799 0 1.63399-0.285 0.83599-0.285 1.29199-0.684l0.304 0.703q-0.551 0.56999-1.61499 0.96899-1.045 0.38-2.10899 0.38zm2.22299-6.49797q0.057-0.39899 0.057-0.83599-0.019-1.254-0.608-1.99499-0.57-0.741-1.76699-0.741-2.60299 0-2.83098 3.57198z"/><path d="m156.1742-264.35519-1.463-0.323v-0.85499l2.41299-0.304h0.057l0.361 0.304v0.83599l-0.019 0.475q0.703-0.608 1.86199-1.121 1.15899-0.51299 2.14699-0.51299 1.21599 0 1.86199 0.47499 0.665 0.456 0.91199 1.425 0.266 0.94999 0.266 2.56498v5.37698l1.425 0.13299v0.817h-4.23698v-0.817l1.27299-0.13299v-5.39598q0-1.19699-0.171-1.88099-0.152-0.68399-0.62699-1.02599-0.456-0.361-1.349-0.361-0.75999 0-1.65299 0.38-0.87399 0.38-1.51999 0.89299v7.37197l1.38699 0.15199v0.817h-4.19898v-0.817l1.273-0.15199z"/><path d="m170.67117-254.85524q-1.007 0-1.51999-0.456-0.513-0.475-0.513-1.67199v-7.50496h-1.44399v-0.741q0.94999-0.209 1.10199-0.30399 0.285-0.152 0.418-0.589 0.114-0.285 0.304-1.026 0.19-0.74099 0.285-1.15899h0.87399v2.69799h3.36298v1.12099h-3.36298v6.15597q0 1.10199 0.076 1.55799 0.076 0.437 0.304 0.57t0.79799 0.133q0.551 0 1.235-0.152 0.68399-0.152 1.02599-0.323l0.247 0.72199q-0.437 0.342-1.44399 0.665-1.007 0.304-1.74799 0.304z"/><path d="m179.71514-254.85524q-2.20399 0-3.40099-1.50099-1.17799-1.51999-1.17799-4.02798 0-1.61499 0.627-2.86899 0.62699-1.25399 1.72899-1.93799 1.12099-0.70299 2.50798-0.70299 1.691 0 2.62199 0.96899 0.95 0.969 1.02599 2.79299 0 1.17799-0.11399 1.67199h-6.76397q0 1.99499 0.893 3.26798 0.91199 1.254 2.54598 1.254 0.798 0 1.63399-0.285 0.836-0.285 1.292-0.684l0.304 0.703q-0.551 0.56999-1.615 0.96899-1.04499 0.38-2.10898 0.38zm2.22298-6.49797q0.057-0.39899 0.057-0.83599-0.019-1.254-0.60799-1.99499-0.57-0.741-1.76699-0.741-2.60299 0-2.83099 3.57198z"/><path d="m189.65213-260.27021q0-1.53899 0.589-2.81199 0.60799-1.29199 1.78599-2.05199 1.19699-0.75999 2.90698-0.75999 0.741 0 1.444 0.19 0.70299 0.171 1.21599 0.37999l-0.076 2.71699h-0.95l-0.39899-1.82399q-0.114-0.57-1.63399-0.57-1.482 0-2.37499 1.14-0.874 1.13999-0.874 3.11598 0 2.35599 0.95 3.57198 0.94999 1.216 2.46998 1.216 0.798 0 1.539-0.266 0.75999-0.266 1.25399-0.608l0.304 0.627q-0.551 0.55099-1.51999 0.94999-0.969 0.399-1.91899 0.399-1.501 0-2.56499-0.703-1.06399-0.72199-1.61499-1.93799-0.532-1.23499-0.532-2.77398z"/><path d="m199.53212-260.40321q0-1.65299 0.684-2.90699 0.70299-1.25399 1.82399-1.91899 1.13999-0.66499 2.37498-0.66499 2.39399 0 3.53399 1.55799 1.15899 1.55799 1.15899 3.98998 0 1.65299-0.703 2.90698-0.68399 1.254-1.82399 1.91899-1.12099 0.665-2.35598 0.665-2.39399 0-3.55299-1.55799-1.13999-1.55799-1.13999-3.98998zm4.78797 4.55997q1.463 0 2.26099-1.12099 0.798-1.12099 0.798-3.26798 0-2.05199-0.741-3.36298-0.74099-1.311-2.29899-1.311-1.46299 0-2.27998 1.121-0.798 1.12099-0.798 3.26798 0 2.07099 0.741 3.38198 0.75999 1.29199 2.31798 1.29199z"/><path d="m210.8181-255.88124 1.21599-0.15199v-8.32196l-1.46299-0.323v-0.85499l2.41299-0.304 0.41799 0.304v0.83599l-0.019 0.475q0.703-0.608 1.84299-1.121 1.14-0.51299 2.07099-0.51299 1.026 0 1.63399 0.342 0.627 0.34199 0.95 1.06399 0.589-0.494 1.70999-0.95 1.13999-0.45599 2.08999-0.45599 1.19699 0 1.84299 0.45599 0.665 0.456 0.931 1.406 0.26599 0.94999 0.26599 2.56498v5.39598l1.444 0.15199v0.817h-4.25598v-0.817l1.29199-0.15199v-5.33898q0-1.19699-0.171-1.89999-0.171-0.70299-0.66499-1.06399-0.494-0.361-1.444-0.361-0.70299 0-1.48199 0.323-0.75999 0.304-1.31099 0.703 0.19 0.87399 0.19 2.27998v5.35798l1.44399 0.15199v0.817h-4.35098v-0.817l1.368-0.15199v-5.37698q0-1.21599-0.152-1.89999-0.133-0.68399-0.589-1.02599t-1.34899-0.342q-0.741 0-1.615 0.38-0.85499 0.361-1.50099 0.87399v7.39097l1.349 0.15199v0.817h-4.10398z"/><path d="m235.76505-268.15517-1.59599-0.209v-0.817h9.40495l0.266 2.79299h-0.912l-0.513-1.82399-5.09197-0.095v5.52897l3.49598-0.057 0.247-1.57699h0.94999v4.19898h-0.94999l-0.247-1.61499-3.49598-0.057v5.85197l5.81397-0.152 0.96899-2.37499 0.912 0.285-0.589 3.21098h-10.29794v-0.817l1.63399-0.17099z"/><path d="m247.56401-264.35519-1.46299-0.323v-0.85499l2.41299-0.304h0.057l0.361 0.304v0.83599l-0.019 0.475q0.70299-0.608 1.86199-1.121 1.15899-0.51299 2.14699-0.51299 1.21599 0 1.86199 0.47499 0.66499 0.456 0.91199 1.425 0.266 0.94999 0.266 2.56498v5.37698l1.42499 0.13299v0.817h-4.23698v-0.817l1.273-0.13299v-5.39598q0-1.19699-0.171-1.88099-0.152-0.68399-0.627-1.02599-0.456-0.361-1.34899-0.361-0.76 0-1.65299 0.38-0.874 0.38-1.51999 0.89299v7.37197l1.38699 0.15199v0.817h-4.19898v-0.817l1.27299-0.15199z"/><path d="m263.27698-249.93427q-4.48398 0-4.48398-2.84998 0-0.855 0.513-1.55799 0.532-0.703 1.25399-1.102-0.89299-0.475-0.89299-1.57699 0-0.703 0.399-1.31099 0.39899-0.627 1.02599-0.95-0.893-0.418-1.40599-1.17799-0.494-0.779-0.494-1.80499 0-1.102 0.608-1.91899 0.60799-0.836 1.57699-1.273 0.98799-0.43699 2.05199-0.43699 1.76699 0 2.83098 0.77899 0.285-0.266 0.874-0.51299 0.608-0.266 1.29199-0.266h0.627v1.40599h-2.16599q0.551 0.76 0.551 1.84299 0 1.12099-0.57 1.99499-0.57 0.855-1.53899 1.32999-0.95 0.475-2.10899 0.475-0.779 0-1.42499-0.171-0.342 0.266-0.551 0.627-0.19 0.342-0.19 0.70299 0 0.722 0.456 1.007 0.475 0.285 1.63399 0.285h2.24199q1.76699 0 2.60298 0.68399 0.855 0.684 0.855 1.91899 0 1.026-0.741 1.89999-0.74099 0.893-2.03299 1.425-1.27299 0.53199-2.79298 0.53199zm0.133-9.84194q2.41299 0 2.41299-2.65999 0-2.52699-2.50799-2.52699t-2.50799 2.48899q0 1.19699 0.646 1.95699 0.64599 0.741 1.95699 0.741zm-0.038 8.87295q1.02599 0 1.95699-0.304 0.93099-0.285 1.50099-0.855 0.57-0.55099 0.57-1.29199 0-0.589-0.19-0.94999-0.171-0.361-0.703-0.57-0.513-0.19-1.50099-0.19h-2.35599q-0.91199 0-1.38699-0.114-0.931 0.893-0.931 2.08999 0 1.08299 0.684 1.63399t2.35599 0.551z"/><path d="m274.73396-254.85524q-2.20398 0-3.40098-1.50099-1.17799-1.51999-1.17799-4.02798 0-1.61499 0.627-2.86899 0.62699-1.25399 1.72899-1.93799 1.12099-0.70299 2.50798-0.70299 1.69099 0 2.62199 0.96899 0.94999 0.969 1.02599 2.79299 0 1.17799-0.114 1.67199h-6.76396q0 1.99499 0.893 3.26798 0.91199 1.254 2.54598 1.254 0.798 0 1.63399-0.285 0.836-0.285 1.292-0.684l0.304 0.703q-0.551 0.56999-1.615 0.96899-1.04499 0.38-2.10899 0.38zm2.22299-6.49797q0.057-0.39899 0.057-0.83599-0.019-1.254-0.60799-1.99499-0.57-0.741-1.76699-0.741-2.60299 0-2.83099 3.57198z"/><path d="m281.93496-269.42816-1.61499-0.171v-0.703l2.77398-0.323h0.019l0.361 0.247v14.36393l1.78599 0.13299v0.817h-4.99697v-0.817l1.67199-0.15199z"/><path d="m288.18594-256.56523q0.209 0.323 0.87399 0.57 0.665 0.24699 1.42499 0.24699 2.31799 0 2.31799-1.70999 0-0.77899-0.64599-1.25399-0.646-0.494-2.20399-1.08299-1.53899-0.551-2.24199-1.311-0.703-0.75999-0.703-2.03299 0-0.81699 0.494-1.42499 0.513-0.608 1.34899-0.931 0.855-0.34199 1.84299-0.34199 0.969 0 1.615 0.171 0.66499 0.17099 1.31099 0.41799v2.26099h-0.931l-0.342-1.38699q-0.13299-0.247-0.68399-0.418-0.532-0.171-1.178-0.171-0.91199 0-1.48199 0.418-0.56999 0.399-0.56999 1.08299 0 0.608 0.28499 1.007 0.285 0.399 0.703 0.646 0.418 0.22799 1.15899 0.53199l0.361 0.152q1.083 0.418 1.74799 0.798 0.665 0.361 1.102 0.96899 0.437 0.589 0.437 1.482 0 1.40599-1.083 2.22298-1.06399 0.798-2.84998 0.798-0.817 0-1.86199-0.266-1.045-0.266-1.558-0.532v-2.39398h1.026z"/><path d="m310.68186-260.72621q0 1.63399-0.66499 2.98298-0.665 1.33-1.89999 2.10899-1.216 0.779-2.79299 0.779-0.532 0-1.12099-0.095-0.589-0.076-0.969-0.209l0.038 1.61499v2.05199l2.10899 0.19v0.836h-5.09197v-0.836l1.46299-0.19v-12.86293l-1.48199-0.323v-0.85499l2.43198-0.304h0.038l0.342 0.304v1.15899q0.608-0.627 1.482-1.064 0.87399-0.45599 1.95699-0.45599 1.10199 0 2.05198 0.55099 0.95 0.551 1.52 1.71 0.58899 1.15899 0.58899 2.90698zm-4.78797-4.00898q-0.817 0-1.51999 0.342-0.703 0.342-1.102 0.76v7.23896q0.152 0.247 0.76 0.456 0.62699 0.18999 1.36799 0.18999 1.63399 0 2.62199-1.19699 1.00699-1.21599 1.00699-3.57198 0-2.10899-0.89299-3.15398-0.874-1.064-2.24199-1.064z"/><path d="m321.11286-254.89324q-0.494 0-0.722-0.171t-0.228-0.627v-0.74099q-0.70299 0.62699-1.65299 1.10199-0.94999 0.475-1.89999 0.475-1.72899 0-2.46999-0.969-0.72199-0.96899-0.72199-3.15398v-5.58597l-1.121-0.323v-0.70299l2.29899-0.247h0.019l0.342 0.228v6.40296q0 1.197 0.171 1.88099 0.171 0.665 0.627 0.988 0.45599 0.323 1.32999 0.323 0.83599 0 1.59599-0.361t1.31099-0.855v-7.33396l-1.44399-0.323v-0.70299l2.52699-0.247h0.019l0.437 0.228v9.70894h1.17799l-0.019 0.722q-0.095 0.019-0.551 0.152-0.45599 0.133-1.02599 0.133z"/><path d="m323.43088-270.30216 2.77399-0.323h0.038l0.361 0.266v5.77597q0.589-0.551 1.40599-0.93099 0.836-0.38 1.84299-0.38 1.121 0 2.05199 0.55099 0.95 0.551 1.51999 1.71 0.589 1.15899 0.589 2.90698 0 1.63399-0.665 2.98298-0.66499 1.33-1.89999 2.10899-1.23499 0.779-2.84998 0.779-1.178 0-2.24199-0.247t-1.29199-0.475v-13.85092l-1.634-0.171zm5.79497 5.56697q-0.79799 0-1.50099 0.38-0.70299 0.38-1.12099 0.83599v7.02997q0.133 0.304 0.74099 0.494 0.627 0.17099 1.387 0.17099 1.63399 0 2.62198-1.19699 0.988-1.21599 0.988-3.55298 0-2.08999-0.893-3.11598-0.87399-1.045-2.22299-1.045z"/><path d="m337.30084-269.42816-1.615-0.171v-0.703l2.77399-0.323h0.019l0.361 0.247v14.36393l1.78599 0.13299v0.817h-4.99698v-0.817l1.672-0.15199z"/><path d="m344.21681-267.60417q-1.026 0-1.026-1.083 0-0.551 0.323-0.89299 0.323-0.361 0.874-0.361 0.56999 0 0.81699 0.323 0.247 0.30399 0.247 0.75999 0 0.589-0.323 0.931-0.30399 0.323-0.89299 0.323zm-0.608 3.24898-1.48199-0.323v-0.85499l2.60299-0.304h0.038l0.37999 0.304v9.51895l1.65299 0.13299v0.817h-4.86397v-0.817l1.67199-0.15199z"/><path d="m347.94083-260.27021q0-1.53899 0.58899-2.81199 0.608-1.29199 1.78599-2.05199 1.197-0.75999 2.90699-0.75999 0.741 0 1.44399 0.19 0.703 0.171 1.216 0.37999l-0.076 2.71699h-0.95l-0.399-1.82399q-0.114-0.57-1.63399-0.57-1.48199 0-2.37499 1.14-0.87399 1.13999-0.87399 3.11598 0 2.35599 0.94999 3.57198 0.95 1.216 2.46999 1.216 0.798 0 1.53899-0.266 0.76-0.266 1.254-0.608l0.30399 0.627q-0.55099 0.55099-1.51999 0.94999-0.96899 0.399-1.91899 0.399-1.50099 0-2.56498-0.703-1.064-0.72199-1.615-1.93799-0.53199-1.23499-0.53199-2.77398z"/><path d="m357.82079-260.40321q0-1.65299 0.68399-2.90699 0.703-1.25399 1.82399-1.91899 1.14-0.66499 2.37499-0.66499 2.39399 0 3.53398 1.55799 1.159 1.55799 1.159 3.98998 0 1.65299-0.703 2.90698-0.684 1.254-1.82399 1.91899-1.121 0.665-2.35599 0.665-2.39399 0-3.55298-1.55799-1.13999-1.55799-1.13999-3.98998zm4.78797 4.55997q1.46299 0 2.26099-1.12099 0.79799-1.12099 0.79799-3.26798 0-2.05199-0.74099-3.36298-0.741-1.311-2.29899-1.311-1.46299 0-2.27999 1.121-0.79799 1.12099-0.79799 3.26798 0 2.07099 0.74099 3.38198 0.76 1.29199 2.31799 1.29199z"/><path d="m377.82773-254.89324q-0.49399 0-0.72199-0.171t-0.228-0.627v-0.74099q-0.703 0.62699-1.65299 1.10199-0.95 0.475-1.89999 0.475-1.72899 0-2.46999-0.969-0.722-0.96899-0.722-3.15398v-5.58597l-1.12099-0.323v-0.70299l2.29899-0.247h0.019l0.34199 0.228v6.40296q0 1.197 0.171 1.88099 0.171 0.665 0.627 0.988t1.32999 0.323q0.836 0 1.596-0.361 0.75999-0.361 1.31099-0.855v-7.33396l-1.44399-0.323v-0.70299l2.52698-0.247h0.019l0.437 0.228v9.70894h1.17799l-0.019 0.722q-0.095 0.019-0.55099 0.152-0.456 0.133-1.026 0.133z"/><path d="m385.67474-257.83823q0-1.84299 1.82399-2.65998 1.824-0.836 4.54098-0.893v-0.58899q0-0.969-0.209-1.52-0.19-0.56999-0.68399-0.81699-0.494-0.266-1.387-0.266-0.96899 0-1.76699 0.304-0.77899 0.285-1.51999 0.70299l-0.418-0.83599q0.209-0.19 0.874-0.532 0.66499-0.342 1.51999-0.60799 0.855-0.266 1.65299-0.266 1.29199 0 2.03299 0.36099 0.76 0.361 1.083 1.159 0.34199 0.79799 0.34199 2.14699v6.26996h1.178v0.703q-1.045 0.285-1.76699 0.285-0.456 0-0.627-0.152-0.171-0.133-0.171-0.646v-0.70299q-0.684 0.60799-1.50099 1.08299-0.798 0.456-1.82399 0.456-1.36799 0-2.27999-0.76-0.893-0.75999-0.893-2.22299zm3.74298 1.862q0.532 0 1.273-0.342 0.74099-0.342 1.34899-0.817v-3.36298q-2.29899 0.019-3.49598 0.684-1.17799 0.66499-1.17799 1.78599 0 1.08299 0.55099 1.57699 0.551 0.475 1.50099 0.475z"/><path d="m400.64671-260.40321q0-1.65299 0.684-2.90699 0.703-1.25399 1.82399-1.91899 1.13999-0.66499 2.37499-0.66499 2.39399 0 3.53398 1.55799 1.15899 1.55799 1.15899 3.98998 0 1.65299-0.70299 2.90698-0.684 1.254-1.82399 1.91899-1.121 0.665-2.35599 0.665-2.39399 0-3.55298-1.55799-1.14-1.55799-1.14-3.98998zm4.78798 4.55997q1.46299 0 2.26099-1.12099 0.79799-1.12099 0.79799-3.26798 0-2.05199-0.74099-3.36298-0.741-1.311-2.29899-1.311-1.46299 0-2.27999 1.121-0.798 1.12099-0.798 3.26798 0 2.07099 0.741 3.38198 0.76 1.29199 2.31799 1.29199z"/><path d="m411.03971-270.30216 2.77399-0.323h0.038l0.36099 0.266v5.77597q0.589-0.551 1.406-0.93099 0.83599-0.38 1.84299-0.38 1.12099 0 2.05199 0.55099 0.94999 0.551 1.51999 1.71 0.589 1.15899 0.589 2.90698 0 1.63399-0.665 2.98298-0.665 1.33-1.89999 2.10899-1.23499 0.779-2.84999 0.779-1.17799 0-2.24198-0.247-1.064-0.247-1.292-0.475v-13.85092l-1.63399-0.171zm5.79497 5.56697q-0.798 0-1.50099 0.38-0.703 0.38-1.121 0.83599v7.02997q0.133 0.304 0.741 0.494 0.627 0.17099 1.38699 0.17099 1.63399 0 2.62199-1.19699 0.98799-1.21599 0.98799-3.55298 0-2.08999-0.89299-3.11598-0.874-1.045-2.22299-1.045z"/><path d="m423.42767-255.86224 1.51999-0.11399v-8.37896l-1.46299-0.323v-0.85499l2.41299-0.304h0.038l0.36099 0.304v0.30399l-0.038 1.444h0.038q0.038-0.038 0.494-0.57 0.475-0.551 1.38699-1.045 0.931-0.49399 1.86199-0.49399 0.304 0 0.57 0.076v1.67199q-0.076-0.057-0.342-0.114-0.247-0.057-0.53199-0.057-1.083 0-1.84299 0.323-0.76 0.323-1.406 0.79799v7.20097l2.52699 0.15199v0.779h-5.58597z"/><path d="m432.01566-257.83823q0-1.84299 1.82399-2.65998 1.82399-0.836 4.54097-0.893v-0.58899q0-0.969-0.209-1.52-0.18999-0.56999-0.68399-0.81699-0.494-0.266-1.387-0.266-0.96899 0-1.76699 0.304-0.77899 0.285-1.51999 0.70299l-0.418-0.83599q0.209-0.19 0.874-0.532t1.51999-0.60799q0.855-0.266 1.65299-0.266 1.292 0 2.03299 0.36099 0.76 0.361 1.083 1.159 0.342 0.79799 0.342 2.14699v6.26996h1.17799v0.703q-1.045 0.285-1.76699 0.285-0.456 0-0.627-0.152-0.171-0.133-0.171-0.646v-0.70299q-0.68399 0.60799-1.50099 1.08299-0.798 0.456-1.82399 0.456-1.36799 0-2.27999-0.76-0.89299-0.75999-0.89299-2.22299zm3.74298 1.862q0.53199 0 1.27299-0.342t1.34899-0.817v-3.36298q-2.29898 0.019-3.49598 0.684-1.17799 0.66499-1.17799 1.78599 0 1.08299 0.55099 1.57699 0.551 0.475 1.501 0.475z"/><path d="m450.08461-263.5002q-0.437 0-0.855-0.43699-0.39899-0.456-0.64599-1.178-0.247-0.72199-0.247-1.51999 0-1.08299 0.361-2.01399 0.37999-0.94999 0.89299-1.57699 0.513-0.646 0.931-0.855h0.019l0.43699 0.456v0.171q-0.45599 0.323-0.89299 1.15899-0.437 0.817-0.437 1.99499 0 0.665 0.19 1.083 0.209 0.399 0.589 0.83599 0.247 0.285 0.361 0.494 0.13299 0.209 0.13299 0.475 0 0.437-0.22799 0.684-0.228 0.22799-0.608 0.22799zm4.80697 0q-0.43699 0-0.85499-0.43699-0.399-0.456-0.646-1.178-0.247-0.72199-0.247-1.51999 0-1.08299 0.361-2.01399 0.38-0.94999 0.893-1.57699 0.51299-0.646 0.93099-0.855h0.019l0.437 0.456v0.171q-0.456 0.323-0.893 1.15899-0.43699 0.817-0.43699 1.99499 0 0.665 0.18999 1.083 0.209 0.399 0.589 0.83599 0.247 0.285 0.361 0.494 0.133 0.209 0.133 0.475 0 0.437-0.228 0.684-0.228 0.22799-0.608 0.22799z"/><path d="m461.2946-268.15517-2.10899-0.209v-0.817h4.48397l2.94499 8.77796 0.70299 2.54599 0.627-2.54599 2.92599-8.77796h4.44597v0.817l-2.08999 0.209 1.501 12.08394 1.72899 0.18999v0.817h-5.11098v-0.817l1.76699-0.17099-0.87399-8.66396-0.418-3.79998-0.83599 2.62199-3.43899 10.14594h-0.75999l-3.22999-9.08195-1.23499-3.68598-0.38 3.79998-0.77899 8.66396 1.86199 0.17099v0.817h-4.74998v-0.817l1.61499-0.17099z"/><path d="m477.57755-257.83823q0-1.84299 1.82399-2.65998 1.82399-0.836 4.54097-0.893v-0.58899q0-0.969-0.209-1.52-0.19-0.56999-0.68399-0.81699-0.494-0.266-1.387-0.266-0.96899 0-1.76699 0.304-0.77899 0.285-1.51999 0.70299l-0.418-0.83599q0.209-0.19 0.874-0.532t1.51999-0.60799q0.855-0.266 1.65299-0.266 1.292 0 2.03299 0.36099 0.76 0.361 1.083 1.159 0.34199 0.79799 0.34199 2.14699v6.26996h1.178v0.703q-1.045 0.285-1.76699 0.285-0.456 0-0.627-0.152-0.171-0.133-0.171-0.646v-0.70299q-0.68399 0.60799-1.50099 1.08299-0.798 0.456-1.82399 0.456-1.36799 0-2.27999-0.76-0.89299-0.75999-0.89299-2.22299zm3.74298 1.862q0.53199 0 1.27299-0.342t1.34899-0.817v-3.36298q-2.29899 0.019-3.49598 0.684-1.17799 0.66499-1.17799 1.78599 0 1.08299 0.55099 1.57699 0.551 0.475 1.501 0.475z"/><path d="m489.24355-264.35519-1.46299-0.323v-0.85499l2.41298-0.304h0.057l0.361 0.304v0.83599l-0.019 0.475q0.703-0.608 1.86199-1.121 1.159-0.51299 2.14699-0.51299 1.21599 0 1.86199 0.47499 0.665 0.456 0.912 1.425 0.26599 0.94999 0.26599 2.56498v5.37698l1.425 0.13299v0.817h-4.23698v-0.817l1.27299-0.13299v-5.39598q0-1.19699-0.171-1.88099-0.152-0.68399-0.62699-1.02599-0.456-0.361-1.349-0.361-0.75999 0-1.65299 0.38-0.87399 0.38-1.51999 0.89299v7.37197l1.38699 0.15199v0.817h-4.19898v-0.817l1.273-0.15199z"/><path d="m502.67653-267.60417q-1.026 0-1.026-1.083 0-0.551 0.323-0.89299 0.323-0.361 0.87399-0.361 0.57 0 0.817 0.323 0.247 0.30399 0.247 0.75999 0 0.589-0.323 0.931-0.304 0.323-0.89299 0.323zm-0.608 3.24898-1.48199-0.323v-0.85499l2.60298-0.304h0.038l0.38 0.304v9.51895l1.65299 0.13299v0.817h-4.86397v-0.817l1.67199-0.15199z"/><path d="m508.26247-264.46919h-1.91899v-0.76l1.91899-0.36099v-0.931q0-1.13999 0.589-2.08999 0.589-0.96899 1.51999-1.53899 0.95-0.57 1.97599-0.57 0.608 0 1.064 0.152v1.55799q-0.152-0.114-0.627-0.228-0.456-0.11399-1.064-0.11399-1.00699 0-1.46299 0.53199-0.456 0.532-0.456 1.80499v1.425h2.75499v1.12099h-2.75499v8.45496l2.16599 0.13299v0.817h-5.37697v-0.817l1.67199-0.15199z"/><path d="m518.73149-254.85524q-2.20399 0-3.40098-1.50099-1.17799-1.51999-1.17799-4.02798 0-1.61499 0.62699-2.86899 0.627-1.25399 1.72899-1.93799 1.121-0.70299 2.50799-0.70299 1.69099 0 2.62199 0.96899 0.94999 0.969 1.02599 2.79299 0 1.17799-0.114 1.67199h-6.76396q0 1.99499 0.89299 3.26798 0.912 1.254 2.54599 1.254 0.798 0 1.63399-0.285 0.836-0.285 1.292-0.684l0.30399 0.703q-0.55099 0.56999-1.61499 0.96899-1.04499 0.38-2.10899 0.38zm2.22299-6.49797q0.057-0.39899 0.057-0.83599-0.019-1.254-0.608-1.99499-0.56999-0.741-1.76699-0.741-2.60298 0-2.83098 3.57198z"/><path d="m525.93246-256.56523q0.209 0.323 0.87399 0.57 0.665 0.24699 1.425 0.24699 2.31798 0 2.31798-1.70999 0-0.77899-0.64599-1.25399-0.646-0.494-2.20399-1.08299-1.53899-0.551-2.24199-1.311-0.703-0.75999-0.703-2.03299 0-0.81699 0.494-1.42499 0.513-0.608 1.34899-0.931 0.855-0.34199 1.84299-0.34199 0.969 0 1.615 0.171 0.66499 0.17099 1.31099 0.41799v2.26099h-0.931l-0.34199-1.38699q-0.133-0.247-0.684-0.418-0.532-0.171-1.17799-0.171-0.912 0-1.482 0.418-0.56999 0.399-0.56999 1.08299 0 0.608 0.28499 1.007 0.285 0.399 0.703 0.646 0.418 0.22799 1.159 0.53199l0.36099 0.152q1.083 0.418 1.74799 0.798 0.665 0.361 1.102 0.96899 0.437 0.589 0.437 1.482 0 1.40599-1.083 2.22298-1.06399 0.798-2.84998 0.798-0.817 0-1.86199-0.266-1.045-0.266-1.558-0.532v-2.39398h1.026z"/><path d="m537.0854-254.85524q-1.007 0-1.51999-0.456-0.513-0.475-0.513-1.67199v-7.50496h-1.44399v-0.741q0.94999-0.209 1.10199-0.30399 0.285-0.152 0.418-0.589 0.114-0.285 0.304-1.026 0.19-0.74099 0.285-1.15899h0.87399v2.69799h3.36298v1.12099h-3.36298v6.15597q0 1.10199 0.076 1.55799 0.076 0.437 0.304 0.57t0.798 0.133q0.55099 0 1.23499-0.152t1.02599-0.323l0.247 0.72199q-0.437 0.342-1.44399 0.665-1.007 0.304-1.74799 0.304z"/><path d="m541.51241-260.40321q0-1.65299 0.68399-2.90699 0.703-1.25399 1.82399-1.91899 1.14-0.66499 2.37499-0.66499 2.39399 0 3.53398 1.55799 1.159 1.55799 1.159 3.98998 0 1.65299-0.703 2.90698-0.684 1.254-1.82399 1.91899-1.121 0.665-2.35599 0.665-2.39399 0-3.55298-1.55799-1.13999-1.55799-1.13999-3.98998zm4.78797 4.55997q1.46299 0 2.26099-1.12099 0.79799-1.12099 0.79799-3.26798 0-2.05199-0.74099-3.36298-0.741-1.311-2.29899-1.311-1.46299 0-2.27999 1.121-0.79799 1.12099-0.79799 3.26798 0 2.07099 0.74099 3.38198 0.76 1.29199 2.31799 1.29199z"/><path d="m561.50037-254.85524q-1.121 0-2.07099-0.57-0.95-0.58899-1.51999-1.76699-0.57-1.17799-0.57-2.88798 0-1.63399 0.665-2.94499 0.66499-1.32999 1.88099-2.08999 1.23499-0.77899 2.86898-0.77899 1.04499 0 2.01399 0.228v-3.76198l-1.97599-0.19v-0.684l3.11598-0.323h0.038l0.361 0.266v14.43992h1.159v0.741q-0.095 0.019-0.646 0.152t-1.17799 0.133q-0.437 0-0.627-0.152-0.171-0.152-0.171-0.665v-0.66499q-0.589 0.64599-1.44399 1.08299-0.836 0.437-1.89999 0.437zm0.62699-1.19699q0.817 0 1.539-0.38 0.74099-0.399 1.10199-0.874v-6.99196q-0.152-0.266-0.798-0.456-0.62699-0.19-1.34899-0.19-1.63399 0-2.62199 1.178-0.98799 1.15899-0.98799 3.53398 0 2.12799 0.874 3.15398 0.87399 1.026 2.24198 1.026z"/><path d="m569.06239-260.40321q0-1.65299 0.684-2.90699 0.703-1.25399 1.82399-1.91899 1.13999-0.66499 2.37499-0.66499 2.39399 0 3.53398 1.55799 1.15899 1.55799 1.15899 3.98998 0 1.65299-0.70299 2.90698-0.684 1.254-1.82399 1.91899-1.121 0.665-2.35599 0.665-2.39399 0-3.55298-1.55799-1.14-1.55799-1.14-3.98998zm4.78798 4.55997q1.46299 0 2.26099-1.12099 0.79799-1.12099 0.79799-3.26798 0-2.05199-0.74099-3.36298-0.741-1.311-2.29899-1.311-1.46299 0-2.27999 1.121-0.798 1.12099-0.798 3.26798 0 2.07099 0.741 3.38198 0.76 1.29199 2.31799 1.29199z"/><path d="m586.65637-268.15517-1.51999-0.209v-0.817h2.29898q0.418 0 0.817-0.019 0.418-0.038 0.608-0.038 0.98799-0.076 1.89999-0.076 2.67898 0 3.78098 1.007 1.12099 0.98799 1.12099 2.98298 0 1.501-0.722 2.60299-0.72199 1.10199-1.95699 1.69099-1.23499 0.57-2.75498 0.57-0.608 0-1.254-0.019-0.62699-0.038-0.75999-0.057v4.46498l2.64099 0.18999v0.817h-5.83297v-0.817l1.63399-0.17099zm1.55799 6.68796q0.475 0.076 2.05199 0.076 1.63399 0 2.67898-0.91199 1.045-0.931 1.045-3.02099 0-1.65299-0.893-2.35598-0.89299-0.722-2.81198-0.722-0.589 0-1.311 0.076-0.56999 0.038-0.75999 0.038z"/><path d="m597.16333-257.83823q0-1.84299 1.82399-2.65998 1.82399-0.836 4.54098-0.893v-0.58899q0-0.969-0.209-1.52-0.19-0.56999-0.684-0.81699-0.494-0.266-1.38699-0.266-0.969 0-1.76699 0.304-0.779 0.285-1.51999 0.70299l-0.418-0.83599q0.209-0.19 0.87399-0.532 0.665-0.342 1.52-0.60799 0.85499-0.266 1.65299-0.266 1.29199 0 2.03299 0.36099 0.75999 0.361 1.08299 1.159 0.342 0.79799 0.342 2.14699v6.26996h1.17799v0.703q-1.04499 0.285-1.76699 0.285-0.45599 0-0.62699-0.152-0.171-0.133-0.171-0.646v-0.70299q-0.684 0.60799-1.501 1.08299-0.79799 0.456-1.82399 0.456-1.36799 0-2.27998-0.76-0.893-0.75999-0.893-2.22299zm3.74298 1.862q0.532 0 1.27299-0.342 0.741-0.342 1.349-0.817v-3.36298q-2.29899 0.019-3.49598 0.684-1.178 0.66499-1.178 1.78599 0 1.08299 0.551 1.57699 0.551 0.475 1.50099 0.475z"/><path d="m607.70834-255.86224 1.51999-0.11399v-8.37896l-1.46299-0.323v-0.85499l2.41299-0.304h0.038l0.36099 0.304v0.30399l-0.038 1.444h0.038q0.038-0.038 0.494-0.57 0.475-0.551 1.38699-1.045 0.931-0.49399 1.86199-0.49399 0.304 0 0.57 0.076v1.67199q-0.076-0.057-0.342-0.114-0.247-0.057-0.53199-0.057-1.083 0-1.84299 0.323-0.76 0.323-1.406 0.79799v7.20097l2.52699 0.15199v0.779h-5.58597z"/><path d="m619.46925-254.85524q-1.007 0-1.51999-0.456-0.513-0.475-0.513-1.67199v-7.50496h-1.44399v-0.741q0.94999-0.209 1.10199-0.30399 0.285-0.152 0.418-0.589 0.114-0.285 0.304-1.026 0.19-0.74099 0.285-1.15899h0.87399v2.69799h3.36298v1.12099h-3.36298v6.15597q0 1.10199 0.076 1.55799 0.076 0.437 0.304 0.57t0.798 0.133q0.55099 0 1.23499-0.152t1.02599-0.323l0.247 0.72199q-0.437 0.342-1.44399 0.665-1.00699 0.304-1.74799 0.304z"/><path d="m626.11924-267.60417q-1.02599 0-1.02599-1.083 0-0.551 0.323-0.89299 0.323-0.361 0.87399-0.361 0.57 0 0.817 0.323 0.247 0.30399 0.247 0.75999 0 0.589-0.323 0.931-0.304 0.323-0.893 0.323zm-0.60799 3.24898-1.482-0.323v-0.85499l2.60299-0.304h0.038l0.38 0.304v9.51895l1.65299 0.13299v0.817h-4.86397v-0.817l1.67199-0.15199z"/><path d="m634.23224-254.85524q-1.12099 0-2.07099-0.57-0.94999-0.58899-1.51999-1.76699-0.57-1.17799-0.57-2.88798 0-1.63399 0.665-2.94499 0.66499-1.32999 1.88099-2.08999 1.23499-0.77899 2.86898-0.77899 1.045 0 2.01399 0.228v-3.76198l-1.97599-0.19v-0.684l3.11599-0.323h0.038l0.36099 0.266v14.43992h1.159v0.741q-0.095 0.019-0.646 0.152t-1.17799 0.133q-0.437 0-0.627-0.152-0.171-0.152-0.171-0.665v-0.66499q-0.589 0.64599-1.44399 1.08299-0.836 0.437-1.89999 0.437zm0.627-1.19699q0.81699 0 1.53899-0.38 0.74099-0.399 1.10199-0.874v-6.99196q-0.152-0.266-0.79799-0.456-0.627-0.19-1.349-0.19-1.63399 0-2.62198 1.178-0.988 1.15899-0.988 3.53398 0 2.12799 0.874 3.15398 0.87399 1.026 2.24199 1.026z"/><path d="m641.79427-260.40321q0-1.65299 0.68399-2.90699 0.703-1.25399 1.82399-1.91899 1.14-0.66499 2.37499-0.66499 2.39399 0 3.53398 1.55799 1.159 1.55799 1.159 3.98998 0 1.65299-0.703 2.90698-0.684 1.254-1.82399 1.91899-1.121 0.665-2.35599 0.665-2.39399 0-3.55298-1.55799-1.13999-1.55799-1.13999-3.98998zm4.78797 4.55997q1.46299 0 2.26099-1.12099 0.79799-1.12099 0.79799-3.26798 0-2.05199-0.74099-3.36298-0.741-1.311-2.29899-1.311-1.46299 0-2.27999 1.121-0.79799 1.12099-0.79799 3.26798 0 2.07099 0.74099 3.38198 0.76 1.29199 2.31799 1.29199z"/><path d="m654.56219-263.78519v-0.171q0.247-0.171 0.551-0.684 0.32299-0.532 0.55099-1.27299 0.228-0.76 0.228-1.57699 0-0.494-0.19-0.817-0.19-0.342-0.53199-0.703-0.266-0.266-0.418-0.47499-0.133-0.228-0.133-0.513 0-0.437 0.228-0.665 0.228-0.247 0.60799-0.247 0.437 0 0.836 0.456 0.418 0.437 0.665 1.15899 0.247 0.722 0.247 1.52 0 1.08299-0.38 2.03299-0.361 0.93099-0.874 1.57699-0.513 0.62699-0.93099 0.83599h-0.019zm4.80697 0v-0.171q0.247-0.171 0.551-0.684 0.323-0.532 0.551-1.27299 0.228-0.76 0.228-1.57699 0-0.494-0.19-0.817-0.19-0.342-0.532-0.703-0.266-0.266-0.418-0.47499-0.133-0.228-0.133-0.513 0-0.437 0.228-0.665 0.228-0.247 0.608-0.247 0.437 0 0.836 0.456 0.41799 0.437 0.66499 1.15899 0.247 0.722 0.247 1.52 0 1.08299-0.38 2.03299-0.361 0.93099-0.87399 1.57699-0.513 0.62699-0.931 0.83599h-0.019z"/><path d="m667.4442-262.7592q-0.437 0-0.741-0.285-0.304-0.304-0.304-0.77899 0-0.532 0.361-0.893 0.38-0.361 0.874-0.361 0.51299 0 0.75999 0.304 0.266 0.304 0.266 0.76 0 0.53199-0.361 0.89299-0.36099 0.361-0.85499 0.361zm0.057 5.05397q0.608 0 0.96899 0.57 0.361 0.57 0.361 1.61499 0 1.045-0.304 1.97599-0.304 0.931-0.77899 1.59599-0.475 0.665-0.95 0.95h-0.019l-0.551-0.38v-0.171q0.228-0.171 0.494-0.70299 0.285-0.513 0.475-1.197 0.209-0.68399 0.209-1.32999 0-0.285-0.114-0.456-0.095-0.171-0.304-0.399-0.247-0.247-0.38-0.47499-0.114-0.228-0.114-0.627 0-0.437 0.266-0.703 0.285-0.266 0.665-0.266z"/></g><g transform="scale(1,-1)" aria-label="Nova forma de organização político econômica da sociedade;"><path d="m77.989352-233.95524-1.519993-0.20899v-0.817h3.058984l6.725965 9.74695 1.082995 1.89999v-10.62095l-1.671992-0.20899v-0.817h4.331978v0.817l-1.557992 0.20899v13.09094h-0.987995l-6.801964-9.78495-1.557992-2.52699v11.32394l1.728991 0.171v0.817h-4.350978v-0.817l1.519993-0.19z"/><path d="m91.403328-226.20328q0-1.65299 0.683996-2.90698 0.702997-1.25399 1.823991-1.91899 1.139994-0.665 2.374987-0.665 2.393988 0 3.533982 1.55799 1.158996 1.558 1.158996 3.98998 0 1.653-0.703 2.90699-0.683995 1.25399-1.823989 1.91899-1.120994 0.665-2.355988 0.665-2.393987 0-3.552981-1.558-1.139994-1.55799-1.139994-3.98998zm4.787975 4.55998q1.462992 0 2.260988-1.12099 0.797996-1.121 0.797996-3.26799 0-2.05199-0.740996-3.36298t-2.298988-1.31099q-1.462993 0-2.279988 1.12099-0.797996 1.121-0.797996 3.26798 0 2.07099 0.740996 3.38199 0.759996 1.29199 2.317988 1.29199z"/><path d="m101.89131-231.40925h4.02798v0.779l-1.40599 0.247 2.03299 5.64297 0.93099 2.69798 0.798-2.60298 2.03299-5.73797-1.33-0.247v-0.779h3.62898v0.779l-0.96899 0.247-3.74298 9.67095h-1.273l-3.83798-9.67095-0.89299-0.247z"/><path d="m113.57629-223.63829q0-1.84299 1.82399-2.65999 1.82399-0.83599 4.54097-0.89299v-0.589q0-0.96899-0.209-1.51999-0.18999-0.57-0.68399-0.817-0.494-0.26599-1.38699-0.26599-0.969 0-1.76699 0.30399-0.779 0.285-1.52 0.703l-0.41799-0.83599q0.20899-0.19 0.87399-0.532t1.51999-0.608q0.855-0.266 1.65299-0.266 1.292 0 2.03299 0.361 0.76 0.361 1.083 1.15899 0.342 0.798 0.342 2.14699v6.26997h1.17799v0.703q-1.04499 0.285-1.76699 0.285-0.456 0-0.627-0.152-0.171-0.133-0.171-0.646v-0.703q-0.68399 0.608-1.50099 1.083-0.79799 0.456-1.82399 0.456-1.36799 0-2.27999-0.76-0.89299-0.76-0.89299-2.22299zm3.74298 1.86199q0.53199 0 1.27299-0.342t1.34899-0.81699v-3.36299q-2.29898 0.019-3.49598 0.684-1.17799 0.665-1.17799 1.78599 0 1.083 0.551 1.57699 0.55099 0.475 1.50099 0.475z"/><path d="m130.20125-230.26925h-1.91899v-0.76l1.91899-0.361v-0.93099q0-1.14 0.58899-2.08999 0.589-0.969 1.52-1.53899 0.94999-0.57 1.97599-0.57 0.60799 0 1.06399 0.152v1.55799q-0.152-0.114-0.627-0.228-0.45599-0.114-1.06399-0.114-1.007 0-1.46299 0.532-0.456 0.532-0.456 1.80499v1.42499h2.75498v1.121h-2.75498v8.45495l2.16599 0.133v0.817h-5.37697v-0.817l1.67199-0.152z"/><path d="m136.05324-226.20328q0-1.65299 0.68399-2.90698 0.703-1.25399 1.82399-1.91899 1.14-0.665 2.37499-0.665 2.39399 0 3.53398 1.55799 1.159 1.558 1.159 3.98998 0 1.653-0.703 2.90699-0.684 1.25399-1.82399 1.91899-1.12099 0.665-2.35599 0.665-2.39398 0-3.55298-1.558-1.13999-1.55799-1.13999-3.98998zm4.78797 4.55998q1.463 0 2.26099-1.12099 0.798-1.121 0.798-3.26799 0-2.05199-0.741-3.36298t-2.29899-1.31099q-1.46299 0-2.27999 1.12099-0.79799 1.121-0.79799 3.26798 0 2.07099 0.74099 3.38199 0.76 1.29199 2.31799 1.29199z"/><path d="m147.43421-221.6623 1.52-0.114v-8.37896l-1.463-0.32299v-0.855l2.41299-0.304h0.038l0.361 0.304v0.304l-0.038 1.44399h0.038q0.038-0.038 0.494-0.57 0.47499-0.55099 1.38699-1.04499 0.931-0.494 1.86199-0.494 0.304 0 0.57 0.076v1.67199q-0.076-0.057-0.342-0.114-0.247-0.057-0.532-0.057-1.08299 0-1.84299 0.323-0.75999 0.323-1.40599 0.798v7.20096l2.52699 0.152v0.779h-5.58598z"/><path d="m155.88919-221.6813 1.21599-0.152v-8.32196l-1.46299-0.32299v-0.855l2.41299-0.304 0.41799 0.304v0.836l-0.019 0.47499q0.703-0.60799 1.84299-1.12099 1.14-0.513 2.07099-0.513 1.026 0 1.634 0.342 0.62699 0.342 0.94999 1.064 0.589-0.494 1.70999-0.95 1.14-0.456 2.08999-0.456 1.19699 0 1.84299 0.456 0.665 0.456 0.931 1.40599 0.26599 0.95 0.26599 2.56499v5.39597l1.444 0.152v0.817h-4.25598v-0.817l1.29199-0.152v-5.33897q0-1.19699-0.171-1.89999t-0.66499-1.064q-0.494-0.36099-1.444-0.36099-0.70299 0-1.48199 0.323-0.75999 0.30399-1.31099 0.70299 0.19 0.874 0.19 2.27999v5.35797l1.44399 0.152v0.817h-4.35098v-0.817l1.368-0.152v-5.37697q0-1.21599-0.152-1.89999-0.133-0.684-0.589-1.026-0.456-0.34199-1.34899-0.34199-0.741 0-1.61499 0.37999-0.855 0.361-1.501 0.874v7.39096l1.349 0.152v0.817h-4.10398z"/><path d="m174.71816-223.63829q0-1.84299 1.82399-2.65999 1.82399-0.83599 4.54097-0.89299v-0.589q0-0.96899-0.209-1.51999-0.19-0.57-0.68399-0.817-0.494-0.26599-1.387-0.26599-0.96899 0-1.76699 0.30399-0.77899 0.285-1.51999 0.703l-0.418-0.83599q0.209-0.19 0.874-0.532t1.51999-0.608q0.855-0.266 1.65299-0.266 1.292 0 2.03299 0.361 0.76 0.361 1.083 1.15899 0.34199 0.798 0.34199 2.14699v6.26997h1.178v0.703q-1.045 0.285-1.76699 0.285-0.456 0-0.627-0.152-0.171-0.133-0.171-0.646v-0.703q-0.68399 0.608-1.50099 1.083-0.798 0.456-1.82399 0.456-1.36799 0-2.27999-0.76-0.89299-0.76-0.89299-2.22299zm3.74298 1.86199q0.53199 0 1.27299-0.342t1.34899-0.81699v-3.36299q-2.29899 0.019-3.49598 0.684-1.17799 0.665-1.17799 1.78599 0 1.083 0.55099 1.57699 0.551 0.475 1.501 0.475z"/><path d="m193.87012-220.6553q-1.121 0-2.07099-0.57-0.95-0.589-1.51999-1.76699-0.57-1.178-0.57-2.88799 0-1.63399 0.665-2.94498 0.66499-1.33 1.88099-2.08999 1.23499-0.779 2.86898-0.779 1.045 0 2.01399 0.228v-3.76198l-1.97599-0.19v-0.68399l3.11598-0.323h0.038l0.361 0.266v14.43992h1.159v0.741q-0.095 0.019-0.646 0.152t-1.17799 0.133q-0.437 0-0.627-0.152-0.171-0.152-0.171-0.665v-0.665q-0.589 0.646-1.44399 1.083-0.836 0.437-1.89999 0.437zm0.62699-1.197q0.817 0 1.539-0.38 0.74099-0.39899 1.10199-0.87399v-6.99197q-0.152-0.26599-0.798-0.45599-0.62699-0.19-1.34899-0.19-1.63399 0-2.62198 1.17799-0.988 1.159-0.988 3.53398 0 2.12799 0.874 3.15399 0.87399 1.02599 2.24198 1.02599z"/><path d="m206.04909-220.6553q-2.20399 0-3.40098-1.501-1.178-1.51999-1.178-4.02798 0-1.61499 0.627-2.86898t1.72899-1.93799q1.121-0.703 2.50799-0.703 1.69099 0 2.62198 0.969 0.95 0.96899 1.026 2.79298 0 1.178-0.114 1.67199h-6.76397q0 1.99499 0.893 3.26799 0.912 1.25399 2.54599 1.25399 0.79799 0 1.63399-0.285 0.83599-0.285 1.29199-0.68399l0.304 0.70299q-0.551 0.57-1.61499 0.969-1.045 0.38-2.10899 0.38zm2.22299-6.49797q0.057-0.399 0.057-0.836-0.019-1.25399-0.608-1.99499-0.57-0.74099-1.76699-0.74099-2.60299 0-2.83099 3.57198z"/><path d="m216.19508-226.20328q0-1.65299 0.684-2.90698 0.703-1.25399 1.82399-1.91899 1.13999-0.665 2.37499-0.665 2.39399 0 3.53398 1.55799 1.15899 1.558 1.15899 3.98998 0 1.653-0.70299 2.90699-0.684 1.25399-1.82399 1.91899-1.121 0.665-2.35599 0.665-2.39399 0-3.55298-1.558-1.14-1.55799-1.14-3.98998zm4.78798 4.55998q1.46299 0 2.26099-1.12099 0.79799-1.121 0.79799-3.26799 0-2.05199-0.74099-3.36298-0.741-1.31099-2.29899-1.31099-1.46299 0-2.27999 1.12099-0.798 1.121-0.798 3.26798 0 2.07099 0.741 3.38199 0.76 1.29199 2.31799 1.29199z"/><path d="m227.57606-221.6623 1.51999-0.114v-8.37896l-1.46299-0.32299v-0.855l2.41299-0.304h0.038l0.361 0.304v0.304l-0.038 1.44399h0.038q0.038-0.038 0.49399-0.57 0.475-0.55099 1.387-1.04499 0.93099-0.494 1.86199-0.494 0.30399 0 0.56999 0.076v1.67199q-0.076-0.057-0.342-0.114-0.24699-0.057-0.53199-0.057-1.083 0-1.84299 0.323-0.76 0.323-1.406 0.798v7.20096l2.52699 0.152v0.779h-5.58597z"/><path d="m240.55303-215.73433q-4.48398 0-4.48398-2.84999 0-0.85499 0.513-1.55799 0.53199-0.70299 1.25399-1.10199-0.893-0.475-0.893-1.57699 0-0.703 0.399-1.311 0.399-0.62699 1.026-0.94999-0.893-0.418-1.406-1.178-0.49399-0.77899-0.49399-1.80499 0-1.10199 0.60799-1.91899 0.608-0.83599 1.577-1.27299 0.98799-0.437 2.05198-0.437 1.767 0 2.83099 0.779 0.285-0.266 0.87399-0.513 0.608-0.266 1.292-0.266h0.62699v1.406h-2.16598q0.55099 0.75999 0.55099 1.84299 0 1.12099-0.56999 1.99499-0.57 0.85499-1.539 1.32999-0.94999 0.475-2.10898 0.475-0.779 0-1.425-0.171-0.342 0.266-0.55099 0.62699-0.19 0.342-0.19 0.703 0 0.722 0.45599 1.00699 0.475 0.285 1.634 0.285h2.24198q1.76699 0 2.60299 0.684 0.855 0.684 0.855 1.91899 0 1.02599-0.741 1.89999-0.741 0.893-2.03299 1.42499-1.27299 0.532-2.79298 0.532zm0.13299-9.84195q2.41299 0 2.41299-2.65999 0-2.52698-2.50799-2.52698-2.50798 0-2.50798 2.48899 0 1.19699 0.64599 1.95698 0.646 0.741 1.95699 0.741zm-0.038 8.87295q1.026 0 1.95699-0.30399 0.931-0.285 1.501-0.855 0.56999-0.551 0.56999-1.29199 0-0.589-0.19-0.95-0.17099-0.361-0.70299-0.56999-0.513-0.19-1.50099-0.19h-2.35599q-0.912 0-1.38699-0.114-0.931 0.89299-0.931 2.08999 0 1.08299 0.684 1.63399 0.68399 0.55099 2.35598 0.55099z"/><path d="m247.50702-223.63829q0-1.84299 1.82399-2.65999 1.82399-0.83599 4.54098-0.89299v-0.589q0-0.96899-0.209-1.51999-0.19-0.57-0.684-0.817-0.494-0.26599-1.38699-0.26599-0.969 0-1.76699 0.30399-0.779 0.285-1.51999 0.703l-0.418-0.83599q0.209-0.19 0.87399-0.532 0.665-0.342 1.52-0.608 0.85499-0.266 1.65299-0.266 1.29199 0 2.03299 0.361 0.75999 0.361 1.08299 1.15899 0.342 0.798 0.342 2.14699v6.26997h1.17799v0.703q-1.04499 0.285-1.76699 0.285-0.456 0-0.62699-0.152-0.171-0.133-0.171-0.646v-0.703q-0.684 0.608-1.501 1.083-0.79799 0.456-1.82399 0.456-1.36799 0-2.27998-0.76-0.893-0.76-0.893-2.22299zm3.74298 1.86199q0.532 0 1.27299-0.342 0.741-0.342 1.349-0.81699v-3.36299q-2.29899 0.019-3.49599 0.684-1.17799 0.665-1.17799 1.78599 0 1.083 0.551 1.57699 0.551 0.475 1.50099 0.475z"/><path d="m259.17299-230.15526-1.46299-0.32299v-0.855l2.41299-0.304h0.057l0.36099 0.304v0.836l-0.019 0.47499q0.703-0.60799 1.86199-1.12099 1.159-0.513 2.14699-0.513 1.216 0 1.86199 0.475 0.665 0.456 0.912 1.42499 0.266 0.95 0.266 2.56499v5.37697l1.42499 0.133v0.817h-4.23698v-0.817l1.273-0.133v-5.39597q0-1.19699-0.171-1.88099-0.152-0.684-0.627-1.026-0.456-0.36099-1.34899-0.36099-0.76 0-1.65299 0.37999-0.874 0.38-1.52 0.893v7.37196l1.387 0.152v0.817h-4.19898v-0.817l1.27299-0.152z"/><path d="m272.60597-233.40424q-1.026 0-1.026-1.08299 0-0.551 0.323-0.893 0.323-0.361 0.874-0.361 0.56999 0 0.81699 0.323 0.247 0.304 0.247 0.76 0 0.589-0.323 0.93099-0.30399 0.323-0.89299 0.323zm-0.608 3.24898-1.48199-0.32299v-0.855l2.60299-0.304h0.038l0.37999 0.304v9.51895l1.653 0.133v0.817h-4.86398v-0.817l1.67199-0.152z"/><path d="m278.34395-230.28825-0.266 1.78599h-1.045v-2.90699h7.90396l0.323 0.703-5.90897 7.78996-1.29199 1.08299 5.62397-0.171 0.74099-2.07099 0.969 0.114-0.361 3.09699h-8.34096l-0.34199-0.722 5.98497-7.73296 1.17799-1.10199z"/><path d="m287.12195-223.63829q0-1.84299 1.82399-2.65999 1.82399-0.83599 4.54098-0.89299v-0.589q0-0.96899-0.209-1.51999-0.19-0.57-0.684-0.817-0.494-0.26599-1.38699-0.26599-0.969 0-1.76699 0.30399-0.779 0.285-1.52 0.703l-0.41799-0.83599q0.209-0.19 0.87399-0.532 0.665-0.342 1.51999-0.608 0.855-0.266 1.653-0.266 1.29199 0 2.03299 0.361 0.75999 0.361 1.08299 1.15899 0.342 0.798 0.342 2.14699v6.26997h1.17799v0.703q-1.04499 0.285-1.76699 0.285-0.456 0-0.627-0.152-0.17099-0.133-0.17099-0.646v-0.703q-0.684 0.608-1.501 1.083-0.79799 0.456-1.82399 0.456-1.36799 0-2.27999-0.76-0.89299-0.76-0.89299-2.22299zm3.74298 1.86199q0.532 0 1.27299-0.342 0.741-0.342 1.349-0.81699v-3.36299q-2.29899 0.019-3.49599 0.684-1.17799 0.665-1.17799 1.78599 0 1.083 0.551 1.57699 0.55099 0.475 1.50099 0.475z"/><path d="m297.38193-226.07028q0-1.53899 0.58899-2.81198 0.608-1.29199 1.786-2.05199 1.19699-0.76 2.90698-0.76 0.741 0 1.44399 0.19 0.703 0.171 1.216 0.38l-0.076 2.71699h-0.95l-0.399-1.82399q-0.114-0.57-1.63399-0.57-1.48199 0-2.37499 1.13999-0.87399 1.14-0.87399 3.11599 0 2.35598 0.94999 3.57198 0.95 1.21599 2.46999 1.21599 0.798 0 1.53899-0.266 0.76-0.266 1.254-0.60799l0.304 0.62699q-0.532 0.532-1.482 0.931-0.94999 0.399-1.88099 0.418 0.38 0.45599 0.684 1.08299 0.304 0.646 0.304 1.29199 0 1.007-0.589 1.444-0.589 0.43699-1.72899 0.43699-0.323 0-0.703-0.076-0.37999-0.076-0.64599-0.171l0.019-1.12099q0.19 0.057 0.43699 0.095 0.266 0.057 0.437 0.057 0.76 0 1.102-0.266 0.34199-0.266 0.34199-1.08299 0-0.456-0.17099-0.931-0.171-0.475-0.38-0.81699-1.86199-0.285-2.88799-1.748-1.00699-1.48199-1.00699-3.60998z"/><path d="m307.37592-223.63829q0-1.84299 1.82399-2.65999 1.82399-0.83599 4.54097-0.89299v-0.589q0-0.96899-0.209-1.51999-0.18999-0.57-0.68399-0.817-0.494-0.26599-1.38699-0.26599-0.969 0-1.767 0.30399-0.77899 0.285-1.51999 0.703l-0.418-0.83599q0.209-0.19 0.874-0.532t1.51999-0.608q0.855-0.266 1.65299-0.266 1.292 0 2.03299 0.361 0.76 0.361 1.083 1.15899 0.342 0.798 0.342 2.14699v6.26997h1.17799v0.703q-1.045 0.285-1.76699 0.285-0.456 0-0.627-0.152-0.171-0.133-0.171-0.646v-0.703q-0.68399 0.608-1.50099 1.083-0.798 0.456-1.82399 0.456-1.36799 0-2.27999-0.76-0.89299-0.76-0.89299-2.22299zm3.74298 1.86199q0.53199 0 1.27299-0.342t1.34899-0.81699v-3.36299q-2.29898 0.019-3.49598 0.684-1.17799 0.665-1.17799 1.78599 0 1.083 0.55099 1.57699 0.551 0.475 1.501 0.475zm-3.09699-12.36893q0.19-0.76 0.722-1.311 0.551-0.56999 1.46299-0.56999 0.57 0 0.95 0.22799 0.37999 0.228 0.87399 0.684 0.323 0.323 0.551 0.475t0.494 0.152q0.53199 0 0.83599-0.399t0.361-0.779l0.874 0.399q-0.589 1.91899-2.14699 1.91899-0.551 0-0.931-0.228-0.361-0.228-0.81699-0.66499-0.361-0.342-0.589-0.494t-0.513-0.152q-0.532 0-0.79799 0.304-0.266 0.285-0.399 0.551-0.114 0.26599-0.152 0.32299z"/><path d="m317.84489-226.20328q0-1.65299 0.684-2.90698 0.703-1.25399 1.82399-1.91899 1.14-0.665 2.37499-0.665 2.39399 0 3.53398 1.55799 1.15899 1.558 1.15899 3.98998 0 1.653-0.70299 2.90699-0.684 1.25399-1.82399 1.91899-1.121 0.665-2.35599 0.665-2.39399 0-3.55298-1.558-1.14-1.55799-1.14-3.98998zm4.78798 4.55998q1.46299 0 2.26099-1.12099 0.79799-1.121 0.79799-3.26799 0-2.05199-0.74099-3.36298-0.741-1.31099-2.29899-1.31099-1.46299 0-2.27999 1.12099-0.79799 1.121-0.79799 3.26798 0 2.07099 0.74099 3.38199 0.76 1.29199 2.31799 1.29199z"/><path d="m343.77979-226.52627q0 1.63399-0.66499 2.98298-0.665 1.32999-1.89999 2.10899-1.216 0.779-2.79299 0.779-0.532 0-1.12099-0.095-0.589-0.076-0.969-0.209l0.038 1.61499v2.05199l2.10899 0.19v0.83599h-5.09197v-0.83599l1.46299-0.19v-12.86294l-1.48199-0.32299v-0.855l2.43199-0.304h0.038l0.34199 0.304v1.159q0.608-0.627 1.482-1.064 0.87399-0.456 1.95699-0.456 1.10199 0 2.05199 0.551 0.94999 0.551 1.51999 1.70999 0.58899 1.159 0.58899 2.90699zm-4.78797-4.00898q-0.817 0-1.51999 0.342-0.703 0.34199-1.102 0.75999v7.23896q0.152 0.247 0.76 0.456 0.627 0.19 1.36799 0.19 1.63399 0 2.62199-1.19699 1.00699-1.216 1.00699-3.57199 0-2.10898-0.89299-3.15398-0.874-1.06399-2.24199-1.06399z"/><path d="m345.50883-226.20328q0-1.65299 0.684-2.90698 0.703-1.25399 1.82399-1.91899 1.14-0.665 2.37499-0.665 2.39399 0 3.53398 1.55799 1.15899 1.558 1.15899 3.98998 0 1.653-0.70299 2.90699-0.684 1.25399-1.82399 1.91899-1.121 0.665-2.35599 0.665-2.39399 0-3.55298-1.558-1.14-1.55799-1.14-3.98998zm4.78798 4.55998q1.46299 0 2.26099-1.12099 0.79799-1.121 0.79799-3.26799 0-2.05199-0.74099-3.36298-0.741-1.31099-2.29899-1.31099-1.46299 0-2.27999 1.12099-0.79799 1.121-0.79799 3.26798 0 2.07099 0.74099 3.38199 0.76 1.29199 2.31799 1.29199z"/><path d="m358.37182-235.22823-1.61499-0.171v-0.70299l2.77398-0.323h0.019l0.361 0.247v14.36392l1.78599 0.133v0.817h-4.99697v-0.817l1.67199-0.152z"/><path d="m364.6798-230.15526-1.482-0.32299v-0.855l2.60299-0.304h0.038l0.38 0.304v9.51895l1.65299 0.133v0.817h-4.86398v-0.817l1.672-0.152zm-0.684-3.74298 2.94498-3.66698 1.292 1.045q-0.38 0.57-1.69099 1.70999-1.292 1.12099-1.95699 1.42499z"/><path d="m372.50776-220.6553q-1.00699 0-1.51999-0.456-0.513-0.475-0.513-1.67199v-7.50496h-1.44399v-0.741q0.95-0.209 1.10199-0.304 0.285-0.152 0.418-0.589 0.114-0.28499 0.304-1.02599t0.285-1.15899h0.87399v2.69798h3.36299v1.121h-3.36299v6.15596q0 1.102 0.076 1.558 0.076 0.43699 0.304 0.56999t0.798 0.133q0.551 0 1.23499-0.152 0.684-0.152 1.026-0.323l0.247 0.722q-0.437 0.342-1.444 0.665-1.00699 0.304-1.74799 0.304z"/><path d="m379.15776-233.40424q-1.026 0-1.026-1.08299 0-0.551 0.323-0.893 0.323-0.361 0.874-0.361 0.56999 0 0.81699 0.323 0.247 0.304 0.247 0.76 0 0.589-0.323 0.93099-0.304 0.323-0.89299 0.323zm-0.608 3.24898-1.48199-0.32299v-0.855l2.60298-0.304h0.038l0.38 0.304v9.51895l1.65299 0.133v0.817h-4.86397v-0.817l1.67199-0.152z"/><path d="m382.88174-226.07028q0-1.53899 0.589-2.81198 0.608-1.29199 1.78599-2.05199 1.197-0.76 2.90699-0.76 0.74099 0 1.44399 0.19 0.703 0.171 1.21599 0.38l-0.076 2.71699h-0.94999l-0.399-1.82399q-0.114-0.57-1.63399-0.57-1.48199 0-2.37499 1.13999-0.87399 1.14-0.87399 3.11599 0 2.35598 0.94999 3.57198 0.95 1.21599 2.46999 1.21599 0.79799 0 1.53899-0.266 0.76-0.266 1.25399-0.60799l0.304 0.62699q-0.55099 0.551-1.51999 0.95-0.96899 0.399-1.91899 0.399-1.50099 0-2.56499-0.703-1.06399-0.722-1.61499-1.93799-0.532-1.23499-0.532-2.77399z"/><path d="m392.76173-226.20328q0-1.65299 0.684-2.90698 0.703-1.25399 1.82399-1.91899 1.13999-0.665 2.37499-0.665 2.39399 0 3.53398 1.55799 1.15899 1.558 1.15899 3.98998 0 1.653-0.70299 2.90699-0.684 1.25399-1.82399 1.91899-1.121 0.665-2.35599 0.665-2.39399 0-3.55298-1.558-1.14-1.55799-1.14-3.98998zm4.78798 4.55998q1.46299 0 2.26099-1.12099 0.79799-1.121 0.79799-3.26799 0-2.05199-0.74099-3.36298-0.741-1.31099-2.29899-1.31099-1.46299 0-2.27999 1.12099-0.798 1.121-0.798 3.26798 0 2.07099 0.741 3.38199 0.76 1.29199 2.31799 1.29199z"/><path d="m413.18669-220.6553q-2.20399 0-3.40098-1.501-1.17799-1.51999-1.17799-4.02798 0-1.61499 0.62699-2.86898 0.627-1.25399 1.72899-1.93799 1.121-0.703 2.50799-0.703 1.69099 0 2.62199 0.969 0.94999 0.96899 1.02599 2.79298 0 1.178-0.114 1.67199h-6.76396q0 1.99499 0.89299 3.26799 0.912 1.25399 2.54599 1.25399 0.798 0 1.63399-0.285 0.836-0.285 1.292-0.68399l0.30399 0.70299q-0.55099 0.57-1.61499 0.969-1.04499 0.38-2.10899 0.38zm2.22299-6.49797q0.057-0.399 0.057-0.836-0.019-1.25399-0.608-1.99499-0.56999-0.74099-1.76699-0.74099-2.60298 0-2.83098 3.57198z"/><path d="m418.62067-226.07028q0-1.53899 0.58899-2.81198 0.608-1.29199 1.78599-2.05199 1.197-0.76 2.90699-0.76 0.741 0 1.44399 0.19 0.703 0.171 1.216 0.38l-0.076 2.71699h-0.95l-0.399-1.82399q-0.114-0.57-1.63399-0.57-1.48199 0-2.37499 1.13999-0.87399 1.14-0.87399 3.11599 0 2.35598 0.94999 3.57198 0.95 1.21599 2.46999 1.21599 0.798 0 1.53899-0.266 0.76-0.266 1.254-0.60799l0.30399 0.62699q-0.55099 0.551-1.51999 0.95-0.96899 0.399-1.91899 0.399-1.50099 0-2.56498-0.703-1.064-0.722-1.615-1.93799-0.53199-1.23499-0.53199-2.77399z"/><path d="m428.50069-226.20328q0-1.65299 0.68399-2.90698 0.703-1.25399 1.82399-1.91899 1.14-0.665 2.37499-0.665 2.39399 0 3.53398 1.55799 1.159 1.558 1.159 3.98998 0 1.653-0.703 2.90699-0.684 1.25399-1.82399 1.91899-1.12099 0.665-2.35599 0.665-2.39399 0-3.55298-1.558-1.13999-1.55799-1.13999-3.98998zm4.78797 4.55998q1.46299 0 2.26099-1.12099 0.798-1.121 0.798-3.26799 0-2.05199-0.741-3.36298t-2.29899-1.31099q-1.46299 0-2.27999 1.12099-0.79799 1.121-0.79799 3.26798 0 2.07099 0.74099 3.38199 0.76 1.29199 2.31799 1.29199z"/><path d="m441.00264-230.15526-1.46299-0.32299v-0.855l2.41299-0.304h0.057l0.361 0.304v0.836l-0.019 0.47499q0.70299-0.60799 1.86199-1.12099 1.15899-0.513 2.14698-0.513 1.216 0 1.86199 0.475 0.665 0.456 0.912 1.42499 0.266 0.95 0.266 2.56499v5.37697l1.42499 0.133v0.817h-4.23698v-0.817l1.273-0.133v-5.39597q0-1.19699-0.171-1.88099-0.152-0.684-0.627-1.026-0.456-0.36099-1.34899-0.36099-0.76 0-1.65299 0.37999-0.874 0.38-1.52 0.893v7.37196l1.387 0.152v0.817h-4.19898v-0.817l1.27299-0.152z"/><path d="m452.21263-226.20328q0-1.65299 0.684-2.90698 0.70299-1.25399 1.82399-1.91899 1.13999-0.665 2.37499-0.665 2.39398 0 3.53398 1.55799 1.15899 1.558 1.15899 3.98998 0 1.653-0.703 2.90699-0.68399 1.25399-1.82399 1.91899-1.12099 0.665-2.35598 0.665-2.39399 0-3.55298-1.558-1.14-1.55799-1.14-3.98998zm4.78798 4.55998q1.46299 0 2.26098-1.12099 0.798-1.121 0.798-3.26799 0-2.05199-0.741-3.36298-0.74099-1.31099-2.29898-1.31099-1.463 0-2.27999 1.12099-0.798 1.121-0.798 3.26798 0 2.07099 0.741 3.38199 0.75999 1.29199 2.31799 1.29199zm0.74099-15.52292 2.56499 3.70498-0.665 0.399-2.62198-2.86898-2.73599 2.86898-0.608-0.38 2.64099-3.72398z"/><path d="m463.49859-221.6813 1.216-0.152v-8.32196l-1.463-0.32299v-0.855l2.41299-0.304 0.418 0.304v0.836l-0.019 0.47499q0.703-0.60799 1.84299-1.12099t2.07099-0.513q1.02599 0 1.63399 0.342 0.627 0.342 0.95 1.064 0.58899-0.494 1.70999-0.95 1.13999-0.456 2.08999-0.456 1.19699 0 1.84299 0.456 0.66499 0.456 0.93099 1.40599 0.266 0.95 0.266 2.56499v5.39597l1.44399 0.152v0.817h-4.25598v-0.817l1.292-0.152v-5.33897q0-1.19699-0.171-1.89999t-0.665-1.064q-0.49399-0.36099-1.44399-0.36099-0.703 0-1.48199 0.323-0.76 0.30399-1.311 0.70299 0.19 0.874 0.19 2.27999v5.35797l1.444 0.152v0.817h-4.35098v-0.817l1.36799-0.152v-5.37697q0-1.21599-0.152-1.89999-0.133-0.684-0.58899-1.026-0.456-0.34199-1.349-0.34199-0.74099 0-1.61499 0.37999-0.85499 0.361-1.50099 0.874v7.39096l1.34899 0.152v0.817h-4.10398z"/><path d="m484.43657-233.40424q-1.026 0-1.026-1.08299 0-0.551 0.323-0.893 0.323-0.361 0.87399-0.361 0.57 0 0.817 0.323 0.247 0.304 0.247 0.76 0 0.589-0.323 0.93099-0.304 0.323-0.89299 0.323zm-0.608 3.24898-1.48199-0.32299v-0.855l2.60298-0.304h0.038l0.38 0.304v9.51895l1.65299 0.133v0.817h-4.86397v-0.817l1.67199-0.152z"/><path d="m488.16055-226.07028q0-1.53899 0.589-2.81198 0.608-1.29199 1.78599-2.05199 1.19699-0.76 2.90699-0.76 0.74099 0 1.44399 0.19 0.70299 0.171 1.21599 0.38l-0.076 2.71699h-0.94999l-0.399-1.82399q-0.114-0.57-1.63399-0.57-1.48199 0-2.37499 1.13999-0.874 1.14-0.874 3.11599 0 2.35598 0.95 3.57198 0.95 1.21599 2.46999 1.21599 0.79799 0 1.53899-0.266 0.76-0.266 1.25399-0.60799l0.304 0.62699q-0.551 0.551-1.51999 0.95-0.969 0.399-1.91899 0.399-1.50099 0-2.56499-0.703-1.06399-0.722-1.61499-1.93799-0.532-1.23499-0.532-2.77399z"/><path d="m498.15454-223.63829q0-1.84299 1.82399-2.65999 1.82399-0.83599 4.54098-0.89299v-0.589q0-0.96899-0.209-1.51999-0.19-0.57-0.684-0.817-0.49399-0.26599-1.38699-0.26599-0.96899 0-1.76699 0.30399-0.779 0.285-1.51999 0.703l-0.418-0.83599q0.209-0.19 0.874-0.532 0.66499-0.342 1.51999-0.608 0.85499-0.266 1.65299-0.266 1.29199 0 2.03299 0.361 0.75999 0.361 1.08299 1.15899 0.342 0.798 0.342 2.14699v6.26997h1.17799v0.703q-1.04499 0.285-1.76699 0.285-0.45599 0-0.62699-0.152-0.171-0.133-0.171-0.646v-0.703q-0.684 0.608-1.50099 1.083-0.798 0.456-1.82399 0.456-1.368 0-2.27999-0.76-0.893-0.76-0.893-2.22299zm3.74298 1.86199q0.532 0 1.273-0.342 0.74099-0.342 1.34899-0.81699v-3.36299q-2.29899 0.019-3.49598 0.684-1.178 0.665-1.178 1.78599 0 1.083 0.551 1.57699 0.551 0.475 1.50099 0.475z"/><path d="m517.30646-220.6553q-1.121 0-2.07099-0.57-0.95-0.589-1.51999-1.76699-0.57-1.178-0.57-2.88799 0-1.63399 0.665-2.94498 0.66499-1.33 1.88099-2.08999 1.23499-0.779 2.86898-0.779 1.045 0 2.01399 0.228v-3.76198l-1.97599-0.19v-0.68399l3.11599-0.323h0.038l0.361 0.266v14.43992h1.159v0.741q-0.095 0.019-0.646 0.152t-1.17799 0.133q-0.437 0-0.627-0.152-0.171-0.152-0.171-0.665v-0.665q-0.589 0.646-1.44399 1.083-0.836 0.437-1.89999 0.437zm0.62699-1.197q0.817 0 1.539-0.38 0.74099-0.39899 1.10199-0.87399v-6.99197q-0.152-0.26599-0.79799-0.45599-0.627-0.19-1.349-0.19-1.63399 0-2.62198 1.17799-0.988 1.159-0.988 3.53398 0 2.12799 0.874 3.15399 0.87399 1.02599 2.24198 1.02599z"/><path d="m524.98248-223.63829q0-1.84299 1.82399-2.65999 1.82399-0.83599 4.54098-0.89299v-0.589q0-0.96899-0.209-1.51999-0.19-0.57-0.68399-0.817-0.494-0.26599-1.387-0.26599-0.96899 0-1.76699 0.30399-0.77899 0.285-1.51999 0.703l-0.418-0.83599q0.209-0.19 0.874-0.532 0.66499-0.342 1.51999-0.608 0.85499-0.266 1.65299-0.266 1.29199 0 2.03299 0.361 0.76 0.361 1.08299 1.15899 0.342 0.798 0.342 2.14699v6.26997h1.178v0.703q-1.045 0.285-1.76699 0.285-0.456 0-0.627-0.152-0.171-0.133-0.171-0.646v-0.703q-0.684 0.608-1.50099 1.083-0.798 0.456-1.82399 0.456-1.368 0-2.27999-0.76-0.893-0.76-0.893-2.22299zm3.74298 1.86199q0.532 0 1.273-0.342 0.74099-0.342 1.34899-0.81699v-3.36299q-2.29899 0.019-3.49598 0.684-1.178 0.665-1.178 1.78599 0 1.083 0.551 1.57699 0.551 0.475 1.50099 0.475z"/><path d="m541.51241-222.3653q0.209 0.323 0.874 0.57t1.42499 0.247q2.31799 0 2.31799-1.70999 0-0.779-0.646-1.25399-0.64599-0.494-2.20399-1.083-1.53899-0.551-2.24198-1.31099-0.703-0.76-0.703-2.03299 0-0.817 0.494-1.42499 0.51299-0.608 1.34899-0.931 0.855-0.342 1.84299-0.342 0.969 0 1.61499 0.171 0.665 0.171 1.311 0.418v2.26099h-0.931l-0.342-1.38699q-0.133-0.247-0.68399-0.418-0.532-0.171-1.178-0.171-0.91199 0-1.48199 0.418-0.57 0.39899-0.57 1.08299 0 0.608 0.285 1.00699 0.285 0.399 0.703 0.646 0.418 0.228 1.15899 0.532l0.361 0.152q1.08299 0.418 1.74799 0.79799 0.665 0.361 1.10199 0.969 0.437 0.589 0.437 1.48199 0 1.40599-1.08299 2.22299-1.064 0.798-2.84999 0.798-0.81699 0-1.86199-0.266-1.04499-0.266-1.55799-0.532v-2.39399h1.026z"/><path d="m549.37843-226.20328q0-1.65299 0.684-2.90698 0.703-1.25399 1.82399-1.91899 1.13999-0.665 2.37499-0.665 2.39399 0 3.53398 1.55799 1.15899 1.558 1.15899 3.98998 0 1.653-0.70299 2.90699-0.684 1.25399-1.82399 1.91899-1.121 0.665-2.35599 0.665-2.39399 0-3.55298-1.558-1.14-1.55799-1.14-3.98998zm4.78798 4.55998q1.46299 0 2.26099-1.12099 0.79799-1.121 0.79799-3.26799 0-2.05199-0.74099-3.36298-0.741-1.31099-2.29899-1.31099-1.46299 0-2.27999 1.12099-0.798 1.121-0.798 3.26798 0 2.07099 0.741 3.38199 0.76 1.29199 2.31799 1.29199z"/><path d="m560.47443-226.07028q0-1.53899 0.58899-2.81198 0.608-1.29199 1.78599-2.05199 1.197-0.76 2.90699-0.76 0.741 0 1.44399 0.19 0.703 0.171 1.216 0.38l-0.076 2.71699h-0.95l-0.399-1.82399q-0.114-0.57-1.63399-0.57-1.48199 0-2.37499 1.13999-0.87399 1.14-0.87399 3.11599 0 2.35598 0.94999 3.57198 0.95 1.21599 2.46999 1.21599 0.798 0 1.53899-0.266 0.76-0.266 1.254-0.60799l0.30399 0.62699q-0.55099 0.551-1.51999 0.95-0.96899 0.399-1.91899 0.399-1.50099 0-2.56498-0.703-1.064-0.722-1.615-1.93799-0.53199-1.23499-0.53199-2.77399z"/><path d="m572.57737-233.40424q-1.02599 0-1.02599-1.08299 0-0.551 0.323-0.893 0.323-0.361 0.87399-0.361 0.57 0 0.817 0.323 0.247 0.304 0.247 0.76 0 0.589-0.323 0.93099-0.304 0.323-0.893 0.323zm-0.60799 3.24898-1.482-0.32299v-0.855l2.60299-0.304h0.038l0.38 0.304v9.51895l1.65299 0.133v0.817h-4.86397v-0.817l1.67199-0.152z"/><path d="m581.12737-220.6553q-2.20399 0-3.40099-1.501-1.17799-1.51999-1.17799-4.02798 0-1.61499 0.627-2.86898 0.62699-1.25399 1.72899-1.93799 1.12099-0.703 2.50799-0.703 1.69099 0 2.62198 0.969 0.95 0.96899 1.026 2.79298 0 1.178-0.114 1.67199h-6.76397q0 1.99499 0.893 3.26799 0.91199 1.25399 2.54598 1.25399 0.798 0 1.634-0.285 0.83599-0.285 1.29199-0.68399l0.304 0.70299q-0.551 0.57-1.61499 0.969-1.045 0.38-2.10899 0.38zm2.22299-6.49797q0.057-0.399 0.057-0.836-0.019-1.25399-0.608-1.99499-0.57-0.74099-1.76699-0.74099-2.60299 0-2.83099 3.57198z"/><path d="m590.95032-220.6553q-1.121 0-2.07099-0.57-0.95-0.589-1.51999-1.76699-0.57-1.178-0.57-2.88799 0-1.63399 0.665-2.94498 0.66499-1.33 1.88099-2.08999 1.23499-0.779 2.86898-0.779 1.045 0 2.01399 0.228v-3.76198l-1.97599-0.19v-0.68399l3.11598-0.323h0.038l0.361 0.266v14.43992h1.159v0.741q-0.095 0.019-0.646 0.152t-1.17799 0.133q-0.437 0-0.627-0.152-0.171-0.152-0.171-0.665v-0.665q-0.589 0.646-1.44399 1.083-0.836 0.437-1.89999 0.437zm0.62699-1.197q0.817 0 1.539-0.38 0.74099-0.39899 1.10199-0.87399v-6.99197q-0.152-0.26599-0.79799-0.45599-0.627-0.19-1.349-0.19-1.63399 0-2.62198 1.17799-0.988 1.159-0.988 3.53398 0 2.12799 0.874 3.15399 0.87399 1.02599 2.24198 1.02599z"/><path d="m598.62634-223.63829q0-1.84299 1.82399-2.65999 1.82399-0.83599 4.54098-0.89299v-0.589q0-0.96899-0.209-1.51999-0.19-0.57-0.68399-0.817-0.494-0.26599-1.387-0.26599-0.96899 0-1.76699 0.30399-0.77899 0.285-1.51999 0.703l-0.418-0.83599q0.209-0.19 0.874-0.532 0.66499-0.342 1.51999-0.608 0.85499-0.266 1.65299-0.266 1.29199 0 2.03299 0.361 0.76 0.361 1.08299 1.15899 0.342 0.798 0.342 2.14699v6.26997h1.178v0.703q-1.045 0.285-1.76699 0.285-0.456 0-0.627-0.152-0.171-0.133-0.171-0.646v-0.703q-0.684 0.608-1.50099 1.083-0.798 0.456-1.82399 0.456-1.368 0-2.27999-0.76-0.893-0.76-0.893-2.22299zm3.74298 1.86199q0.532 0 1.273-0.342 0.74099-0.342 1.34899-0.81699v-3.36299q-2.29899 0.019-3.49598 0.684-1.178 0.665-1.178 1.78599 0 1.083 0.551 1.57699 0.551 0.475 1.50099 0.475z"/><path d="m613.27527-220.6553q-1.121 0-2.07099-0.57-0.95-0.589-1.51999-1.76699-0.57-1.178-0.57-2.88799 0-1.63399 0.665-2.94498 0.66499-1.33 1.88099-2.08999 1.23499-0.779 2.86898-0.779 1.045 0 2.01399 0.228v-3.76198l-1.97599-0.19v-0.68399l3.11599-0.323h0.038l0.36099 0.266v14.43992h1.159v0.741q-0.095 0.019-0.646 0.152t-1.17799 0.133q-0.437 0-0.627-0.152-0.171-0.152-0.171-0.665v-0.665q-0.589 0.646-1.44399 1.083-0.836 0.437-1.89999 0.437zm0.627-1.197q0.81699 0 1.53899-0.38 0.74099-0.39899 1.10199-0.87399v-6.99197q-0.152-0.26599-0.79799-0.45599-0.627-0.19-1.349-0.19-1.63399 0-2.62198 1.17799-0.988 1.159-0.988 3.53398 0 2.12799 0.874 3.15399 0.87399 1.02599 2.24199 1.02599z"/><path d="m625.45427-220.6553q-2.20399 0-3.40098-1.501-1.17799-1.51999-1.17799-4.02798 0-1.61499 0.62699-2.86898 0.627-1.25399 1.72899-1.93799 1.121-0.703 2.50799-0.703 1.69099 0 2.62199 0.969 0.94999 0.96899 1.02599 2.79298 0 1.178-0.114 1.67199h-6.76396q0 1.99499 0.89299 3.26799 0.912 1.25399 2.54599 1.25399 0.79799 0 1.63399-0.285t1.29199-0.68399l0.304 0.70299q-0.551 0.57-1.61499 0.969-1.04499 0.38-2.10899 0.38zm2.22299-6.49797q0.057-0.399 0.057-0.836-0.019-1.25399-0.608-1.99499-0.56999-0.74099-1.76699-0.74099-2.60298 0-2.83098 3.57198z"/><path d="m633.45323-228.55926q-0.437 0-0.74099-0.285-0.304-0.304-0.304-0.779 0-0.532 0.361-0.89299 0.37999-0.361 0.87399-0.361 0.513 0 0.76 0.304 0.266 0.304 0.266 0.75999 0 0.532-0.361 0.893t-0.855 0.361zm0.057 5.05397q0.608 0 0.969 0.57 0.36099 0.56999 0.36099 1.61499 0 1.04499-0.30399 1.97599-0.304 0.93099-0.779 1.59599t-0.94999 0.95h-0.019l-0.551-0.38v-0.171q0.228-0.171 0.494-0.703 0.28499-0.513 0.47499-1.19699 0.209-0.684 0.209-1.33 0-0.28499-0.114-0.45599-0.095-0.171-0.304-0.399-0.24699-0.247-0.37999-0.475-0.114-0.228-0.114-0.62699 0-0.437 0.266-0.703 0.28499-0.266 0.66499-0.266z"/></g></g><g transform="matrix(.0019685 0 0 -.0019685 1.2993684 405.55556)"><path d="m28318.609 53235.377c473.412 409.262 773.418 983.114 838.866 1605.464 65.436 622.38-108.602 1246.61-486.523 1745.381-396.734 499.225-971.32 824.98-1603.4 909.033-632.073 84.023-1213.427-29.523-1726.827-407.686-40.08-27.068-105.083-2.546-143.202 18.581-22.691 12.549-100.736 118.062-175.538 210.39-63.211-39.253-131.509-89.418-158.719-84.113 0 0-15.283 35.494-20.054 54.166-53.99 211.026-263.959 483.676-405.046 648.811-76.423 89.479-561.394 577.217-984.12 1088.416-235.188 284.41-520.81 728.318-539.534 750.505-73.01 86.539-13.976 158.983-13.976 158.983s87.699 80.264 134.612 116.637c47.198 36.556 147.222 101.967 147.222 101.967s84.174 38.92 149.922-53.287c16.859-23.643 376.192-410.232 593.381-708.616 390.379-536.266 742.668-1126.698 810.38-1222.936 125-177.593 337.221-448.939 528.276-553.574 16.88-9.245 47.825-33.13 47.825-33.13-1.328-23.218-57.264-66.109-101.4-111.03 81.57-83.083 175.178-204.025 230.887-151.283 532.437 414.051 1207.85 599.343 1877.134 515.624 669.275-83.689 1277.594-429.51 1691.663-961.957 414.069-532.417 656.026-1217.026 516.021-1876.84-158.44-746.687-471.451-1460.183-1207.847-1759.506z" fill="#ed4e38" stroke-width="1.00001" style="paint-order:fill markers stroke"/><g transform="matrix(3.020679 .25139333 -.25139333 3.020679 -9545.2984 -270471.53)" stroke-width=".329913"><path d="m20635.038 105655.32c-7.394 8.98-14.061 18.32-20.433 27.69l-511.605 621.53c-9.436 11.46-7.814 28.23 3.655 37.67l221.653 182.45c11.457 9.43 28.236 7.81 37.673-3.66l301.705-366.52c98.518 67.94 865.519 750.13 1267.84 1073.95 87.57 70.49 275.157 194.98 275.157 194.98 23.375 19.24 57.619 16.14 76.86-7.24l21.066-25.59c19.241-23.38 14.913-56.67-7.474-77.06 0 0-168.715-165.22-261.396-238.01-393.682-309.19-1202.077-943.54-1280.634-1032.09l118.479-143.93c30.204-30.88 58.316-69.88 71.92-102.7l173.392-419.76c20.021-48.46 0.973-64.13-42.733-35.18l-378.608 250.84c-21.858 14.48-45.733 37.38-66.518 62.63z" fill="#ed4e38" style="paint-order:fill markers stroke"/></g></g><g transform="matrix(.0019685 0 0 -.0019685 1.2993684 371.35564)"><path d="m28318.609 53235.377c473.412 409.262 773.418 983.114 838.866 1605.464 65.436 622.38-108.602 1246.61-486.523 1745.381-396.734 499.225-971.32 824.98-1603.4 909.033-632.073 84.023-1213.427-29.523-1726.827-407.686-40.08-27.068-105.083-2.546-143.202 18.581-22.691 12.549-100.736 118.062-175.538 210.39-63.211-39.253-131.509-89.418-158.719-84.113 0 0-15.283 35.494-20.054 54.166-53.99 211.026-263.959 483.676-405.046 648.811-76.423 89.479-561.394 577.217-984.12 1088.416-235.188 284.41-520.81 728.318-539.534 750.505-73.01 86.539-13.976 158.983-13.976 158.983s87.699 80.264 134.612 116.637c47.198 36.556 147.222 101.967 147.222 101.967s84.174 38.92 149.922-53.287c16.859-23.643 376.192-410.232 593.381-708.616 390.379-536.266 742.668-1126.698 810.38-1222.936 125-177.593 337.221-448.939 528.276-553.574 16.88-9.245 47.825-33.13 47.825-33.13-1.328-23.218-57.264-66.109-101.4-111.03 81.57-83.083 175.178-204.025 230.887-151.283 532.437 414.051 1207.85 599.343 1877.134 515.624 669.275-83.689 1277.594-429.51 1691.663-961.957 414.069-532.417 656.026-1217.026 516.021-1876.84-158.44-746.687-471.451-1460.183-1207.847-1759.506z" fill="#ed4e38" stroke-width="1.00001" style="paint-order:fill markers stroke"/><g transform="matrix(3.020679 .25139333 -.25139333 3.020679 -9545.2984 -270471.53)" stroke-width=".329913"><path d="m20635.038 105655.32c-7.394 8.98-14.061 18.32-20.433 27.69l-511.605 621.53c-9.436 11.46-7.814 28.23 3.655 37.67l221.653 182.45c11.457 9.43 28.236 7.81 37.673-3.66l301.705-366.52c98.518 67.94 865.519 750.13 1267.84 1073.95 87.57 70.49 275.157 194.98 275.157 194.98 23.375 19.24 57.619 16.14 76.86-7.24l21.066-25.59c19.241-23.38 14.913-56.67-7.474-77.06 0 0-168.715-165.22-261.396-238.01-393.682-309.19-1202.077-943.54-1280.634-1032.09l118.479-143.93c30.204-30.88 58.316-69.88 71.92-102.7l173.392-419.76c20.021-48.46 0.973-64.13-42.733-35.18l-378.608 250.84c-21.858 14.48-45.733 37.38-66.518 62.63z" fill="#ed4e38" style="paint-order:fill markers stroke"/></g></g><g transform="matrix(.0019685 0 0 -.0019685 1.2993684 337.1557)"><path d="m28318.609 53235.377c473.412 409.262 773.418 983.114 838.866 1605.464 65.436 622.38-108.602 1246.61-486.523 1745.381-396.734 499.225-971.32 824.98-1603.4 909.033-632.073 84.023-1213.427-29.523-1726.827-407.686-40.08-27.068-105.083-2.546-143.202 18.581-22.691 12.549-100.736 118.062-175.538 210.39-63.211-39.253-131.509-89.418-158.719-84.113 0 0-15.283 35.494-20.054 54.166-53.99 211.026-263.959 483.676-405.046 648.811-76.423 89.479-561.394 577.217-984.12 1088.416-235.188 284.41-520.81 728.318-539.534 750.505-73.01 86.539-13.976 158.983-13.976 158.983s87.699 80.264 134.612 116.637c47.198 36.556 147.222 101.967 147.222 101.967s84.174 38.92 149.922-53.287c16.859-23.643 376.192-410.232 593.381-708.616 390.379-536.266 742.668-1126.698 810.38-1222.936 125-177.593 337.221-448.939 528.276-553.574 16.88-9.245 47.825-33.13 47.825-33.13-1.328-23.218-57.264-66.109-101.4-111.03 81.57-83.083 175.178-204.025 230.887-151.283 532.437 414.051 1207.85 599.343 1877.134 515.624 669.275-83.689 1277.594-429.51 1691.663-961.957 414.069-532.417 656.026-1217.026 516.021-1876.84-158.44-746.687-471.451-1460.183-1207.847-1759.506z" fill="#ed4e38" stroke-width="1.00001" style="paint-order:fill markers stroke"/><g transform="matrix(3.020679 .25139333 -.25139333 3.020679 -9545.2984 -270471.53)" stroke-width=".329913"><path d="m20635.038 105655.32c-7.394 8.98-14.061 18.32-20.433 27.69l-511.605 621.53c-9.436 11.46-7.814 28.23 3.655 37.67l221.653 182.45c11.457 9.43 28.236 7.81 37.673-3.66l301.705-366.52c98.518 67.94 865.519 750.13 1267.84 1073.95 87.57 70.49 275.157 194.98 275.157 194.98 23.375 19.24 57.619 16.14 76.86-7.24l21.066-25.59c19.241-23.38 14.913-56.67-7.474-77.06 0 0-168.715-165.22-261.396-238.01-393.682-309.19-1202.077-943.54-1280.634-1032.09l118.479-143.93c30.204-30.88 58.316-69.88 71.92-102.7l173.392-419.76c20.021-48.46 0.973-64.13-42.733-35.18l-378.608 250.84c-21.858 14.48-45.733 37.38-66.518 62.63z" fill="#ed4e38" style="paint-order:fill markers stroke"/></g></g></g></svg>
