<svg height="540" viewBox="0 0 960 540" width="960" xmlns="http://www.w3.org/2000/svg"><g transform="matrix(1.3333333 0 0 -1.3333333 0 540)"><g fill="none" transform="matrix(.0019685 0 0 -.0019685 0 405)"><path d="m134309 17801h219000v22908h-219000z"/><path d="m126081 46099h235596v136656h-235596z"/></g><g fill="#ed4e38"><g stroke-width=".749999" transform="scale(1 -1)"><path d="m293.02537-303.43916-1.2-.165v-.645h1.815q.33 0 .645-.015.33-.03.48-.03.78-.06 1.5-.06 2.115 0 2.985.795.885.78.885 2.355 0 1.185-.57 2.055t-1.545 1.335q-.975.45-2.175.45-.48 0-.99-.015-.495-.03-.6-.045v3.525l2.085.15v.645h-4.605v-.645l1.29-.135zm1.23 5.28q.375.06 1.62.06 1.29 0 2.115-.72.825-.735.825-2.385 0-1.305-.705-1.86-.705-.57-2.22-.57-.465 0-1.035.06-.45.03-.6.03z"/><path d="m301.29033-293.73416 1.2-.09v-6.615l-1.155-.255v-.675l1.905-.24h.03l.285.24v.24l-.03 1.14h.03q.03-.03.39-.45.375-.435 1.095-.825.735-.39 1.47-.39.24 0 .45.06v1.32q-.06-.045-.27-.09-.195-.045-.42-.045-.855 0-1.455.255t-1.11.63v5.685l1.995.12v.615h-4.41z"/><path d="m309.73533-303.00416q-.81 0-.81-.855 0-.435.255-.705.255-.285.69-.285.45 0 .645.255.195.24.195.6 0 .465-.255.735-.24.255-.705.255zm-.48 2.565-1.17-.255v-.675l2.055-.24h.03l.3.24v7.515l1.305.105v.645h-3.84v-.645l1.32-.12z"/><path d="m313.78531-300.43916-1.155-.255v-.675l1.905-.24h.045l.285.24v.66l-.015.375q.555-.48 1.47-.885t1.695-.405q.96 0 1.47.375.525.36.72 1.125.21.75.21 2.025v4.245l1.125.105v.645h-3.345v-.645l1.005-.105v-4.26q0-.945-.135-1.485-.12-.54-.495-.81-.36-.285-1.065-.285-.6 0-1.305.3-.69.3-1.2.705v5.82l1.095.12v.645h-3.315v-.645l1.005-.12z"/><path d="m322.4703-297.21416q0-1.215.465-2.22.48-1.02 1.41-1.62.945-.6 2.295-.6.585 0 1.14.15.555.135.96.3l-.06 2.145h-.75l-.315-1.44q-.09-.45-1.29-.45-1.17 0-1.875.9-.69.9-.69 2.46 0 1.86.75 2.82t1.95.96q.63 0 1.215-.21.6-.21.99-.48l.24.495q-.435.435-1.2.75t-1.515.315q-1.185 0-2.025-.555-.84-.57-1.275-1.53-.42-.975-.42-2.19z"/><path d="m332.02528-303.00416q-.81 0-.81-.855 0-.435.255-.705.255-.285.69-.285.45 0 .645.255.195.24.195.6 0 .465-.255.735-.24.255-.705.255zm-.48 2.565-1.17-.255v-.675l2.055-.24h.03l.3.24v7.515l1.305.105v.645h-3.84v-.645l1.32-.12z"/><path d="m343.12526-297.57416q0 1.29-.525 2.355-.525 1.05-1.5 1.665-.96.615-2.205.615-.42 0-.885-.075-.465-.06-.765-.165l.03 1.275v1.62l1.665.15v.66h-4.02v-.66l1.155-.15v-10.155l-1.17-.255v-.675l1.92-.24h.03l.27.24v.915q.48-.495 1.17-.84.69-.36 1.545-.36.87 0 1.62.435t1.2 1.35q.465.915.465 2.295zm-3.78-3.165q-.645 0-1.2.27t-.87.6v5.715q.12.195.6.36.495.15 1.08.15 1.29 0 2.07-.945.795-.96.795-2.82 0-1.665-.705-2.49-.69-.84-1.77-.84z"/><path d="m344.58025-295.29416q0-1.455 1.44-2.1 1.44-.66 3.585-.705v-.465q0-.765-.165-1.2-.15-.45-.54-.645-.39-.21-1.095-.21-.765 0-1.395.24-.615.225-1.2.555l-.33-.66q.165-.15.69-.42t1.2-.48 1.305-.21q1.02 0 1.605.285.6.285.855.915.27.63.27 1.695v4.95h.93v.555q-.825.225-1.395.225-.36 0-.495-.12-.135-.105-.135-.51v-.555q-.54.48-1.185.855-.63.36-1.44.36-1.08 0-1.8-.6-.705-.6-.705-1.755zm2.955 1.47q.42 0 1.005-.27t1.065-.645v-2.655q-1.815.015-2.76.54-.93.525-.93 1.41 0 .855.435 1.245.435.375 1.185.375z"/><path d="m354.07523-304.44416-1.275-.135v-.555l2.19-.255h.015l.285.195v11.34l1.41.105v.645h-3.945v-.645l1.32-.12z"/><path d="m363.93022-292.93916q-.795 0-1.2-.36-.405-.375-.405-1.32v-5.925h-1.14v-.585q.75-.165.87-.24.225-.12.33-.465.09-.225.24-.81t.225-.915h.69v2.13h2.655v.885h-2.655v4.86q0 .87.06 1.23.06.345.24.45t.63.105q.435 0 .975-.12t.81-.255l.195.57q-.345.27-1.14.525-.795.24-1.38.24z"/><path d="m371.07021-292.93916q-1.74 0-2.685-1.185-.93-1.2-.93-3.18 0-1.275.495-2.265t1.365-1.53q.885-.555 1.98-.555 1.335 0 2.07.765.75.765.81 2.205 0 .93-.09 1.32h-5.34q0 1.575.705 2.58.72.99 2.01.99.63 0 1.29-.225t1.02-.54l.24.555q-.435.45-1.275.765-.825.3-1.665.3zm1.755-5.13q.045-.315.045-.66-.015-.99-.48-1.575-.45-.585-1.395-.585-2.055 0-2.235 2.82z"/><path d="m375.52519-297.31916q0-1.305.54-2.295.555-.99 1.44-1.515.9-.525 1.875-.525 1.89 0 2.79 1.23.915 1.23.915 3.15 0 1.305-.555 2.295-.54.99-1.44 1.515-.885.525-1.86.525-1.89 0-2.805-1.23-.9-1.23-.9-3.15zm3.78 3.6q1.155 0 1.785-.885t.63-2.58q0-1.62-.585-2.655t-1.815-1.035q-1.155 0-1.8.885-.63.885-.63 2.58 0 1.635.585 2.67.6 1.02 1.83 1.02zm-1.005-9.675 2.325-2.895 1.02.825q-.3.45-1.335 1.35-1.02.885-1.545 1.125z"/><path d="m384.51018-293.73416 1.2-.09v-6.615l-1.155-.255v-.675l1.905-.24h.03l.285.24v.24l-.03 1.14h.03q.03-.03.39-.45.375-.435 1.095-.825.735-.39 1.47-.39.24 0 .45.06v1.32q-.06-.045-.27-.09-.195-.045-.42-.045-.855 0-1.455.255t-1.11.63v5.685l1.995.12v.615h-4.41z"/><path d="m392.95515-303.00416q-.81 0-.81-.855 0-.435.255-.705.255-.285.69-.285.45 0 .645.255.195.24.195.6 0 .465-.255.735-.24.255-.705.255zm-.48 2.565-1.17-.255v-.675l2.055-.24h.03l.3.24v7.515l1.305.105v.645h-3.84v-.645l1.32-.12z"/><path d="m395.89513-297.21416q0-1.215.465-2.22.48-1.02 1.41-1.62.945-.6 2.295-.6.585 0 1.14.15.555.135.96.3l-.06 2.145h-.75l-.315-1.44q-.09-.45-1.29-.45-1.17 0-1.875.9-.69.9-.69 2.46 0 1.86.75 2.82t1.95.96q.63 0 1.215-.21.6-.21.99-.48l.24.495q-.435.435-1.2.75t-1.515.315q-1.185 0-2.025-.555-.84-.57-1.275-1.53-.42-.975-.42-2.19z"/><path d="m403.69514-297.31916q0-1.305.54-2.295.555-.99 1.44-1.515.9-.525 1.875-.525 1.89 0 2.79 1.23.915 1.23.915 3.15 0 1.305-.555 2.295-.54.99-1.44 1.515-.885.525-1.86.525-1.89 0-2.805-1.23-.9-1.23-.9-3.15zm3.78 3.6q1.155 0 1.785-.885t.63-2.58q0-1.62-.585-2.655t-1.815-1.035q-1.155 0-1.8.885-.63.885-.63 2.58 0 1.635.585 2.67.6 1.02 1.83 1.02z"/><path d="m420.36012-290.08916 1.68-.15v-2.52l.045-1.29q-1.14 1.11-2.595 1.11-.87 0-1.635-.45-.75-.465-1.215-1.41-.45-.945-.45-2.31 0-1.29.525-2.325t1.485-1.62q.975-.6 2.265-.6.9 0 1.86.255l.675-.21.255.24v11.13l1.05.15v.615h-3.945zm-.375-3.72q.645 0 1.185-.27.54-.285.87-.63v-5.76q-.09-.195-.615-.36-.51-.165-1.08-.165-1.275 0-2.055.945t-.78 2.82q0 1.125.33 1.89t.885 1.155q.57.375 1.26.375z"/><path d="m432.12007-292.96916q-.39 0-.57-.135t-.18-.495v-.585q-.555.495-1.305.87t-1.5.375q-1.365 0-1.95-.765-.57-.765-.57-2.49v-4.41l-.885-.255v-.555l1.815-.195h.015l.27.18v5.055q0 .945.135 1.485.135.525.495.78t1.05.255q.66 0 1.26-.285t1.035-.675v-5.79l-1.14-.255v-.555l1.995-.195h.015l.345.18v7.665h.93l-.015.57q-.075.015-.435.12t-.81.105z"/><path d="m438.31509-292.93916q-1.74 0-2.685-1.185-.93-1.2-.93-3.18 0-1.275.495-2.265t1.365-1.53q.885-.555 1.98-.555 1.335 0 2.07.765.75.765.81 2.205 0 .93-.09 1.32h-5.34q0 1.575.705 2.58.72.99 2.01.99.63 0 1.29-.225t1.02-.54l.24.555q-.435.45-1.275.765-.825.3-1.665.3zm1.755-5.13q.045-.315.045-.66-.015-.99-.48-1.575-.45-.585-1.395-.585-2.055 0-2.235 2.82z"/><path d="m448.08005-303.00416q-.81 0-.81-.855 0-.435.255-.705.255-.285.69-.285.45 0 .645.255.195.24.195.6 0 .465-.255.735-.24.255-.705.255zm-.48 2.565-1.17-.255v-.675l2.055-.24h.03l.3.24v7.515l1.305.105v.645h-3.84v-.645l1.32-.12z"/><path d="m452.13004-300.43916-1.155-.255v-.675l1.905-.24h.045l.285.24v.66l-.015.375q.555-.48 1.47-.885t1.695-.405q.96 0 1.47.375.525.36.72 1.125.21.75.21 2.025v4.245l1.125.105v.645h-3.345v-.645l1.005-.105v-4.26q0-.945-.135-1.485-.12-.54-.495-.81-.36-.285-1.065-.285-.6 0-1.305.3-.69.3-1.2.705v5.82l1.095.12v.645h-3.315v-.645l1.005-.12z"/><path d="m462.28502-300.52916h-1.515v-.6l1.515-.285v-.735q0-.9.465-1.65.465-.765 1.2-1.215.75-.45 1.56-.45.48 0 .84.12v1.23q-.12-.09-.495-.18-.36-.09-.84-.09-.795 0-1.155.42t-.36 1.425v1.125h2.175v.885h-2.175v6.675l1.71.105v.645h-4.245v-.645l1.32-.12zm5.85-3.915-1.275-.135v-.555l2.19-.255h.015l.285.195v11.34l1.41.105v.645h-3.945v-.645l1.32-.12z"/><path d="m478.71001-292.96916q-.39 0-.57-.135t-.18-.495v-.585q-.555.495-1.305.87t-1.5.375q-1.365 0-1.95-.765-.57-.765-.57-2.49v-4.41l-.885-.255v-.555l1.815-.195h.015l.27.18v5.055q0 .945.135 1.485.135.525.495.78t1.05.255q.66 0 1.26-.285t1.035-.675v-5.79l-1.14-.255v-.555l1.995-.195h.015l.345.18v7.665h.93l-.015.57q-.075.015-.435.12t-.81.105z"/><path d="m484.90499-292.93916q-1.74 0-2.685-1.185-.93-1.2-.93-3.18 0-1.275.495-2.265t1.365-1.53q.885-.555 1.98-.555 1.335 0 2.07.765.75.765.81 2.205 0 .93-.09 1.32h-5.34q0 1.575.705 2.58.72.99 2.01.99.63 0 1.29-.225t1.02-.54l.24.555q-.435.45-1.275.765-.825.3-1.665.3zm1.755-5.13q.045-.315.045-.66-.015-.99-.48-1.575-.45-.585-1.395-.585-2.055 0-2.235 2.82z"/><path d="m490.30497-300.43916-1.155-.255v-.675l1.905-.24h.045l.285.24v.66l-.015.375q.555-.48 1.47-.885t1.695-.405q.96 0 1.47.375.525.36.72 1.125.21.75.21 2.025v4.245l1.125.105v.645h-3.345v-.645l1.005-.105v-4.26q0-.945-.135-1.485-.12-.54-.495-.81-.36-.285-1.065-.285-.6 0-1.305.3-.69.3-1.2.705v5.82l1.095.12v.645h-3.315v-.645l1.005-.12z"/><path d="m498.98995-297.21416q0-1.215.465-2.22.48-1.02 1.41-1.62.945-.6 2.295-.6.585 0 1.14.15.555.135.96.3l-.06 2.145h-.75l-.315-1.44q-.09-.45-1.29-.45-1.17 0-1.875.9-.69.9-.69 2.46 0 1.86.75 2.82t1.95.96q.63 0 1.215-.21.6-.21.99-.48l.24.495q-.435.435-1.2.75t-1.515.315q-1.185 0-2.025-.555-.84-.57-1.275-1.53-.42-.975-.42-2.19z"/><path d="m508.54493-303.00416q-.81 0-.81-.855 0-.435.255-.705.255-.285.69-.285.45 0 .645.255.195.24.195.6 0 .465-.255.735-.24.255-.705.255zm-.48 2.565-1.17-.255v-.675l2.055-.24h.03l.3.24v7.515l1.305.105v.645h-3.84v-.645l1.32-.12z"/><path d="m511.64991-297.31916q0-1.305.54-2.295.555-.99 1.44-1.515.9-.525 1.875-.525 1.89 0 2.79 1.23.915 1.23.915 3.15 0 1.305-.555 2.295-.54.99-1.44 1.515-.885.525-1.86.525-1.89 0-2.805-1.23-.9-1.23-.9-3.15zm3.78 3.6q1.155 0 1.785-.885t.63-2.58q0-1.62-.585-2.655t-1.815-1.035q-1.155 0-1.8.885-.63.885-.63 2.58 0 1.635.585 2.67.6 1.02 1.83 1.02z"/><path d="m527.4449-292.96916q-.39 0-.57-.135t-.18-.495v-.585q-.555.495-1.305.87t-1.5.375q-1.365 0-1.95-.765-.57-.765-.57-2.49v-4.41l-.885-.255v-.555l1.815-.195h.015l.27.18v5.055q0 .945.135 1.485.135.525.495.78t1.05.255q.66 0 1.26-.285t1.035-.675v-5.79l-1.14-.255v-.555l1.995-.195h.015l.345.18v7.665h.93l-.015.57q-.075.015-.435.12t-.81.105z"/><path d="m534.77988-294.28916q.165.255.69.45t1.125.195q1.83 0 1.83-1.35 0-.615-.51-.99-.51-.39-1.74-.855-1.215-.435-1.77-1.035t-.555-1.605q0-.645.39-1.125.405-.48 1.065-.735.675-.27 1.455-.27.765 0 1.275.135.525.135 1.035.33v1.785h-.735l-.27-1.095q-.105-.195-.54-.33-.42-.135-.93-.135-.72 0-1.17.33-.45.315-.45.855 0 .48.225.795t.555.51q.33.18.915.42l.285.12q.855.33 1.38.63.525.285.87.765.345.465.345 1.17 0 1.11-.855 1.755-.84.63-2.25.63-.645 0-1.47-.21t-1.23-.42v-1.89h.81z"/><path d="m540.98988-297.31916q0-1.305.54-2.295.555-.99 1.44-1.515.9-.525 1.875-.525 1.89 0 2.79 1.23.915 1.23.915 3.15 0 1.305-.555 2.295-.54.99-1.44 1.515-.885.525-1.86.525-1.89 0-2.805-1.23-.9-1.23-.9-3.15zm3.78 3.6q1.155 0 1.785-.885t.63-2.58q0-1.62-.585-2.655t-1.815-1.035q-1.155 0-1.8.885-.63.885-.63 2.58 0 1.635.585 2.67.6 1.02 1.83 1.02z"/><path d="m549.74987-297.21416q0-1.215.465-2.22.48-1.02 1.41-1.62.945-.6 2.295-.6.585 0 1.14.15.555.135.96.3l-.06 2.145h-.75l-.315-1.44q-.09-.45-1.29-.45-1.17 0-1.875.9-.69.9-.69 2.46 0 1.86.75 2.82t1.95.96q.63 0 1.215-.21.6-.21.99-.48l.24.495q-.435.435-1.2.75t-1.515.315q-1.185 0-2.025-.555-.84-.57-1.275-1.53-.42-.975-.42-2.19z"/><path d="m559.30482-303.00416q-.81 0-.81-.855 0-.435.255-.705.255-.285.69-.285.45 0 .645.255.195.24.195.6 0 .465-.255.735-.24.255-.705.255zm-.48 2.565-1.17-.255v-.675l2.055-.24h.03l.3.24v7.515l1.305.105v.645h-3.84v-.645l1.32-.12z"/><path d="m562.4998-295.29416q0-1.455 1.44-2.1 1.44-.66 3.585-.705v-.465q0-.765-.165-1.2-.15-.45-.54-.645-.39-.21-1.095-.21-.765 0-1.395.24-.615.225-1.2.555l-.33-.66q.165-.15.69-.42t1.2-.48 1.305-.21q1.02 0 1.605.285.6.285.855.915.27.63.27 1.695v4.95h.93v.555q-.825.225-1.395.225-.36 0-.495-.12-.135-.105-.135-.51v-.555q-.54.48-1.185.855-.63.36-1.44.36-1.08 0-1.8-.6-.705-.6-.705-1.755zm2.955 1.47q.42 0 1.005-.27t1.065-.645v-2.655q-1.815.015-2.76.54-.93.525-.93 1.41 0 .855.435 1.245.435.375 1.185.375z"/><path d="m571.99478-304.44416-1.275-.135v-.555l2.19-.255h.015l.285.195v11.34l1.41.105v.645h-3.945v-.645l1.32-.12z"/><path d="m577.45478-303.00416q-.81 0-.81-.855 0-.435.255-.705.255-.285.69-.285.45 0 .645.255.195.24.195.6 0 .465-.255.735-.24.255-.705.255zm-.48 2.565-1.17-.255v-.675l2.055-.24h.03l.3.24v7.515l1.305.105v.645h-3.84v-.645l1.32-.12z"/><path d="m581.78977-294.28916q.165.255.69.45t1.125.195q1.83 0 1.83-1.35 0-.615-.51-.99-.51-.39-1.74-.855-1.215-.435-1.77-1.035t-.555-1.605q0-.645.39-1.125.405-.48 1.065-.735.675-.27 1.455-.27.765 0 1.275.135.525.135 1.035.33v1.785h-.735l-.27-1.095q-.105-.195-.54-.33-.42-.135-.93-.135-.72 0-1.17.33-.45.315-.45.855 0 .48.225.795t.555.51q.33.18.915.42l.285.12q.855.33 1.38.63.525.285.87.765.345.465.345 1.17 0 1.11-.855 1.755-.84.63-2.25.63-.645 0-1.47-.21t-1.23-.42v-1.89h.81z"/><path d="m590.59477-292.93916q-.795 0-1.2-.36-.405-.375-.405-1.32v-5.925h-1.14v-.585q.75-.165.87-.24.225-.12.33-.465.09-.225.24-.81t.225-.915h.69v2.13h2.655v.885h-2.655v4.86q0 .87.06 1.23.06.345.24.45t.63.105q.435 0 .975-.12t.81-.255l.195.57q-.345.27-1.14.525-.795.24-1.38.24z"/><path d="m594.17973-295.29416q0-1.455 1.44-2.1 1.44-.66 3.585-.705v-.465q0-.765-.165-1.2-.15-.45-.54-.645-.39-.21-1.095-.21-.765 0-1.395.24-.615.225-1.2.555l-.33-.66q.165-.15.69-.42t1.2-.48 1.305-.21q1.02 0 1.605.285.6.285.855.915.27.63.27 1.695v4.95h.93v.555q-.825.225-1.395.225-.36 0-.495-.12-.135-.105-.135-.51v-.555q-.54.48-1.185.855-.63.36-1.44.36-1.08 0-1.8-.6-.705-.6-.705-1.755zm2.955 1.47q.42 0 1.005-.27t1.065-.645v-2.655q-1.815.015-2.76.54-.93.525-.93 1.41 0 .855.435 1.245.435.375 1.185.375z"/><path d="m603.67471-294.28916q.165.255.69.45t1.125.195q1.83 0 1.83-1.35 0-.615-.51-.99-.51-.39-1.74-.855-1.215-.435-1.77-1.035t-.555-1.605q0-.645.39-1.125.405-.48 1.065-.735.675-.27 1.455-.27.765 0 1.275.135.525.135 1.035.33v1.785h-.735l-.27-1.095q-.105-.195-.54-.33-.42-.135-.93-.135-.72 0-1.17.33-.45.315-.45.855 0 .48.225.795t.555.51q.33.18.915.42l.285.12q.855.33 1.38.63.525.285.87.765.345.465.345 1.17 0 1.11-.855 1.755-.84.63-2.25.63-.645 0-1.47-.21t-1.23-.42v-1.89h.81z"/><path d="m620.30971-292.96916q-.39 0-.57-.135t-.18-.495v-.585q-.555.495-1.305.87t-1.5.375q-1.365 0-1.95-.765-.57-.765-.57-2.49v-4.41l-.885-.255v-.555l1.815-.195h.015l.27.18v5.055q0 .945.135 1.485.135.525.495.78t1.05.255q.66 0 1.26-.285t1.035-.675v-5.79l-1.14-.255v-.555l1.995-.195h.015l.345.18v7.665h.93l-.015.57q-.075.015-.435.12t-.81.105z"/><path d="m625.45469-292.93916q-.795 0-1.2-.36-.405-.375-.405-1.32v-5.925h-1.14v-.585q.75-.165.87-.24.225-.12.33-.465.09-.225.24-.81t.225-.915h.69v2.13h2.655v.885h-2.655v4.86q0 .87.06 1.23.06.345.24.45t.63.105q.435 0 .975-.12t.81-.255l.195.57q-.345.27-1.14.525-.795.24-1.38.24z"/><path d="m628.94966-297.31916q0-1.305.54-2.295.555-.99 1.44-1.515.9-.525 1.875-.525 1.89 0 2.79 1.23.915 1.23.915 3.15 0 1.305-.555 2.295-.54.99-1.44 1.515-.885.525-1.86.525-1.89 0-2.805-1.23-.9-1.23-.9-3.15zm3.78 3.6q1.155 0 1.785-.885t.63-2.58q0-1.62-.585-2.655t-1.815-1.035q-1.155 0-1.8.885-.63.885-.63 2.58 0 1.635.585 2.67.6 1.02 1.83 1.02zm-1.005-9.675 2.325-2.895 1.02.825q-.3.45-1.335 1.35-1.02.885-1.545 1.125z"/><path d="m645.86965-297.57416q0 1.29-.525 2.355-.525 1.05-1.5 1.665-.96.615-2.205.615-.42 0-.885-.075-.465-.06-.765-.165l.03 1.275v1.62l1.665.15v.66h-4.02v-.66l1.155-.15v-10.155l-1.17-.255v-.675l1.92-.24h.03l.27.24v.915q.48-.495 1.17-.84.69-.36 1.545-.36.87 0 1.62.435t1.2 1.35q.465.915.465 2.295zm-3.78-3.165q-.645 0-1.2.27t-.87.6v5.715q.12.195.6.36.495.15 1.08.15 1.29 0 2.07-.945.795-.96.795-2.82 0-1.665-.705-2.49-.69-.84-1.77-.84z"/><path d="m648.98963-303.00416q-.81 0-.81-.855 0-.435.255-.705.255-.285.69-.285.45 0 .645.255.195.24.195.6 0 .465-.255.735-.24.255-.705.255zm-.48 2.565-1.17-.255v-.675l2.055-.24h.03l.3.24v7.515l1.305.105v.645h-3.84v-.645l1.32-.12z"/><path d="m651.92968-297.21416q0-1.215.465-2.22.48-1.02 1.41-1.62.945-.6 2.295-.6.585 0 1.14.15.555.135.96.3l-.06 2.145h-.75l-.315-1.44q-.09-.45-1.29-.45-1.17 0-1.875.9-.69.9-.69 2.46 0 1.86.75 2.82t1.95.96q.63 0 1.215-.21.6-.21.99-.48l.24.495q-.435.435-1.2.75t-1.515.315q-1.185 0-2.025-.555-.84-.57-1.275-1.53-.42-.975-.42-2.19z"/><path d="m659.72963-297.31916q0-1.305.54-2.295.555-.99 1.44-1.515.9-.525 1.875-.525 1.89 0 2.79 1.23.915 1.23.915 3.15 0 1.305-.555 2.295-.54.99-1.44 1.515-.885.525-1.86.525-1.89 0-2.805-1.23-.9-1.23-.9-3.15zm3.78 3.6q1.155 0 1.785-.885t.63-2.58q0-1.62-.585-2.655t-1.815-1.035q-1.155 0-1.8.885-.63.885-.63 2.58 0 1.635.585 2.67.6 1.02 1.83 1.02z"/><path d="m669.88461-294.28916q.165.255.69.45t1.125.195q1.83 0 1.83-1.35 0-.615-.51-.99-.51-.39-1.74-.855-1.215-.435-1.77-1.035t-.555-1.605q0-.645.39-1.125.405-.48 1.065-.735.675-.27 1.455-.27.765 0 1.275.135.525.135 1.035.33v1.785h-.735l-.27-1.095q-.105-.195-.54-.33-.42-.135-.93-.135-.72 0-1.17.33-.45.315-.45.855 0 .48.225.795t.555.51q.33.18.915.42l.285.12q.855.33 1.38.63.525.285.87.765.345.465.345 1.17 0 1.11-.855 1.755-.84.63-2.25.63-.645 0-1.47-.21t-1.23-.42v-1.89h.81z"/><path d="m677.95462-299.17916q-.345 0-.585-.225-.24-.24-.24-.615 0-.42.285-.705.3-.285.69-.285.405 0 .6.24.21.24.21.6 0 .42-.285.705t-.675.285zm.045 3.99q.48 0 .765.45t.285 1.275-.24 1.56-.615 1.26-.75.75h-.015l-.435-.3v-.135q.18-.135.39-.555.225-.405.375-.945.165-.54.165-1.05 0-.225-.09-.36-.075-.135-.24-.315-.195-.195-.3-.375-.09-.18-.09-.495 0-.345.21-.555.225-.21.525-.21z"/><path d="m292.98037-276.43922-1.2-.165v-.645h2.415l5.31 7.695.855 1.5v-8.385l-1.32-.165v-.645h3.42v.645l-1.23.165v10.335h-.78l-5.37-7.725-1.23-1.995v8.94l1.365.135v.645h-3.435v-.645l1.2-.15z"/><path d="m303.66032-268.29422q0-1.455 1.44-2.1 1.44-.66 3.585-.705v-.465q0-.765-.165-1.2-.15-.45-.54-.645-.39-.21-1.095-.21-.765 0-1.395.24-.615.225-1.2.555l-.33-.66q.165-.15.69-.42t1.2-.48 1.305-.21q1.02 0 1.605.285.6.285.855.915.27.63.27 1.695v4.95h.93v.555q-.825.225-1.395.225-.36 0-.495-.12-.135-.105-.135-.51v-.555q-.54.48-1.185.855-.63.36-1.44.36-1.08 0-1.8-.6-.705-.6-.705-1.755zm2.955 1.47q.42 0 1.005-.27t1.065-.645v-2.655q-1.815.015-2.76.54-.93.525-.93 1.41 0 .855.435 1.245.435.375 1.185.375z"/><path d="m314.52031-265.93922q-.795 0-1.2-.36-.405-.375-.405-1.32v-5.925h-1.14v-.585q.75-.165.87-.24.225-.12.33-.465.09-.225.24-.81t.225-.915h.69v2.13h2.655v.885h-2.655v4.86q0 .87.06 1.23.06.345.24.45t.63.105q.435 0 .975-.12t.81-.255l.195.57q-.345.27-1.14.525-.795.24-1.38.24z"/><path d="m324.8853-265.96922q-.39 0-.57-.135t-.18-.495v-.585q-.555.495-1.305.87t-1.5.375q-1.365 0-1.95-.765-.57-.765-.57-2.49v-4.41l-.885-.255v-.555l1.815-.195h.015l.27.18v5.055q0 .945.135 1.485.135.525.495.78t1.05.255q.66 0 1.26-.285t1.035-.675v-5.79l-1.14-.255v-.555l1.995-.195h.015l.345.18v7.665h.93l-.015.57q-.075.015-.435.12t-.81.105z"/><path d="m327.49528-266.73422 1.2-.09v-6.615l-1.155-.255v-.675l1.905-.24h.03l.285.24v.24l-.03 1.14h.03q.03-.03.39-.45.375-.435 1.095-.825.735-.39 1.47-.39.24 0 .45.06v1.32q-.06-.045-.27-.09-.195-.045-.42-.045-.855 0-1.455.255t-1.11.63v5.685l1.995.12v.615h-4.41z"/><path d="m337.83028-265.93922q-1.74 0-2.685-1.185-.93-1.2-.93-3.18 0-1.275.495-2.265t1.365-1.53q.885-.555 1.98-.555 1.335 0 2.07.765.75.765.81 2.205 0 .93-.09 1.32h-5.34q0 1.575.705 2.58.72.99 2.01.99.63 0 1.29-.225t1.02-.54l.24.555q-.435.45-1.275.765-.825.3-1.665.3zm1.755-5.13q.045-.315.045-.66-.015-.99-.48-1.575-.45-.585-1.395-.585-2.055 0-2.235 2.82z"/><path d="m343.71026-273.54422-.21 1.41h-.825v-2.295h6.24l.255.555-4.665 6.15-1.02.855 4.44-.135.585-1.635.765.09-.285 2.445h-6.585l-.27-.57 4.725-6.105.93-.87z"/><path d="m350.64024-268.29422q0-1.455 1.44-2.1 1.44-.66 3.585-.705v-.465q0-.765-.165-1.2-.15-.45-.54-.645-.39-.21-1.095-.21-.765 0-1.395.24-.615.225-1.2.555l-.33-.66q.165-.15.69-.42t1.2-.48 1.305-.21q1.02 0 1.605.285.6.285.855.915.27.63.27 1.695v4.95h.93v.555q-.825.225-1.395.225-.36 0-.495-.12-.135-.105-.135-.51v-.555q-.54.48-1.185.855-.63.36-1.44.36-1.08 0-1.8-.6-.705-.6-.705-1.755zm2.955 1.47q.42 0 1.005-.27t1.065-.645v-2.655q-1.815.015-2.76.54-.93.525-.93 1.41 0 .855.435 1.245.435.375 1.185.375z"/><path d="m363.87022-276.43922-1.23-.165v-.645h3.765v.645l-1.305.165v4.215h5.73v-4.215l-1.245-.165v-.645h3.72v.645l-1.23.165v9.555l1.23.135v.645h-3.735v-.645l1.26-.135v-4.545h-5.73v4.545l1.32.135v.645h-3.825v-.645l1.275-.135z"/><path d="m381.6902-265.96922q-.39 0-.57-.135t-.18-.495v-.585q-.555.495-1.305.87t-1.5.375q-1.365 0-1.95-.765-.57-.765-.57-2.49v-4.41l-.885-.255v-.555l1.815-.195h.015l.27.18v5.055q0 .945.135 1.485.135.525.495.78t1.05.255q.66 0 1.26-.285t1.035-.675v-5.79l-1.14-.255v-.555l1.995-.195h.015l.345.18v7.665h.93l-.015.57q-.075.015-.435.12t-.81.105z"/><path d="m384.22519-266.74922.96-.12v-6.57l-1.155-.255v-.675l1.905-.24.33.24v.66l-.015.375q.555-.48 1.455-.885t1.635-.405q.81 0 1.29.27.495.27.75.84.465-.39 1.35-.75.9-.36 1.65-.36.945 0 1.455.36.525.36.735 1.11t.21 2.025v4.26l1.14.12v.645h-3.36v-.645l1.02-.12v-4.215q0-.945-.135-1.5t-.525-.84-1.14-.285q-.555 0-1.17.255-.6.24-1.035.555.15.69.15 1.8v4.23l1.14.12v.645h-3.435v-.645l1.08-.12v-4.245q0-.96-.12-1.5-.105-.54-.465-.81t-1.065-.27q-.585 0-1.275.3-.675.285-1.185.69v5.835l1.065.12v.645h-3.24z"/><path d="m399.09013-268.29422q0-1.455 1.44-2.1 1.44-.66 3.585-.705v-.465q0-.765-.165-1.2-.15-.45-.54-.645-.39-.21-1.095-.21-.765 0-1.395.24-.615.225-1.2.555l-.33-.66q.165-.15.69-.42t1.2-.48 1.305-.21q1.02 0 1.605.285.6.285.855.915.27.63.27 1.695v4.95h.93v.555q-.825.225-1.395.225-.36 0-.495-.12-.135-.105-.135-.51v-.555q-.54.48-1.185.855-.63.36-1.44.36-1.08 0-1.8-.6-.705-.6-.705-1.755zm2.955 1.47q.42 0 1.005-.27t1.065-.645v-2.655q-1.815.015-2.76.54-.93.525-.93 1.41 0 .855.435 1.245.435.375 1.185.375z"/><path d="m408.30015-273.43922-1.155-.255v-.675l1.905-.24h.045l.285.24v.66l-.015.375q.555-.48 1.47-.885t1.695-.405q.96 0 1.47.375.525.36.72 1.125.21.75.21 2.025v4.245l1.125.105v.645h-3.345v-.645l1.005-.105v-4.26q0-.945-.135-1.485-.12-.54-.495-.81-.36-.285-1.065-.285-.6 0-1.305.3-.69.3-1.2.705v5.82l1.095.12v.645h-3.315v-.645l1.005-.12z"/><path d="m417.2401-268.29422q0-1.455 1.44-2.1 1.44-.66 3.585-.705v-.465q0-.765-.165-1.2-.15-.45-.54-.645-.39-.21-1.095-.21-.765 0-1.395.24-.615.225-1.2.555l-.33-.66q.165-.15.69-.42t1.2-.48 1.305-.21q1.02 0 1.605.285.6.285.855.915.27.63.27 1.695v4.95h.93v.555q-.825.225-1.395.225-.36 0-.495-.12-.135-.105-.135-.51v-.555q-.54.48-1.185.855-.63.36-1.44.36-1.08 0-1.8-.6-.705-.6-.705-1.755zm2.955 1.47q.42 0 1.005-.27t1.065-.645v-2.655q-1.815.015-2.76.54-.93.525-.93 1.41 0 .855.435 1.245.435.375 1.185.375z"/><path d="m432.70507-265.93922q-1.74 0-2.685-1.185-.93-1.2-.93-3.18 0-1.275.495-2.265t1.365-1.53q.885-.555 1.98-.555 1.335 0 2.07.765.75.765.81 2.205 0 .93-.09 1.32h-5.34q0 1.575.705 2.58.72.99 2.01.99.63 0 1.29-.225t1.02-.54l.24.555q-.435.45-1.275.765-.825.3-1.665.3zm1.755-5.13q.045-.315.045-.66-.015-.99-.48-1.575-.45-.585-1.395-.585-2.055 0-2.235 2.82zm-2.73-5.325 2.325-2.895 1.02.825q-.3.45-1.335 1.35-1.02.885-1.545 1.125z"/><path d="m439.99507-278.13422 2.19-.255h.03l.285.21v4.56q.465-.435 1.11-.735.66-.3 1.455-.3.885 0 1.62.435.75.435 1.2 1.35.465.915.465 2.295 0 1.29-.525 2.355-.525 1.05-1.5 1.665t-2.25.615q-.93 0-1.77-.195t-1.02-.375v-10.935l-1.29-.135zm4.575 4.395q-.63 0-1.185.3t-.885.66v5.55q.105.24.585.39.495.135 1.095.135 1.29 0 2.07-.945.78-.96.78-2.805 0-1.65-.705-2.46-.69-.825-1.755-.825z"/><path d="m449.71504-270.31922q0-1.305.54-2.295.555-.99 1.44-1.515.9-.525 1.875-.525 1.89 0 2.79 1.23.915 1.23.915 3.15 0 1.305-.555 2.295-.54.99-1.44 1.515-.885.525-1.86.525-1.89 0-2.805-1.23-.9-1.23-.9-3.15zm3.78 3.6q1.155 0 1.785-.885t.63-2.58q0-1.62-.585-2.655t-1.815-1.035q-1.155 0-1.8.885-.63.885-.63 2.58 0 1.635.585 2.67.6 1.02 1.83 1.02z"/><path d="m458.73003-268.29422q0-1.455 1.44-2.1 1.44-.66 3.585-.705v-.465q0-.765-.165-1.2-.15-.45-.54-.645-.39-.21-1.095-.21-.765 0-1.395.24-.615.225-1.2.555l-.33-.66q.165-.15.69-.42t1.2-.48 1.305-.21q1.02 0 1.605.285.6.285.855.915.27.63.27 1.695v4.95h.93v.555q-.825.225-1.395.225-.36 0-.495-.12-.135-.105-.135-.51v-.555q-.54.48-1.185.855-.63.36-1.44.36-1.08 0-1.8-.6-.705-.6-.705-1.755zm2.955 1.47q.42 0 1.005-.27t1.065-.645v-2.655q-1.815.015-2.76.54-.93.525-.93 1.41 0 .855.435 1.245.435.375 1.185.375z"/><path d="m468.85501-272.17922q-.345 0-.585-.225-.24-.24-.24-.615 0-.42.285-.705.3-.285.69-.285.405 0 .6.24.21.24.21.6 0 .42-.285.705t-.675.285zm.045 3.99q.48 0 .765.45t.285 1.275-.24 1.56-.615 1.26-.75.75h-.015l-.435-.3v-.135q.18-.135.39-.555.225-.405.375-.945.165-.54.165-1.05 0-.225-.09-.36-.075-.135-.24-.315-.195-.195-.3-.375-.09-.18-.09-.495 0-.345.21-.555.225-.21.525-.21z"/><path d="m295.45537-250.35428h1.23l3.765 10.47.975.135v.645h-3.66v-.645l1.32-.135-.795-2.385h-4.68l-.795 2.37 1.335.15v.645h-3.375v-.645l.96-.135zm.87 2.31-.42-1.425-.405 1.47-1.635 4.95h4.155z"/><path d="m306.69034-240.28928q.165.255.69.45t1.125.195q1.83 0 1.83-1.35 0-.615-.51-.99-.51-.39-1.74-.855-1.215-.435-1.77-1.035t-.555-1.605q0-.645.39-1.125.405-.48 1.065-.735.675-.27 1.455-.27.765 0 1.275.135.525.135 1.035.33v1.785h-.735l-.27-1.095q-.105-.195-.54-.33-.42-.135-.93-.135-.72 0-1.17.33-.45.315-.45.855 0 .48.225.795t.555.51q.33.18.915.42l.285.12q.855.33 1.38.63.525.285.87.765.345.465.345 1.17 0 1.11-.855 1.755-.84.63-2.25.63-.645 0-1.47-.21t-1.23-.42v-1.89h.81z"/><path d="m312.90031-243.31928q0-1.305.54-2.295.555-.99 1.44-1.515.9-.525 1.875-.525 1.89 0 2.79 1.23.915 1.23.915 3.15 0 1.305-.555 2.295-.54.99-1.44 1.515-.885.525-1.86.525-1.89 0-2.805-1.23-.9-1.23-.9-3.15zm3.78 3.6q1.155 0 1.785-.885t.63-2.58q0-1.62-.585-2.655t-1.815-1.035q-1.155 0-1.8.885-.63.885-.63 2.58 0 1.635.585 2.67.6 1.02 1.83 1.02z"/><path d="m321.6603-243.21428q0-1.215.465-2.22.48-1.02 1.41-1.62.945-.6 2.295-.6.585 0 1.14.15.555.135.96.3l-.06 2.145h-.75l-.315-1.44q-.09-.45-1.29-.45-1.17 0-1.875.9-.69.9-.69 2.46 0 1.86.75 2.82t1.95.96q.63 0 1.215-.21.6-.21.99-.48l.24.495q-.435.435-1.2.75t-1.515.315q-1.185 0-2.025-.555-.84-.57-1.275-1.53-.42-.975-.42-2.19z"/><path d="m331.21528-249.00428q-.81 0-.81-.855 0-.435.255-.705.255-.285.69-.285.45 0 .645.255.195.24.195.6 0 .465-.255.735-.24.255-.705.255zm-.48 2.565-1.17-.255v-.675l2.055-.24h.03l.3.24v7.515l1.305.105v.645h-3.84v-.645l1.32-.12z"/><path d="m337.96526-238.93928q-1.74 0-2.685-1.185-.93-1.2-.93-3.18 0-1.275.495-2.265t1.365-1.53q.885-.555 1.98-.555 1.335 0 2.07.765.75.765.81 2.205 0 .93-.09 1.32h-5.34q0 1.575.705 2.58.72.99 2.01.99.63 0 1.29-.225t1.02-.54l.24.555q-.435.45-1.275.765-.825.3-1.665.3zm1.755-5.13q.045-.315.045-.66-.015-.99-.48-1.575-.45-.585-1.395-.585-2.055 0-2.235 2.82z"/><path d="m345.72027-238.93928q-.885 0-1.635-.45-.75-.465-1.2-1.395t-.45-2.28q0-1.29.525-2.325.525-1.05 1.485-1.65.975-.615 2.265-.615.825 0 1.59.18v-2.97l-1.56-.15v-.54l2.46-.255h.03l.285.21v11.4h.915v.585q-.075.015-.51.12t-.93.105q-.345 0-.495-.12-.135-.12-.135-.525v-.525q-.465.51-1.14.855-.66.345-1.5.345zm.495-.945q.645 0 1.215-.3.585-.315.87-.69v-5.52q-.12-.21-.63-.36-.495-.15-1.065-.15-1.29 0-2.07.93-.78.915-.78 2.79 0 1.68.69 2.49t1.77.81z"/><path d="m351.78023-241.29428q0-1.455 1.44-2.1 1.44-.66 3.585-.705v-.465q0-.765-.165-1.2-.15-.45-.54-.645-.39-.21-1.095-.21-.765 0-1.395.24-.615.225-1.2.555l-.33-.66q.165-.15.69-.42t1.2-.48 1.305-.21q1.02 0 1.605.285.6.285.855.915.27.63.27 1.695v4.95h.93v.555q-.825.225-1.395.225-.36 0-.495-.12-.135-.105-.135-.51v-.555q-.54.48-1.185.855-.63.36-1.44.36-1.08 0-1.8-.6-.705-.6-.705-1.755zm2.955 1.47q.42 0 1.005-.27t1.065-.645v-2.655q-1.815.015-2.76.54-.93.525-.93 1.41 0 .855.435 1.245.435.375 1.185.375z"/><path d="m363.34521-238.93928q-.885 0-1.635-.45-.75-.465-1.2-1.395t-.45-2.28q0-1.29.525-2.325.525-1.05 1.485-1.65.975-.615 2.265-.615.825 0 1.59.18v-2.97l-1.56-.15v-.54l2.46-.255h.03l.285.21v11.4h.915v.585q-.075.015-.51.12t-.93.105q-.345 0-.495-.12-.135-.12-.135-.525v-.525q-.465.51-1.14.855-.66.345-1.5.345zm.495-.945q.645 0 1.215-.3.585-.315.87-.69v-5.52q-.12-.21-.63-.36-.495-.15-1.065-.15-1.29 0-2.07.93-.78.915-.78 2.79 0 1.68.69 2.49t1.77.81z"/><path d="m372.9602-238.93928q-1.74 0-2.685-1.185-.93-1.2-.93-3.18 0-1.275.495-2.265t1.365-1.53q.885-.555 1.98-.555 1.335 0 2.07.765.75.765.81 2.205 0 .93-.09 1.32h-5.34q0 1.575.705 2.58.72.99 2.01.99.63 0 1.29-.225t1.02-.54l.24.555q-.435.45-1.275.765-.825.3-1.665.3zm1.755-5.13q.045-.315.045-.66-.015-.99-.48-1.575-.45-.585-1.395-.585-2.055 0-2.235 2.82z"/><path d="m384.61517-238.93928q-1.74 0-2.685-1.185-.93-1.2-.93-3.18 0-1.275.495-2.265t1.365-1.53q.885-.555 1.98-.555 1.335 0 2.07.765.75.765.81 2.205 0 .93-.09 1.32h-5.34q0 1.575.705 2.58.72.99 2.01.99.63 0 1.29-.225t1.02-.54l.24.555q-.435.45-1.275.765-.825.3-1.665.3zm1.755-5.13q.045-.315.045-.66-.015-.99-.48-1.575-.45-.585-1.395-.585-2.055 0-2.235 2.82zm-2.73-5.325 2.325-2.895 1.02.825q-.3.45-1.335 1.35-1.02.885-1.545 1.125z"/><path d="m396.81016-236.08928 1.68-.15v-2.52l.045-1.29q-1.14 1.11-2.595 1.11-.87 0-1.635-.45-.75-.465-1.215-1.41-.45-.945-.45-2.31 0-1.29.525-2.325t1.485-1.62q.975-.6 2.265-.6.9 0 1.86.255l.675-.21.255.24v11.13l1.05.15v.615h-3.945zm-.375-3.72q.645 0 1.185-.27.54-.285.87-.63v-5.76q-.09-.195-.615-.36-.51-.165-1.08-.165-1.275 0-2.055.945t-.78 2.82q0 1.125.33 1.89t.885 1.155q.57.375 1.26.375z"/><path d="m408.57015-238.96928q-.39 0-.57-.135t-.18-.495v-.585q-.555.495-1.305.87t-1.5.375q-1.365 0-1.95-.765-.57-.765-.57-2.49v-4.41l-.885-.255v-.555l1.815-.195h.015l.27.18v5.055q0 .945.135 1.485.135.525.495.78t1.05.255q.66 0 1.26-.285t1.035-.675v-5.79l-1.14-.255v-.555l1.995-.195h.015l.345.18v7.665h.93l-.015.57q-.075.015-.435.12t-.81.105z"/><path d="m414.76513-238.93928q-1.74 0-2.685-1.185-.93-1.2-.93-3.18 0-1.275.495-2.265t1.365-1.53q.885-.555 1.98-.555 1.335 0 2.07.765.75.765.81 2.205 0 .93-.09 1.32h-5.34q0 1.575.705 2.58.72.99 2.01.99.63 0 1.29-.225t1.02-.54l.24.555q-.435.45-1.275.765-.825.3-1.665.3zm1.755-5.13q.045-.315.045-.66-.015-.99-.48-1.575-.45-.585-1.395-.585-2.055 0-2.235 2.82z"/><path d="m419.2051-239.74928.96-.12v-6.57l-1.155-.255v-.675l1.905-.24.33.24v.66l-.015.375q.555-.48 1.455-.885t1.635-.405q.81 0 1.29.27.495.27.75.84.465-.39 1.35-.75.9-.36 1.65-.36.945 0 1.455.36.525.36.735 1.11t.21 2.025v4.26l1.14.12v.645h-3.36v-.645l1.02-.12v-4.215q0-.945-.135-1.5t-.525-.84-1.14-.285q-.555 0-1.17.255-.6.24-1.035.555.15.69.15 1.8v4.23l1.14.12v.645h-3.435v-.645l1.08-.12v-4.245q0-.96-.12-1.5-.105-.54-.465-.81t-1.065-.27q-.585 0-1.275.3-.675.285-1.185.69v5.835l1.065.12v.645h-3.24z"/><path d="m437.37008-243.21428q0-1.215.465-2.22.48-1.02 1.41-1.62.945-.6 2.295-.6.585 0 1.14.15.555.135.96.3l-.06 2.145h-.75l-.315-1.44q-.09-.45-1.29-.45-1.17 0-1.875.9-.69.9-.69 2.46 0 1.86.75 2.82t1.95.96q.63 0 1.215-.21.6-.21.99-.48l.24.495q-.435.435-1.2.75t-1.515.315q-1.185 0-2.025-.555-.84-.57-1.275-1.53-.42-.975-.42-2.19z"/><path d="m445.17006-243.31928q0-1.305.54-2.295.555-.99 1.44-1.515.9-.525 1.875-.525 1.89 0 2.79 1.23.915 1.23.915 3.15 0 1.305-.555 2.295-.54.99-1.44 1.515-.885.525-1.86.525-1.89 0-2.805-1.23-.9-1.23-.9-3.15zm3.78 3.6q1.155 0 1.785-.885t.63-2.58q0-1.62-.585-2.655t-1.815-1.035q-1.155 0-1.8.885-.63.885-.63 2.58 0 1.635.585 2.67.6 1.02 1.83 1.02z"/><path d="m454.15504-239.73428 1.2-.09v-6.615l-1.155-.255v-.675l1.905-.24h.03l.285.24v.24l-.03 1.14h.03q.03-.03.39-.45.375-.435 1.095-.825.735-.39 1.47-.39.24 0 .45.06v1.32q-.06-.045-.27-.09-.195-.045-.42-.045-.855 0-1.455.255t-1.11.63v5.685l1.995.12v.615h-4.41z"/><path d="m460.90501-239.73428 1.2-.09v-6.615l-1.155-.255v-.675l1.905-.24h.03l.285.24v.24l-.03 1.14h.03q.03-.03.39-.45.375-.435 1.095-.825.735-.39 1.47-.39.24 0 .45.06v1.32q-.06-.045-.27-.09-.195-.045-.42-.045-.855 0-1.455.255t-1.11.63v5.685l1.995.12v.615h-4.41z"/><path d="m467.59501-243.31928q0-1.305.54-2.295.555-.99 1.44-1.515.9-.525 1.875-.525 1.89 0 2.79 1.23.915 1.23.915 3.15 0 1.305-.555 2.295-.54.99-1.44 1.515-.885.525-1.86.525-1.89 0-2.805-1.23-.9-1.23-.9-3.15zm3.78 3.6q1.155 0 1.785-.885t.63-2.58q0-1.62-.585-2.655t-1.815-1.035q-1.155 0-1.8.885-.63.885-.63 2.58 0 1.635.585 2.67.6 1.02 1.83 1.02z"/><path d="m476.50497-239.74928.96-.12v-6.57l-1.155-.255v-.675l1.905-.24.33.24v.66l-.015.375q.555-.48 1.455-.885t1.635-.405q.81 0 1.29.27.495.27.75.84.465-.39 1.35-.75.9-.36 1.65-.36.945 0 1.455.36.525.36.735 1.11t.21 2.025v4.26l1.14.12v.645h-3.36v-.645l1.02-.12v-4.215q0-.945-.135-1.5t-.525-.84-1.14-.285q-.555 0-1.17.255-.6.24-1.035.555.15.69.15 1.8v4.23l1.14.12v.645h-3.435v-.645l1.08-.12v-4.245q0-.96-.12-1.5-.105-.54-.465-.81t-1.065-.27q-.585 0-1.275.3-.675.285-1.185.69v5.835l1.065.12v.645h-3.24z"/><path d="m499.27495-243.57428q0 1.29-.525 2.355-.525 1.05-1.5 1.665-.96.615-2.205.615-.42 0-.885-.075-.465-.06-.765-.165l.03 1.275v1.62l1.665.15v.66h-4.02v-.66l1.155-.15v-10.155l-1.17-.255v-.675l1.92-.24h.03l.27.24v.915q.48-.495 1.17-.84.69-.36 1.545-.36.87 0 1.62.435t1.2 1.35q.465.915.465 2.295zm-3.78-3.165q-.645 0-1.2.27t-.87.6v5.715q.12.195.6.36.495.15 1.08.15 1.29 0 2.07-.945.795-.96.795-2.82 0-1.665-.705-2.49-.69-.84-1.77-.84z"/><path d="m504.28497-238.93928q-1.74 0-2.685-1.185-.93-1.2-.93-3.18 0-1.275.495-2.265t1.365-1.53q.885-.555 1.98-.555 1.335 0 2.07.765.75.765.81 2.205 0 .93-.09 1.32h-5.34q0 1.575.705 2.58.72.99 2.01.99.63 0 1.29-.225t1.02-.54l.24.555q-.435.45-1.275.765-.825.3-1.665.3zm1.755-5.13q.045-.315.045-.66-.015-.99-.48-1.575-.45-.585-1.395-.585-2.055 0-2.235 2.82z"/><path d="m512.2949-243.31928q0-1.305.54-2.295.555-.99 1.44-1.515.9-.525 1.875-.525 1.89 0 2.79 1.23.915 1.23.915 3.15 0 1.305-.555 2.295-.54.99-1.44 1.515-.885.525-1.86.525-1.89 0-2.805-1.23-.9-1.23-.9-3.15zm3.78 3.6q1.155 0 1.785-.885t.63-2.58q0-1.62-.585-2.655t-1.815-1.035q-1.155 0-1.8.885-.63.885-.63 2.58 0 1.635.585 2.67.6 1.02 1.83 1.02z"/><path d="m526.00491-240.28928q.165.255.69.45t1.125.195q1.83 0 1.83-1.35 0-.615-.51-.99-.51-.39-1.74-.855-1.215-.435-1.77-1.035t-.555-1.605q0-.645.39-1.125.405-.48 1.065-.735.675-.27 1.455-.27.765 0 1.275.135.525.135 1.035.33v1.785h-.735l-.27-1.095q-.105-.195-.54-.33-.42-.135-.93-.135-.72 0-1.17.33-.45.315-.45.855 0 .48.225.795t.555.51q.33.18.915.42l.285.12q.855.33 1.38.63.525.285.87.765.345.465.345 1.17 0 1.11-.855 1.755-.84.63-2.25.63-.645 0-1.47-.21t-1.23-.42v-1.89h.81z"/><path d="m535.85986-238.93928q-1.74 0-2.685-1.185-.93-1.2-.93-3.18 0-1.275.495-2.265t1.365-1.53q.885-.555 1.98-.555 1.335 0 2.07.765.75.765.81 2.205 0 .93-.09 1.32h-5.34q0 1.575.705 2.58.72.99 2.01.99.63 0 1.29-.225t1.02-.54l.24.555q-.435.45-1.275.765-.825.3-1.665.3zm1.755-5.13q.045-.315.045-.66-.015-.99-.48-1.575-.45-.585-1.395-.585-2.055 0-2.235 2.82z"/><path d="m540.37489-239.73428 1.2-.09v-6.615l-1.155-.255v-.675l1.905-.24h.03l.285.24v.24l-.03 1.14h.03q.03-.03.39-.45.375-.435 1.095-.825.735-.39 1.47-.39.24 0 .45.06v1.32q-.06-.045-.27-.09-.195-.045-.42-.045-.855 0-1.455.255t-1.11.63v5.685l1.995.12v.615h-4.41z"/><path d="m551.48982-250.44428-1.335-.135v-.555l2.22-.255h.03l.285.195v3.57l-.03 1.245q.48-.435 1.35-.84t1.71-.405q.945 0 1.47.36t.735 1.125q.21.75.21 2.04v4.23l1.095.12v.645h-3.36v-.645l1.05-.12v-4.245q0-.96-.135-1.5-.12-.54-.495-.81t-1.095-.27q-.6 0-1.29.3-.69.285-1.215.69v5.835l1.11.12v.645h-3.255v-.645l.945-.105z"/><path d="m567.26985-238.96928q-.39 0-.57-.135t-.18-.495v-.585q-.555.495-1.305.87t-1.5.375q-1.365 0-1.95-.765-.57-.765-.57-2.49v-4.41l-.885-.255v-.555l1.815-.195h.015l.27.18v5.055q0 .945.135 1.485.135.525.495.78t1.05.255q.66 0 1.26-.285t1.035-.675v-5.79l-1.14-.255v-.555l1.995-.195h.015l.345.18v7.665h.93l-.015.57q-.075.015-.435.12t-.81.105z"/><path d="m569.80478-239.74928.96-.12v-6.57l-1.155-.255v-.675l1.905-.24.33.24v.66l-.015.375q.555-.48 1.455-.885t1.635-.405q.81 0 1.29.27.495.27.75.84.465-.39 1.35-.75.9-.36 1.65-.36.945 0 1.455.36.525.36.735 1.11t.21 2.025v4.26l1.14.12v.645h-3.36v-.645l1.02-.12v-4.215q0-.945-.135-1.5t-.525-.84-1.14-.285q-.555 0-1.17.255-.6.24-1.035.555.15.69.15 1.8v4.23l1.14.12v.645h-3.435v-.645l1.08-.12v-4.245q0-.96-.12-1.5-.105-.54-.465-.81t-1.065-.27q-.585 0-1.275.3-.675.285-1.185.69v5.835l1.065.12v.645h-3.24z"/><path d="m584.66979-241.29428q0-1.455 1.44-2.1 1.44-.66 3.585-.705v-.465q0-.765-.165-1.2-.15-.45-.54-.645-.39-.21-1.095-.21-.765 0-1.395.24-.615.225-1.2.555l-.33-.66q.165-.15.69-.42t1.2-.48 1.305-.21q1.02 0 1.605.285.6.285.855.915.27.63.27 1.695v4.95h.93v.555q-.825.225-1.395.225-.36 0-.495-.12-.135-.105-.135-.51v-.555q-.54.48-1.185.855-.63.36-1.44.36-1.08 0-1.8-.6-.705-.6-.705-1.755zm2.955 1.47q.42 0 1.005-.27t1.065-.645v-2.655q-1.815.015-2.76.54-.93.525-.93 1.41 0 .855.435 1.245.435.375 1.185.375z"/><path d="m593.87977-246.43928-1.155-.255v-.675l1.905-.24h.045l.285.24v.66l-.015.375q.555-.48 1.47-.885t1.695-.405q.96 0 1.47.375.525.36.72 1.125.21.75.21 2.025v4.245l1.125.105v.645h-3.345v-.645l1.005-.105v-4.26q0-.945-.135-1.485-.12-.54-.495-.81-.36-.285-1.065-.285-.6 0-1.305.3-.69.3-1.2.705v5.82l1.095.12v.645h-3.315v-.645l1.005-.12z"/><path d="m602.72975-243.31928q0-1.305.54-2.295.555-.99 1.44-1.515.9-.525 1.875-.525 1.89 0 2.79 1.23.915 1.23.915 3.15 0 1.305-.555 2.295-.54.99-1.44 1.515-.885.525-1.86.525-1.89 0-2.805-1.23-.9-1.23-.9-3.15zm3.78 3.6q1.155 0 1.785-.885t.63-2.58q0-1.62-.585-2.655t-1.815-1.035q-1.155 0-1.8.885-.63.885-.63 2.58 0 1.635.585 2.67.6 1.02 1.83 1.02z"/><path d="m613.51474-245.17928q-.345 0-.585-.225-.24-.24-.24-.615 0-.42.285-.705.3-.285.69-.285.405 0 .6.24.21.24.21.6 0 .42-.285.705t-.675.285zm.045 3.99q.48 0 .765.45t.285 1.275-.24 1.56-.615 1.26-.75.75h-.015l-.435-.3v-.135q.18-.135.39-.555.225-.405.375-.945.165-.54.165-1.05 0-.225-.09-.36-.075-.135-.24-.315-.195-.195-.3-.375-.09-.18-.09-.495 0-.345.21-.555.225-.21.525-.21z"/><path d="m291.69037-212.74934 1.29-.135v-9.57l-1.2-.18v-.615h1.83q.405 0 1.155-.06.72-.06 1.065-.06 2.145 0 3.06.72t.915 2.22q0 1.095-.615 1.98-.6.885-1.635 1.185.39.255.78.855.405.585.99 1.635.51.915.81 1.38.315.45.555.495l.63.165v.63h-1.755q-.24 0-.555-.51t-.885-1.65q-.615-1.245-1.02-1.905-.39-.66-.78-.885-1.83 0-2.115-.015v4.185l1.545.135v.645h-4.065zm4.545-5.04q1.035 0 1.635-.645t.6-1.89q0-1.095-.615-1.695-.615-.615-2.145-.615-.525 0-1.035.06-.36.03-.465.03v4.74q.27.015 1.08.015z"/><path d="m305.65533-211.93934q-1.74 0-2.685-1.185-.93-1.2-.93-3.18 0-1.275.495-2.265t1.365-1.53q.885-.555 1.98-.555 1.335 0 2.07.765.75.765.81 2.205 0 .93-.09 1.32h-5.34q0 1.575.705 2.58.72.99 2.01.99.63 0 1.29-.225t1.02-.54l.24.555q-.435.45-1.275.765-.825.3-1.665.3zm1.755-5.13q.045-.315.045-.66-.015-.99-.48-1.575-.45-.585-1.395-.585-2.055 0-2.235 2.82z"/><path d="m313.41033-211.93934q-.885 0-1.635-.45-.75-.465-1.2-1.395t-.45-2.28q0-1.29.525-2.325.525-1.05 1.485-1.65.975-.615 2.265-.615.825 0 1.59.18v-2.97l-1.56-.15v-.54l2.46-.255h.03l.285.21v11.4h.915v.585q-.075.015-.51.12t-.93.105q-.345 0-.495-.12-.135-.12-.135-.525v-.525q-.465.51-1.14.855-.66.345-1.5.345zm.495-.945q.645 0 1.215-.3.585-.315.87-.69v-5.52q-.12-.21-.63-.36-.495-.15-1.065-.15-1.29 0-2.07.93-.78.915-.78 2.79 0 1.68.69 2.49t1.77.81z"/><path d="m326.25029-211.96934q-.39 0-.57-.135t-.18-.495v-.585q-.555.495-1.305.87t-1.5.375q-1.365 0-1.95-.765-.57-.765-.57-2.49v-4.41l-.885-.255v-.555l1.815-.195h.015l.27.18v5.055q0 .945.135 1.485.135.525.495.78t1.05.255q.66 0 1.26-.285t1.035-.675v-5.79l-1.14-.255v-.555l1.995-.195h.015l.345.18v7.665h.93l-.015.57q-.075.015-.435.12t-.81.105z"/><path d="m328.63527-216.21434q0-1.215.465-2.22.48-1.02 1.41-1.62.945-.6 2.295-.6.585 0 1.14.15.555.135.96.3l-.06 2.145h-.75l-.315-1.44q-.09-.45-1.29-.45-1.17 0-1.875.9-.69.9-.69 2.46 0 1.86.75 2.82t1.95.96q.63 0 1.215-.21.6-.21.99-.48l.24.495q-.42.42-1.17.735t-1.485.33q.3.36.54.855.24.51.24 1.02 0 .795-.465 1.14t-1.365.345q-.255 0-.555-.06t-.51-.135l.015-.885q.15.045.345.075.21.045.345.045.6 0 .87-.21t.27-.855q0-.36-.135-.735t-.3-.645q-1.47-.225-2.28-1.38-.795-1.17-.795-2.85z"/><path d="m336.52525-214.29434q0-1.455 1.44-2.1 1.44-.66 3.585-.705v-.465q0-.765-.165-1.2-.15-.45-.54-.645-.39-.21-1.095-.21-.765 0-1.395.24-.615.225-1.2.555l-.33-.66q.165-.15.69-.42t1.2-.48 1.305-.21q1.02 0 1.605.285.6.285.855.915.27.63.27 1.695v4.95h.93v.555q-.825.225-1.395.225-.36 0-.495-.12-.135-.105-.135-.51v-.555q-.54.48-1.185.855-.63.36-1.44.36-1.08 0-1.8-.6-.705-.6-.705-1.755zm2.955 1.47q.42 0 1.005-.27t1.065-.645v-2.655q-1.815.015-2.76.54-.93.525-.93 1.41 0 .855.435 1.245.435.375 1.185.375zm-2.445-9.765q.15-.6.57-1.035.435-.45 1.155-.45.45 0 .75.18t.69.54q.255.255.435.375t.39.12q.42 0 .66-.315t.285-.615l.69.315q-.465 1.515-1.695 1.515-.435 0-.735-.18-.285-.18-.645-.525-.285-.27-.465-.39t-.405-.12q-.42 0-.63.24-.21.225-.315.435-.09.21-.12.255z"/><path d="m344.79026-216.31934q0-1.305.54-2.295.555-.99 1.44-1.515.9-.525 1.875-.525 1.89 0 2.79 1.23.915 1.23.915 3.15 0 1.305-.555 2.295-.54.99-1.44 1.515-.885.525-1.86.525-1.89 0-2.805-1.23-.9-1.23-.9-3.15zm3.78 3.6q1.155 0 1.785-.885t.63-2.58q0-1.62-.585-2.655t-1.815-1.035q-1.155 0-1.8.885-.63.885-.63 2.58 0 1.635.585 2.67.6 1.02 1.83 1.02z"/><path d="m360.57021-211.93934q-.885 0-1.635-.45-.75-.465-1.2-1.395t-.45-2.28q0-1.29.525-2.325.525-1.05 1.485-1.65.975-.615 2.265-.615.825 0 1.59.18v-2.97l-1.56-.15v-.54l2.46-.255h.03l.285.21v11.4h.915v.585q-.075.015-.51.12t-.93.105q-.345 0-.495-.12-.135-.12-.135-.525v-.525q-.465.51-1.14.855-.66.345-1.5.345zm.495-.945q.645 0 1.215-.3.585-.315.87-.69v-5.52q-.12-.21-.63-.36-.495-.15-1.065-.15-1.29 0-2.07.93-.78.915-.78 2.79 0 1.68.69 2.49t1.77.81z"/><path d="m366.5402-216.31934q0-1.305.54-2.295.555-.99 1.44-1.515.9-.525 1.875-.525 1.89 0 2.79 1.23.915 1.23.915 3.15 0 1.305-.555 2.295-.54.99-1.44 1.515-.885.525-1.86.525-1.89 0-2.805-1.23-.9-1.23-.9-3.15zm3.78 3.6q1.155 0 1.785-.885t.63-2.58q0-1.62-.585-2.655t-1.815-1.035q-1.155 0-1.8.885-.63.885-.63 2.58 0 1.635.585 2.67.6 1.02 1.83 1.02z"/><path d="m387.01518-216.57434q0 1.29-.525 2.355-.525 1.05-1.5 1.665-.96.615-2.205.615-.42 0-.885-.075-.465-.06-.765-.165l.03 1.275v1.62l1.665.15v.66h-4.02v-.66l1.155-.15v-10.155l-1.17-.255v-.675l1.92-.24h.03l.27.24v.915q.48-.495 1.17-.84.69-.36 1.545-.36.87 0 1.62.435t1.2 1.35q.465.915.465 2.295zm-3.78-3.165q-.645 0-1.2.27t-.87.6v5.715q.12.195.6.36.495.15 1.08.15 1.29 0 2.07-.945.795-.96.795-2.82 0-1.665-.705-2.49-.69-.84-1.77-.84z"/><path d="m388.38017-216.31934q0-1.305.54-2.295.555-.99 1.44-1.515.9-.525 1.875-.525 1.89 0 2.79 1.23.915 1.23.915 3.15 0 1.305-.555 2.295-.54.99-1.44 1.515-.885.525-1.86.525-1.89 0-2.805-1.23-.9-1.23-.9-3.15zm3.78 3.6q1.155 0 1.785-.885t.63-2.58q0-1.62-.585-2.655t-1.815-1.035q-1.155 0-1.8.885-.63.885-.63 2.58 0 1.635.585 2.67.6 1.02 1.83 1.02z"/><path d="m400.60516-211.93934q-.885 0-1.635-.45-.75-.465-1.2-1.395t-.45-2.28q0-1.29.525-2.325.525-1.05 1.485-1.65.975-.615 2.265-.615.825 0 1.59.18v-2.97l-1.56-.15v-.54l2.46-.255h.03l.285.21v11.4h.915v.585q-.075.015-.51.12t-.93.105q-.345 0-.495-.12-.135-.12-.135-.525v-.525q-.465.51-1.14.855-.66.345-1.5.345zm.495-.945q.645 0 1.215-.3.585-.315.87-.69v-5.52q-.12-.21-.63-.36-.495-.15-1.065-.15-1.29 0-2.07.93-.78.915-.78 2.79 0 1.68.69 2.49t1.77.81z"/><path d="m410.22012-211.93934q-1.74 0-2.685-1.185-.93-1.2-.93-3.18 0-1.275.495-2.265t1.365-1.53q.885-.555 1.98-.555 1.335 0 2.07.765.75.765.81 2.205 0 .93-.09 1.32h-5.34q0 1.575.705 2.58.72.99 2.01.99.63 0 1.29-.225t1.02-.54l.24.555q-.435.45-1.275.765-.825.3-1.665.3zm1.755-5.13q.045-.315.045-.66-.015-.99-.48-1.575-.45-.585-1.395-.585-2.055 0-2.235 2.82z"/><path d="m414.73512-212.73434 1.2-.09v-6.615l-1.155-.255v-.675l1.905-.24h.03l.285.24v.24l-.03 1.14h.03q.03-.03.39-.45.375-.435 1.095-.825.735-.39 1.47-.39.24 0 .45.06v1.32q-.06-.045-.27-.09-.195-.045-.42-.045-.855 0-1.455.255t-1.11.63v5.685l1.995.12v.615h-4.41z"/><path d="m428.28008-211.93934q-.885 0-1.635-.45-.75-.465-1.2-1.395t-.45-2.28q0-1.29.525-2.325.525-1.05 1.485-1.65.975-.615 2.265-.615.825 0 1.59.18v-2.97l-1.56-.15v-.54l2.46-.255h.03l.285.21v11.4h.915v.585q-.075.015-.51.12t-.93.105q-.345 0-.495-.12-.135-.12-.135-.525v-.525q-.465.51-1.14.855-.66.345-1.5.345zm.495-.945q.645 0 1.215-.3.585-.315.87-.69v-5.52q-.12-.21-.63-.36-.495-.15-1.065-.15-1.29 0-2.07.93-.78.915-.78 2.79 0 1.68.69 2.49t1.77.81z"/><path d="m434.25007-216.31934q0-1.305.54-2.295.555-.99 1.44-1.515.9-.525 1.875-.525 1.89 0 2.79 1.23.915 1.23.915 3.15 0 1.305-.555 2.295-.54.99-1.44 1.515-.885.525-1.86.525-1.89 0-2.805-1.23-.9-1.23-.9-3.15zm3.78 3.6q1.155 0 1.785-.885t.63-2.58q0-1.62-.585-2.655t-1.815-1.035q-1.155 0-1.8.885-.63.885-.63 2.58 0 1.635.585 2.67.6 1.02 1.83 1.02z"/><path d="m448.09505-222.43934-1.26-.165v-.645h7.425l.21 2.205h-.72l-.405-1.44-4.02-.075v4.365l2.76-.045.195-1.245h.75v3.315h-.75l-.195-1.275-2.76-.045v4.62l4.59-.12.765-1.875.72.225-.465 2.535h-8.13v-.645l1.29-.135z"/><path d="m457.69504-213.28934q.165.255.69.45t1.125.195q1.83 0 1.83-1.35 0-.615-.51-.99-.51-.39-1.74-.855-1.215-.435-1.77-1.035t-.555-1.605q0-.645.39-1.125.405-.48 1.065-.735.675-.27 1.455-.27.765 0 1.275.135.525.135 1.035.33v1.785h-.735l-.27-1.095q-.105-.195-.54-.33-.42-.135-.93-.135-.72 0-1.17.33-.45.315-.45.855 0 .48.225.795t.555.51q.33.18.915.42l.285.12q.855.33 1.38.63.525.285.87.765.345.465.345 1.17 0 1.11-.855 1.755-.84.63-2.25.63-.645 0-1.47-.21t-1.23-.42v-1.89h.81z"/><path d="m466.50001-211.93934q-.795 0-1.2-.36-.405-.375-.405-1.32v-5.925h-1.14v-.585q.75-.165.87-.24.225-.12.33-.465.09-.225.24-.81t.225-.915h.69v2.13h2.655v.885h-2.655v4.86q0 .87.06 1.23.06.345.24.45t.63.105q.435 0 .975-.12t.81-.255l.195.57q-.345.27-1.14.525-.795.24-1.38.24z"/><path d="m470.08501-214.29434q0-1.455 1.44-2.1 1.44-.66 3.585-.705v-.465q0-.765-.165-1.2-.15-.45-.54-.645-.39-.21-1.095-.21-.765 0-1.395.24-.615.225-1.2.555l-.33-.66q.165-.15.69-.42t1.2-.48 1.305-.21q1.02 0 1.605.285.6.285.855.915.27.63.27 1.695v4.95h.93v.555q-.825.225-1.395.225-.36 0-.495-.12-.135-.105-.135-.51v-.555q-.54.48-1.185.855-.63.36-1.44.36-1.08 0-1.8-.6-.705-.6-.705-1.755zm2.955 1.47q.42 0 1.005-.27t1.065-.645v-2.655q-1.815.015-2.76.54-.93.525-.93 1.41 0 .855.435 1.245.435.375 1.185.375z"/><path d="m481.64999-211.93934q-.885 0-1.635-.45-.75-.465-1.2-1.395t-.45-2.28q0-1.29.525-2.325.525-1.05 1.485-1.65.975-.615 2.265-.615.825 0 1.59.18v-2.97l-1.56-.15v-.54l2.46-.255h.03l.285.21v11.4h.915v.585q-.075.015-.51.12t-.93.105q-.345 0-.495-.12-.135-.12-.135-.525v-.525q-.465.51-1.14.855-.66.345-1.5.345zm.495-.945q.645 0 1.215-.3.585-.315.87-.69v-5.52q-.12-.21-.63-.36-.495-.15-1.065-.15-1.29 0-2.07.93-.78.915-.78 2.79 0 1.68.69 2.49t1.77.81z"/><path d="m487.61998-216.31934q0-1.305.54-2.295.555-.99 1.44-1.515.9-.525 1.875-.525 1.89 0 2.79 1.23.915 1.23.915 3.15 0 1.305-.555 2.295-.54.99-1.44 1.515-.885.525-1.86.525-1.89 0-2.805-1.23-.9-1.23-.9-3.15zm3.78 3.6q1.155 0 1.785-.885t.63-2.58q0-1.62-.585-2.655t-1.815-1.035q-1.155 0-1.8.885-.63.885-.63 2.58 0 1.635.585 2.67.6 1.02 1.83 1.02z"/><path d="m501.32996-213.28934q.165.255.69.45t1.125.195q1.83 0 1.83-1.35 0-.615-.51-.99-.51-.39-1.74-.855-1.215-.435-1.77-1.035t-.555-1.605q0-.645.39-1.125.405-.48 1.065-.735.675-.27 1.455-.27.765 0 1.275.135.525.135 1.035.33v1.785h-.735l-.27-1.095q-.105-.195-.54-.33-.42-.135-.93-.135-.72 0-1.17.33-.45.315-.45.855 0 .48.225.795t.555.51q.33.18.915.42l.285.12q.855.33 1.38.63.525.285.87.765.345.465.345 1.17 0 1.11-.855 1.755-.84.63-2.25.63-.645 0-1.47-.21t-1.23-.42v-1.89h.81z"/><path d="m507.53993-216.31934q0-1.305.54-2.295.555-.99 1.44-1.515.9-.525 1.875-.525 1.89 0 2.79 1.23.915 1.23.915 3.15 0 1.305-.555 2.295-.54.99-1.44 1.515-.885.525-1.86.525-1.89 0-2.805-1.23-.9-1.23-.9-3.15zm3.78 3.6q1.155 0 1.785-.885t.63-2.58q0-1.62-.585-2.655t-1.815-1.035q-1.155 0-1.8.885-.63.885-.63 2.58 0 1.635.585 2.67.6 1.02 1.83 1.02z"/><path d="m515.74492-224.13434 2.19-.255h.03l.285.21v4.56q.465-.435 1.11-.735.66-.3 1.455-.3.885 0 1.62.435.75.435 1.2 1.35.465.915.465 2.295 0 1.29-.525 2.355-.525 1.05-1.5 1.665t-2.25.615q-.93 0-1.77-.195t-1.02-.375v-10.935l-1.29-.135zm4.575 4.395q-.63 0-1.185.3t-.885.66v5.55q.105.24.585.39.495.135 1.095.135 1.29 0 2.07-.945.78-.96.78-2.805 0-1.65-.705-2.46-.69-.825-1.755-.825z"/><path d="m529.10986-211.93934q-1.74 0-2.685-1.185-.93-1.2-.93-3.18 0-1.275.495-2.265t1.365-1.53q.885-.555 1.98-.555 1.335 0 2.07.765.75.765.81 2.205 0 .93-.09 1.32h-5.34q0 1.575.705 2.58.72.99 2.01.99.63 0 1.29-.225t1.02-.54l.24.555q-.435.45-1.275.765-.825.3-1.665.3zm1.755-5.13q.045-.315.045-.66-.015-.99-.48-1.575-.45-.585-1.395-.585-2.055 0-2.235 2.82z"/><path d="m533.62489-212.73434 1.2-.09v-6.615l-1.155-.255v-.675l1.905-.24h.03l.285.24v.24l-.03 1.14h.03q.03-.03.39-.45.375-.435 1.095-.825.735-.39 1.47-.39.24 0 .45.06v1.32q-.06-.045-.27-.09-.195-.045-.42-.045-.855 0-1.455.255t-1.11.63v5.685l1.995.12v.615h-4.41z"/><path d="m540.40489-214.29434q0-1.455 1.44-2.1 1.44-.66 3.585-.705v-.465q0-.765-.165-1.2-.15-.45-.54-.645-.39-.21-1.095-.21-.765 0-1.395.24-.615.225-1.2.555l-.33-.66q.165-.15.69-.42t1.2-.48 1.305-.21q1.02 0 1.605.285.6.285.855.915.27.63.27 1.695v4.95h.93v.555q-.825.225-1.395.225-.36 0-.495-.12-.135-.105-.135-.51v-.555q-.54.48-1.185.855-.63.36-1.44.36-1.08 0-1.8-.6-.705-.6-.705-1.755zm2.955 1.47q.42 0 1.005-.27t1.065-.645v-2.655q-1.815.015-2.76.54-.93.525-.93 1.41 0 .855.435 1.245.435.375 1.185.375z"/><path d="m549.61481-219.43934-1.155-.255v-.675l1.905-.24h.045l.285.24v.66l-.015.375q.555-.48 1.47-.885t1.695-.405q.96 0 1.47.375.525.36.72 1.125.21.75.21 2.025v4.245l1.125.105v.645h-3.345v-.645l1.005-.105v-4.26q0-.945-.135-1.485-.12-.54-.495-.81-.36-.285-1.065-.285-.6 0-1.305.3-.69.3-1.2.705v5.82l1.095.12v.645h-3.315v-.645l1.005-.12z"/><path d="m558.46479-216.31934q0-1.305.54-2.295.555-.99 1.44-1.515.9-.525 1.875-.525 1.89 0 2.79 1.23.915 1.23.915 3.15 0 1.305-.555 2.295-.54.99-1.44 1.515-.885.525-1.86.525-1.89 0-2.805-1.23-.9-1.23-.9-3.15zm3.78 3.6q1.155 0 1.785-.885t.63-2.58q0-1.62-.585-2.655t-1.815-1.035q-1.155 0-1.8.885-.63.885-.63 2.58 0 1.635.585 2.67.6 1.02 1.83 1.02z"/><path d="m572.17478-213.28934q.165.255.69.45t1.125.195q1.83 0 1.83-1.35 0-.615-.51-.99-.51-.39-1.74-.855-1.215-.435-1.77-1.035t-.555-1.605q0-.645.39-1.125.405-.48 1.065-.735.675-.27 1.455-.27.765 0 1.275.135.525.135 1.035.33v1.785h-.735l-.27-1.095q-.105-.195-.54-.33-.42-.135-.93-.135-.72 0-1.17.33-.45.315-.45.855 0 .48.225.795t.555.51q.33.18.915.42l.285.12q.855.33 1.38.63.525.285.87.765.345.465.345 1.17 0 1.11-.855 1.755-.84.63-2.25.63-.645 0-1.47-.21t-1.23-.42v-1.89h.81z"/><path d="m578.38478-216.31934q0-1.305.54-2.295.555-.99 1.44-1.515.9-.525 1.875-.525 1.89 0 2.79 1.23.915 1.23.915 3.15 0 1.305-.555 2.295-.54.99-1.44 1.515-.885.525-1.86.525-1.89 0-2.805-1.23-.9-1.23-.9-3.15zm3.78 3.6q1.155 0 1.785-.885t.63-2.58q0-1.62-.585-2.655t-1.815-1.035q-1.155 0-1.8.885-.63.885-.63 2.58 0 1.635.585 2.67.6 1.02 1.83 1.02z"/><path d="m586.58977-224.13434 2.19-.255h.03l.285.21v4.56q.465-.435 1.11-.735.66-.3 1.455-.3.885 0 1.62.435.75.435 1.2 1.35.465.915.465 2.295 0 1.29-.525 2.355-.525 1.05-1.5 1.665t-2.25.615q-.93 0-1.77-.195t-1.02-.375v-10.935l-1.29-.135zm4.575 4.395q-.63 0-1.185.3t-.885.66v5.55q.105.24.585.39.495.135 1.095.135 1.29 0 2.07-.945.78-.96.78-2.805 0-1.65-.705-2.46-.69-.825-1.755-.825z"/><path d="m596.36977-212.73434 1.2-.09v-6.615l-1.155-.255v-.675l1.905-.24h.03l.285.24v.24l-.03 1.14h.03q.03-.03.39-.45.375-.435 1.095-.825.735-.39 1.47-.39.24 0 .45.06v1.32q-.06-.045-.27-.09-.195-.045-.42-.045-.855 0-1.455.255t-1.11.63v5.685l1.995.12v.615h-4.41z"/><path d="m606.70477-211.93934q-1.74 0-2.685-1.185-.93-1.2-.93-3.18 0-1.275.495-2.265t1.365-1.53q.885-.555 1.98-.555 1.335 0 2.07.765.75.765.81 2.205 0 .93-.09 1.32h-5.34q0 1.575.705 2.58.72.99 2.01.99.63 0 1.29-.225t1.02-.54l.24.555q-.435.45-1.275.765-.825.3-1.665.3zm1.755-5.13q.045-.315.045-.66-.015-.99-.48-1.575-.45-.585-1.395-.585-2.055 0-2.235 2.82z"/><path d="m614.71473-216.31934q0-1.305.54-2.295.555-.99 1.44-1.515.9-.525 1.875-.525 1.89 0 2.79 1.23.915 1.23.915 3.15 0 1.305-.555 2.295-.54.99-1.44 1.515-.885.525-1.86.525-1.89 0-2.805-1.23-.9-1.23-.9-3.15zm3.78 3.6q1.155 0 1.785-.885t.63-2.58q0-1.62-.585-2.655t-1.815-1.035q-1.155 0-1.8.885-.63.885-.63 2.58 0 1.635.585 2.67.6 1.02 1.83 1.02z"/><path d="m624.86972-213.28934q.165.255.69.45t1.125.195q1.83 0 1.83-1.35 0-.615-.51-.99-.51-.39-1.74-.855-1.215-.435-1.77-1.035t-.555-1.605q0-.645.39-1.125.405-.48 1.065-.735.675-.27 1.455-.27.765 0 1.275.135.525.135 1.035.33v1.785h-.735l-.27-1.095q-.105-.195-.54-.33-.42-.135-.93-.135-.72 0-1.17.33-.45.315-.45.855 0 .48.225.795t.555.51q.33.18.915.42l.285.12q.855.33 1.38.63.525.285.87.765.345.465.345 1.17 0 1.11-.855 1.755-.84.63-2.25.63-.645 0-1.47-.21t-1.23-.42v-1.89h.81z"/><path d="m634.46966-216.21434q0-1.215.465-2.22.48-1.02 1.41-1.62.945-.6 2.295-.6.585 0 1.14.15.555.135.96.3l-.06 2.145h-.75l-.315-1.44q-.09-.45-1.29-.45-1.17 0-1.875.9-.69.9-.69 2.46 0 1.86.75 2.82t1.95.96q.63 0 1.215-.21.6-.21.99-.48l.24.495q-.435.435-1.2.75t-1.515.315q-1.185 0-2.025-.555-.84-.57-1.275-1.53-.42-.975-.42-2.19z"/><path d="m644.02467-222.00434q-.81 0-.81-.855 0-.435.255-.705.255-.285.69-.285.45 0 .645.255.195.24.195.6 0 .465-.255.735-.24.255-.705.255zm-.48 2.565-1.17-.255v-.675l2.055-.24h.03l.3.24v7.515l1.305.105v.645h-3.84v-.645l1.32-.12z"/><path d="m650.42965-211.93934q-.885 0-1.635-.45-.75-.465-1.2-1.395t-.45-2.28q0-1.29.525-2.325.525-1.05 1.485-1.65.975-.615 2.265-.615.825 0 1.59.18v-2.97l-1.56-.15v-.54l2.46-.255h.03l.285.21v11.4h.915v.585q-.075.015-.51.12t-.93.105q-.345 0-.495-.12-.135-.12-.135-.525v-.525q-.465.51-1.14.855-.66.345-1.5.345zm.495-.945q.645 0 1.215-.3.585-.315.87-.69v-5.52q-.12-.21-.63-.36-.495-.15-1.065-.15-1.29 0-2.07.93-.78.915-.78 2.79 0 1.68.69 2.49t1.77.81z"/><path d="m656.48961-214.29434q0-1.455 1.44-2.1 1.44-.66 3.585-.705v-.465q0-.765-.165-1.2-.15-.45-.54-.645-.39-.21-1.095-.21-.765 0-1.395.24-.615.225-1.2.555l-.33-.66q.165-.15.69-.42t1.2-.48 1.305-.21q1.02 0 1.605.285.6.285.855.915.27.63.27 1.695v4.95h.93v.555q-.825.225-1.395.225-.36 0-.495-.12-.135-.105-.135-.51v-.555q-.54.48-1.185.855-.63.36-1.44.36-1.08 0-1.8-.6-.705-.6-.705-1.755zm2.955 1.47q.42 0 1.005-.27t1.065-.645v-2.655q-1.815.015-2.76.54-.93.525-.93 1.41 0 .855.435 1.245.435.375 1.185.375z"/><path d="m668.05459-211.93934q-.885 0-1.635-.45-.75-.465-1.2-1.395t-.45-2.28q0-1.29.525-2.325.525-1.05 1.485-1.65.975-.615 2.265-.615.825 0 1.59.18v-2.97l-1.56-.15v-.54l2.46-.255h.03l.285.21v11.4h.915v.585q-.075.015-.51.12t-.93.105q-.345 0-.495-.12-.135-.12-.135-.525v-.525q-.465.51-1.14.855-.66.345-1.5.345zm.495-.945q.645 0 1.215-.3.585-.315.87-.69v-5.52q-.12-.21-.63-.36-.495-.15-1.065-.15-1.29 0-2.07.93-.78.915-.78 2.79 0 1.68.69 2.49t1.77.81z"/><path d="m674.11461-214.29434q0-1.455 1.44-2.1 1.44-.66 3.585-.705v-.465q0-.765-.165-1.2-.15-.45-.54-.645-.39-.21-1.095-.21-.765 0-1.395.24-.615.225-1.2.555l-.33-.66q.165-.15.69-.42t1.2-.48 1.305-.21q1.02 0 1.605.285.6.285.855.915.27.63.27 1.695v4.95h.93v.555q-.825.225-1.395.225-.36 0-.495-.12-.135-.105-.135-.51v-.555q-.54.48-1.185.855-.63.36-1.44.36-1.08 0-1.8-.6-.705-.6-.705-1.755zm2.955 1.47q.42 0 1.005-.27t1.065-.645v-2.655q-1.815.015-2.76.54-.93.525-.93 1.41 0 .855.435 1.245.435.375 1.185.375zm-2.445-9.765q.15-.6.57-1.035.435-.45 1.155-.45.45 0 .75.18t.69.54q.255.255.435.375t.39.12q.42 0 .66-.315t.285-.615l.69.315q-.465 1.515-1.695 1.515-.435 0-.735-.18-.285-.18-.645-.525-.285-.27-.465-.39t-.405-.12q-.42 0-.63.24-.21.225-.315.435-.09.21-.12.255z"/><path d="m682.37959-216.31934q0-1.305.54-2.295.555-.99 1.44-1.515.9-.525 1.875-.525 1.89 0 2.79 1.23.915 1.23.915 3.15 0 1.305-.555 2.295-.54.99-1.44 1.515-.885.525-1.86.525-1.89 0-2.805-1.23-.9-1.23-.9-3.15zm3.78 3.6q1.155 0 1.785-.885t.63-2.58q0-1.62-.585-2.655t-1.815-1.035q-1.155 0-1.8.885-.63.885-.63 2.58 0 1.635.585 2.67.6 1.02 1.83 1.02z"/><path d="m692.53458-213.28934q.165.255.69.45t1.125.195q1.83 0 1.83-1.35 0-.615-.51-.99-.51-.39-1.74-.855-1.215-.435-1.77-1.035t-.555-1.605q0-.645.39-1.125.405-.48 1.065-.735.675-.27 1.455-.27.765 0 1.275.135.525.135 1.035.33v1.785h-.735l-.27-1.095q-.105-.195-.54-.33-.42-.135-.93-.135-.72 0-1.17.33-.45.315-.45.855 0 .48.225.795t.555.51q.33.18.915.42l.285.12q.855.33 1.38.63.525.285.87.765.345.465.345 1.17 0 1.11-.855 1.755-.84.63-2.25.63-.645 0-1.47-.21t-1.23-.42v-1.89h.81z"/><path d="m292.84537-196.44439-1.275-.135v-.555l2.19-.255h.015l.285.195v11.34l1.41.105v.645h-3.945v-.645l1.32-.12z"/><path d="m298.30534-195.00439q-.81 0-.81-.855 0-.435.255-.705.255-.285.69-.285.45 0 .645.255.195.24.195.6 0 .465-.255.735-.24.255-.705.255zm-.48 2.565-1.17-.255v-.675l2.055-.24h.03l.3.24v7.515l1.305.105v.645h-3.84v-.645l1.32-.12z"/><path d="m300.76535-193.42939h3.18v.615l-1.11.195 1.605 4.455.735 2.13.63-2.055 1.605-4.53-1.05-.195v-.615h2.865v.615l-.765.195-2.955 7.635h-1.005l-3.03-7.635-.705-.195z"/><path d="m309.96031-185.73439 1.2-.09v-6.615l-1.155-.255v-.675l1.905-.24h.03l.285.24v.24l-.03 1.14h.03q.03-.03.39-.45.375-.435 1.095-.825.735-.39 1.47-.39.24 0 .45.06v1.32q-.06-.045-.27-.09-.195-.045-.42-.045-.855 0-1.455.255t-1.11.63v5.685l1.995.12v.615h-4.41z"/><path d="m320.29531-184.93939q-1.74 0-2.685-1.185-.93-1.2-.93-3.18 0-1.275.495-2.265t1.365-1.53q.885-.555 1.98-.555 1.335 0 2.07.765.75.765.81 2.205 0 .93-.09 1.32h-5.34q0 1.575.705 2.58.72.99 2.01.99.63 0 1.29-.225t1.02-.54l.24.555q-.435.45-1.275.765-.825.3-1.665.3zm1.755-5.13q.045-.315.045-.66-.015-.99-.48-1.575-.45-.585-1.395-.585-2.055 0-2.235 2.82z"/><path d="m325.98029-186.28939q.165.255.69.45t1.125.195q1.83 0 1.83-1.35 0-.615-.51-.99-.51-.39-1.74-.855-1.215-.435-1.77-1.035t-.555-1.605q0-.645.39-1.125.405-.48 1.065-.735.675-.27 1.455-.27.765 0 1.275.135.525.135 1.035.33v1.785h-.735l-.27-1.095q-.105-.195-.54-.33-.42-.135-.93-.135-.72 0-1.17.33-.45.315-.45.855 0 .48.225.795t.555.51q.33.18.915.42l.285.12q.855.33 1.38.63.525.285.87.765.345.465.345 1.17 0 1.11-.855 1.755-.84.63-2.25.63-.645 0-1.47-.21t-1.23-.42v-1.89h.81z"/><path d="m334.05029-191.17939q-.345 0-.585-.225-.24-.24-.24-.615 0-.42.285-.705.3-.285.69-.285.405 0 .6.24.21.24.21.6 0 .42-.285.705t-.675.285zm.045 3.99q.48 0 .765.45t.285 1.275-.24 1.56-.615 1.26-.75.75h-.015l-.435-.3v-.135q.18-.135.39-.555.225-.405.375-.945.165-.54.165-1.05 0-.225-.09-.36-.075-.135-.24-.315-.195-.195-.3-.375-.09-.18-.09-.495 0-.345.21-.555.225-.21.525-.21z"/><path d="m293.29537-168.43945-1.455-.165v-.645h4.155v.645l-1.455.165v9.555l1.455.15v.63h-4.155v-.645l1.455-.135z"/><path d="m298.51536-165.43945-1.155-.255v-.675l1.905-.24h.045l.285.24v.66l-.015.375q.555-.48 1.47-.885t1.695-.405q.96 0 1.47.375.525.36.72 1.125.21.75.21 2.025v4.245l1.125.105v.645h-3.345v-.645l1.005-.105v-4.26q0-.945-.135-1.485-.12-.54-.495-.81-.36-.285-1.065-.285-.6 0-1.305.3-.69.3-1.2.705v5.82l1.095.12v.645h-3.315v-.645l1.005-.12z"/><path d="m308.59534-159.28945q.165.255.69.45t1.125.195q1.83 0 1.83-1.35 0-.615-.51-.99-.51-.39-1.74-.855-1.215-.435-1.77-1.035t-.555-1.605q0-.645.39-1.125.405-.48 1.065-.735.675-.27 1.455-.27.765 0 1.275.135.525.135 1.035.33v1.785h-.735l-.27-1.095q-.105-.195-.54-.33-.42-.135-.93-.135-.72 0-1.17.33-.45.315-.45.855 0 .48.225.795t.555.51q.33.18.915.42l.285.12q.855.33 1.38.63.525.285.87.765.345.465.345 1.17 0 1.11-.855 1.755-.84.63-2.25.63-.645 0-1.47-.21t-1.23-.42v-1.89h.81z"/><path d="m322.80031-162.57445q0 1.29-.525 2.355-.525 1.05-1.5 1.665-.96.615-2.205.615-.42 0-.885-.075-.465-.06-.765-.165l.03 1.275v1.62l1.665.15v.66h-4.02v-.66l1.155-.15v-10.155l-1.17-.255v-.675l1.92-.24h.03l.27.24v.915q.48-.495 1.17-.84.69-.36 1.545-.36.87 0 1.62.435t1.2 1.35q.465.915.465 2.295zm-3.78-3.165q-.645 0-1.2.27t-.87.6v5.715q.12.195.6.36.495.15 1.08.15 1.29 0 2.07-.945.795-.96.795-2.82 0-1.665-.705-2.49-.69-.84-1.77-.84z"/><path d="m325.9203-168.00445q-.81 0-.81-.855 0-.435.255-.705.255-.285.69-.285.45 0 .645.255.195.24.195.6 0 .465-.255.735-.24.255-.705.255zm-.48 2.565-1.17-.255v-.675l2.055-.24h.03l.3.24v7.515l1.305.105v.645h-3.84v-.645l1.32-.12z"/><path d="m329.08528-158.73445 1.2-.09v-6.615l-1.155-.255v-.675l1.905-.24h.03l.285.24v.24l-.03 1.14h.03q.03-.03.39-.45.375-.435 1.095-.825.735-.39 1.47-.39.24 0 .45.06v1.32q-.06-.045-.27-.09-.195-.045-.42-.045-.855 0-1.455.255t-1.11.63v5.685l1.995.12v.615h-4.41z"/><path d="m335.77528-162.31945q0-1.305.54-2.295.555-.99 1.44-1.515.9-.525 1.875-.525 1.89 0 2.79 1.23.915 1.23.915 3.15 0 1.305-.555 2.295-.54.99-1.44 1.515-.885.525-1.86.525-1.89 0-2.805-1.23-.9-1.23-.9-3.15zm3.78 3.6q1.155 0 1.785-.885t.63-2.58q0-1.62-.585-2.655t-1.815-1.035q-1.155 0-1.8.885-.63.885-.63 2.58 0 1.635.585 2.67.6 1.02 1.83 1.02z"/><path d="m351.57024-157.96945q-.39 0-.57-.135t-.18-.495v-.585q-.555.495-1.305.87t-1.5.375q-1.365 0-1.95-.765-.57-.765-.57-2.49v-4.41l-.885-.255v-.555l1.815-.195h.015l.27.18v5.055q0 .945.135 1.485.135.525.495.78t1.05.255q.66 0 1.26-.285t1.035-.675v-5.79l-1.14-.255v-.555l1.995-.195h.015l.345.18v7.665h.93l-.015.57q-.075.015-.435.12t-.81.105z"/><path d="m358.90524-169.44445-1.275-.135v-.555l2.19-.255h.015l.285.195v11.34l1.41.105v.645h-3.945v-.645l1.32-.12z"/><path d="m364.36521-168.00445q-.81 0-.81-.855 0-.435.255-.705.255-.285.69-.285.45 0 .645.255.195.24.195.6 0 .465-.255.735-.24.255-.705.255zm-.48 2.565-1.17-.255v-.675l2.055-.24h.03l.3.24v7.515l1.305.105v.645h-3.84v-.645l1.32-.12z"/><path d="m366.7502-170.13445 2.19-.255h.03l.285.21v4.56q.465-.435 1.11-.735.66-.3 1.455-.3.885 0 1.62.435.75.435 1.2 1.35.465.915.465 2.295 0 1.29-.525 2.355-.525 1.05-1.5 1.665t-2.25.615q-.93 0-1.77-.195t-1.02-.375v-10.935l-1.29-.135zm4.575 4.395q-.63 0-1.185.3t-.885.66v5.55q.105.24.585.39.495.135 1.095.135 1.29 0 2.07-.945.78-.96.78-2.805 0-1.65-.705-2.46-.69-.825-1.755-.825z"/><path d="m380.1152-157.93945q-1.74 0-2.685-1.185-.93-1.2-.93-3.18 0-1.275.495-2.265t1.365-1.53q.885-.555 1.98-.555 1.335 0 2.07.765.75.765.81 2.205 0 .93-.09 1.32h-5.34q0 1.575.705 2.58.72.99 2.01.99.63 0 1.29-.225t1.02-.54l.24.555q-.435.45-1.275.765-.825.3-1.665.3zm1.755-5.13q.045-.315.045-.66-.015-.99-.48-1.575-.45-.585-1.395-.585-2.055 0-2.235 2.82z"/><path d="m384.63017-158.73445 1.2-.09v-6.615l-1.155-.255v-.675l1.905-.24h.03l.285.24v.24l-.03 1.14h.03q.03-.03.39-.45.375-.435 1.095-.825.735-.39 1.47-.39.24 0 .45.06v1.32q-.06-.045-.27-.09-.195-.045-.42-.045-.855 0-1.455.255t-1.11.63v5.685l1.995.12v.615h-4.41z"/><path d="m391.41017-160.29445q0-1.455 1.44-2.1 1.44-.66 3.585-.705v-.465q0-.765-.165-1.2-.15-.45-.54-.645-.39-.21-1.095-.21-.765 0-1.395.24-.615.225-1.2.555l-.33-.66q.165-.15.69-.42t1.2-.48 1.305-.21q1.02 0 1.605.285.6.285.855.915.27.63.27 1.695v4.95h.93v.555q-.825.225-1.395.225-.36 0-.495-.12-.135-.105-.135-.51v-.555q-.54.48-1.185.855-.63.36-1.44.36-1.08 0-1.8-.6-.705-.6-.705-1.755zm2.955 1.47q.42 0 1.005-.27t1.065-.645v-2.655q-1.815.015-2.76.54-.93.525-.93 1.41 0 .855.435 1.245.435.375 1.185.375z"/><path d="m401.43015-168.00445q-.81 0-.81-.855 0-.435.255-.705.255-.285.69-.285.45 0 .645.255.195.24.195.6 0 .465-.255.735-.24.255-.705.255zm-.48 2.565-1.17-.255v-.675l2.055-.24h.03l.3.24v7.515l1.305.105v.645h-3.84v-.645l1.32-.12z"/><path d="m405.76514-159.28945q.165.255.69.45t1.125.195q1.83 0 1.83-1.35 0-.615-.51-.99-.51-.39-1.74-.855-1.215-.435-1.77-1.035t-.555-1.605q0-.645.39-1.125.405-.48 1.065-.735.675-.27 1.455-.27.765 0 1.275.135.525.135 1.035.33v1.785h-.735l-.27-1.095q-.105-.195-.54-.33-.42-.135-.93-.135-.72 0-1.17.33-.45.315-.45.855 0 .48.225.795t.555.51q.33.18.915.42l.285.12q.855.33 1.38.63.525.285.87.765.345.465.345 1.17 0 1.11-.855 1.755-.84.63-2.25.63-.645 0-1.47-.21t-1.23-.42v-1.89h.81z"/><path d="m419.1751-157.93945q-1.74 0-2.685-1.185-.93-1.2-.93-3.18 0-1.275.495-2.265t1.365-1.53q.885-.555 1.98-.555 1.335 0 2.07.765.75.765.81 2.205 0 .93-.09 1.32h-5.34q0 1.575.705 2.58.72.99 2.01.99.63 0 1.29-.225t1.02-.54l.24.555q-.435.45-1.275.765-.825.3-1.665.3zm1.755-5.13q.045-.315.045-.66-.015-.99-.48-1.575-.45-.585-1.395-.585-2.055 0-2.235 2.82z"/><path d="m428.41507-159.28945q.165.255.69.45t1.125.195q1.83 0 1.83-1.35 0-.615-.51-.99-.51-.39-1.74-.855-1.215-.435-1.77-1.035t-.555-1.605q0-.645.39-1.125.405-.48 1.065-.735.675-.27 1.455-.27.765 0 1.275.135.525.135 1.035.33v1.785h-.735l-.27-1.095q-.105-.195-.54-.33-.42-.135-.93-.135-.72 0-1.17.33-.45.315-.45.855 0 .48.225.795t.555.51q.33.18.915.42l.285.12q.855.33 1.38.63.525.285.87.765.345.465.345 1.17 0 1.11-.855 1.755-.84.63-2.25.63-.645 0-1.47-.21t-1.23-.42v-1.89h.81z"/><path d="m434.62507-162.31945q0-1.305.54-2.295.555-.99 1.44-1.515.9-.525 1.875-.525 1.89 0 2.79 1.23.915 1.23.915 3.15 0 1.305-.555 2.295-.54.99-1.44 1.515-.885.525-1.86.525-1.89 0-2.805-1.23-.9-1.23-.9-3.15zm3.78 3.6q1.155 0 1.785-.885t.63-2.58q0-1.62-.585-2.655t-1.815-1.035q-1.155 0-1.8.885-.63.885-.63 2.58 0 1.635.585 2.67.6 1.02 1.83 1.02z"/><path d="m443.38506-162.21445q0-1.215.465-2.22.48-1.02 1.41-1.62.945-.6 2.295-.6.585 0 1.14.15.555.135.96.3l-.06 2.145h-.75l-.315-1.44q-.09-.45-1.29-.45-1.17 0-1.875.9-.69.9-.69 2.46 0 1.86.75 2.82t1.95.96q.63 0 1.215-.21.6-.21.99-.48l.24.495q-.435.435-1.2.75t-1.515.315q-1.185 0-2.025-.555-.84-.57-1.275-1.53-.42-.975-.42-2.19z"/><path d="m452.94004-168.00445q-.81 0-.81-.855 0-.435.255-.705.255-.285.69-.285.45 0 .645.255.195.24.195.6 0 .465-.255.735-.24.255-.705.255zm-.48 2.565-1.17-.255v-.675l2.055-.24h.03l.3.24v7.515l1.305.105v.645h-3.84v-.645l1.32-.12z"/><path d="m456.13503-160.29445q0-1.455 1.44-2.1 1.44-.66 3.585-.705v-.465q0-.765-.165-1.2-.15-.45-.54-.645-.39-.21-1.095-.21-.765 0-1.395.24-.615.225-1.2.555l-.33-.66q.165-.15.69-.42t1.2-.48 1.305-.21q1.02 0 1.605.285.6.285.855.915.27.63.27 1.695v4.95h.93v.555q-.825.225-1.395.225-.36 0-.495-.12-.135-.105-.135-.51v-.555q-.54.48-1.185.855-.63.36-1.44.36-1.08 0-1.8-.6-.705-.6-.705-1.755zm2.955 1.47q.42 0 1.005-.27t1.065-.645v-2.655q-1.815.015-2.76.54-.93.525-.93 1.41 0 .855.435 1.245.435.375 1.185.375z"/><path d="m465.63001-169.44445-1.275-.135v-.555l2.19-.255h.015l.285.195v11.34l1.41.105v.645h-3.945v-.645l1.32-.12z"/><path d="m471.09-168.00445q-.81 0-.81-.855 0-.435.255-.705.255-.285.69-.285.45 0 .645.255.195.24.195.6 0 .465-.255.735-.24.255-.705.255zm-.48 2.565-1.17-.255v-.675l2.055-.24h.03l.3.24v7.515l1.305.105v.645h-3.84v-.645l1.32-.12z"/><path d="m475.42499-159.28945q.165.255.69.45t1.125.195q1.83 0 1.83-1.35 0-.615-.51-.99-.51-.39-1.74-.855-1.215-.435-1.77-1.035t-.555-1.605q0-.645.39-1.125.405-.48 1.065-.735.675-.27 1.455-.27.765 0 1.275.135.525.135 1.035.33v1.785h-.735l-.27-1.095q-.105-.195-.54-.33-.42-.135-.93-.135-.72 0-1.17.33-.45.315-.45.855 0 .48.225.795t.555.51q.33.18.915.42l.285.12q.855.33 1.38.63.525.285.87.765.345.465.345 1.17 0 1.11-.855 1.755-.84.63-2.25.63-.645 0-1.47-.21t-1.23-.42v-1.89h.81z"/><path d="m484.22999-157.93945q-.795 0-1.2-.36-.405-.375-.405-1.32v-5.925h-1.14v-.585q.75-.165.87-.24.225-.12.33-.465.09-.225.24-.81t.225-.915h.69v2.13h2.655v.885h-2.655v4.86q0 .87.06 1.23.06.345.24.45t.63.105q.435 0 .975-.12t.81-.255l.195.57q-.345.27-1.14.525-.795.24-1.38.24z"/><path d="m487.81499-160.29445q0-1.455 1.44-2.1 1.44-.66 3.585-.705v-.465q0-.765-.165-1.2-.15-.45-.54-.645-.39-.21-1.095-.21-.765 0-1.395.24-.615.225-1.2.555l-.33-.66q.165-.15.69-.42t1.2-.48 1.305-.21q1.02 0 1.605.285.6.285.855.915.27.63.27 1.695v4.95h.93v.555q-.825.225-1.395.225-.36 0-.495-.12-.135-.105-.135-.51v-.555q-.54.48-1.185.855-.63.36-1.44.36-1.08 0-1.8-.6-.705-.6-.705-1.755zm2.955 1.47q.42 0 1.005-.27t1.065-.645v-2.655q-1.815.015-2.76.54-.93.525-.93 1.41 0 .855.435 1.245.435.375 1.185.375z"/><path d="m497.30994-159.28945q.165.255.69.45t1.125.195q1.83 0 1.83-1.35 0-.615-.51-.99-.51-.39-1.74-.855-1.215-.435-1.77-1.035t-.555-1.605q0-.645.39-1.125.405-.48 1.065-.735.675-.27 1.455-.27.765 0 1.275.135.525.135 1.035.33v1.785h-.735l-.27-1.095q-.105-.195-.54-.33-.42-.135-.93-.135-.72 0-1.17.33-.45.315-.45.855 0 .48.225.795t.555.51q.33.18.915.42l.285.12q.855.33 1.38.63.525.285.87.765.345.465.345 1.17 0 1.11-.855 1.755-.84.63-2.25.63-.645 0-1.47-.21t-1.23-.42v-1.89h.81z"/><path d="m510.37493-157.93945q-.885 0-1.635-.45-.75-.465-1.2-1.395t-.45-2.28q0-1.29.525-2.325.525-1.05 1.485-1.65.975-.615 2.265-.615.825 0 1.59.18v-2.97l-1.56-.15v-.54l2.46-.255h.03l.285.21v11.4h.915v.585q-.075.015-.51.12t-.93.105q-.345 0-.495-.12-.135-.12-.135-.525v-.525q-.465.51-1.14.855-.66.345-1.5.345zm.495-.945q.645 0 1.215-.3.585-.315.87-.69v-5.52q-.12-.21-.63-.36-.495-.15-1.065-.15-1.29 0-2.07.93-.78.915-.78 2.79 0 1.68.69 2.49t1.77.81z"/><path d="m516.34492-162.31945q0-1.305.54-2.295.555-.99 1.44-1.515.9-.525 1.875-.525 1.89 0 2.79 1.23.915 1.23.915 3.15 0 1.305-.555 2.295-.54.99-1.44 1.515-.885.525-1.86.525-1.89 0-2.805-1.23-.9-1.23-.9-3.15zm3.78 3.6q1.155 0 1.785-.885t.63-2.58q0-1.62-.585-2.655t-1.815-1.035q-1.155 0-1.8.885-.63.885-.63 2.58 0 1.635.585 2.67.6 1.02 1.83 1.02z"/><path d="m530.0549-159.28945q.165.255.69.45t1.125.195q1.83 0 1.83-1.35 0-.615-.51-.99-.51-.39-1.74-.855-1.215-.435-1.77-1.035t-.555-1.605q0-.645.39-1.125.405-.48 1.065-.735.675-.27 1.455-.27.765 0 1.275.135.525.135 1.035.33v1.785h-.735l-.27-1.095q-.105-.195-.54-.33-.42-.135-.93-.135-.72 0-1.17.33-.45.315-.45.855 0 .48.225.795t.555.51q.33.18.915.42l.285.12q.855.33 1.38.63.525.285.87.765.345.465.345 1.17 0 1.11-.855 1.755-.84.63-2.25.63-.645 0-1.47-.21t-1.23-.42v-1.89h.81z"/><path d="m539.9099-157.93945q-1.74 0-2.685-1.185-.93-1.2-.93-3.18 0-1.275.495-2.265t1.365-1.53q.885-.555 1.98-.555 1.335 0 2.07.765.75.765.81 2.205 0 .93-.09 1.32h-5.34q0 1.575.705 2.58.72.99 2.01.99.63 0 1.29-.225t1.02-.54l.24.555q-.435.45-1.275.765-.825.3-1.665.3zm1.755-5.13q.045-.315.045-.66-.015-.99-.48-1.575-.45-.585-1.395-.585-2.055 0-2.235 2.82zm-2.73-5.325 2.325-2.895 1.02.825q-.3.45-1.335 1.35-1.02.885-1.545 1.125z"/><path d="m544.19988-162.21445q0-1.215.465-2.22.48-1.02 1.41-1.62.945-.6 2.295-.6.585 0 1.14.15.555.135.96.3l-.06 2.145h-.75l-.315-1.44q-.09-.45-1.29-.45-1.17 0-1.875.9-.69.9-.69 2.46 0 1.86.75 2.82t1.95.96q.63 0 1.215-.21.6-.21.99-.48l.24.495q-.435.435-1.2.75t-1.515.315q-1.185 0-2.025-.555-.84-.57-1.275-1.53-.42-.975-.42-2.19z"/><path d="m558.86983-157.96945q-.39 0-.57-.135t-.18-.495v-.585q-.555.495-1.305.87t-1.5.375q-1.365 0-1.95-.765-.57-.765-.57-2.49v-4.41l-.885-.255v-.555l1.815-.195h.015l.27.18v5.055q0 .945.135 1.485.135.525.495.78t1.05.255q.66 0 1.26-.285t1.035-.675v-5.79l-1.14-.255v-.555l1.995-.195h.015l.345.18v7.665h.93l-.015.57q-.075.015-.435.12t-.81.105z"/><path d="m562.64981-169.44445-1.275-.135v-.555l2.19-.255h.015l.285.195v11.34l1.41.105v.645h-3.945v-.645l1.32-.12z"/><path d="m566.35481-162.31945q0-1.305.54-2.295.555-.99 1.44-1.515.9-.525 1.875-.525 1.89 0 2.79 1.23.915 1.23.915 3.15 0 1.305-.555 2.295-.54.99-1.44 1.515-.885.525-1.86.525-1.89 0-2.805-1.23-.9-1.23-.9-3.15zm3.78 3.6q1.155 0 1.785-.885t.63-2.58q0-1.62-.585-2.655t-1.815-1.035q-1.155 0-1.8.885-.63.885-.63 2.58 0 1.635.585 2.67.6 1.02 1.83 1.02z"/><path d="m582.85479-163.74445-3.165-4.68-1.155-.18v-.645h4.2v.645l-1.53.18 2.52 4.035 2.49-4.05-1.35-.165v-.645h3.585v.645l-1.185.18-3.135 4.53 3.405 5.01 1.2.135v.645h-4.185v-.645l1.47-.135-2.73-4.35-2.625 4.35 1.545.135v.645h-3.945v-.645l1.305-.135z"/><path d="m591.13479-168.43945-1.455-.165v-.645h4.155v.645l-1.455.165v9.555l1.455.15v.63h-4.155v-.645l1.455-.135z"/><path d="m599.42974-163.74445-3.165-4.68-1.155-.18v-.645h4.2v.645l-1.53.18 2.52 4.035 2.49-4.05-1.35-.165v-.645h3.585v.645l-1.185.18-3.135 4.53 3.405 5.01 1.2.135v.645h-4.185v-.645l1.47-.135-2.73-4.35-2.625 4.35 1.545.135v.645h-3.945v-.645l1.305-.135z"/><path d="m607.13974-157.93945q-.345 0-.585-.225-.24-.24-.24-.615 0-.42.285-.705.3-.285.69-.285.405 0 .6.24.21.24.21.6 0 .42-.285.705t-.675.285z"/></g><g stroke-width=".001969"><g transform="translate(-4.147072 3.320448)"><path d="m277.39526 300.24601c.93191-.80563 1.52247-1.93525 1.6513-3.16034.12881-1.22515-.21378-2.45394-.95771-3.43576-.78097-.98272-1.91204-1.62397-3.15628-1.78942-1.24423-.1654-2.38862.0581-3.39924.80252-.0789.0533-.20685.005-.28189-.0366-.0447-.0247-.1983-.23241-.34555-.41416-.12443.0773-.25887.17602-.31243.16558 0 0-.0301-.0699-.0395-.10662-.10628-.41541-.5196-.95212-.79733-1.27718-.15044-.17614-1.1051-1.13625-1.93723-2.14254-.46296-.55985-1.02521-1.43368-1.06206-1.47736-.14372-.17035-.0275-.31295-.0275-.31295s.17264-.158.26499-.2296c.0929-.072.2898-.20072.2898-.20072s.1657-.0766.29512.10489c.0332.0465.74053.80754 1.16807 1.3949.76845 1.05564 1.46193 2.2179 1.59522 2.40734.24606.34959.66382.88373 1.0399 1.0897.0332.0182.0941.0652.0941.0652-.003.0457-.11273.13013-.19961.21856.16057.16355.34484.40162.4545.2978 1.0481-.81505 2.37764-1.1798 3.69512-1.015 1.31746.16474 2.51493.84549 3.33002 1.8936.81509 1.04806 1.29138 2.3957 1.01578 3.69454-.31189 1.46985-.92805 2.87435-2.37763 3.46357z"/><path d="m273.27488 299.00343c-.0484-.0497-.0927-.10198-.13521-.15454l-3.34966-3.44255c-.0618-.0635-.0604-.16399.003-.2258l1.2277-1.19457c.0635-.0617.16403-.0604.22582.003l1.97537 2.03009c.55218-.45273 4.77531-4.88871 7.00733-7.0133.48582-.46248 1.53964-1.29555 1.53964-1.29555.12947-.12597.33463-.12448.46061.005l.13792.14174c.12598.1295.11672.32958-.006.46191 0 0-.92145 1.06591-1.43653 1.5446-2.18789 2.03332-6.68083 6.20531-7.10412 6.77072l.77572.7972c.19488.16867.38134.38666.47847.57509l1.23875 2.41015c.14303.27825.0375.38085-.23669.23034l-2.3754-1.30418c-.13714-.0753-.29043-.19964-.42652-.33949z"/></g><g transform="translate(-4.147046 -23.679489)"><path d="m277.39526 300.24601c.93191-.80563 1.52247-1.93525 1.6513-3.16034.12881-1.22515-.21378-2.45394-.95771-3.43576-.78097-.98272-1.91204-1.62397-3.15628-1.78942-1.24423-.1654-2.38862.0581-3.39924.80252-.0789.0533-.20685.005-.28189-.0366-.0447-.0247-.1983-.23241-.34555-.41416-.12443.0773-.25887.17602-.31243.16558 0 0-.0301-.0699-.0395-.10662-.10628-.41541-.5196-.95212-.79733-1.27718-.15044-.17614-1.1051-1.13625-1.93723-2.14254-.46296-.55985-1.02521-1.43368-1.06206-1.47736-.14372-.17035-.0275-.31295-.0275-.31295s.17264-.158.26499-.2296c.0929-.072.2898-.20072.2898-.20072s.1657-.0766.29512.10489c.0332.0465.74053.80754 1.16807 1.3949.76845 1.05564 1.46193 2.2179 1.59522 2.40734.24606.34959.66382.88373 1.0399 1.0897.0332.0182.0941.0652.0941.0652-.003.0457-.11273.13013-.19961.21856.16057.16355.34484.40162.4545.2978 1.0481-.81505 2.37764-1.1798 3.69512-1.015 1.31746.16474 2.51493.84549 3.33002 1.8936.81509 1.04806 1.29138 2.3957 1.01578 3.69454-.31189 1.46985-.92805 2.87435-2.37763 3.46357z"/><path d="m273.27488 299.00343c-.0484-.0497-.0927-.10198-.13521-.15454l-3.34966-3.44255c-.0618-.0635-.0604-.16399.003-.2258l1.2277-1.19457c.0635-.0617.16403-.0604.22582.003l1.97537 2.03009c.55218-.45273 4.77531-4.88871 7.00733-7.0133.48582-.46248 1.53964-1.29555 1.53964-1.29555.12947-.12597.33463-.12448.46061.005l.13792.14174c.12598.1295.11672.32958-.006.46191 0 0-.92145 1.06591-1.43653 1.5446-2.18789 2.03332-6.68083 6.20531-7.10412 6.77072l.77572.7972c.19488.16867.38134.38666.47847.57509l1.23875 2.41015c.14303.27825.0375.38085-.23669.23034l-2.3754-1.30418c-.13714-.0753-.29043-.19964-.42652-.33949z"/></g><g transform="translate(-4.147046 -50.759181)"><path d="m277.39526 300.24601c.93191-.80563 1.52247-1.93525 1.6513-3.16034.12881-1.22515-.21378-2.45394-.95771-3.43576-.78097-.98272-1.91204-1.62397-3.15628-1.78942-1.24423-.1654-2.38862.0581-3.39924.80252-.0789.0533-.20685.005-.28189-.0366-.0447-.0247-.1983-.23241-.34555-.41416-.12443.0773-.25887.17602-.31243.16558 0 0-.0301-.0699-.0395-.10662-.10628-.41541-.5196-.95212-.79733-1.27718-.15044-.17614-1.1051-1.13625-1.93723-2.14254-.46296-.55985-1.02521-1.43368-1.06206-1.47736-.14372-.17035-.0275-.31295-.0275-.31295s.17264-.158.26499-.2296c.0929-.072.2898-.20072.2898-.20072s.1657-.0766.29512.10489c.0332.0465.74053.80754 1.16807 1.3949.76845 1.05564 1.46193 2.2179 1.59522 2.40734.24606.34959.66382.88373 1.0399 1.0897.0332.0182.0941.0652.0941.0652-.003.0457-.11273.13013-.19961.21856.16057.16355.34484.40162.4545.2978 1.0481-.81505 2.37764-1.1798 3.69512-1.015 1.31746.16474 2.51493.84549 3.33002 1.8936.81509 1.04806 1.29138 2.3957 1.01578 3.69454-.31189 1.46985-.92805 2.87435-2.37763 3.46357z"/><path d="m273.27488 299.00343c-.0484-.0497-.0927-.10198-.13521-.15454l-3.34966-3.44255c-.0618-.0635-.0604-.16399.003-.2258l1.2277-1.19457c.0635-.0617.16403-.0604.22582.003l1.97537 2.03009c.55218-.45273 4.77531-4.88871 7.00733-7.0133.48582-.46248 1.53964-1.29555 1.53964-1.29555.12947-.12597.33463-.12448.46061.005l.13792.14174c.12598.1295.11672.32958-.006.46191 0 0-.92145 1.06591-1.43653 1.5446-2.18789 2.03332-6.68083 6.20531-7.10412 6.77072l.77572.7972c.19488.16867.38134.38666.47847.57509l1.23875 2.41015c.14303.27825.0375.38085-.23669.23034l-2.3754-1.30418c-.13714-.0753-.29043-.19964-.42652-.33949z"/></g><g transform="translate(-4.147046 -77.679367)"><path d="m277.39526 300.24601c.93191-.80563 1.52247-1.93525 1.6513-3.16034.12881-1.22515-.21378-2.45394-.95771-3.43576-.78097-.98272-1.91204-1.62397-3.15628-1.78942-1.24423-.1654-2.38862.0581-3.39924.80252-.0789.0533-.20685.005-.28189-.0366-.0447-.0247-.1983-.23241-.34555-.41416-.12443.0773-.25887.17602-.31243.16558 0 0-.0301-.0699-.0395-.10662-.10628-.41541-.5196-.95212-.79733-1.27718-.15044-.17614-1.1051-1.13625-1.93723-2.14254-.46296-.55985-1.02521-1.43368-1.06206-1.47736-.14372-.17035-.0275-.31295-.0275-.31295s.17264-.158.26499-.2296c.0929-.072.2898-.20072.2898-.20072s.1657-.0766.29512.10489c.0332.0465.74053.80754 1.16807 1.3949.76845 1.05564 1.46193 2.2179 1.59522 2.40734.24606.34959.66382.88373 1.0399 1.0897.0332.0182.0941.0652.0941.0652-.003.0457-.11273.13013-.19961.21856.16057.16355.34484.40162.4545.2978 1.0481-.81505 2.37764-1.1798 3.69512-1.015 1.31746.16474 2.51493.84549 3.33002 1.8936.81509 1.04806 1.29138 2.3957 1.01578 3.69454-.31189 1.46985-.92805 2.87435-2.37763 3.46357z"/><path d="m273.27488 299.00343c-.0484-.0497-.0927-.10198-.13521-.15454l-3.34966-3.44255c-.0618-.0635-.0604-.16399.003-.2258l1.2277-1.19457c.0635-.0617.16403-.0604.22582.003l1.97537 2.03009c.55218-.45273 4.77531-4.88871 7.00733-7.0133.48582-.46248 1.53964-1.29555 1.53964-1.29555.12947-.12597.33463-.12448.46061.005l.13792.14174c.12598.1295.11672.32958-.006.46191 0 0-.92145 1.06591-1.43653 1.5446-2.18789 2.03332-6.68083 6.20531-7.10412 6.77072l.77572.7972c.19488.16867.38134.38666.47847.57509l1.23875 2.41015c.14303.27825.0375.38085-.23669.23034l-2.3754-1.30418c-.13714-.0753-.29043-.19964-.42652-.33949z"/></g><g transform="translate(-4.147046 -131.67926)"><path d="m277.39526 300.24601c.93191-.80563 1.52247-1.93525 1.6513-3.16034.12881-1.22515-.21378-2.45394-.95771-3.43576-.78097-.98272-1.91204-1.62397-3.15628-1.78942-1.24423-.1654-2.38862.0581-3.39924.80252-.0789.0533-.20685.005-.28189-.0366-.0447-.0247-.1983-.23241-.34555-.41416-.12443.0773-.25887.17602-.31243.16558 0 0-.0301-.0699-.0395-.10662-.10628-.41541-.5196-.95212-.79733-1.27718-.15044-.17614-1.1051-1.13625-1.93723-2.14254-.46296-.55985-1.02521-1.43368-1.06206-1.47736-.14372-.17035-.0275-.31295-.0275-.31295s.17264-.158.26499-.2296c.0929-.072.2898-.20072.2898-.20072s.1657-.0766.29512.10489c.0332.0465.74053.80754 1.16807 1.3949.76845 1.05564 1.46193 2.2179 1.59522 2.40734.24606.34959.66382.88373 1.0399 1.0897.0332.0182.0941.0652.0941.0652-.003.0457-.11273.13013-.19961.21856.16057.16355.34484.40162.4545.2978 1.0481-.81505 2.37764-1.1798 3.69512-1.015 1.31746.16474 2.51493.84549 3.33002 1.8936.81509 1.04806 1.29138 2.3957 1.01578 3.69454-.31189 1.46985-.92805 2.87435-2.37763 3.46357z"/><path d="m273.27488 299.00343c-.0484-.0497-.0927-.10198-.13521-.15454l-3.34966-3.44255c-.0618-.0635-.0604-.16399.003-.2258l1.2277-1.19457c.0635-.0617.16403-.0604.22582.003l1.97537 2.03009c.55218-.45273 4.77531-4.88871 7.00733-7.0133.48582-.46248 1.53964-1.29555 1.53964-1.29555.12947-.12597.33463-.12448.46061.005l.13792.14174c.12598.1295.11672.32958-.006.46191 0 0-.92145 1.06591-1.43653 1.5446-2.18789 2.03332-6.68083 6.20531-7.10412 6.77072l.77572.7972c.19488.16867.38134.38666.47847.57509l1.23875 2.41015c.14303.27825.0375.38085-.23669.23034l-2.3754-1.30418c-.13714-.0753-.29043-.19964-.42652-.33949z"/></g></g><g stroke-width=".749999" transform="scale(1 -1)"><path d="m271.46487-341.6376q.98279 0 1.48679-.1512t.7308-.5796q.2268-.4536.2268-1.3356v-15.72473h4.51078v15.92633q0 1.7388-.4284 2.82239-.4284 1.0836-1.48679 1.63799-1.0332.5544-2.84759.5544h-2.19239z"/><path d="m284.444-359.42873h9.17277v3.07438h-4.66199v5.06518h3.55319v3.12479h-3.55319v6.09838h4.71239v3.04918h-9.22317z"/><path d="m301.58111-359.42873h5.14078l3.80518 20.41191h-4.15798l-.6804-4.30918h-2.99878l-.7056 4.30918h-4.25878zm3.67919 13.40634-1.0836-7.96317-1.0836 7.96317z"/><path d="m315.59343-359.42873h3.17519l4.18318 9.82796v-9.82796h3.72959v20.41191h-3.04919l-4.18318-10.58395v10.58395h-3.85559z"/><path d="m332.83135-349.17237h6.52677v2.62078h-6.52677z"/><path d="m344.27331-341.6376q.98279 0 1.48679-.1512t.7308-.5796q.2268-.4536.2268-1.3356v-15.72473h4.51078v15.92633q0 1.7388-.4284 2.82239-.4284 1.0836-1.48679 1.63799-1.0332.5544-2.84759.5544h-2.19239z"/><path d="m360.12523-359.42873h5.14078l3.80518 20.41191h-4.15798l-.6804-4.30918h-2.99878l-.7056 4.30918h-4.25878zm3.67919 13.40634-1.0836-7.96317-1.0836 7.96317z"/><path d="m379.65632-338.71442q-3.32639 0-4.73758-1.73879-1.38599-1.76399-1.38599-5.06518v-7.35837q0-3.37679 1.38599-5.09038 1.38599-1.73879 4.73758-1.73879 3.20039 0 4.53598 1.53719 1.3356 1.53719 1.3356 4.35958v1.764h-4.40998v-2.0412q0-1.18439-.252-1.81439t-1.2096-.63q-.95759 0-1.25999.6804-.3024.6552-.3024 1.83959v9.60117q0 1.20959.3024 1.86479.3276.63 1.25999.63.9324 0 1.1844-.63.2772-.6552.2772-1.86479v-2.142h4.40998v1.764q0 2.87279-1.3356 4.48558-1.33559 1.58759-4.53598 1.58759z"/><path d="m401.45544-335.01003q-.9072-.378-2.16719-1.4868-1.26-1.08359-2.01599-2.24279-.126.0252-.4284.0252-3.30119 0-4.71238-1.68839-1.4112-1.71359-1.4112-5.03998v-7.58517q0-3.32639 1.4112-4.98958 1.41119-1.68839 4.71238-1.68839 3.32639 0 4.73758 1.68839 1.4364 1.68839 1.4364 4.98958v7.58517q0 2.24279-.6552 3.75479-.63 1.48679-2.04119 2.21759 1.28519 1.38599 2.09159 1.78919zm-4.61158-6.90477q.9576 0 1.25999-.63.3024-.6552.3024-1.76399v-9.82796q0-1.134-.3024-1.764-.30239-.63-1.25999-.63t-1.2348.63q-.27719.6048-.27719 1.764v9.82796q0 1.10879.27719 1.76399.2772.63 1.2348.63z"/><path d="m414.66136-338.71442q-2.29319 0-3.62878-.73079-1.3356-.756-1.88999-2.19239-.5292-1.4616-.5292-3.70439v-14.08674h4.46038v14.76714q0 1.23479.3024 1.96559.3276.7308 1.28519.7308.9576 0 1.26-.7308t.3024-1.96559v-14.76714h4.48558v14.08674q0 2.24279-.5544 3.70439-.5544 1.43639-1.88999 2.19239-1.31039.73079-3.60359.73079z"/><path d="m426.58211-359.42873h9.17276v3.07438h-4.66198v5.06518h3.55319v3.12479h-3.55319v6.09838h4.71238v3.04918h-9.22316z"/><path d="m446.26441-338.71442q-2.92318 0-4.35958-1.53719-1.41119-1.56239-1.51199-4.93918l3.85558-.5796q.0252 1.94039.4536 2.79719.4536.8316 1.3356.8316 1.13399 0 1.13399-1.4868 0-1.18439-.5544-2.04119-.52919-.8568-1.68839-1.83959l-1.76399-1.5372q-1.3104-1.10879-2.04119-2.34359-.7056-1.25999-.7056-2.97358 0-2.57039 1.51199-3.95639 1.5372-1.38599 4.20839-1.38599 2.89798 0 3.93118 1.68839 1.0584 1.68839 1.13399 4.10758l-3.88078.4788q-.0504-1.58759-.3024-2.26799-.2268-.7056-1.03319-.7056-.5796 0-.9072.504-.3024.4788-.3024 1.0836 0 1.03319.4536 1.73879.4788.7056 1.51199 1.61279l1.6884 1.4868q1.51199 1.28519 2.34359 2.72159.83159 1.43639.83159 3.40198 0 1.4364-.68039 2.62079-.6552 1.1592-1.8648 1.8396-1.20959.68039-2.79719.68039z"/><path d="m466.25032-359.42873h5.61958q3.35159 0 5.06518 1.18439 1.71359 1.1844 1.71359 4.20838 0 2.0412-.5292 3.25079-.52919 1.2096-1.96559 1.88999l2.79719 9.87836h-4.66198l-2.24279-9.14756h-1.2852v9.14756h-4.51078zm5.77078 8.66876q1.36079 0 1.88999-.7056.5544-.73079.5544-2.16719 0-1.38599-.504-2.06639-.504-.7056-1.73879-.7056h-1.4616v5.64478z"/><path d="m490.01496-338.71442q-3.30119 0-4.71238-1.68839-1.4112-1.71359-1.4112-5.03998v-7.58517q0-3.32639 1.4112-4.98958 1.41119-1.68839 4.71238-1.68839 3.32638 0 4.73758 1.68839 1.43639 1.68839 1.43639 4.98958v7.58517q0 3.32639-1.43639 5.03998-1.4112 1.68839-4.73758 1.68839zm0-3.20038q.95759 0 1.25999-.63.3024-.6552.3024-1.76399v-9.82796q0-1.134-.3024-1.764t-1.25999-.63q-.9072 0-1.2096.6552-.3024.63-.3024 1.7388v9.82796q0 1.10879.2772 1.76399.2772.63 1.2348.63z"/><path d="m507.83246-338.71442q-2.29319 0-3.62878-.73079-1.3356-.756-1.89-2.19239-.52919-1.4616-.52919-3.70439v-14.08674h4.46038v14.76714q0 1.23479.3024 1.96559.3276.7308 1.28519.7308.9576 0 1.26-.7308t.3024-1.96559v-14.76714h4.48558v14.08674q0 2.24279-.5544 3.70439-.5544 1.43639-1.88999 2.19239-1.3104.73079-3.60359.73079z"/><path d="m525.1712-338.71442q-2.92319 0-4.35958-1.53719-1.4112-1.56239-1.512-4.93918l3.85559-.5796q.0252 1.94039.45359 2.79719.4536.8316 1.3356.8316 1.13399 0 1.13399-1.4868 0-1.18439-.55439-2.04119-.5292-.8568-1.6884-1.83959l-1.76399-1.5372q-1.31039-1.10879-2.04119-2.34359-.7056-1.25999-.7056-2.97358 0-2.57039 1.512-3.95639 1.53719-1.38599 4.20838-1.38599 2.89799 0 3.93118 1.68839 1.0584 1.68839 1.134 4.10758l-3.88079.4788q-.0504-1.58759-.30239-2.26799-.2268-.7056-1.0332-.7056-.5796 0-.9072.504-.3024.4788-.3024 1.0836 0 1.03319.4536 1.73879.4788.7056 1.512 1.61279l1.68839 1.4868q1.51199 1.28519 2.34359 2.72159.8316 1.43639.8316 3.40198 0 1.4364-.6804 2.62079-.6552 1.1592-1.86479 1.8396-1.2096.68039-2.79719.68039z"/><path d="m540.72071-338.71442q-2.92318 0-4.35958-1.53719-1.41119-1.56239-1.51199-4.93918l3.85558-.5796q.0252 1.94039.4536 2.79719.4536.8316 1.33559.8316 1.134 0 1.134-1.4868 0-1.18439-.5544-2.04119-.5292-.8568-1.68839-1.83959l-1.76399-1.5372q-1.3104-1.10879-2.0412-2.34359-.70559-1.25999-.70559-2.97358 0-2.57039 1.51199-3.95639 1.53719-1.38599 4.20838-1.38599 2.89799 0 3.93119 1.68839 1.05839 1.68839 1.13399 4.10758l-3.88078.4788q-.0504-1.58759-.3024-2.26799-.2268-.7056-1.0332-.7056-.57959 0-.90719.504-.3024.4788-.3024 1.0836 0 1.03319.4536 1.73879.4788.7056 1.51199 1.61279l1.68839 1.4868q1.512 1.28519 2.3436 2.72159.83159 1.43639.83159 3.40198 0 1.4364-.6804 2.62079-.65519 1.1592-1.86479 1.8396-1.20959.68039-2.79719.68039z"/><path d="m551.25549-359.42873h9.17277v3.07438h-4.66198v5.06518h3.55318v3.12479h-3.55318v6.09838h4.71238v3.04918h-9.22317z"/><path d="m568.3926-359.42873h5.14077l3.80519 20.41191h-4.15798l-.6804-4.30918h-2.99879l-.7056 4.30918h-4.25878zm3.67918 13.40634-1.0836-7.96317-1.08359 7.96317z"/><path d="m588.10005-338.71442q-2.29319 0-3.62878-.73079-1.3356-.756-1.88999-2.19239-.5292-1.4616-.5292-3.70439v-14.08674h4.46038v14.76714q0 1.23479.3024 1.96559.3276.7308 1.28519.7308.9576 0 1.26-.7308t.3024-1.96559v-14.76714h4.48558v14.08674q0 2.24279-.5544 3.70439-.55439 1.43639-1.88999 2.19239-1.31039.73079-3.60359.73079z"/></g></g></g></svg>