<?xml version="1.0" encoding="UTF-8"?>

<svg width="960" height="540" version="1.1" viewBox="0 0 960 540" xml:space="preserve" xmlns="http://www.w3.org/2000/svg"><defs><clipPath id="a"><path d="m0 0h365760v205740h-365760z"/></clipPath></defs><g transform="matrix(1.3333333,0,0,-1.3333333,0,540)"><g transform="matrix(1,0,0,-1,0,405)"><g transform="scale(.0019685)"><g clip-path="url(#a)"><path d="m16589 17801h336708v22908h-336708z" fill-opacity="0"/><g transform="scale(381)"><g transform="translate(43.540684,46.721786)"><g transform="translate(9,41.255997)" fill="#ed4e38" aria-label="SOCIALISMO CIENTÍFICO "><path d="m9.2399996 0.40319998q-3.8975998 0-5.8127998-2.04959988-1.8815999-2.0831999-2.0159999-6.5855997l5.1407998-0.7728q0.0336 2.5871999 0.6048 3.7295998 0.6047999 1.1088 1.7807999 1.1088 1.5120004 0 1.5120004-1.9823999 0-1.5791999-0.7392004-2.7215999-0.7056-1.1424004-2.2511999-2.4527994l-2.3519999-2.0496q-1.7472-1.4784-2.7215999-3.1248-0.9408-1.68-0.9408-3.9648 0-3.4272 2.0159999-5.2752 2.0495999-1.848 5.6111998-1.848 3.8639994 0 5.2415994 2.2512 1.4112 2.2512 1.512 5.4768l-5.174399 0.6384q-0.0672-2.1168-0.4032-3.024-0.3024005-0.9408-1.3776004-0.9408-0.7728 0-1.2095999 0.672-0.4032 0.6384-0.4032 1.4448 0 1.3776 0.6047999 2.3184 0.6384 0.9408 2.016 2.1504l2.2511994 1.9824q2.016 1.7136 3.1248 3.628799 1.1088 1.9152004 1.1088 4.5360003 0 1.9151999-0.9072 3.4943998-0.8736 1.5456-2.4864 2.45279992-1.6128 0.90719996-3.7295994 0.90719996z"/><path d="m31.081604 0.40319998q-4.401599 0-6.283199-2.25119988-1.8816-2.2847999-1.8816-6.7199997v-10.1135994q0-4.4352 1.8816-6.6528 1.8816-2.2512 6.283199-2.2512 4.4352 0 6.3168 2.2512 1.9152 2.2512 1.9152 6.6528v10.1135994q0 4.4351998-1.9152 6.7199997-1.8816 2.25119988-6.3168 2.25119988zm0-4.26719978q1.2768 0 1.68-0.84 0.4032-0.8735999 0.4032-2.3519999v-13.1039993q0-1.512-0.4032-2.352t-1.68-0.84q-1.2096 0-1.6128 0.8736-0.4032 0.84-0.4032 2.3184v13.1039993q0 1.4784 0.3696 2.3519999 0.3696 0.84 1.6464 0.84z"/><path d="m54.771164 0.40319998q-4.435199 0-6.316799-2.31839988-1.848-2.3519999-1.848-6.7535997v-9.8111994q0-4.5024 1.848-6.7872 1.848-2.3184 6.316799-2.3184 4.2672 0 6.048 2.0496t1.7808 5.8128v2.352h-5.88v-2.7216q0-1.5792-0.336-2.4192t-1.6128-0.84-1.68 0.9072q-0.4032 0.8736-0.4032 2.4528v12.8015993q0 1.6128 0.4032 2.4863999 0.4368 0.84 1.68 0.84t1.5792-0.84q0.3696-0.8735999 0.3696-2.4863999v-2.8560003h5.88v2.3520003q0 3.8303999-1.7808 5.9807998-1.7808 2.11679988-6.048 2.11679988z"/><path d="m69.926362-27.215999h6.0144v27.215999h-6.0144z"/><path d="m87.836726-27.215999h6.854399l5.0736 27.215999h-5.544l-0.9072-5.7455997h-3.998399l-0.9408 5.7455997h-5.6784zm4.905599 17.8751994-1.444799-10.6175994-1.4448 10.6175994z"/><path d="m106.51989-27.215999h6.0144v23.1503992h6.2496v4.0655998h-12.264z"/><path d="m125.43826-27.215999h6.0144v27.215999h-6.0144z"/><path d="m146.74223 0.40319998q-3.8976 0-5.8128-2.04959988-1.8816-2.0831999-2.016-6.5855997l5.1408-0.7728q0.0336 2.5871999 0.6048 3.7295998 0.6048 1.1088 1.7808 1.1088 1.512 0 1.512-1.9823999 0-1.5791999-0.7392-2.7215999-0.7056-1.1424004-2.2512-2.4527994l-2.352-2.0496q-1.7472-1.4784-2.7216-3.1248-0.9408-1.68-0.9408-3.9648 0-3.4272 2.016-5.2752 2.0496-1.848 5.6112-1.848 3.864 0 5.2416 2.2512 1.4112 2.2512 1.512 5.4768l-5.1744 0.6384q-0.0672-2.1168-0.4032-3.024-0.3024-0.9408-1.3776-0.9408-0.7728 0-1.2096 0.672-0.4032 0.6384-0.4032 1.4448 0 1.3776 0.6048 2.3184 0.6384 0.9408 2.016 2.1504l2.2512 1.9824q2.016 1.7136 3.1248 3.628799 1.1088 1.9152004 1.1088 4.5360003 0 1.9151999-0.9072 3.4943998-0.8736 1.5456-2.4864 2.45279992-1.6128 0.90719996-3.7296 0.90719996z"/><path d="m160.88938-27.215999h6.4512l2.9904 15.8256 3.2256-15.8256h6.216l0.4704 27.215999h-4.2672l-0.504-18.110399-3.1584 18.110399h-3.7968l-3.36-18.244799-0.4032 18.244799h-4.3344z"/><path d="m195.96934 0.40319998q-4.4016 0-6.2832-2.25119988-1.8816-2.2847999-1.8816-6.7199997v-10.1135994q0-4.4352 1.8816-6.6528 1.8816-2.2512 6.2832-2.2512 4.4352 0 6.3168 2.2512 1.9152 2.2512 1.9152 6.6528v10.1135994q0 4.4351998-1.9152 6.7199997-1.8816 2.25119988-6.3168 2.25119988zm0-4.26719978q1.2768 0 1.68-0.84 0.4032-0.8735999 0.4032-2.3519999v-13.1039993q0-1.512-0.4032-2.352t-1.68-0.84q-1.2096 0-1.6128 0.8736-0.4032 0.84-0.4032 2.3184v13.1039993q0 1.4784 0.3696 2.3519999 0.3696 0.84 1.6464 0.84z"/><path d="m232.26046 0.40319998q-4.4352 0-6.3168-2.31839988-1.848-2.3519999-1.848-6.7535997v-9.8111994q0-4.5024 1.848-6.7872 1.848-2.3184 6.3168-2.3184 4.2672 0 6.048 2.0496t1.7808 5.8128v2.352h-5.88v-2.7216q0-1.5792-0.336-2.4192t-1.6128-0.84-1.68 0.9072q-0.4032 0.8736-0.4032 2.4528v12.8015993q0 1.6128 0.4032 2.4863999 0.4368 0.84 1.68 0.84t1.5792-0.84q0.3696-0.8735999 0.3696-2.4863999v-2.8560003h5.88v2.3520003q0 3.8303999-1.7808 5.9807998-1.7808 2.11679988-6.048 2.11679988z"/><path d="m247.41566-27.215999h6.0144v27.215999h-6.0144z"/><path d="m261.49561-27.215999h12.2304v4.0992h-6.216v6.7536h4.7376v4.1664h-4.7376v8.1311992h6.2832v4.0655998h-12.2976z"/><path d="m280.51478-27.215999h4.2336l5.5776 13.104v-13.104h4.9728v27.215999h-4.0656l-5.5776-14.111999v14.111999h-5.1408z"/><path d="m305.81716-22.747199h-4.0992v-4.4688h14.2128v4.4688h-4.0656v22.747199h-6.048z"/><path d="m322.34995-27.215999h6.0144v27.215999h-6.0144zm3.2928-8.903999h5.5776l-4.2336 6.753599h-3.4608z"/><path d="m336.42991-27.215999h11.76v4.0656h-5.7456v6.8544h5.0064v4.2h-5.0064v12.095999h-6.0144z"/><path d="m355.04585-27.215999h6.0144v27.215999h-6.0144z"/><path d="m376.92103 0.40319998q-4.4352 0-6.3168-2.31839988-1.848-2.3519999-1.848-6.7535997v-9.8111994q0-4.5024 1.848-6.7872 1.848-2.3184 6.3168-2.3184 4.2672 0 6.048 2.0496t1.7808 5.8128v2.352h-5.88v-2.7216q0-1.5792-0.336-2.4192t-1.6128-0.84-1.68 0.9072q-0.4032 0.8736-0.4032 2.4528v12.8015993q0 1.6128 0.4032 2.4863999 0.4368 0.84 1.68 0.84t1.5792-0.84q0.3696-0.8735999 0.3696-2.4863999v-2.8560003h5.88v2.3520003q0 3.8303999-1.7808 5.9807998-1.7808 2.11679988-6.048 2.11679988z"/><path d="m399.83781 0.40319998q-4.4016 0-6.2832-2.25119988-1.8816-2.2847999-1.8816-6.7199997v-10.1135994q0-4.4352 1.8816-6.6528 1.8816-2.2512 6.2832-2.2512 4.4352 0 6.3168 2.2512 1.9152 2.2512 1.9152 6.6528v10.1135994q0 4.4351998-1.9152 6.7199997-1.8816 2.25119988-6.3168 2.25119988zm0-4.26719978q1.2768 0 1.68-0.84 0.4032-0.8735999 0.4032-2.3519999v-13.1039993q0-1.512-0.4032-2.352t-1.68-0.84q-1.2096 0-1.6128 0.8736-0.4032 0.84-0.4032 2.3184v13.1039993q0 1.4784 0.3696 2.3519999 0.3696 0.84 1.6464 0.84z"/></g></g></g><path d="m16589 46099h329112v136656h-329112z" fill-opacity="0"/><g fill="#ed4e38" stroke-width="381"><g aria-label="Também chamado de "><path d="m40553.9 51524.439-1447.8 45.72-243.84 1546.86h-419.1l129.54-1935.48h4640.58l83.82 1935.48h-403.86l-213.36-1546.86-1470.66-45.72v4922.52l1089.66 68.58v327.66h-2743.2v-327.66l998.22-68.58z"/><path d="m43868.6 55730.679q0-739.14 731.52-1066.8 731.52-335.28 1821.18-358.14v-236.22q0-388.62-83.82-609.6-76.2-228.6-274.32-327.66-198.12-106.68-556.26-106.68-388.62 0-708.66 121.92-312.42 114.3-609.6 281.94l-167.64-335.28q83.82-76.2 350.52-213.36t609.6-243.84 662.94-106.68q518.16 0 815.34 144.78 304.8 144.78 434.34 464.82 137.16 320.04 137.16 861.06v2514.6h472.44v281.94q-419.1 114.3-708.66 114.3-182.88 0-251.46-60.96-68.58-53.34-68.58-259.08v-281.94q-274.32 243.84-601.98 434.34-320.04 182.88-731.52 182.88-548.64 0-914.4-304.8-358.14-304.8-358.14-891.54zm1501.14 746.76q213.36 0 510.54-137.16t541.02-327.66v-1348.74q-922.02 7.62-1402.08 274.32-472.44 266.7-472.44 716.28 0 434.34 220.98 632.46 220.98 190.5 601.98 190.5z"/><path d="m48059.6 56515.539 487.68-60.96v-3337.56l-586.74-129.54v-342.9l967.74-121.92 167.64 121.92v335.28l-7.62 190.5q281.94-243.84 739.14-449.58t830.58-205.74q411.48 0 655.32 137.16 251.46 137.16 381 426.72 236.22-198.12 685.8-381 457.2-182.88 838.2-182.88 480.06 0 739.14 182.88 266.7 182.88 373.38 563.88t106.68 1028.7v2164.08l579.12 60.96v327.66h-1706.88v-327.66l518.16-60.96v-2141.22q0-480.06-68.58-762t-266.7-426.72-579.12-144.78q-281.94 0-594.36 129.54-304.8 121.92-525.78 281.94 76.2 350.52 76.2 914.4v2148.84l579.12 60.96v327.66h-1744.98v-327.66l548.64-60.96v-2156.46q0-487.68-60.96-762-53.34-274.32-236.22-411.48t-541.02-137.16q-297.18 0-647.7 152.4-342.9 144.78-601.98 350.52v2964.18l541.02 60.96v327.66h-1645.92z"/><path d="m55199.542 50731.959 1112.52-129.54h15.24l144.78 106.68v2316.48q236.22-220.98 563.88-373.38 335.28-152.4 739.14-152.4 449.58 0 822.96 220.98 381 220.98 609.6 685.8 236.22 464.82 236.22 1165.86 0 655.32-266.7 1196.34-266.7 533.4-762 845.82t-1143 312.42q-472.44 0-899.16-99.06t-518.16-190.5v-5554.98l-655.32-68.58zm2324.1 2232.66q-320.04 0-601.98 152.4t-449.58 335.28v2819.4q53.34 121.92 297.18 198.12 251.46 68.58 556.26 68.58 655.32 0 1051.56-480.06 396.24-487.68 396.24-1424.94 0-838.2-358.14-1249.68-350.52-419.1-891.54-419.1z"/><path d="m61988.962 56927.019q-883.92 0-1363.98-601.98-472.44-609.6-472.44-1615.44 0-647.7 251.46-1150.62t693.42-777.24q449.58-281.94 1005.84-281.94 678.18 0 1051.56 388.62 381 388.62 411.48 1120.14 0 472.44-45.72 670.56h-2712.72q0 800.1 358.14 1310.64 365.76 502.92 1021.08 502.92 320.04 0 655.32-114.3t518.16-274.32l121.92 281.94q-220.98 228.6-647.7 388.62-419.1 152.4-845.82 152.4zm891.54-2606.04q22.86-160.02 22.86-335.28-7.62-502.92-243.84-800.1-228.6-297.18-708.66-297.18-1043.94 0-1135.38 1432.56zm-1386.84-2705.1 1181.1-1470.66 518.16 419.1q-152.4 228.6-678.18 685.8-518.16 449.58-784.86 571.5z"/><path d="m64244.479 56515.539 487.68-60.96v-3337.56l-586.74-129.54v-342.9l967.74-121.92 167.64 121.92v335.28l-7.62 190.5q281.94-243.84 739.14-449.58t830.58-205.74q411.48 0 655.32 137.16 251.46 137.16 381 426.72 236.22-198.12 685.8-381 457.2-182.88 838.2-182.88 480.06 0 739.14 182.88 266.7 182.88 373.38 563.88t106.68 1028.7v2164.08l579.12 60.96v327.66h-1706.88v-327.66l518.16-60.96v-2141.22q0-480.06-68.58-762t-266.7-426.72-579.12-144.78q-281.94 0-594.36 129.54-304.8 121.92-525.78 281.94 76.2 350.52 76.2 914.4v2148.84l579.12 60.96v327.66h-1744.98v-327.66l548.64-60.96v-2156.46q0-487.68-60.96-762-53.34-274.32-236.22-411.48t-541.02-137.16q-297.18 0-647.7 152.4-342.9 144.78-601.98 350.52v2964.18l541.02 60.96v327.66h-1645.92z"/><path d="m73472.299 54755.319q0-617.22 236.22-1127.76 243.84-518.16 716.28-822.96 480.06-304.8 1165.86-304.8 297.18 0 579.12 76.2 281.94 68.58 487.68 152.4l-30.48 1089.66h-381l-160.02-731.52q-45.72-228.6-655.32-228.6-594.36 0-952.5 457.2-350.52 457.2-350.52 1249.68 0 944.88 381 1432.56t990.6 487.68q320.04 0 617.22-106.68 304.8-106.68 502.92-243.84l121.92 251.46q-220.98 220.98-609.6 381t-769.62 160.02q-601.98 0-1028.7-281.94-426.72-289.56-647.7-777.24-213.36-495.3-213.36-1112.52z"/><path d="m77876.665 51082.479-678.18-68.58v-281.94l1127.76-129.54h15.24l144.78 99.06v1813.56l-15.24 632.46q243.84-220.98 685.8-426.72t868.68-205.74q480.06 0 746.76 182.88t373.38 571.5q106.68 381 106.68 1036.32v2148.84l556.26 60.96v327.66h-1706.88v-327.66l533.4-60.96v-2156.46q0-487.68-68.58-762-60.96-274.32-251.46-411.48t-556.26-137.16q-304.8 0-655.32 152.4-350.52 144.78-617.22 350.52v2964.18l563.88 60.96v327.66h-1653.54v-327.66l480.06-53.34z"/><path d="m82448.659 55730.679q0-739.14 731.52-1066.8 731.52-335.28 1821.18-358.14v-236.22q0-388.62-83.82-609.6-76.2-228.6-274.32-327.66-198.12-106.68-556.26-106.68-388.62 0-708.66 121.92-312.42 114.3-609.6 281.94l-167.64-335.28q83.82-76.2 350.52-213.36t609.6-243.84 662.94-106.68q518.16 0 815.34 144.78 304.8 144.78 434.34 464.82 137.16 320.04 137.16 861.06v2514.6h472.44v281.94q-419.1 114.3-708.66 114.3-182.88 0-251.46-60.96-68.58-53.34-68.58-259.08v-281.94q-274.32 243.84-601.98 434.34-320.04 182.88-731.52 182.88-548.64 0-914.4-304.8-358.14-304.8-358.14-891.54zm1501.14 746.76q213.36 0 510.54-137.16t541.02-327.66v-1348.74q-922.02 7.62-1402.08 274.32-472.44 266.7-472.44 716.28 0 434.34 220.98 632.46 220.98 190.5 601.98 190.5z"/><path d="m86639.663 56515.539 487.68-60.96v-3337.56l-586.74-129.54v-342.9l967.74-121.92 167.64 121.92v335.28l-7.62 190.5q281.94-243.84 739.14-449.58t830.58-205.74q411.48 0 655.32 137.16 251.46 137.16 381 426.72 236.22-198.12 685.8-381 457.2-182.88 838.2-182.88 480.06 0 739.14 182.88 266.7 182.88 373.38 563.88t106.68 1028.7v2164.08l579.12 60.96v327.66h-1706.88v-327.66l518.16-60.96v-2141.22q0-480.06-68.58-762t-266.7-426.72-579.12-144.78q-281.94 0-594.36 129.54-304.8 121.92-525.78 281.94 76.2 350.52 76.2 914.4v2148.84l579.12 60.96v327.66h-1744.98v-327.66l548.64-60.96v-2156.46q0-487.68-60.96-762-53.34-274.32-236.22-411.48t-541.02-137.16q-297.18 0-647.7 152.4-342.9 144.78-601.98 350.52v2964.18l541.02 60.96v327.66h-1645.92z"/><path d="m94191.081 55730.679q0-739.14 731.52-1066.8 731.52-335.28 1821.18-358.14v-236.22q0-388.62-83.82-609.6-76.2-228.6-274.32-327.66-198.12-106.68-556.26-106.68-388.62 0-708.66 121.92-312.42 114.3-609.6 281.94l-167.64-335.28q83.82-76.2 350.52-213.36t609.6-243.84 662.94-106.68q518.16 0 815.34 144.78 304.8 144.78 434.34 464.82 137.16 320.04 137.16 861.06v2514.6h472.44v281.94q-419.1 114.3-708.66 114.3-182.88 0-251.46-60.96-68.58-53.34-68.58-259.08v-281.94q-274.32 243.84-601.98 434.34-320.04 182.88-731.52 182.88-548.64 0-914.4-304.8-358.14-304.8-358.14-891.54zm1501.14 746.76q213.36 0 510.54-137.16t541.02-327.66v-1348.74q-922.02 7.62-1402.08 274.32-472.44 266.7-472.44 716.28 0 434.34 220.98 632.46 220.98 190.5 601.98 190.5z"/><path d="m100066.1 56927.019q-449.575 0-830.575-228.6-381-236.22-609.6-708.66t-228.6-1158.24q0-655.32 266.7-1181.1 266.7-533.4 754.38-838.2 495.3-312.42 1150.615-312.42 419.1 0 807.72 91.44v-1508.76l-792.48-76.2v-274.32l1249.68-129.54h15.24l144.78 106.68v5791.2h464.82v297.18q-38.1 7.62-259.08 60.96t-472.44 53.34q-175.26 0-251.46-60.96-68.58-60.96-68.58-266.7v-266.7q-236.22 259.08-579.12 434.34-335.28 175.26-762 175.26zm251.46-480.06q327.66 0 617.22-152.4 297.18-160.02 441.96-350.52v-2804.16q-60.96-106.68-320.04-182.88-251.46-76.2-541.02-76.2-655.315 0-1051.555 472.44-396.24 464.82-396.24 1417.32 0 853.44 350.52 1264.92t899.155 411.48z"/><path d="m103098.86 54701.979q0-662.94 274.32-1165.86 281.94-502.92 731.52-769.62 457.2-266.7 952.5-266.7 960.12 0 1417.32 624.84 464.82 624.84 464.82 1600.2 0 662.94-281.94 1165.86-274.32 502.92-731.52 769.62-449.58 266.7-944.88 266.7-960.12 0-1424.94-624.84-457.2-624.84-457.2-1600.2zm1920.24 1828.8q586.74 0 906.78-449.58t320.04-1310.64q0-822.96-297.18-1348.74t-922.02-525.78q-586.74 0-914.4 449.58-320.04 449.58-320.04 1310.64 0 830.58 297.18 1356.36 304.8 518.16 929.64 518.16z"/><path d="m111115.1 56927.019q-449.58 0-830.58-228.6-381-236.22-609.6-708.66t-228.6-1158.24q0-655.32 266.7-1181.1 266.7-533.4 754.38-838.2 495.3-312.42 1150.62-312.42 419.1 0 807.72 91.44v-1508.76l-792.48-76.2v-274.32l1249.68-129.54h15.24l144.78 106.68v5791.2h464.82v297.18q-38.1 7.62-259.08 60.96t-472.44 53.34q-175.26 0-251.46-60.96-68.58-60.96-68.58-266.7v-266.7q-236.22 259.08-579.12 434.34-335.28 175.26-762 175.26zm251.46-480.06q327.66 0 617.22-152.4 297.18-160.02 441.96-350.52v-2804.16q-60.96-106.68-320.04-182.88-251.46-76.2-541.02-76.2-655.32 0-1051.56 472.44-396.24 464.82-396.24 1417.32 0 853.44 350.52 1264.92t899.16 411.48z"/><path d="m115999.52 56927.019q-883.92 0-1363.98-601.98-472.44-609.6-472.44-1615.44 0-647.7 251.46-1150.62t693.42-777.24q449.58-281.94 1005.84-281.94 678.18 0 1051.56 388.62 381 388.62 411.48 1120.14 0 472.44-45.72 670.56h-2712.72q0 800.1 358.14 1310.64 365.76 502.92 1021.08 502.92 320.04 0 655.32-114.3t518.16-274.32l121.92 281.94q-220.98 228.6-647.7 388.62-419.1 152.4-845.82 152.4zm891.54-2606.04q22.86-160.02 22.86-335.28-7.62-502.92-243.84-800.1-228.6-297.18-708.66-297.18-1043.94 0-1135.38 1432.56z"/></g><g aria-label="Marxismo"><path d="m120921.95 51821.619-807.72-106.68v-533.4h2590.8l807.72 3185.16 182.88 845.82 152.4-845.82 800.1-3185.16h2575.56v533.4l-830.58 106.68 609.6 4434.84 586.74 83.82v502.92h-2567.94v-502.92l647.7-83.82-320.04-3284.22-137.16-1341.12-266.7 1219.2-998.22 3771.9h-998.22l-1066.8-3665.22-350.52-1333.5-91.44 1348.74-281.94 3284.22 777.24 83.82v502.92h-2202.18v-502.92l632.46-76.2z"/><path d="m127818.05 55623.999q0-670.56 678.18-1028.7 685.8-358.14 1798.32-365.76v-152.4q0-274.32-60.96-434.34t-220.98-236.22q-160.02-83.82-472.44-83.82-373.38 0-670.56 91.44-289.56 83.82-609.6 228.6l-259.08-548.64q121.92-99.06 396.24-236.22 274.32-144.78 655.32-243.84 388.62-106.68 807.72-106.68 609.6 0 952.5 160.02 350.52 160.02 495.3 495.3 152.4 335.28 152.4 914.4v2263.14h396.24v480.06q-175.26 38.1-487.68 76.2t-533.4 38.1q-289.56 0-388.62-83.82-91.44-83.82-91.44-335.28v-175.26q-190.5 228.6-510.54 411.48-320.04 175.26-739.14 175.26-358.14 0-655.32-152.4-289.56-160.02-464.82-449.58-167.64-297.18-167.64-701.04zm1882.14 601.98q137.16 0 304.8-76.2 167.64-83.82 289.56-198.12v-1211.58q-594.36 0-883.92 213.36-281.94 213.36-281.94 548.64 0 342.9 152.4 533.4t419.1 190.5z"/><path d="m132275.75 56340.279 464.82-68.58v-2865.12l-449.58-137.16v-594.36l1264.92-167.64h22.86l213.36 160.02v182.88l-22.86 632.46h22.86q53.34-175.26 243.84-403.86 190.5-236.22 480.06-403.86 297.18-175.26 640.08-175.26 198.12 0 304.8 53.34v1325.88q-121.92-91.44-266.7-144.78-137.16-53.34-358.14-53.34-274.32 0-495.3 76.2-220.98 68.58-350.52 160.02v2354.58l838.2 76.2v495.3h-2552.7z"/><path d="m137274.47 54778.179-1242.06-1600.2-381-83.82v-487.68h2377.44v487.68l-472.44 83.82 533.4 769.62 190.5 312.42 190.5-320.04 548.64-762-487.68-83.82v-487.68h1684.02v487.68l-426.72 83.82-1158.24 1432.56 1295.4 1661.16 411.48 76.2v495.3h-2362.2v-495.3l419.1-76.2-518.16-815.34-228.6-327.66-175.26 327.66-548.64 815.34 556.26 76.2v495.3h-1866.9v-495.3l472.44-76.2z"/><path d="m141503.57 51951.159q-297.18 0-480.06-175.26t-182.88-449.58q0-320.04 198.12-525.78 205.74-205.74 548.64-205.74t525.78 175.26 182.88 449.58q0 327.66-205.74 533.4-205.74 198.12-579.12 198.12zm-464.82 1455.42-510.54-144.78v-571.5l1524-182.88h15.24l236.22 160.02v3604.26l457.2 68.58v502.92h-2194.56v-502.92l472.44-68.58z"/><path d="m144239.15 56210.739q53.34 83.82 243.84 152.4 198.12 68.58 396.24 68.58 312.42 0 472.44-129.54 167.64-137.16 167.64-350.52 0-228.6-213.36-373.38-213.36-152.4-701.04-365.76l-289.56-129.54q-495.3-220.98-746.76-533.4-243.84-320.04-243.84-807.72 0-350.52 205.74-624.84 205.74-281.94 594.36-441.96t914.4-160.02q365.76 0 632.46 45.72t541.02 114.3q182.88 53.34 274.32 60.96v1036.32h-678.18l-198.12-586.74q-38.1-68.58-182.88-121.92-144.78-60.96-327.66-60.96-289.56 0-457.2 129.54-167.64 121.92-167.64 335.28 0 243.84 190.5 388.62 190.5 137.16 609.6 327.66l160.02 68.58q617.22 259.08 967.74 563.88 350.52 297.18 350.52 822.96 0 563.88-449.58 929.64-449.58 358.14-1325.88 358.14-403.86 0-716.28-68.58-312.42-60.96-685.8-167.64l-251.46-68.58v-1013.46h723.9z"/><path d="m147332.87 56340.279 403.86-68.58v-2865.12l-449.58-137.16v-594.36l1386.84-167.64 60.96 30.48 152.4 213.36v381q243.84-251.46 716.28-426.72 472.44-182.88 807.72-182.88 411.48 0 662.94 137.16 259.08 137.16 388.62 426.72 259.08-243.84 647.7-403.86 396.24-160.02 800.1-160.02 670.56 0 960.12 388.62 297.18 388.62 297.18 1272.54v2087.88l457.2 68.58v502.92h-2065.02v-502.92l342.9-68.58v-2057.4q0-548.64-129.54-762-121.92-213.36-457.2-213.36-350.52 0-731.52 297.18 45.72 281.94 45.72 647.7v2087.88l426.72 68.58v502.92h-2080.26v-502.92l381-68.58v-2080.26q0-541.02-121.92-746.76-114.3-205.74-441.96-205.74-213.36 0-426.72 99.06-205.74 91.44-358.14 228.6v2705.1l411.48 68.58v502.92h-2087.88z"/><path d="m155135.74 54747.699q0-731.52 289.56-1234.44 289.56-510.54 777.24-762 495.3-251.46 1082.04-251.46 960.12 0 1501.14 579.12 548.64 571.5 548.64 1600.2 0 754.38-289.56 1257.3t-777.24 746.76-1089.66 243.84q-952.5 0-1501.14-571.5-541.02-579.12-541.02-1607.82zm2118.36 1645.92q365.76 0 541.02-388.62 182.88-396.24 182.88-1234.44 0-891.54-175.26-1310.64-167.64-426.72-571.5-426.72-746.76 0-746.76 1623.06 0 883.92 182.88 1310.64t586.74 426.72z"/></g><g aria-label="por conta dos seus pensadores Friedrich Engels "><path d="m165895.16 54572.439q0 655.32-266.7 1196.34-266.7 533.4-762 845.82-487.68 312.42-1120.14 312.42-213.36 0-449.58-38.1-236.22-30.48-388.62-83.82l15.24 647.7v822.96l845.82 76.2v335.28h-2042.16v-335.28l586.74-76.2v-5158.74l-594.36-129.54v-342.9l975.36-121.92h15.24l137.16 121.92v464.82q243.84-251.46 594.36-426.72 350.52-182.88 784.86-182.88 441.96 0 822.96 220.98t609.6 685.8q236.22 464.82 236.22 1165.86zm-1920.24-1607.82q-327.66 0-609.6 137.16t-441.96 304.8v2903.22q60.96 99.06 304.8 182.88 251.46 76.2 548.64 76.2 655.32 0 1051.56-480.06 403.86-487.68 403.86-1432.56 0-845.82-358.14-1264.92-350.52-426.72-899.16-426.72z"/><path d="m166588.57 54701.979q0-662.94 274.32-1165.86 281.94-502.92 731.52-769.62 457.2-266.7 952.5-266.7 960.12 0 1417.32 624.84 464.82 624.84 464.82 1600.2 0 662.94-281.94 1165.86-274.32 502.92-731.52 769.62-449.58 266.7-944.88 266.7-960.12 0-1424.94-624.84-457.2-624.84-457.2-1600.2zm1920.24 1828.8q586.74 0 906.78-449.58t320.04-1310.64q0-822.96-297.18-1348.74t-922.02-525.78q-586.74 0-914.4 449.58-320.04 449.58-320.04 1310.64 0 830.58 297.18 1356.36 304.8 518.16 929.64 518.16z"/><path d="m171152.94 56523.159 609.6-45.72v-3360.42l-586.74-129.54v-342.9l967.74-121.92h15.24l144.78 121.92v121.92l-15.24 579.12h15.24q15.24-15.24 198.12-228.6 190.5-220.98 556.26-419.1 373.38-198.12 746.76-198.12 121.92 0 228.6 30.48v670.56q-30.48-22.86-137.16-45.72-99.06-22.86-213.36-22.86-434.34 0-739.14 129.54t-563.88 320.04v2887.98l1013.46 60.96v312.42h-2240.28z"/><path d="m176273.6 54755.319q0-617.22 236.22-1127.76 243.84-518.16 716.28-822.96 480.06-304.8 1165.86-304.8 297.18 0 579.12 76.2 281.94 68.58 487.68 152.4l-30.48 1089.66h-381l-160.02-731.52q-45.72-228.6-655.32-228.6-594.36 0-952.5 457.2-350.52 457.2-350.52 1249.68 0 944.88 381 1432.56t990.6 487.68q320.04 0 617.22-106.68 304.8-106.68 502.92-243.84l121.92 251.46q-220.98 220.98-609.6 381t-769.62 160.02q-601.98 0-1028.7-281.94-426.72-289.56-647.7-777.24-213.36-495.3-213.36-1112.52z"/><path d="m180235.99 54701.979q0-662.94 274.32-1165.86 281.94-502.92 731.52-769.62 457.2-266.7 952.5-266.7 960.12 0 1417.32 624.84 464.82 624.84 464.82 1600.2 0 662.94-281.94 1165.86-274.32 502.92-731.52 769.62-449.58 266.7-944.88 266.7-960.12 0-1424.94-624.84-457.2-624.84-457.2-1600.2zm1920.24 1828.8q586.74 0 906.78-449.58t320.04-1310.64q0-822.96-297.18-1348.74t-922.02-525.78q-586.74 0-914.4 449.58-320.04 449.58-320.04 1310.64 0 830.58 297.18 1356.36 304.8 518.16 929.64 518.16z"/><path d="m185249.94 53117.019-586.74-129.54v-342.9l967.74-121.92h22.86l144.78 121.92v335.28l-7.62 190.5q281.94-243.84 746.76-449.58t861.06-205.74q487.68 0 746.76 190.5 266.7 182.88 365.76 571.5 106.68 381 106.68 1028.7v2156.46l571.5 53.34v327.66h-1699.26v-327.66l510.54-53.34v-2164.08q0-480.06-68.58-754.38-60.96-274.32-251.46-411.48-182.88-144.78-541.02-144.78-304.8 0-662.94 152.4-350.52 152.4-609.6 358.14v2956.56l556.26 60.96v327.66h-1684.02v-327.66l510.54-60.96z"/><path d="m191064 56927.019q-403.86 0-609.6-182.88-205.74-190.5-205.74-670.56v-3009.9h-579.12v-297.18q381-83.82 441.96-121.92 114.3-60.96 167.64-236.22 45.72-114.3 121.92-411.48t114.3-464.82h350.52v1082.04h1348.74v449.58h-1348.74v2468.88q0 441.96 30.48 624.84 30.48 175.26 121.92 228.6t320.04 53.34q220.98 0 495.3-60.96t411.48-129.54l99.06 289.56q-175.26 137.16-579.12 266.7-403.86 121.92-701.04 121.92z"/><path d="m192885.18 55730.679q0-739.14 731.52-1066.8 731.52-335.28 1821.18-358.14v-236.22q0-388.62-83.82-609.6-76.2-228.6-274.32-327.66-198.12-106.68-556.26-106.68-388.62 0-708.66 121.92-312.42 114.3-609.6 281.94l-167.64-335.28q83.82-76.2 350.52-213.36t609.6-243.84 662.94-106.68q518.16 0 815.34 144.78 304.8 144.78 434.34 464.82 137.16 320.04 137.16 861.06v2514.6h472.44v281.94q-419.1 114.3-708.66 114.3-182.88 0-251.46-60.96-68.58-53.34-68.58-259.08v-281.94q-274.32 243.84-601.98 434.34-320.04 182.88-731.52 182.88-548.64 0-914.4-304.8-358.14-304.8-358.14-891.54zm1501.14 746.76q213.36 0 510.54-137.16t541.02-327.66v-1348.74q-922.02 7.62-1402.08 274.32-472.44 266.7-472.44 716.28 0 434.34 220.98 632.46 220.98 190.5 601.98 190.5z"/><path d="m200566.14 56927.019q-449.58 0-830.58-228.6-381-236.22-609.6-708.66t-228.6-1158.24q0-655.32 266.7-1181.1 266.7-533.4 754.38-838.2 495.3-312.42 1150.62-312.42 419.1 0 807.72 91.44v-1508.76l-792.48-76.2v-274.32l1249.68-129.54h15.24l144.78 106.68v5791.2h464.82v297.18q-38.1 7.62-259.08 60.96t-472.44 53.34q-175.26 0-251.46-60.96-68.58-60.96-68.58-266.7v-266.7q-236.22 259.08-579.12 434.34-335.28 175.26-762 175.26zm251.46-480.06q327.66 0 617.22-152.4 297.18-160.02 441.96-350.52v-2804.16q-60.96-106.68-320.04-182.88-251.46-76.2-541.02-76.2-655.32 0-1051.56 472.44-396.24 464.82-396.24 1417.32 0 853.44 350.52 1264.92t899.16 411.48z"/><path d="m203598.92 54701.979q0-662.94 274.32-1165.86 281.94-502.92 731.52-769.62 457.2-266.7 952.5-266.7 960.12 0 1417.32 624.84 464.82 624.84 464.82 1600.2 0 662.94-281.94 1165.86-274.32 502.92-731.52 769.62-449.58 266.7-944.88 266.7-960.12 0-1424.94-624.84-457.2-624.84-457.2-1600.2zm1920.24 1828.8q586.74 0 906.78-449.58t320.04-1310.64q0-822.96-297.18-1348.74t-922.02-525.78q-586.74 0-914.4 449.58-320.04 449.58-320.04 1310.64 0 830.58 297.18 1356.36 304.8 518.16 929.64 518.16z"/><path d="m208757.65 56241.219q83.82 129.54 350.52 228.6t571.5 99.06q929.64 0 929.64-685.8 0-312.42-259.08-502.92-259.08-198.12-883.92-434.34-617.22-220.98-899.16-525.78t-281.94-815.34q0-327.66 198.12-571.5 205.74-243.84 541.02-373.38 342.9-137.16 739.14-137.16 388.62 0 647.7 68.58 266.7 68.58 525.78 167.64v906.78h-373.38l-137.16-556.26q-53.34-99.06-274.32-167.64-213.36-68.58-472.44-68.58-365.76 0-594.36 167.64-228.6 160.02-228.6 434.34 0 243.84 114.3 403.86t281.94 259.08q167.64 91.44 464.82 213.36l144.78 60.96q434.34 167.64 701.04 320.04 266.7 144.78 441.96 388.62 175.26 236.22 175.26 594.36 0 563.88-434.34 891.54-426.72 320.04-1143 320.04-327.66 0-746.76-106.68t-624.84-213.36v-960.12h411.48z"/><path d="m214343.11 56241.219q83.83 129.54 350.53 228.6 266.69 99.06 571.5 99.06 929.63 0 929.63-685.8 0-312.42-259.07-502.92-259.09-198.12-883.93-434.34-617.22-220.98-899.16-525.78t-281.94-815.34q0-327.66 198.13-571.5 205.74-243.84 541.02-373.38 342.9-137.16 739.13-137.16 388.63 0 647.71 68.58 266.7 68.58 525.78 167.64v906.78h-373.39l-137.16-556.26q-53.34-99.06-274.31-167.64-213.36-68.58-472.44-68.58-365.76 0-594.37 167.64-228.6 160.02-228.6 434.34 0 243.84 114.31 403.86 114.29 160.02 281.94 259.08 167.63 91.44 464.81 213.36l144.79 60.96q434.34 167.64 701.03 320.04 266.71 144.78 441.97 388.62 175.25 236.22 175.25 594.36 0 563.88-434.33 891.54-426.72 320.04-1143 320.04-327.67 0-746.77-106.68-419.09-106.68-624.84-213.36v-960.12h411.49z"/><path d="m219349.45 56927.019q-883.92 0-1363.98-601.98-472.44-609.6-472.44-1615.44 0-647.7 251.46-1150.62t693.42-777.24q449.58-281.94 1005.84-281.94 678.18 0 1051.56 388.62 381 388.62 411.48 1120.14 0 472.44-45.72 670.56h-2712.72q0 800.1 358.14 1310.64 365.76 502.92 1021.08 502.92 320.04 0 655.32-114.3t518.16-274.32l121.92 281.94q-220.98 228.6-647.7 388.62-419.1 152.4-845.82 152.4zm891.54-2606.04q22.86-160.02 22.86-335.28-7.62-502.92-243.84-800.1-228.6-297.18-708.66-297.18-1043.94 0-1135.38 1432.56z"/><path d="m225102.55 56911.779q-198.12 0-289.56-68.58t-91.44-251.46v-297.18q-281.94 251.46-662.94 441.96t-762 190.5q-693.42 0-990.6-388.62-289.56-388.62-289.56-1264.92v-2240.28l-449.58-129.54v-281.94l922.02-99.06h7.62l137.16 91.44v2567.94q0 480.06 68.58 754.38 68.58 266.7 251.46 396.24t533.4 129.54q335.28 0 640.08-144.78t525.78-342.9v-2941.32l-579.12-129.54v-281.94l1013.46-99.06h7.62l175.26 91.44v3893.82h472.44l-7.62 289.56q-38.1 7.62-220.98 60.96t-411.48 53.34z"/><path d="m227022.79 56241.219q83.82 129.54 350.52 228.6t571.5 99.06q929.64 0 929.64-685.8 0-312.42-259.08-502.92-259.08-198.12-883.92-434.34-617.22-220.98-899.16-525.78t-281.94-815.34q0-327.66 198.12-571.5 205.74-243.84 541.02-373.38 342.9-137.16 739.14-137.16 388.62 0 647.7 68.58 266.7 68.58 525.78 167.64v906.78h-373.38l-137.16-556.26q-53.34-99.06-274.32-167.64-213.36-68.58-472.44-68.58-365.76 0-594.36 167.64-228.6 160.02-228.6 434.34 0 243.84 114.3 403.86t281.94 259.08q167.64 91.44 464.82 213.36l144.78 60.96q434.34 167.64 701.04 320.04 266.7 144.78 441.96 388.62 175.26 236.22 175.26 594.36 0 563.88-434.34 891.54-426.72 320.04-1143 320.04-327.66 0-746.76-106.68t-624.84-213.36v-960.12h411.48z"/><path d="m236044.88 54572.439q0 655.32-266.7 1196.34-266.7 533.4-762 845.82-487.68 312.42-1120.14 312.42-213.36 0-449.58-38.1-236.22-30.48-388.62-83.82l15.24 647.7v822.96l845.82 76.2v335.28h-2042.16v-335.28l586.74-76.2v-5158.74l-594.36-129.54v-342.9l975.36-121.92h15.24l137.16 121.92v464.82q243.84-251.46 594.36-426.72 350.52-182.88 784.86-182.88 441.96 0 822.96 220.98t609.6 685.8q236.22 464.82 236.22 1165.86zm-1920.24-1607.82q-327.66 0-609.6 137.16t-441.96 304.8v2903.22q60.96 99.06 304.8 182.88 251.46 76.2 548.64 76.2 655.32 0 1051.56-480.06 403.86-487.68 403.86-1432.56 0-845.82-358.14-1264.92-350.52-426.72-899.16-426.72z"/><path d="m238589.95 56927.019q-883.92 0-1363.98-601.98-472.44-609.6-472.44-1615.44 0-647.7 251.46-1150.62t693.42-777.24q449.58-281.94 1005.84-281.94 678.18 0 1051.56 388.62 381 388.62 411.48 1120.14 0 472.44-45.72 670.56h-2712.72q0 800.1 358.14 1310.64 365.76 502.92 1021.08 502.92 320.04 0 655.32-114.3t518.16-274.32l121.92 281.94q-220.98 228.6-647.7 388.62-419.1 152.4-845.82 152.4zm891.54-2606.04q22.86-160.02 22.86-335.28-7.62-502.92-243.84-800.1-228.6-297.18-708.66-297.18-1043.94 0-1135.38 1432.56z"/><path d="m241333.15 53117.019-586.74-129.54v-342.9l967.74-121.92h22.86l144.78 121.92v335.28l-7.62 190.5q281.94-243.84 746.76-449.58t861.06-205.74q487.68 0 746.76 190.5 266.7 182.88 365.76 571.5 106.68 381 106.68 1028.7v2156.46l571.5 53.34v327.66h-1699.26v-327.66l510.54-53.34v-2164.08q0-480.06-68.58-754.38-60.96-274.32-251.46-411.48-182.88-144.78-541.02-144.78-304.8 0-662.94 152.4-350.52 152.4-609.6 358.14v2956.56l556.26 60.96v327.66h-1684.02v-327.66l510.54-60.96z"/><path d="m246453.79 56241.219q83.82 129.54 350.52 228.6t571.5 99.06q929.64 0 929.64-685.8 0-312.42-259.08-502.92-259.08-198.12-883.92-434.34-617.22-220.98-899.16-525.78t-281.94-815.34q0-327.66 198.12-571.5 205.74-243.84 541.02-373.38 342.9-137.16 739.14-137.16 388.62 0 647.7 68.58 266.7 68.58 525.78 167.64v906.78h-373.38l-137.16-556.26q-53.34-99.06-274.32-167.64-213.36-68.58-472.44-68.58-365.76 0-594.36 167.64-228.6 160.02-228.6 434.34 0 243.84 114.3 403.86t281.94 259.08q167.64 91.44 464.82 213.36l144.78 60.96q434.34 167.64 701.04 320.04 266.7 144.78 441.96 388.62 175.26 236.22 175.26 594.36 0 563.88-434.34 891.54-426.72 320.04-1143 320.04-327.66 0-746.76-106.68t-624.84-213.36v-960.12h411.48z"/><path d="m249654.2 55730.679q0-739.14 731.52-1066.8 731.52-335.28 1821.18-358.14v-236.22q0-388.62-83.82-609.6-76.2-228.6-274.32-327.66-198.12-106.68-556.26-106.68-388.62 0-708.66 121.92-312.42 114.3-609.6 281.94l-167.64-335.28q83.82-76.2 350.52-213.36t609.6-243.84 662.94-106.68q518.16 0 815.34 144.78 304.8 144.78 434.34 464.82 137.16 320.04 137.16 861.06v2514.6h472.44v281.94q-419.1 114.3-708.66 114.3-182.88 0-251.46-60.96-68.58-53.34-68.58-259.08v-281.94q-274.32 243.84-601.98 434.34-320.04 182.88-731.52 182.88-548.64 0-914.4-304.8-358.14-304.8-358.14-891.54zm1501.14 746.76q213.36 0 510.54-137.16t541.02-327.66v-1348.74q-922.02 7.62-1402.08 274.32-472.44 266.7-472.44 716.28 0 434.34 220.98 632.46 220.98 190.5 601.98 190.5z"/><path d="m255529.21 56927.019q-449.58 0-830.58-228.6-381-236.22-609.6-708.66t-228.6-1158.24q0-655.32 266.7-1181.1 266.7-533.4 754.38-838.2 495.3-312.42 1150.62-312.42 419.1 0 807.72 91.44v-1508.76l-792.48-76.2v-274.32l1249.68-129.54h15.24l144.78 106.68v5791.2h464.82v297.18q-38.1 7.62-259.08 60.96t-472.44 53.34q-175.26 0-251.46-60.96-68.58-60.96-68.58-266.7v-266.7q-236.22 259.08-579.12 434.34-335.28 175.26-762 175.26zm251.46-480.06q327.66 0 617.22-152.4 297.18-160.02 441.96-350.52v-2804.16q-60.96-106.68-320.04-182.88-251.46-76.2-541.02-76.2-655.32 0-1051.56 472.44-396.24 464.82-396.24 1417.32 0 853.44 350.52 1264.92t899.16 411.48z"/><path d="m258561.98 54701.979q0-662.94 274.32-1165.86 281.94-502.92 731.52-769.62 457.2-266.7 952.5-266.7 960.12 0 1417.32 624.84 464.82 624.84 464.82 1600.2 0 662.94-281.94 1165.86-274.32 502.92-731.52 769.62-449.58 266.7-944.88 266.7-960.12 0-1424.94-624.84-457.2-624.84-457.2-1600.2zm1920.24 1828.8q586.74 0 906.78-449.58t320.04-1310.64q0-822.96-297.18-1348.74t-922.02-525.78q-586.74 0-914.4 449.58-320.04 449.58-320.04 1310.64 0 830.58 297.18 1356.36 304.8 518.16 929.64 518.16z"/><path d="m263126.35 56523.159 609.6-45.72v-3360.42l-586.74-129.54v-342.9l967.74-121.92h15.24l144.78 121.92v121.92l-15.24 579.12h15.24q15.24-15.24 198.12-228.6 190.5-220.98 556.26-419.1 373.38-198.12 746.76-198.12 121.92 0 228.6 30.48v670.56q-30.48-22.86-137.16-45.72-99.06-22.86-213.36-22.86-434.34 0-739.14 129.54t-563.88 320.04v2887.98l1013.46 60.96v312.42h-2240.28z"/><path d="m268376.53 56927.019q-883.92 0-1363.98-601.98-472.44-609.6-472.44-1615.44 0-647.7 251.46-1150.62t693.42-777.24q449.58-281.94 1005.84-281.94 678.18 0 1051.56 388.62 381 388.62 411.48 1120.14 0 472.44-45.72 670.56h-2712.72q0 800.1 358.14 1310.64 365.76 502.92 1021.08 502.92 320.04 0 655.32-114.3t518.16-274.32l121.92 281.94q-220.98 228.6-647.7 388.62-419.1 152.4-845.82 152.4zm891.54-2606.04q22.86-160.02 22.86-335.28-7.62-502.92-243.84-800.1-228.6-297.18-708.66-297.18-1043.94 0-1135.38 1432.56z"/><path d="m271264.49 56241.219q83.82 129.54 350.52 228.6t571.5 99.06q929.64 0 929.64-685.8 0-312.42-259.08-502.92-259.08-198.12-883.92-434.34-617.22-220.98-899.16-525.78t-281.94-815.34q0-327.66 198.12-571.5 205.74-243.84 541.02-373.38 342.9-137.16 739.14-137.16 388.62 0 647.7 68.58 266.7 68.58 525.78 167.64v906.78h-373.38l-137.16-556.26q-53.34-99.06-274.32-167.64-213.36-68.58-472.44-68.58-365.76 0-594.36 167.64-228.6 160.02-228.6 434.34 0 243.84 114.3 403.86t281.94 259.08q167.64 91.44 464.82 213.36l144.78 60.96q434.34 167.64 701.04 320.04 266.7 144.78 441.96 388.62 175.26 236.22 175.26 594.36 0 563.88-434.34 891.54-426.72 320.04-1143 320.04-327.66 0-746.76-106.68t-624.84-213.36v-960.12h411.48z"/><path d="m276918.54 51593.019-670.56-83.82v-327.66h3992.88l76.2 1249.68h-419.1l-205.74-861.06-2148.84-38.1v2255.52l1524-22.86 129.54-617.22h350.52v1684.02h-350.52l-129.54-647.7-1524-30.48v2293.62l1196.34 68.58v327.66h-2446.02v-327.66l624.84-68.58z"/><path d="m280957.13 56523.159 609.6-45.72v-3360.42l-586.74-129.54v-342.9l967.74-121.92h15.24l144.78 121.92v121.92l-15.24 579.12h15.24q15.24-15.24 198.12-228.6 190.5-220.98 556.26-419.1 373.38-198.12 746.76-198.12 121.92 0 228.6 30.48v670.56q-30.48-22.86-137.16-45.72-99.06-22.86-213.36-22.86-434.34 0-739.14 129.54t-563.88 320.04v2887.98l1013.46 60.96v312.42h-2240.28z"/><path d="m285247.19 51813.999q-411.48 0-411.48-434.34 0-220.98 129.54-358.14 129.54-144.78 350.52-144.78 228.6 0 327.66 129.54 99.06 121.92 99.06 304.8 0 236.22-129.54 373.38-121.92 129.54-358.14 129.54zm-243.84 1303.02-594.36-129.54v-342.9l1043.94-121.92h15.24l152.4 121.92v3817.62l662.94 53.34v327.66h-1950.72v-327.66l670.56-60.96z"/><path d="m288676.22 56927.019q-883.92 0-1363.98-601.98-472.44-609.6-472.44-1615.44 0-647.7 251.46-1150.62t693.42-777.24q449.58-281.94 1005.84-281.94 678.18 0 1051.56 388.62 381 388.62 411.48 1120.14 0 472.44-45.72 670.56h-2712.72q0 800.1 358.14 1310.64 365.76 502.92 1021.08 502.92 320.04 0 655.32-114.3t518.16-274.32l121.92 281.94q-220.98 228.6-647.7 388.62-419.1 152.4-845.82 152.4zm891.54-2606.04q22.86-160.02 22.86-335.28-7.62-502.92-243.84-800.1-228.6-297.18-708.66-297.18-1043.94 0-1135.38 1432.56z"/><path d="m292615.74 56927.019q-449.58 0-830.58-228.6-381-236.22-609.6-708.66t-228.6-1158.24q0-655.32 266.7-1181.1 266.7-533.4 754.38-838.2 495.3-312.42 1150.62-312.42 419.1 0 807.72 91.44v-1508.76l-792.48-76.2v-274.32l1249.68-129.54h15.24l144.78 106.68v5791.2h464.82v297.18q-38.1 7.62-259.08 60.96t-472.44 53.34q-175.26 0-251.46-60.96-68.58-60.96-68.58-266.7v-266.7q-236.22 259.08-579.12 434.34-335.28 175.26-762 175.26zm251.46-480.06q327.66 0 617.22-152.4 297.18-160.02 441.96-350.52v-2804.16q-60.96-106.68-320.04-182.88-251.46-76.2-541.02-76.2-655.32 0-1051.56 472.44-396.24 464.82-396.24 1417.32 0 853.44 350.52 1264.92t899.16 411.48z"/><path d="m295679.01 56523.159 609.59-45.72v-3360.42l-586.74-129.54v-342.9l967.74-121.92h15.24l144.79 121.92v121.92l-15.24 579.12h15.24q15.23-15.24 198.12-228.6 190.5-220.98 556.26-419.1 373.38-198.12 746.76-198.12 121.92 0 228.59 30.48v670.56q-30.47-22.86-137.15-45.72-99.06-22.86-213.37-22.86-434.33 0-739.13 129.54t-563.88 320.04v2887.98l1013.45 60.96v312.42h-2240.27z"/><path d="m299969.07 51813.999q-411.48 0-411.48-434.34 0-220.98 129.54-358.14 129.53-144.78 350.52-144.78 228.6 0 327.65 129.54 99.06 121.92 99.06 304.8 0 236.22-129.53 373.38-121.92 129.54-358.14 129.54zm-243.85 1303.02-594.36-129.54v-342.9l1043.94-121.92h15.24l152.41 121.92v3817.62l662.94 53.34v327.66h-1950.73v-327.66l670.56-60.96z"/><path d="m301462.58 54755.319q0-617.22 236.22-1127.76 243.84-518.16 716.28-822.96 480.06-304.8 1165.86-304.8 297.18 0 579.12 76.2 281.94 68.58 487.68 152.4l-30.48 1089.66h-381l-160.02-731.52q-45.72-228.6-655.32-228.6-594.36 0-952.5 457.2-350.52 457.2-350.52 1249.68 0 944.88 381 1432.56t990.6 487.68q320.04 0 617.22-106.68 304.8-106.68 502.92-243.84l121.92 251.46q-220.98 220.98-609.6 381t-769.62 160.02q-601.98 0-1028.7-281.94-426.72-289.56-647.7-777.24-213.36-495.3-213.36-1112.52z"/><path d="m305866.92 51082.479-678.18-68.58v-281.94l1127.76-129.54h15.24l144.78 99.06v1813.56l-15.24 632.46q243.84-220.98 685.8-426.72t868.68-205.74q480.06 0 746.76 182.88t373.38 571.5q106.68 381 106.68 1036.32v2148.84l556.26 60.96v327.66h-1706.88v-327.66l533.4-60.96v-2156.46q0-487.68-68.58-762-60.96-274.32-251.46-411.48t-556.26-137.16q-304.8 0-655.32 152.4-350.52 144.78-617.22 350.52v2964.18l563.88 60.96v327.66h-1653.54v-327.66l480.06-53.34z"/><path d="m312892.57 51593.019-640.08-83.82v-327.66h3771.9l106.68 1120.14h-365.76l-205.74-731.52-2042.16-38.1v2217.42l1402.08-22.86 99.06-632.46h381v1684.02h-381l-99.06-647.7-1402.08-22.86v2346.96l2331.72-60.96 388.62-952.5 365.76 114.3-236.22 1287.78h-4130.04v-327.66l655.32-68.58z"/><path d="m317624.59 53117.019-586.75-129.54v-342.9l967.75-121.92h22.86l144.77 121.92v335.28l-7.62 190.5q281.94-243.84 746.76-449.58 464.83-205.74 861.06-205.74 487.68 0 746.77 190.5 266.7 182.88 365.76 571.5 106.68 381 106.68 1028.7v2156.46l571.5 53.34v327.66h-1699.27v-327.66l510.55-53.34v-2164.08q0-480.06-68.58-754.38-60.97-274.32-251.47-411.48-182.88-144.78-541.02-144.78-304.8 0-662.93 152.4-350.52 152.4-609.61 358.14v2956.56l556.27 60.96v327.66h-1684.03v-327.66l510.55-60.96z"/><path d="m323926.34 58900.599q-1798.32 0-1798.32-1143 0-342.9 205.74-624.84 213.36-281.94 502.92-441.96-358.14-190.5-358.14-632.46 0-281.94 160.02-525.78 160.02-251.46 411.48-381-358.14-167.64-563.88-472.44-198.12-312.42-198.12-723.9 0-441.96 243.84-769.62 243.84-335.28 632.46-510.54 396.24-175.26 822.96-175.26 708.66 0 1135.38 312.42 114.3-106.68 350.52-205.74 243.84-106.68 518.16-106.68h251.46v563.88h-868.68q220.98 304.8 220.98 739.14 0 449.58-228.6 800.1-228.6 342.9-617.22 533.4-381 190.5-845.82 190.5-312.42 0-571.5-68.58-137.16 106.68-220.98 251.46-76.2 137.16-76.2 281.94 0 289.56 182.88 403.86 190.5 114.3 655.32 114.3h899.16q708.66 0 1043.94 274.32 342.9 274.32 342.9 769.62 0 411.48-297.18 762-297.18 358.14-815.34 571.5-510.54 213.36-1120.14 213.36zm53.34-3947.16q967.74 0 967.74-1066.8 0-1013.46-1005.84-1013.46t-1005.84 998.22q0 480.06 259.08 784.86 259.08 297.18 784.86 297.18zm-15.24 3558.54q411.48 0 784.86-121.92 373.38-114.3 601.98-342.9 228.6-220.98 228.6-518.16 0-236.22-76.2-381-68.58-144.78-281.94-228.6-205.74-76.2-601.98-76.2h-944.88q-365.76 0-556.26-45.72-373.38 358.14-373.38 838.2 0 434.34 274.32 655.32t944.88 220.98z"/><path d="m328521.19 56927.019q-883.92 0-1363.98-601.98-472.44-609.6-472.44-1615.44 0-647.7 251.45-1150.62 251.47-502.92 693.43-777.24 449.57-281.94 1005.83-281.94 678.18 0 1051.56 388.62 381 388.62 411.49 1120.14 0 472.44-45.73 670.56h-2712.71q0 800.1 358.13 1310.64 365.76 502.92 1021.08 502.92 320.04 0 655.33-114.3 335.28-114.3 518.15-274.32l121.93 281.94q-220.99 228.6-647.7 388.62-419.1 152.4-845.82 152.4zm891.53-2606.04q22.87-160.02 22.87-335.28-7.62-502.92-243.84-800.1-228.6-297.18-708.66-297.18-1043.94 0-1135.38 1432.56z"/><path d="m331409.18 51082.479-647.7-68.58v-281.94l1112.52-129.54h7.62l144.78 99.06v5760.72l716.28 53.34v327.66h-2004.06v-327.66l670.56-60.96z"/><path d="m333916.15 56241.219q83.82 129.54 350.52 228.6t571.5 99.06q929.64 0 929.64-685.8 0-312.42-259.08-502.92-259.08-198.12-883.92-434.34-617.22-220.98-899.16-525.78t-281.94-815.34q0-327.66 198.12-571.5 205.74-243.84 541.02-373.38 342.9-137.16 739.14-137.16 388.62 0 647.7 68.58 266.7 68.58 525.78 167.64v906.78h-373.38l-137.16-556.26q-53.34-99.06-274.32-167.64-213.36-68.58-472.44-68.58-365.76 0-594.36 167.64-228.6 160.02-228.6 434.34 0 243.84 114.3 403.86t281.94 259.08q167.64 91.44 464.82 213.36l144.78 60.96q434.34 167.64 701.04 320.04 266.7 144.78 441.96 388.62 175.26 236.22 175.26 594.36 0 563.88-434.34 891.54-426.72 320.04-1143 320.04-327.66 0-746.76-106.68t-624.84-213.36v-960.12h411.48z"/></g><g aria-label="e o Karl Marx;"><path d="m40500.56 70643.023q-883.92 0-1363.98-601.98-472.44-609.6-472.44-1615.44 0-647.7 251.46-1150.62t693.42-777.24q449.58-281.94 1005.84-281.94 678.18 0 1051.56 388.62 381 388.62 411.48 1120.14 0 472.44-45.72 670.56h-2712.72q0 800.1 358.14 1310.64 365.76 502.92 1021.08 502.92 320.04 0 655.32-114.3t518.16-274.32l121.92 281.94q-220.98 228.6-647.7 388.62-419.1 152.4-845.82 152.4zm891.54-2606.04q22.86-160.02 22.86-335.28-7.62-502.92-243.84-800.1-228.6-297.18-708.66-297.18-1043.94 0-1135.38 1432.56z"/><path d="m44569.642 68417.983q0-662.94 274.32-1165.86 281.94-502.92 731.52-769.62 457.2-266.7 952.5-266.7 960.12 0 1417.32 624.84 464.82 624.84 464.82 1600.2 0 662.94-281.94 1165.86-274.32 502.92-731.52 769.62-449.58 266.7-944.88 266.7-960.12 0-1424.94-624.84-457.2-624.84-457.2-1600.2zm1920.24 1828.8q586.74 0 906.78-449.58t320.04-1310.64q0-822.96-297.18-1348.74t-922.02-525.78q-586.74 0-914.4 449.58-320.04 449.58-320.04 1310.64 0 830.58 297.18 1356.36 304.8 518.16 929.64 518.16z"/><path d="m55085.242 70559.203q-144.78 0-365.76-312.42-213.36-320.04-601.98-998.22-373.38-640.08-601.98-990.6-220.98-350.52-434.34-571.5l-830.58 937.26v1539.24l716.28 76.2v320.04h-1996.44v-327.66l655.32-68.58v-4853.94l-640.08-83.82v-327.66h1920.24v327.66l-655.32 83.82v2773.68l2385.06-2773.68-647.7-83.82v-327.66h1767.84v327.66l-556.26 83.82-1752.6 1958.34q266.7 220.98 548.64 617.22t769.62 1135.38q373.38 579.12 571.5 853.44 205.74 274.32 304.8 281.94l358.14 83.82v320.04z"/><path d="m56395.882 69446.683q0-739.14 731.52-1066.8 731.52-335.28 1821.18-358.14v-236.22q0-388.62-83.82-609.6-76.2-228.6-274.32-327.66-198.12-106.68-556.26-106.68-388.62 0-708.66 121.92-312.42 114.3-609.6 281.94l-167.64-335.28q83.82-76.2 350.52-213.36t609.6-243.84 662.94-106.68q518.16 0 815.34 144.78 304.8 144.78 434.34 464.82 137.16 320.04 137.16 861.06v2514.6h472.44v281.94q-419.1 114.3-708.66 114.3-182.88 0-251.46-60.96-68.58-53.34-68.58-259.08v-281.94q-274.32 243.84-601.98 434.34-320.04 182.88-731.52 182.88-548.64 0-914.4-304.8-358.14-304.8-358.14-891.54zm1501.14 746.76q213.36 0 510.54-137.16t541.02-327.66v-1348.74q-922.02 7.62-1402.08 274.32-472.44 266.7-472.44 716.28 0 434.34 220.98 632.46 220.98 190.5 601.98 190.5z"/><path d="m60624.982 70239.163 609.6-45.72v-3360.42l-586.74-129.54v-342.9l967.74-121.92h15.24l144.78 121.92v121.92l-15.24 579.12h15.24q15.24-15.24 198.12-228.6 190.5-220.98 556.26-419.1 373.38-198.12 746.76-198.12 121.92 0 228.6 30.48v670.56q-30.48-22.86-137.16-45.72-99.06-22.86-213.36-22.86-434.34 0-739.14 129.54t-563.88 320.04v2887.98l1013.46 60.96v312.42h-2240.28z"/><path d="m64648.342 64798.483-647.7-68.58v-281.94l1112.52-129.54h7.62l144.78 99.06v5760.72l716.28 53.34v327.66h-2004.06v-327.66l670.56-60.96z"/><path d="m69266.063 65309.023-845.82-83.82v-327.66h1798.32l1181.1 3520.44 281.94 1021.08 251.46-1021.08 1173.48-3520.44h1783.08v327.66l-838.2 83.82 601.98 4846.32 693.42 76.2v327.66h-2049.78v-327.66l708.66-68.58-350.52-3474.72-167.64-1524-335.28 1051.56-1379.22 4069.08h-304.8l-1295.4-3642.36-495.3-1478.28-152.4 1524-312.42 3474.72 746.76 68.58v327.66h-1905v-327.66l647.7-68.58z"/><path d="m75796.401 69446.683q0-739.14 731.52-1066.8 731.52-335.28 1821.18-358.14v-236.22q0-388.62-83.82-609.6-76.2-228.6-274.32-327.66-198.12-106.68-556.26-106.68-388.62 0-708.66 121.92-312.42 114.3-609.6 281.94l-167.64-335.28q83.82-76.2 350.52-213.36t609.6-243.84 662.94-106.68q518.16 0 815.34 144.78 304.8 144.78 434.34 464.82 137.16 320.04 137.16 861.06v2514.6h472.44v281.94q-419.1 114.3-708.66 114.3-182.88 0-251.46-60.96-68.58-53.34-68.58-259.08v-281.94q-274.32 243.84-601.98 434.34-320.04 182.88-731.52 182.88-548.64 0-914.4-304.8-358.14-304.8-358.14-891.54zm1501.14 746.76q213.36 0 510.54-137.16t541.02-327.66v-1348.74q-922.02 7.62-1402.08 274.32-472.44 266.7-472.44 716.28 0 434.34 220.98 632.46 220.98 190.5 601.98 190.5z"/><path d="m80025.497 70239.163 609.6-45.72v-3360.42l-586.74-129.54v-342.9l967.74-121.92h15.24l144.78 121.92v121.92l-15.24 579.12h15.24q15.24-15.24 198.12-228.6 190.5-220.98 556.26-419.1 373.38-198.12 746.76-198.12 121.92 0 228.6 30.48v670.56q-30.48-22.86-137.16-45.72-99.06-22.86-213.36-22.86-434.34 0-739.14 129.54t-563.88 320.04v2887.98l1013.46 60.96v312.42h-2240.28z"/><path d="m85016.597 68433.223-1303.02-1699.26-449.58-91.44v-312.42h1760.22v312.42l-556.26 91.44 754.38 1066.8 228.6 335.28 205.74-327.66 800.1-1074.42-586.74-91.44v-312.42h1577.34v312.42l-472.44 91.44-1303.02 1630.68 1371.6 1813.56 457.2 60.96v320.04h-1805.94v-320.04l541.02-68.58-762-1120.14-236.22-342.9-213.36 335.28-807.72 1127.76 670.56 68.58v320.04h-1744.98v-320.04l525.78-68.58z"/><path d="m88857.085 67473.103q-175.26 0-297.18-114.3-121.92-121.92-121.92-312.42 0-213.36 144.78-358.14 152.4-144.78 350.52-144.78 205.74 0 304.8 121.92 106.68 121.92 106.68 304.8 0 213.36-144.78 358.14t-342.9 144.78zm22.86 2026.92q243.84 0 388.62 228.6t144.78 647.7-121.92 792.48-312.42 640.08-381 381h-7.62l-220.98-152.4v-68.58q91.44-68.58 198.12-281.94 114.3-205.74 190.5-480.06 83.82-274.32 83.82-533.4 0-114.3-45.72-182.88-38.1-68.58-121.92-160.02-99.06-99.06-152.4-190.5-45.72-91.44-45.72-251.46 0-175.26 106.68-281.94 114.3-106.68 266.7-106.68z"/></g><g aria-label="Criado no século XIX, baseado em uma análise histórica e cientíﬁca do "><path d="m41041.58 84359.015q-815.34 0-1402.08-365.76t-891.54-1028.7-304.8-1546.86q0-830.58 358.14-1485.9t975.36-1013.46q617.22-365.76 1379.22-365.76 388.62 0 746.76 60.96 365.76 60.96 586.74 114.3t274.32 68.58l-60.96 1242.06h-396.24l-167.64-883.92q-114.3-99.06-411.48-167.64t-723.9-68.58q-525.78 0-944.88 289.56-419.1 281.94-662.94 830.58-236.22 548.64-236.22 1310.64 0 716.28 205.74 1318.26 213.36 601.98 640.08 967.74 426.72 358.14 1051.56 358.14 434.34 0 678.18-68.58 243.84-76.2 411.48-213.36l304.8-716.28 373.38 53.34-190.5 1021.08q-182.88 7.62-441.96 99.06-274.32 91.44-525.78 137.16-251.46 53.34-624.84 53.34z"/><path d="m43487.587 83955.155 609.6-45.72v-3360.42l-586.74-129.54v-342.9l967.74-121.92h15.24l144.78 121.92v121.92l-15.24 579.12h15.24q15.24-15.24 198.12-228.6 190.5-220.98 556.26-419.1 373.38-198.12 746.76-198.12 121.92 0 228.6 30.48v670.56q-30.48-22.86-137.16-45.72-99.06-22.86-213.36-22.86-434.34 0-739.14 129.54t-563.88 320.04v2887.98l1013.46 60.96v312.42h-2240.28z"/><path d="m47777.637 79245.995q-411.48 0-411.48-434.34 0-220.98 129.54-358.14 129.54-144.78 350.52-144.78 228.6 0 327.66 129.54 99.06 121.92 99.06 304.8 0 236.22-129.54 373.38-121.92 129.54-358.14 129.54zm-243.84 1303.02-594.36-129.54v-342.9l1043.94-121.92h15.24l152.4 121.92v3817.62l662.94 53.34v327.66h-1950.72v-327.66l670.56-60.96z"/><path d="m49400.693 83162.675q0-739.14 731.52-1066.8 731.52-335.28 1821.18-358.14v-236.22q0-388.62-83.82-609.6-76.2-228.6-274.32-327.66-198.12-106.68-556.26-106.68-388.62 0-708.66 121.92-312.42 114.3-609.6 281.94l-167.64-335.28q83.82-76.2 350.52-213.36t609.6-243.84 662.94-106.68q518.16 0 815.34 144.78 304.8 144.78 434.34 464.82 137.16 320.04 137.16 861.06v2514.6h472.44v281.94q-419.1 114.3-708.66 114.3-182.88 0-251.46-60.96-68.58-53.34-68.58-259.08v-281.94q-274.32 243.84-601.98 434.34-320.04 182.88-731.52 182.88-548.64 0-914.4-304.8-358.14-304.8-358.14-891.54zm1501.14 746.76q213.36 0 510.54-137.16t541.02-327.66v-1348.74q-922.02 7.62-1402.08 274.32-472.44 266.7-472.44 716.28 0 434.34 220.98 632.46 220.98 190.5 601.98 190.5z"/><path d="m55275.707 84359.015q-449.58 0-830.58-228.6-381-236.22-609.6-708.66t-228.6-1158.24q0-655.32 266.7-1181.1 266.7-533.4 754.38-838.2 495.3-312.42 1150.62-312.42 419.1 0 807.72 91.44v-1508.76l-792.48-76.2v-274.32l1249.68-129.54h15.24l144.78 106.68v5791.2h464.82v297.18q-38.1 7.62-259.08 60.96t-472.44 53.34q-175.26 0-251.46-60.96-68.58-60.96-68.58-266.7v-266.7q-236.22 259.08-579.12 434.34-335.28 175.26-762 175.26zm251.46-480.06q327.66 0 617.22-152.4 297.18-160.02 441.96-350.52v-2804.16q-60.96-106.68-320.04-182.88-251.46-76.2-541.02-76.2-655.32 0-1051.56 472.44-396.24 464.82-396.24 1417.32 0 853.44 350.52 1264.92t899.16 411.48z"/><path d="m58308.453 82133.975q0-662.94 274.32-1165.86 281.94-502.92 731.52-769.62 457.2-266.7 952.5-266.7 960.12 0 1417.32 624.84 464.82 624.84 464.82 1600.2 0 662.94-281.94 1165.86-274.32 502.92-731.52 769.62-449.58 266.7-944.88 266.7-960.12 0-1424.94-624.84-457.2-624.84-457.2-1600.2zm1920.24 1828.8q586.74 0 906.78-449.58t320.04-1310.64q0-822.96-297.18-1348.74t-922.02-525.78q-586.74 0-914.4 449.58-320.04 449.58-320.04 1310.64 0 830.58 297.18 1356.36 304.8 518.16 929.64 518.16z"/><path d="m65128.343 80549.015-586.74-129.54v-342.9l967.74-121.92h22.86l144.78 121.92v335.28l-7.62 190.5q281.94-243.84 746.76-449.58t861.06-205.74q487.68 0 746.76 190.5 266.7 182.88 365.76 571.5 106.68 381 106.68 1028.7v2156.46l571.5 53.34v327.66h-1699.26v-327.66l510.54-53.34v-2164.08q0-480.06-68.58-754.38-60.96-274.32-251.46-411.48-182.88-144.78-541.02-144.78-304.8 0-662.94 152.4-350.52 152.4-609.6 358.14v2956.56l556.26 60.96v327.66h-1684.02v-327.66l510.54-60.96z"/><path d="m69624.142 82133.975q0-662.94 274.32-1165.86 281.94-502.92 731.52-769.62 457.2-266.7 952.5-266.7 960.12 0 1417.32 624.84 464.82 624.84 464.82 1600.2 0 662.94-281.94 1165.86-274.32 502.92-731.52 769.62-449.58 266.7-944.88 266.7-960.12 0-1424.94-624.84-457.2-624.84-457.2-1600.2zm1920.24 1828.8q586.74 0 906.78-449.58t320.04-1310.64q0-822.96-297.18-1348.74t-922.02-525.78q-586.74 0-914.4 449.58-320.04 449.58-320.04 1310.64 0 830.58 297.18 1356.36 304.8 518.16 929.64 518.16z"/><path d="m76588.814 83673.215q83.82 129.54 350.52 228.6t571.5 99.06q929.64 0 929.64-685.8 0-312.42-259.08-502.92-259.08-198.12-883.92-434.34-617.22-220.98-899.16-525.78t-281.94-815.34q0-327.66 198.12-571.5 205.74-243.84 541.02-373.38 342.9-137.16 739.14-137.16 388.62 0 647.7 68.58 266.7 68.58 525.78 167.64v906.78h-373.38l-137.16-556.26q-53.34-99.06-274.32-167.64-213.36-68.58-472.44-68.58-365.76 0-594.36 167.64-228.6 160.02-228.6 434.34 0 243.84 114.3 403.86t281.94 259.08q167.64 91.44 464.82 213.36l144.78 60.96q434.34 167.64 701.04 320.04 266.7 144.78 441.96 388.62 175.26 236.22 175.26 594.36 0 563.88-434.34 891.54-426.72 320.04-1143 320.04-327.66 0-746.76-106.68t-624.84-213.36v-960.12h411.48z"/><path d="m81595.142 84359.015q-883.92 0-1363.98-601.98-472.44-609.6-472.44-1615.44 0-647.7 251.46-1150.62t693.42-777.24q449.58-281.94 1005.84-281.94 678.18 0 1051.56 388.62 381 388.62 411.48 1120.14 0 472.44-45.72 670.56h-2712.72q0 800.1 358.14 1310.64 365.76 502.92 1021.08 502.92 320.04 0 655.32-114.3t518.16-274.32l121.92 281.94q-220.98 228.6-647.7 388.62-419.1 152.4-845.82 152.4zm891.54-2606.04q22.86-160.02 22.86-335.28-7.62-502.92-243.84-800.1-228.6-297.18-708.66-297.18-1043.94 0-1135.38 1432.56zm-1386.84-2705.1 1181.1-1470.66 518.16 419.1q-152.4 228.6-678.18 685.8-518.16 449.58-784.86 571.5z"/><path d="m83774.455 82187.315q0-617.22 236.22-1127.76 243.84-518.16 716.28-822.96 480.06-304.8 1165.86-304.8 297.18 0 579.12 76.2 281.94 68.58 487.68 152.4l-30.48 1089.66h-381l-160.02-731.52q-45.72-228.6-655.32-228.6-594.36 0-952.5 457.2-350.52 457.2-350.52 1249.68 0 944.88 381 1432.56t990.6 487.68q320.04 0 617.22-106.68 304.8-106.68 502.92-243.84l121.92 251.46q-220.98 220.98-609.6 381t-769.62 160.02q-601.98 0-1028.7-281.94-426.72-289.56-647.7-777.24-213.36-495.3-213.36-1112.52z"/><path d="m91226.805 84343.775q-198.12 0-289.56-68.58t-91.44-251.46v-297.18q-281.94 251.46-662.94 441.96t-762 190.5q-693.42 0-990.6-388.62-289.56-388.62-289.56-1264.92v-2240.28l-449.58-129.54v-281.94l922.02-99.06h7.62l137.16 91.44v2567.94q0 480.06 68.58 754.38 68.58 266.7 251.46 396.24t533.4 129.54q335.28 0 640.08-144.78t525.78-342.9v-2941.32l-579.12-129.54v-281.94l1013.46-99.06h7.62l175.26 91.44v3893.82h472.44l-7.62 289.56q-38.1 7.62-220.98 60.96t-411.48 53.34z"/><path d="m93147.033 78514.475-647.7-68.58v-281.94l1112.52-129.54h7.62l144.78 99.06v5760.72l716.28 53.34v327.66h-2004.06v-327.66l670.56-60.96z"/><path d="m95029.162 82133.975q0-662.94 274.32-1165.86 281.94-502.92 731.52-769.62 457.2-266.7 952.5-266.7 960.12 0 1417.32 624.84 464.82 624.84 464.82 1600.2 0 662.94-281.94 1165.86-274.32 502.92-731.52 769.62-449.58 266.7-944.88 266.7-960.12 0-1424.94-624.84-457.2-624.84-457.2-1600.2zm1920.24 1828.8q586.74 0 906.78-449.58t320.04-1310.64q0-822.96-297.18-1348.74t-922.02-525.78q-586.74 0-914.4 449.58-320.04 449.58-320.04 1310.64 0 830.58 297.18 1356.36 304.8 518.16 929.64 518.16z"/><path d="m103411.15 81410.075-1607.82-2377.44-586.74-91.44v-327.66h2133.6v327.66l-777.24 91.44 1280.16 2049.78 1264.92-2057.4-685.8-83.82v-327.66h1821.18v327.66l-601.98 91.44-1592.58 2301.24 1729.74 2545.08 609.6 68.58v327.66h-2125.98v-327.66l746.76-68.58-1386.84-2209.8-1333.5 2209.8 784.86 68.58v327.66h-2004.06v-327.66l662.94-68.58z"/><path d="m107617.38 79025.015-739.14-83.82v-327.66h2110.74v327.66l-739.14 83.82v4853.94l739.14 76.2v320.04h-2110.74v-327.66l739.14-68.58z"/><path d="m111831.24 81410.075-1607.82-2377.44-586.74-91.44v-327.66h2133.6v327.66l-777.24 91.44 1280.16 2049.78 1264.92-2057.4-685.8-83.82v-327.66h1821.18v327.66l-601.98 91.44-1592.58 2301.24 1729.74 2545.08 609.6 68.58v327.66h-2125.98v-327.66l746.76-68.58-1386.84-2209.8-1333.5 2209.8 784.86 68.58v327.66h-2004.06v-327.66l662.94-68.58z"/><path d="m116151.76 83216.015q243.84 0 388.62 228.6t144.78 647.7-121.92 792.48-312.42 640.08-381 381h-7.62l-220.98-152.4v-68.58q91.44-68.58 198.12-281.94 114.3-205.74 190.5-480.06 83.82-274.32 83.82-533.4 0-114.3-45.72-182.88-38.1-68.58-121.92-160.02-99.06-99.06-152.4-190.5-45.72-91.44-45.72-251.46 0-175.26 106.68-281.94 114.3-106.68 266.7-106.68z"/><path d="m119176.89 78163.955 1112.52-129.54h15.24l144.78 106.68v2316.48q236.22-220.98 563.88-373.38 335.28-152.4 739.14-152.4 449.58 0 822.96 220.98 381 220.98 609.6 685.8 236.22 464.82 236.22 1165.86 0 655.32-266.7 1196.34-266.7 533.4-762 845.82t-1143 312.42q-472.44 0-899.16-99.06t-518.16-190.5v-5554.98l-655.32-68.58zm2324.1 2232.66q-320.04 0-601.98 152.4t-449.58 335.28v2819.4q53.34 121.92 297.18 198.12 251.46 68.58 556.26 68.58 655.32 0 1051.56-480.06 396.24-487.68 396.24-1424.94 0-838.2-358.14-1249.68-350.52-419.1-891.54-419.1z"/><path d="m124160.36 83162.675q0-739.14 731.52-1066.8 731.52-335.28 1821.18-358.14v-236.22q0-388.62-83.82-609.6-76.2-228.6-274.32-327.66-198.12-106.68-556.26-106.68-388.62 0-708.66 121.92-312.42 114.3-609.6 281.94l-167.64-335.28q83.82-76.2 350.52-213.36t609.6-243.84 662.94-106.68q518.16 0 815.34 144.78 304.8 144.78 434.34 464.82 137.16 320.04 137.16 861.06v2514.6h472.44v281.94q-419.1 114.3-708.66 114.3-182.88 0-251.46-60.96-68.58-53.34-68.58-259.08v-281.94q-274.32 243.84-601.98 434.34-320.04 182.88-731.52 182.88-548.64 0-914.4-304.8-358.14-304.8-358.14-891.54zm1501.14 746.76q213.36 0 510.54-137.16t541.02-327.66v-1348.74q-922.02 7.62-1402.08 274.32-472.44 266.7-472.44 716.28 0 434.34 220.98 632.46 220.98 190.5 601.98 190.5z"/><path d="m128983.81 83673.215q83.82 129.54 350.52 228.6t571.5 99.06q929.64 0 929.64-685.8 0-312.42-259.08-502.92-259.08-198.12-883.92-434.34-617.22-220.98-899.16-525.78t-281.94-815.34q0-327.66 198.12-571.5 205.74-243.84 541.02-373.38 342.9-137.16 739.14-137.16 388.62 0 647.7 68.58 266.7 68.58 525.78 167.64v906.78h-373.38l-137.16-556.26q-53.34-99.06-274.32-167.64-213.36-68.58-472.44-68.58-365.76 0-594.36 167.64-228.6 160.02-228.6 434.34 0 243.84 114.3 403.86t281.94 259.08q167.64 91.44 464.82 213.36l144.78 60.96q434.34 167.64 701.04 320.04 266.7 144.78 441.96 388.62 175.26 236.22 175.26 594.36 0 563.88-434.34 891.54-426.72 320.04-1143 320.04-327.66 0-746.76-106.68t-624.84-213.36v-960.12h411.48z"/><path d="m133990.14 84359.015q-883.92 0-1363.98-601.98-472.44-609.6-472.44-1615.44 0-647.7 251.46-1150.62t693.42-777.24q449.58-281.94 1005.84-281.94 678.18 0 1051.56 388.62 381 388.62 411.48 1120.14 0 472.44-45.72 670.56h-2712.72q0 800.1 358.14 1310.64 365.76 502.92 1021.08 502.92 320.04 0 655.32-114.3t518.16-274.32l121.92 281.94q-220.98 228.6-647.7 388.62-419.1 152.4-845.82 152.4zm891.54-2606.04q22.86-160.02 22.86-335.28-7.62-502.92-243.84-800.1-228.6-297.18-708.66-297.18-1043.94 0-1135.38 1432.56z"/><path d="m136298.99 83162.675q0-739.14 731.52-1066.8 731.52-335.28 1821.18-358.14v-236.22q0-388.62-83.82-609.6-76.2-228.6-274.32-327.66-198.12-106.68-556.26-106.68-388.62 0-708.66 121.92-312.42 114.3-609.6 281.94l-167.64-335.28q83.82-76.2 350.52-213.36t609.6-243.84 662.94-106.68q518.16 0 815.34 144.78 304.8 144.78 434.34 464.82 137.16 320.04 137.16 861.06v2514.6h472.44v281.94q-419.1 114.3-708.66 114.3-182.88 0-251.46-60.96-68.58-53.34-68.58-259.08v-281.94q-274.32 243.84-601.98 434.34-320.04 182.88-731.52 182.88-548.64 0-914.4-304.8-358.14-304.8-358.14-891.54zm1501.14 746.76q213.36 0 510.54-137.16t541.02-327.66v-1348.74q-922.02 7.62-1402.08 274.32-472.44 266.7-472.44 716.28 0 434.34 220.98 632.46 220.98 190.5 601.98 190.5z"/><path d="m142174.01 84359.015q-449.58 0-830.58-228.6-381-236.22-609.6-708.66t-228.6-1158.24q0-655.32 266.7-1181.1 266.7-533.4 754.38-838.2 495.3-312.42 1150.62-312.42 419.1 0 807.72 91.44v-1508.76l-792.48-76.2v-274.32l1249.68-129.54h15.24l144.78 106.68v5791.2h464.82v297.18q-38.1 7.62-259.08 60.96t-472.44 53.34q-175.26 0-251.46-60.96-68.58-60.96-68.58-266.7v-266.7q-236.22 259.08-579.12 434.34-335.28 175.26-762 175.26zm251.46-480.06q327.66 0 617.22-152.4 297.18-160.02 441.96-350.52v-2804.16q-60.96-106.68-320.04-182.88-251.46-76.2-541.02-76.2-655.32 0-1051.56 472.44-396.24 464.82-396.24 1417.32 0 853.44 350.52 1264.92t899.16 411.48z"/><path d="m145206.76 82133.975q0-662.94 274.32-1165.86 281.94-502.92 731.52-769.62 457.2-266.7 952.5-266.7 960.12 0 1417.32 624.84 464.82 624.84 464.82 1600.2 0 662.94-281.94 1165.86-274.32 502.92-731.52 769.62-449.58 266.7-944.88 266.7-960.12 0-1424.94-624.84-457.2-624.84-457.2-1600.2zm1920.24 1828.8q586.74 0 906.78-449.58t320.04-1310.64q0-822.96-297.18-1348.74t-922.02-525.78q-586.74 0-914.4 449.58-320.04 449.58-320.04 1310.64 0 830.58 297.18 1356.36 304.8 518.16 929.64 518.16z"/><path d="m153398.24 84359.015q-883.92 0-1363.98-601.98-472.44-609.6-472.44-1615.44 0-647.7 251.46-1150.62t693.42-777.24q449.58-281.94 1005.84-281.94 678.18 0 1051.56 388.62 381 388.62 411.48 1120.14 0 472.44-45.72 670.56h-2712.72q0 800.1 358.14 1310.64 365.76 502.92 1021.08 502.92 320.04 0 655.32-114.3t518.16-274.32l121.92 281.94q-220.98 228.6-647.7 388.62-419.1 152.4-845.82 152.4zm891.54-2606.04q22.86-160.02 22.86-335.28-7.62-502.92-243.84-800.1-228.6-297.18-708.66-297.18-1043.94 0-1135.38 1432.56z"/><path d="m155653.75 83947.535 487.68-60.96v-3337.56l-586.74-129.54v-342.9l967.74-121.92 167.64 121.92v335.28l-7.62 190.5q281.94-243.84 739.14-449.58t830.58-205.74q411.48 0 655.32 137.16 251.46 137.16 381 426.72 236.22-198.12 685.8-381 457.2-182.88 838.2-182.88 480.06 0 739.14 182.88 266.7 182.88 373.38 563.88t106.68 1028.7v2164.08l579.12 60.96v327.66h-1706.88v-327.66l518.16-60.96v-2141.22q0-480.06-68.58-762t-266.7-426.72-579.12-144.78q-281.94 0-594.36 129.54-304.8 121.92-525.78 281.94 76.2 350.52 76.2 914.4v2148.84l579.12 60.96v327.66h-1744.98v-327.66l548.64-60.96v-2156.46q0-487.68-60.96-762-53.34-274.32-236.22-411.48t-541.02-137.16q-297.18 0-647.7 152.4-342.9 144.78-601.98 350.52v2964.18l541.02 60.96v327.66h-1645.92z"/><path d="m168455.35 84343.775q-198.12 0-289.56-68.58t-91.44-251.46v-297.18q-281.94 251.46-662.94 441.96t-762 190.5q-693.42 0-990.6-388.62-289.56-388.62-289.56-1264.92v-2240.28l-449.58-129.54v-281.94l922.02-99.06h7.62l137.16 91.44v2567.94q0 480.06 68.58 754.38 68.58 266.7 251.46 396.24t533.4 129.54q335.28 0 640.08-144.78t525.78-342.9v-2941.32l-579.12-129.54v-281.94l1013.46-99.06h7.62l175.26 91.44v3893.82h472.44l-7.62 289.56q-38.1 7.62-220.98 60.96t-411.48 53.34z"/><path d="m169743.12 83947.535 487.68-60.96v-3337.56l-586.74-129.54v-342.9l967.74-121.92 167.64 121.92v335.28l-7.62 190.5q281.94-243.84 739.14-449.58t830.58-205.74q411.48 0 655.32 137.16 251.46 137.16 381 426.72 236.22-198.12 685.8-381 457.2-182.88 838.2-182.88 480.06 0 739.14 182.88 266.7 182.88 373.38 563.88t106.68 1028.7v2164.08l579.12 60.96v327.66h-1706.88v-327.66l518.16-60.96v-2141.22q0-480.06-68.58-762t-266.7-426.72-579.12-144.78q-281.94 0-594.36 129.54-304.8 121.92-525.78 281.94 76.2 350.52 76.2 914.4v2148.84l579.12 60.96v327.66h-1744.98v-327.66l548.64-60.96v-2156.46q0-487.68-60.96-762-53.34-274.32-236.22-411.48t-541.02-137.16q-297.18 0-647.7 152.4-342.9 144.78-601.98 350.52v2964.18l541.02 60.96v327.66h-1645.92z"/><path d="m177294.52 83162.675q0-739.14 731.52-1066.8 731.52-335.28 1821.18-358.14v-236.22q0-388.62-83.82-609.6-76.2-228.6-274.32-327.66-198.12-106.68-556.26-106.68-388.62 0-708.66 121.92-312.42 114.3-609.6 281.94l-167.64-335.28q83.82-76.2 350.52-213.36t609.6-243.84 662.94-106.68q518.16 0 815.34 144.78 304.8 144.78 434.34 464.82 137.16 320.04 137.16 861.06v2514.6h472.44v281.94q-419.1 114.3-708.66 114.3-182.88 0-251.46-60.96-68.58-53.34-68.58-259.08v-281.94q-274.32 243.84-601.98 434.34-320.04 182.88-731.52 182.88-548.64 0-914.4-304.8-358.14-304.8-358.14-891.54zm1501.14 746.76q213.36 0 510.54-137.16t541.02-327.66v-1348.74q-922.02 7.62-1402.08 274.32-472.44 266.7-472.44 716.28 0 434.34 220.98 632.46 220.98 190.5 601.98 190.5z"/><path d="m183344.8 83162.675q0-739.14 731.52-1066.8 731.52-335.28 1821.18-358.14v-236.22q0-388.62-83.82-609.6-76.2-228.6-274.32-327.66-198.12-106.68-556.26-106.68-388.62 0-708.66 121.92-312.42 114.3-609.6 281.94l-167.64-335.28q83.82-76.2 350.52-213.36t609.6-243.84 662.94-106.68q518.16 0 815.34 144.78 304.8 144.78 434.34 464.82 137.16 320.04 137.16 861.06v2514.6h472.44v281.94q-419.1 114.3-708.66 114.3-182.88 0-251.46-60.96-68.58-53.34-68.58-259.08v-281.94q-274.32 243.84-601.98 434.34-320.04 182.88-731.52 182.88-548.64 0-914.4-304.8-358.14-304.8-358.14-891.54zm1501.14 746.76q213.36 0 510.54-137.16t541.02-327.66v-1348.74q-922.02 7.62-1402.08 274.32-472.44 266.7-472.44 716.28 0 434.34 220.98 632.46 220.98 190.5 601.98 190.5z"/><path d="m188023.47 80549.015-586.74-129.54v-342.9l967.74-121.92h22.86l144.78 121.92v335.28l-7.62 190.5q281.94-243.84 746.76-449.58t861.06-205.74q487.68 0 746.76 190.5 266.7 182.88 365.76 571.5 106.68 381 106.68 1028.7v2156.46l571.5 53.34v327.66h-1699.26v-327.66l510.54-53.34v-2164.08q0-480.06-68.58-754.38-60.96-274.32-251.46-411.48-182.88-144.78-541.02-144.78-304.8 0-662.94 152.4-350.52 152.4-609.6 358.14v2956.56l556.26 60.96v327.66h-1684.02v-327.66l510.54-60.96z"/><path d="m192564.99 83162.675q0-739.14 731.52-1066.8 731.52-335.28 1821.18-358.14v-236.22q0-388.62-83.82-609.6-76.2-228.6-274.32-327.66-198.12-106.68-556.26-106.68-388.62 0-708.66 121.92-312.42 114.3-609.6 281.94l-167.64-335.28q83.82-76.2 350.52-213.36t609.6-243.84 662.94-106.68q518.16 0 815.34 144.78 304.8 144.78 434.34 464.82 137.16 320.04 137.16 861.06v2514.6h472.44v281.94q-419.1 114.3-708.66 114.3-182.88 0-251.46-60.96-68.58-53.34-68.58-259.08v-281.94q-274.32 243.84-601.98 434.34-320.04 182.88-731.52 182.88-548.64 0-914.4-304.8-358.14-304.8-358.14-891.54zm1501.14 746.76q213.36 0 510.54-137.16t541.02-327.66v-1348.74q-922.02 7.62-1402.08 274.32-472.44 266.7-472.44 716.28 0 434.34 220.98 632.46 220.98 190.5 601.98 190.5zm-350.52-4861.56 1181.1-1470.66 518.16 419.1q-152.4 228.6-678.18 685.8-518.16 449.58-784.86 571.5z"/><path d="m197388.44 78514.475-647.7-68.58v-281.94l1112.52-129.54h7.62l144.78 99.06v5760.72l716.28 53.34v327.66h-2004.06v-327.66l670.56-60.96z"/><path d="m200162.11 79245.995q-411.48 0-411.48-434.34 0-220.98 129.54-358.14 129.54-144.78 350.52-144.78 228.6 0 327.66 129.54 99.06 121.92 99.06 304.8 0 236.22-129.54 373.38-121.92 129.54-358.14 129.54zm-243.84 1303.02-594.36-129.54v-342.9l1043.94-121.92h15.24l152.4 121.92v3817.62l662.94 53.34v327.66h-1950.72v-327.66l670.56-60.96z"/><path d="m202364.28 83673.215q83.82 129.54 350.52 228.6t571.5 99.06q929.64 0 929.64-685.8 0-312.42-259.08-502.92-259.08-198.12-883.92-434.34-617.22-220.98-899.16-525.78t-281.94-815.34q0-327.66 198.12-571.5 205.74-243.84 541.02-373.38 342.9-137.16 739.14-137.16 388.62 0 647.7 68.58 266.7 68.58 525.78 167.64v906.78h-373.38l-137.16-556.26q-53.34-99.06-274.32-167.64-213.36-68.58-472.44-68.58-365.76 0-594.36 167.64-228.6 160.02-228.6 434.34 0 243.84 114.3 403.86t281.94 259.08q167.64 91.44 464.82 213.36l144.78 60.96q434.34 167.64 701.04 320.04 266.7 144.78 441.96 388.62 175.26 236.22 175.26 594.36 0 563.88-434.34 891.54-426.72 320.04-1143 320.04-327.66 0-746.76-106.68t-624.84-213.36v-960.12h411.48z"/><path d="m207370.62 84359.015q-883.92 0-1363.98-601.98-472.44-609.6-472.44-1615.44 0-647.7 251.46-1150.62t693.42-777.24q449.58-281.94 1005.84-281.94 678.18 0 1051.56 388.62 381 388.62 411.48 1120.14 0 472.44-45.72 670.56h-2712.72q0 800.1 358.14 1310.64 365.76 502.92 1021.08 502.92 320.04 0 655.32-114.3t518.16-274.32l121.92 281.94q-220.98 228.6-647.7 388.62-419.1 152.4-845.82 152.4zm891.54-2606.04q22.86-160.02 22.86-335.28-7.62-502.92-243.84-800.1-228.6-297.18-708.66-297.18-1043.94 0-1135.38 1432.56z"/><path d="m211881.65 78514.475-678.18-68.58v-281.94l1127.76-129.54h15.24l144.78 99.06v1813.56l-15.24 632.46q243.84-220.98 685.8-426.72t868.68-205.74q480.06 0 746.76 182.88t373.38 571.5q106.68 381 106.68 1036.32v2148.84l556.26 60.96v327.66h-1706.88v-327.66l533.4-60.96v-2156.46q0-487.68-68.58-762-60.96-274.32-251.46-411.48t-556.26-137.16q-304.8 0-655.32 152.4-350.52 144.78-617.22 350.52v2964.18l563.88 60.96v327.66h-1653.54v-327.66l480.06-53.34z"/><path d="m217299.45 79245.995q-411.48 0-411.48-434.34 0-220.98 129.54-358.14 129.54-144.78 350.52-144.78 228.6 0 327.66 129.54 99.06 121.92 99.06 304.8 0 236.22-129.54 373.38-121.92 129.54-358.14 129.54zm-243.84 1303.02-594.36-129.54v-342.9l1043.94-121.92h15.24l152.4 121.92v3817.62l662.94 53.34v327.66h-1950.72v-327.66l670.56-60.96z"/><path d="m219501.63 83673.215q83.82 129.54 350.52 228.6t571.5 99.06q929.64 0 929.64-685.8 0-312.42-259.08-502.92-259.08-198.12-883.92-434.34-617.22-220.98-899.16-525.78t-281.94-815.34q0-327.66 198.12-571.5 205.74-243.84 541.02-373.38 342.9-137.16 739.14-137.16 388.62 0 647.7 68.58 266.7 68.58 525.78 167.64v906.78h-373.38l-137.16-556.26q-53.34-99.06-274.32-167.64-213.36-68.58-472.44-68.58-365.76 0-594.36 167.64-228.6 160.02-228.6 434.34 0 243.84 114.3 403.86t281.94 259.08q167.64 91.44 464.82 213.36l144.78 60.96q434.34 167.64 701.04 320.04 266.7 144.78 441.96 388.62 175.26 236.22 175.26 594.36 0 563.88-434.34 891.54-426.72 320.04-1143 320.04-327.66 0-746.76-106.68t-624.84-213.36v-960.12h411.48z"/><path d="m223974.56 84359.015q-403.86 0-609.6-182.88-205.74-190.5-205.74-670.56v-3009.9h-579.12v-297.18q381-83.82 441.96-121.92 114.3-60.96 167.64-236.22 45.72-114.3 121.92-411.48t114.3-464.82h350.52v1082.04h1348.74v449.58h-1348.74v2468.88q0 441.96 30.48 624.84 30.48 175.26 121.92 228.6t320.04 53.34q220.98 0 495.3-60.96t411.48-129.54l99.06 289.56q-175.26 137.16-579.12 266.7-403.86 121.92-701.04 121.92z"/><path d="m225750.01 82133.975q0-662.94 274.32-1165.86 281.94-502.92 731.52-769.62 457.2-266.7 952.5-266.7 960.12 0 1417.32 624.84 464.82 624.84 464.82 1600.2 0 662.94-281.94 1165.86-274.32 502.92-731.52 769.62-449.58 266.7-944.88 266.7-960.12 0-1424.94-624.84-457.2-624.84-457.2-1600.2zm1920.24 1828.8q586.74 0 906.78-449.58t320.04-1310.64q0-822.96-297.18-1348.74t-922.02-525.78q-586.74 0-914.4 449.58-320.04 449.58-320.04 1310.64 0 830.58 297.18 1356.36 304.8 518.16 929.64 518.16zm-510.54-4914.9 1181.1-1470.66 518.16 419.1q-152.4 228.6-678.18 685.8-518.16 449.58-784.86 571.5z"/><path d="m230314.38 83955.155 609.6-45.72v-3360.42l-586.74-129.54v-342.9l967.74-121.92h15.24l144.78 121.92v121.92l-15.24 579.12h15.24q15.24-15.24 198.12-228.6 190.5-220.98 556.26-419.1 373.38-198.12 746.76-198.12 121.92 0 228.6 30.48v670.56q-30.48-22.86-137.16-45.72-99.06-22.86-213.36-22.86-434.34 0-739.14 129.54t-563.88 320.04v2887.98l1013.46 60.96v312.42h-2240.28z"/><path d="m234604.44 79245.995q-411.48 0-411.48-434.34 0-220.98 129.54-358.14 129.54-144.78 350.52-144.78 228.6 0 327.66 129.54 99.06 121.92 99.06 304.8 0 236.22-129.54 373.38-121.92 129.54-358.14 129.54zm-243.84 1303.02-594.36-129.54v-342.9l1043.94-121.92h15.24l152.4 121.92v3817.62l662.94 53.34v327.66h-1950.72v-327.66l670.56-60.96z"/><path d="m236097.95 82187.315q0-617.22 236.22-1127.76 243.84-518.16 716.28-822.96 480.06-304.8 1165.86-304.8 297.18 0 579.12 76.2 281.94 68.58 487.68 152.4l-30.48 1089.66h-381l-160.02-731.52q-45.72-228.6-655.32-228.6-594.36 0-952.5 457.2-350.52 457.2-350.52 1249.68 0 944.88 381 1432.56t990.6 487.68q320.04 0 617.22-106.68 304.8-106.68 502.92-243.84l121.92 251.46q-220.98 220.98-609.6 381t-769.62 160.02q-601.98 0-1028.7-281.94-426.72-289.56-647.7-777.24-213.36-495.3-213.36-1112.52z"/><path d="m240106.05 83162.675q0-739.14 731.52-1066.8 731.52-335.28 1821.18-358.14v-236.22q0-388.62-83.82-609.6-76.2-228.6-274.32-327.66-198.12-106.68-556.26-106.68-388.62 0-708.66 121.92-312.42 114.3-609.6 281.94l-167.64-335.28q83.82-76.2 350.52-213.36t609.6-243.84 662.94-106.68q518.16 0 815.34 144.78 304.8 144.78 434.34 464.82 137.16 320.04 137.16 861.06v2514.6h472.44v281.94q-419.1 114.3-708.66 114.3-182.88 0-251.46-60.96-68.58-53.34-68.58-259.08v-281.94q-274.32 243.84-601.98 434.34-320.04 182.88-731.52 182.88-548.64 0-914.4-304.8-358.14-304.8-358.14-891.54zm1501.14 746.76q213.36 0 510.54-137.16t541.02-327.66v-1348.74q-922.02 7.62-1402.08 274.32-472.44 266.7-472.44 716.28 0 434.34 220.98 632.46 220.98 190.5 601.98 190.5z"/><path d="m247962.26 84359.015q-883.92 0-1363.98-601.98-472.44-609.6-472.44-1615.44 0-647.7 251.46-1150.62t693.42-777.24q449.58-281.94 1005.84-281.94 678.18 0 1051.56 388.62 381 388.62 411.48 1120.14 0 472.44-45.72 670.56h-2712.72q0 800.1 358.14 1310.64 365.76 502.92 1021.08 502.92 320.04 0 655.32-114.3t518.16-274.32l121.92 281.94q-220.98 228.6-647.7 388.62-419.1 152.4-845.82 152.4zm891.54-2606.04q22.86-160.02 22.86-335.28-7.62-502.92-243.84-800.1-228.6-297.18-708.66-297.18-1043.94 0-1135.38 1432.56z"/><path d="m251947.51 82187.315q0-617.22 236.22-1127.76 243.84-518.16 716.28-822.96 480.06-304.8 1165.86-304.8 297.18 0 579.12 76.2 281.94 68.58 487.68 152.4l-30.48 1089.66h-381l-160.02-731.52q-45.72-228.6-655.32-228.6-594.36 0-952.5 457.2-350.52 457.2-350.52 1249.68 0 944.88 381 1432.56t990.6 487.68q320.04 0 617.22-106.68 304.8-106.68 502.92-243.84l121.92 251.46q-220.98 220.98-609.6 381t-769.62 160.02q-601.98 0-1028.7-281.94-426.72-289.56-647.7-777.24-213.36-495.3-213.36-1112.52z"/><path d="m256801.45 79245.995q-411.48 0-411.48-434.34 0-220.98 129.54-358.14 129.54-144.78 350.52-144.78 228.6 0 327.66 129.54 99.06 121.92 99.06 304.8 0 236.22-129.54 373.38-121.92 129.54-358.14 129.54zm-243.84 1303.02-594.36-129.54v-342.9l1043.94-121.92h15.24l152.4 121.92v3817.62l662.94 53.34v327.66h-1950.72v-327.66l670.56-60.96z"/><path d="m260230.45 84359.015q-883.92 0-1363.98-601.98-472.44-609.6-472.44-1615.44 0-647.7 251.46-1150.62t693.42-777.24q449.58-281.94 1005.84-281.94 678.18 0 1051.56 388.62 381 388.62 411.48 1120.14 0 472.44-45.72 670.56h-2712.72q0 800.1 358.14 1310.64 365.76 502.92 1021.08 502.92 320.04 0 655.32-114.3t518.16-274.32l121.92 281.94q-220.98 228.6-647.7 388.62-419.1 152.4-845.82 152.4zm891.54-2606.04q22.86-160.02 22.86-335.28-7.62-502.92-243.84-800.1-228.6-297.18-708.66-297.18-1043.94 0-1135.38 1432.56z"/><path d="m262973.63 80549.015-586.74-129.54v-342.9l967.74-121.92h22.86l144.78 121.92v335.28l-7.62 190.5q281.94-243.84 746.76-449.58t861.06-205.74q487.68 0 746.76 190.5 266.7 182.88 365.76 571.5 106.68 381 106.68 1028.7v2156.46l571.5 53.34v327.66h-1699.26v-327.66l510.54-53.34v-2164.08q0-480.06-68.58-754.38-60.96-274.32-251.46-411.48-182.88-144.78-541.02-144.78-304.8 0-662.94 152.4-350.52 152.4-609.6 358.14v2956.56l556.26 60.96v327.66h-1684.02v-327.66l510.54-60.96z"/><path d="m268787.69 84359.015q-403.86 0-609.6-182.88-205.74-190.5-205.74-670.56v-3009.9h-579.12v-297.18q381-83.82 441.96-121.92 114.3-60.96 167.64-236.22 45.72-114.3 121.92-411.48t114.3-464.82h350.52v1082.04h1348.74v449.58h-1348.74v2468.88q0 441.96 30.48 624.84 30.48 175.26 121.92 228.6t320.04 53.34q220.98 0 495.3-60.96t411.48-129.54l99.06 289.56q-175.26 137.16-579.12 266.7-403.86 121.92-701.04 121.92z"/><path d="m271210.85 80549.015-594.36-129.54v-342.9l1043.94-121.92h15.24l152.4 121.92v3817.62l662.94 53.34v327.66h-1950.72v-327.66l670.56-60.96zm-274.32-1501.14 1181.1-1470.66 518.16 419.1q-152.4 228.6-678.18 685.8-518.16 449.58-784.86 571.5z"/><path d="m273694.96 80503.295h-769.62v-304.8l769.62-144.78v-373.38q0-457.2 236.22-838.2 236.22-388.62 609.6-617.22 381-228.6 792.48-228.6 243.84 0 426.72 60.96v624.84q-60.96-45.72-251.46-91.44-182.88-45.72-426.72-45.72-403.86 0-586.74 213.36t-182.88 723.9v571.5h1104.9v449.58h-1104.9v3390.9l868.68 53.34v327.66h-2156.46v-327.66l670.56-60.96zm3238.5-1257.3q-411.48 0-411.48-434.34 0-220.98 129.54-358.14 129.54-144.78 350.52-144.78 228.6 0 327.66 129.54 99.06 121.92 99.06 304.8 0 236.22-129.54 373.38-121.92 129.54-358.14 129.54zm-243.84 1303.02-594.36-129.54v-342.9l1043.94-121.92h15.24l152.4 121.92v3817.62l662.94 53.34v327.66h-1950.72v-327.66l670.56-60.96z"/><path d="m278426.97 82187.315q0-617.22 236.22-1127.76 243.84-518.16 716.28-822.96 480.06-304.8 1165.86-304.8 297.18 0 579.12 76.2 281.94 68.58 487.68 152.4l-30.48 1089.66h-381l-160.02-731.52q-45.72-228.6-655.32-228.6-594.36 0-952.5 457.2-350.52 457.2-350.52 1249.68 0 944.88 381 1432.56t990.6 487.68q320.04 0 617.22-106.68 304.8-106.68 502.92-243.84l121.92 251.46q-220.98 220.98-609.6 381t-769.62 160.02q-601.98 0-1028.7-281.94-426.72-289.56-647.7-777.24-213.36-495.3-213.36-1112.52z"/><path d="m282435.08 83162.675q0-739.14 731.52-1066.8 731.52-335.28 1821.18-358.14v-236.22q0-388.62-83.82-609.6-76.2-228.6-274.32-327.66-198.12-106.68-556.26-106.68-388.62 0-708.66 121.92-312.42 114.3-609.6 281.94l-167.64-335.28q83.82-76.2 350.52-213.36t609.6-243.84 662.94-106.68q518.16 0 815.34 144.78 304.8 144.78 434.34 464.82 137.16 320.04 137.16 861.06v2514.6h472.44v281.94q-419.1 114.3-708.66 114.3-182.88 0-251.46-60.96-68.58-53.34-68.58-259.08v-281.94q-274.32 243.84-601.98 434.34-320.04 182.88-731.52 182.88-548.64 0-914.4-304.8-358.14-304.8-358.14-891.54zm1501.14 746.76q213.36 0 510.54-137.16t541.02-327.66v-1348.74q-922.02 7.62-1402.08 274.32-472.44 266.7-472.44 716.28 0 434.34 220.98 632.46 220.98 190.5 601.98 190.5z"/><path d="m290116.03 84359.015q-449.58 0-830.58-228.6-381-236.22-609.6-708.66t-228.6-1158.24q0-655.32 266.7-1181.1 266.7-533.4 754.38-838.2 495.3-312.42 1150.62-312.42 419.1 0 807.72 91.44v-1508.76l-792.48-76.2v-274.32l1249.68-129.54h15.24l144.78 106.68v5791.2h464.82v297.18q-38.1 7.62-259.08 60.96t-472.44 53.34q-175.26 0-251.46-60.96-68.58-60.96-68.58-266.7v-266.7q-236.22 259.08-579.12 434.34-335.28 175.26-762 175.26zm251.46-480.06q327.66 0 617.22-152.4 297.18-160.02 441.96-350.52v-2804.16q-60.96-106.68-320.04-182.88-251.46-76.2-541.02-76.2-655.32 0-1051.56 472.44-396.24 464.82-396.24 1417.32 0 853.44 350.52 1264.92t899.16 411.48z"/><path d="m293148.79 82133.975q0-662.94 274.32-1165.86 281.94-502.92 731.52-769.62 457.2-266.7 952.5-266.7 960.12 0 1417.32 624.84 464.82 624.84 464.82 1600.2 0 662.94-281.94 1165.86-274.32 502.92-731.52 769.62-449.58 266.7-944.88 266.7-960.12 0-1424.94-624.84-457.2-624.84-457.2-1600.2zm1920.24 1828.8q586.74 0 906.78-449.58t320.04-1310.64q0-822.96-297.18-1348.74t-922.02-525.78q-586.74 0-914.4 449.58-320.04 449.58-320.04 1310.64 0 830.58 297.18 1356.36 304.8 518.16 929.64 518.16z"/></g><g aria-label="capitalismo;"><path d="m38565.08 95903.315q0-617.22 236.22-1127.76 243.84-518.16 716.28-822.96 480.06-304.8 1165.86-304.8 297.18 0 579.12 76.2 281.94 68.58 487.68 152.4l-30.48 1089.66h-381l-160.02-731.52q-45.72-228.6-655.32-228.6-594.36 0-952.5 457.2-350.52 457.2-350.52 1249.68 0 944.88 381 1432.56t990.6 487.68q320.04 0 617.22-106.68 304.8-106.68 502.92-243.84l121.92 251.46q-220.98 220.98-609.6 381t-769.62 160.02q-601.98 0-1028.7-281.94-426.72-289.56-647.7-777.24-213.36-495.3-213.36-1112.52z"/><path d="m42573.202 96878.675q0-739.14 731.52-1066.8 731.52-335.28 1821.18-358.14v-236.22q0-388.62-83.82-609.6-76.2-228.6-274.32-327.66-198.12-106.68-556.26-106.68-388.62 0-708.66 121.92-312.42 114.3-609.6 281.94l-167.64-335.28q83.82-76.2 350.52-213.36t609.6-243.84 662.94-106.68q518.16 0 815.34 144.78 304.8 144.78 434.34 464.82 137.16 320.04 137.16 861.06v2514.6h472.44v281.94q-419.1 114.3-708.66 114.3-182.88 0-251.46-60.96-68.58-53.34-68.58-259.08v-281.94q-274.32 243.84-601.98 434.34-320.04 182.88-731.52 182.88-548.64 0-914.4-304.8-358.14-304.8-358.14-891.54zm1501.14 746.76q213.36 0 510.54-137.16t541.02-327.66v-1348.74q-922.02 7.62-1402.08 274.32-472.44 266.7-472.44 716.28 0 434.34 220.98 632.46 220.98 190.5 601.98 190.5z"/><path d="m50833.282 95720.435q0 655.32-266.7 1196.34-266.7 533.4-762 845.82-487.68 312.42-1120.14 312.42-213.36 0-449.58-38.1-236.22-30.48-388.62-83.82l15.24 647.7v822.96l845.82 76.2v335.28h-2042.16v-335.28l586.74-76.2v-5158.74l-594.36-129.54v-342.9l975.36-121.92h15.24l137.16 121.92v464.82q243.84-251.46 594.36-426.72 350.52-182.88 784.86-182.88 441.96 0 822.96 220.98t609.6 685.8q236.22 464.82 236.22 1165.86zm-1920.24-1607.82q-327.66 0-609.6 137.16t-441.96 304.8v2903.22q60.96 99.06 304.8 182.88 251.46 76.2 548.64 76.2 655.32 0 1051.56-480.06 403.86-487.68 403.86-1432.56 0-845.82-358.14-1264.92-350.52-426.72-899.16-426.72z"/><path d="m52418.241 92961.995q-411.48 0-411.48-434.34 0-220.98 129.54-358.14 129.54-144.78 350.52-144.78 228.6 0 327.66 129.54 99.06 121.92 99.06 304.8 0 236.22-129.54 373.38-121.92 129.54-358.14 129.54zm-243.84 1303.02-594.36-129.54v-342.9l1043.94-121.92h15.24l152.4 121.92v3817.62l662.94 53.34v327.66h-1950.72v-327.66l670.56-60.96z"/><path d="m55313.84 98075.015q-403.86 0-609.6-182.88-205.74-190.5-205.74-670.56v-3009.9h-579.12v-297.18q381-83.82 441.96-121.92 114.3-60.96 167.64-236.22 45.72-114.3 121.92-411.48t114.3-464.82h350.52v1082.04h1348.74v449.58h-1348.74v2468.88q0 441.96 30.48 624.84 30.48 175.26 121.92 228.6t320.04 53.34q220.98 0 495.3-60.96t411.48-129.54l99.06 289.56q-175.26 137.16-579.12 266.7-403.86 121.92-701.04 121.92z"/><path d="m57135.022 96878.675q0-739.14 731.52-1066.8 731.52-335.28 1821.18-358.14v-236.22q0-388.62-83.82-609.6-76.2-228.6-274.32-327.66-198.12-106.68-556.26-106.68-388.62 0-708.66 121.92-312.42 114.3-609.6 281.94l-167.64-335.28q83.82-76.2 350.52-213.36t609.6-243.84 662.94-106.68q518.16 0 815.34 144.78 304.8 144.78 434.34 464.82 137.16 320.04 137.16 861.06v2514.6h472.44v281.94q-419.1 114.3-708.66 114.3-182.88 0-251.46-60.96-68.58-53.34-68.58-259.08v-281.94q-274.32 243.84-601.98 434.34-320.04 182.88-731.52 182.88-548.64 0-914.4-304.8-358.14-304.8-358.14-891.54zm1501.14 746.76q213.36 0 510.54-137.16t541.02-327.66v-1348.74q-922.02 7.62-1402.08 274.32-472.44 266.7-472.44 716.28 0 434.34 220.98 632.46 220.98 190.5 601.98 190.5z"/><path d="m61958.482 92230.475-647.7-68.58v-281.94l1112.52-129.54h7.62l144.78 99.06v5760.72l716.28 53.34v327.66h-2004.06v-327.66l670.56-60.96z"/><path d="m64732.163 92961.995q-411.48 0-411.48-434.34 0-220.98 129.54-358.14 129.54-144.78 350.52-144.78 228.6 0 327.66 129.54 99.06 121.92 99.06 304.8 0 236.22-129.54 373.38-121.92 129.54-358.14 129.54zm-243.84 1303.02-594.36-129.54v-342.9l1043.94-121.92h15.24l152.4 121.92v3817.62l662.94 53.34v327.66h-1950.72v-327.66l670.56-60.96z"/><path d="m66934.342 97389.215q83.82 129.54 350.52 228.6t571.5 99.06q929.64 0 929.64-685.8 0-312.42-259.08-502.92-259.08-198.12-883.92-434.34-617.22-220.98-899.16-525.78t-281.94-815.34q0-327.66 198.12-571.5 205.74-243.84 541.02-373.38 342.9-137.16 739.14-137.16 388.62 0 647.7 68.58 266.7 68.58 525.78 167.64v906.78h-373.38l-137.16-556.26q-53.34-99.06-274.32-167.64-213.36-68.58-472.44-68.58-365.76 0-594.36 167.64-228.6 160.02-228.6 434.34 0 243.84 114.3 403.86t281.94 259.08q167.64 91.44 464.82 213.36l144.78 60.96q434.34 167.64 701.04 320.04 266.7 144.78 441.96 388.62 175.26 236.22 175.26 594.36 0 563.88-434.34 891.54-426.72 320.04-1143 320.04-327.66 0-746.76-106.68t-624.84-213.36v-960.12h411.48z"/><path d="m70081.397 97663.535 487.68-60.96v-3337.56l-586.74-129.54v-342.9l967.74-121.92 167.64 121.92v335.28l-7.62 190.5q281.94-243.84 739.14-449.58t830.58-205.74q411.48 0 655.32 137.16 251.46 137.16 381 426.72 236.22-198.12 685.8-381 457.2-182.88 838.2-182.88 480.06 0 739.14 182.88 266.7 182.88 373.38 563.88t106.68 1028.7v2164.08l579.12 60.96v327.66h-1706.88v-327.66l518.16-60.96v-2141.22q0-480.06-68.58-762t-266.7-426.72-579.12-144.78q-281.94 0-594.36 129.54-304.8 121.92-525.78 281.94 76.2 350.52 76.2 914.4v2148.84l579.12 60.96v327.66h-1744.98v-327.66l548.64-60.96v-2156.46q0-487.68-60.96-762-53.34-274.32-236.22-411.48t-541.02-137.16q-297.18 0-647.7 152.4-342.9 144.78-601.98 350.52v2964.18l541.02 60.96v327.66h-1645.92z"/><path d="m77587.103 95849.975q0-662.94 274.32-1165.86 281.94-502.92 731.52-769.62 457.2-266.7 952.5-266.7 960.12 0 1417.32 624.84 464.82 624.84 464.82 1600.2 0 662.94-281.94 1165.86-274.32 502.92-731.52 769.62-449.58 266.7-944.88 266.7-960.12 0-1424.94-624.84-457.2-624.84-457.2-1600.2zm1920.24 1828.8q586.74 0 906.78-449.58t320.04-1310.64q0-822.96-297.18-1348.74t-922.02-525.78q-586.74 0-914.4 449.58-320.04 449.58-320.04 1310.64 0 830.58 297.18 1356.36 304.8 518.16 929.64 518.16z"/><path d="m83065.882 94905.095q-175.26 0-297.18-114.3-121.92-121.92-121.92-312.42 0-213.36 144.78-358.14 152.4-144.78 350.52-144.78 205.74 0 304.8 121.92 106.68 121.92 106.68 304.8 0 213.36-144.78 358.14t-342.9 144.78zm22.86 2026.92q243.84 0 388.62 228.6t144.78 647.7-121.92 792.48-312.42 640.08-381 381h-7.62l-220.98-152.4v-68.58q91.44-68.58 198.12-281.94 114.3-205.74 190.5-480.06 83.82-274.32 83.82-533.4 0-114.3-45.72-182.88-38.1-68.58-121.92-160.02-99.06-99.06-152.4-190.5-45.72-91.44-45.72-251.46 0-175.26 106.68-281.94 114.3-106.68 266.7-106.68z"/></g><g aria-label="Luta de classes."><path d="m39365.18 106457.01-640.08-83.82v-327.66h2026.92v327.66l-762 83.82v4853.94l2171.7-60.96 426.72-1188.72 365.76 60.96-281.94 1584.96h-3962.4v-327.66l655.32-68.58z"/><path d="m46947.083 111775.77q-198.12 0-289.56-68.58t-91.44-251.46v-297.18q-281.94 251.46-662.94 441.96t-762 190.5q-693.42 0-990.6-388.62-289.56-388.62-289.56-1264.92v-2240.28l-449.58-129.54v-281.94l922.02-99.06h7.62l137.16 91.44v2567.94q0 480.06 68.58 754.38 68.58 266.7 251.46 396.24t533.4 129.54q335.28 0 640.08-144.78t525.78-342.9v-2941.32l-579.12-129.54v-281.94l1013.46-99.06h7.62l175.26 91.44v3893.82h472.44l-7.62 289.56q-38.1 7.62-220.98 60.96t-411.48 53.34z"/><path d="m49560.742 111791.01q-403.86 0-609.6-182.88-205.74-190.5-205.74-670.56v-3009.9h-579.12v-297.18q381-83.82 441.96-121.92 114.3-60.96 167.64-236.22 45.72-114.3 121.92-411.48t114.3-464.82h350.52v1082.04h1348.74v449.58h-1348.74v2468.88q0 441.96 30.48 624.84 30.48 175.26 121.92 228.6t320.04 53.34q220.98 0 495.3-60.96t411.48-129.54l99.06 289.56q-175.26 137.16-579.12 266.7-403.86 121.92-701.04 121.92z"/><path d="m51381.921 110594.67q0-739.14 731.52-1066.8 731.52-335.28 1821.18-358.14v-236.22q0-388.62-83.82-609.6-76.2-228.6-274.32-327.66-198.12-106.68-556.26-106.68-388.62 0-708.66 121.92-312.42 114.3-609.6 281.94l-167.64-335.28q83.82-76.2 350.52-213.36t609.6-243.84 662.94-106.68q518.16 0 815.34 144.78 304.8 144.78 434.34 464.82 137.16 320.04 137.16 861.06v2514.6h472.44v281.94q-419.1 114.3-708.66 114.3-182.88 0-251.46-60.96-68.58-53.34-68.58-259.08v-281.94q-274.32 243.84-601.98 434.34-320.04 182.88-731.52 182.88-548.64 0-914.4-304.8-358.14-304.8-358.14-891.54zm1501.14 746.76q213.36 0 510.54-137.16t541.02-327.66v-1348.74q-922.02 7.62-1402.08 274.32-472.44 266.7-472.44 716.28 0 434.34 220.98 632.46 220.98 190.5 601.98 190.5z"/><path d="m59062.882 111791.01q-449.58 0-830.58-228.6-381-236.22-609.6-708.66t-228.6-1158.24q0-655.32 266.7-1181.1 266.7-533.4 754.38-838.2 495.3-312.42 1150.62-312.42 419.1 0 807.72 91.44v-1508.76l-792.48-76.2v-274.32l1249.68-129.54h15.24l144.78 106.68v5791.2h464.82v297.18q-38.1 7.62-259.08 60.96t-472.44 53.34q-175.26 0-251.46-60.96-68.58-60.96-68.58-266.7v-266.7q-236.22 259.08-579.12 434.34-335.28 175.26-762 175.26zm251.46-480.06q327.66 0 617.22-152.4 297.18-160.02 441.96-350.52v-2804.16q-60.96-106.68-320.04-182.88-251.46-76.2-541.02-76.2-655.32 0-1051.56 472.44-396.24 464.82-396.24 1417.32 0 853.44 350.52 1264.92t899.16 411.48z"/><path d="m63947.302 111791.01q-883.92 0-1363.98-601.98-472.44-609.6-472.44-1615.44 0-647.7 251.46-1150.62t693.42-777.24q449.58-281.94 1005.84-281.94 678.18 0 1051.56 388.62 381 388.62 411.48 1120.14 0 472.44-45.72 670.56h-2712.72q0 800.1 358.14 1310.64 365.76 502.92 1021.08 502.92 320.04 0 655.32-114.3t518.16-274.32l121.92 281.94q-220.98 228.6-647.7 388.62-419.1 152.4-845.82 152.4zm891.54-2606.04q22.86-160.02 22.86-335.28-7.62-502.92-243.84-800.1-228.6-297.18-708.66-297.18-1043.94 0-1135.38 1432.56z"/><path d="m67932.564 109619.31q0-617.22 236.22-1127.76 243.84-518.16 716.28-822.96 480.06-304.8 1165.86-304.8 297.18 0 579.12 76.2 281.94 68.58 487.68 152.4l-30.48 1089.66h-381l-160.02-731.52q-45.72-228.6-655.32-228.6-594.36 0-952.5 457.2-350.52 457.2-350.52 1249.68 0 944.88 381 1432.56t990.6 487.68q320.04 0 617.22-106.68 304.8-106.68 502.92-243.84l121.92 251.46q-220.98 220.98-609.6 381t-769.62 160.02q-601.98 0-1028.7-281.94-426.72-289.56-647.7-777.24-213.36-495.3-213.36-1112.52z"/><path d="m72519.802 105946.47-647.7-68.58v-281.94l1112.52-129.54h7.62l144.781 99.06v5760.72l716.279 53.34v327.66h-2004.06v-327.66l670.56-60.96z"/><path d="m74447.659 110594.67q0-739.14 731.52-1066.8 731.52-335.28 1821.18-358.14v-236.22q0-388.62-83.82-609.6-76.2-228.6-274.32-327.66-198.12-106.68-556.26-106.68-388.62 0-708.66 121.92-312.42 114.3-609.6 281.94l-167.64-335.28q83.82-76.2 350.52-213.36t609.6-243.84 662.94-106.68q518.16 0 815.34 144.78 304.8 144.78 434.34 464.82 137.16 320.04 137.16 861.06v2514.6h472.44v281.94q-419.1 114.3-708.66 114.3-182.88 0-251.46-60.96-68.58-53.34-68.58-259.08v-281.94q-274.32 243.84-601.98 434.34-320.04 182.88-731.52 182.88-548.64 0-914.4-304.8-358.14-304.8-358.14-891.54zm1501.14 746.76q213.36 0 510.54-137.16t541.02-327.66v-1348.74q-922.02 7.62-1402.08 274.32-472.44 266.7-472.44 716.28 0 434.34 220.98 632.46 220.98 190.5 601.98 190.5z"/><path d="m79271.123 111105.21q83.82 129.54 350.52 228.6t571.5 99.06q929.64 0 929.64-685.8 0-312.42-259.08-502.92-259.08-198.12-883.92-434.34-617.22-220.98-899.16-525.78t-281.94-815.34q0-327.66 198.12-571.5 205.74-243.84 541.02-373.38 342.9-137.16 739.14-137.16 388.62 0 647.7 68.58 266.7 68.58 525.78 167.64v906.78h-373.38l-137.16-556.26q-53.34-99.06-274.32-167.64-213.36-68.58-472.44-68.58-365.76 0-594.36 167.64-228.6 160.02-228.6 434.34 0 243.84 114.3 403.86t281.94 259.08q167.64 91.44 464.82 213.36l144.78 60.96q434.34 167.64 701.04 320.04 266.7 144.78 441.96 388.62 175.26 236.22 175.26 594.36 0 563.88-434.34 891.54-426.72 320.04-1143 320.04-327.66 0-746.76-106.68t-624.84-213.36v-960.12h411.48z"/><path d="m83050.638 111105.21q83.82 129.54 350.52 228.6t571.5 99.06q929.64 0 929.64-685.8 0-312.42-259.08-502.92-259.08-198.12-883.92-434.34-617.22-220.98-899.16-525.78t-281.94-815.34q0-327.66 198.12-571.5 205.74-243.84 541.02-373.38 342.9-137.16 739.14-137.16 388.62 0 647.7 68.58 266.7 68.58 525.78 167.64v906.78h-373.38l-137.16-556.26q-53.34-99.06-274.32-167.64-213.36-68.58-472.44-68.58-365.76 0-594.36 167.64-228.6 160.02-228.6 434.34 0 243.84 114.3 403.86t281.94 259.08q167.64 91.44 464.82 213.36l144.78 60.96q434.34 167.64 701.04 320.04 266.7 144.78 441.96 388.62 175.26 236.22 175.26 594.36 0 563.88-434.34 891.54-426.72 320.04-1143 320.04-327.66 0-746.76-106.68t-624.84-213.36v-960.12h411.48z"/><path d="m88056.982 111791.01q-883.92 0-1363.98-601.98-472.44-609.6-472.44-1615.44 0-647.7 251.46-1150.62t693.42-777.24q449.58-281.94 1005.84-281.94 678.18 0 1051.56 388.62 381 388.62 411.48 1120.14 0 472.44-45.72 670.56h-2712.72q0 800.1 358.14 1310.64 365.76 502.92 1021.08 502.92 320.04 0 655.32-114.3t518.16-274.32l121.92 281.94q-220.98 228.6-647.7 388.62-419.1 152.4-845.82 152.4zm891.54-2606.04q22.86-160.02 22.86-335.28-7.62-502.92-243.84-800.1-228.6-297.18-708.66-297.18-1043.94 0-1135.38 1432.56z"/><path d="m90944.959 111105.21q83.82 129.54 350.52 228.6t571.5 99.06q929.64 0 929.64-685.8 0-312.42-259.08-502.92-259.08-198.12-883.92-434.34-617.22-220.98-899.16-525.78t-281.94-815.34q0-327.66 198.12-571.5 205.74-243.84 541.02-373.38 342.9-137.16 739.14-137.16 388.62 0 647.7 68.58 266.7 68.58 525.78 167.64v906.78h-373.38l-137.16-556.26q-53.34-99.06-274.32-167.64-213.36-68.58-472.44-68.58-365.76 0-594.36 167.64-228.6 160.02-228.6 434.34 0 243.84 114.3 403.86t281.94 259.08q167.64 91.44 464.82 213.36l144.78 60.96q434.34 167.64 701.04 320.04 266.7 144.78 441.96 388.62 175.26 236.22 175.26 594.36 0 563.88-434.34 891.54-426.72 320.04-1143 320.04-327.66 0-746.76-106.68t-624.84-213.36v-960.12h411.48z"/><path d="m94663.522 111791.01q-175.26 0-297.18-114.3-121.92-121.92-121.92-312.42 0-213.36 144.78-358.14 152.4-144.78 350.52-144.78 205.74 0 304.8 121.92 106.68 121.92 106.68 304.8 0 213.36-144.78 358.14t-342.9 144.78z"/></g></g><g stroke-width=".329913"><g transform="matrix(3.0311151,0,0,3.0311151,-57006.178,-237548.91)"><path d="m28479.452 95369.918c156.184 135.02 255.159 324.34 276.751 529.66 21.588 205.33-35.829 411.27-160.509 575.82-130.887 164.7-320.449 272.17-528.979 299.9-208.528 27.72-400.323-9.74-569.699-134.5-13.223-8.93-34.668-0.84-47.244 6.13-7.486 4.14-33.234 38.95-57.912 69.41-20.854-12.95-43.386-29.5-52.363-27.75 0 0-5.042 11.71-6.616 17.87-17.812 69.62-87.083 159.57-133.629 214.05-25.213 29.52-185.21 190.43-324.672 359.08-77.591 93.83-171.821 240.28-177.998 247.6-24.087 28.55-4.611 52.45-4.611 52.45s28.933 26.48 44.41 38.48c15.571 12.06 48.57 33.64 48.57 33.64s27.77 12.84 49.461-17.58c5.562-7.8 124.11-135.34 195.763-233.78 128.79-176.92 245.014-371.71 267.353-403.46 41.239-58.59 111.253-148.11 174.284-182.63 5.569-3.05 15.778-10.93 15.778-10.93-0.438-7.66-18.892-21.81-33.453-36.63 26.911-27.41 57.793-67.31 76.172-49.91 175.657 136.6 398.483 197.73 619.287 170.11 220.801-27.61 421.492-141.7 558.098-317.36 136.606-175.65 216.43-401.51 170.241-619.19-52.271-246.34-155.537-481.73-398.482-580.48z" fill="#ed4e38" style="paint-order:fill markers stroke"/><g transform="rotate(4.7574269,178373.68,71098.412)" stroke-width=".329913"><g transform="translate(9702.9621,2327.6761)" stroke-width=".329913"><path d="m20635.038 105655.32c-7.394 8.98-14.061 18.32-20.433 27.69l-511.605 621.53c-9.436 11.46-7.814 28.23 3.655 37.67l221.653 182.45c11.457 9.43 28.236 7.81 37.673-3.66l301.705-366.52c98.518 67.94 865.519 750.13 1267.84 1073.95 87.57 70.49 275.157 194.98 275.157 194.98 23.375 19.24 57.619 16.14 76.86-7.24l21.066-25.59c19.241-23.38 14.913-56.67-7.474-77.06 0 0-168.715-165.22-261.396-238.01-393.682-309.19-1202.077-943.54-1280.634-1032.09l118.479-143.93c30.204-30.88 58.316-69.88 71.92-102.7l173.392-419.76c20.021-48.46 0.973-64.13-42.733-35.18l-378.608 250.84c-21.858 14.48-45.733 37.38-66.518 62.63z" fill="#ed4e38" style="paint-order:fill markers stroke"/></g></g></g><g transform="matrix(3.0311151,0,0,3.0311151,-57006.178,-210116.92)"><path d="m28479.452 95369.918c156.184 135.02 255.159 324.34 276.751 529.66 21.588 205.33-35.829 411.27-160.509 575.82-130.887 164.7-320.449 272.17-528.979 299.9-208.528 27.72-400.323-9.74-569.699-134.5-13.223-8.93-34.668-0.84-47.244 6.13-7.486 4.14-33.234 38.95-57.912 69.41-20.854-12.95-43.386-29.5-52.363-27.75 0 0-5.042 11.71-6.616 17.87-17.812 69.62-87.083 159.57-133.629 214.05-25.213 29.52-185.21 190.43-324.672 359.08-77.591 93.83-171.821 240.28-177.998 247.6-24.087 28.55-4.611 52.45-4.611 52.45s28.933 26.48 44.41 38.48c15.571 12.06 48.57 33.64 48.57 33.64s27.77 12.84 49.461-17.58c5.562-7.8 124.11-135.34 195.763-233.78 128.79-176.92 245.014-371.71 267.353-403.46 41.239-58.59 111.253-148.11 174.284-182.63 5.569-3.05 15.778-10.93 15.778-10.93-0.438-7.66-18.892-21.81-33.453-36.63 26.911-27.41 57.793-67.31 76.172-49.91 175.657 136.6 398.483 197.73 619.287 170.11 220.801-27.61 421.492-141.7 558.098-317.36 136.606-175.65 216.43-401.51 170.241-619.19-52.271-246.34-155.537-481.73-398.482-580.48z" fill="#ed4e38" style="paint-order:fill markers stroke"/><g transform="rotate(4.7574269,178373.68,71098.412)" stroke-width=".329913"><g transform="translate(9702.9621,2327.6761)" stroke-width=".329913"><path d="m20635.038 105655.32c-7.394 8.98-14.061 18.32-20.433 27.69l-511.605 621.53c-9.436 11.46-7.814 28.23 3.655 37.67l221.653 182.45c11.457 9.43 28.236 7.81 37.673-3.66l301.705-366.52c98.518 67.94 865.519 750.13 1267.84 1073.95 87.57 70.49 275.157 194.98 275.157 194.98 23.375 19.24 57.619 16.14 76.86-7.24l21.066-25.59c19.241-23.38 14.913-56.67-7.474-77.06 0 0-168.715-165.22-261.396-238.01-393.682-309.19-1202.077-943.54-1280.634-1032.09l118.479-143.93c30.204-30.88 58.316-69.88 71.92-102.7l173.392-419.76c20.021-48.46 0.973-64.13-42.733-35.18l-378.608 250.84c-21.858 14.48-45.733 37.38-66.518 62.63z" fill="#ed4e38" style="paint-order:fill markers stroke"/></g></g></g><g transform="matrix(3.0311151,0,0,3.0311151,-57006.178,-182012.78)"><path d="m28479.452 95369.918c156.184 135.02 255.159 324.34 276.751 529.66 21.588 205.33-35.829 411.27-160.509 575.82-130.887 164.7-320.449 272.17-528.979 299.9-208.528 27.72-400.323-9.74-569.699-134.5-13.223-8.93-34.668-0.84-47.244 6.13-7.486 4.14-33.234 38.95-57.912 69.41-20.854-12.95-43.386-29.5-52.363-27.75 0 0-5.042 11.71-6.616 17.87-17.812 69.62-87.083 159.57-133.629 214.05-25.213 29.52-185.21 190.43-324.672 359.08-77.591 93.83-171.821 240.28-177.998 247.6-24.087 28.55-4.611 52.45-4.611 52.45s28.933 26.48 44.41 38.48c15.571 12.06 48.57 33.64 48.57 33.64s27.77 12.84 49.461-17.58c5.562-7.8 124.11-135.34 195.763-233.78 128.79-176.92 245.014-371.71 267.353-403.46 41.239-58.59 111.253-148.11 174.284-182.63 5.569-3.05 15.778-10.93 15.778-10.93-0.438-7.66-18.892-21.81-33.453-36.63 26.911-27.41 57.793-67.31 76.172-49.91 175.657 136.6 398.483 197.73 619.287 170.11 220.801-27.61 421.492-141.7 558.098-317.36 136.606-175.65 216.43-401.51 170.241-619.19-52.271-246.34-155.537-481.73-398.482-580.48z" fill="#ed4e38" style="paint-order:fill markers stroke"/><g transform="rotate(4.7574269,178373.68,71098.412)" stroke-width=".329913"><g transform="translate(9702.9621,2327.6761)" stroke-width=".329913"><path d="m20635.038 105655.32c-7.394 8.98-14.061 18.32-20.433 27.69l-511.605 621.53c-9.436 11.46-7.814 28.23 3.655 37.67l221.653 182.45c11.457 9.43 28.236 7.81 37.673-3.66l301.705-366.52c98.518 67.94 865.519 750.13 1267.84 1073.95 87.57 70.49 275.157 194.98 275.157 194.98 23.375 19.24 57.619 16.14 76.86-7.24l21.066-25.59c19.241-23.38 14.913-56.67-7.474-77.06 0 0-168.715-165.22-261.396-238.01-393.682-309.19-1202.077-943.54-1280.634-1032.09l118.479-143.93c30.204-30.88 58.316-69.88 71.92-102.7l173.392-419.76c20.021-48.46 0.973-64.13-42.733-35.18l-378.608 250.84c-21.858 14.48-45.733 37.38-66.518 62.63z" fill="#ed4e38" style="paint-order:fill markers stroke"/></g></g></g></g></g></g></g></g></svg>
