<svg version="1.1" viewBox="0 0 960 540" xml:space="preserve" xmlns="http://www.w3.org/2000/svg"><g transform="matrix(1.3333333 0 0 -1.3333333 0 540)"><path transform="matrix(.0019685 0 0 -.0019685 0 405)" d="m16589 17801h336708v22908h-336708z" fill="none"/><g transform="matrix(.7499985 0 0 -.7499985 39.405435 339.016794)" fill="#ed4e38" aria-label="SOCIALISMO CIENTÍFICO "><path d="m9.2399996 0.40319998q-3.8975998 0-5.8127998-2.04959988-1.8815999-2.0831999-2.0159999-6.5855997l5.1407998-0.7728q0.0336 2.5871999 0.6048 3.7295998 0.6047999 1.1088 1.7807999 1.1088 1.5120004 0 1.5120004-1.9823999 0-1.5791999-0.7392004-2.7215999-0.7056-1.1424004-2.2511999-2.4527994l-2.3519999-2.0496q-1.7472-1.4784-2.7215999-3.1248-0.9408-1.68-0.9408-3.9648 0-3.4272 2.0159999-5.2752 2.0495999-1.848 5.6111998-1.848 3.8639994 0 5.2415994 2.2512 1.4112 2.2512 1.512 5.4768l-5.174399 0.6384q-0.0672-2.1168-0.4032-3.024-0.3024005-0.9408-1.3776004-0.9408-0.7728 0-1.2095999 0.672-0.4032 0.6384-0.4032 1.4448 0 1.3776 0.6047999 2.3184 0.6384 0.9408 2.016 2.1504l2.2511994 1.9824q2.016 1.7136 3.1248 3.628799 1.1088 1.9152004 1.1088 4.5360003 0 1.9151999-0.9072 3.4943998-0.8736 1.5456-2.4864 2.45279992-1.6128 0.90719996-3.7295994 0.90719996z"/><path d="m31.081604 0.40319998q-4.401599 0-6.283199-2.25119988-1.8816-2.2847999-1.8816-6.7199997v-10.1135994q0-4.4352 1.8816-6.6528 1.8816-2.2512 6.283199-2.2512 4.4352 0 6.3168 2.2512 1.9152 2.2512 1.9152 6.6528v10.1135994q0 4.4351998-1.9152 6.7199997-1.8816 2.25119988-6.3168 2.25119988zm0-4.26719978q1.2768 0 1.68-0.84 0.4032-0.8735999 0.4032-2.3519999v-13.1039993q0-1.512-0.4032-2.352t-1.68-0.84q-1.2096 0-1.6128 0.8736-0.4032 0.84-0.4032 2.3184v13.1039993q0 1.4784 0.3696 2.3519999 0.3696 0.84 1.6464 0.84z"/><path d="m54.771164 0.40319998q-4.435199 0-6.316799-2.31839988-1.848-2.3519999-1.848-6.7535997v-9.8111994q0-4.5024 1.848-6.7872 1.848-2.3184 6.316799-2.3184 4.2672 0 6.048 2.0496t1.7808 5.8128v2.352h-5.88v-2.7216q0-1.5792-0.336-2.4192t-1.6128-0.84-1.68 0.9072q-0.4032 0.8736-0.4032 2.4528v12.8015993q0 1.6128 0.4032 2.4863999 0.4368 0.84 1.68 0.84t1.5792-0.84q0.3696-0.8735999 0.3696-2.4863999v-2.8560003h5.88v2.3520003q0 3.8303999-1.7808 5.9807998-1.7808 2.11679988-6.048 2.11679988z"/><path d="m69.926362-27.215999h6.0144v27.215999h-6.0144z"/><path d="m87.836726-27.215999h6.854399l5.0736 27.215999h-5.544l-0.9072-5.7455997h-3.998399l-0.9408 5.7455997h-5.6784zm4.905599 17.8751994-1.444799-10.6175994-1.4448 10.6175994z"/><path d="m106.51989-27.215999h6.0144v23.1503992h6.2496v4.0655998h-12.264z"/><path d="m125.43826-27.215999h6.0144v27.215999h-6.0144z"/><path d="m146.74223 0.40319998q-3.8976 0-5.8128-2.04959988-1.8816-2.0831999-2.016-6.5855997l5.1408-0.7728q0.0336 2.5871999 0.6048 3.7295998 0.6048 1.1088 1.7808 1.1088 1.512 0 1.512-1.9823999 0-1.5791999-0.7392-2.7215999-0.7056-1.1424004-2.2512-2.4527994l-2.352-2.0496q-1.7472-1.4784-2.7216-3.1248-0.9408-1.68-0.9408-3.9648 0-3.4272 2.016-5.2752 2.0496-1.848 5.6112-1.848 3.864 0 5.2416 2.2512 1.4112 2.2512 1.512 5.4768l-5.1744 0.6384q-0.0672-2.1168-0.4032-3.024-0.3024-0.9408-1.3776-0.9408-0.7728 0-1.2096 0.672-0.4032 0.6384-0.4032 1.4448 0 1.3776 0.6048 2.3184 0.6384 0.9408 2.016 2.1504l2.2512 1.9824q2.016 1.7136 3.1248 3.628799 1.1088 1.9152004 1.1088 4.5360003 0 1.9151999-0.9072 3.4943998-0.8736 1.5456-2.4864 2.45279992-1.6128 0.90719996-3.7296 0.90719996z"/><path d="m160.88938-27.215999h6.4512l2.9904 15.8256 3.2256-15.8256h6.216l0.4704 27.215999h-4.2672l-0.504-18.110399-3.1584 18.110399h-3.7968l-3.36-18.244799-0.4032 18.244799h-4.3344z"/><path d="m195.96934 0.40319998q-4.4016 0-6.2832-2.25119988-1.8816-2.2847999-1.8816-6.7199997v-10.1135994q0-4.4352 1.8816-6.6528 1.8816-2.2512 6.2832-2.2512 4.4352 0 6.3168 2.2512 1.9152 2.2512 1.9152 6.6528v10.1135994q0 4.4351998-1.9152 6.7199997-1.8816 2.25119988-6.3168 2.25119988zm0-4.26719978q1.2768 0 1.68-0.84 0.4032-0.8735999 0.4032-2.3519999v-13.1039993q0-1.512-0.4032-2.352t-1.68-0.84q-1.2096 0-1.6128 0.8736-0.4032 0.84-0.4032 2.3184v13.1039993q0 1.4784 0.3696 2.3519999 0.3696 0.84 1.6464 0.84z"/><path d="m232.26046 0.40319998q-4.4352 0-6.3168-2.31839988-1.848-2.3519999-1.848-6.7535997v-9.8111994q0-4.5024 1.848-6.7872 1.848-2.3184 6.3168-2.3184 4.2672 0 6.048 2.0496t1.7808 5.8128v2.352h-5.88v-2.7216q0-1.5792-0.336-2.4192t-1.6128-0.84-1.68 0.9072q-0.4032 0.8736-0.4032 2.4528v12.8015993q0 1.6128 0.4032 2.4863999 0.4368 0.84 1.68 0.84t1.5792-0.84q0.3696-0.8735999 0.3696-2.4863999v-2.8560003h5.88v2.3520003q0 3.8303999-1.7808 5.9807998-1.7808 2.11679988-6.048 2.11679988z"/><path d="m247.41566-27.215999h6.0144v27.215999h-6.0144z"/><path d="m261.49561-27.215999h12.2304v4.0992h-6.216v6.7536h4.7376v4.1664h-4.7376v8.1311992h6.2832v4.0655998h-12.2976z"/><path d="m280.51478-27.215999h4.2336l5.5776 13.104v-13.104h4.9728v27.215999h-4.0656l-5.5776-14.111999v14.111999h-5.1408z"/><path d="m305.81716-22.747199h-4.0992v-4.4688h14.2128v4.4688h-4.0656v22.747199h-6.048z"/><path d="m322.34995-27.215999h6.0144v27.215999h-6.0144zm3.2928-8.903999h5.5776l-4.2336 6.753599h-3.4608z"/><path d="m336.42991-27.215999h11.76v4.0656h-5.7456v6.8544h5.0064v4.2h-5.0064v12.095999h-6.0144z"/><path d="m355.04585-27.215999h6.0144v27.215999h-6.0144z"/><path d="m376.92103 0.40319998q-4.4352 0-6.3168-2.31839988-1.848-2.3519999-1.848-6.7535997v-9.8111994q0-4.5024 1.848-6.7872 1.848-2.3184 6.3168-2.3184 4.2672 0 6.048 2.0496t1.7808 5.8128v2.352h-5.88v-2.7216q0-1.5792-0.336-2.4192t-1.6128-0.84-1.68 0.9072q-0.4032 0.8736-0.4032 2.4528v12.8015993q0 1.6128 0.4032 2.4863999 0.4368 0.84 1.68 0.84t1.5792-0.84q0.3696-0.8735999 0.3696-2.4863999v-2.8560003h5.88v2.3520003q0 3.8303999-1.7808 5.9807998-1.7808 2.11679988-6.048 2.11679988z"/><path d="m399.83781 0.40319998q-4.4016 0-6.2832-2.25119988-1.8816-2.2847999-1.8816-6.7199997v-10.1135994q0-4.4352 1.8816-6.6528 1.8816-2.2512 6.2832-2.2512 4.4352 0 6.3168 2.2512 1.9152 2.2512 1.9152 6.6528v10.1135994q0 4.4351998-1.9152 6.7199997-1.8816 2.25119988-6.3168 2.25119988zm0-4.26719978q1.2768 0 1.68-0.84 0.4032-0.8735999 0.4032-2.3519999v-13.1039993q0-1.512-0.4032-2.352t-1.68-0.84q-1.2096 0-1.6128 0.8736-0.4032 0.84-0.4032 2.3184v13.1039993q0 1.4784 0.3696 2.3519999 0.3696 0.84 1.6464 0.84z"/></g><path transform="matrix(.0019685 0 0 -.0019685 0 405)" d="m16589 46099h329112v136656h-329112z" fill="none"/><g fill="#ed4e38"><g transform="matrix(.7499985 0 0 -.7499985 32.655448 314.25412)" font-family="Merriweather" font-size="20" font-weight="300"><g aria-label="Socialização dos meios de produção;"><path d="m62.72 28.419999q-1.02 0-1.8-0.18t-1.8-0.5q-0.68-0.22-0.82-0.24l0.16-3.56h1.04l0.3 2.62q0.38 0.36 1.2 0.62 0.84 0.26 1.82 0.26 1.62 0 2.48-0.74t0.86-2.04q0-0.84-0.46-1.42-0.44-0.58-1.16-0.98-0.7-0.4-1.96-0.94-1.18-0.5-2.02-1-0.82-0.5-1.44-1.34-0.62-0.86-0.62-2.04 0-1.1 0.6-1.96t1.66-1.32q1.08-0.48 2.46-0.48 0.84 0 1.48 0.14 0.66 0.12 1.66 0.4 0.54 0.16 0.64 0.18l-0.12 3.28h-1l-0.36-2.48q-0.24-0.2-0.94-0.38-0.68-0.2-1.46-0.2-1.48 0-2.26 0.62-0.78 0.6-0.78 1.8 0 0.82 0.42 1.38 0.42 0.54 1.08 0.92t2.04 1.02q1.44 0.68 2.24 1.18 0.82 0.48 1.42 1.28 0.62 0.78 0.62 1.9 0 1.06-0.62 2.04-0.62 0.96-1.8 1.56t-2.76 0.6z"/><path d="m69.660002 22.579999q0-1.74 0.72-3.06 0.74-1.32 1.92-2.02 1.2-0.7 2.5-0.7 2.52 0 3.72 1.64 1.22 1.64 1.22 4.2 0 1.74-0.74 3.06-0.72 1.32-1.92 2.02-1.18 0.7-2.48 0.7-2.52 0-3.74-1.64-1.2-1.64-1.2-4.2zm5.04 4.8q1.54 0 2.38-1.18t0.84-3.44q0-2.16-0.78-3.54t-2.42-1.38q-1.54 0-2.4 1.18-0.84 1.18-0.84 3.44 0 2.18 0.78 3.56 0.8 1.36 2.44 1.36z"/><path d="m81.340004 22.719999q0-1.62 0.62-2.96 0.64-1.36 1.88-2.16 1.26-0.8 3.06-0.8 0.78 0 1.52 0.2 0.74 0.18 1.28 0.4l-0.08 2.86h-1l-0.42-1.92q-0.12-0.6-1.72-0.6-1.56 0-2.5 1.2-0.92 1.2-0.92 3.28 0 2.48 1 3.76t2.6 1.28q0.84 0 1.62-0.28 0.8-0.28 1.32-0.64l0.32 0.66q-0.58 0.58-1.6 1t-2.02 0.42q-1.58 0-2.7-0.74-1.12-0.76-1.7-2.04-0.56-1.3-0.56-2.92z"/><path d="m94.079996 14.999999q-1.08 0-1.08-1.14 0-0.58 0.34-0.94 0.34-0.38 0.92-0.38 0.6 0 0.86 0.34 0.26 0.32 0.26 0.8 0 0.62-0.34 0.98-0.32 0.34-0.94 0.34zm-0.64 3.42-1.56-0.34v-0.9l2.74-0.32h0.04l0.4 0.32v10.02l1.74 0.14v0.86h-5.12v-0.86l1.76-0.16z"/><path d="m98.34 25.279999q0-1.94 1.92-2.8 1.92-0.88 4.78-0.94v-0.62q0-1.02-0.22-1.6-0.2-0.6-0.72-0.86-0.52-0.28-1.46-0.28-1.02 0-1.86 0.32-0.82 0.3-1.6 0.74l-0.44-0.88q0.22-0.2 0.92-0.56t1.6-0.64 1.74-0.28q1.36 0 2.14 0.38 0.8 0.38 1.14 1.22 0.36 0.84 0.36 2.26v6.6h1.24v0.74q-1.1 0.3-1.86 0.3-0.48 0-0.66-0.16-0.18-0.14-0.18-0.68v-0.74q-0.72 0.64-1.58 1.14-0.84 0.48-1.92 0.48-1.44 0-2.4-0.8-0.94-0.8-0.94-2.34zm3.94 1.96q0.56 0 1.34-0.36t1.42-0.86v-3.54q-2.42 0.02-3.68 0.72-1.24 0.7-1.24 1.88 0 1.14 0.58 1.66 0.58 0.5 1.58 0.5z"/><path d="m111 13.079999-1.7-0.18v-0.74l2.92-0.34h0.02l0.38 0.26v15.12l1.88 0.14v0.86h-5.26v-0.86l1.76-0.16z"/><path d="m118.28 14.999999q-1.08 0-1.08-1.14 0-0.58 0.34-0.94 0.34-0.38 0.92-0.38 0.6 0 0.86 0.34 0.26 0.32 0.26 0.8 0 0.62-0.34 0.98-0.32 0.34-0.94 0.34zm-0.64 3.42-1.56-0.34v-0.9l2.74-0.32h0.04l0.4 0.32v10.02l1.74 0.14v0.86h-5.12v-0.86l1.76-0.16z"/><path d="m124.32 18.279999-0.28 1.88h-1.1v-3.06h8.32l0.34 0.74-6.22 8.2-1.36 1.14 5.92-0.18 0.78-2.18 1.02 0.12-0.38 3.26h-8.78l-0.36-0.76 6.3-8.14 1.24-1.16z"/><path d="m133.56001 25.279999q0-1.94 1.92-2.8 1.92-0.88 4.78-0.94v-0.62q0-1.02-0.22-1.6-0.2-0.6-0.72-0.86-0.52-0.28-1.46-0.28-1.02 0-1.86 0.32-0.82 0.3-1.6 0.74l-0.44-0.88q0.22-0.2 0.92-0.56t1.6-0.64 1.74-0.28q1.36 0 2.14 0.38 0.8 0.38 1.14 1.22 0.36 0.84 0.36 2.26v6.6h1.24v0.74q-1.1 0.3-1.86 0.3-0.48 0-0.66-0.16-0.18-0.14-0.18-0.68v-0.74q-0.72 0.64-1.58 1.14-0.84 0.48-1.92 0.48-1.44 0-2.4-0.8-0.94-0.8-0.94-2.34zm3.94 1.96q0.56 0 1.34-0.36t1.42-0.86v-3.54q-2.42 0.02-3.68 0.72-1.24 0.7-1.24 1.88 0 1.14 0.58 1.66 0.58 0.5 1.58 0.5z"/><path d="m144.35999 22.719999q0-1.62 0.62-2.96 0.64-1.36 1.88-2.16 1.26-0.8 3.06-0.8 0.78 0 1.52 0.2 0.74 0.18 1.28 0.4l-0.08 2.86h-1l-0.42-1.92q-0.12-0.6-1.72-0.6-1.56 0-2.5 1.2-0.92 1.2-0.92 3.28 0 2.48 1 3.76t2.6 1.28q0.84 0 1.62-0.28 0.8-0.28 1.32-0.64l0.32 0.66q-0.56 0.56-1.56 0.98t-1.98 0.44q0.4 0.48 0.72 1.14 0.32 0.68 0.32 1.36 0 1.06-0.62 1.52t-1.82 0.46q-0.34 0-0.74-0.08t-0.68-0.18l0.02-1.18q0.2 0.06 0.46 0.1 0.28 0.06 0.46 0.06 0.8 0 1.16-0.28t0.36-1.14q0-0.48-0.18-0.98t-0.4-0.86q-1.96-0.3-3.04-1.84-1.06-1.56-1.06-3.8z"/><path d="m154.88 25.279999q0-1.94 1.92-2.8 1.92-0.88 4.78-0.94v-0.62q0-1.02-0.22-1.6-0.2-0.6-0.72-0.86-0.52-0.28-1.46-0.28-1.02 0-1.86 0.32-0.82 0.3-1.6 0.74l-0.44-0.88q0.22-0.2 0.92-0.56t1.6-0.64 1.74-0.28q1.36 0 2.14 0.38 0.8 0.38 1.14 1.22 0.36 0.84 0.36 2.26v6.6h1.24v0.74q-1.1 0.3-1.86 0.3-0.48 0-0.66-0.16-0.18-0.14-0.18-0.68v-0.74q-0.72 0.64-1.58 1.14-0.84 0.48-1.92 0.48-1.44 0-2.4-0.8-0.94-0.8-0.94-2.34zm3.94 1.96q0.56 0 1.34-0.36t1.42-0.86v-3.54q-2.42 0.02-3.68 0.72-1.24 0.7-1.24 1.88 0 1.14 0.58 1.66 0.58 0.5 1.58 0.5zm-3.26-13.02q0.2-0.8 0.76-1.38 0.58-0.6 1.54-0.6 0.6 0 1 0.24t0.92 0.72q0.34 0.34 0.58 0.5t0.52 0.16q0.56 0 0.88-0.42t0.38-0.82l0.92 0.42q-0.62 2.02-2.26 2.02-0.58 0-0.98-0.24-0.38-0.24-0.86-0.7-0.38-0.36-0.62-0.52t-0.54-0.16q-0.56 0-0.84 0.32-0.28 0.3-0.42 0.58-0.12 0.28-0.16 0.34z"/><path d="m165.9 22.579999q0-1.74 0.72-3.06 0.74-1.32 1.92-2.02 1.2-0.7 2.5-0.7 2.52 0 3.72 1.64 1.22 1.64 1.22 4.2 0 1.74-0.74 3.06-0.72 1.32-1.92 2.02-1.18 0.7-2.48 0.7-2.52 0-3.74-1.64-1.2-1.64-1.2-4.2zm5.04 4.8q1.54 0 2.38-1.18t0.84-3.44q0-2.16-0.78-3.54t-2.42-1.38q-1.54 0-2.4 1.18-0.84 1.18-0.84 3.44 0 2.18 0.78 3.56 0.8 1.36 2.44 1.36z"/><path d="m186.94 28.419999q-1.18 0-2.18-0.6-1-0.62-1.6-1.86t-0.6-3.04q0-1.72 0.7-3.1 0.7-1.4 1.98-2.2 1.3-0.82 3.02-0.82 1.1 0 2.12 0.24v-3.96l-2.08-0.2v-0.72l3.28-0.34h0.04l0.38 0.28v15.2h1.22v0.78q-0.1 0.02-0.68 0.16t-1.24 0.14q-0.46 0-0.66-0.16-0.18-0.16-0.18-0.7v-0.7q-0.62 0.68-1.52 1.14-0.88 0.46-2 0.46zm0.66-1.26q0.86 0 1.62-0.4 0.78-0.42 1.16-0.92v-7.36q-0.16-0.28-0.84-0.48-0.66-0.2-1.42-0.2-1.72 0-2.76 1.24-1.04 1.22-1.04 3.72 0 2.24 0.92 3.32t2.36 1.08z"/><path d="m194.9 22.579999q0-1.74 0.72-3.06 0.74-1.32 1.92-2.02 1.2-0.7 2.5-0.7 2.52 0 3.72 1.64 1.22 1.64 1.22 4.2 0 1.74-0.74 3.06-0.72 1.32-1.92 2.02-1.18 0.7-2.48 0.7-2.52 0-3.74-1.64-1.2-1.64-1.2-4.2zm5.04 4.8q1.54 0 2.38-1.18t0.84-3.44q0-2.16-0.78-3.54t-2.42-1.38q-1.54 0-2.4 1.18-0.84 1.18-0.84 3.44 0 2.18 0.78 3.56 0.8 1.36 2.44 1.36z"/><path d="m208.43999 26.619999q0.22 0.34 0.92 0.6t1.5 0.26q2.44 0 2.44-1.8 0-0.82-0.68-1.32-0.68-0.52-2.32-1.14-1.62-0.58-2.36-1.38t-0.74-2.14q0-0.86 0.52-1.5 0.54-0.64 1.42-0.98 0.9-0.36 1.94-0.36 1.02 0 1.7 0.18 0.7 0.18 1.38 0.44v2.38h-0.98l-0.36-1.46q-0.14-0.26-0.72-0.44-0.56-0.18-1.24-0.18-0.96 0-1.56 0.44-0.6 0.42-0.6 1.14 0 0.64 0.3 1.06t0.74 0.68q0.44 0.24 1.22 0.56l0.38 0.16q1.14 0.44 1.84 0.84 0.7 0.38 1.16 1.02 0.46 0.62 0.46 1.56 0 1.48-1.14 2.34-1.12 0.84-3 0.84-0.86 0-1.96-0.28t-1.64-0.56v-2.52h1.08z"/><path d="m221.44 27.339999 1.28-0.16v-8.76l-1.54-0.34v-0.9l2.54-0.32 0.44 0.32v0.88l-0.02 0.5q0.74-0.64 1.94-1.18t2.18-0.54q1.08 0 1.72 0.36 0.66 0.36 1 1.12 0.62-0.52 1.8-1 1.2-0.48 2.2-0.48 1.26 0 1.94 0.48 0.7 0.48 0.98 1.48t0.28 2.7v5.68l1.52 0.16v0.86h-4.48v-0.86l1.36-0.16v-5.62q0-1.26-0.18-2t-0.7-1.12-1.52-0.38q-0.74 0-1.56 0.34-0.8 0.32-1.38 0.74 0.2 0.92 0.2 2.4v5.64l1.52 0.16v0.86h-4.58v-0.86l1.44-0.16v-5.66q0-1.28-0.16-2-0.14-0.72-0.62-1.08t-1.42-0.36q-0.78 0-1.7 0.4-0.9 0.38-1.58 0.92v7.78l1.42 0.16v0.86h-4.32z"/><path d="m246.00001 28.419999q-2.32 0-3.58-1.58-1.24-1.6-1.24-4.24 0-1.7 0.66-3.02t1.82-2.04q1.18-0.74 2.64-0.74 1.78 0 2.76 1.02 1 1.02 1.08 2.94 0 1.24-0.12 1.76h-7.12q0 2.1 0.94 3.44 0.96 1.32 2.68 1.32 0.84 0 1.72-0.3t1.36-0.72l0.32 0.74q-0.58 0.6-1.7 1.02-1.1 0.4-2.22 0.4zm2.34-6.84q0.06-0.42 0.06-0.88-0.02-1.32-0.64-2.1-0.6-0.78-1.86-0.78-2.74 0-2.98 3.76z"/><path d="m254.27999 14.999999q-1.08 0-1.08-1.14 0-0.58 0.34-0.94 0.34-0.38 0.92-0.38 0.6 0 0.86 0.34 0.26 0.32 0.26 0.8 0 0.62-0.34 0.98-0.32 0.34-0.94 0.34zm-0.64 3.42-1.56-0.34v-0.9l2.74-0.32h0.04l0.4 0.32v10.02l1.74 0.14v0.86h-5.12v-0.86l1.76-0.16z"/><path d="m258.42002 22.579999q0-1.74 0.72-3.06 0.74-1.32 1.92-2.02 1.2-0.7 2.5-0.7 2.52 0 3.72 1.64 1.22 1.64 1.22 4.2 0 1.74-0.74 3.06-0.72 1.32-1.92 2.02-1.18 0.7-2.48 0.7-2.52 0-3.74-1.64-1.2-1.64-1.2-4.2zm5.04 4.8q1.54 0 2.38-1.18t0.84-3.44q0-2.16-0.78-3.54t-2.42-1.38q-1.54 0-2.4 1.18-0.84 1.18-0.84 3.44 0 2.18 0.78 3.56 0.8 1.36 2.44 1.36z"/><path d="m271.95998 26.619999q0.22 0.34 0.92 0.6t1.5 0.26q2.44 0 2.44-1.8 0-0.82-0.68-1.32-0.68-0.52-2.32-1.14-1.62-0.58-2.36-1.38t-0.74-2.14q0-0.86 0.52-1.5 0.54-0.64 1.42-0.98 0.9-0.36 1.94-0.36 1.02 0 1.7 0.18 0.7 0.18 1.38 0.44v2.38h-0.98l-0.36-1.46q-0.14-0.26-0.72-0.44-0.56-0.18-1.24-0.18-0.96 0-1.56 0.44-0.6 0.42-0.6 1.14 0 0.64 0.3 1.06t0.74 0.68q0.44 0.24 1.22 0.56l0.38 0.16q1.14 0.44 1.84 0.84 0.7 0.38 1.16 1.02 0.46 0.62 0.46 1.56 0 1.48-1.14 2.34-1.12 0.84-3 0.84-0.86 0-1.96-0.28t-1.64-0.56v-2.52h1.08z"/><path d="m289.38002 28.419999q-1.18 0-2.18-0.6-1-0.62-1.6-1.86t-0.6-3.04q0-1.72 0.7-3.1 0.7-1.4 1.98-2.2 1.3-0.82 3.02-0.82 1.1 0 2.12 0.24v-3.96l-2.08-0.2v-0.72l3.28-0.34h0.04l0.38 0.28v15.2h1.22v0.78q-0.1 0.02-0.68 0.16t-1.24 0.14q-0.46 0-0.66-0.16-0.18-0.16-0.18-0.7v-0.7q-0.62 0.68-1.52 1.14-0.88 0.46-2 0.46zm0.66-1.26q0.86 0 1.62-0.4 0.78-0.42 1.16-0.92v-7.36q-0.16-0.28-0.84-0.48-0.66-0.2-1.42-0.2-1.72 0-2.76 1.24-1.04 1.22-1.04 3.72 0 2.24 0.92 3.32t2.36 1.08z"/><path d="m302.2 28.419999q-2.32 0-3.58-1.58-1.24-1.6-1.24-4.24 0-1.7 0.66-3.02t1.82-2.04q1.18-0.74 2.64-0.74 1.78 0 2.76 1.02 1 1.02 1.08 2.94 0 1.24-0.12 1.76h-7.12q0 2.1 0.94 3.44 0.96 1.32 2.68 1.32 0.84 0 1.72-0.3t1.36-0.72l0.32 0.74q-0.58 0.6-1.7 1.02-1.1 0.4-2.22 0.4zm2.34-6.84q0.06-0.42 0.06-0.88-0.02-1.32-0.64-2.1-0.6-0.78-1.86-0.78-2.74 0-2.98 3.76z"/><path d="m323.53998 22.239999q0 1.72-0.7 3.14-0.7 1.4-2 2.22-1.28 0.82-2.94 0.82-0.56 0-1.18-0.1-0.62-0.08-1.02-0.22l0.04 1.7v2.16l2.22 0.2v0.88h-5.36v-0.88l1.54-0.2v-13.54l-1.56-0.34v-0.9l2.56-0.32h0.04l0.36 0.32v1.22q0.64-0.66 1.56-1.12 0.92-0.48 2.06-0.48 1.16 0 2.16 0.58t1.6 1.8q0.62 1.22 0.62 3.06zm-5.04-4.22q-0.86 0-1.6 0.36t-1.16 0.8v7.62q0.16 0.26 0.8 0.48 0.66 0.2 1.44 0.2 1.72 0 2.76-1.26 1.06-1.28 1.06-3.76 0-2.22-0.94-3.32-0.92-1.12-2.36-1.12z"/><path d="m325.43999 27.359999 1.6-0.12v-8.82l-1.54-0.34v-0.9l2.54-0.32h0.04l0.38 0.32v0.32l-0.04 1.52h0.04q0.04-0.04 0.52-0.6 0.5-0.58 1.46-1.1 0.98-0.52 1.96-0.52 0.32 0 0.6 0.08v1.76q-0.08-0.06-0.36-0.12-0.26-0.06-0.56-0.06-1.14 0-1.94 0.34t-1.48 0.84v7.58l2.66 0.16v0.82h-5.88z"/><path d="m334.35999 22.579999q0-1.74 0.72-3.06 0.74-1.32 1.92-2.02 1.2-0.7 2.5-0.7 2.52 0 3.72 1.64 1.22 1.64 1.22 4.2 0 1.74-0.74 3.06-0.72 1.32-1.92 2.02-1.18 0.7-2.48 0.7-2.52 0-3.74-1.64-1.2-1.64-1.2-4.2zm5.04 4.8q1.54 0 2.38-1.18t0.84-3.44q0-2.16-0.78-3.54t-2.42-1.38q-1.54 0-2.4 1.18-0.84 1.18-0.84 3.44 0 2.18 0.78 3.56 0.8 1.36 2.44 1.36z"/><path d="m350.65999 28.419999q-1.18 0-2.18-0.6-1-0.62-1.6-1.86t-0.6-3.04q0-1.72 0.7-3.1 0.7-1.4 1.98-2.2 1.3-0.82 3.02-0.82 1.1 0 2.12 0.24v-3.96l-2.08-0.2v-0.72l3.28-0.34h0.04l0.38 0.28v15.2h1.22v0.78q-0.1 0.02-0.68 0.16t-1.24 0.14q-0.46 0-0.66-0.16-0.18-0.16-0.18-0.7v-0.7q-0.62 0.68-1.52 1.14-0.88 0.46-2 0.46zm0.66-1.26q0.86 0 1.62-0.4 0.78-0.42 1.16-0.92v-7.36q-0.16-0.28-0.84-0.48-0.66-0.2-1.42-0.2-1.72 0-2.76 1.24-1.04 1.22-1.04 3.72 0 2.24 0.92 3.32t2.36 1.08z"/><path d="m367.78 28.379999q-0.52 0-0.76-0.18t-0.24-0.66v-0.78q-0.74 0.66-1.74 1.16t-2 0.5q-1.82 0-2.6-1.02-0.76-1.02-0.76-3.32v-5.88l-1.18-0.34v-0.74l2.42-0.26h0.02l0.36 0.24v6.74q0 1.26 0.18 1.98 0.18 0.7 0.66 1.04t1.4 0.34q0.88 0 1.68-0.38t1.38-0.9v-7.72l-1.52-0.34v-0.74l2.66-0.26h0.02l0.46 0.24v10.22h1.24l-0.02 0.76q-0.1 0.02-0.58 0.16t-1.08 0.14z"/><path d="m370.96 22.719999q0-1.62 0.62-2.96 0.64-1.36 1.88-2.16 1.26-0.8 3.06-0.8 0.78 0 1.52 0.2 0.74 0.18 1.28 0.4l-0.08 2.86h-1l-0.42-1.92q-0.12-0.6-1.72-0.6-1.56 0-2.5 1.2-0.92 1.2-0.92 3.28 0 2.48 1 3.76t2.6 1.28q0.84 0 1.62-0.28 0.8-0.28 1.32-0.64l0.32 0.66q-0.56 0.56-1.56 0.98t-1.98 0.44q0.4 0.48 0.72 1.14 0.32 0.68 0.32 1.36 0 1.06-0.62 1.52t-1.82 0.46q-0.34 0-0.74-0.08t-0.68-0.18l0.02-1.18q0.2 0.06 0.46 0.1 0.28 0.06 0.46 0.06 0.8 0 1.16-0.28t0.36-1.14q0-0.48-0.18-0.98t-0.4-0.86q-1.96-0.3-3.04-1.84-1.06-1.56-1.06-3.8z"/><path d="m381.47999 25.279999q0-1.94 1.92-2.8 1.92-0.88 4.78-0.94v-0.62q0-1.02-0.22-1.6-0.2-0.6-0.72-0.86-0.52-0.28-1.46-0.28-1.02 0-1.86 0.32-0.82 0.3-1.6 0.74l-0.44-0.88q0.22-0.2 0.92-0.56t1.6-0.64 1.74-0.28q1.36 0 2.14 0.38 0.8 0.38 1.14 1.22 0.36 0.84 0.36 2.26v6.6h1.24v0.74q-1.1 0.3-1.86 0.3-0.48 0-0.66-0.16-0.18-0.14-0.18-0.68v-0.74q-0.72 0.64-1.58 1.14-0.84 0.48-1.92 0.48-1.44 0-2.4-0.8-0.94-0.8-0.94-2.34zm3.94 1.96q0.56 0 1.34-0.36t1.42-0.86v-3.54q-2.42 0.02-3.68 0.72-1.24 0.7-1.24 1.88 0 1.14 0.58 1.66 0.58 0.5 1.58 0.5zm-3.26-13.02q0.2-0.8 0.76-1.38 0.58-0.6 1.54-0.6 0.6 0 1 0.24t0.92 0.72q0.34 0.34 0.58 0.5t0.52 0.16q0.56 0 0.88-0.42t0.38-0.82l0.92 0.42q-0.62 2.02-2.26 2.02-0.58 0-0.98-0.24-0.38-0.24-0.86-0.7-0.38-0.36-0.62-0.52t-0.54-0.16q-0.56 0-0.84 0.32-0.28 0.3-0.42 0.58-0.12 0.28-0.16 0.34z"/><path d="m392.50001 22.579999q0-1.74 0.72-3.06 0.74-1.32 1.92-2.02 1.2-0.7 2.5-0.7 2.52 0 3.72 1.64 1.22 1.64 1.22 4.2 0 1.74-0.74 3.06-0.72 1.32-1.92 2.02-1.18 0.7-2.48 0.7-2.52 0-3.74-1.64-1.2-1.64-1.2-4.2zm5.04 4.8q1.54 0 2.38-1.18t0.84-3.44q0-2.16-0.78-3.54t-2.42-1.38q-1.54 0-2.4 1.18-0.84 1.18-0.84 3.44 0 2.18 0.78 3.56 0.8 1.36 2.44 1.36z"/><path d="m406.88 20.099999q-0.46 0-0.78-0.3-0.32-0.32-0.32-0.82 0-0.56 0.38-0.94 0.4-0.38 0.92-0.38 0.54 0 0.8 0.32 0.28 0.32 0.28 0.8 0 0.56-0.38 0.94t-0.9 0.38zm0.06 5.32q0.64 0 1.02 0.6t0.38 1.7-0.32 2.08-0.82 1.68-1 1h-0.02l-0.58-0.4v-0.18q0.24-0.18 0.52-0.74 0.3-0.54 0.5-1.26 0.22-0.72 0.22-1.4 0-0.3-0.12-0.48-0.1-0.18-0.32-0.42-0.26-0.26-0.4-0.5-0.12-0.24-0.12-0.66 0-0.46 0.28-0.74 0.3-0.28 0.7-0.28z"/></g><g aria-label="Planiﬁcação da economia;"><path d="m59.78 50.419997-1.6-0.22v-0.86h2.42q0.44 0 0.86-0.02 0.44-0.04 0.64-0.04 1.04-0.08 2-0.08 2.82 0 3.98 1.06 1.18 1.04 1.18 3.14 0 1.58-0.76 2.74t-2.06 1.78q-1.3 0.6-2.9 0.6-0.64 0-1.32-0.02-0.66-0.04-0.8-0.06v4.7l2.78 0.2v0.86h-6.14v-0.86l1.72-0.18zm1.64 7.04q0.5 0.08 2.16 0.08 1.72 0 2.82-0.96 1.1-0.98 1.1-3.18 0-1.74-0.94-2.48-0.94-0.76-2.96-0.76-0.62 0-1.38 0.08-0.6 0.04-0.8 0.04z"/><path d="m72.36 49.079997-1.7-0.18v-0.74l2.92-0.34h0.02l0.38 0.26v15.12l1.88 0.14v0.86h-5.26v-0.86l1.76-0.16z"/><path d="m77.420002 61.279997q0-1.94 1.92-2.8 1.92-0.88 4.78-0.94v-0.62q0-1.02-0.22-1.6-0.2-0.6-0.72-0.86-0.52-0.28-1.46-0.28-1.02 0-1.86 0.32-0.82 0.3-1.6 0.74l-0.44-0.88q0.22-0.2 0.92-0.56t1.6-0.64 1.74-0.28q1.36 0 2.14 0.38 0.8 0.38 1.14 1.22 0.36 0.84 0.36 2.26v6.6h1.24v0.74q-1.1 0.3-1.86 0.3-0.48 0-0.66-0.16-0.18-0.14-0.18-0.68v-0.74q-0.72 0.64-1.58 1.14-0.84 0.48-1.92 0.48-1.44 0-2.4-0.8-0.94-0.8-0.94-2.34zm3.94 1.96q0.56 0 1.34-0.36t1.42-0.86v-3.54q-2.42 0.02-3.68 0.72-1.24 0.7-1.24 1.88 0 1.14 0.58 1.66 0.58 0.5 1.58 0.5z"/><path d="m89.700001 54.419997-1.54-0.34v-0.9l2.54-0.32h0.06l0.38 0.32v0.88l-0.02 0.5q0.74-0.64 1.96-1.18t2.26-0.54q1.28 0 1.96 0.5 0.7 0.48 0.96 1.5 0.28 1 0.28 2.7v5.66l1.499999 0.14v0.86h-4.459999v-0.86l1.34-0.14v-5.68q0-1.26-0.18-1.98-0.16-0.72-0.66-1.08-0.48-0.38-1.42-0.38-0.8 0-1.74 0.4-0.92 0.4-1.6 0.94v7.76l1.46 0.16v0.86h-4.42v-0.86l1.34-0.16z"/><path d="m103.84 50.999997q-1.08 0-1.08-1.14 0-0.58 0.34-0.94 0.34-0.38 0.92-0.38 0.6 0 0.86 0.34 0.26 0.32 0.26 0.8 0 0.62-0.34 0.98-0.32 0.34-0.94 0.34zm-0.64 3.42-1.56-0.34v-0.9l2.74-0.32h0.04l0.4 0.32v10.02l1.74 0.14v0.86h-5.12v-0.86l1.76-0.16z"/><path d="m109.72 54.299997h-2.02v-0.8l2.02-0.38v-0.98q0-1.2 0.62-2.2 0.62-1.02 1.6-1.62 1-0.6 2.08-0.6 0.64 0 1.12 0.16v1.64q-0.16-0.12-0.66-0.24-0.48-0.12-1.12-0.12-1.06 0-1.54 0.56t-0.48 1.9v1.5h2.9v1.18h-2.9v8.9l2.28 0.14v0.86h-5.66v-0.86l1.76-0.16zm8.5-3.3q-1.08 0-1.08-1.14 0-0.58 0.34-0.94 0.34-0.38 0.92-0.38 0.6 0 0.86 0.34 0.26 0.32 0.26 0.8 0 0.62-0.34 0.98-0.32 0.34-0.94 0.34zm-0.64 3.42-1.56-0.34v-0.9l2.74-0.32h0.04l0.4 0.32v10.02l1.74 0.14v0.86h-5.12v-0.86l1.76-0.16z"/><path d="m122.14 58.719997q0-1.62 0.62-2.96 0.64-1.36 1.88-2.16 1.26-0.8 3.06-0.8 0.78 0 1.52 0.2 0.74 0.18 1.28 0.4l-0.08 2.86h-1l-0.42-1.92q-0.12-0.6-1.72-0.6-1.56 0-2.5 1.2-0.92 1.2-0.92 3.28 0 2.48 1 3.76t2.6 1.28q0.84 0 1.62-0.28 0.8-0.28 1.32-0.64l0.32 0.66q-0.58 0.58-1.6 1t-2.02 0.42q-1.58 0-2.7-0.74-1.12-0.76-1.7-2.04-0.56-1.3-0.56-2.92z"/><path d="m132.66 61.279997q0-1.94 1.92-2.8 1.92-0.88 4.78-0.94v-0.62q0-1.02-0.22-1.6-0.2-0.6-0.72-0.86-0.52-0.28-1.46-0.28-1.02 0-1.86 0.32-0.82 0.3-1.6 0.74l-0.44-0.88q0.22-0.2 0.92-0.56t1.6-0.64 1.74-0.28q1.36 0 2.14 0.38 0.8 0.38 1.14 1.22 0.36 0.84 0.36 2.26v6.6h1.24v0.74q-1.1 0.3-1.86 0.3-0.48 0-0.66-0.16-0.18-0.14-0.18-0.68v-0.74q-0.72 0.64-1.58 1.14-0.84 0.48-1.92 0.48-1.44 0-2.4-0.8-0.94-0.8-0.94-2.34zm3.94 1.96q0.56 0 1.34-0.36t1.42-0.86v-3.54q-2.42 0.02-3.68 0.72-1.24 0.7-1.24 1.88 0 1.14 0.58 1.66 0.58 0.5 1.58 0.5z"/><path d="m143.46 58.719997q0-1.62 0.62-2.96 0.64-1.36 1.88-2.16 1.26-0.8 3.06-0.8 0.78 0 1.52 0.2 0.74 0.18 1.28 0.4l-0.08 2.86h-1l-0.42-1.92q-0.12-0.6-1.72-0.6-1.56 0-2.5 1.2-0.92 1.2-0.92 3.28 0 2.48 1 3.76t2.6 1.28q0.84 0 1.62-0.28 0.8-0.28 1.32-0.64l0.32 0.66q-0.56 0.56-1.56 0.98t-1.98 0.44q0.4 0.48 0.72 1.14 0.32 0.68 0.32 1.36 0 1.06-0.62 1.52t-1.82 0.46q-0.34 0-0.74-0.08t-0.68-0.18l0.02-1.18q0.2 0.06 0.46 0.1 0.28 0.06 0.46 0.06 0.8 0 1.16-0.28t0.36-1.14q0-0.48-0.18-0.98t-0.4-0.86q-1.96-0.3-3.04-1.84-1.06-1.56-1.06-3.8z"/><path d="m153.97999 61.279997q0-1.94 1.92-2.8 1.92-0.88 4.78-0.94v-0.62q0-1.02-0.22-1.6-0.2-0.6-0.72-0.86-0.52-0.28-1.46-0.28-1.02 0-1.86 0.32-0.82 0.3-1.6 0.74l-0.44-0.88q0.22-0.2 0.92-0.56t1.6-0.64 1.74-0.28q1.36 0 2.14 0.38 0.8 0.38 1.14 1.22 0.36 0.84 0.36 2.26v6.6h1.24v0.74q-1.1 0.3-1.86 0.3-0.48 0-0.66-0.16-0.18-0.14-0.18-0.68v-0.74q-0.72 0.64-1.58 1.14-0.84 0.48-1.92 0.48-1.44 0-2.4-0.8-0.94-0.8-0.94-2.34zm3.94 1.96q0.56 0 1.34-0.36t1.42-0.86v-3.54q-2.42 0.02-3.68 0.72-1.24 0.7-1.24 1.88 0 1.14 0.58 1.66 0.58 0.5 1.58 0.5zm-3.26-13.02q0.2-0.8 0.76-1.38 0.58-0.6 1.54-0.6 0.6 0 1 0.24t0.92 0.72q0.34 0.34 0.58 0.5t0.52 0.16q0.56 0 0.88-0.42t0.38-0.82l0.92 0.42q-0.62 2.02-2.26 2.02-0.58 0-0.98-0.24-0.38-0.24-0.86-0.7-0.38-0.36-0.62-0.52t-0.54-0.16q-0.56 0-0.84 0.32-0.28 0.3-0.42 0.58-0.12 0.28-0.16 0.34z"/><path d="m165.00001 58.579997q0-1.74 0.72-3.06 0.74-1.32 1.92-2.02 1.2-0.7 2.5-0.7 2.52 0 3.72 1.64 1.22 1.64 1.22 4.2 0 1.74-0.74 3.06-0.72 1.32-1.92 2.02-1.18 0.7-2.48 0.7-2.52 0-3.74-1.64-1.2-1.64-1.2-4.2zm5.04 4.8q1.54 0 2.38-1.18t0.84-3.44q0-2.16-0.78-3.54t-2.42-1.38q-1.54 0-2.4 1.18-0.84 1.18-0.84 3.44 0 2.18 0.78 3.56 0.8 1.36 2.44 1.36z"/><path d="m186.03999 64.419997q-1.18 0-2.18-0.6-1-0.62-1.6-1.86t-0.6-3.04q0-1.72 0.7-3.1 0.7-1.4 1.98-2.2 1.3-0.82 3.02-0.82 1.1 0 2.12 0.24v-3.96l-2.08-0.2v-0.72l3.28-0.34h0.04l0.38 0.28v15.2h1.22v0.78q-0.1 0.02-0.68 0.16t-1.24 0.14q-0.46 0-0.66-0.16-0.18-0.16-0.18-0.7v-0.7q-0.62 0.68-1.52 1.14-0.88 0.46-2 0.46zm0.66-1.26q0.86 0 1.62-0.4 0.78-0.42 1.16-0.92v-7.36q-0.16-0.28-0.84-0.48-0.66-0.2-1.42-0.2-1.72 0-2.76 1.24-1.04 1.22-1.04 3.72 0 2.24 0.92 3.32t2.36 1.08z"/><path d="m194.12001 61.279997q0-1.94 1.92-2.8 1.92-0.88 4.78-0.94v-0.62q0-1.02-0.22-1.6-0.2-0.6-0.72-0.86-0.52-0.28-1.46-0.28-1.02 0-1.86 0.32-0.82 0.3-1.6 0.74l-0.44-0.88q0.22-0.2 0.92-0.56t1.6-0.64 1.74-0.28q1.36 0 2.14 0.38 0.8 0.38 1.14 1.22 0.36 0.84 0.36 2.26v6.6h1.24v0.74q-1.1 0.3-1.86 0.3-0.48 0-0.66-0.16-0.18-0.14-0.18-0.68v-0.74q-0.72 0.64-1.58 1.14-0.84 0.48-1.92 0.48-1.44 0-2.4-0.8-0.94-0.8-0.94-2.34zm3.94 1.96q0.56 0 1.34-0.36t1.42-0.86v-3.54q-2.42 0.02-3.68 0.72-1.24 0.7-1.24 1.88 0 1.14 0.58 1.66 0.58 0.5 1.58 0.5z"/><path d="m214.74 64.419997q-2.32 0-3.58-1.58-1.24-1.6-1.24-4.24 0-1.7 0.66-3.02t1.82-2.04q1.18-0.74 2.64-0.74 1.78 0 2.76 1.02 1 1.02 1.08 2.94 0 1.24-0.12 1.76h-7.12q0 2.1 0.94 3.44 0.96 1.32 2.68 1.32 0.84 0 1.72-0.3t1.36-0.72l0.32 0.74q-0.58 0.6-1.7 1.02-1.1 0.4-2.22 0.4zm2.34-6.84q0.06-0.42 0.06-0.88-0.02-1.32-0.64-2.1-0.6-0.78-1.86-0.78-2.74 0-2.98 3.76z"/><path d="m220.46 58.719997q0-1.62 0.62-2.96 0.64-1.36 1.88-2.16 1.26-0.8 3.06-0.8 0.78 0 1.52 0.2 0.74 0.18 1.28 0.4l-0.08 2.86h-1l-0.42-1.92q-0.12-0.6-1.72-0.6-1.56 0-2.5 1.2-0.92 1.2-0.92 3.28 0 2.48 1 3.76t2.6 1.28q0.84 0 1.62-0.28 0.8-0.28 1.32-0.64l0.32 0.66q-0.58 0.58-1.6 1t-2.02 0.42q-1.58 0-2.7-0.74-1.12-0.76-1.7-2.04-0.56-1.3-0.56-2.92z"/><path d="m230.86001 58.579997q0-1.74 0.72-3.06 0.74-1.32 1.92-2.02 1.2-0.7 2.5-0.7 2.52 0 3.72 1.64 1.22 1.64 1.22 4.2 0 1.74-0.74 3.06-0.72 1.32-1.92 2.02-1.18 0.7-2.48 0.7-2.52 0-3.74-1.64-1.2-1.64-1.2-4.2zm5.04 4.8q1.54 0 2.38-1.18t0.84-3.44q0-2.16-0.78-3.54t-2.42-1.38q-1.54 0-2.4 1.18-0.84 1.18-0.84 3.44 0 2.18 0.78 3.56 0.8 1.36 2.44 1.36z"/><path d="m244.02 54.419997-1.54-0.34v-0.9l2.54-0.32h0.06l0.38 0.32v0.88l-0.02 0.5q0.74-0.64 1.96-1.18t2.26-0.54q1.28 0 1.96 0.5 0.7 0.48 0.96 1.5 0.28 1 0.28 2.7v5.66l1.5 0.14v0.86h-4.46v-0.86l1.34-0.14v-5.68q0-1.26-0.18-1.98-0.16-0.72-0.66-1.08-0.48-0.38-1.42-0.38-0.8 0-1.74 0.4-0.92 0.4-1.6 0.94v7.76l1.46 0.16v0.86h-4.42v-0.86l1.34-0.16z"/><path d="m255.82 58.579997q0-1.74 0.72-3.06 0.74-1.32 1.92-2.02 1.2-0.7 2.5-0.7 2.52 0 3.72 1.64 1.22 1.64 1.22 4.2 0 1.74-0.74 3.06-0.72 1.32-1.92 2.02-1.18 0.7-2.48 0.7-2.52 0-3.74-1.64-1.2-1.64-1.2-4.2zm5.04 4.8q1.54 0 2.38-1.18t0.84-3.44q0-2.16-0.78-3.54t-2.42-1.38q-1.54 0-2.4 1.18-0.84 1.18-0.84 3.44 0 2.18 0.78 3.56 0.8 1.36 2.44 1.36z"/><path d="m267.70001 63.339997 1.28-0.16v-8.76l-1.54-0.34v-0.9l2.54-0.32 0.44 0.32v0.88l-0.02 0.5q0.74-0.64 1.94-1.18t2.18-0.54q1.08 0 1.72 0.36 0.66 0.36 1 1.12 0.62-0.52 1.8-1 1.2-0.48 2.2-0.48 1.26 0 1.94 0.48 0.7 0.48 0.98 1.48t0.28 2.7v5.68l1.52 0.16v0.86h-4.48v-0.86l1.36-0.16v-5.62q0-1.26-0.18-2t-0.7-1.12-1.52-0.38q-0.74 0-1.56 0.34-0.8 0.32-1.38 0.74 0.2 0.92 0.2 2.4v5.64l1.52 0.16v0.86h-4.58v-0.86l1.44-0.16v-5.66q0-1.28-0.16-2-0.14-0.72-0.62-1.08t-1.42-0.36q-0.78 0-1.7 0.4-0.9 0.38-1.58 0.92v7.78l1.42 0.16v0.86h-4.32z"/><path d="m289.74 50.999997q-1.08 0-1.08-1.14 0-0.58 0.34-0.94 0.34-0.38 0.92-0.38 0.6 0 0.86 0.34 0.26 0.32 0.26 0.8 0 0.62-0.34 0.98-0.32 0.34-0.94 0.34zm-0.64 3.42-1.56-0.34v-0.9l2.74-0.32h0.04l0.4 0.32v10.02l1.74 0.14v0.86h-5.12v-0.86l1.76-0.16z"/><path d="m293.99998 61.279997q0-1.94 1.92-2.8 1.92-0.88 4.78-0.94v-0.62q0-1.02-0.22-1.6-0.2-0.6-0.72-0.86-0.52-0.28-1.46-0.28-1.02 0-1.86 0.32-0.82 0.3-1.6 0.74l-0.44-0.88q0.22-0.2 0.92-0.56t1.6-0.64 1.74-0.28q1.36 0 2.14 0.38 0.8 0.38 1.14 1.22 0.36 0.84 0.36 2.26v6.6h1.24v0.74q-1.1 0.3-1.86 0.3-0.48 0-0.66-0.16-0.18-0.14-0.18-0.68v-0.74q-0.72 0.64-1.58 1.14-0.84 0.48-1.92 0.48-1.44 0-2.4-0.8-0.94-0.8-0.94-2.34zm3.94 1.96q0.56 0 1.34-0.36t1.42-0.86v-3.54q-2.42 0.02-3.68 0.72-1.24 0.7-1.24 1.88 0 1.14 0.58 1.66 0.58 0.5 1.58 0.5z"/><path d="m307.5 56.099997q-0.46 0-0.78-0.3-0.32-0.32-0.32-0.82 0-0.56 0.38-0.94 0.4-0.38 0.92-0.38 0.54 0 0.8 0.32 0.28 0.32 0.28 0.8 0 0.56-0.38 0.94t-0.9 0.38zm0.06 5.32q0.64 0 1.02 0.6t0.38 1.7-0.32 2.08-0.82 1.68-1 1h-0.02l-0.58-0.4v-0.18q0.24-0.18 0.52-0.74 0.3-0.54 0.5-1.26 0.22-0.72 0.22-1.4 0-0.3-0.12-0.48-0.1-0.18-0.32-0.42-0.26-0.26-0.4-0.5-0.12-0.24-0.12-0.66 0-0.46 0.28-0.74 0.3-0.28 0.7-0.28z"/></g><g aria-label="O Fim da propriedade privada;"><path d="m63.9 100.41999q-1.94 0-3.34-0.940001-1.38-0.96-2.1-2.66t-0.72-3.94q0-2.3 0.88-4.04 0.88-1.76 2.4-2.7 1.52-0.96 3.38-0.96 1.98 0 3.38 0.92 1.42 0.92 2.14 2.6 0.74 1.68 0.74 3.94 0 2.32-0.9 4.1-0.9 1.76-2.44 2.72-1.54 0.960001-3.42 0.960001zm0.32-14.300001q-2.14 0-3.4 1.74-1.26 1.72-1.26 5.02 0 1.92 0.54 3.42t1.58 2.34 2.48 0.84q1.4 0 2.44-0.76 1.04-0.78 1.62-2.32t0.58-3.76q0-1.94-0.54-3.4-0.54-1.48-1.58-2.3-1.02-0.82-2.46-0.82z"/><path d="m78.840003 86.419989-1.76-0.22v-0.86h10.48l0.2 3.28h-1.1l-0.54-2.26-5.64-0.1v5.92l4-0.06 0.34-1.62h0.92v4.42h-0.92l-0.34-1.7-4-0.08v6.02l3.14 0.18v0.860001h-6.42v-0.860001l1.64-0.18z"/><path d="m91.699999 86.999989q-1.08 0-1.08-1.14 0-0.58 0.34-0.94 0.34-0.38 0.92-0.38 0.6 0 0.86 0.34 0.26 0.32 0.26 0.8 0 0.62-0.34 0.98-0.32 0.34-0.94 0.34zm-0.64 3.42-1.56-0.34v-0.9l2.74-0.32h0.04l0.4 0.32v10.02l1.74 0.14v0.860001h-5.12v-0.860001l1.76-0.16z"/><path d="m95.820002 99.339989 1.28-0.16v-8.76l-1.54-0.34v-0.9l2.54-0.32 0.44 0.32v0.88l-0.02 0.5q0.74-0.64 1.939998-1.18 1.2-0.54 2.18-0.54 1.08 0 1.72 0.36 0.66 0.36 1 1.12 0.62-0.52 1.8-1 1.2-0.48 2.2-0.48 1.26 0 1.94 0.48 0.7 0.48 0.98 1.48t0.28 2.7v5.68l1.52 0.16v0.860001h-4.48v-0.860001l1.36-0.16v-5.62q0-1.26-0.18-2t-0.7-1.12-1.52-0.38q-0.74 0-1.56 0.34-0.8 0.32-1.38 0.74 0.2 0.92 0.2 2.4v5.64l1.52 0.16v0.860001h-4.58v-0.860001l1.44-0.16v-5.66q0-1.28-0.16-2-0.14-0.72-0.62-1.08t-1.42-0.36q-0.78 0-1.7 0.4-0.899998 0.38-1.579998 0.92v7.78l1.419998 0.16v0.860001h-4.319998z"/><path d="m124.66 100.41999q-1.18 0-2.18-0.600001-1-0.62-1.6-1.86t-0.6-3.04q0-1.72 0.7-3.1 0.7-1.4 1.98-2.2 1.3-0.82 3.02-0.82 1.1 0 2.12 0.24v-3.96l-2.08-0.2v-0.72l3.28-0.34h0.04l0.38 0.28v15.2h1.22v0.780001q-0.1 0.02-0.68 0.16t-1.24 0.14q-0.46 0-0.66-0.16-0.18-0.16-0.18-0.700001v-0.7q-0.62 0.68-1.52 1.14-0.88 0.460001-2 0.460001zm0.66-1.260001q0.86 0 1.62-0.4 0.78-0.42 1.16-0.92v-7.36q-0.16-0.28-0.84-0.48-0.66-0.2-1.42-0.2-1.72 0-2.76 1.24-1.04 1.22-1.04 3.72 0 2.24 0.92 3.32t2.36 1.08z"/><path d="m132.74 97.279989q0-1.94 1.92-2.8 1.92-0.88 4.78-0.94v-0.62q0-1.02-0.22-1.6-0.2-0.6-0.72-0.86-0.52-0.28-1.46-0.28-1.02 0-1.86 0.32-0.82 0.3-1.6 0.74l-0.44-0.88q0.22-0.2 0.92-0.56t1.6-0.64 1.74-0.28q1.36 0 2.14 0.38 0.8 0.38 1.14 1.22 0.36 0.84 0.36 2.26v6.6h1.24v0.740001q-1.1 0.3-1.86 0.3-0.48 0-0.66-0.16-0.18-0.14-0.18-0.680001v-0.74q-0.72 0.64-1.58 1.14-0.84 0.480001-1.92 0.480001-1.44 0-2.4-0.800001-0.94-0.8-0.94-2.34zm3.94 1.96q0.56 0 1.34-0.36t1.42-0.86v-3.54q-2.42 0.02-3.68 0.72-1.24 0.7-1.24 1.88 0 1.14 0.58 1.66 0.58 0.5 1.58 0.5z"/><path d="m159.16001 94.239989q0 1.72-0.7 3.14-0.7 1.4-2 2.22-1.28 0.820001-2.94 0.820001-0.56 0-1.18-0.1-0.62-0.08-1.02-0.22l0.04 1.7v2.16l2.22 0.2v0.88h-5.36v-0.88l1.54-0.2v-13.540001l-1.56-0.34v-0.9l2.56-0.32h0.04l0.36 0.32v1.22q0.64-0.66 1.56-1.12 0.92-0.48 2.06-0.48 1.16 0 2.16 0.58t1.6 1.8q0.62 1.22 0.62 3.06zm-5.04-4.22q-0.86 0-1.6 0.36t-1.16 0.8v7.62q0.16 0.26 0.8 0.48 0.66 0.2 1.44 0.2 1.72 0 2.76-1.26 1.06-1.28 1.06-3.76 0-2.22-0.94-3.32-0.92-1.12-2.36-1.12z"/><path d="m161.06 99.359989 1.6-0.12v-8.82l-1.54-0.34v-0.9l2.54-0.32h0.04l0.38 0.32v0.32l-0.04 1.52h0.04q0.04-0.04 0.52-0.6 0.5-0.58 1.46-1.1 0.98-0.52 1.96-0.52 0.32 0 0.6 0.08v1.76q-0.08-0.06-0.36-0.12-0.26-0.06-0.56-0.06-1.14 0-1.94 0.34t-1.48 0.84v7.58l2.66 0.16v0.820001h-5.88z"/><path d="m169.98 94.579989q0-1.74 0.72-3.06 0.74-1.32 1.92-2.02 1.2-0.7 2.5-0.7 2.52 0 3.72 1.64 1.22 1.64 1.22 4.2 0 1.74-0.74 3.06-0.72 1.32-1.92 2.02-1.18 0.700001-2.48 0.700001-2.52 0-3.74-1.640001-1.2-1.64-1.2-4.2zm5.04 4.8q1.54 0 2.38-1.18t0.84-3.44q0-2.16-0.78-3.54t-2.42-1.38q-1.54 0-2.4 1.18-0.84 1.18-0.84 3.44 0 2.18 0.78 3.56 0.8 1.36 2.44 1.36z"/><path d="m192.54001 94.239989q0 1.72-0.7 3.14-0.7 1.4-2 2.22-1.28 0.820001-2.94 0.820001-0.56 0-1.18-0.1-0.62-0.08-1.02-0.22l0.04 1.7v2.16l2.22 0.2v0.88h-5.36v-0.88l1.54-0.2v-13.540001l-1.56-0.34v-0.9l2.56-0.32h0.04l0.36 0.32v1.22q0.64-0.66 1.56-1.12 0.92-0.48 2.06-0.48 1.16 0 2.16 0.58t1.6 1.8q0.62 1.22 0.62 3.06zm-5.04-4.22q-0.86 0-1.6 0.36t-1.16 0.8v7.62q0.16 0.26 0.8 0.48 0.66 0.2 1.44 0.2 1.72 0 2.76-1.26 1.06-1.28 1.06-3.76 0-2.22-0.94-3.32-0.92-1.12-2.36-1.12z"/><path d="m194.44001 99.359989 1.6-0.12v-8.82l-1.54-0.34v-0.9l2.54-0.32h0.04l0.38 0.32v0.32l-0.04 1.52h0.04q0.04-0.04 0.52-0.6 0.5-0.58 1.46-1.1 0.98-0.52 1.96-0.52 0.32 0 0.6 0.08v1.76q-0.08-0.06-0.36-0.12-0.26-0.06-0.56-0.06-1.14 0-1.94 0.34t-1.48 0.84v7.58l2.66 0.16v0.820001h-5.88z"/><path d="m205.70001 86.999989q-1.08 0-1.08-1.14 0-0.58 0.34-0.94 0.34-0.38 0.92-0.38 0.6 0 0.86 0.34 0.26 0.32 0.26 0.8 0 0.62-0.34 0.98-0.32 0.34-0.94 0.34zm-0.64 3.42-1.56-0.34v-0.9l2.74-0.32h0.04l0.4 0.32v10.02l1.74 0.14v0.860001h-5.12v-0.860001l1.76-0.16z"/><path d="m214.7 100.41999q-2.32 0-3.58-1.580001-1.24-1.6-1.24-4.24 0-1.7 0.66-3.02t1.82-2.04q1.18-0.74 2.64-0.74 1.78 0 2.76 1.02 1 1.02 1.08 2.94 0 1.24-0.12 1.76h-7.12q0 2.1 0.94 3.44 0.96 1.32 2.68 1.32 0.84 0 1.72-0.3t1.36-0.72l0.32 0.74q-0.58 0.6-1.7 1.020001-1.1 0.4-2.22 0.4zm2.34-6.840001q0.06-0.42 0.06-0.88-0.02-1.32-0.64-2.1-0.6-0.78-1.86-0.78-2.74 0-2.98 3.76z"/><path d="m225.04001 100.41999q-1.18 0-2.18-0.600001-1-0.62-1.6-1.86t-0.6-3.04q0-1.72 0.7-3.1 0.7-1.4 1.98-2.2 1.3-0.82 3.02-0.82 1.1 0 2.12 0.24v-3.96l-2.08-0.2v-0.72l3.28-0.34h0.04l0.38 0.28v15.2h1.22v0.780001q-0.1 0.02-0.68 0.16t-1.24 0.14q-0.46 0-0.66-0.16-0.18-0.16-0.18-0.700001v-0.7q-0.62 0.68-1.52 1.14-0.88 0.460001-2 0.460001zm0.66-1.260001q0.86 0 1.62-0.4 0.78-0.42 1.16-0.92v-7.36q-0.16-0.28-0.84-0.48-0.66-0.2-1.42-0.2-1.72 0-2.76 1.24-1.04 1.22-1.04 3.72 0 2.24 0.92 3.32t2.36 1.08z"/><path d="m233.12001 97.279989q0-1.94 1.92-2.8 1.92-0.88 4.78-0.94v-0.62q0-1.02-0.22-1.6-0.2-0.6-0.72-0.86-0.52-0.28-1.46-0.28-1.02 0-1.86 0.32-0.82 0.3-1.6 0.74l-0.44-0.88q0.22-0.2 0.92-0.56t1.6-0.64 1.74-0.28q1.36 0 2.14 0.38 0.8 0.38 1.14 1.22 0.36 0.84 0.36 2.26v6.6h1.24v0.740001q-1.1 0.3-1.86 0.3-0.48 0-0.66-0.16-0.18-0.14-0.18-0.680001v-0.74q-0.72 0.64-1.58 1.14-0.84 0.480001-1.92 0.480001-1.44 0-2.4-0.800001-0.94-0.8-0.94-2.34zm3.94 1.96q0.56 0 1.34-0.36t1.42-0.86v-3.54q-2.42 0.02-3.68 0.72-1.24 0.7-1.24 1.88 0 1.14 0.58 1.66 0.58 0.5 1.58 0.5z"/><path d="m248.54001 100.41999q-1.18 0-2.18-0.600001-1-0.62-1.6-1.86t-0.6-3.04q0-1.72 0.7-3.1 0.7-1.4 1.98-2.2 1.3-0.82 3.02-0.82 1.1 0 2.12 0.24v-3.96l-2.08-0.2v-0.72l3.28-0.34h0.04l0.38 0.28v15.2h1.22v0.780001q-0.1 0.02-0.68 0.16t-1.24 0.14q-0.46 0-0.66-0.16-0.18-0.16-0.18-0.700001v-0.7q-0.62 0.68-1.52 1.14-0.88 0.460001-2 0.460001zm0.66-1.260001q0.86 0 1.62-0.4 0.78-0.42 1.16-0.92v-7.36q-0.16-0.28-0.84-0.48-0.66-0.2-1.42-0.2-1.72 0-2.76 1.24-1.04 1.22-1.04 3.72 0 2.24 0.92 3.32t2.36 1.08z"/><path d="m261.36001 100.41999q-2.32 0-3.58-1.580001-1.24-1.6-1.24-4.24 0-1.7 0.66-3.02t1.82-2.04q1.18-0.74 2.64-0.74 1.78 0 2.76 1.02 1 1.02 1.08 2.94 0 1.24-0.12 1.76h-7.12q0 2.1 0.94 3.44 0.96 1.32 2.68 1.32 0.84 0 1.72-0.3t1.36-0.72l0.32 0.74q-0.58 0.6-1.7 1.020001-1.1 0.4-2.22 0.4zm2.34-6.840001q0.06-0.42 0.06-0.88-0.02-1.32-0.64-2.1-0.6-0.78-1.86-0.78-2.74 0-2.98 3.76z"/><path d="m282.70001 94.239989q0 1.72-0.7 3.14-0.7 1.4-2 2.22-1.28 0.820001-2.94 0.820001-0.56 0-1.18-0.1-0.62-0.08-1.02-0.22l0.04 1.7v2.16l2.22 0.2v0.88h-5.36v-0.88l1.54-0.2v-13.540001l-1.56-0.34v-0.9l2.56-0.32h0.04l0.36 0.32v1.22q0.64-0.66 1.56-1.12 0.92-0.48 2.06-0.48 1.16 0 2.16 0.58t1.6 1.8q0.62 1.22 0.62 3.06zm-5.04-4.22q-0.86 0-1.6 0.36t-1.16 0.8v7.62q0.16 0.26 0.8 0.48 0.66 0.2 1.44 0.2 1.72 0 2.76-1.26 1.06-1.28 1.06-3.76 0-2.22-0.94-3.32-0.92-1.12-2.36-1.12z"/><path d="m284.6 99.359989 1.6-0.12v-8.82l-1.54-0.34v-0.9l2.54-0.32h0.04l0.38 0.32v0.32l-0.04 1.52h0.04q0.04-0.04 0.52-0.6 0.5-0.58 1.46-1.1 0.98-0.52 1.96-0.52 0.32 0 0.6 0.08v1.76q-0.08-0.06-0.36-0.12-0.26-0.06-0.56-0.06-1.14 0-1.94 0.34t-1.48 0.84v7.58l2.66 0.16v0.820001h-5.88z"/><path d="m295.86 86.999989q-1.08 0-1.08-1.14 0-0.58 0.34-0.94 0.34-0.38 0.92-0.38 0.6 0 0.86 0.34 0.26 0.32 0.26 0.8 0 0.62-0.34 0.98-0.32 0.34-0.94 0.34zm-0.64 3.42-1.56-0.34v-0.9l2.74-0.32h0.04l0.4 0.32v10.02l1.74 0.14v0.860001h-5.12v-0.860001l1.76-0.16z"/><path d="m299.14001 89.099989h4.24v0.82l-1.48 0.26 2.14 5.94 0.98 2.84 0.84-2.74 2.14-6.04-1.4-0.26v-0.82h3.82v0.82l-1.02 0.26-3.94 10.180001h-1.34l-4.04-10.180001-0.94-0.26z"/><path d="m311.43998 97.279989q0-1.94 1.92-2.8 1.92-0.88 4.78-0.94v-0.62q0-1.02-0.22-1.6-0.2-0.6-0.72-0.86-0.52-0.28-1.46-0.28-1.02 0-1.86 0.32-0.82 0.3-1.6 0.74l-0.44-0.88q0.22-0.2 0.92-0.56t1.6-0.64 1.74-0.28q1.36 0 2.14 0.38 0.8 0.38 1.14 1.22 0.36 0.84 0.36 2.26v6.6h1.24v0.740001q-1.1 0.3-1.86 0.3-0.48 0-0.66-0.16-0.18-0.14-0.18-0.680001v-0.74q-0.72 0.64-1.58 1.14-0.84 0.480001-1.92 0.480001-1.44 0-2.4-0.800001-0.94-0.8-0.94-2.34zm3.94 1.96q0.56 0 1.34-0.36t1.42-0.86v-3.54q-2.42 0.02-3.68 0.72-1.24 0.7-1.24 1.88 0 1.14 0.58 1.66 0.58 0.5 1.58 0.5z"/><path d="m326.86 100.41999q-1.18 0-2.18-0.600001-1-0.62-1.6-1.86t-0.6-3.04q0-1.72 0.7-3.1 0.7-1.4 1.98-2.2 1.3-0.82 3.02-0.82 1.1 0 2.12 0.24v-3.96l-2.08-0.2v-0.72l3.28-0.34h0.04l0.38 0.28v15.2h1.22v0.780001q-0.1 0.02-0.68 0.16t-1.24 0.14q-0.46 0-0.66-0.16-0.18-0.16-0.18-0.700001v-0.7q-0.62 0.68-1.52 1.14-0.88 0.460001-2 0.460001zm0.66-1.260001q0.86 0 1.62-0.4 0.78-0.42 1.16-0.92v-7.36q-0.16-0.28-0.84-0.48-0.66-0.2-1.42-0.2-1.72 0-2.76 1.24-1.04 1.22-1.04 3.72 0 2.24 0.92 3.32t2.36 1.08z"/><path d="m334.94001 97.279989q0-1.94 1.92-2.8 1.92-0.88 4.78-0.94v-0.62q0-1.02-0.22-1.6-0.2-0.6-0.72-0.86-0.52-0.28-1.46-0.28-1.02 0-1.86 0.32-0.82 0.3-1.6 0.74l-0.44-0.88q0.22-0.2 0.92-0.56t1.6-0.64 1.74-0.28q1.36 0 2.14 0.38 0.8 0.38 1.14 1.22 0.36 0.84 0.36 2.26v6.6h1.24v0.740001q-1.1 0.3-1.86 0.3-0.48 0-0.66-0.16-0.18-0.14-0.18-0.680001v-0.74q-0.72 0.64-1.58 1.14-0.84 0.480001-1.92 0.480001-1.44 0-2.4-0.800001-0.94-0.8-0.94-2.34zm3.94 1.96q0.56 0 1.34-0.36t1.42-0.86v-3.54q-2.42 0.02-3.68 0.72-1.24 0.7-1.24 1.88 0 1.14 0.58 1.66 0.58 0.5 1.58 0.5z"/><path d="m348.44 92.099989q-0.46 0-0.78-0.3-0.32-0.32-0.32-0.82 0-0.56 0.38-0.94 0.4-0.38 0.92-0.38 0.54 0 0.8 0.32 0.28 0.32 0.28 0.8 0 0.56-0.38 0.94t-0.9 0.38zm0.06 5.32q0.64 0 1.02 0.6t0.38 1.7q0 1.100001-0.32 2.080001t-0.82 1.68-1 1h-0.02l-0.58-0.4v-0.18q0.24-0.18 0.52-0.74 0.3-0.54 0.5-1.26 0.22-0.72 0.22-1.4 0-0.3-0.12-0.48-0.1-0.180001-0.32-0.420001-0.26-0.26-0.4-0.5-0.12-0.24-0.12-0.66 0-0.46 0.28-0.74 0.3-0.28 0.7-0.28z"/></g><g aria-label="Relação com Rousseau."><path d="m58 135.33998 1.72-0.18v-12.76l-1.6-0.24v-0.82h2.44q0.54 0 1.54-0.08 0.96-0.08 1.42-0.08 2.86 0 4.08 0.96t1.22 2.96q0 1.46-0.82 2.64-0.8 1.18-2.18 1.58 0.52 0.34 1.04 1.14 0.54 0.78 1.32 2.18 0.68 1.22 1.08 1.84 0.42 0.6 0.74 0.66l0.84 0.22v0.84h-2.34q-0.32 0-0.74-0.68t-1.18-2.2q-0.82-1.66-1.36-2.54-0.52-0.88-1.04-1.18-2.44 0-2.82-0.02v5.58l2.06 0.18v0.86h-5.42zm6.06-6.72q1.38 0 2.18-0.86t0.8-2.52q0-1.46-0.82-2.26-0.82-0.82-2.86-0.82-0.7 0-1.38 0.08-0.48 0.04-0.62 0.04v6.32q0.36 0.02 1.44 0.02z"/><path d="m76.620001 136.41998q-2.32 0-3.58-1.58-1.24-1.6-1.24-4.24 0-1.7 0.66-3.02t1.82-2.04q1.18-0.74 2.64-0.74 1.78 0 2.76 1.02 1 1.02 1.08 2.94 0 1.24-0.12 1.76h-7.12q0 2.1 0.94 3.44 0.96 1.32 2.68 1.32 0.84 0 1.72-0.3t1.36-0.72l0.32 0.74q-0.58 0.6-1.7 1.02-1.1 0.4-2.22 0.4zm2.34-6.84q0.06-0.42 0.06-0.88-0.02-1.32-0.64-2.1-0.6-0.78-1.86-0.78-2.74 0-2.98 3.76z"/><path d="m84.200004 121.07998-1.7-0.18v-0.74l2.92-0.34h0.02l0.38 0.26v15.12l1.88 0.14v0.86h-5.26v-0.86l1.76-0.16z"/><path d="m89.259998 133.27998q0-1.94 1.92-2.8 1.92-0.88 4.78-0.94v-0.62q0-1.02-0.22-1.6-0.2-0.6-0.72-0.86-0.52-0.28-1.46-0.28-1.02 0-1.86 0.32-0.82 0.3-1.6 0.74l-0.44-0.88q0.22-0.2 0.92-0.56t1.6-0.64 1.74-0.28q1.36 0 2.14 0.38 0.8 0.38 1.14 1.22 0.36 0.84 0.36 2.26v6.6h1.24v0.74q-1.1 0.3-1.86 0.3-0.48 0-0.66-0.16-0.18-0.14-0.18-0.68v-0.74q-0.72 0.64-1.58 1.14-0.84 0.48-1.92 0.48-1.44 0-2.4-0.8-0.94-0.8-0.94-2.34zm3.94 1.96q0.56 0 1.34-0.36t1.42-0.86v-3.54q-2.42 0.02-3.68 0.72-1.24 0.7-1.24 1.88 0 1.14 0.58 1.66 0.58 0.5 1.58 0.5z"/><path d="m100.06 130.71998q0-1.62 0.62-2.96 0.64-1.36 1.88-2.16 1.26-0.8 3.06-0.8 0.78 0 1.52 0.2 0.74 0.18 1.28 0.4l-0.08 2.86h-1l-0.42-1.92q-0.12-0.6-1.72-0.6-1.56 0-2.5 1.2-0.92 1.2-0.92 3.28 0 2.48 1 3.76t2.6 1.28q0.84 0 1.62-0.28 0.8-0.28 1.32-0.64l0.32 0.66q-0.56 0.56-1.56 0.98t-1.98 0.44q0.4 0.48 0.72 1.14 0.32 0.68 0.32 1.36 0 1.06-0.62 1.52t-1.82 0.46q-0.34 0-0.74-0.08t-0.68-0.18l0.02-1.18q0.2 0.06 0.46 0.1 0.28 0.06 0.46 0.06 0.8 0 1.16-0.28t0.36-1.14q0-0.48-0.18-0.98t-0.4-0.86q-1.96-0.3-3.04-1.84-1.06-1.56-1.06-3.8z"/><path d="m110.58 133.27998q0-1.94 1.92-2.8 1.92-0.88 4.78-0.94v-0.62q0-1.02-0.22-1.6-0.2-0.6-0.72-0.86-0.52-0.28-1.46-0.28-1.02 0-1.86 0.32-0.82 0.3-1.6 0.74l-0.44-0.88q0.22-0.2 0.92-0.56t1.6-0.64 1.74-0.28q1.36 0 2.14 0.38 0.8 0.38 1.14 1.22 0.36 0.84 0.36 2.26v6.6h1.24v0.74q-1.1 0.3-1.86 0.3-0.48 0-0.66-0.16-0.18-0.14-0.18-0.68v-0.74q-0.72 0.64-1.58 1.14-0.84 0.48-1.92 0.48-1.44 0-2.4-0.8-0.94-0.8-0.94-2.34zm3.94 1.96q0.56 0 1.34-0.36t1.42-0.86v-3.54q-2.42 0.02-3.68 0.72-1.24 0.7-1.24 1.88 0 1.14 0.58 1.66 0.58 0.5 1.58 0.5zm-3.26-13.02q0.2-0.8 0.76-1.38 0.58-0.6 1.54-0.6 0.6 0 1 0.24t0.92 0.72q0.34 0.34 0.58 0.5t0.52 0.16q0.56 0 0.88-0.42t0.38-0.82l0.92 0.42q-0.62 2.02-2.26 2.02-0.58 0-0.98-0.24-0.38-0.24-0.86-0.7-0.38-0.36-0.62-0.52t-0.54-0.16q-0.56 0-0.84 0.32-0.28 0.3-0.42 0.58-0.12 0.28-0.16 0.34z"/><path d="m121.6 130.57998q0-1.74 0.72-3.06 0.74-1.32 1.92-2.02 1.2-0.7 2.5-0.7 2.52 0 3.72 1.64 1.22 1.64 1.22 4.2 0 1.74-0.74 3.06-0.72 1.32-1.92 2.02-1.18 0.7-2.48 0.7-2.52 0-3.74-1.64-1.2-1.64-1.2-4.2zm5.04 4.8q1.54 0 2.38-1.18t0.84-3.44q0-2.16-0.78-3.54t-2.42-1.38q-1.54 0-2.4 1.18-0.84 1.18-0.84 3.44 0 2.18 0.78 3.56 0.8 1.36 2.44 1.36z"/><path d="m138.02 130.71998q0-1.62 0.62-2.96 0.64-1.36 1.88-2.16 1.26-0.8 3.06-0.8 0.78 0 1.52 0.2 0.74 0.18 1.28 0.4l-0.08 2.86h-1l-0.42-1.92q-0.12-0.6-1.72-0.6-1.56 0-2.5 1.2-0.92 1.2-0.92 3.28 0 2.48 1 3.76t2.6 1.28q0.84 0 1.62-0.28 0.8-0.28 1.32-0.64l0.32 0.66q-0.58 0.58-1.6 1t-2.02 0.42q-1.58 0-2.7-0.74-1.12-0.76-1.7-2.04-0.56-1.3-0.56-2.92z"/><path d="m148.41999 130.57998q0-1.74 0.72-3.06 0.74-1.32 1.92-2.02 1.2-0.7 2.5-0.7 2.52 0 3.72 1.64 1.22 1.64 1.22 4.2 0 1.74-0.74 3.06-0.72 1.32-1.92 2.02-1.18 0.7-2.48 0.7-2.52 0-3.74-1.64-1.2-1.64-1.2-4.2zm5.04 4.8q1.54 0 2.38-1.18t0.84-3.44q0-2.16-0.78-3.54t-2.42-1.38q-1.54 0-2.4 1.18-0.84 1.18-0.84 3.44 0 2.18 0.78 3.56 0.8 1.36 2.44 1.36z"/><path d="m160.3 135.33998 1.28-0.16v-8.76l-1.54-0.34v-0.9l2.54-0.32 0.44 0.32v0.88l-0.02 0.5q0.74-0.64 1.94-1.18t2.18-0.54q1.08 0 1.72 0.36 0.66 0.36 1 1.12 0.62-0.52 1.8-1 1.2-0.48 2.2-0.48 1.26 0 1.94 0.48 0.7 0.48 0.98 1.48t0.28 2.7v5.68l1.52 0.16v0.86h-4.48v-0.86l1.36-0.16v-5.62q0-1.26-0.18-2t-0.7-1.12-1.52-0.38q-0.74 0-1.56 0.34-0.8 0.32-1.38 0.74 0.2 0.92 0.2 2.4v5.64l1.52 0.16v0.86h-4.58v-0.86l1.44-0.16v-5.66q0-1.28-0.16-2-0.14-0.72-0.62-1.08t-1.42-0.36q-0.78 0-1.7 0.4-0.9 0.38-1.58 0.92v7.78l1.42 0.16v0.86h-4.32z"/><path d="m184.84 135.33998 1.72-0.18v-12.76l-1.6-0.24v-0.82h2.44q0.54 0 1.54-0.08 0.96-0.08 1.42-0.08 2.86 0 4.08 0.96t1.22 2.96q0 1.46-0.82 2.64-0.8 1.18-2.18 1.58 0.52 0.34 1.04 1.14 0.54 0.78 1.32 2.18 0.68 1.22 1.08 1.84 0.42 0.6 0.74 0.66l0.84 0.22v0.84h-2.34q-0.32 0-0.74-0.68t-1.18-2.2q-0.82-1.66-1.36-2.54-0.52-0.88-1.04-1.18-2.44 0-2.82-0.02v5.58l2.06 0.18v0.86h-5.42zm6.06-6.72q1.38 0 2.18-0.86t0.8-2.52q0-1.46-0.82-2.26-0.82-0.82-2.86-0.82-0.7 0-1.38 0.08-0.48 0.04-0.62 0.04v6.32q0.36 0.02 1.44 0.02z"/><path d="m198.6 130.57998q0-1.74 0.72-3.06 0.74-1.32 1.92-2.02 1.2-0.7 2.5-0.7 2.52 0 3.72 1.64 1.22 1.64 1.22 4.2 0 1.74-0.74 3.06-0.72 1.32-1.92 2.02-1.18 0.7-2.48 0.7-2.52 0-3.74-1.64-1.2-1.64-1.2-4.2zm5.04 4.8q1.54 0 2.38-1.18t0.84-3.44q0-2.16-0.78-3.54t-2.42-1.38q-1.54 0-2.4 1.18-0.84 1.18-0.84 3.44 0 2.18 0.78 3.56 0.8 1.36 2.44 1.36z"/><path d="m219.66001 136.37998q-0.52 0-0.76-0.18t-0.24-0.66v-0.78q-0.74 0.66-1.74 1.16t-2 0.5q-1.82 0-2.6-1.02-0.76-1.02-0.76-3.32v-5.88l-1.18-0.34v-0.74l2.42-0.26h0.02l0.36 0.24v6.74q0 1.26 0.18 1.98 0.18 0.7 0.66 1.04t1.4 0.34q0.88 0 1.68-0.38t1.38-0.9v-7.72l-1.52-0.34v-0.74l2.66-0.26h0.02l0.46 0.24v10.22h1.24l-0.02 0.76q-0.1 0.02-0.58 0.16t-1.08 0.14z"/><path d="m224.7 134.61998q0.22 0.34 0.92 0.6t1.5 0.26q2.44 0 2.44-1.8 0-0.82-0.68-1.32-0.68-0.52-2.32-1.14-1.62-0.58-2.36-1.38t-0.74-2.14q0-0.86 0.52-1.5 0.54-0.64 1.42-0.98 0.9-0.36 1.94-0.36 1.02 0 1.7 0.18 0.7 0.18 1.38 0.44v2.38h-0.98l-0.36-1.46q-0.14-0.26-0.72-0.44-0.56-0.18-1.24-0.18-0.96 0-1.56 0.44-0.6 0.42-0.6 1.14 0 0.64 0.3 1.06t0.74 0.68q0.44 0.24 1.22 0.56l0.38 0.16q1.14 0.44 1.84 0.84 0.7 0.38 1.16 1.02 0.46 0.62 0.46 1.56 0 1.48-1.14 2.34-1.12 0.84-3 0.84-0.86 0-1.96-0.28t-1.64-0.56v-2.52h1.08z"/><path d="m234.62 134.61998q0.22 0.34 0.92 0.6t1.5 0.26q2.44 0 2.44-1.8 0-0.82-0.68-1.32-0.68-0.52-2.32-1.14-1.62-0.58-2.36-1.38t-0.74-2.14q0-0.86 0.52-1.5 0.54-0.64 1.42-0.98 0.9-0.36 1.94-0.36 1.02 0 1.7 0.18 0.7 0.18 1.38 0.44v2.38h-0.98l-0.36-1.46q-0.14-0.26-0.72-0.44-0.56-0.18-1.24-0.18-0.96 0-1.56 0.44-0.6 0.42-0.6 1.14 0 0.64 0.3 1.06t0.74 0.68q0.44 0.24 1.22 0.56l0.38 0.16q1.14 0.44 1.84 0.84 0.7 0.38 1.16 1.02 0.46 0.62 0.46 1.56 0 1.48-1.14 2.34-1.12 0.84-3 0.84-0.86 0-1.96-0.28t-1.64-0.56v-2.52h1.08z"/><path d="m247.76 136.41998q-2.32 0-3.58-1.58-1.24-1.6-1.24-4.24 0-1.7 0.66-3.02t1.82-2.04q1.18-0.74 2.64-0.74 1.78 0 2.76 1.02 1 1.02 1.08 2.94 0 1.24-0.12 1.76h-7.12q0 2.1 0.94 3.44 0.96 1.32 2.68 1.32 0.84 0 1.72-0.3t1.36-0.72l0.32 0.74q-0.58 0.6-1.7 1.02-1.1 0.4-2.22 0.4zm2.34-6.84q0.06-0.42 0.06-0.88-0.02-1.32-0.64-2.1-0.6-0.78-1.86-0.78-2.74 0-2.98 3.76z"/><path d="m253.82 133.27998q0-1.94 1.92-2.8 1.92-0.88 4.78-0.94v-0.62q0-1.02-0.22-1.6-0.2-0.6-0.72-0.86-0.52-0.28-1.46-0.28-1.02 0-1.86 0.32-0.82 0.3-1.6 0.74l-0.44-0.88q0.22-0.2 0.92-0.56t1.6-0.64 1.74-0.28q1.36 0 2.14 0.38 0.8 0.38 1.14 1.22 0.36 0.84 0.36 2.26v6.6h1.24v0.74q-1.1 0.3-1.86 0.3-0.48 0-0.66-0.16-0.18-0.14-0.18-0.68v-0.74q-0.72 0.64-1.58 1.14-0.84 0.48-1.92 0.48-1.44 0-2.4-0.8-0.94-0.8-0.94-2.34zm3.94 1.96q0.56 0 1.34-0.36t1.42-0.86v-3.54q-2.42 0.02-3.68 0.72-1.24 0.7-1.24 1.88 0 1.14 0.58 1.66 0.58 0.5 1.58 0.5z"/><path d="m274 136.37998q-0.52 0-0.76-0.18t-0.24-0.66v-0.78q-0.74 0.66-1.74 1.16t-2 0.5q-1.82 0-2.6-1.02-0.76-1.02-0.76-3.32v-5.88l-1.18-0.34v-0.74l2.42-0.26h0.02l0.36 0.24v6.74q0 1.26 0.18 1.98 0.18 0.7 0.66 1.04t1.4 0.34q0.88 0 1.68-0.38t1.38-0.9v-7.72l-1.52-0.34v-0.74l2.66-0.26h0.02l0.46 0.24v10.22h1.24l-0.02 0.76q-0.1 0.02-0.58 0.16t-1.08 0.14z"/><path d="m278.88 136.41998q-0.46 0-0.78-0.3-0.32-0.32-0.32-0.82 0-0.56 0.38-0.94 0.4-0.38 0.92-0.38 0.54 0 0.8 0.32 0.28 0.32 0.28 0.8 0 0.56-0.38 0.94t-0.9 0.38z"/></g></g><g stroke-width=".329913"><g transform="matrix(.00596675 0 0 -.00596675 -112.21666 872.61503)"><path d="m28479.452 95369.918c156.184 135.02 255.159 324.34 276.751 529.66 21.588 205.33-35.829 411.27-160.509 575.82-130.887 164.7-320.449 272.17-528.979 299.9-208.528 27.72-400.323-9.74-569.699-134.5-13.223-8.93-34.668-0.84-47.244 6.13-7.486 4.14-33.234 38.95-57.912 69.41-20.854-12.95-43.386-29.5-52.363-27.75 0 0-5.042 11.71-6.616 17.87-17.812 69.62-87.083 159.57-133.629 214.05-25.213 29.52-185.21 190.43-324.672 359.08-77.591 93.83-171.821 240.28-177.998 247.6-24.087 28.55-4.611 52.45-4.611 52.45s28.933 26.48 44.41 38.48c15.571 12.06 48.57 33.64 48.57 33.64s27.77 12.84 49.461-17.58c5.562-7.8 124.11-135.34 195.763-233.78 128.79-176.92 245.014-371.71 267.353-403.46 41.239-58.59 111.253-148.11 174.284-182.63 5.569-3.05 15.778-10.93 15.778-10.93-0.438-7.66-18.892-21.81-33.453-36.63 26.911-27.41 57.793-67.31 76.172-49.91 175.657 136.6 398.483 197.73 619.287 170.11 220.801-27.61 421.492-141.7 558.098-317.36 136.606-175.65 216.43-401.51 170.241-619.19-52.271-246.34-155.537-481.73-398.482-580.48z"/><path transform="matrix(.99655476 .08293739 -.08293739 .99655476 15987.73819 -11424.50053)" d="m20635.038 105655.32c-7.394 8.98-14.061 18.32-20.433 27.69l-511.605 621.53c-9.436 11.46-7.814 28.23 3.655 37.67l221.653 182.45c11.457 9.43 28.236 7.81 37.673-3.66l301.705-366.52c98.518 67.94 865.519 750.13 1267.84 1073.95 87.57 70.49 275.157 194.98 275.157 194.98 23.375 19.24 57.619 16.14 76.86-7.24l21.066-25.59c19.241-23.38 14.913-56.67-7.474-77.06 0 0-168.715-165.22-261.396-238.01-393.682-309.19-1202.077-943.54-1280.634-1032.09l118.479-143.93c30.204-30.88 58.316-69.88 71.92-102.7l173.392-419.76c20.021-48.46 0.973-64.13-42.733-35.18l-378.608 250.84c-21.858 14.48-45.733 37.38-66.518 62.63z" stroke-width=".329913"/></g><g transform="matrix(.00596675 0 0 -.00596675 -112.21666 845.61508)"><path d="m28479.452 95369.918c156.184 135.02 255.159 324.34 276.751 529.66 21.588 205.33-35.829 411.27-160.509 575.82-130.887 164.7-320.449 272.17-528.979 299.9-208.528 27.72-400.323-9.74-569.699-134.5-13.223-8.93-34.668-0.84-47.244 6.13-7.486 4.14-33.234 38.95-57.912 69.41-20.854-12.95-43.386-29.5-52.363-27.75 0 0-5.042 11.71-6.616 17.87-17.812 69.62-87.083 159.57-133.629 214.05-25.213 29.52-185.21 190.43-324.672 359.08-77.591 93.83-171.821 240.28-177.998 247.6-24.087 28.55-4.611 52.45-4.611 52.45s28.933 26.48 44.41 38.48c15.571 12.06 48.57 33.64 48.57 33.64s27.77 12.84 49.461-17.58c5.562-7.8 124.11-135.34 195.763-233.78 128.79-176.92 245.014-371.71 267.353-403.46 41.239-58.59 111.253-148.11 174.284-182.63 5.569-3.05 15.778-10.93 15.778-10.93-0.438-7.66-18.892-21.81-33.453-36.63 26.911-27.41 57.793-67.31 76.172-49.91 175.657 136.6 398.483 197.73 619.287 170.11 220.801-27.61 421.492-141.7 558.098-317.36 136.606-175.65 216.43-401.51 170.241-619.19-52.271-246.34-155.537-481.73-398.482-580.48z"/><path transform="matrix(.99655476 .08293739 -.08293739 .99655476 15987.73819 -11424.50053)" d="m20635.038 105655.32c-7.394 8.98-14.061 18.32-20.433 27.69l-511.605 621.53c-9.436 11.46-7.814 28.23 3.655 37.67l221.653 182.45c11.457 9.43 28.236 7.81 37.673-3.66l301.705-366.52c98.518 67.94 865.519 750.13 1267.84 1073.95 87.57 70.49 275.157 194.98 275.157 194.98 23.375 19.24 57.619 16.14 76.86-7.24l21.066-25.59c19.241-23.38 14.913-56.67-7.474-77.06 0 0-168.715-165.22-261.396-238.01-393.682-309.19-1202.077-943.54-1280.634-1032.09l118.479-143.93c30.204-30.88 58.316-69.88 71.92-102.7l173.392-419.76c20.021-48.46 0.973-64.13-42.733-35.18l-378.608 250.84c-21.858 14.48-45.733 37.38-66.518 62.63z" stroke-width=".329913"/></g><g transform="matrix(.00596675 0 0 -.00596675 -112.21666 818.61515)"><path d="m28479.452 95369.918c156.184 135.02 255.159 324.34 276.751 529.66 21.588 205.33-35.829 411.27-160.509 575.82-130.887 164.7-320.449 272.17-528.979 299.9-208.528 27.72-400.323-9.74-569.699-134.5-13.223-8.93-34.668-0.84-47.244 6.13-7.486 4.14-33.234 38.95-57.912 69.41-20.854-12.95-43.386-29.5-52.363-27.75 0 0-5.042 11.71-6.616 17.87-17.812 69.62-87.083 159.57-133.629 214.05-25.213 29.52-185.21 190.43-324.672 359.08-77.591 93.83-171.821 240.28-177.998 247.6-24.087 28.55-4.611 52.45-4.611 52.45s28.933 26.48 44.41 38.48c15.571 12.06 48.57 33.64 48.57 33.64s27.77 12.84 49.461-17.58c5.562-7.8 124.11-135.34 195.763-233.78 128.79-176.92 245.014-371.71 267.353-403.46 41.239-58.59 111.253-148.11 174.284-182.63 5.569-3.05 15.778-10.93 15.778-10.93-0.438-7.66-18.892-21.81-33.453-36.63 26.911-27.41 57.793-67.31 76.172-49.91 175.657 136.6 398.483 197.73 619.287 170.11 220.801-27.61 421.492-141.7 558.098-317.36 136.606-175.65 216.43-401.51 170.241-619.19-52.271-246.34-155.537-481.73-398.482-580.48z"/><path transform="matrix(.99655476 .08293739 -.08293739 .99655476 15987.73819 -11424.50053)" d="m20635.038 105655.32c-7.394 8.98-14.061 18.32-20.433 27.69l-511.605 621.53c-9.436 11.46-7.814 28.23 3.655 37.67l221.653 182.45c11.457 9.43 28.236 7.81 37.673-3.66l301.705-366.52c98.518 67.94 865.519 750.13 1267.84 1073.95 87.57 70.49 275.157 194.98 275.157 194.98 23.375 19.24 57.619 16.14 76.86-7.24l21.066-25.59c19.241-23.38 14.913-56.67-7.474-77.06 0 0-168.715-165.22-261.396-238.01-393.682-309.19-1202.077-943.54-1280.634-1032.09l118.479-143.93c30.204-30.88 58.316-69.88 71.92-102.7l173.392-419.76c20.021-48.46 0.973-64.13-42.733-35.18l-378.608 250.84c-21.858 14.48-45.733 37.38-66.518 62.63z" stroke-width=".329913"/></g><g transform="matrix(.00596675 0 0 -.00596675 -112.21666 791.61521)"><path d="m28479.452 95369.918c156.184 135.02 255.159 324.34 276.751 529.66 21.588 205.33-35.829 411.27-160.509 575.82-130.887 164.7-320.449 272.17-528.979 299.9-208.528 27.72-400.323-9.74-569.699-134.5-13.223-8.93-34.668-0.84-47.244 6.13-7.486 4.14-33.234 38.95-57.912 69.41-20.854-12.95-43.386-29.5-52.363-27.75 0 0-5.042 11.71-6.616 17.87-17.812 69.62-87.083 159.57-133.629 214.05-25.213 29.52-185.21 190.43-324.672 359.08-77.591 93.83-171.821 240.28-177.998 247.6-24.087 28.55-4.611 52.45-4.611 52.45s28.933 26.48 44.41 38.48c15.571 12.06 48.57 33.64 48.57 33.64s27.77 12.84 49.461-17.58c5.562-7.8 124.11-135.34 195.763-233.78 128.79-176.92 245.014-371.71 267.353-403.46 41.239-58.59 111.253-148.11 174.284-182.63 5.569-3.05 15.778-10.93 15.778-10.93-0.438-7.66-18.892-21.81-33.453-36.63 26.911-27.41 57.793-67.31 76.172-49.91 175.657 136.6 398.483 197.73 619.287 170.11 220.801-27.61 421.492-141.7 558.098-317.36 136.606-175.65 216.43-401.51 170.241-619.19-52.271-246.34-155.537-481.73-398.482-580.48z"/><path transform="matrix(.99655476 .08293739 -.08293739 .99655476 15987.73819 -11424.50053)" d="m20635.038 105655.32c-7.394 8.98-14.061 18.32-20.433 27.69l-511.605 621.53c-9.436 11.46-7.814 28.23 3.655 37.67l221.653 182.45c11.457 9.43 28.236 7.81 37.673-3.66l301.705-366.52c98.518 67.94 865.519 750.13 1267.84 1073.95 87.57 70.49 275.157 194.98 275.157 194.98 23.375 19.24 57.619 16.14 76.86-7.24l21.066-25.59c19.241-23.38 14.913-56.67-7.474-77.06 0 0-168.715-165.22-261.396-238.01-393.682-309.19-1202.077-943.54-1280.634-1032.09l118.479-143.93c30.204-30.88 58.316-69.88 71.92-102.7l173.392-419.76c20.021-48.46 0.973-64.13-42.733-35.18l-378.608 250.84c-21.858 14.48-45.733 37.38-66.518 62.63z" stroke-width=".329913"/></g></g></g></g></svg>
