<svg width="1920" height="1080" xmlns="http://www.w3.org/2000/svg"><path d="M1047.452 132.337h31.237v10.105h-16.725v19.007h12.91v10.174h-12.91v22.474h16.9v9.93h-31.412zm62.7 72.648q-9.93 0-14.878-5.4-4.947-5.488-5.4-16.9l12.578-2.125q.174 6.812 1.847 10.105 1.777 3.17 5.226 3.17 2.561 0 3.711-1.585 1.15-1.69 1.15-4.25 0-4.251-1.934-7.178-1.864-2.997-5.923-6.533l-7.44-6.464q-4.424-3.71-6.811-7.962-2.3-4.25-2.3-10.174 0-8.763 5.122-13.45 5.227-4.79 14.338-4.79 9.739 0 13.537 5.662 3.798 5.575 4.338 14.25l-12.648 1.865q-.175-5.662-1.342-8.328-1.045-2.735-4.32-2.735-2.405 0-3.729 1.864-1.324 1.76-1.324 4.234 0 3.554 1.499 6.028 1.602 2.386 4.965 5.313l7.247 6.359q5.14 4.53 8.049 9.564 2.927 4.948 2.927 11.673 0 5.14-2.3 9.199-2.3 3.99-6.55 6.289-4.164 2.3-9.635 2.3zm38.276-61.846h-11.063v-10.802h36.62v10.802h-10.87v60.87h-14.687zm45.174-10.802h16.202l13.78 71.673h-13.449l-2.648-15.75h-11.324l-2.735 15.75H1179.7zm12.474 46.9-4.338-28.85-4.25 28.85zm30.14-46.9h17.508q9.025 0 14.077 2.387 5.122 2.3 7.247 7.178 2.213 4.878 2.213 12.91v26.114q0 8.223-2.126 13.258-2.125 4.965-7.16 7.44-5.052 2.386-13.885 2.386h-17.875zm17.682 61.499q3.816 0 5.575-1.15 1.864-1.237 2.3-3.537.523-2.3.523-6.637v-29.635q0-4.076-.61-6.097-.523-2.143-2.3-3.119-1.76-1.045-5.575-1.045h-3.083v51.22zm58.45 11.15q-11.411 0-16.272-5.924-4.878-6.028-4.878-17.613v-26.725q0-11.585 4.878-17.422 4.878-5.853 16.272-5.853 11.324 0 16.202 5.923 4.948 5.854 4.948 17.352v26.83q0 11.498-4.948 17.508-4.878 5.923-16.202 5.923zm0-10.453q3.728 0 4.965-2.474 1.324-2.561 1.324-6.969v-33.903q0-4.425-1.324-6.811-1.237-2.474-4.965-2.474-3.71 0-5.052 2.474-1.22 2.386-1.22 6.811v33.886q0 4.53 1.22 6.986t5.052 2.49zm82.213 10.452q-9.896 0-14.861-5.4-4.948-5.488-5.4-16.9l12.578-2.125q.174 6.812 1.846 10.105 1.777 3.17 5.227 3.17 2.56 0 3.71-1.585 1.15-1.69 1.15-4.25 0-4.251-1.933-7.178-1.864-2.997-5.924-6.533l-7.439-6.464q-4.425-3.71-6.812-7.962-2.317-4.25-2.317-10.174 0-8.763 5.14-13.45 5.226-4.79 14.338-4.79 9.721 0 13.536 5.662 3.798 5.575 4.338 14.25l-12.665 1.865q-.174-5.662-1.324-8.328-1.045-2.735-4.32-2.735-2.405 0-3.729 1.864-1.324 1.76-1.324 4.234 0 3.554 1.498 6.028 1.603 2.386 4.965 5.313l7.248 6.359q5.14 4.53 8.049 9.564 2.926 4.948 2.926 11.673 0 5.14-2.3 9.199-2.299 3.99-6.55 6.289-4.164 2.3-9.634 2.3zm51.637 0q-11.41 0-16.271-5.923-4.878-6.028-4.878-17.613v-26.725q0-11.585 4.878-17.422 4.878-5.853 16.271-5.853 11.324 0 16.203 5.923 4.947 5.854 4.947 17.352v26.83q0 11.498-4.947 17.508-4.879 5.923-16.203 5.923zm0-10.452q3.729 0 4.966-2.474 1.324-2.561 1.324-6.969v-33.903q0-4.425-1.324-6.811-1.237-2.474-4.966-2.474-3.71 0-5.052 2.474-1.22 2.386-1.22 6.811v33.886q0 4.53 1.22 6.986t5.052 2.49zm56.168 10.452q-11.429 0-16.202-6.097-4.774-6.202-4.774-17.788v-25.662q0-11.846 4.687-17.874 4.773-6.098 16.271-6.098 10.976 0 15.506 5.4 4.582 5.297 4.582 15.297v6.01h-14.147v-6.62q0-3.188-.348-5.14-.262-1.95-1.586-3.187-1.237-1.324-3.902-1.324-3.99 0-5.14 2.56t-1.15 7.527v32.56q0 5.053 1.325 7.51t4.965 2.49q3.71 0 4.773-2.49 1.063-2.561 1.063-7.51v-6.985h14.164v5.923q0 10.262-4.53 15.924-4.494 5.574-15.557 5.574zm34.547-72.648h14.512v71.673h-14.512zm41.115 0h16.185l13.798 71.673h-13.45l-2.648-15.75h-11.324l-2.753 15.75h-13.71zm12.474 46.9-4.356-28.85-4.233 28.85zm30.122-46.9h14.512v61.76h16.9v9.93h-31.412zm43.85 0h14.512v71.673h-14.512zm49.251 72.648q-9.913 0-14.86-5.4-4.948-5.488-5.401-16.9l12.56-2.125q.175 6.812 1.865 10.105 1.777 3.17 5.226 3.17 2.561 0 3.711-1.585 1.15-1.69 1.15-4.25 0-4.251-1.951-7.178-1.847-2.997-5.924-6.533l-7.439-6.464q-4.425-3.71-6.794-7.962-2.317-4.25-2.317-10.174 0-8.763 5.14-13.45 5.226-4.79 14.337-4.79 9.722 0 13.537 5.662 3.798 5.575 4.338 14.25l-12.666 1.865q-.174-5.662-1.324-8.328-1.045-2.735-4.338-2.735-2.386 0-3.71 1.864-1.325 1.76-1.325 4.234 0 3.554 1.499 6.028 1.585 2.386 4.965 5.313l7.247 6.359q5.14 4.53 8.05 9.564 2.926 4.948 2.926 11.673 0 5.14-2.3 9.199-2.3 3.99-6.55 6.289-4.164 2.3-9.652 2.3zm38.293-61.846h-11.08v-10.802h36.637v10.802h-10.888v60.87H1752zm45.157-10.802h16.202l13.798 71.673h-13.45l-2.648-15.75h-11.324l-2.752 15.75h-13.711zm12.491 46.9-4.355-28.85-4.234 28.85z" fill="#ed4e38" stroke-width=".021" aria-label="ESTADO SOCIALISTA"/><path d="M882.97 164.238h454.841" fill="#ed4e38" stroke="#ed4e38" stroke-linecap="square" stroke-miterlimit="10" stroke-width="10.2" style="paint-order:fill markers stroke" transform="translate(169.574 85.092)"/></svg>