<svg width="1920" height="1080" xmlns="http://www.w3.org/2000/svg"><g fill="#ed4e38" stroke-width=".013"><path d="M1369.56 793.577q-6.262 0-9.579-3.723-3.323-3.76-3.323-10.247 0-4.274 1.734-7.445 1.77-3.208 4.826-4.935 3.062-1.734 6.93-1.734 1.626 0 3.135.218 1.51.188 3.578.522 1.545.254 1.69.254l-.406 7.59h-3.389l-1.14-5.268q-.406-.406-1.4-.66-1.001-.261-2.54-.261-3.142 0-5.058 2.91-1.88 2.88-1.88 8.367 0 5.312 1.815 8.664 1.8 3.353 5.261 3.353 1.662 0 2.54-.29.93-.334 1.553-.93l1.626-3.795 3.091.29-.733 5.72q-.776.072-1.553.29-.733.188-.921.224-1.474.407-2.758.632-1.255.254-3.099.254zm11.539-6.154q0-3.353 3.352-5.05 3.39-1.699 8.737-1.735v-.842q0-1.517-.34-2.358-.29-.85-1.14-1.256-.813-.443-2.395-.443-1.807 0-3.243.48-1.437.435-2.983 1.175l-1.147-2.358q.552-.48 1.844-1.14 1.328-.667 3.135-1.146 1.807-.508 3.722-.508 2.83 0 4.427.725 1.618.74 2.322 2.366.697 1.618.697 4.354v11.27h1.988v2.068q-.733.182-2.097.363t-2.395.189q-1.255 0-1.698-.363-.406-.378-.406-1.517v-.994q-.994 1.103-2.576 1.988t-3.578.886q-1.698 0-3.135-.697-1.4-.74-2.25-2.104-.841-1.401-.841-3.353zm8.584 3.099q.777 0 1.771-.443.994-.479 1.727-1.147v-6.045q-3.316 0-4.97 1.147-1.626 1.103-1.626 2.874t.813 2.685q.849.929 2.285.929zm12.678.442 2.068-.334v-14.448l-2.365-.667v-2.54l6.124-.777.436.29.558 1.227v1.546q1.212-1.183 3.462-2.069 2.286-.921 3.94-.921 1.996 0 3.208.667 1.255.66 1.887 2.061 1.212-1.103 3.2-1.916 1.988-.812 3.904-.812 3.287 0 4.644 1.923t1.365 6.262v10.174l2.394.327v2.213h-9.542v-2.213l1.916-.327v-10.028q0-2.874-.697-4.013-.653-1.183-2.576-1.183-1.03 0-2.141.479-1.067.442-1.916 1.11.261 1.4.261 3.498v10.137l2.286.327v2.213h-9.622v-2.213l2.032-.327v-10.137q0-1.916-.262-2.983-.217-1.11-.885-1.59-.66-.507-1.916-.507-1.183 0-2.358.544-1.147.515-2.068 1.256v13.417l2.177.327v2.213h-9.507zm41.727-21.64q-1.328 0-2.105-.769-.776-.776-.776-1.995 0-1.4.885-2.323t2.359-.921q1.473 0 2.25.813.776.776.776 1.959 0 1.466-.886 2.351t-2.467.885zm-1.96 6.858-2.612-.704v-2.467l6.749-.813h.072l1.023.74v17.729l2.468.29v2.213h-10.276v-2.213l2.576-.327zm12.497-9.949-2.729-.479v-1.996l6.821-.805h.073l.994.697v27.017l2.685.29v2.213h-10.428v-2.213l2.584-.327zm9.985 21.19q0-3.353 3.36-5.05 3.389-1.699 8.73-1.735v-.842q0-1.517-.334-2.358-.29-.85-1.14-1.256-.812-.443-2.394-.443-1.814 0-3.244.48-1.437.435-2.99 1.175l-1.14-2.358q.552-.48 1.844-1.14 1.328-.667 3.135-1.146 1.8-.508 3.723-.508 2.83 0 4.42.725 1.625.74 2.321 2.366.704 1.618.704 4.354v11.27h1.989v2.068q-.733.182-2.105.363-1.357.189-2.395.189-1.248 0-1.69-.363-.407-.378-.407-1.517v-.994q-.994 1.103-2.576 1.988t-3.578.886q-1.698 0-3.134-.697-1.401-.74-2.25-2.104-.842-1.401-.842-3.353zm8.592 3.099q.77 0 1.77-.443.995-.479 1.728-1.147v-6.045q-3.317 0-4.971 1.147-1.626 1.103-1.626 2.874t.813 2.685q.85.929 2.286.929zm30.696 3.055q-1.988 0-3.57-.334-1.582-.327-3.541-.885-1.285-.363-1.728-.4l.334-6.821h2.983l.813 4.753q.478.515 1.69.922 1.256.406 2.838.406 2.467 0 3.686-1.067 1.256-1.11 1.256-3.062 0-1.292-.74-2.213-.733-.958-2.025-1.691-1.292-.777-3.534-1.77-3.063-1.401-5.087-3.317-1.996-1.96-1.996-5.269 0-2.068 1.074-3.722 1.067-1.698 3.164-2.656 2.14-.994 5.203-.994 1.8 0 3.164.254 1.4.26 3.026.703.958.262 1.437.334l-.225 6.452h-2.946l-.777-4.536q-.333-.334-1.328-.631-.994-.327-2.213-.327-2.206 0-3.353 1.03-1.103.995-1.103 2.686 0 1.371.813 2.365.842.995 2.025 1.691 1.175.668 3.723 1.916 2.06 1.001 3.534 1.96 1.48.957 2.54 2.503 1.074 1.51 1.074 3.578 0 2.024-1.03 3.867-.995 1.844-3.317 3.056-2.286 1.219-5.864 1.219zm16.4-.073q-1.139 0-1.988-.776-.849-.806-.849-2.032 0-1.357.965-2.206.995-.886 2.395-.886 1.328 0 2.105.85.769.812.769 1.959 0 1.43-.958 2.278-.922.813-2.431.813z" aria-label="Camila S."/><path d="M1581.465 792.322q-4.05 0-7.003-1.764-2.902-1.814-4.426-4.942-1.503-3.134-1.503-7.075 0-4.535 1.728-7.78 1.77-3.243 4.978-4.898 3.207-1.661 7.481-1.661 4.02 0 9.028 1.146l-.4 6.85h-3.722l-1.001-4.716q-.363-.363-1.4-.66-1.031-.334-2.686-.334-3.614 0-5.675 2.946-2.068 2.917-2.068 8.44 0 5.42 1.77 8.78 1.771 3.31 5.378 3.31 1.48 0 2.765-.364t1.96-.965v-7.917l-3.912-.37v-2.467h11.204v2.467l-1.96.327v9.767q-.768.037-2.793.632-2.358.624-4.057.921-1.654.327-3.686.327zm24.15 0q-4.869 0-7.263-2.83-2.366-2.881-2.366-7.816 0-3.324 1.219-5.755 1.255-2.43 3.505-3.722t5.196-1.285q3.686 0 5.675 1.952 1.988 1.916 2.06 5.486 0 2.439-.29 3.614h-11.98q.145 3.353 1.581 5.232 1.445 1.844 4.093 1.844 1.437 0 2.954-.48 1.545-.478 2.43-1.139l.922 2.032q-.994 1.067-3.243 1.981-2.214.886-4.5.886zm2.867-12.569q.073-1.03.073-1.582 0-4.898-3.28-4.898-1.8 0-2.802 1.437-.994 1.436-1.103 5.043zm8.113 1.96q0-3.47 1.364-5.9 1.401-2.431 3.716-3.65 2.322-1.249 5.05-1.249 4.645 0 7.156 2.874 2.54 2.83 2.54 7.736 0 3.505-1.4 5.972-1.365 2.431-3.687 3.65-2.286 1.176-5.051 1.176-4.608 0-7.148-2.83-2.54-2.881-2.54-7.78zm9.986 8.214q4.165 0 4.165-8.033 0-4.202-.994-6.379-.994-2.206-3.244-2.206-4.282 0-4.282 8.033 0 4.202 1.038 6.415 1.067 2.177 3.317 2.177zm11.313-18.498h9.731v2.134l-2.43.479 3.352 10.029 1.183 3.904.994-3.795 3.28-10.138-2.322-.48v-2.133h8.106v2.134l-1.916.479-6.858 18.17h-4.274l-7.33-18.17-1.516-.48zm22.518 14.739q0-3.353 3.36-5.05 3.389-1.692 8.73-1.728v-.849q0-1.51-.327-2.358-.297-.85-1.147-1.256-.812-.435-2.394-.435-1.807 0-3.244.472-1.437.442-2.983 1.182l-1.146-2.358q.551-.479 1.843-1.147 1.328-.66 3.135-1.139 1.807-.515 3.723-.515 2.83 0 4.426.733 1.619.74 2.323 2.358t.696 4.354v11.277h1.989v2.061q-.74.189-2.105.37t-2.395.182q-1.248 0-1.69-.363-.407-.37-.407-1.517v-.994q-.994 1.11-2.583 1.988-1.582.886-3.57.886-1.699 0-3.136-.697-1.4-.74-2.25-2.104-.848-1.4-.848-3.353zm8.592 3.099q.769 0 1.77-.443.995-.479 1.728-1.147v-6.037q-3.317 0-4.971 1.14-1.626 1.102-1.626 2.873 0 1.77.813 2.685.849.929 2.286.929zm14.738-14.34-2.358-.66v-2.54l6.117-.777h.117l.921.733v1.437l-.036.886q1.284-1.212 3.352-2.105 2.061-.878 4.166-.878 2.25 0 3.498.85 1.291.805 1.843 2.575.551 1.77.551 4.79v10.174l2.25.29v2.213h-9.506v-2.206l1.988-.29v-10.181q0-1.916-.261-2.983-.254-1.103-.958-1.582-.66-.522-1.916-.522-2.104 0-4.5 1.814v13.41l2.214.334v2.206h-9.615v-2.206l2.133-.333zm32.322 17.395q-4.862 0-7.257-2.83-2.358-2.881-2.358-7.816 0-3.324 1.22-5.755 1.247-2.43 3.497-3.722 2.25-1.285 5.196-1.285 3.686 0 5.675 1.952 1.995 1.916 2.068 5.486 0 2.439-.29 3.614h-11.989q.145 3.353 1.59 5.232 1.436 1.844 4.092 1.844 1.437 0 2.947-.48 1.545-.478 2.43-1.139l.922 2.032q-.994 1.067-3.244 1.981-2.213.886-4.499.886zm2.881-12.569q.073-1.03.073-1.582 0-4.898-3.28-4.898-1.807 0-2.802 1.437t-1.11 5.043zm21.081-12.453-3.984-.479v-2.286h11.502l4.383 15.85 1.038 4.31.878-4.31 4.354-15.85h11.393v2.286l-4.027.48 2.953 22.002 2.983.406v2.206h-11.756v-2.206l3.244-.37-1.619-16.146-.704-6.742-1.364 5.675-5.34 18.65h-3.912l-5.45-17.692-1.887-6.633-.551 6.75-1.4 16.138 3.722.363v2.213h-10.247v-2.206l3.099-.37zm36.705 24.95q-1.14 0-1.988-.77-.85-.813-.85-2.032 0-1.364.959-2.213.994-.878 2.394-.878 1.328 0 2.105.841.776.813.776 1.96 0 1.437-.958 2.278-.921.813-2.438.813zm25.363.072q-1.996 0-3.578-.327-1.582-.334-3.541-.885-1.285-.37-1.728-.406l.327-6.822h2.99l.813 4.753q.479.523 1.69.922 1.256.406 2.838.406 2.467 0 3.686-1.066 1.256-1.103 1.256-3.063 0-1.284-.74-2.206-.733-.958-2.032-1.698-1.285-.776-3.534-1.77-3.056-1.401-5.08-3.317-1.996-1.952-1.996-5.268 0-2.061 1.067-3.723 1.074-1.698 3.171-2.656 2.14-.994 5.196-.994 1.814 0 3.171.26 1.4.255 3.026.698.958.26 1.437.333l-.218 6.452h-2.953l-.777-4.536q-.326-.334-1.328-.624-.994-.334-2.206-.334-2.213 0-3.352 1.03-1.11.995-1.11 2.693 0 1.364.812 2.358.85.995 2.032 1.699 1.176.66 3.716 1.915 2.068.995 3.541 1.952t2.54 2.504q1.067 1.517 1.067 3.578 0 2.032-1.03 3.868-.995 1.843-3.317 3.062-2.286 1.212-5.856 1.212zm16.4-.073q-1.147 0-1.988-.769-.85-.813-.85-2.032 0-1.364.958-2.213.995-.878 2.395-.878 1.328 0 2.105.841.769.813.769 1.96 0 1.437-.958 2.278-.922.813-2.431.813z" aria-label="Geovane M. S."/><path d="M1169.662 889.991q1.473-.464 2.729-1.683 1.291-1.22 1.88-3.063.406-1.255.587-2.99.181-1.77.181-4.934v-16.923l-3.316-.508v-2.293h11.8v2.286l-3.1.479v14.484q0 3.948-.108 6.118-.073 2.14-.37 3.432-.777 2.983-3.171 4.935-2.395 1.995-5.893 2.583zm16.546-15.217q0-3.462 1.364-5.893 1.4-2.438 3.723-3.65 2.322-1.255 5.05-1.255 4.645 0 7.148 2.873 2.54 2.838 2.54 7.743 0 3.498-1.393 5.973-1.364 2.43-3.687 3.643-2.286 1.182-5.05 1.182-4.608 0-7.148-2.837-2.54-2.874-2.54-7.78zm9.992 8.222q4.166 0 4.166-8.034 0-4.209-.995-6.386-1.001-2.206-3.243-2.206-4.282 0-4.282 8.034 0 4.209 1.038 6.415 1.067 2.177 3.316 2.177zm12.787-3.76q0-3.352 3.352-5.05 3.396-1.698 8.737-1.734v-.85q0-1.509-.333-2.358-.29-.849-1.14-1.248-.812-.443-2.394-.443-1.815 0-3.244.48-1.437.435-2.99 1.175l-1.14-2.359q.552-.479 1.844-1.14 1.328-.667 3.135-1.146 1.8-.508 3.723-.508 2.83 0 4.426.726 1.619.74 2.315 2.366.704 1.618.704 4.354v11.27h1.988v2.068q-.74.181-2.104.363t-2.395.188q-1.255 0-1.69-.362-.407-.378-.407-1.524v-.987q-.994 1.103-2.583 1.988-1.582.885-3.578.885-1.69 0-3.128-.704-1.4-.732-2.25-2.104-.848-1.393-.848-3.345zm8.592 3.092q.769 0 1.763-.435.994-.487 1.734-1.147v-6.045q-3.316 0-4.978 1.14-1.618 1.11-1.618 2.88 0 1.764.813 2.685.842.922 2.286.922zm-7.083-23.222q.37-1.836 1.698-3.019 1.328-1.175 3.099-1.175 1.067 0 1.807.435.769.407 1.727 1.183.631.588 1.11.885.48.262.994.262.886 0 1.328-.48.436-.522.624-.964.182-.48.254-.581l2.177 1.212q-.333 1.843-1.509 3.055-1.183 1.183-2.99 1.183-1.03 0-1.763-.407-.74-.435-1.735-1.255-.703-.58-1.182-.885-.48-.29-1.03-.29-.806 0-1.293.406-.435.406-.733.921-.29.508-.478.733zm19.76 15.668q0-3.462 1.365-5.893 1.4-2.438 3.722-3.65 2.323-1.255 5.044-1.255 4.644 0 7.155 2.873 2.54 2.838 2.54 7.743 0 3.498-1.4 5.973-1.365 2.43-3.687 3.643-2.286 1.182-5.044 1.182-4.6 0-7.148-2.837-2.54-2.874-2.54-7.78zm9.986 8.222q4.165 0 4.165-8.034 0-4.209-.994-6.386-.994-2.206-3.244-2.206-4.281 0-4.281 8.034 0 4.209 1.037 6.415 1.067 2.177 3.317 2.177zm34.499 2.394q-4.057 0-7.003-1.77-2.91-1.807-4.427-4.935-1.51-3.135-1.51-7.083 0-4.528 1.735-7.772 1.77-3.243 4.978-4.905 3.2-1.655 7.475-1.655 4.02 0 9.034 1.14l-.406 6.857h-3.723l-.994-4.717q-.363-.37-1.4-.667-1.03-.327-2.685-.327-3.622 0-5.683 2.946-2.06 2.91-2.06 8.44 0 5.42 1.763 8.774 1.77 3.316 5.384 3.316 1.474 0 2.758-.37 1.299-.363 1.96-.958v-7.924l-3.905-.363v-2.475h11.205v2.467l-1.96.334v9.768q-.769.036-2.8.624-2.36.631-4.05.922-1.662.333-3.686.333zm14.448-6.153q0-3.353 3.352-5.051 3.39-1.698 8.738-1.734v-.85q0-1.509-.334-2.358-.29-.849-1.14-1.248-.812-.443-2.394-.443-1.814 0-3.251.48-1.437.435-2.976 1.175l-1.146-2.359q.551-.479 1.843-1.14 1.32-.667 3.128-1.146 1.814-.508 3.722-.508 2.838 0 4.427.726 1.618.74 2.322 2.366.697 1.618.697 4.354v11.27h1.988v2.068q-.733.181-2.097.363t-2.395.188q-1.255 0-1.698-.362-.406-.378-.406-1.524v-.987q-.994 1.103-2.576 1.988-1.59.885-3.578.885-1.69 0-3.135-.704-1.4-.732-2.25-2.104-.841-1.393-.841-3.345zm8.585 3.091q.776 0 1.77-.435.994-.487 1.735-1.147v-6.045q-3.317 0-4.979 1.14-1.618 1.11-1.618 2.88 0 1.764.806 2.685.849.922 2.286.922zm11.023-26.756 6.749-.813h.072l1.03.704v10.871q.995-.994 2.432-1.655 1.473-.703 3.17-.703 3.535 0 5.748 2.503 2.25 2.467 2.25 7.598 0 3.164-1.328 5.747-1.328 2.577-3.832 4.093-2.467 1.473-5.754 1.473-2.903 0-5.044-.479-2.14-.515-2.728-.921v-26.052l-2.765-.45zm11.494 11.647q-1.103 0-2.104.516-.95.479-1.538 1.103v13.461q.217.406 1.03.668.813.254 1.843.254 2.359 0 3.76-2.177 1.436-2.207 1.436-6.517 0-3.723-1.219-5.493-1.212-1.807-3.208-1.807zm12.94 15.588 2.43-.29v-14.521l-2.358-.668v-2.54l5.711-.776h.116l.922.74v.806l-.116 2.99h.116q.254-.74 1.212-1.815.957-1.096 2.394-1.908 1.48-.85 3.172-.85.812 0 1.4.218v5.53q-1.103-.77-2.685-.77-2.692 0-4.688 1.438v12.09l4.282.326v2.177h-11.901zm21.74-21.669q-1.32 0-2.097-.776t-.776-1.989q0-1.4.885-2.322t2.359-.921 2.25.812q.776.77.776 1.952 0 1.473-.885 2.359t-2.468.885zm-1.951 6.858-2.613-.704v-2.467l6.749-.813h.073l1.03.74v17.728l2.467.29v2.214h-10.283v-2.213l2.57-.327zm19.651 17.394q-4.862 0-7.264-2.837-2.358-2.874-2.358-7.816 0-3.316 1.219-5.747 1.248-2.431 3.497-3.723t5.196-1.291q3.687 0 5.675 1.959 1.996 1.908 2.068 5.486 0 2.431-.29 3.614h-11.988q.145 3.353 1.589 5.225 1.437 1.85 4.093 1.85 1.437 0 2.946-.479 1.546-.479 2.431-1.146l.922 2.032q-.994 1.066-3.244 1.988-2.213.885-4.5.885zm2.874-12.568q.072-1.03.072-1.582 0-4.906-3.28-4.906-1.814 0-2.8 1.437-.995 1.437-1.111 5.05zm10.246-14.782-2.728-.48v-1.988l6.821-.813h.073l.994.704v27.017l2.685.29v2.214h-10.428v-2.213l2.583-.327zm31.69 27.35q-4.049 0-7.002-1.77-2.903-1.807-4.42-4.935-1.509-3.135-1.509-7.083 0-4.528 1.727-7.772 1.77-3.243 4.978-4.905 3.208-1.655 7.482-1.655 4.02 0 9.028 1.14l-.4 6.857h-3.722l-1.002-4.717q-.362-.37-1.4-.667-1.03-.327-2.685-.327-3.614 0-5.675 2.946-2.068 2.91-2.068 8.44 0 5.42 1.77 8.774 1.771 3.316 5.378 3.316 1.48 0 2.765-.37 1.291-.363 1.959-.958v-7.924l-3.912-.363v-2.475h11.205v2.467l-1.952.334v9.768q-.777.036-2.801.624-2.359.631-4.057.922-1.654.333-3.686.333zm18.324-.072q-1.146 0-1.995-.777-.842-.812-.842-2.032 0-1.357.958-2.206.994-.885 2.394-.885 1.328 0 2.105.85.77.812.77 1.958 0 1.43-.959 2.28-.921.812-2.43.812zm20.305-24.956-3.977-.48v-2.285h11.495l4.39 15.849 1.03 4.317.886-4.317 4.347-15.85h11.393v2.287l-4.02.479 2.946 22.002 2.99.407v2.213h-11.756v-2.213l3.236-.363-1.618-16.147-.704-6.748-1.364 5.682-5.341 18.65h-3.904l-5.457-17.692-1.887-6.64-.545 6.748-1.4 16.14 3.723.37v2.213h-10.247v-2.213l3.091-.363zm36.712 24.956q-1.147 0-1.996-.777-.842-.812-.842-2.032 0-1.357.958-2.206.995-.885 2.395-.885 1.328 0 2.105.85.769.812.769 1.958 0 1.43-.958 2.28-.922.812-2.431.812z" aria-label="João Gabriel G. M."/><path d="M1539.525 885.774q1.473-.479 2.729-1.69 1.292-1.22 1.88-3.063.406-1.248.587-2.982.182-1.771.182-4.935V856.18l-3.317-.515v-2.286h11.8v2.286l-3.099.479v14.484q0 3.94-.109 6.118-.072 2.14-.37 3.425-.776 2.99-3.171 4.942-2.395 1.988-5.893 2.583zm16.546-15.217q0-3.469 1.364-5.9 1.4-2.431 3.723-3.65 2.322-1.248 5.05-1.248 4.645 0 7.148 2.873 2.54 2.83 2.54 7.736 0 3.505-1.393 5.972-1.364 2.432-3.686 3.65-2.286 1.184-5.051 1.184-4.608 0-7.148-2.845-2.54-2.874-2.54-7.772zm9.992 8.215q4.166 0 4.166-8.034 0-4.201-1.002-6.371-.994-2.214-3.236-2.214-4.282 0-4.282 8.034 0 4.201 1.038 6.415 1.067 2.177 3.316 2.177zm12.787-3.76q0-3.352 3.352-5.043 3.397-1.698 8.738-1.742v-.841q0-1.51-.334-2.359-.29-.849-1.14-1.255-.812-.436-2.394-.436-1.814 0-3.244.472-1.437.443-2.99 1.183l-1.14-2.359q.552-.479 1.844-1.146 1.328-.66 3.135-1.14 1.8-.515 3.723-.515 2.83 0 4.42.733 1.617.74 2.321 2.359.697 1.625.697 4.354v11.277h1.996v2.06q-.74.19-2.105.37-1.364.19-2.395.19-1.255 0-1.698-.37-.399-.37-.399-1.51v-1.001q-1.001 1.11-2.583 1.995-1.582.886-3.578.886-1.69 0-3.128-.704-1.4-.74-2.25-2.105-.848-1.393-.848-3.353zm8.585 3.1q.776 0 1.77-.444.994-.478 1.735-1.139v-6.045q-3.317 0-4.979 1.14-1.618 1.103-1.618 2.873 0 1.77.813 2.693.842.921 2.279.921zm-7.076-23.223q.37-1.843 1.698-3.018 1.328-1.183 3.099-1.183 1.067 0 1.8.442.776.407 1.741 1.183.617.588 1.103.886.48.254.995.254.885 0 1.32-.48.443-.507.632-.957.181-.48.254-.588l2.177 1.212q-.334 1.843-1.51 3.062-1.183 1.183-2.99 1.183-1.03 0-1.763-.406-.74-.443-1.742-1.256-.696-.588-1.175-.885-.48-.29-1.03-.29-.813 0-1.292.399-.436.406-.733.921-.29.516-.48.74zm19.76 15.668q0-3.469 1.365-5.9 1.4-2.431 3.715-3.65 2.322-1.248 5.051-1.248 4.644 0 7.155 2.873 2.54 2.83 2.54 7.736 0 3.505-1.4 5.972-1.365 2.432-3.687 3.65-2.286 1.184-5.05 1.184-4.609 0-7.149-2.845-2.54-2.874-2.54-7.772zm9.986 8.215q4.165 0 4.165-8.034 0-4.201-.994-6.371-.994-2.214-3.244-2.214-4.281 0-4.281 8.034 0 4.201 1.038 6.415 1.066 2.177 3.316 2.177zm24.658-22.627-2.764-.48v-2.285h5.566q.769 0 2.394-.073 2.134-.145 3.868-.145 3.832 0 6.045.958 2.25.922 3.171 2.685.958 1.742.958 4.427 0 4.644-2.91 7.22-2.873 2.584-7.997 2.584-2.032 0-2.917-.11v7.258l4.935.363v2.22h-13.258v-2.213l2.902-.363zm5.378 12.423q.849.182 2.873.182 2.468 0 3.948-1.698 1.51-1.727 1.51-5.711 0-3.099-1.365-4.5-1.328-1.436-4.093-1.436-1.03 0-2.133.145-.515.072-.74.072zm25.544 12.606q-4.862 0-7.257-2.845-2.366-2.874-2.366-7.808 0-3.317 1.22-5.755 1.255-2.431 3.497-3.723 2.25-1.284 5.203-1.284 3.68 0 5.675 1.952 1.988 1.916 2.061 5.493 0 2.431-.29 3.607h-11.981q.145 3.36 1.582 5.24 1.437 1.842 4.093 1.842 1.436 0 2.946-.486 1.553-.479 2.438-1.14l.922 2.033q-1.002 1.067-3.244 1.988-2.213.886-4.5.886zm2.873-12.57q.073-1.037.073-1.589 0-4.898-3.28-4.898-1.807 0-2.801 1.437t-1.103 5.05zm15.813 12.57q-2.286 0-4.093-1.075-1.807-1.103-2.874-3.388-1.066-2.286-1.066-5.712 0-3.098 1.248-5.638 1.292-2.583 3.766-4.093t5.929-1.51q1.4 0 2.656.291v-6.226l-3.614-.516v-2.032l7.59-.732h.117l1.03.776v27.199h1.989v2.104q-2.656.552-4.384.552-1.182 0-1.698-.407-.479-.37-.479-1.517v-1.03q-.957 1.292-2.612 2.14-1.67.814-3.505.814zm1.916-3.063q1.219 0 2.14-.479.958-.515 1.51-1.219v-13.41q-.261-.37-1.103-.632-.813-.254-1.77-.254-2.36 0-3.796 2.061-1.4 2.032-1.4 6.531 0 3.752 1.211 5.595 1.22 1.807 3.208 1.807zm13.454.48 2.43-.291v-14.528l-2.358-.66v-2.54l5.712-.777h.108l.922.733v.813l-.109 2.982h.109q.261-.733 1.22-1.8.957-1.11 2.394-1.915 1.473-.85 3.171-.85.813 0 1.4.218v5.53q-1.102-.776-2.684-.776-2.7 0-4.688 1.436v12.09l4.281.334v2.177h-11.908zm17.358-8.034q0-3.469 1.364-5.9 1.401-2.431 3.723-3.65 2.322-1.248 5.05-1.248 4.645 0 7.149 2.873 2.54 2.83 2.54 7.736 0 3.505-1.4 5.972-1.358 2.432-3.68 3.65-2.286 1.184-5.05 1.184-4.609 0-7.156-2.845-2.54-2.874-2.54-7.772zm9.985 8.215q4.166 0 4.166-8.034 0-4.201-.994-6.371-.994-2.214-3.244-2.214-4.274 0-4.274 8.034 0 4.201 1.03 6.415 1.074 2.177 3.316 2.177zm31.22 2.402q-1.99 0-3.571-.334-1.59-.334-3.541-.886-1.292-.362-1.735-.406l.334-6.821h2.983l.812 4.76q.48.508 1.698.922 1.249.399 2.83.399 2.475 0 3.694-1.067 1.248-1.103 1.248-3.055 0-1.292-.732-2.213-.74-.958-2.032-1.698-1.285-.77-3.534-1.764-3.063-1.4-5.087-3.324-1.989-1.952-1.989-5.268 0-2.06 1.067-3.723 1.067-1.69 3.171-2.656 2.134-.994 5.196-.994 1.807 0 3.171.261 1.4.254 3.02.697.957.261 1.436.334l-.218 6.451h-2.953l-.77-4.535q-.333-.334-1.328-.624-.994-.334-2.213-.334-2.206 0-3.353 1.03-1.103.994-1.103 2.692 0 1.365.806 2.359.849.994 2.032 1.698 1.175.66 3.723 1.916 2.06.994 3.534 1.96 1.473.95 2.54 2.496 1.074 1.516 1.074 3.577 0 2.032-1.03 3.868-.995 1.843-3.317 3.062-2.286 1.22-5.864 1.22zm16.4-.08q-1.14 0-1.989-.77-.849-.812-.849-2.031 0-1.365.958-2.207.994-.885 2.395-.885 1.328 0 2.104.85.777.805.777 1.951 0 1.437-.958 2.286-.922.806-2.438.806zm28.381.08q-6.263 0-9.579-3.723-3.324-3.76-3.324-10.247 0-4.281 1.742-7.445 1.763-3.208 4.826-4.935t6.923-1.742q1.625 0 3.135.218 1.51.189 3.577.523 1.546.26 1.691.26l-.406 7.591h-3.39l-1.138-5.268q-.407-.406-1.401-.668-.994-.254-2.54-.254-3.135 0-5.058 2.903-1.88 2.881-1.88 8.374 0 5.305 1.815 8.658t5.268 3.353q1.655 0 2.54-.29.922-.335 1.546-.922l1.625-3.796 3.092.29-.733 5.719q-.777.073-1.546.29-.74.189-.922.218-1.48.414-2.764.631-1.256.262-3.099.262zm15.406-.08q-1.14 0-1.988-.77-.85-.812-.85-2.031 0-1.365.959-2.207.994-.885 2.394-.885 1.328 0 2.105.85.77.805.77 1.951 0 1.437-.959 2.286-.921.806-2.43.806z" aria-label="João Pedro S. C."/><path d="m958.839 980.151 2.917-.362v-22.047l-2.765-.515v-2.25h5.34q.705 0 1.547-.036t1.291-.072q1.916-.145 3.172-.145 3.795 0 6.08.769t3.317 2.358q1.03 1.59 1.03 4.166 0 2.54-1.364 4.717-1.364 2.177-3.94 2.99 1.473.623 2.612 2.285 1.147 1.655 2.439 4.31.921 1.808 1.4 2.613.508.777.994.886l1.212.37v2.177h-6.262q-.588 0-1.256-1.183-.624-1.212-1.654-3.795-1.22-3.02-2.105-4.717-.885-1.698-1.88-2.105h-3.795v9.216l3.39.37v2.214h-11.72zm11.72-11.828q2.104 0 3.28-1.517 1.182-1.51 1.182-4.528 0-2.692-1.183-3.984-1.139-1.292-3.976-1.292-1.03 0-1.771.116-.697.073-.922.073v11.06q.443.072 2.141.072zm24.368 14.448q-4.862 0-7.264-2.837-2.359-2.881-2.359-7.816 0-3.316 1.22-5.747 1.247-2.439 3.497-3.723 2.25-1.292 5.196-1.292 3.686 0 5.675 1.952 1.995 1.916 2.068 5.494 0 2.43-.29 3.606h-11.981q.145 3.36 1.582 5.24 1.436 1.843 4.092 1.843 1.437 0 2.947-.479 1.545-.479 2.43-1.146l.922 2.031q-.994 1.067-3.243 1.989-2.214.885-4.5.885zm2.873-12.569q.073-1.03.073-1.589 0-4.898-3.28-4.898-1.807 0-2.801 1.437t-1.103 5.05zm6.452-17.25 6.741-.812h.073l1.03.704v10.87q.994-.993 2.438-1.661 1.474-.697 3.164-.697 3.542 0 5.755 2.504 2.25 2.467 2.25 7.59 0 3.172-1.328 5.755-1.328 2.576-3.84 4.086-2.466 1.48-5.747 1.48-2.91 0-5.05-.479-2.134-.515-2.729-.921v-26.06l-2.757-.442zm11.494 11.648q-1.103 0-2.104.508-.95.486-1.546 1.11v13.454q.218.407 1.038.66.805.262 1.836.262 2.366 0 3.766-2.177 1.437-2.206 1.437-6.524 0-3.723-1.22-5.486-1.218-1.814-3.207-1.814zm22.228 18.171q-4.862 0-7.257-2.837-2.366-2.881-2.366-7.816 0-3.316 1.22-5.747 1.248-2.439 3.497-3.723 2.25-1.292 5.196-1.292 3.687 0 5.682 1.952 1.989 1.916 2.061 5.494 0 2.43-.29 3.606h-11.988q.145 3.36 1.582 5.24 1.437 1.843 4.093 1.843 1.436 0 2.946-.479 1.545-.479 2.43-1.146l.922 2.031q-.994 1.067-3.243 1.989-2.206.885-4.5.885zm2.866-12.569q.073-1.03.073-1.589 0-4.898-3.28-4.898-1.807 0-2.801 1.437t-1.103 5.05zm7.635 2.025q0-3.171 1.255-5.639 1.292-2.467 3.65-3.831 2.395-1.4 5.566-1.4 1.473 0 2.54.217t2.395.595l1.066.29-.217 6.306h-3.208l-.921-4.056q-.218-.958-2.177-.958-2.061 0-3.237 1.807-1.147 1.807-1.183 5.639 0 4.056 1.4 6.226 1.401 2.14 3.724 2.14 2.8 0 5.16-1.509l.848 1.916q-.958 1.03-2.946 1.916-1.96.885-4.245.885-4.717 0-7.112-2.917-2.358-2.903-2.358-7.62zm19.201 4.39q0-3.36 3.353-5.05 3.396-1.698 8.737-1.735v-.849q0-1.51-.334-2.358-.29-.85-1.14-1.256-.812-.435-2.394-.435-1.807 0-3.244.472-1.437.442-2.982 1.182l-1.147-2.358q.552-.479 1.843-1.14 1.328-.667 3.135-1.146 1.807-.515 3.723-.515 2.83 0 4.427.74 1.618.733 2.322 2.359.696 1.618.696 4.346v11.277h1.989v2.061q-.74.189-2.105.37-1.357.19-2.394.19-1.249 0-1.691-.371-.407-.363-.407-1.51v-1.008q-.994 1.11-2.583 1.996-1.582.885-3.57.885-1.698 0-3.135-.704-1.4-.733-2.25-2.105-.849-1.393-.849-3.352zm8.592 3.092q.77 0 1.763-.436 1.002-.486 1.742-1.146v-6.045q-3.324 0-4.978 1.14-1.626 1.11-1.626 2.873t.813 2.692q.85.922 2.286.922zm25.653-21.96-3.984-.486v-2.285h11.502l4.383 15.848 1.03 4.31.886-4.31 4.354-15.848h11.386v2.285l-4.02.48 2.953 22.002 2.983.406v2.214h-11.756v-2.214l3.243-.362-1.625-16.147-.697-6.749-1.364 5.675-5.348 18.65h-3.904l-5.458-17.692-1.88-6.633-.55 6.75-1.401 16.138 3.723.37v2.214h-10.247v-2.214l3.099-.362zm36.705 24.942q-1.14 0-1.989-.769-.849-.813-.849-2.032 0-1.357.958-2.206.994-.885 2.395-.885 1.328 0 2.104.849.77.805.77 1.952 0 1.437-.958 2.286-.922.805-2.431.805zm37.118.08q-6.27 0-9.579-3.723-3.323-3.759-3.323-10.246 0-4.282 1.734-7.446 1.77-3.207 4.826-4.934t6.93-1.742q1.618 0 3.135.225 1.51.181 3.57.515 1.553.261 1.698.261l-.406 7.591h-3.389l-1.146-5.268q-.407-.407-1.401-.668-.994-.254-2.54-.254-3.135 0-5.05 2.903-1.88 2.88-1.88 8.374 0 5.305 1.807 8.657 1.807 3.36 5.268 3.36 1.662 0 2.54-.297.929-.334 1.553-.922l1.618-3.795 3.099.29-.74 5.719q-.77.072-1.546.29-.733.188-.921.218-1.474.413-2.758.63-1.255.262-3.099.262zm15.406-.08q-1.146 0-1.995-.769-.842-.813-.842-2.032 0-1.357.958-2.206.994-.885 2.395-.885 1.328 0 2.104.849.77.805.77 1.952 0 1.437-.958 2.286-.922.805-2.432.805z" aria-label="Rebeca M. C."/><path d="m1518.7 957.743-2.758-.479v-2.286h5.559q.776 0 2.395-.072 2.14-.145 3.868-.145 3.838 0 6.045.958 2.25.921 3.17 2.685.959 1.741.959 4.426 0 4.645-2.91 7.22-2.874 2.584-7.997 2.584-2.032 0-2.91-.109v7.257l4.934.363v2.22h-13.265v-2.213l2.91-.363zm5.384 12.424q.842.181 2.874.181 2.467 0 3.94-1.698 1.51-1.727 1.51-5.71 0-3.1-1.357-4.5-1.328-1.437-4.093-1.437-1.03 0-2.14.145-.509.073-.734.073zm15.842 6.444q0-3.353 3.36-5.044 3.389-1.698 8.73-1.741v-.842q0-1.51-.327-2.358-.29-.85-1.146-1.256-.806-.435-2.395-.435-1.807 0-3.244.471-1.437.443-2.982 1.183l-1.147-2.358q.559-.48 1.843-1.147 1.328-.66 3.135-1.139 1.807-.515 3.723-.515 2.837 0 4.427.733 1.618.74 2.322 2.358.696 1.626.696 4.354v11.277h1.989v2.061q-.733.189-2.105.37-1.357.189-2.394.189-1.249 0-1.691-.37-.407-.37-.407-1.51v-1.001q-.994 1.11-2.583 1.996t-3.57.885q-1.699 0-3.135-.704-1.4-.74-2.25-2.104-.842-1.394-.842-3.353zm8.592 3.099q.777 0 1.77-.443.995-.479 1.728-1.14v-6.044q-3.317 0-4.971 1.139-1.626 1.103-1.626 2.874t.813 2.692q.85.922 2.286.922zm12.678.442 2.06-.334v-14.44l-2.358-.668v-2.54l6.125-.777.435.29.56 1.22v1.546q1.211-1.176 3.46-2.061 2.286-.922 3.941-.922 1.996 0 3.208.66 1.255.668 1.886 2.069 1.212-1.11 3.2-1.916 1.996-.813 3.912-.813 3.28 0 4.644 1.916 1.357 1.916 1.357 6.262v10.174l2.395.334v2.214h-9.543v-2.214l1.916-.334v-10.021q0-2.874-.696-4.02-.668-1.176-2.584-1.176-1.03 0-2.133.479-1.074.435-1.916 1.103.254 1.4.254 3.505v10.13l2.286.334v2.214h-9.623v-2.214l2.032-.334v-10.13q0-1.923-.261-2.99-.218-1.103-.886-1.582-.66-.515-1.915-.515-1.176 0-2.359.551-1.14.508-2.06 1.249v13.425l2.176.326v2.214h-9.513zm46.625 2.62q-4.862 0-7.257-2.845-2.366-2.873-2.366-7.808 0-3.316 1.22-5.755 1.255-2.43 3.497-3.722 2.25-1.285 5.196-1.285 3.686 0 5.682 1.952 1.988 1.916 2.06 5.494 0 2.43-.29 3.606h-11.98q.145 3.36 1.582 5.24 1.436 1.843 4.092 1.843 1.437 0 2.947-.486 1.553-.48 2.43-1.14l.922 2.032q-.994 1.067-3.236 1.989-2.213.885-4.5.885zm2.873-12.569q.073-1.038.073-1.589 0-4.898-3.28-4.898-1.807 0-2.801 1.436t-1.103 5.051zm10.247-14.782-2.729-.479v-1.988l6.822-.813h.072l.994.697v27.017l2.686.29v2.22h-10.429v-2.213l2.584-.334zm9.985 21.19q0-3.353 3.353-5.044 3.396-1.698 8.737-1.741v-.842q0-1.51-.334-2.358-.29-.85-1.139-1.256-.813-.435-2.395-.435-1.807 0-3.244.471-1.436.443-2.982 1.183l-1.147-2.358q.552-.48 1.844-1.147 1.328-.66 3.134-1.139 1.807-.515 3.723-.515 2.83 0 4.427.733 1.618.74 2.322 2.358.697 1.626.697 4.354v11.277h1.988v2.061q-.74.189-2.104.37-1.357.189-2.395.189-1.248 0-1.691-.37-.406-.37-.406-1.51v-1.001q-.995 1.11-2.584 1.996-1.582.885-3.57.885-1.698 0-3.135-.704-1.4-.74-2.25-2.104-.849-1.394-.849-3.353zm8.592 3.099q.77 0 1.764-.443 1.001-.479 1.741-1.14v-6.044q-3.323 0-4.978 1.139-1.625 1.103-1.625 2.874t.812 2.692q.85.922 2.286.922zm24.1-21.967-3.019-.479v-2.286h20.341l.37 6.677h-2.946L1677 957.59l-7.961-.4v10.429l5.493-.11.697-3.243h2.358v9.361h-2.322l-.733-3.316-5.493-.145v9.615l5.639.363v2.22h-13.897v-2.213l2.837-.363zm23.7 24.95q-1.138 0-1.987-.77-.85-.813-.85-2.032 0-1.364.958-2.206.995-.885 2.395-.885 1.328 0 2.105.849.769.805.769 1.952 0 1.437-.958 2.286-.922.805-2.431.805zm25.356.079q-1.988 0-3.57-.334-1.59-.334-3.542-.885-1.291-.363-1.734-.407l.334-6.82h2.982l.813 4.76q.48.507 1.698.921 1.256.4 2.83.4 2.475 0 3.694-1.067 1.248-1.104 1.248-3.056 0-1.291-.733-2.213-.74-.958-2.032-1.698-1.284-.77-3.534-1.77-3.062-1.401-5.08-3.317-1.995-1.952-1.995-5.268 0-2.061 1.067-3.723 1.067-1.691 3.171-2.656 2.134-.994 5.196-.994 1.807 0 3.171.26 1.4.255 3.019.698.958.26 1.437.333l-.218 6.452h-2.946l-.777-4.536q-.333-.334-1.328-.624-.994-.334-2.213-.334-2.206 0-3.353 1.03-1.103.995-1.103 2.693 0 1.364.813 2.358.842.995 2.025 1.699 1.175.66 3.722 1.915 2.061.994 3.535 1.96 1.48.95 2.54 2.496 1.073 1.517 1.073 3.578 0 2.031-1.03 3.867-.994 1.844-3.316 3.063-2.286 1.219-5.864 1.219zm16.4-.08q-1.139 0-1.988-.77-.849-.812-.849-2.031 0-1.364.958-2.206 1.001-.885 2.395-.885 1.328 0 2.104.849.777.805.777 1.952 0 1.437-.958 2.286-.922.805-2.439.805zm18.803-24.949-2.838-.479v-2.286h11.793v2.286l-3.542.48v22.002l7.889-.334 2.322-6.894 2.982.406-1.139 9.434h-20.384v-2.206l2.917-.363zm24.252 24.95q-1.146 0-1.996-.77-.849-.813-.849-2.032 0-1.364.966-2.206.994-.885 2.394-.885 1.328 0 2.105.849.769.805.769 1.952 0 1.437-.958 2.286-.921.805-2.43.805zm27.489.079q-6.002 0-8.991-3.766t-2.983-10.24q0-4.245 1.546-7.445 1.582-3.208 4.426-4.942 2.83-1.734 6.524-1.734 6.082 0 9.1 3.614 3.063 3.577 3.063 10.028 0 4.275-1.626 7.591-1.582 3.28-4.455 5.08-2.881 1.814-6.604 1.814zm.37-25.878q-3.019 0-4.717 2.99t-1.698 8.839q0 5.79 1.625 8.81 1.655 2.99 4.717 2.99 2.983 0 4.681-3.136 1.698-3.17 1.698-9.1 0-5.754-1.625-8.555-1.619-2.83-4.681-2.83zm18.505 25.798q-1.147 0-1.989-.77-.849-.812-.849-2.031 0-1.364.958-2.206.994-.885 2.395-.885 1.328 0 2.104.849.77.805.77 1.952 0 1.437-.958 2.286-.922.805-2.431.805z" aria-label="Pamela F. S. L. O."/><path d="M1239.377 951.718h11.204v2.286l-3.127.48 5.486 16.508 1.074 3.723.921-3.759 5.153-16.473-2.903-.479v-2.286h8.918v2.286l-2.365.48-8.476 24.875h-4.383l-9.289-24.876-2.213-.479zm27.242 21.633q0-3.353 3.352-5.05 3.39-1.692 8.73-1.728v-.85q0-1.508-.326-2.358-.29-.849-1.147-1.255-.805-.435-2.395-.435-1.807 0-3.243.471-1.437.443-2.983 1.183l-1.146-2.358q.558-.48 1.843-1.147 1.328-.66 3.135-1.14 1.807-.514 3.722-.514 2.838 0 4.427.733 1.618.74 2.322 2.358.697 1.626.697 4.354v11.277h1.988v2.061q-.733.181-2.104.363-1.357.189-2.395.189-1.248 0-1.69-.363-.407-.37-.407-1.517v-.994q-.994 1.103-2.576 1.988-1.59.886-3.578.886-1.698 0-3.135-.697-1.4-.74-2.25-2.105-.841-1.4-.841-3.352zm8.585 3.098q.776 0 1.77-.442.994-.48 1.727-1.147v-6.045q-3.316 0-4.97 1.147-1.626 1.103-1.626 2.874 0 1.77.813 2.685.849.928 2.286.928zm14.818-24.295-2.729-.472v-1.996l6.822-.805h.072l.994.697v27.017l2.685.29v2.213h-10.42v-2.206l2.583-.334zm16.582 27.285q-2.322 0-3.426-1.074t-1.103-3.389v-13.534h-2.394v-1.915q.29-.116 1.066-.37.77-.29 1.176-.48.631-.478 1.067-1.661.334-.777 1.219-3.832h2.946l.145 5.421h5.646v2.83h-5.602v10.363q0 2.06.109 2.91.109.849.479 1.103.363.218 1.291.218t1.916-.182q.994-.218 1.655-.508l.704 2.061q-1.03.77-3.02 1.4-1.995.625-3.874.625zm18.134.073q-4.862 0-7.256-2.845-2.366-2.874-2.366-7.815 0-3.317 1.219-5.748 1.255-2.43 3.505-3.723t5.196-1.291q3.686 0 5.675 1.96 1.988 1.915 2.06 5.485 0 2.439-.29 3.614h-11.98q.145 3.353 1.581 5.232 1.437 1.844 4.093 1.844 1.437 0 2.947-.48 1.552-.478 2.438-1.139l.921 2.032q-1.001 1.06-3.243 1.981-2.214.886-4.5.886zm2.874-12.576q.073-1.03.073-1.582 0-4.906-3.28-4.906-1.807 0-2.802 1.444-.994 1.437-1.103 5.044zm8.113 9.992 2.431-.29V962.11l-2.358-.66v-2.54l5.71-.777h.11l.921.733v.813l-.108 2.983h.108q.262-.733 1.22-1.807.957-1.103 2.394-1.916 1.473-.85 3.171-.85.806 0 1.401.218v5.537q-1.11-.776-2.692-.776-2.685 0-4.68 1.437v12.09l4.273.333v2.177h-11.9zm25.87-.036 2.91-.37v-22.046l-2.757-.515v-2.25h5.341q.697 0 1.546-.036t1.292-.073q1.915-.145 3.17-.145 3.796 0 6.082.77t3.316 2.358 1.03 4.165q0 2.54-1.364 4.717t-3.947 2.983q1.48.63 2.62 2.285 1.146 1.662 2.43 4.311.922 1.814 1.401 2.62.515.776.994.885l1.22.363v2.177h-6.263q-.595 0-1.256-1.176-.624-1.219-1.661-3.795-1.212-3.026-2.105-4.717-.878-1.698-1.872-2.104h-3.795v9.216l3.388.363v2.213h-11.72zm11.72-11.828q2.105 0 3.28-1.517t1.183-4.536q0-2.685-1.182-3.976-1.14-1.292-3.977-1.292-1.038 0-1.77.109-.705.072-.922.072v11.06q.435.072 2.133.072zm18.542 14.375q-1.147 0-1.996-.783-.842-.806-.842-2.025 0-1.364.958-2.213.994-.879 2.395-.879 1.328 0 2.104.842.77.813.77 1.96 0 1.436-.958 2.278-.922.813-2.431.813zm25.355.073q-1.989 0-3.578-.334-1.582-.334-3.534-.885-1.292-.37-1.734-.407l.334-6.821h2.982l.813 4.753q.479.515 1.69.922 1.256.406 2.845.406 2.468 0 3.68-1.067 1.255-1.103 1.255-3.062 0-1.284-.733-2.206-.74-.958-2.032-1.698-1.292-.777-3.534-1.77-3.062-1.401-5.087-3.317-1.996-1.952-1.996-5.269 0-2.068 1.074-3.722 1.067-1.698 3.172-2.656 2.133-.995 5.196-.995 1.807 0 3.164.262 1.4.254 3.026.696.958.262 1.436.334l-.217 6.451h-2.954l-.769-4.535q-.334-.334-1.328-.624-.994-.334-2.213-.334-2.214 0-3.353 1.03-1.11.995-1.11 2.686 0 1.371.813 2.365.849.994 2.031 1.698 1.176.66 3.723 1.916 2.061.994 3.534 1.952t2.54 2.504q1.074 1.51 1.074 3.577 0 2.032-1.03 3.868-1.002 1.844-3.317 3.063-2.286 1.212-5.863 1.212zm16.4-.073q-1.14 0-1.988-.783-.85-.806-.85-2.025 0-1.364.959-2.213.994-.879 2.394-.879 1.328 0 2.105.842.77.813.77 1.96 0 1.436-.959 2.278-.921.813-2.43.813zm13.933 4.674q1.473-.48 2.729-1.691 1.284-1.22 1.88-3.063.406-1.255.587-2.982.182-1.77.182-4.942v-16.916l-3.317-.515v-2.286h11.8v2.286l-3.099.48v14.484q0 3.94-.109 6.117-.072 2.134-.37 3.425-.776 2.99-3.171 4.935-2.395 1.996-5.9 2.583zm20.015-4.674q-1.147 0-1.996-.783-.842-.806-.842-2.025 0-1.364.958-2.213.994-.879 2.395-.879 1.328 0 2.104.842.77.813.77 1.96 0 1.436-.958 2.278-.922.813-2.431.813z" aria-label="Valter R. S. J."/></g></svg>