<?xml version="1.0" encoding="UTF-8"?>
<!-- Created with Inkscape (http://www.inkscape.org/) -->
<svg width="960" height="540" version="1.1" viewBox="0 0 960 540" xml:space="preserve" xmlns="http://www.w3.org/2000/svg"><defs><clipPath id="a"><path d="m0 0h365760v205740h-365760z"/></clipPath></defs><g transform="matrix(1.3333333,0,0,-1.3333333,0,540)"><g transform="matrix(1,0,0,-1,0,405)"><g transform="scale(.0019685)"><g clip-path="url(#a)"><path d="m16589 17801h336708v22908h-336708z" fill-opacity="0"/><g transform="scale(381)"><g transform="translate(43.540684,46.721786)"><g transform="translate(9,41.255997)" fill="#ed4e38" aria-label="CONTEXTO HISTÓRICO"><path d="m9.8111996 0.40319998q-4.4351998 0-6.3167998-2.31839988-1.8479999-2.3519999-1.8479999-6.7535997v-9.8111994q0-4.5024 1.8479999-6.7872 1.848-2.3184 6.3167998-2.3184 4.2671994 0 6.0479994 2.0496t1.7808 5.8128v2.352h-5.88v-2.7216q0-1.5792-0.336-2.4192t-1.6127994-0.84q-1.2768 0-1.68 0.9072-0.4032 0.8736-0.4032 2.4528v12.8015993q0 1.6128 0.4032 2.4863999 0.4368 0.84 1.68 0.84 1.2431994 0 1.5791994-0.84 0.3696-0.8735999 0.3696-2.4863999v-2.8560003h5.88v2.3520003q0 3.8303999-1.7808 5.9807998-1.7808 2.11679988-6.0479994 2.11679988z"/><path d="m32.727997 0.40319998q-4.4016 0-6.2832-2.25119988-1.881599-2.2847999-1.881599-6.7199997v-10.1135994q0-4.4352 1.881599-6.6528 1.8816-2.2512 6.2832-2.2512 4.4352 0 6.3168 2.2512 1.9152 2.2512 1.9152 6.6528v10.1135994q0 4.4351998-1.9152 6.7199997-1.8816 2.25119988-6.3168 2.25119988zm0-4.26719978q1.2768 0 1.68-0.84 0.4032-0.8735999 0.4032-2.3519999v-13.1039993q0-1.512-0.4032-2.352t-1.68-0.84q-1.2096 0-1.6128 0.8736-0.4032 0.84-0.4032 2.3184v13.1039993q0 1.4784 0.3696 2.3519999 0.3696 0.84 1.6464 0.84z"/><path d="m48.622357-27.215999h4.2336l5.5776 13.104v-13.104h4.9728v27.215999h-4.0656l-5.5776-14.111999v14.111999h-5.1408z"/><path d="m73.924725-22.747199h-4.0992v-4.4688h14.212799v4.4688h-4.065599v22.747199h-6.048z"/><path d="m90.423928-27.215999h12.230402v4.0992h-6.216002v6.7536h4.737602v4.1664h-4.737602v8.1311992h6.283202v4.0655998h-12.297602z"/><path d="m112.93749-14.649599-5.04-12.5664h5.6784l2.9904 7.3584 2.4192-7.3584h5.0064l-4.7712 14.1456 5.3088 13.070399h-5.6448l-3.3264-8.1311996-2.9232 8.1311996h-4.9728z"/><path d="m133.19988-22.747199h-4.0992v-4.4688h14.2128v4.4688h-4.0656v22.747199h-6.048z"/><path d="m157.22543 0.40319998q-4.4016 0-6.2832-2.25119988-1.8816-2.2847999-1.8816-6.7199997v-10.1135994q0-4.4352 1.8816-6.6528 1.8816-2.2512 6.2832-2.2512 4.4352 0 6.3168 2.2512 1.9152 2.2512 1.9152 6.6528v10.1135994q0 4.4351998-1.9152 6.7199997-1.8816 2.25119988-6.3168 2.25119988zm0-4.26719978q1.2768 0 1.68-0.84 0.4032-0.8735999 0.4032-2.3519999v-13.1039993q0-1.512-0.4032-2.352t-1.68-0.84q-1.2096 0-1.6128 0.8736-0.4032 0.84-0.4032 2.3184v13.1039993q0 1.4784 0.3696 2.3519999 0.3696 0.84 1.6464 0.84z"/><path d="m185.82214-27.215999h6.0144v11.0208h4.2v-11.0208h6.048v27.215999h-6.048v-11.894399h-4.2v11.894399h-6.0144z"/><path d="m210.25091-27.215999h6.0144v27.215999h-6.0144z"/><path d="m231.55486 0.40319998q-3.8976 0-5.8128-2.04959988-1.88159-2.0831999-2.01599-6.5855997l5.14079-0.7728q0.0336 2.5871999 0.6048 3.7295998 0.6048 1.1088 1.7808 1.1088 1.512 0 1.512-1.9823999 0-1.5791999-0.7392-2.7215999-0.7056-1.1424004-2.2512-2.4527994l-2.352-2.0496q-1.7472-1.4784-2.72159-3.1248-0.9408-1.68-0.9408-3.9648 0-3.4272 2.01599-5.2752 2.0496-1.848 5.6112-1.848 3.864 0 5.2416 2.2512 1.4112 2.2512 1.512 5.4768l-5.1744 0.6384q-0.0672-2.1168-0.4032-3.024-0.3024-0.9408-1.3776-0.9408-0.7728 0-1.2096 0.672-0.4032 0.6384-0.4032 1.4448 0 1.3776 0.6048 2.3184 0.6384 0.9408 2.016 2.1504l2.2512 1.9824q2.016 1.7136 3.1248 3.628799 1.1088 1.9152004 1.1088 4.5360003 0 1.9151999-0.9072 3.4943998-0.8736 1.5456-2.4864 2.45279992-1.6128 0.90719996-3.7296 0.90719996z"/><path d="m248.05408-22.747199h-4.0992v-4.4688h14.2128v4.4688h-4.0656v22.747199h-6.048z"/><path d="m272.07963 0.40319998q-4.4016 0-6.2832-2.25119988-1.8816-2.2847999-1.8816-6.7199997v-10.1135994q0-4.4352 1.8816-6.6528 1.8816-2.2512 6.2832-2.2512 4.4352 0 6.3168 2.2512 1.9152 2.2512 1.9152 6.6528v10.1135994q0 4.4351998-1.9152 6.7199997-1.8816 2.25119988-6.3168 2.25119988zm0-4.26719978q1.2768 0 1.68-0.84 0.4032-0.8735999 0.4032-2.3519999v-13.1039993q0-1.512-0.4032-2.352t-1.68-0.84q-1.2096 0-1.6128 0.8736-0.4032 0.84-0.4032 2.3184v13.1039993q0 1.4784 0.3696 2.3519999 0.3696 0.84 1.6464 0.84zm0.336-32.2559982h5.5776l-4.2336 6.753599h-3.4608z"/><path d="m287.97398-27.215999h7.4928q4.4688 0 6.7536 1.5792t2.2848 5.6112q0 2.7216-0.7056 4.3344t-2.6208 2.52l3.7296 13.171199h-6.216l-2.9904-12.196799h-1.7136v12.196799h-6.0144zm7.6944 11.5584q1.8144 0 2.52-0.9408 0.7392-0.9744 0.7392-2.8896 0-1.848-0.672-2.7552-0.672-0.9408-2.3184-0.9408h-1.9488v7.5264z"/><path d="m312.16755-27.215999h6.0144v27.215999h-6.0144z"/><path d="m334.04271 0.40319998q-4.4352 0-6.3168-2.31839988-1.848-2.3519999-1.848-6.7535997v-9.8111994q0-4.5024 1.848-6.7872 1.848-2.3184 6.3168-2.3184 4.2672 0 6.048 2.0496t1.7808 5.8128v2.352h-5.88v-2.7216q0-1.5792-0.336-2.4192t-1.6128-0.84-1.68 0.9072q-0.4032 0.8736-0.4032 2.4528v12.8015993q0 1.6128 0.4032 2.4863999 0.4368 0.84 1.68 0.84t1.5792-0.84q0.3696-0.8735999 0.3696-2.4863999v-2.8560003h5.88v2.3520003q0 3.8303999-1.7808 5.9807998-1.7808 2.11679988-6.048 2.11679988z"/><path d="m356.95951 0.40319998q-4.40159 0-6.28319-2.25119988-1.8816-2.2847999-1.8816-6.7199997v-10.1135994q0-4.4352 1.8816-6.6528 1.8816-2.2512 6.28319-2.2512 4.4352 0 6.3168 2.2512 1.9152 2.2512 1.9152 6.6528v10.1135994q0 4.4351998-1.9152 6.7199997-1.8816 2.25119988-6.3168 2.25119988zm0-4.26719978q1.2768 0 1.68-0.84 0.4032-0.8735999 0.4032-2.3519999v-13.1039993q0-1.512-0.4032-2.352t-1.68-0.84q-1.20959 0-1.61279 0.8736-0.4032 0.84-0.4032 2.3184v13.1039993q0 1.4784 0.3696 2.3519999 0.3696 0.84 1.64639 0.84z"/></g></g></g><path d="m16589 46099h329112v136656h-329112z" fill-opacity="0"/><g fill="#ed4e38" stroke-width="381"><g aria-label="Primeira Revolução Industrial;"><path d="m39577.016 52006.022-731.52-100.584v-393.192h1106.424q201.168 0 393.192-9.144 201.168-18.288 292.608-18.288 475.488-36.576 914.4-36.576 1289.304 0 1819.656 484.632 539.496 475.488 539.496 1435.608 0 722.376-347.472 1252.728t-941.832 813.816q-594.36 274.32-1325.88 274.32-292.608 0-603.504-9.144-301.752-18.288-365.76-27.432v2148.84l1271.016 91.44v393.192h-2807.208v-393.192l786.384-82.296zm749.808 3218.688q228.6 36.576 987.552 36.576 786.384 0 1289.304-438.912 502.92-448.056 502.92-1453.896 0-795.528-429.768-1133.856-429.768-347.472-1353.312-347.472-283.464 0-630.936 36.576-274.32 18.288-365.76 18.288z"/><path d="m44615.349 57922.19 731.52-54.864v-4032.504l-704.088-155.448v-411.48l1161.288-146.304h18.288l173.736 146.304v146.304l-18.288 694.944h18.288q18.288-18.288 237.744-274.32 228.6-265.176 667.512-502.92 448.056-237.744 896.112-237.744 146.304 0 274.32 36.576v804.672q-36.576-27.432-164.592-54.864-118.872-27.432-256.032-27.432-521.208 0-886.968 155.448t-676.656 384.048v3465.576l1216.152 73.152v374.904h-2688.336z"/><path d="m49763.411 52271.198q-493.776 0-493.776-521.208 0-265.176 155.448-429.768 155.448-173.736 420.624-173.736 274.32 0 393.192 155.448 118.872 146.304 118.872 365.76 0 283.464-155.448 448.056-146.304 155.448-429.768 155.448zm-292.608 1563.624-713.232-155.448v-411.48l1252.728-146.304h18.288l182.88 146.304v4581.144l795.528 64.008v393.192h-2340.864v-393.192l804.672-73.152z"/><path d="m51647.069 57913.046 585.216-73.152v-4005.072l-704.088-155.448v-411.48l1161.288-146.304 201.168 146.304v402.336l-9.144 228.6q338.328-292.608 886.968-539.496t996.696-246.888q493.776 0 786.384 164.592 301.752 164.592 457.2 512.064 283.464-237.744 822.96-457.2 548.64-219.456 1005.84-219.456 576.072 0 886.968 219.456 320.04 219.456 448.056 676.656t128.016 1234.44v2596.896l694.944 73.152v393.192h-2048.256v-393.192l621.792-73.152v-2569.464q0-576.072-82.296-914.4t-320.04-512.064-694.944-173.736q-338.328 0-713.232 155.448-365.76 146.304-630.936 338.328 91.44 420.624 91.44 1097.28v2578.608l694.944 73.152v393.192h-2093.976v-393.192l658.368-73.152v-2587.752q0-585.216-73.152-914.4-64.008-329.184-283.464-493.776t-649.224-164.592q-356.616 0-777.24 182.88-411.48 173.736-722.376 420.624v3557.016l649.224 73.152v393.192h-1975.104z"/><path d="m62875.896 58406.822q-1060.704 0-1636.776-722.376-566.928-731.52-566.928-1938.528 0-777.24 301.752-1380.744t832.104-932.688q539.496-338.328 1207.008-338.328 813.816 0 1261.872 466.344 457.2 466.344 493.776 1344.168 0 566.928-54.864 804.672h-3255.264q0 960.12 429.768 1572.768 438.912 603.504 1225.296 603.504 384.048 0 786.384-137.16t621.792-329.184l146.304 338.328q-265.176 274.32-777.24 466.344-502.92 182.88-1014.984 182.88zm1069.848-3127.248q27.432-192.024 27.432-402.336-9.144-603.504-292.608-960.12-274.32-356.616-850.392-356.616-1252.728 0-1362.456 1719.072z"/><path d="m66661.502 52271.198q-493.776 0-493.776-521.208 0-265.176 155.448-429.768 155.448-173.736 420.624-173.736 274.32 0 393.192 155.448 118.872 146.304 118.872 365.76 0 283.464-155.448 448.056-146.304 155.448-429.768 155.448zm-292.608 1563.624-713.232-155.448v-411.48l1252.728-146.304h18.288l182.88 146.304v4581.144l795.528 64.008v393.192h-2340.864v-393.192l804.672-73.152z"/><path d="m68590.88 57922.19 731.52-54.864v-4032.504l-704.088-155.448v-411.48l1161.288-146.304h18.288l173.736 146.304v146.304l-18.288 694.944h18.288q18.288-18.288 237.744-274.32 228.6-265.176 667.512-502.92 448.056-237.744 896.112-237.744 146.304 0 274.32 36.576v804.672q-36.576-27.432-164.592-54.864-118.872-27.432-256.032-27.432-521.208 0-886.968 155.448t-676.656 384.048v3465.576l1216.152 73.152v374.904h-2688.336z"/><path d="m72723.957 56971.214q0-886.968 877.824-1280.16 877.824-402.336 2185.416-429.768v-283.464q0-466.344-100.584-731.52-91.44-274.32-329.184-393.192-237.744-128.016-667.512-128.016-466.344 0-850.392 146.304-374.904 137.16-731.52 338.328l-201.168-402.336q100.584-91.44 420.624-256.032t731.52-292.608 795.528-128.016q621.792 0 978.408 173.736 365.76 173.736 521.208 557.784 164.592 384.048 164.592 1033.272v3017.52h566.928v338.328q-502.92 137.16-850.392 137.16-219.456 0-301.752-73.152-82.296-64.008-82.296-310.896v-338.328q-329.184 292.608-722.376 521.208-384.048 219.456-877.824 219.456-658.368 0-1097.28-365.76-429.768-365.76-429.768-1069.848zm1801.368 896.112q256.032 0 612.648-164.592t649.224-393.192v-1618.488q-1106.424 9.144-1682.496 329.184-566.928 320.04-566.928 859.536 0 521.208 265.176 758.952 265.176 228.6 722.376 228.6z"/><path d="m79975.137 57913.046 786.384-82.296v-5833.872l-731.52-109.728v-374.904h1115.568q246.888 0 704.088-36.576 438.912-36.576 649.224-36.576 1307.592 0 1865.377 438.912 557.783 438.912 557.783 1353.312 0 667.512-374.904 1207.008-365.76 539.496-996.696 722.376 237.745 155.448 475.488 521.208 246.888 356.616 603.504 996.696 310.896 557.784 493.776 841.248 192.024 274.32 338.329 301.752l384.047 100.584v384.048h-1069.848q-146.304 0-338.328-310.896t-539.496-1005.84q-374.904-758.952-621.792-1161.288-237.744-402.336-475.488-539.496-1115.568 0-1289.303-9.144v2551.176l941.831 82.296v393.192h-2478.024zm2770.632-3072.384q630.936 0 996.697-393.192 365.759-393.192 365.759-1152.144 0-667.512-374.903-1033.272-374.905-374.904-1307.593-374.904-320.039 0-630.936 36.576-219.456 18.288-283.463 18.288v2889.504q164.591 9.144 658.367 9.144z"/><path d="m88488.191 58406.822q-1060.704 0-1636.776-722.376-566.928-731.52-566.928-1938.528 0-777.24 301.752-1380.744t832.104-932.688q539.496-338.328 1207.008-338.328 813.816 0 1261.872 466.344 457.2 466.344 493.776 1344.168 0 566.928-54.864 804.672h-3255.264q0 960.12 429.768 1572.768 438.912 603.504 1225.296 603.504 384.048 0 786.384-137.16t621.792-329.184l146.304 338.328q-265.176 274.32-777.24 466.344-502.92 182.88-1014.984 182.88zm1069.848-3127.248q27.432-192.024 27.432-402.336-9.144-603.504-292.608-960.12-274.32-356.616-850.392-356.616-1252.728 0-1362.456 1719.072z"/><path d="m90810.761 53231.318h1938.528v374.904l-676.656 118.872 978.408 2715.768 448.056 1298.448 384.048-1252.728 978.408-2761.488-640.08-118.872v-374.904h1746.504v374.904l-466.344 118.872-1801.368 4654.296h-612.648l-1847.088-4654.296-429.768-118.872z"/><path d="m96379.457 55736.774q0-795.528 329.184-1399.032 338.328-603.504 877.824-923.544 548.64-320.04 1143-320.04 1152.144 0 1700.785 749.808 557.78 749.808 557.78 1920.24 0 795.528-338.33 1399.032-329.18 603.504-877.819 923.544-539.496 320.04-1133.856 320.04-1152.144 0-1709.928-749.808-548.64-749.808-548.64-1920.24zm2304.288 2194.56q704.088 0 1088.136-539.496 384.049-539.496 384.049-1572.768 0-987.552-356.617-1618.488-356.616-630.936-1106.424-630.936-704.088 0-1097.28 539.496-384.048 539.496-384.048 1572.768 0 996.696 356.616 1627.632 365.76 621.792 1115.568 621.792z"/><path d="m102569.94 51393.374-777.24-82.296v-338.328l1335.02-155.448h9.14l173.74 118.872v6912.864l859.54 64.008v393.192h-2404.88v-393.192l804.68-73.152z"/><path d="m109016.45 58388.534q-237.75 0-347.47-82.296-109.73-82.296-109.73-301.752v-356.616q-338.33 301.752-795.53 530.352t-914.4 228.6q-832.1 0-1188.72-466.344-347.47-466.344-347.47-1517.904v-2688.336l-539.5-155.448v-338.328l1106.43-118.872h9.14l164.59 109.728v3081.528q0 576.072 82.3 905.256 82.29 320.04 301.75 475.488t640.08 155.448q402.34 0 768.1-173.736t630.93-411.48v-3529.584l-694.94-155.448v-338.328l1216.15-118.872h9.14l210.32 109.728v4672.584h566.92l-9.14 347.472q-45.72 9.144-265.18 73.152-219.45 64.008-493.77 64.008z"/><path d="m110470.33 55800.782q0-740.664 283.46-1353.312 292.61-621.792 859.54-987.552 576.07-365.76 1399.03-365.76 356.61 0 694.94 91.44 338.33 82.296 585.22 182.88l-36.58 1307.592h-457.2l-192.02-877.824q-54.87-274.32-786.39-274.32-713.23 0-1143 548.64-420.62 548.64-420.62 1499.616 0 1133.856 457.2 1719.072t1188.72 585.216q384.05 0 740.66-128.016 365.76-128.016 603.51-292.608l146.3 301.752q-256.03 256.032-713.23 448.056t-905.26 201.168q182.88 219.456 329.19 521.208 146.3 310.896 146.3 621.792 0 484.632-283.46 694.944-283.47 210.312-832.11 210.312-155.44 0-338.32-36.576t-310.9-82.296l9.14-539.496q91.44 27.432 210.32 45.72 128.01 27.432 210.31 27.432 365.76 0 530.35-128.016t164.59-521.208q0-219.456-82.29-448.056-82.3-228.6-182.88-393.192-896.12-137.16-1389.89-841.248-484.63-713.232-484.63-1737.36z"/><path d="m115280.05 56971.214q0-886.968 877.83-1280.16 877.82-402.336 2185.41-429.768v-283.464q0-466.344-100.58-731.52-91.44-274.32-329.18-393.192-237.75-128.016-667.52-128.016-466.34 0-850.39 146.304-374.9 137.16-731.52 338.328l-201.17-402.336q100.59-91.44 420.63-256.032t731.52-292.608 795.53-128.016q621.79 0 978.4 173.736 365.76 173.736 521.21 557.784 164.59 384.048 164.59 1033.272v3017.52h566.93v338.328q-502.92 137.16-850.39 137.16-219.46 0-301.75-73.152-82.3-64.008-82.3-310.896v-338.328q-329.18 292.608-722.37 521.208-384.05 219.456-877.83 219.456-658.37 0-1097.28-365.76-429.77-365.76-429.77-1069.848zm1801.37 896.112q256.03 0 612.65-164.592t649.22-393.192v-1618.488q-1106.42 9.144-1682.49 329.184-566.93 320.04-566.93 859.536 0 521.208 265.18 758.952 265.17 228.6 722.37 228.6zm-1490.47-5952.744q91.44-365.76 347.47-630.936 265.18-274.32 704.09-274.32 274.32 0 457.2 109.728t420.62 329.184q155.45 155.448 265.18 228.6t237.74 73.152q256.04 0 402.34-192.024t173.74-374.904l420.62 192.024q-283.46 923.544-1033.27 923.544-265.18 0-448.06-109.728-173.73-109.728-393.19-320.04-173.74-164.592-283.46-237.744-109.73-73.152-246.89-73.152-256.03 0-384.05 146.304-128.02 137.16-192.02 265.176-54.87 128.016-73.16 155.448z"/><path d="m120318.39 55736.774q0-795.528 329.19-1399.032 338.33-603.504 877.82-923.544 548.64-320.04 1143-320.04 1152.15 0 1700.79 749.808 557.78 749.808 557.78 1920.24 0 795.528-338.33 1399.032-329.18 603.504-877.82 923.544-539.5 320.04-1133.86 320.04-1152.14 0-1709.93-749.808-548.64-749.808-548.64-1920.24zm2304.29 2194.56q704.09 0 1088.14-539.496t384.05-1572.768q0-987.552-356.62-1618.488t-1106.42-630.936q-704.09 0-1097.28 539.496-384.05 539.496-384.05 1572.768 0 996.696 356.61 1627.632 365.76 621.792 1115.57 621.792z"/><path d="m128950.32 52006.022-886.97-100.584v-393.192h2532.89v393.192l-886.97 100.584v5824.728l886.97 91.44v384.048h-2532.89v-393.192l886.97-82.296z"/><path d="m132132.43 53834.822-704.09-155.448v-411.48l1161.29-146.304h27.43l173.74 146.304v402.336l-9.15 228.6q338.33-292.608 896.11-539.496 557.79-246.888 1033.28-246.888 585.21 0 896.11 228.6 320.04 219.456 438.91 685.8 128.02 457.2 128.02 1234.44v2587.752l685.8 64.008v393.192h-2039.12v-393.192l612.65-64.008v-2596.896q0-576.072-82.3-905.256-73.15-329.184-301.75-493.776-219.45-173.736-649.22-173.736-365.76 0-795.53 182.88-420.62 182.88-731.52 429.768v3547.872l667.51 73.152v393.192h-2020.82v-393.192l612.65-73.152z"/><path d="m139539.07 58406.822q-539.5 0-996.7-274.32-457.2-283.464-731.52-850.392t-274.32-1389.888q0-786.384 320.04-1417.32 320.04-640.08 905.26-1005.84 594.36-374.904 1380.74-374.904 502.92 0 969.26 109.728v-1810.512l-950.97-91.44v-329.184l1499.61-155.448h18.29l173.74 128.016v6949.44h557.78v356.616q-45.72 9.144-310.89 73.152-265.18 64.008-566.93 64.008-210.31 0-301.75-73.152-82.3-73.152-82.3-320.04v-320.04q-283.46 310.896-694.94 521.208-402.34 210.312-914.4 210.312zm301.75-576.072q393.19 0 740.66-182.88 356.62-192.024 530.35-420.624v-3364.992q-73.15-128.016-384.04-219.456-301.76-91.44-649.23-91.44-786.38 0-1261.87 566.928-475.49 557.784-475.49 1700.784 0 1024.128 420.63 1517.904 420.62 493.776 1078.99 493.776z"/><path d="m147366.31 58388.534q-237.74 0-347.47-82.296t-109.73-301.752v-356.616q-338.32 301.752-795.52 530.352t-914.4 228.6q-832.11 0-1188.72-466.344-347.48-466.344-347.48-1517.904v-2688.336l-539.49-155.448v-338.328l1106.42-118.872h9.15l164.59 109.728v3081.528q0 576.072 82.29 905.256 82.3 320.04 301.76 475.488 219.45 155.448 640.08 155.448 402.33 0 768.09-173.736t630.94-411.48v-3529.584l-694.95-155.448v-338.328l1216.16-118.872h9.14l210.31 109.728v4672.584h566.93l-9.14 347.472q-45.72 9.144-265.18 73.152t-493.78 64.008z"/><path d="m149670.58 57583.862q100.59 155.448 420.63 274.32t685.8 118.872q1115.57 0 1115.57-822.96 0-374.904-310.9-603.504-310.9-237.744-1060.7-521.208-740.67-265.176-1079-630.936-338.32-365.76-338.32-978.408 0-393.192 237.74-685.8 246.89-292.608 649.22-448.056 411.48-164.592 886.97-164.592 466.35 0 777.24 82.296 320.04 82.296 630.94 201.168v1088.136h-448.06l-164.59-667.512q-64.01-118.872-329.18-201.168-256.04-82.296-566.93-82.296-438.91 0-713.23 201.168-274.32 192.024-274.32 521.208 0 292.608 137.16 484.632t338.32 310.896q201.17 109.728 557.79 256.032l173.73 73.152q521.21 201.168 841.25 384.048 320.04 173.736 530.35 466.344 210.32 283.464 210.32 713.232 0 676.656-521.21 1069.848-512.07 384.048-1371.6 384.048-393.19 0-896.11-128.016t-749.81-256.032v-1152.144h493.77z"/><path d="m155038.1 58406.822q-484.64 0-731.52-219.456-246.89-228.6-246.89-804.672v-3611.88h-694.95v-356.616q457.2-100.584 530.36-146.304 137.16-73.152 201.16-283.464 54.87-137.16 146.31-493.776t137.16-557.784h420.62v1298.448h1618.49v539.496h-1618.49v2962.656q0 530.352 36.58 749.808 36.57 210.312 146.3 274.32t384.05 64.008q265.18 0 594.36-73.152t493.78-155.448l118.87 347.472q-210.31 164.592-694.95 320.04-484.63 146.304-841.24 146.304z"/><path d="m157205.21 57922.19 731.52-54.864v-4032.504l-704.09-155.448v-411.48l1161.29-146.304h18.29l173.74 146.304v146.304l-18.29 694.944h18.29q18.28-18.288 237.74-274.32 228.6-265.176 667.51-502.92 448.06-237.744 896.11-237.744 146.31 0 274.32 36.576v804.672q-36.57-27.432-164.59-54.864-118.87-27.432-256.03-27.432-521.21 0-886.97 155.448t-676.65 384.048v3465.576l1216.15 73.152v374.904h-2688.34z"/><path d="m162353.27 52271.198q-493.77 0-493.77-521.208 0-265.176 155.45-429.768 155.44-173.736 420.62-173.736 274.32 0 393.19 155.448 118.87 146.304 118.87 365.76 0 283.464-155.44 448.056-146.31 155.448-429.77 155.448zm-292.6 1563.624-713.24-155.448v-411.48l1252.73-146.304h18.29l182.88 146.304v4581.144l795.53 64.008v393.192h-2340.87v-393.192l804.68-73.152z"/><path d="m164300.94 56971.214q0-886.968 877.82-1280.16 877.83-402.336 2185.42-429.768v-283.464q0-466.344-100.59-731.52-91.44-274.32-329.18-393.192-237.74-128.016-667.51-128.016-466.35 0-850.39 146.304-374.91 137.16-731.52 338.328l-201.17-402.336q100.58-91.44 420.62-256.032t731.52-292.608 795.53-128.016q621.79 0 978.41 173.736 365.76 173.736 521.21 557.784 164.59 384.048 164.59 1033.272v3017.52h566.93v338.328q-502.92 137.16-850.4 137.16-219.45 0-301.75-73.152-82.29-64.008-82.29-310.896v-338.328q-329.19 292.608-722.38 521.208-384.05 219.456-877.82 219.456-658.37 0-1097.28-365.76-429.77-365.76-429.77-1069.848zm1801.37 896.112q256.03 0 612.64-164.592 356.62-164.592 649.23-393.192v-1618.488q-1106.43 9.144-1682.5 329.184-566.93 320.04-566.93 859.536 0 521.208 265.18 758.952 265.18 228.6 722.38 228.6z"/><path d="m170089.08 51393.374-777.24-82.296v-338.328l1335.03-155.448h9.14l173.74 118.872v6912.864l859.53 64.008v393.192h-2404.87v-393.192l804.67-73.152z"/><path d="m173481.49 54602.918q-210.31 0-356.61-137.16-146.31-146.304-146.31-374.904 0-256.032 173.74-429.768 182.88-173.736 420.62-173.736 246.89 0 365.76 146.304 128.02 146.304 128.02 365.76 0 256.032-173.74 429.768-173.73 173.736-411.48 173.736zm27.43 2432.304q292.61 0 466.35 274.32 173.73 274.32 173.73 777.24t-146.3 950.976-374.9 768.096-457.2 457.2h-9.15l-265.17-182.88v-82.296q109.72-82.296 237.74-338.328 137.16-246.888 228.6-576.072 100.58-329.184 100.58-640.08 0-137.16-54.86-219.456-45.72-82.296-146.3-192.024-118.88-118.872-182.88-228.6-54.87-109.728-54.87-301.752 0-210.312 128.02-338.328 137.16-128.016 320.04-128.016z"/></g><g aria-label="Princípio de igualdade."><path d="m39577.016 68465.221-731.52-100.584v-393.192h1106.424q201.168 0 393.192-9.144 201.168-18.288 292.608-18.288 475.488-36.576 914.4-36.576 1289.304 0 1819.656 484.632 539.496 475.488 539.496 1435.608 0 722.376-347.472 1252.728-347.472 530.353-941.832 813.816-594.36 274.321-1325.88 274.321-292.608 0-603.504-9.144-301.752-18.288-365.76-27.432v2148.839l1271.016 91.44v393.192h-2807.208v-393.192l786.384-82.296zm749.808 3218.688q228.6 36.576 987.552 36.576 786.384 0 1289.304-438.912 502.92-448.056 502.92-1453.896 0-795.528-429.768-1133.855-429.768-347.473-1353.312-347.473-283.464 0-630.936 36.576-274.32 18.288-365.76 18.288z"/><path d="m44688.513 74381.389 731.52-54.864v-4032.504l-704.088-155.448v-411.48l1161.288-146.304h18.288l173.736 146.304v146.305l-18.288 694.943h18.288q18.288-18.288 237.744-274.32 228.6-265.176 667.512-502.92 448.056-237.744 896.112-237.744 146.304 0 274.32 36.576v804.672q-36.576-27.432-164.592-54.864-118.872-27.432-256.032-27.432-521.208 0-886.968 155.449-365.76 155.447-676.656 384.047v3465.576l1216.152 73.152v374.904h-2688.336z"/><path d="m49909.738 68730.398q-493.776 0-493.776-521.208 0-265.177 155.448-429.769 155.448-173.736 420.624-173.736 274.32 0 393.192 155.448 118.872 146.304 118.872 365.761 0 283.463-155.448 448.055-146.304 155.449-429.768 155.449zm-292.608 1563.623-713.232-155.448v-411.48l1252.728-146.304h18.288l182.88 146.304v4581.144l795.528 64.008v393.192h-2340.864v-393.192l804.672-73.152z"/><path d="m52460.915 70294.021-704.088-155.448v-411.48l1161.288-146.304h27.432l173.736 146.304v402.336l-9.144 228.6q338.328-292.608 896.112-539.496t1033.272-246.888q585.216 0 896.112 228.6 320.04 219.456 438.912 685.801 128.016 457.199 128.016 1234.439v2587.752l685.8 64.008v393.192h-2039.112v-393.192l612.648-64.008v-2596.896q0-576.072-82.296-905.256-73.152-329.183-301.752-493.776-219.456-173.736-649.224-173.736-365.76 0-795.528 182.88-420.624 182.88-731.52 429.768v3547.872l667.512 73.152v393.192h-2020.824v-393.192l612.648-73.152z"/><path d="m57855.873 72259.981q0-740.664 283.464-1353.312 292.608-621.792 859.536-987.552 576.072-365.76 1399.032-365.76 356.616 0 694.944 91.44 338.328 82.296 585.216 182.88l-36.576 1307.592h-457.2l-192.024-877.824q-54.864-274.32-786.384-274.32-713.232 0-1143 548.64-420.624 548.64-420.624 1499.616 0 1133.856 457.2 1719.072t1188.72 585.216q384.048 0 740.664-128.016 365.76-128.016 603.504-292.608l146.304 301.752q-265.176 265.176-731.52 457.2t-923.544 192.024q-722.376 0-1234.44-338.328-512.064-347.472-777.24-932.688-256.032-594.36-256.032-1335.024z"/><path d="m63424.568 70294.021-713.232-155.448v-411.48l1252.728-146.304h18.288l182.88 146.304v4581.144l795.528 64.008v393.192h-2340.864v-393.192l804.672-73.152zm-329.184-1801.368 1417.32-1764.792 621.792 502.92q-182.88 274.32-813.816 822.96-621.792 539.496-941.832 685.8z"/><path d="m70566.033 72040.525q0 786.384-320.04 1435.608-320.04 640.08-914.4 1014.984-585.216 374.904-1344.168 374.904-256.032 0-539.496-45.72-283.464-36.576-466.344-100.584l18.288 777.24v987.552l1014.984 91.44v402.336h-2450.592v-402.336l704.088-91.44v-6190.488l-713.232-155.448v-411.48l1170.432-146.304h18.288l164.592 146.304v557.784q292.608-301.752 713.232-512.064 420.624-219.456 941.832-219.456 530.352 0 987.552 265.176t731.52 822.96q283.464 557.784 283.464 1399.032zm-2304.288-1929.384q-393.192 0-731.52 164.592-338.328 164.593-530.352 365.76v3483.864q73.152 118.872 365.76 219.456 301.752 91.441 658.368 91.441 786.384 0 1261.872-576.072 484.632-585.216 484.632-1719.072 0-1014.985-429.768-1517.905-420.624-512.064-1078.992-512.064z"/><path d="m72504.562 68730.398q-493.776 0-493.776-521.208 0-265.177 155.448-429.769 155.448-173.736 420.624-173.736 274.32 0 393.192 155.448 118.872 146.304 118.872 365.761 0 283.463-155.448 448.055-146.304 155.449-429.768 155.449zm-292.608 1563.623-713.232-155.448v-411.48l1252.728-146.304h18.288l182.88 146.304v4581.144l795.528 64.008v393.192h-2340.864v-393.192l804.672-73.152z"/><path d="m74479.667 72195.973q0-795.528 329.184-1399.032 338.328-603.504 877.824-923.543 548.64-320.041 1143-320.041 1152.144 0 1700.784 749.808 557.784 749.808 557.784 1920.24 0 795.528-338.328 1399.032-329.184 603.504-877.824 923.544-539.496 320.04-1133.856 320.04-1152.144 0-1709.928-749.808-548.64-749.808-548.64-1920.24zm2304.288 2194.56q704.088 0 1088.136-539.495 384.048-539.496 384.048-1572.769 0-987.552-356.616-1618.488t-1106.424-630.936q-704.088 0-1097.28 539.496-384.048 539.496-384.048 1572.769 0 996.695 356.616 1627.631 365.761 621.792 1115.568 621.792z"/><path d="m84218.027 74866.021q-539.496 0-996.696-274.32-457.2-283.464-731.52-850.392t-274.32-1389.888q0-786.383 320.04-1417.32 320.04-640.08 905.256-1005.84 594.36-374.904 1380.744-374.904 502.92 0 969.264 109.728v-1810.512l-950.976-91.44v-329.184l1499.616-155.448h18.288l173.736 128.016v6949.44h557.784v356.616q-45.72 9.144-310.896 73.152t-566.928 64.008q-210.312 0-301.752-73.152-82.296-73.152-82.296-320.039v-320.041q-283.464 310.897-694.944 521.208-402.336 210.312-914.4 210.312zm301.752-576.072q393.192 0 740.664-182.88 356.616-192.024 530.352-420.624v-3364.992q-73.152-128.016-384.048-219.456-301.752-91.44-649.224-91.44-786.384 0-1261.872 566.928-475.488 557.784-475.488 1700.784 0 1024.129 420.624 1517.904 420.624 493.776 1078.992 493.776z"/><path d="m90106.761 74866.021q-1060.704 0-1636.776-722.376-566.928-731.52-566.928-1938.528 0-777.24 301.752-1380.744t832.104-932.688q539.496-338.328 1207.008-338.328 813.816 0 1261.872 466.344 457.2 466.345 493.776 1344.168 0 566.928-54.864 804.673h-3255.264q0 960.119 429.768 1572.767 438.912 603.504 1225.296 603.504 384.048 0 786.384-137.16t621.792-329.183l146.304 338.327q-265.176 274.32-777.24 466.344-502.92 182.88-1014.984 182.88zm1069.848-3127.248q27.432-192.023 27.432-402.336-9.144-603.504-292.608-960.12-274.32-356.616-850.392-356.616-1252.728 0-1362.456 1719.072z"/><path d="m96096.086 68730.398q-493.776 0-493.776-521.208 0-265.177 155.448-429.769 155.448-173.736 420.624-173.736 274.32 0 393.192 155.448 118.872 146.304 118.872 365.761 0 283.463-155.448 448.055-146.304 155.449-429.768 155.449zm-292.608 1563.623-713.232-155.448v-411.48l1252.728-146.304h18.288l182.88 146.304v4581.144l795.528 64.008v393.192h-2340.864v-393.192l804.672-73.152z"/><path d="m100238.31 77234.317q-2157.983 0-2157.983-1371.6 0-411.48 246.888-749.808 256.032-338.328 603.504-530.352-429.768-228.6-429.768-758.952 0-338.328 192.024-630.936 192.024-301.752 493.776-457.199-429.768-201.169-676.656-566.928-237.744-374.905-237.744-868.681 0-530.352 292.608-923.544 292.608-402.336 758.952-612.648 475.488-210.312 987.549-210.312 850.4 0 1362.46 374.904 137.16-128.016 420.62-246.888 292.61-128.016 621.8-128.016h301.75v676.656h-1042.42q265.18 365.76 265.18 886.968 0 539.496-274.32 960.12-274.32 411.48-740.67 640.081-457.2 228.599-1014.98 228.599-374.905 0-685.801-82.296-164.592 128.016-265.176 301.752-91.44 164.593-91.44 338.328 0 347.473 219.456 484.632 228.6 137.16 786.381 137.16h1079q850.39 0 1252.72 329.185 411.48 329.183 411.48 923.543 0 493.776-356.61 914.4-356.62 429.769-978.41 685.8-612.65 256.032-1344.17 256.032zm64.01-4736.592q1161.29 0 1161.29-1280.16 0-1216.152-1207.01-1216.152-1207.009 0-1207.009 1197.864 0 576.072 310.896 941.833 310.896 356.615 941.833 356.615zm-18.29 4270.248q493.78 0 941.83-146.304 448.06-137.16 722.38-411.48 274.32-265.176 274.32-621.791 0-283.465-91.44-457.201-82.3-173.736-338.33-274.32-246.89-91.44-722.37-91.44h-1133.861q-438.912 0-667.512-54.864-448.056 429.768-448.056 1005.84 0 521.208 329.184 786.384t1133.855 265.176z"/><path d="m107809.55 74847.733q-237.74 0-347.47-82.296t-109.73-301.751v-356.617q-338.33 301.753-795.53 530.352-457.2 228.6-914.4 228.6-832.1 0-1188.72-466.344-347.47-466.344-347.47-1517.904v-2688.336l-539.5-155.448v-338.328l1106.43-118.872h9.14l164.59 109.728v3081.528q0 576.072 82.3 905.256 82.3 320.04 301.75 475.488 219.46 155.448 640.08 155.448 402.34 0 768.1-173.736t630.93-411.48v-3529.584l-694.94-155.448v-338.328l1216.15-118.872h9.15l210.31 109.728v4672.584h566.93l-9.15 347.472q-45.72 9.144-265.17 73.152-219.46 64.008-493.78 64.008z"/><path d="m109455.46 73430.413q0-886.968 877.83-1280.159 877.82-402.337 2185.41-429.769v-283.464q0-466.344-100.58-731.52-91.44-274.319-329.19-393.192-237.74-128.016-667.51-128.016-466.34 0-850.39 146.304-374.9 137.161-731.52 338.328l-201.17-402.336q100.59-91.44 420.63-256.032 320.04-164.591 731.52-292.608 411.48-128.016 795.52-128.016 621.8 0 978.41 173.736 365.76 173.736 521.21 557.784 164.59 384.048 164.59 1033.272v3017.52h566.93v338.328q-502.92 137.16-850.39 137.16-219.46 0-301.75-73.152-82.3-64.008-82.3-310.895v-338.329q-329.18 292.609-722.38 521.208-384.04 219.456-877.82 219.456-658.37 0-1097.28-365.76-429.77-365.76-429.77-1069.848zm1801.37 896.112q256.03 0 612.65-164.592 356.61-164.592 649.22-393.192v-1618.487q-1106.42 9.144-1682.49 329.183-566.93 320.04-566.93 859.536 0 521.209 265.17 758.952 265.18 228.6 722.38 228.6z"/><path d="m115280.19 67852.573-777.24-82.296v-338.328l1335.03-155.448h9.14l173.74 118.872v6912.864l859.53 64.008v393.192h-2404.87v-393.192l804.67-73.152z"/><path d="m119587.02 74866.021q-539.5 0-996.7-274.32-457.2-283.464-731.52-850.392t-274.32-1389.888q0-786.383 320.04-1417.32 320.04-640.08 905.26-1005.84 594.36-374.904 1380.74-374.904 502.92 0 969.27 109.728v-1810.512l-950.98-91.44v-329.184l1499.62-155.448h18.29l173.73 128.016v6949.44h557.79v356.616q-45.72 9.144-310.9 73.152t-566.93 64.008q-210.31 0-301.75-73.152-82.3-73.152-82.3-320.039v-320.041q-283.46 310.897-694.94 521.208-402.34 210.312-914.4 210.312zm301.75-576.072q393.19 0 740.67-182.88 356.61-192.024 530.35-420.624v-3364.992q-73.15-128.016-384.05-219.456-301.75-91.44-649.22-91.44-786.39 0-1261.88 566.928-475.48 557.784-475.48 1700.784 0 1024.129 420.62 1517.904 420.62 493.776 1078.99 493.776z"/><path d="m123308.63 73430.413q0-886.968 877.82-1280.159 877.82-402.337 2185.42-429.769v-283.464q0-466.344-100.59-731.52-91.44-274.319-329.18-393.192-237.75-128.016-667.51-128.016-466.35 0-850.4 146.304-374.9 137.161-731.52 338.328l-201.16-402.336q100.58-91.44 420.62-256.032 320.04-164.591 731.52-292.608 411.48-128.016 795.53-128.016 621.79 0 978.41 173.736 365.76 173.736 521.2 557.784 164.6 384.048 164.6 1033.272v3017.52h566.92v338.328q-502.92 137.16-850.39 137.16-219.45 0-301.75-73.152-82.3-64.008-82.3-310.895v-338.329q-329.18 292.609-722.37 521.208-384.05 219.456-877.83 219.456-658.36 0-1097.28-365.76-429.76-365.76-429.76-1069.848zm1801.36 896.112q256.04 0 612.65-164.592 356.62-164.592 649.23-393.192v-1618.487q-1106.43 9.144-1682.5 329.183-566.93 320.04-566.93 859.536 0 521.209 265.18 758.952 265.17 228.6 722.37 228.6z"/><path d="m130395.22 74866.021q-539.49 0-996.69-274.32-457.2-283.464-731.52-850.392t-274.32-1389.888q0-786.383 320.04-1417.32 320.04-640.08 905.25-1005.84 594.36-374.904 1380.75-374.904 502.92 0 969.26 109.728v-1810.512l-950.98-91.44v-329.184l1499.62-155.448h18.29l173.73 128.016v6949.44h557.79v356.616q-45.72 9.144-310.9 73.152-265.17 64.008-566.93 64.008-210.31 0-301.75-73.152-82.29-73.152-82.29-320.039v-320.041q-283.47 310.897-694.95 521.208-402.33 210.312-914.4 210.312zm301.75-576.072q393.2 0 740.67-182.88 356.61-192.024 530.35-420.624v-3364.992q-73.15-128.016-384.05-219.456-301.75-91.44-649.22-91.44-786.39 0-1261.87 566.928-475.49 557.784-475.49 1700.784 0 1024.129 420.62 1517.904 420.63 493.776 1078.99 493.776z"/><path d="m136283.96 74866.021q-1060.71 0-1636.78-722.376-566.93-731.52-566.93-1938.528 0-777.24 301.75-1380.744 301.76-603.504 832.11-932.688 539.49-338.328 1207.01-338.328 813.81 0 1261.87 466.344 457.2 466.345 493.77 1344.168 0 566.928-54.86 804.673h-3255.26q0 960.119 429.76 1572.767 438.92 603.504 1225.3 603.504 384.05 0 786.38-137.16 402.34-137.16 621.8-329.183l146.3 338.327q-265.18 274.32-777.24 466.344-502.92 182.88-1014.98 182.88zm1069.84-3127.248q27.44-192.023 27.44-402.336-9.15-603.504-292.61-960.12-274.32-356.616-850.39-356.616-1252.73 0-1362.46 1719.072z"/><path d="m139712.95 74866.021q-210.31 0-356.62-137.16-146.3-146.304-146.3-374.904 0-256.032 173.73-429.768 182.88-173.736 420.63-173.736 246.89 0 365.76 146.305 128.01 146.303 128.01 365.759 0 256.032-173.73 429.768-173.74 173.736-411.48 173.736z"/></g><g aria-label="Contratualistas Jean-Jacques Rousseau (1712 - 1778) e "><path d="m41753.288 91325.225q-978.408 0-1682.496-438.912t-1069.848-1234.44-365.76-1856.232q0-996.696 429.768-1783.08t1170.432-1216.152q740.664-438.912 1655.064-438.912 466.344 0 896.112 73.152 438.912 73.152 704.088 137.16t329.184 82.296l-73.152 1490.472h-475.488l-201.168-1060.704q-137.16-118.872-493.776-201.168t-868.68-82.296q-630.936 0-1133.856 347.472-502.92 338.328-795.528 996.696-283.464 658.368-283.464 1572.768 0 859.536 246.888 1581.912 256.032 722.376 768.096 1161.288 512.064 429.768 1261.872 429.768 521.208 0 813.816-82.296 292.608-91.44 493.776-256.032l365.76-859.536 448.056 64.008-228.6 1225.296q-219.456 9.144-530.352 118.872-329.184 109.728-630.936 164.592-301.752 64.008-749.808 64.008z"/><path d="m44688.511 88655.177q0-795.528 329.184-1399.032 338.328-603.504 877.824-923.544 548.64-320.04 1143-320.04 1152.144 0 1700.784 749.808 557.784 749.808 557.784 1920.24 0 795.528-338.328 1399.032-329.184 603.504-877.824 923.544-539.496 320.04-1133.856 320.04-1152.144 0-1709.928-749.808-548.64-749.808-548.64-1920.24zm2304.288 2194.56q704.088 0 1088.136-539.496t384.048-1572.768q0-987.552-356.616-1618.488t-1106.424-630.936q-704.088 0-1097.28 539.496-384.048 539.496-384.048 1572.768 0 996.696 356.616 1627.632 365.76 621.792 1115.568 621.792z"/><path d="m50824.138 86753.225-704.088-155.448v-411.48l1161.288-146.304h27.432l173.736 146.304v402.336l-9.144 228.6q338.328-292.608 896.112-539.496t1033.272-246.888q585.216 0 896.112 228.6 320.04 219.456 438.912 685.8 128.016 457.2 128.016 1234.44v2587.752l685.8 64.008v393.192h-2039.112v-393.192l612.648-64.008v-2596.896q0-576.072-82.296-905.256-73.152-329.184-301.752-493.776-219.456-173.736-649.224-173.736-365.76 0-795.528 182.88-420.624 182.88-731.52 429.768v3547.872l667.512 73.152v393.192h-2020.824v-393.192l612.648-73.152z"/><path d="m57901.595 91325.225q-484.632 0-731.52-219.456-246.888-228.6-246.888-804.672v-3611.88h-694.944v-356.616q457.2-100.584 530.352-146.304 137.16-73.152 201.168-283.464 54.864-137.16 146.304-493.776t137.16-557.784h420.624v1298.448h1618.488v539.496h-1618.488v2962.656q0 530.352 36.576 749.808 36.576 210.312 146.304 274.32t384.048 64.008q265.176 0 594.36-73.152t493.776-155.448l118.872 347.472q-210.312 164.592-694.944 320.04-484.632 146.304-841.248 146.304z"/><path d="m60077.865 90840.593 731.52-54.864v-4032.504l-704.088-155.448v-411.48l1161.288-146.304h18.288l173.736 146.304v146.304l-18.288 694.944h18.288q18.288-18.288 237.744-274.32 228.6-265.176 667.512-502.92 448.056-237.744 896.112-237.744 146.304 0 274.32 36.576v804.672q-36.576-27.432-164.592-54.864-118.872-27.432-256.032-27.432-521.208 0-886.968 155.448t-676.656 384.048v3465.576l1216.152 73.152v374.904h-2688.336z"/><path d="m64284.106 89889.617q0-886.968 877.824-1280.16 877.824-402.336 2185.416-429.768v-283.464q0-466.344-100.584-731.52-91.44-274.32-329.184-393.192-237.744-128.016-667.512-128.016-466.344 0-850.392 146.304-374.904 137.16-731.52 338.328l-201.168-402.336q100.584-91.44 420.624-256.032t731.52-292.608 795.528-128.016q621.792 0 978.408 173.736 365.76 173.736 521.208 557.784 164.592 384.048 164.592 1033.272v3017.52h566.928v338.328q-502.92 137.16-850.392 137.16-219.456 0-301.752-73.152-82.296-64.008-82.296-310.896v-338.328q-329.184 292.608-722.376 521.208-384.048 219.456-877.824 219.456-658.368 0-1097.28-365.76-429.768-365.76-429.768-1069.848zm1801.368 896.112q256.032 0 612.648-164.592t649.224-393.192v-1618.488q-1106.424 9.144-1682.496 329.184-566.928 320.04-566.928 859.536 0 521.208 265.176 758.952 265.176 228.6 722.376 228.6z"/><path d="m70940.939 91325.225q-484.632 0-731.52-219.456-246.888-228.6-246.888-804.672v-3611.88h-694.944v-356.616q457.2-100.584 530.352-146.304 137.16-73.152 201.168-283.464 54.864-137.16 146.304-493.776t137.16-557.784h420.624v1298.448h1618.488v539.496h-1618.488v2962.656q0 530.352 36.576 749.808 36.576 210.312 146.304 274.32t384.048 64.008q265.176 0 594.36-73.152t493.776-155.448l118.872 347.472q-210.312 164.592-694.944 320.04-484.632 146.304-841.248 146.304z"/><path d="m77268.588 91306.937q-237.744 0-347.472-82.296t-109.728-301.752v-356.616q-338.328 301.752-795.528 530.352t-914.4 228.6q-832.104 0-1188.72-466.344-347.472-466.344-347.472-1517.904v-2688.336l-539.496-155.448v-338.328l1106.424-118.872h9.144l164.592 109.728v3081.528q0 576.072 82.296 905.256 82.296 320.04 301.752 475.488t640.08 155.448q402.336 0 768.096-173.736t630.936-411.48v-3529.584l-694.944-155.448v-338.328l1216.152-118.872h9.144l210.312 109.728v4672.584h566.928l-9.144 347.472q-45.72 9.144-265.176 73.152t-493.776 64.008z"/><path d="m78914.508 89889.617q0-886.968 877.824-1280.16 877.824-402.336 2185.416-429.768v-283.464q0-466.344-100.584-731.52-91.44-274.32-329.184-393.192-237.744-128.016-667.512-128.016-466.344 0-850.392 146.304-374.904 137.16-731.52 338.328l-201.168-402.336q100.584-91.44 420.624-256.032t731.52-292.608 795.528-128.016q621.792 0 978.408 173.736 365.76 173.736 521.208 557.784 164.592 384.048 164.592 1033.272v3017.52h566.928v338.328q-502.92 137.16-850.392 137.16-219.456 0-301.752-73.152-82.296-64.008-82.296-310.896v-338.328q-329.184 292.608-722.376 521.208-384.048 219.456-877.824 219.456-658.368 0-1097.28-365.76-429.768-365.76-429.768-1069.848zm1801.368 896.112q256.032 0 612.648-164.592t649.224-393.192v-1618.488q-1106.424 9.144-1682.496 329.184-566.928 320.04-566.928 859.536 0 521.208 265.176 758.952 265.176 228.6 722.376 228.6z"/><path d="m84739.233 84311.777-777.24-82.296v-338.328l1335.024-155.448h9.144l173.736 118.872v6912.864l859.536 64.008v393.192h-2404.872v-393.192l804.672-73.152z"/><path d="m88104.226 85189.601q-493.776 0-493.776-521.208 0-265.176 155.448-429.768 155.448-173.736 420.624-173.736 274.32 0 393.192 155.448 118.872 146.304 118.872 365.76 0 283.464-155.448 448.056-146.304 155.448-429.768 155.448zm-292.608 1563.624-713.232-155.448v-411.48l1252.728-146.304h18.288l182.88 146.304v4581.144l795.528 64.008v393.192h-2340.864v-393.192l804.672-73.152z"/><path d="m90829.14 90502.265q100.584 155.448 420.624 274.32t685.8 118.872q1115.568 0 1115.568-822.96 0-374.904-310.896-603.504-310.896-237.744-1060.704-521.208-740.664-265.176-1078.992-630.936t-338.328-978.408q0-393.192 237.744-685.8 246.888-292.608 649.224-448.056 411.48-164.592 886.968-164.592 466.344 0 777.24 82.296 320.04 82.296 630.936 201.168v1088.136h-448.056l-164.592-667.512q-64.008-118.872-329.184-201.168-256.032-82.296-566.928-82.296-438.912 0-713.232 201.168-274.32 192.024-274.32 521.208 0 292.608 137.16 484.632t338.328 310.896q201.168 109.728 557.784 256.032l173.736 73.152q521.208 201.168 841.248 384.048 320.04 173.736 530.352 466.344 210.312 283.464 210.312 713.232 0 676.656-521.208 1069.848-512.064 384.048-1371.6 384.048-393.192 0-896.112-128.016t-749.808-256.032v-1152.144h493.776z"/><path d="m96278.962 91325.225q-484.632 0-731.52-219.456-246.888-228.6-246.888-804.672v-3611.88h-694.944v-356.616q457.2-100.584 530.352-146.304 137.16-73.152 201.168-283.464 54.864-137.16 146.304-493.776t137.16-557.784h420.624v1298.448h1618.488v539.496h-1618.488v2962.656q0 530.352 36.576 749.808 36.576 210.312 146.304 274.32t384.048 64.008q265.176 0 594.36-73.152t493.776-155.448l118.872 347.472q-210.312 164.592-694.944 320.04-484.632 146.304-841.248 146.304z"/><path d="m98473.524 89889.617q0-886.968 877.824-1280.16 877.822-402.336 2185.412-429.768v-283.464q0-466.344-100.58-731.52-91.44-274.32-329.18-393.192-237.75-128.016-667.52-128.016-466.34 0-850.388 146.304-374.904 137.16-731.52 338.328l-201.168-402.336q100.584-91.44 420.624-256.032t731.52-292.608q411.482-128.016 795.532-128.016 621.79 0 978.4 173.736 365.76 173.736 521.21 557.784 164.59 384.048 164.59 1033.272v3017.52h566.93v338.328q-502.92 137.16-850.39 137.16-219.46 0-301.75-73.152-82.3-64.008-82.3-310.896v-338.328q-329.18 292.608-722.37 521.208-384.05 219.456-877.83 219.456-658.366 0-1097.278-365.76-429.768-365.76-429.768-1069.848zm1801.366 896.112q256.03 0 612.65-164.592t649.22-393.192v-1618.488q-1106.42 9.144-1682.492 329.184-566.928 320.04-566.928 859.536 0 521.208 265.176 758.952 265.176 228.6 722.374 228.6z"/><path d="m104298.25 90502.265q100.58 155.448 420.62 274.32t685.8 118.872q1115.57 0 1115.57-822.96 0-374.904-310.9-603.504-310.89-237.744-1060.7-521.208-740.66-265.176-1078.99-630.936t-338.33-978.408q0-393.192 237.74-685.8 246.89-292.608 649.23-448.056 411.48-164.592 886.97-164.592 466.34 0 777.24 82.296 320.04 82.296 630.93 201.168v1088.136h-448.05l-164.6-667.512q-64-118.872-329.18-201.168-256.03-82.296-566.93-82.296-438.91 0-713.23 201.168-274.32 192.024-274.32 521.208 0 292.608 137.16 484.632t338.33 310.896q201.17 109.728 557.78 256.032l173.74 73.152q521.21 201.168 841.25 384.048 320.04 173.736 530.35 466.344 210.31 283.464 210.31 713.232 0 676.656-521.21 1069.848-512.06 384.048-1371.6 384.048-393.19 0-896.11-128.016t-749.81-256.032v-1152.144h493.78z"/><path d="m112079.79 92477.369q420.63-109.728 749.81-420.624 329.19-301.752 466.35-749.808 118.87-374.904 146.3-841.248 36.58-466.344 36.58-1554.48v-3977.64l-914.4-109.728v-393.192h2551.17v393.192l-877.82 109.728v4489.704q0 576.072-18.29 950.976-18.29 365.76-73.15 658.368-146.31 740.664-685.8 1197.864-530.35 457.2-1179.58 576.072z"/><path d="m118206.27 91325.225q-1060.71 0-1636.78-722.376-566.93-731.52-566.93-1938.528 0-777.24 301.76-1380.744 301.75-603.504 832.1-932.688 539.5-338.328 1207.01-338.328 813.81 0 1261.87 466.344 457.2 466.344 493.78 1344.168 0 566.928-54.87 804.672h-3255.26q0 960.12 429.77 1572.768 438.91 603.504 1225.29 603.504 384.05 0 786.39-137.16 402.33-137.16 621.79-329.184l146.3 338.328q-265.17 274.32-777.24 466.344-502.92 182.88-1014.98 182.88zm1069.85-3127.248q27.43-192.024 27.43-402.336-9.15-603.504-292.61-960.12-274.32-356.616-850.39-356.616-1252.73 0-1362.46 1719.072z"/><path d="m121013.48 89889.617q0-886.968 877.83-1280.16 877.82-402.336 2185.41-429.768v-283.464q0-466.344-100.58-731.52-91.44-274.32-329.18-393.192-237.75-128.016-667.52-128.016-466.34 0-850.39 146.304-374.9 137.16-731.52 338.328l-201.17-402.336q100.59-91.44 420.63-256.032t731.52-292.608 795.53-128.016q621.79 0 978.4 173.736 365.76 173.736 521.21 557.784 164.59 384.048 164.59 1033.272v3017.52h566.93v338.328q-502.92 137.16-850.39 137.16-219.46 0-301.75-73.152-82.3-64.008-82.3-310.896v-338.328q-329.18 292.608-722.37 521.208-384.05 219.456-877.83 219.456-658.37 0-1097.28-365.76-429.77-365.76-429.77-1069.848zm1801.37 896.112q256.03 0 612.65-164.592t649.22-393.192v-1618.488q-1106.42 9.144-1682.49 329.184-566.93 320.04-566.93 859.536 0 521.208 265.18 758.952 265.17 228.6 722.37 228.6z"/><path d="m126664.47 86753.225-704.08-155.448v-411.48l1161.28-146.304h27.44l173.73 146.304v402.336l-9.14 228.6q338.33-292.608 896.11-539.496t1033.27-246.888q585.22 0 896.11 228.6 320.04 219.456 438.92 685.8 128.01 457.2 128.01 1234.44v2587.752l685.8 64.008v393.192h-2039.11v-393.192l612.65-64.008v-2596.896q0-576.072-82.3-905.256-73.15-329.184-301.75-493.776-219.46-173.736-649.22-173.736-365.76 0-795.53 182.88-420.63 182.88-731.52 429.768v3547.872l667.51 73.152v393.192h-2020.82v-393.192l612.64-73.152z"/><path d="m136457.69 88563.737h-3685.03v-548.64h3685.03z"/><path d="m137481.82 92477.369q420.63-109.728 749.81-420.624 329.19-301.752 466.35-749.808 118.87-374.904 146.3-841.248 36.58-466.344 36.58-1554.48v-3977.64l-914.4-109.728v-393.192h2551.17v393.192l-877.82 109.728v4489.704q0 576.072-18.29 950.976-18.29 365.76-73.15 658.368-146.31 740.664-685.8 1197.864-530.35 457.2-1179.58 576.072z"/><path d="m141441.17 89889.617q0-886.968 877.83-1280.16 877.82-402.336 2185.41-429.768v-283.464q0-466.344-100.58-731.52-91.44-274.32-329.19-393.192-237.74-128.016-667.51-128.016-466.34 0-850.39 146.304-374.9 137.16-731.52 338.328l-201.17-402.336q100.59-91.44 420.63-256.032t731.52-292.608 795.52-128.016q621.8 0 978.41 173.736 365.76 173.736 521.21 557.784 164.59 384.048 164.59 1033.272v3017.52h566.93v338.328q-502.92 137.16-850.39 137.16-219.46 0-301.75-73.152-82.3-64.008-82.3-310.896v-338.328q-329.18 292.608-722.38 521.208-384.04 219.456-877.82 219.456-658.37 0-1097.28-365.76-429.77-365.76-429.77-1069.848zm1801.37 896.112q256.03 0 612.65-164.592 356.61-164.592 649.22-393.192v-1618.488q-1106.42 9.144-1682.49 329.184-566.93 320.04-566.93 859.536 0 521.208 265.17 758.952 265.18 228.6 722.38 228.6z"/><path d="m146415.52 88719.185q0-740.664 283.46-1353.312 292.61-621.792 859.54-987.552 576.07-365.76 1399.03-365.76 356.62 0 694.95 91.44 338.33 82.296 585.21 182.88l-36.57 1307.592h-457.2l-192.03-877.824q-54.86-274.32-786.38-274.32-713.23 0-1143 548.64-420.62 548.64-420.62 1499.616 0 1133.856 457.2 1719.072 457.19 585.216 1188.72 585.216 384.04 0 740.66-128.016 365.76-128.016 603.5-292.608l146.31 301.752q-265.18 265.176-731.52 457.2-466.35 192.024-923.55 192.024-722.37 0-1234.44-338.328-512.06-347.472-777.24-932.688-256.03-594.36-256.03-1335.024z"/><path d="m153758.14 93062.585 1024.13-91.44v-1536.192l27.43-786.384q-694.94 676.656-1581.91 676.656-530.35 0-996.7-274.32-457.2-283.464-740.66-859.536-274.32-576.072-274.32-1408.176 0-786.384 320.04-1417.32t905.25-987.552q594.36-365.76 1380.75-365.76 548.64 0 1133.85 155.448l411.48-128.016 155.45 146.304v6784.848l640.08 91.44v374.904h-2404.87zm-228.6-2267.712q393.19 0 722.38-164.592 329.18-173.736 530.35-384.048v-3511.296q-54.87-118.872-374.91-219.456-310.89-100.584-658.36-100.584-777.24 0-1252.73 576.072t-475.49 1719.072q0 685.8 201.17 1152.144t539.49 704.088q347.48 228.6 768.1 228.6z"/><path d="m160963.62 91306.937q-237.74 0-347.47-82.296t-109.73-301.752v-356.616q-338.33 301.752-795.53 530.352t-914.4 228.6q-832.1 0-1188.72-466.344-347.47-466.344-347.47-1517.904v-2688.336l-539.5-155.448v-338.328l1106.43-118.872h9.14l164.59 109.728v3081.528q0 576.072 82.3 905.256 82.3 320.04 301.75 475.488 219.46 155.448 640.08 155.448 402.34 0 768.1-173.736t630.93-411.48v-3529.584l-694.94-155.448v-338.328l1216.15-118.872h9.15l210.31 109.728v4672.584h566.93l-9.15 347.472q-45.72 9.144-265.17 73.152-219.46 64.008-493.78 64.008z"/><path d="m164776.68 91325.225q-1060.71 0-1636.78-722.376-566.93-731.52-566.93-1938.528 0-777.24 301.75-1380.744 301.76-603.504 832.11-932.688 539.49-338.328 1207.01-338.328 813.81 0 1261.87 466.344 457.2 466.344 493.77 1344.168 0 566.928-54.86 804.672h-3255.26q0 960.12 429.76 1572.768 438.92 603.504 1225.3 603.504 384.05 0 786.38-137.16 402.34-137.16 621.8-329.184l146.3 338.328q-265.18 274.32-777.24 466.344-502.92 182.88-1014.98 182.88zm1069.84-3127.248q27.44-192.024 27.44-402.336-9.15-603.504-292.61-960.12-274.32-356.616-850.39-356.616-1252.73 0-1362.46 1719.072z"/><path d="m168278.82 90502.265q100.58 155.448 420.62 274.32t685.8 118.872q1115.57 0 1115.57-822.96 0-374.904-310.89-603.504-310.9-237.744-1060.71-521.208-740.66-265.176-1078.99-630.936t-338.33-978.408q0-393.192 237.75-685.8 246.88-292.608 649.22-448.056 411.48-164.592 886.97-164.592 466.34 0 777.24 82.296 320.04 82.296 630.93 201.168v1088.136h-448.05l-164.59-667.512q-64.01-118.872-329.19-201.168-256.03-82.296-566.93-82.296-438.91 0-713.23 201.168-274.32 192.024-274.32 521.208 0 292.608 137.16 484.632t338.33 310.896q201.17 109.728 557.78 256.032l173.74 73.152q521.21 201.168 841.25 384.048 320.04 173.736 530.35 466.344 210.31 283.464 210.31 713.232 0 676.656-521.21 1069.848-512.06 384.048-1371.6 384.048-393.19 0-896.11-128.016t-749.81-256.032v-1152.144h493.78z"/><path d="m174359.58 90831.449 786.38-82.296v-5833.872l-731.52-109.728v-374.904h1115.57q246.88 0 704.09-36.576 438.91-36.576 649.22-36.576 1307.59 0 1865.38 438.912 557.78 438.912 557.78 1353.312 0 667.512-374.9 1207.008-365.76 539.496-996.7 722.376 237.74 155.448 475.49 521.208 246.89 356.616 603.5 996.696 310.9 557.784 493.78 841.248 192.02 274.32 338.33 301.752l384.04 100.584v384.048h-1069.85q-146.3 0-338.32-310.896-192.03-310.896-539.5-1005.84-374.9-758.952-621.79-1161.288-237.74-402.336-475.49-539.496-1115.57 0-1289.3-9.144v2551.176l941.83 82.296v393.192h-2478.02zm2770.63-3072.384q630.93 0 996.69-393.192t365.76-1152.144q0-667.512-374.9-1033.272-374.9-374.904-1307.59-374.904-320.04 0-630.94 36.576-219.46 18.288-283.46 18.288v2889.504q164.59 9.144 658.37 9.144z"/><path d="m180751.23 88655.177q0-795.528 329.18-1399.032 338.33-603.504 877.83-923.544 548.64-320.04 1143-320.04 1152.14 0 1700.78 749.808 557.79 749.808 557.79 1920.24 0 795.528-338.33 1399.032-329.19 603.504-877.83 923.544-539.49 320.04-1133.85 320.04-1152.15 0-1709.93-749.808-548.64-749.808-548.64-1920.24zm2304.29 2194.56q704.09 0 1088.13-539.496 384.05-539.496 384.05-1572.768 0-987.552-356.61-1618.488-356.62-630.936-1106.43-630.936-704.09 0-1097.28 539.496-384.05 539.496-384.05 1572.768 0 996.696 356.62 1627.632 365.76 621.792 1115.57 621.792z"/><path d="m190498.74 91306.937q-237.74 0-347.47-82.296t-109.73-301.752v-356.616q-338.32 301.752-795.52 530.352t-914.4 228.6q-832.11 0-1188.72-466.344-347.48-466.344-347.48-1517.904v-2688.336l-539.49-155.448v-338.328l1106.42-118.872h9.15l164.59 109.728v3081.528q0 576.072 82.29 905.256 82.3 320.04 301.76 475.488 219.45 155.448 640.08 155.448 402.33 0 768.09-173.736t630.94-411.48v-3529.584l-694.95-155.448v-338.328l1216.16-118.872h9.14l210.31 109.728v4672.584h566.93l-9.14 347.472q-45.72 9.144-265.18 73.152t-493.78 64.008z"/><path d="m192839.6 90502.265q100.58 155.448 420.62 274.32t685.8 118.872q1115.57 0 1115.57-822.96 0-374.904-310.89-603.504-310.9-237.744-1060.71-521.208-740.66-265.176-1078.99-630.936t-338.33-978.408q0-393.192 237.75-685.8 246.88-292.608 649.22-448.056 411.48-164.592 886.97-164.592 466.34 0 777.24 82.296 320.04 82.296 630.93 201.168v1088.136h-448.05l-164.59-667.512q-64.01-118.872-329.19-201.168-256.03-82.296-566.93-82.296-438.91 0-713.23 201.168-274.32 192.024-274.32 521.208 0 292.608 137.16 484.632t338.33 310.896q201.17 109.728 557.78 256.032l173.74 73.152q521.21 201.168 841.25 384.048 320.04 173.736 530.35 466.344 210.31 283.464 210.31 713.232 0 676.656-521.21 1069.848-512.06 384.048-1371.6 384.048-393.19 0-896.11-128.016t-749.81-256.032v-1152.144h493.78z"/><path d="m197457.32 90502.265q100.58 155.448 420.62 274.32t685.8 118.872q1115.57 0 1115.57-822.96 0-374.904-310.89-603.504-310.9-237.744-1060.71-521.208-740.66-265.176-1078.99-630.936t-338.33-978.408q0-393.192 237.75-685.8 246.88-292.608 649.22-448.056 411.48-164.592 886.97-164.592 466.34 0 777.24 82.296 320.04 82.296 630.93 201.168v1088.136h-448.05l-164.59-667.512q-64.01-118.872-329.19-201.168-256.03-82.296-566.93-82.296-438.91 0-713.23 201.168-274.32 192.024-274.32 521.208 0 292.608 137.16 484.632t338.33 310.896q201.17 109.728 557.78 256.032l173.74 73.152q521.21 201.168 841.25 384.048 320.04 173.736 530.35 466.344 210.31 283.464 210.31 713.232 0 676.656-521.21 1069.848-512.06 384.048-1371.6 384.048-393.19 0-896.11-128.016t-749.81-256.032v-1152.144h493.78z"/><path d="m203547.22 91325.225q-1060.7 0-1636.77-722.376-566.93-731.52-566.93-1938.528 0-777.24 301.75-1380.744t832.1-932.688q539.5-338.328 1207.01-338.328 813.82 0 1261.87 466.344 457.2 466.344 493.78 1344.168 0 566.928-54.86 804.672h-3255.27q0 960.12 429.77 1572.768 438.91 603.504 1225.3 603.504 384.04 0 786.38-137.16t621.79-329.184l146.31 338.328q-265.18 274.32-777.24 466.344-502.92 182.88-1014.99 182.88zm1069.85-3127.248q27.43-192.024 27.43-402.336-9.14-603.504-292.61-960.12-274.32-356.616-850.39-356.616-1252.73 0-1362.45 1719.072z"/><path d="m206354.42 89889.617q0-886.968 877.83-1280.16 877.82-402.336 2185.41-429.768v-283.464q0-466.344-100.58-731.52-91.44-274.32-329.19-393.192-237.74-128.016-667.51-128.016-466.34 0-850.39 146.304-374.9 137.16-731.52 338.328l-201.17-402.336q100.59-91.44 420.63-256.032t731.52-292.608 795.52-128.016q621.8 0 978.41 173.736 365.76 173.736 521.21 557.784 164.59 384.048 164.59 1033.272v3017.52h566.93v338.328q-502.92 137.16-850.39 137.16-219.46 0-301.75-73.152-82.3-64.008-82.3-310.896v-338.328q-329.18 292.608-722.38 521.208-384.04 219.456-877.82 219.456-658.37 0-1097.28-365.76-429.77-365.76-429.77-1069.848zm1801.37 896.112q256.03 0 612.65-164.592 356.61-164.592 649.22-393.192v-1618.488q-1106.42 9.144-1682.49 329.184-566.93 320.04-566.93 859.536 0 521.208 265.17 758.952 265.18 228.6 722.38 228.6z"/><path d="m215617.31 91306.937q-237.75 0-347.48-82.296-109.72-82.296-109.72-301.752v-356.616q-338.33 301.752-795.53 530.352t-914.4 228.6q-832.1 0-1188.72-466.344-347.47-466.344-347.47-1517.904v-2688.336l-539.5-155.448v-338.328l1106.43-118.872h9.14l164.59 109.728v3081.528q0 576.072 82.3 905.256 82.29 320.04 301.75 475.488t640.08 155.448q402.33 0 768.1-173.736 365.76-173.736 630.93-411.48v-3529.584l-694.94-155.448v-338.328l1216.15-118.872h9.14l210.32 109.728v4672.584h566.92l-9.14 347.472q-45.72 9.144-265.18 73.152-219.45 64.008-493.77 64.008z"/><path d="m219631.53 88170.545q0-1188.72 411.48-2148.84 411.48-969.264 932.69-1563.624 521.2-603.504 859.53-786.384l329.19 210.312q-283.47 182.88-704.09 740.664-411.48 548.64-749.81 1472.184-338.33 914.4-338.33 2084.832 0 1216.152 338.33 2167.128 338.33 941.832 758.95 1508.76 429.77 576.072 731.52 786.384l-365.76 246.888q-347.47-210.312-859.53-777.24-502.92-557.784-923.55-1563.624-420.62-1014.984-420.62-2377.44z"/><path d="m224669.87 86350.889q-192.02 82.296-612.64 201.168-420.63 118.872-704.09 155.448l-91.44-429.768q457.2-100.584 914.4-329.184t786.38-512.064h9.15l438.91 91.44v5230.368l1197.86 73.152v393.192h-3163.82v-393.192l1225.29-73.152z"/><path d="m228464.63 92541.377q438.91-978.408 841.25-1965.96t1161.29-2889.504l630.93-1591.056-2889.5 27.432-320.04 1143-484.63-82.296 182.88-1673.352h4041.65l155.44 201.168q-36.57 73.152-1252.72 3520.44-1243.59 3493.008-1261.88 3529.584z"/><path d="m234069.9 86350.889q-192.02 82.296-612.64 201.168-420.63 118.872-704.09 155.448l-91.44-429.768q457.2-100.584 914.4-329.184t786.38-512.064h9.15l438.91 91.44v5230.368l1197.86 73.152v393.192h-3163.82v-393.192l1225.29-73.152z"/><path d="m236794.8 90913.745q850.39-475.488 1581.91-1115.568 740.67-649.224 1179.58-1344.168 448.05-694.944 448.05-1280.16 0-539.496-320.04-859.536t-914.4-320.04q-548.64 0-960.12 228.6-402.33 219.456-722.37 530.352l-256.03-347.472q338.32-374.904 905.25-667.512 566.93-301.752 1234.44-301.752 621.79 0 1042.42 237.744 429.77 228.6 630.93 612.648 210.32 374.904 210.32 813.816 0 932.688-896.12 1938.528-886.96 996.696-2185.41 1755.648l2953.51-192.024 301.75-795.528 402.34 82.296-219.46 1335.024h-4306.82z"/><path d="m248663.72 88563.737h-3685.03v-548.64h3685.03z"/><path d="m253638.06 86350.889q-192.02 82.296-612.65 201.168-420.62 118.872-704.08 155.448l-91.44-429.768q457.19-100.584 914.4-329.184 457.19-228.6 786.38-512.064h9.14l438.92 91.44v5230.368l1197.86 73.152v393.192h-3163.82v-393.192l1225.29-73.152z"/><path d="m257432.82 92541.377q438.91-978.408 841.25-1965.96 402.33-987.552 1161.29-2889.504l630.93-1591.056-2889.5 27.432-320.04 1143-484.63-82.296 182.88-1673.352h4041.64l155.45 201.168q-36.57 73.152-1252.73 3520.44-1243.58 3493.008-1261.87 3529.584z"/><path d="m262809.49 92541.377q438.91-978.408 841.25-1965.96t1161.29-2889.504l630.93-1591.056-2889.5 27.432-320.04 1143-484.63-82.296 182.88-1673.352h4041.65l155.44 201.168q-36.57 73.152-1252.72 3520.44-1243.59 3493.008-1261.88 3529.584z"/><path d="m267299.21 89551.289q0-548.64 356.62-1024.128 356.61-475.488 1078.99-804.672-557.78-338.328-859.54-713.232-292.6-384.048-292.6-969.264 0-530.352 283.46-914.4t740.66-576.072q457.2-201.168 969.27-201.168 841.25 0 1371.6 411.48t530.35 1097.28q0 530.352-329.18 996.696-320.04 457.2-914.4 804.672 731.52 402.336 1124.71 813.816 402.33 411.48 402.33 1005.84 0 548.64-320.04 969.264-320.04 411.48-841.24 640.08-512.07 219.456-1097.28 219.456-557.79 0-1060.71-182.88-493.77-182.88-822.96-576.072-320.04-393.192-320.04-996.696zm932.69-3675.888q0 356.616 210.31 621.792t512.07 457.2q301.75 182.88 877.82 484.632 457.2-228.6 722.38-585.216 274.32-356.616 274.32-786.384 0-630.936-356.62-987.552-347.47-356.616-932.69-356.616-548.64 0-932.69 320.04-374.9 310.896-374.9 832.104zm2779.78 3767.328q0-338.328-201.17-594.36-201.17-265.176-493.78-448.056-292.61-192.024-813.81-457.2l-393.2-210.312q-484.63 228.6-786.38 621.792-301.75 384.048-301.75 841.248 0 694.944 420.62 1106.424 420.63 402.336 1143 402.336 356.62 0 685.8-155.448 329.19-164.592 530.35-448.056 210.32-292.608 210.32-658.368z"/><path d="m275629.37 88380.857q0 1188.72-411.48 2157.984-411.48 960.12-932.69 1554.48-521.21 603.504-859.54 786.384l-329.18-210.312q283.46-182.88 694.94-740.664 420.63-548.64 758.96-1463.04 338.32-923.544 338.32-2093.976 0-1216.152-338.32-2157.984-338.33-950.976-768.1-1517.904-420.62-576.072-722.38-786.384l365.76-246.888q347.48 210.312 850.4 777.24 512.06 557.784 932.68 1572.768 420.63 1005.84 420.63 2368.296z"/><path d="m281161.5 91325.225q-1060.7 0-1636.77-722.376-566.93-731.52-566.93-1938.528 0-777.24 301.75-1380.744t832.11-932.688q539.49-338.328 1207-338.328 813.82 0 1261.88 466.344 457.2 466.344 493.77 1344.168 0 566.928-54.86 804.672h-3255.27q0 960.12 429.77 1572.768 438.91 603.504 1225.3 603.504 384.05 0 786.38-137.16 402.34-137.16 621.79-329.184l146.31 338.328q-265.18 274.32-777.24 466.344-502.92 182.88-1014.99 182.88zm1069.85-3127.248q27.43-192.024 27.43-402.336-9.14-603.504-292.6-960.12-274.32-356.616-850.4-356.616-1252.72 0-1362.45 1719.072z"/></g><g aria-label="Montesquieu (1689 - 1775)"><path d="m39833.048 101383.61-1014.984-100.58v-393.19h2157.984l1417.32 4224.52 338.328 1225.3 301.752-1225.3 1408.176-4224.52h2139.696v393.19l-1005.84 100.58 722.376 5815.59 832.104 91.44v393.19h-2459.736v-393.19l850.392-82.3-420.624-4169.66-201.168-1828.8-402.336 1261.87-1655.064 4882.89h-365.76l-1554.48-4370.83-594.36-1773.93-182.88 1828.8-374.904 4169.66 896.112 82.3v393.19h-2286v-393.19l777.24-82.3z"/><path d="m47770.043 105114.36q0-795.52 329.183-1399.03 338.329-603.5 877.824-923.54 548.64-320.04 1143-320.04 1152.144 0 1700.784 749.81 557.784 749.8 557.784 1920.24 0 795.52-338.327 1399.03-329.184 603.5-877.824 923.54-539.496 320.04-1133.856 320.04-1152.144 0-1709.928-749.81-548.64-749.8-548.64-1920.24zm2304.287 2194.56q704.089 0 1088.137-539.49 384.047-539.5 384.047-1572.77 0-987.55-356.615-1618.49-356.616-630.93-1106.425-630.93-704.087 0-1097.28 539.49-384.047 539.5-384.047 1572.77 0 996.7 356.615 1627.63 365.761 621.79 1115.568 621.79z"/><path d="m53905.665 103212.41-704.088-155.45v-411.48l1161.288-146.3h27.432l173.736 146.3v402.34l-9.144 228.6q338.328-292.61 896.112-539.5 557.784-246.88 1033.272-246.88 585.216 0 896.112 228.6 320.04 219.45 438.912 685.8 128.016 457.2 128.016 1234.44v2587.75l685.8 64.01v393.19h-2039.112v-393.19l612.648-64.01v-2596.9q0-576.07-82.296-905.25-73.152-329.19-301.752-493.78-219.456-173.74-649.224-173.74-365.76 0-795.528 182.88-420.624 182.88-731.52 429.77v3547.87l667.512 73.16v393.19h-2020.824v-393.19l612.648-73.16z"/><path d="m60983.119 107784.41q-484.632 0-731.52-219.45-246.888-228.6-246.888-804.68v-3611.88h-694.944v-356.61q457.2-100.59 530.352-146.31 137.16-73.15 201.168-283.46 54.864-137.16 146.304-493.78 91.44-356.61 137.16-557.78h420.624v1298.45h1618.488v539.49h-1618.488v2962.66q0 530.35 36.576 749.81 36.576 210.31 146.304 274.32t384.048 64.01q265.176 0 594.36-73.16 329.184-73.15 493.776-155.44l118.872 347.47q-210.312 164.59-694.944 320.04-484.632 146.3-841.248 146.3z"/><path d="m65344.808 107784.41q-1060.704 0-1636.776-722.37-566.928-731.52-566.928-1938.53 0-777.24 301.752-1380.75 301.752-603.5 832.104-932.68 539.496-338.33 1207.008-338.33 813.816 0 1261.872 466.34 457.2 466.35 493.776 1344.17 0 566.93-54.864 804.67h-3255.264q0 960.12 429.768 1572.77 438.912 603.5 1225.296 603.5 384.048 0 786.384-137.16t621.792-329.18l146.304 338.33q-265.176 274.32-777.24 466.34-502.92 182.88-1014.984 182.88zm1069.848-3127.25q27.432-192.02 27.432-402.33-9.144-603.51-292.608-960.12-274.32-356.62-850.392-356.62-1252.728 0-1362.456 1719.07z"/><path d="m68846.96 106961.45q100.584 155.45 420.624 274.32t685.8 118.87q1115.568 0 1115.568-822.96 0-374.9-310.896-603.5-310.896-237.74-1060.704-521.21-740.664-265.17-1078.992-630.93t-338.328-978.41q0-393.19 237.744-685.8 246.888-292.61 649.224-448.06 411.48-164.59 886.968-164.59 466.344 0 777.24 82.3 320.04 82.29 630.936 201.16v1088.14h-448.056l-164.592-667.51q-64.008-118.87-329.184-201.17-256.032-82.3-566.928-82.3-438.912 0-713.232 201.17-274.32 192.03-274.32 521.21 0 292.61 137.16 484.63 137.16 192.03 338.328 310.9 201.168 109.73 557.784 256.03l173.736 73.15q521.208 201.17 841.248 384.05 320.04 173.74 530.352 466.34 210.312 283.47 210.312 713.24 0 676.65-521.208 1069.84-512.064 384.05-1371.6 384.05-393.192 0-896.112-128.01-502.92-128.02-749.808-256.04v-1152.14h493.776z"/><path d="m75266.047 109521.77 1024.128-91.44v-1536.19l27.432-786.38q-694.944 676.65-1581.912 676.65-530.352 0-996.696-274.32-457.2-283.46-740.664-859.53-274.32-576.08-274.32-1408.18 0-786.38 320.04-1417.32t905.256-987.55q594.36-365.76 1380.744-365.76 548.64 0 1133.856 155.45l411.48-128.02 155.448 146.3v6784.85l640.08 91.44v374.91h-2404.872zm-228.6-2267.71q393.192 0 722.376-164.59 329.184-173.74 530.352-384.05v-3511.3q-54.864-118.87-374.904-219.45-310.896-100.59-658.368-100.59-777.24 0-1252.728 576.08-475.488 576.07-475.488 1719.07 0 685.8 201.168 1152.14 201.168 466.35 539.496 704.09 347.472 228.6 768.096 228.6z"/><path d="m82471.518 107766.12q-237.744 0-347.472-82.29-109.728-82.3-109.728-301.75v-356.62q-338.328 301.75-795.528 530.35t-914.4 228.6q-832.104 0-1188.72-466.34-347.472-466.35-347.472-1517.91v-2688.33l-539.496-155.45v-338.33l1106.424-118.87h9.144l164.592 109.73v3081.53q0 576.07 82.296 905.25 82.296 320.04 301.752 475.49t640.08 155.45q402.336 0 768.096-173.74 365.76-173.73 630.936-411.48v-3529.58l-694.944-155.45v-338.33l1216.152-118.87h9.144l210.312 109.73v4672.58h566.928l-9.144 347.47q-45.72 9.15-265.176 73.16-219.456 64-493.776 64z"/><path d="m85132.422 101648.79q-493.776 0-493.776-521.21 0-265.18 155.448-429.77 155.448-173.73 420.624-173.73 274.32 0 393.192 155.44 118.872 146.31 118.872 365.76 0 283.47-155.448 448.06-146.304 155.45-429.768 155.45zm-292.608 1563.62-713.232-155.45v-411.48l1252.728-146.3h18.288l182.88 146.3v4581.15l795.528 64.01v393.19h-2340.864v-393.19l804.672-73.16z"/><path d="m89329.519 107784.41q-1060.704 0-1636.776-722.37-566.928-731.52-566.928-1938.53 0-777.24 301.752-1380.75 301.752-603.5 832.104-932.68 539.496-338.33 1207.008-338.33 813.816 0 1261.872 466.34 457.2 466.35 493.776 1344.17 0 566.93-54.864 804.67h-3255.264q0 960.12 429.768 1572.77 438.912 603.5 1225.296 603.5 384.048 0 786.384-137.16t621.792-329.18l146.304 338.33q-265.176 274.32-777.24 466.34-502.92 182.88-1014.984 182.88zm1069.848-3127.25q27.432-192.02 27.432-402.33-9.144-603.51-292.608-960.12-274.32-356.62-850.392-356.62-1252.728 0-1362.456 1719.07z"/><path d="m96269.815 107766.12q-237.744 0-347.472-82.29-109.728-82.3-109.728-301.75v-356.62q-338.328 301.75-795.528 530.35t-914.4 228.6q-832.104 0-1188.72-466.34-347.472-466.35-347.472-1517.91v-2688.33l-539.496-155.45v-338.33l1106.424-118.87h9.144l164.592 109.73v3081.53q0 576.07 82.296 905.25 82.296 320.04 301.752 475.49t640.08 155.45q402.336 0 768.096-173.74 365.76-173.73 630.936-411.48v-3529.58l-694.944-155.45v-338.33l1216.152-118.87h9.144l210.312 109.73v4672.58h566.928l-9.144 347.47q-45.72 9.15-265.176 73.16-219.456 64-493.776 64z"/><path d="m100284.04 104629.73q0-1188.72 411.48-2148.84 411.48-969.26 932.68-1563.62 521.21-603.51 859.54-786.39l329.18 210.32q-283.46 182.88-704.08 740.66-411.48 548.64-749.81 1472.18-338.33 914.4-338.33 2084.84 0 1216.15 338.33 2167.12 338.33 941.84 758.95 1508.76 429.77 576.08 731.52 786.39l-365.76 246.89q-347.47-210.32-859.54-777.24-502.92-557.79-923.54-1563.63-420.62-1014.98-420.62-2377.44z"/><path d="m105322.39 102810.08q-192.02 82.29-612.65 201.16-420.62 118.88-704.09 155.45l-91.44-429.77q457.2-100.58 914.4-329.18t786.39-512.06h9.14l438.91 91.44v5230.36l1197.87 73.16v393.19h-3163.83v-393.19l1225.3-73.16z"/><path d="m110616.75 107784.41q-731.52 0-1252.73-365.76-521.21-374.9-786.38-996.69-265.18-630.94-265.18-1380.75 0-1143 539.5-2121.41 548.64-978.4 1408.17-1609.34 859.54-640.08 1783.08-813.82l173.74 338.33q-1133.86 356.62-1911.1 1197.87-768.09 832.1-1042.41 1874.52 237.74-292.61 667.51-502.92 429.77-210.32 987.55-210.32 969.26 0 1472.18 557.79 502.92 557.78 502.92 1545.33 0 658.37-274.32 1234.44-265.17 566.93-786.38 914.4-512.06 338.33-1216.15 338.33zm128.01-4096.51q-393.19 0-722.37 137.16-329.19 128.02-557.79 320.04-219.45 182.88-301.75 356.62-18.29 164.59-18.29 256.03-27.43 1115.57 320.04 1865.37 356.62 749.81 1207.01 749.81 466.35 0 786.39-274.32 320.04-283.46 475.48-713.23 155.45-429.77 155.45-896.11 0-941.83-365.76-1371.6-356.61-429.77-978.41-429.77z"/><path d="m114301.77 106010.48q0-548.64 356.62-1024.13t1078.99-804.67q-557.78-338.33-859.53-713.24-292.61-384.04-292.61-969.26 0-530.35 283.46-914.4 283.47-384.05 740.67-576.07 457.2-201.17 969.26-201.17 841.25 0 1371.6 411.48t530.35 1097.28q0 530.35-329.18 996.7-320.04 457.2-914.4 804.67 731.52 402.33 1124.71 813.81 402.34 411.48 402.34 1005.84 0 548.64-320.04 969.27-320.04 411.48-841.25 640.08-512.07 219.45-1097.28 219.45-557.79 0-1060.71-182.88-493.77-182.88-822.96-576.07-320.04-393.19-320.04-996.69zm932.69-3675.89q0 356.61 210.31 621.79 210.32 265.18 512.07 457.2 301.75 182.88 877.82 484.63 457.2-228.6 722.38-585.21 274.32-356.62 274.32-786.39 0-630.93-356.62-987.55-347.47-356.62-932.69-356.62-548.64 0-932.68 320.04-374.91 310.9-374.91 832.11zm2779.78 3767.33q0-338.33-201.17-594.36-201.17-265.18-493.78-448.06-292.6-192.02-813.81-457.2l-393.19-210.31q-484.64 228.6-786.39 621.79-301.75 384.05-301.75 841.25 0 694.94 420.62 1106.42 420.63 402.34 1143 402.34 356.62 0 685.8-155.45 329.19-164.59 530.36-448.06 210.31-292.6 210.31-658.36z"/><path d="m122458.23 101895.68q758.96 0 1271.02 356.61 512.06 347.47 758.95 950.98 256.03 594.36 256.03 1344.17 0 1197.86-493.77 2194.56-493.78 996.69-1307.59 1636.77-804.68 640.08-1728.22 822.96l-173.74-347.47q1115.57-374.9 1810.52-1197.86 704.08-822.96 941.83-1892.81-228.6 292.61-649.23 512.06-411.48 210.31-886.96 210.31-987.56 0-1554.48-594.36-557.79-603.5-557.79-1609.34 0-640.08 274.32-1179.58 283.47-548.64 804.67-877.82 530.36-329.18 1234.44-329.18zm-128.01 4114.8q384.05 0 713.23-137.16t548.64-338.33 301.75-384.05q18.29-219.46 18.29-320.04 0-1124.71-320.04-1819.66-320.04-704.08-1188.72-704.08-466.34 0-795.53 265.17-329.18 265.18-493.77 685.8-164.6 411.48-164.6 859.54 0 978.41 374.91 1435.61 374.9 457.2 1005.84 457.2z"/><path d="m132342.89 105022.92h-3685.04v-548.64h3685.04z"/><path d="m137317.23 102810.08q-192.02 82.29-612.65 201.16-420.62 118.88-704.08 155.45l-91.44-429.77q457.2-100.58 914.4-329.18t786.38-512.06h9.14l438.92 91.44v5230.36l1197.86 73.16v393.19h-3163.82v-393.19l1225.29-73.16z"/><path d="m141111.99 109000.56q438.91-978.4 841.25-1965.96 402.34-987.55 1161.29-2889.5l630.93-1591.06-2889.5 27.44-320.04 1143-484.63-82.3 182.88-1673.35h4041.65l155.44 201.17q-36.57 73.15-1252.72 3520.44-1243.59 3493-1261.88 3529.58z"/><path d="m146488.66 109000.56q438.92-978.4 841.25-1965.96 402.34-987.55 1161.29-2889.5l630.94-1591.06-2889.51 27.44-320.04 1143-484.63-82.3 182.88-1673.35h4041.65l155.45 201.17q-36.58 73.15-1252.73 3520.44-1243.59 3493-1261.87 3529.58z"/><path d="m151206.97 108744.53q265.17 27.43 548.64 27.43 667.51 0 1216.15-265.17 557.78-265.18 877.82-758.95 320.04-484.64 320.04-1106.43 0-822.96-384.04-1207.01-374.91-384.04-1042.42-384.04-301.75 0-685.8 91.44t-658.37 219.45l-210.31-155.45 457.2-3236.97h2459.74l91.44-173.74h530.35l-146.31 813.82h-2377.44l-438.91 2276.85q237.75-137.16 621.79-228.6 384.05-91.44 758.96-91.44 850.39 0 1353.31 502.92 502.92 493.78 502.92 1472.19 0 667.51-393.19 1271.01-393.2 603.51-1115.57 969.27-713.23 374.9-1645.92 374.9-393.19 0-640.08-64.01z"/><path d="m158951.95 104840.04q0 1188.72-411.48 2157.99-411.48 960.12-932.69 1554.48-521.21 603.5-859.54 786.38l-329.18-210.31q283.46-182.88 694.94-740.66 420.63-548.64 758.95-1463.04 338.33-923.55 338.33-2093.98 0-1216.15-338.33-2157.98-338.32-950.98-768.09-1517.91-420.63-576.07-722.38-786.38l365.76-246.89q347.47 210.31 850.39 777.24 512.07 557.78 932.69 1572.77 420.63 1005.84 420.63 2368.29z"/></g></g><g stroke-width=".329913"><g transform="matrix(3.0311093,0,0,3.0311093,-57261.627,-220020.51)"><path d="m28479.452 95369.918c156.184 135.02 255.159 324.34 276.751 529.66 21.588 205.33-35.829 411.27-160.509 575.82-130.887 164.7-320.449 272.17-528.979 299.9-208.528 27.72-400.323-9.74-569.699-134.5-13.223-8.93-34.668-0.84-47.244 6.13-7.486 4.14-33.234 38.95-57.912 69.41-20.854-12.95-43.386-29.5-52.363-27.75 0 0-5.042 11.71-6.616 17.87-17.812 69.62-87.083 159.57-133.629 214.05-25.213 29.52-185.21 190.43-324.672 359.08-77.591 93.83-171.821 240.28-177.998 247.6-24.087 28.55-4.611 52.45-4.611 52.45s28.933 26.48 44.41 38.48c15.571 12.06 48.57 33.64 48.57 33.64s27.77 12.84 49.461-17.58c5.562-7.8 124.11-135.34 195.763-233.78 128.79-176.92 245.014-371.71 267.353-403.46 41.239-58.59 111.253-148.11 174.284-182.63 5.569-3.05 15.778-10.93 15.778-10.93-0.438-7.66-18.892-21.81-33.453-36.63 26.911-27.41 57.793-67.31 76.172-49.91 175.657 136.6 398.483 197.73 619.287 170.11 220.801-27.61 421.492-141.7 558.098-317.36 136.606-175.65 216.43-401.51 170.241-619.19-52.271-246.34-155.537-481.73-398.482-580.48z" fill="#ed4e38" style="paint-order:fill markers stroke"/><g transform="rotate(4.7574269,178373.68,71098.412)" stroke-width=".329913"><g transform="translate(9702.9621,2327.6761)" stroke-width=".329913"><path d="m20635.038 105655.32c-7.394 8.98-14.061 18.32-20.433 27.69l-511.605 621.53c-9.436 11.46-7.814 28.23 3.655 37.67l221.653 182.45c11.457 9.43 28.236 7.81 37.673-3.66l301.705-366.52c98.518 67.94 865.519 750.13 1267.84 1073.95 87.57 70.49 275.157 194.98 275.157 194.98 23.375 19.24 57.619 16.14 76.86-7.24l21.066-25.59c19.241-23.38 14.913-56.67-7.474-77.06 0 0-168.715-165.22-261.396-238.01-393.682-309.19-1202.077-943.54-1280.634-1032.09l118.479-143.93c30.204-30.88 58.316-69.88 71.92-102.7l173.392-419.76c20.021-48.46 0.973-64.13-42.733-35.18l-378.608 250.84c-21.858 14.48-45.733 37.38-66.518 62.63z" fill="#ed4e38" style="paint-order:fill markers stroke"/></g></g></g><g transform="matrix(3.0311093,0,0,3.0311093,-57261.627,-203561.31)"><path d="m28479.452 95369.918c156.184 135.02 255.159 324.34 276.751 529.66 21.588 205.33-35.829 411.27-160.509 575.82-130.887 164.7-320.449 272.17-528.979 299.9-208.528 27.72-400.323-9.74-569.699-134.5-13.223-8.93-34.668-0.84-47.244 6.13-7.486 4.14-33.234 38.95-57.912 69.41-20.854-12.95-43.386-29.5-52.363-27.75 0 0-5.042 11.71-6.616 17.87-17.812 69.62-87.083 159.57-133.629 214.05-25.213 29.52-185.21 190.43-324.672 359.08-77.591 93.83-171.821 240.28-177.998 247.6-24.087 28.55-4.611 52.45-4.611 52.45s28.933 26.48 44.41 38.48c15.571 12.06 48.57 33.64 48.57 33.64s27.77 12.84 49.461-17.58c5.562-7.8 124.11-135.34 195.763-233.78 128.79-176.92 245.014-371.71 267.353-403.46 41.239-58.59 111.253-148.11 174.284-182.63 5.569-3.05 15.778-10.93 15.778-10.93-0.438-7.66-18.892-21.81-33.453-36.63 26.911-27.41 57.793-67.31 76.172-49.91 175.657 136.6 398.483 197.73 619.287 170.11 220.801-27.61 421.492-141.7 558.098-317.36 136.606-175.65 216.43-401.51 170.241-619.19-52.271-246.34-155.537-481.73-398.482-580.48z" fill="#ed4e38" style="paint-order:fill markers stroke"/><g transform="rotate(4.7574269,178373.68,71098.412)" stroke-width=".329913"><g transform="translate(9702.9621,2327.6761)" stroke-width=".329913"><path d="m20635.038 105655.32c-7.394 8.98-14.061 18.32-20.433 27.69l-511.605 621.53c-9.436 11.46-7.814 28.23 3.655 37.67l221.653 182.45c11.457 9.43 28.236 7.81 37.673-3.66l301.705-366.52c98.518 67.94 865.519 750.13 1267.84 1073.95 87.57 70.49 275.157 194.98 275.157 194.98 23.375 19.24 57.619 16.14 76.86-7.24l21.066-25.59c19.241-23.38 14.913-56.67-7.474-77.06 0 0-168.715-165.22-261.396-238.01-393.682-309.19-1202.077-943.54-1280.634-1032.09l118.479-143.93c30.204-30.88 58.316-69.88 71.92-102.7l173.392-419.76c20.021-48.46 0.973-64.13-42.733-35.18l-378.608 250.84c-21.858 14.48-45.733 37.38-66.518 62.63z" fill="#ed4e38" style="paint-order:fill markers stroke"/></g></g></g><g transform="matrix(3.0311093,0,0,3.0311093,-57261.627,-236479.71)"><path d="m28479.452 95369.918c156.184 135.02 255.159 324.34 276.751 529.66 21.588 205.33-35.829 411.27-160.509 575.82-130.887 164.7-320.449 272.17-528.979 299.9-208.528 27.72-400.323-9.74-569.699-134.5-13.223-8.93-34.668-0.84-47.244 6.13-7.486 4.14-33.234 38.95-57.912 69.41-20.854-12.95-43.386-29.5-52.363-27.75 0 0-5.042 11.71-6.616 17.87-17.812 69.62-87.083 159.57-133.629 214.05-25.213 29.52-185.21 190.43-324.672 359.08-77.591 93.83-171.821 240.28-177.998 247.6-24.087 28.55-4.611 52.45-4.611 52.45s28.933 26.48 44.41 38.48c15.571 12.06 48.57 33.64 48.57 33.64s27.77 12.84 49.461-17.58c5.562-7.8 124.11-135.34 195.763-233.78 128.79-176.92 245.014-371.71 267.353-403.46 41.239-58.59 111.253-148.11 174.284-182.63 5.569-3.05 15.778-10.93 15.778-10.93-0.438-7.66-18.892-21.81-33.453-36.63 26.911-27.41 57.793-67.31 76.172-49.91 175.657 136.6 398.483 197.73 619.287 170.11 220.801-27.61 421.492-141.7 558.098-317.36 136.606-175.65 216.43-401.51 170.241-619.19-52.271-246.34-155.537-481.73-398.482-580.48z" fill="#ed4e38" style="paint-order:fill markers stroke"/><g transform="rotate(4.7574269,178373.68,71098.412)" stroke-width=".329913"><g transform="translate(9702.9621,2327.6761)" stroke-width=".329913"><path d="m20635.038 105655.32c-7.394 8.98-14.061 18.32-20.433 27.69l-511.605 621.53c-9.436 11.46-7.814 28.23 3.655 37.67l221.653 182.45c11.457 9.43 28.236 7.81 37.673-3.66l301.705-366.52c98.518 67.94 865.519 750.13 1267.84 1073.95 87.57 70.49 275.157 194.98 275.157 194.98 23.375 19.24 57.619 16.14 76.86-7.24l21.066-25.59c19.241-23.38 14.913-56.67-7.474-77.06 0 0-168.715-165.22-261.396-238.01-393.682-309.19-1202.077-943.54-1280.634-1032.09l118.479-143.93c30.204-30.88 58.316-69.88 71.92-102.7l173.392-419.76c20.021-48.46 0.973-64.13-42.733-35.18l-378.608 250.84c-21.858 14.48-45.733 37.38-66.518 62.63z" fill="#ed4e38" style="paint-order:fill markers stroke"/></g></g></g></g></g></g></g></g></svg>
