<svg width="1920" height="1080" xmlns="http://www.w3.org/2000/svg"><g fill="#ed4e38" stroke-width=".013"><path d="M1369.488 793.577q-3.948 0-6.785-1.771-2.83-1.763-4.31-4.97-1.474-3.208-1.474-7.483 0-4.02 1.734-7.184 1.727-3.178 4.717-4.905 2.983-1.771 6.67-1.771 1.879 0 3.613.29 1.77.298 2.83.559t1.336.326l-.298 6.01h-1.916l-.813-4.275q-.551-.48-1.988-.813-1.444-.326-3.505-.326-2.54 0-4.572 1.4-2.032 1.364-3.207 4.013-1.14 2.656-1.14 6.343 0 3.461.995 6.378 1.03 2.903 3.098 4.68 2.061 1.728 5.08 1.728 2.105 0 3.287-.327 1.176-.37 1.989-1.037l1.473-3.462 1.807.261-.922 4.935q-.885.036-2.14.48-1.321.442-2.54.667-1.22.254-3.026.254zm11.9-5.784q0-3.578 3.542-5.16 3.534-1.625 8.81-1.741v-1.14q0-1.879-.406-2.946-.37-1.103-1.328-1.582-.958-.515-2.685-.515-1.887 0-3.433.588-1.51.551-2.946 1.364l-.813-1.625q.406-.363 1.69-1.03 1.293-.661 2.954-1.177 1.655-.515 3.208-.515 2.504 0 3.94.697 1.474.704 2.105 2.25.653 1.545.653 4.165v12.162h2.286v1.365q-2.025.551-3.425.551-.886 0-1.212-.29-.334-.261-.334-1.256v-1.364q-1.328 1.176-2.917 2.105-1.546.878-3.534.878-2.656 0-4.427-1.473-1.727-1.474-1.727-4.311zm7.258 3.607q1.037 0 2.474-.66t2.613-1.583v-6.53q-4.456.043-6.778 1.334-2.286 1.285-2.286 3.462 0 2.104 1.074 3.055 1.067.922 2.903.922zm13.018.188 2.359-.29v-16.146l-2.838-.632v-1.654l4.681-.588.806.58v1.626l-.073.922q1.364-1.176 3.578-2.177 2.213-.995 4.02-.995 1.988 0 3.164.668 1.219.66 1.843 2.061 1.147-.958 3.316-1.843 2.214-.886 4.064-.886 2.322 0 3.57.886 1.292.885 1.808 2.728.508 1.844.508 4.978v10.465l2.808.29v1.597h-8.258v-1.597l2.503-.29v-10.356q0-2.322-.334-3.686t-1.284-2.061q-.958-.704-2.801-.704-1.364 0-2.881.631-1.473.58-2.54 1.357.37 1.698.37 4.427v10.392l2.801.29v1.597h-8.44v-1.597l2.657-.29v-10.428q0-2.359-.298-3.687-.261-1.328-1.147-1.988-.885-.668-2.612-.668-1.444 0-3.135.74-1.662.697-2.91 1.699v14.332l2.613.29v1.597h-7.961zm40.617-22.742q-1.996 0-1.996-2.105 0-1.067.624-1.727.624-.704 1.698-.704 1.103 0 1.582.631.48.588.48 1.473 0 1.14-.625 1.807-.58.625-1.727.625zm-1.183 6.306-2.874-.632v-1.654l5.05-.595h.073l.733.595v18.461l3.208.261v1.582h-9.434v-1.582l3.244-.29zm11.828-9.84-3.127-.334v-1.365l5.377-.624h.073l.696.48v27.865l3.469.254v1.582h-9.695v-1.582l3.244-.29zm9.325 22.481q0-3.578 3.542-5.16 3.541-1.625 8.81-1.741v-1.14q0-1.879-.407-2.946-.37-1.103-1.328-1.582-.958-.515-2.685-.515-1.887 0-3.432.588-1.51.551-2.947 1.364l-.812-1.625q.406-.363 1.698-1.03 1.284-.661 2.946-1.177 1.655-.515 3.207-.515 2.504 0 3.94.697 1.474.704 2.105 2.25.654 1.545.654 4.165v12.162h2.293v1.365q-2.032.551-3.433.551-.885 0-1.212-.29-.334-.261-.334-1.256v-1.364q-1.328 1.176-2.917 2.105-1.545.878-3.534.878-2.656 0-4.426-1.473-1.728-1.474-1.728-4.311zm7.257 3.607q1.038 0 2.475-.66t2.612-1.583v-6.53q-4.455.043-6.778 1.334-2.285 1.285-2.285 3.462 0 2.104 1.074 3.055 1.066.922 2.902.922zm30.667 2.177q-1.879 0-3.316-.334-1.437-.327-3.316-.922-1.248-.406-1.51-.435l.298-6.568h1.916l.551 4.833q.697.66 2.214 1.14 1.545.479 3.352.479 2.983 0 4.572-1.365t1.582-3.759q0-1.545-.85-2.612-.805-1.074-2.133-1.814-1.291-.726-3.614-1.727-2.177-.922-3.722-1.844-1.51-.921-2.656-2.467-1.14-1.59-1.14-3.759 0-2.032 1.103-3.614 1.11-1.582 3.063-2.43 1.988-.886 4.535-.886 1.546 0 2.722.254 1.219.225 3.062.74.994.29 1.183.334l-.218 6.045h-1.85l-.66-4.572q-.443-.363-1.735-.704-1.248-.363-2.685-.363-2.729 0-4.165 1.14-1.445 1.103-1.445 3.316 0 1.51.777 2.54.776 1.001 1.988 1.698t3.76 1.887q2.655 1.248 4.136 2.17 1.51.885 2.612 2.358 1.14 1.437 1.14 3.498 0 1.959-1.14 3.766-1.146 1.763-3.316 2.874-2.177 1.103-5.087 1.103zm15.523 0q-.85 0-1.437-.552-.588-.588-.588-1.51 0-1.037.697-1.74.733-.698 1.69-.698.995 0 1.474.596.515.587.515 1.473 0 1.03-.704 1.734-.697.697-1.654.697z" aria-label="Camila S."/><path d="M1581.69 792.322q-3.904 0-6.785-1.764-2.874-1.77-4.383-4.862-1.51-3.098-1.51-7.01 0-4.499 1.807-7.736 1.844-3.28 4.971-4.978 3.135-1.734 7.04-1.734 2.438 0 4.353.334t3.977.813l-.29 6.117h-1.923l-.806-4.238q-.595-.479-1.995-.849-1.357-.406-3.643-.406-2.917 0-5.196 1.328-2.25 1.328-3.541 3.976-1.292 2.613-1.292 6.415 0 3.39 1.03 6.307 1.074 2.902 3.208 4.716 2.14 1.807 5.196 1.807 1.959 0 3.686-.442 1.77-.48 2.765-1.256v-8.403l-5.123-.37v-1.96h10.471v1.96l-2.25.363v9.992q-.776.037-2.612.632-1.887.58-3.505.921-1.59.327-3.65.327zm23.367 0q-4.282 0-6.604-2.903-2.278-2.953-2.278-7.823 0-3.127 1.211-5.566 1.22-2.43 3.36-3.759 2.177-1.357 4.862-1.357 3.28 0 5.087 1.88 1.844 1.88 1.989 5.413 0 2.286-.218 3.244h-13.12q0 3.868 1.727 6.343 1.77 2.43 4.935 2.43 1.552 0 3.178-.551 1.618-.559 2.504-1.328l.587 1.364q-1.066 1.103-3.127 1.88-2.032.733-4.093.733zm4.31-12.605q.11-.77.11-1.619-.037-2.43-1.176-3.867-1.11-1.437-3.433-1.437-5.043 0-5.486 6.923zm6.633 1.85q0-3.215 1.328-5.646 1.364-2.43 3.541-3.722 2.207-1.285 4.609-1.285 4.644 0 6.85 3.019 2.25 3.019 2.25 7.743 0 3.2-1.365 5.639-1.328 2.43-3.534 3.722-2.177 1.285-4.572 1.285-4.644 0-6.894-3.02-2.213-3.025-2.213-7.742zm9.289 8.839q2.837 0 4.39-2.177 1.546-2.177 1.546-6.335 0-3.984-1.437-6.524t-4.463-2.54q-2.83 0-4.427 2.177-1.538 2.17-1.538 6.335 0 4.013 1.437 6.56 1.473 2.504 4.5 2.504zm11.06-18.94h7.815v1.51l-2.729.478 3.94 10.943 1.815 5.24 1.538-5.051 3.948-11.132-2.583-.479v-1.51h7.039v1.51l-1.88.48-7.257 18.758h-2.467l-7.445-18.759-1.742-.479zm22.662 15.072q0-3.578 3.542-5.16 3.54-1.625 8.81-1.734v-1.14q0-1.886-.407-2.953-.363-1.103-1.328-1.582-.958-.515-2.685-.515-1.887 0-3.433.588-1.509.551-2.946 1.364l-.813-1.618q.407-.37 1.698-1.038 1.285-.653 2.947-1.175 1.654-.516 3.207-.516 2.504 0 3.94.697 1.474.704 2.105 2.25.66 1.553.66 4.165v12.162h2.286v1.365q-2.031.551-3.425.551-.885 0-1.219-.29-.334-.261-.334-1.255v-1.365q-1.32 1.183-2.902 2.105-1.553.878-3.542.878-2.656 0-4.426-1.473-1.735-1.473-1.735-4.31zm7.257 3.614q1.038 0 2.475-.668t2.612-1.582v-6.53q-4.456.043-6.778 1.335-2.286 1.291-2.286 3.461 0 2.104 1.074 3.062 1.067.922 2.903.922zm15.377-16.255-2.837-.624v-1.662l4.68-.588h.11l.696.588v1.618l-.036.922q1.364-1.176 3.614-2.177 2.25-.987 4.165-.987 2.358 0 3.614.921 1.291.886 1.77 2.758.508 1.843.508 4.978v10.435l2.773.254v1.582h-8.222v-1.582l2.467-.254v-10.471q0-2.322-.327-3.65-.29-1.328-1.219-1.989-.885-.696-2.612-.696-1.48 0-3.208.733-1.698.74-2.953 1.734v14.296l2.692.297v1.582h-8.142v-1.582l2.467-.29zm30.704 18.425q-4.282 0-6.604-2.903-2.279-2.953-2.279-7.823 0-3.127 1.212-5.566 1.22-2.43 3.353-3.759 2.177-1.357 4.862-1.357 3.287 0 5.094 1.88 1.843 1.88 1.989 5.413 0 2.286-.218 3.244h-13.128q0 3.868 1.735 6.343 1.77 2.43 4.934 2.43 1.553 0 3.172-.551t2.51-1.328l.588 1.364q-1.067 1.103-3.135 1.88-2.024.733-4.085.733zm4.31-12.605q.11-.77.11-1.619-.037-2.43-1.184-3.867-1.103-1.437-3.425-1.437-5.05 0-5.493 6.923zm19.87-13.193-4.093-.407v-1.582h8.693l5.711 17.025 1.365 4.935 1.219-4.935 5.674-17.025h8.629v1.582l-4.064.407 2.917 23.44 3.353.37v1.581h-9.913v-1.582l3.425-.333-1.69-16.807-.813-7.366-1.619 5.08-6.676 19.688h-1.473l-6.263-17.62-2.394-7.148-.74 7.366-1.51 16.807 3.607.333v1.582h-9.216v-1.582l3.135-.333zm34.085 25.798q-.85 0-1.437-.552-.588-.588-.588-1.51 0-1.03.697-1.734.74-.696 1.698-.696.994 0 1.473.588.515.587.515 1.473 0 1.03-.697 1.734t-1.661.697zm23.998 0q-1.887 0-3.317-.327-1.444-.334-3.323-.921-1.248-.407-1.51-.443l.29-6.56h1.924l.551 4.826q.704.66 2.214 1.139 1.545.479 3.352.479 2.983 0 4.572-1.364t1.582-3.76q0-1.545-.85-2.612-.805-1.067-2.133-1.807-1.291-.74-3.613-1.734-2.178-.922-3.723-1.843-1.51-.922-2.656-2.468-1.14-1.582-1.14-3.759 0-2.032 1.104-3.614 1.11-1.582 3.062-2.43 1.988-.886 4.535-.886 1.546 0 2.722.261 1.219.218 3.062.733.994.29 1.183.334l-.225 6.045h-1.843l-.66-4.572q-.443-.363-1.735-.697-1.255-.37-2.685-.37-2.736 0-4.173 1.14-1.437 1.11-1.437 3.316 0 1.517.777 2.54.776 1.001 1.988 1.705 1.22.697 3.76 1.88 2.655 1.248 4.128 2.177 1.51.878 2.613 2.351 1.146 1.437 1.146 3.505 0 1.952-1.139 3.759-1.146 1.77-3.316 2.874-2.177 1.103-5.087 1.103zm15.515 0q-.85 0-1.437-.552-.595-.588-.595-1.51 0-1.03.704-1.734.74-.696 1.698-.696.994 0 1.473.588.508.587.508 1.473 0 1.03-.697 1.734t-1.654.697z" aria-label="Geovane M. S."/><path d="M1170.105 890.035q1.698-.443 3.011-1.698 1.336-1.212 1.894-3.02.472-1.516.58-3.395.153-1.88.153-6.263v-16.038l-3.686-.435v-1.59h10.283v1.59l-3.534.435v18.106q0 2.322-.073 3.839-.073 1.473-.297 2.649-.603 2.982-2.765 4.833-2.141 1.836-4.754 2.315zm15.515-15.406q0-3.208 1.328-5.639 1.364-2.431 3.541-3.723 2.206-1.291 4.6-1.291 4.645 0 6.859 3.018 2.25 3.026 2.25 7.743 0 3.208-1.365 5.639-1.328 2.431-3.541 3.723-2.177 1.291-4.572 1.291-4.645 0-6.894-3.026-2.206-3.019-2.206-7.735zm9.288 8.846q2.838 0 4.384-2.177 1.553-2.177 1.553-6.336 0-3.984-1.437-6.53t-4.463-2.54q-2.838 0-4.427 2.176-1.546 2.177-1.546 6.336 0 4.02 1.437 6.56 1.48 2.51 4.5 2.51zm12.867-3.876q0-3.57 3.534-5.152 3.541-1.625 8.81-1.742v-1.139q0-1.88-.407-2.946-.363-1.103-1.328-1.582-.958-.523-2.685-.523-1.887 0-3.432.596-1.51.551-2.947 1.364l-.812-1.633q.406-.363 1.698-1.03 1.292-.66 2.946-1.183 1.662-.508 3.208-.508 2.503 0 3.94.696 1.48.697 2.104 2.25.66 1.546.66 4.165v12.163h2.287v1.364q-2.032.552-3.425.552-.886 0-1.22-.29-.326-.262-.326-1.263v-1.365q-1.328 1.183-2.917 2.105-1.546.885-3.534.885-2.656 0-4.427-1.473-1.727-1.473-1.727-4.318zm7.257 3.614q1.03 0 2.467-.66 1.437-.668 2.62-1.59v-6.523q-4.463.043-6.786 1.328-2.278 1.292-2.278 3.469 0 2.104 1.067 3.055 1.066.921 2.91.921zm-6.01-23.99q.371-1.474 1.401-2.54 1.075-1.11 2.838-1.11 1.11 0 1.843.442t1.698 1.328q.624.624 1.067.921.443.29.958.29 1.03 0 1.625-.768.58-.777.697-1.51l1.698.77q-1.146 3.722-4.165 3.722-1.067 0-1.807-.435-.697-.45-1.582-1.3-.704-.66-1.147-.957-.435-.29-.994-.29-1.03 0-1.546.587-.515.552-.776 1.067-.218.515-.29.631zm19.057 15.406q0-3.208 1.328-5.639 1.365-2.431 3.534-3.723 2.214-1.291 4.608-1.291 4.645 0 6.858 3.018 2.25 3.026 2.25 7.743 0 3.208-1.365 5.639-1.328 2.431-3.54 3.723-2.178 1.291-4.573 1.291-4.644 0-6.894-3.026-2.206-3.019-2.206-7.735zm9.289 8.846q2.837 0 4.383-2.177 1.553-2.177 1.553-6.336 0-3.984-1.437-6.53-1.444-2.54-4.463-2.54-2.837 0-4.426 2.176-1.546 2.177-1.546 6.336 0 4.02 1.437 6.56 1.473 2.51 4.499 2.51zm34.165 1.915q-3.904 0-6.778-1.77-2.88-1.77-4.39-4.862-1.51-3.099-1.51-7.003 0-4.5 1.807-7.743 1.844-3.28 4.971-4.978 3.135-1.727 7.04-1.727 2.438 0 4.353.326t3.977.813l-.29 6.117h-1.916l-.813-4.238q-.587-.479-1.988-.849-1.364-.399-3.65-.399-2.91 0-5.196 1.321-2.25 1.328-3.541 3.984-1.292 2.612-1.292 6.415 0 3.389 1.038 6.299 1.066 2.91 3.2 4.717 2.14 1.814 5.203 1.814 1.952 0 3.68-.45 1.77-.479 2.764-1.255v-8.404l-5.123-.363v-1.959h10.471v1.96l-2.25.362v9.993q-.776.036-2.612.624-1.887.588-3.505.922-1.59.333-3.65.333zm14.63-5.79q0-3.57 3.541-5.153 3.534-1.625 8.81-1.742v-1.139q0-1.88-.407-2.946-.362-1.103-1.328-1.582-.957-.523-2.685-.523-1.886 0-3.432.596-1.51.551-2.946 1.364l-.813-1.633q.406-.363 1.698-1.03 1.284-.66 2.946-1.183 1.655-.508 3.208-.508 2.503 0 3.94.696 1.473.697 2.105 2.25.66 1.546.66 4.165v12.163h2.286v1.364q-2.032.552-3.425.552-.886 0-1.22-.29-.333-.262-.333-1.263v-1.365q-1.328 1.183-2.903 2.105-1.553.885-3.541.885-2.656 0-4.427-1.473-1.734-1.473-1.734-4.318zm7.257 3.613q1.037 0 2.474-.66t2.613-1.59v-6.523q-4.456.043-6.778 1.328-2.286 1.292-2.286 3.469 0 2.104 1.074 3.055 1.067.921 2.903.921zm11.284-27.786 5.384-.631h.073l.697.515v11.204q1.146-1.066 2.728-1.8 1.626-.74 3.578-.74 2.177 0 3.976 1.067 1.844 1.074 2.954 3.317 1.14 2.25 1.14 5.638 0 3.171-1.292 5.791-1.292 2.576-3.687 4.093-2.395 1.51-5.53 1.51-2.278 0-4.346-.48-2.061-.479-2.504-.921v-26.872l-3.171-.327zm11.248 10.798q-1.553 0-2.917.733-1.365.74-2.177 1.626v13.642q.26.581 1.436.951 1.22.334 2.693.334 3.17 0 5.08-2.322 1.923-2.359 1.923-6.894 0-4.057-1.735-6.045-1.69-2.032-4.31-2.032zm12.78 17.213 2.953-.217v-16.256l-2.838-.631v-1.655l4.68-.595h.073l.697.595v.581l-.072 2.808h.072q.073-.072.958-1.11.922-1.067 2.692-2.025 1.814-.957 3.614-.957.588 0 1.103.145v3.243q-.145-.108-.66-.217-.48-.11-1.03-.11-2.105 0-3.578.625t-2.729 1.546v13.97l4.906.29v1.516h-10.842zm20.754-22.779q-1.989 0-1.989-2.104 0-1.067.624-1.727.624-.704 1.698-.704 1.103 0 1.582.631.48.58.48 1.473 0 1.14-.625 1.807-.595.624-1.734.624zm-1.183 6.3-2.874-.625v-1.655l5.05-.595h.073l.74.595v18.462l3.208.261v1.582h-9.434v-1.582l3.237-.298zm17.772 18.431q-4.282 0-6.604-2.91-2.286-2.953-2.286-7.815 0-3.135 1.22-5.566t3.352-3.76q2.177-1.363 4.862-1.363 3.287 0 5.087 1.886 1.843 1.873 1.995 5.414 0 2.286-.217 3.244h-13.128q0 3.868 1.735 6.335 1.77 2.43 4.934 2.43 1.553 0 3.171-.55 1.626-.552 2.511-1.329l.58 1.365q-1.059 1.11-3.12 1.886-2.031.726-4.1.726zm4.31-12.605q.109-.776.109-1.625-.036-2.431-1.183-3.868-1.103-1.437-3.425-1.437-5.05 0-5.493 6.93zm9.652-15.667-3.128-.327v-1.364l5.377-.631h.037l.703.479v27.866l3.462.261v1.582h-9.695v-1.582l3.244-.298zm30.63 28.272q-3.91 0-6.784-1.77t-4.384-4.862q-1.509-3.099-1.509-7.003 0-4.5 1.807-7.743 1.843-3.28 4.97-4.978 3.136-1.727 7.04-1.727 2.431 0 4.354.326 1.916.334 3.977.813l-.29 6.117h-1.924l-.805-4.238q-.595-.479-1.996-.849-1.364-.399-3.643-.399-2.917 0-5.203 1.321-2.25 1.328-3.534 3.984-1.291 2.612-1.291 6.415 0 3.389 1.03 6.299 1.074 2.91 3.207 4.717 2.141 1.814 5.196 1.814 1.96 0 3.687-.45 1.77-.479 2.765-1.255v-8.404l-5.124-.363v-1.959h10.472v1.96l-2.25.362v9.993q-.776.036-2.612.624-1.887.588-3.505.922-1.59.333-3.65.333zm17.141 0q-.849 0-1.444-.551-.58-.595-.58-1.517 0-1.03.696-1.727.733-.704 1.691-.704.994 0 1.473.595.523.58.523 1.473 0 1.03-.704 1.727t-1.655.704zm19.6-25.805-4.085-.399v-1.59h8.694l5.718 17.033 1.365 4.934 1.211-4.934 5.675-17.032h8.629v1.59l-4.057.405 2.91 23.44 3.353.363v1.589h-9.913v-1.582l3.432-.334-1.698-16.807-.813-7.372-1.618 5.087-6.676 19.68h-1.473l-6.263-17.62-2.395-7.147-.74 7.372-1.51 16.807 3.615.334v1.582h-9.224v-1.582l3.135-.334zm34.093 25.805q-.842 0-1.437-.551-.58-.595-.58-1.517 0-1.03.697-1.727.732-.704 1.69-.704.995 0 1.473.595.523.58.523 1.473 0 1.03-.704 1.727t-1.662.704z" aria-label="João Gabriel G. M."/><path d="M1539.968 885.81q1.69-.435 3.019-1.69 1.328-1.22 1.886-3.026.472-1.51.581-3.39.152-1.879.152-6.262v-16.037l-3.686-.436v-1.589h10.283v1.582l-3.541.443v18.105q0 2.322-.073 3.832-.073 1.473-.29 2.656-.595 2.982-2.765 4.826-2.14 1.843-4.753 2.322zm15.515-15.398q0-3.208 1.328-5.646 1.364-2.431 3.534-3.723 2.213-1.284 4.608-1.284 4.644 0 6.858 3.019 2.25 3.026 2.25 7.743 0 3.207-1.365 5.638-1.328 2.431-3.541 3.723-2.177 1.292-4.572 1.292-4.644 0-6.894-3.027-2.206-3.018-2.206-7.735zm9.289 8.838q2.837 0 4.383-2.177 1.553-2.17 1.553-6.335 0-3.977-1.437-6.524-1.444-2.54-4.463-2.54-2.837 0-4.427 2.178-1.545 2.177-1.545 6.335 0 4.02 1.436 6.56 1.474 2.503 4.5 2.503zm12.859-3.867q0-3.57 3.541-5.153 3.541-1.625 8.81-1.741v-1.14q0-1.886-.407-2.946-.362-1.11-1.328-1.59-.958-.507-2.685-.507-1.886 0-3.432.58-1.51.56-2.946 1.365l-.813-1.619q.406-.362 1.698-1.03 1.284-.668 2.946-1.183 1.662-.515 3.208-.515 2.503 0 3.94.704 1.473.696 2.105 2.25.66 1.545.66 4.157v12.163h2.286v1.364q-2.032.552-3.425.552-.886 0-1.22-.29-.333-.262-.333-1.256v-1.364q-1.321 1.183-2.903 2.104-1.553.886-3.541.886-2.656 0-4.427-1.48-1.734-1.474-1.734-4.311zm7.264 3.613q1.03 0 2.467-.667t2.613-1.582v-6.524q-4.456.036-6.778 1.328-2.279 1.292-2.279 3.461 0 2.105 1.067 3.063 1.067.921 2.91.921zm-6.009-23.99q.37-1.48 1.4-2.54 1.067-1.11 2.838-1.11 1.11 0 1.843.435t1.698 1.335q.624.624 1.067.914.443.298.958.298 1.03 0 1.626-.777.58-.769.696-1.509l1.698.776q-1.146 3.723-4.165 3.723-1.067 0-1.807-.442-.704-.443-1.582-1.292-.704-.66-1.147-.958-.435-.29-.994-.29-1.03 0-1.545.58-.516.559-.777 1.074-.218.515-.29.624zm19.056 15.406q0-3.208 1.328-5.646 1.365-2.431 3.535-3.723 2.213-1.284 4.608-1.284 4.644 0 6.857 3.019 2.25 3.026 2.25 7.743 0 3.207-1.364 5.638-1.328 2.431-3.542 3.723-2.177 1.292-4.571 1.292-4.645 0-6.894-3.027-2.207-3.018-2.207-7.735zm9.29 8.838q2.83 0 4.382-2.177 1.553-2.17 1.553-6.335 0-3.977-1.444-6.524t-4.456-2.54q-2.837 0-4.426 2.178-1.546 2.177-1.546 6.335 0 4.02 1.437 6.56 1.473 2.503 4.5 2.503zm24.84-23.882-2.947-.406v-1.582h4.456q.812 0 1.589-.036.805-.073 1.175-.073 1.916-.145 3.687-.145 5.196 0 7.33 1.952 2.176 1.916 2.176 5.784 0 2.91-1.4 5.05t-3.796 3.28q-2.394 1.104-5.34 1.104-1.183 0-2.432-.037-1.219-.072-1.48-.109v8.658l5.123.37v1.59H1628.9v-1.59l3.171-.327zm3.018 12.975q.922.146 3.984.146 3.171 0 5.196-1.764 2.032-1.814 2.032-5.863 0-3.208-1.742-4.572-1.727-1.4-5.442-1.4-1.147 0-2.548.145-1.11.072-1.48.072zm26.095 12.83q-4.274 0-6.596-2.917-2.286-2.946-2.286-7.808 0-3.135 1.22-5.566 1.218-2.438 3.352-3.759 2.177-1.364 4.862-1.364 3.287 0 5.087 1.88 1.843 1.879 1.996 5.413 0 2.286-.218 3.244h-13.128q0 3.875 1.735 6.342 1.77 2.431 4.934 2.431 1.553 0 3.172-.551t2.503-1.328l.595 1.364q-1.066 1.103-3.135 1.88-2.032.74-4.093.74zm4.318-12.605q.11-.776.11-1.625-.037-2.431-1.184-3.868-1.103-1.437-3.425-1.437-5.05 0-5.493 6.93zm14.739 12.606q-2.177 0-4.013-1.11-1.843-1.14-2.954-3.426-1.103-2.286-1.103-5.602 0-3.171 1.292-5.711 1.284-2.584 3.643-4.064 2.395-1.502 5.566-1.502 2.032 0 3.911.435v-7.293l-3.839-.363v-1.335l6.045-.624h.073l.704.515v28.011h2.25v1.437l-1.256.29q-1.067.262-2.286.262-.842 0-1.212-.29-.334-.29-.334-1.292v-1.292q-1.139 1.255-2.8 2.104-1.619.85-3.687.85zm1.219-2.323q1.582 0 2.983-.74 1.436-.776 2.14-1.698V862.85q-.29-.508-1.553-.885-1.212-.363-2.612-.363-3.171 0-5.087 2.286-1.916 2.25-1.916 6.85 0 4.13 1.69 6.118t4.355 1.995zm13.6.363 2.945-.218v-16.255l-2.83-.624v-1.669l4.674-.588h.072l.704.588v.588l-.072 2.801h.072l.958-1.103q.922-1.067 2.685-2.032 1.814-.95 3.614-.95.595 0 1.11.145v3.243q-.145-.108-.667-.217-.48-.116-1.03-.116-2.105 0-3.578.63-1.474.625-2.722 1.547v13.969l4.899.29v1.517h-10.835zm16.436-8.802q0-3.208 1.328-5.646 1.364-2.431 3.534-3.723 2.213-1.284 4.608-1.284 4.644 0 6.858 3.019 2.25 3.026 2.25 7.743 0 3.207-1.365 5.638-1.328 2.431-3.541 3.723-2.177 1.292-4.572 1.292-4.644 0-6.894-3.027-2.206-3.018-2.206-7.735zm9.289 8.838q2.837 0 4.383-2.177t1.553-6.335q0-3.977-1.437-6.524-1.444-2.54-4.463-2.54-2.838 0-4.427 2.178-1.545 2.177-1.545 6.335 0 4.02 1.436 6.56 1.474 2.503 4.5 2.503zm30.26 1.924q-1.886 0-3.316-.334t-3.324-.922q-1.248-.406-1.509-.443l.29-6.56h1.923l.552 4.826q.704.668 2.213 1.147 1.546.479 3.353.479 2.982 0 4.572-1.365t1.582-3.759q0-1.553-.85-2.612-.805-1.074-2.133-1.814-1.292-.733-3.614-1.728-2.177-.921-3.723-1.843-1.509-.921-2.656-2.467-1.139-1.597-1.139-3.766 0-2.032 1.103-3.607 1.11-1.59 3.063-2.438 1.988-.886 4.535-.886 1.546 0 2.721.262 1.22.217 3.063.74.994.29 1.183.326l-.225 6.045h-1.844l-.66-4.571q-.443-.363-1.734-.697-1.256-.363-2.685-.363-2.736 0-4.173 1.14-1.437 1.102-1.437 3.316 0 1.51.777 2.54.776.994 1.988 1.698 1.22.696 3.759 1.88 2.656 1.247 4.13 2.176 1.509.878 2.612 2.351 1.146 1.445 1.146 3.505 0 1.96-1.14 3.76-1.146 1.77-3.316 2.873-2.177 1.11-5.087 1.11zm15.508 0q-.842 0-1.43-.56-.594-.58-.594-1.509 0-1.03.703-1.734.74-.697 1.699-.697.994 0 1.473.588.508.588.508 1.473 0 1.038-.697 1.735-.697.704-1.655.704zm27.358 0q-3.947 0-6.785-1.771t-4.31-4.978q-1.473-3.208-1.473-7.475 0-4.027 1.727-7.191 1.734-3.172 4.717-4.906 2.99-1.77 6.676-1.77 1.88 0 3.607.297 1.77.29 2.837.551t1.328.334l-.29 6.009h-1.916l-.813-4.282q-.551-.471-1.988-.805-1.444-.334-3.505-.334-2.54 0-4.572 1.4-2.032 1.365-3.208 4.02-1.139 2.65-1.139 6.336 0 3.469.994 6.379 1.03 2.91 3.099 4.68 2.06 1.735 5.08 1.735 2.104 0 3.287-.334 1.176-.363 1.988-1.03l1.473-3.47 1.807.262-.921 4.935q-.886.043-2.14.486-1.322.435-2.54.66-1.22.262-3.027.262zm14.405 0q-.849 0-1.437-.56-.588-.58-.588-1.509 0-1.03.697-1.734.74-.697 1.698-.697.994 0 1.473.588.516.588.516 1.473 0 1.038-.697 1.735-.704.704-1.662.704z" aria-label="João Pedro S. C."/><path d="m959.245 980.775 3.171-.326v-23.512l-2.946-.45v-1.51h4.5q.986 0 2.83-.145 1.77-.145 2.619-.145 5.268 0 7.518 1.764 2.25 1.77 2.25 5.457 0 2.685-1.51 4.862-1.473 2.177-4.02 2.917.958.624 1.916 2.105.994 1.43 2.43 4.013 1.256 2.25 1.996 3.389.77 1.103 1.365 1.219l1.545.399v1.553h-4.31q-.595 0-1.364-1.256-.777-1.255-2.178-4.056-1.509-3.055-2.503-4.68-.958-1.62-1.916-2.178-4.5 0-5.203-.029v10.283l3.803.326v1.59h-9.993zm11.175-12.38q2.54 0 4.013-1.589 1.474-1.582 1.474-4.644 0-2.685-1.51-4.158-1.517-1.517-5.276-1.517-1.284 0-2.54.145-.885.073-1.146.073v11.661q.668.037 2.656.037zm23.142 14.376q-4.281 0-6.603-2.917-2.279-2.946-2.279-7.808 0-3.135 1.212-5.566 1.219-2.431 3.353-3.76 2.177-1.364 4.862-1.364 3.287 0 5.094 1.88 1.843 1.88 1.988 5.413 0 2.286-.217 3.244h-13.128q0 3.875 1.742 6.343 1.763 2.43 4.934 2.43 1.546 0 3.171-.55 1.619-.552 2.504-1.329l.588 1.364q-1.067 1.103-3.135 1.887-2.025.726-4.086.726zm4.31-12.612q.11-.777.11-1.626-.037-2.43-1.176-3.868-1.11-1.436-3.432-1.436-5.051 0-5.486 6.93zm4.87-17.351 5.37-.632h.08l.697.516v11.204q1.146-1.067 2.728-1.807 1.626-.733 3.578-.733 2.177 0 3.977 1.067 1.843 1.067 2.953 3.316 1.14 2.25 1.14 5.639 0 3.171-1.292 5.79-1.285 2.577-3.68 4.086-2.394 1.517-5.53 1.517-2.285 0-4.353-.479-2.061-.479-2.504-.921v-26.872l-3.171-.334zm11.234 10.798q-1.546 0-2.903.733-1.372.74-2.177 1.625v13.629q.254.587 1.437.958 1.212.333 2.685.333 3.171 0 5.087-2.322 1.916-2.358 1.916-6.894 0-4.056-1.728-6.045-1.698-2.032-4.317-2.032zm21.603 19.165q-4.281 0-6.603-2.917-2.28-2.946-2.28-7.808 0-3.135 1.213-5.566 1.219-2.431 3.352-3.76 2.177-1.364 4.862-1.364 3.288 0 5.095 1.88 1.843 1.88 1.988 5.413 0 2.286-.218 3.244h-13.127q0 3.875 1.741 6.343 1.764 2.43 4.935 2.43 1.546 0 3.164-.55 1.626-.552 2.51-1.329l.589 1.364q-1.067 1.103-3.135 1.887-2.025.726-4.086.726zm4.31-12.612q.11-.777.11-1.626-.037-2.43-1.176-3.868-1.11-1.436-3.432-1.436-5.051 0-5.494 6.93zm6.227 2.104q0-2.982 1.147-5.457 1.175-2.503 3.461-3.977 2.322-1.473 5.639-1.473 1.437 0 2.8.363 1.365.334 2.36.74l-.146 5.269h-1.843l-.777-3.534q-.217-1.103-3.17-1.103-2.874 0-4.602 2.206-1.698 2.213-1.698 6.045 0 4.571 1.844 6.93 1.843 2.358 4.789 2.358 1.546 0 2.99-.515 1.473-.515 2.43-1.183l.589 1.22q-1.067 1.066-2.947 1.843t-3.722.776q-2.918 0-4.979-1.364-2.06-1.4-3.134-3.76-1.03-2.394-1.03-5.384zm19.39 4.717q0-3.57 3.534-5.152 3.542-1.626 8.81-1.742v-1.132q0-1.88-.406-2.946-.363-1.11-1.328-1.59-.958-.507-2.685-.507-1.887 0-3.433.58-1.51.559-2.946 1.365l-.813-1.619q.407-.363 1.698-1.03 1.292-.668 2.947-1.183 1.661-.508 3.207-.508 2.504 0 3.94.697 1.48.696 2.105 2.25.66 1.545.66 4.157v12.163h2.286v1.364q-2.032.552-3.425.552-.885 0-1.22-.29-.326-.262-.326-1.256v-1.364q-1.328 1.182-2.917 2.104-1.546.885-3.534.885-2.656 0-4.427-1.48-1.727-1.473-1.727-4.31zm7.257 3.614q1.03 0 2.467-.66t2.62-1.59v-6.516q-4.456.036-6.778 1.328-2.286 1.292-2.286 3.461 0 2.105 1.067 3.063 1.067.921 2.91.921zm26.277-23.628-4.086-.4v-1.588h8.694l5.718 17.031 1.357 4.935 1.22-4.935 5.674-17.031h8.629v1.589l-4.057.399 2.91 23.44 3.353.37v1.589h-9.913v-1.59l3.432-.326-1.698-16.807-.812-7.373-1.619 5.08-6.676 19.688h-1.473l-6.263-17.627-2.394-7.148-.74 7.373-1.51 16.807 3.614.326v1.59h-9.216v-1.59l3.135-.326zm34.092 25.805q-.841 0-1.436-.559-.588-.58-.588-1.51 0-1.03.704-1.726.733-.704 1.69-.704.995 0 1.474.588.515.595.515 1.473 0 1.038-.697 1.741-.704.697-1.662.697zm36.081 0q-3.94 0-6.778-1.77-2.83-1.771-4.31-4.979-1.473-3.207-1.473-7.474 0-4.02 1.727-7.192 1.741-3.17 4.717-4.905 2.99-1.764 6.676-1.764 1.88 0 3.614.29 1.763.29 2.83.552t1.328.334l-.29 6.009h-1.916l-.813-4.282q-.551-.472-1.988-.805t-3.505-.334q-2.54 0-4.572 1.4-2.025 1.365-3.2 4.02-1.147 2.657-1.147 6.336 0 3.468.994 6.386 1.038 2.902 3.099 4.673 2.06 1.734 5.08 1.734 2.104 0 3.287-.333 1.176-.363 1.988-1.03l1.474-3.462 1.814.254-.93 4.934q-.884.044-2.133.486-1.328.436-2.54.66-1.219.262-3.026.262zm14.412 0q-.842 0-1.437-.559-.58-.58-.58-1.51 0-1.03.696-1.726.733-.704 1.691-.704.994 0 1.473.588.516.595.516 1.473 0 1.038-.697 1.741-.704.697-1.662.697z" aria-label="Rebeca M. C."/><path d="m1519.44 956.974-2.953-.414v-1.582h4.462q.813 0 1.582-.036.813-.072 1.183-.072 1.916-.146 3.687-.146 5.196 0 7.33 1.953 2.176 1.915 2.176 5.783 0 2.91-1.4 5.05t-3.796 3.281q-2.394 1.103-5.34 1.103-1.184 0-2.439-.036-1.212-.073-1.473-.11v8.658l5.123.37v1.59h-11.32v-1.59l3.178-.326zm3.019 12.968q.921.145 3.984.145 3.164 0 5.196-1.763 2.032-1.815 2.032-5.864 0-3.207-1.742-4.572-1.727-1.4-5.45-1.4-1.146 0-2.54.145-1.11.073-1.48.073zm17.358 7.039q0-3.578 3.541-5.152 3.535-1.626 8.81-1.742v-1.14q0-1.886-.406-2.945-.37-1.11-1.328-1.59-.958-.508-2.685-.508-1.887 0-3.433.58-1.51.56-2.946 1.365l-.813-1.618q.407-.363 1.691-1.03 1.292-.668 2.954-1.183 1.654-.516 3.207-.516 2.504 0 3.94.704 1.474.697 2.105 2.25.66 1.546.66 4.158v12.162h2.286v1.365q-2.032.551-3.425.551-.885 0-1.219-.29-.334-.261-.334-1.256v-1.364q-1.328 1.183-2.91 2.105-1.545.885-3.541.885-2.649 0-4.42-1.48-1.734-1.474-1.734-4.311zm7.257 3.614q1.038 0 2.475-.668 1.436-.66 2.612-1.582v-6.524q-4.456.037-6.778 1.328-2.286 1.292-2.286 3.462 0 2.104 1.074 3.062 1.067.922 2.903.922zm13.019.181 2.358-.29V964.34l-2.837-.624v-1.662l4.68-.588.806.588v1.625l-.036.922q1.364-1.183 3.577-2.177t4.02-.994q1.989 0 3.164.66 1.22.668 1.844 2.068 1.146-.958 3.323-1.843 2.206-.885 4.05-.885 2.322 0 3.577.885 1.292.885 1.807 2.729t.508 4.97v10.472l2.808.29v1.59h-8.258v-1.59l2.504-.29v-10.363q0-2.322-.327-3.679t-1.291-2.068q-.958-.697-2.802-.697-1.364 0-2.873.624-1.473.588-2.54 1.365.363 1.698.363 4.426v10.392l2.8.29v1.59h-8.439v-1.59l2.656-.29v-10.435q0-2.359-.29-3.687-.261-1.32-1.147-1.988-.885-.66-2.612-.66-1.444 0-3.142.733-1.655.703-2.903 1.698v14.34l2.612.29v1.589h-7.96zm45.26 1.996q-4.281 0-6.603-2.917-2.279-2.947-2.279-7.809 0-3.135 1.212-5.566t3.353-3.759q2.177-1.364 4.862-1.364 3.287 0 5.094 1.88 1.843 1.88 1.988 5.413 0 2.286-.217 3.244h-13.128q0 3.875 1.734 6.342 1.771 2.431 4.935 2.431 1.553 0 3.171-.551t2.511-1.328l.588 1.364q-1.067 1.103-3.135 1.88-2.025.74-4.086.74zm4.31-12.605q.11-.777.11-1.626-.037-2.43-1.183-3.867-1.103-1.437-3.425-1.437-5.051 0-5.494 6.93zm9.652-15.668-3.127-.333V952.8l5.377-.624h.036l.704.48v27.865l3.462.254v1.59h-9.695v-1.59l3.243-.29zm9.325 22.482q0-3.578 3.542-5.152 3.541-1.626 8.81-1.742v-1.14q0-1.886-.407-2.945-.363-1.11-1.328-1.59-.958-.508-2.685-.508-1.887 0-3.432.58-1.51.56-2.947 1.365l-.812-1.618q.406-.37 1.698-1.03 1.284-.668 2.946-1.183 1.654-.516 3.207-.516 2.504 0 3.94.704 1.474.697 2.105 2.25.66 1.546.66 4.158v12.162h2.287v1.365q-2.032.551-3.426.551-.885 0-1.219-.29-.334-.261-.334-1.256v-1.364q-1.32 1.183-2.902 2.105-1.553.885-3.542.885-2.656 0-4.426-1.48-1.735-1.474-1.735-4.311zm7.264 3.614q1.03 0 2.468-.668 1.437-.66 2.612-1.582v-6.524q-4.455.037-6.778 1.328-2.286 1.292-2.286 3.462 0 2.104 1.074 3.062 1.067.922 2.91.922zm25.138-23.621-3.244-.414v-1.582h19.31l.37 6.045h-2.031l-.994-4.165-10.392-.181v10.906l7.373-.108.624-2.99h1.698v8.15h-1.698l-.624-3.136-7.373-.145v11.096l5.79.326v1.59h-11.828v-1.59l3.019-.326zm22.111 25.798q-.849 0-1.436-.559-.588-.58-.588-1.51 0-1.03.696-1.734.74-.696 1.699-.696.994 0 1.473.588.515.587.515 1.473 0 1.037-.697 1.734t-1.662.704zm23.991 0q-1.88 0-3.316-.334t-3.316-.921q-1.248-.407-1.51-.443l.29-6.56h1.924l.551 4.826q.697.667 2.213 1.146 1.546.479 3.353.479 2.983 0 4.572-1.364 1.582-1.365 1.582-3.76 0-1.552-.85-2.612-.812-1.074-2.133-1.814-1.291-.733-3.614-1.727-2.177-.922-3.722-1.843-1.51-.922-2.656-2.468-1.14-1.596-1.14-3.766 0-2.032 1.103-3.606 1.11-1.59 3.063-2.439 1.988-.885 4.528-.885 1.553 0 2.729.261 1.219.218 3.062.74.994.29 1.176.327l-.218 6.045h-1.843l-.668-4.572q-.435-.363-1.727-.697-1.256-.362-2.692-.362-2.729 0-4.166 1.139-1.437 1.103-1.437 3.316 0 1.51.777 2.54.77.994 1.988 1.698 1.22.697 3.76 1.88 2.655 1.248 4.128 2.177 1.51.878 2.613 2.35 1.146 1.445 1.146 3.506 0 1.96-1.146 3.759-1.14 1.77-3.317 2.874-2.177 1.11-5.08 1.11zm15.523 0q-.85 0-1.437-.559-.595-.58-.595-1.51 0-1.03.704-1.734.733-.696 1.69-.696 1.002 0 1.481.588.508.587.508 1.473 0 1.037-.697 1.734t-1.654.704zm18.57-25.798-3.092-.414v-1.582h9.797v1.582l-3.679.407v23.483l10.5-.298 2.069-5.747 1.77.29-1.364 7.67h-19.165v-1.589l3.164-.326zm22.525 25.798q-.849 0-1.437-.559-.595-.58-.595-1.51 0-1.03.704-1.734.733-.696 1.69-.696 1.002 0 1.481.588.508.587.508 1.473 0 1.037-.696 1.734t-1.655.704zm26.16 0q-3.57 0-6.153-1.742-2.54-1.763-3.868-4.898-1.328-3.128-1.328-7.257 0-4.238 1.626-7.445 1.618-3.244 4.426-4.978 2.794-1.771 6.227-1.771 3.643 0 6.226 1.698 2.612 1.698 3.94 4.79 1.365 3.098 1.365 7.256 0 4.282-1.655 7.562-1.662 3.244-4.5 5.007-2.83 1.778-6.298 1.778zm.596-26.357q-3.948 0-6.263 3.208-2.322 3.171-2.322 9.252 0 3.534.994 6.3t2.903 4.317q1.923 1.546 4.572 1.546 2.583 0 4.499-1.401 1.916-1.437 2.99-4.281 1.066-2.83 1.066-6.923 0-3.578-.994-6.27-.994-2.722-2.91-4.238-1.886-1.51-4.535-1.51zm17.583 26.357q-.849 0-1.444-.559-.58-.58-.58-1.51 0-1.03.696-1.734.733-.696 1.69-.696.995 0 1.474.588.523.587.523 1.473 0 1.037-.704 1.734t-1.655.704z" aria-label="Pamela F. S. L. O."/><path d="M1239.493 951.718h8.955v1.582l-3.396.407 6.415 17.764 1.552 5.007 1.401-5.08 5.747-17.691-2.946-.407v-1.582h7.772v1.582l-2.358.407-8.883 25.689h-2.43l-9.55-25.69-2.28-.406zm26.756 22.003q0-3.578 3.534-5.16 3.541-1.625 8.81-1.734v-1.14q0-1.886-.407-2.953-.363-1.103-1.32-1.582-.959-.515-2.693-.515-1.887 0-3.432.588-1.51.551-2.947 1.364l-.812-1.618q.406-.37 1.698-1.038 1.291-.66 2.946-1.176 1.662-.515 3.207-.515 2.511 0 3.948.697 1.473.704 2.105 2.25.653 1.545.653 4.165v12.162h2.286v1.364q-2.025.552-3.426.552-.885 0-1.212-.29-.333-.262-.333-1.256v-1.364q-1.328 1.176-2.91 2.105-1.553.878-3.542.878-2.656 0-4.426-1.474-1.727-1.473-1.727-4.31zm7.256 3.614q1.038 0 2.468-.668t2.62-1.582v-6.53q-4.456.043-6.778 1.334-2.286 1.285-2.286 3.462 0 2.104 1.066 3.062 1.067.922 2.91.922zm16.074-26.096-3.135-.333v-1.365l5.385-.624h.036l.697.48v27.865l3.469.254v1.582h-9.696v-1.582l3.244-.29zm15.479 28.273q-1.96 0-2.946-.893-1.002-.921-1.002-3.244v-14.557h-2.8v-1.437q1.842-.406 2.14-.587.551-.29.813-1.14.217-.558.587-1.995.363-1.437.552-2.25h1.698v5.24h6.524v2.177h-6.531v11.937q0 2.134.152 3.019.145.849.588 1.11.443.254 1.553.254 1.067 0 2.395-.29 1.328-.298 1.988-.631l.479 1.4q-.849.668-2.801 1.292-1.952.588-3.389.588zm17.54 0q-4.275 0-6.597-2.917-2.286-2.947-2.286-7.816 0-3.128 1.22-5.566 1.219-2.431 3.352-3.759 2.177-1.364 4.862-1.364 3.288 0 5.094 1.887 1.836 1.872 1.989 5.413 0 2.286-.218 3.244h-13.127q0 3.868 1.734 6.342 1.77 2.431 4.935 2.431 1.553 0 3.17-.551 1.626-.559 2.512-1.328l.58 1.364q-1.06 1.103-3.12 1.88-2.032.733-4.1.733zm4.317-12.612q.11-.77.11-1.619-.037-2.43-1.184-3.868-1.103-1.444-3.425-1.444-5.05 0-5.493 6.93zm6.778 10.653 2.954-.218V961.08l-2.845-.632v-1.654l4.68-.588h.073l.704.58v.595l-.072 2.802h.072l.958-1.103q.922-1.067 2.685-2.032 1.814-.958 3.621-.958.58 0 1.103.145v3.25q-.145-.115-.66-.217-.479-.116-1.038-.116-2.104 0-3.57.624t-2.729 1.553v13.97l4.899.29v1.51h-10.835zm25.356-.037 3.17-.334V953.67l-2.945-.442v-1.51h4.499q.994 0 2.83-.145 1.77-.145 2.62-.145 5.275 0 7.518 1.763 2.25 1.771 2.25 5.458 0 2.685-1.51 4.862-1.473 2.177-4.02 2.91.957.63 1.915 2.104 1.002 1.437 2.439 4.013 1.248 2.25 1.988 3.396.776 1.103 1.364 1.212l1.546.407v1.545h-4.31q-.588 0-1.365-1.248-.776-1.255-2.177-4.057-1.51-3.055-2.503-4.68-.958-1.618-1.916-2.177-4.5 0-5.196-.036v10.282l3.795.334v1.582h-9.992zm11.175-12.38q2.54 0 4.013-1.59 1.473-1.581 1.473-4.643 0-2.685-1.51-4.166-1.509-1.51-5.268-1.51-1.291 0-2.54.146-.892.072-1.146.072v11.648q.66.043 2.649.043zm16.916 14.376q-.85 0-1.437-.559-.595-.588-.595-1.51 0-1.03.704-1.734.733-.696 1.69-.696 1.002 0 1.48.58.509.595.509 1.48 0 1.031-.697 1.735-.696.697-1.654.697zm23.99 0q-1.886 0-3.316-.334t-3.316-.922q-1.256-.406-1.51-.442l.29-6.56h1.917l.551 4.825q.704.66 2.213 1.14 1.546.479 3.353.479 2.99 0 4.572-1.357 1.59-1.365 1.59-3.767 0-1.545-.85-2.612-.813-1.067-2.14-1.807-1.292-.74-3.615-1.734-2.177-.922-3.722-1.844-1.51-.921-2.65-2.467-1.146-1.582-1.146-3.759 0-2.032 1.11-3.614 1.104-1.582 3.056-2.43 1.988-.886 4.535-.886 1.546 0 2.729.261 1.212.218 3.055.733.994.29 1.183.334l-.218 6.045h-1.85l-.66-4.572q-.443-.363-1.735-.697-1.248-.37-2.685-.37-2.729 0-4.166 1.14-1.436 1.11-1.436 3.316 0 1.516.769 2.54.776 1.001 1.988 1.698 1.22.704 3.76 1.887 2.655 1.248 4.136 2.177 1.509.878 2.612 2.35 1.14 1.438 1.14 3.506 0 1.952-1.14 3.759-1.147 1.77-3.316 2.874t-5.087 1.103zm15.516 0q-.85 0-1.437-.559-.588-.588-.588-1.51 0-1.03.697-1.734.74-.696 1.698-.696.994 0 1.473.58.515.595.515 1.48 0 1.031-.697 1.735-.703.697-1.661.697zm13.41 4.644q1.706-.45 3.026-1.698 1.328-1.219 1.887-3.026.472-1.51.58-3.389.146-1.887.146-6.27V953.75l-3.68-.435v-1.597h10.283v1.597l-3.54.435v18.099q0 2.322-.073 3.831-.073 1.473-.29 2.656-.596 2.983-2.766 4.826-2.14 1.843-4.753 2.322zm18.251-4.644q-.849 0-1.437-.559-.588-.588-.588-1.51 0-1.03.697-1.734.74-.696 1.698-.696.994 0 1.473.58.516.595.516 1.48 0 1.031-.704 1.735-.697.697-1.655.697z" aria-label="Valter R. S. J."/></g></svg>