<?xml version="1.0" encoding="UTF-8"?>
<!-- Created with Inkscape (http://www.inkscape.org/) -->
<svg width="1920" height="1080" version="1.1" viewBox="0 0 1920 1080" xmlns="http://www.w3.org/2000/svg">
 <g transform="translate(169.57388,85.092133)" fill="#ed4e38" stroke-width=".0133091">
  <g transform="translate(18.61278,1.4026572e-5)">
   <g transform="matrix(7.2567965,0,0,7.2567965,-8334.4535,-144.91518)" stop-color="#000000" style="shape-inside:url(#rect11022);white-space:pre" aria-label="Camila S.">
    <path d="m1311.2878 117.60007q-0.5435 0-0.9345-0.24378-0.3911-0.24379-0.5943-0.68566-0.2031-0.44186-0.2031-1.03101 0-0.5536 0.2387-0.99039 0.2387-0.43678 0.6501-0.67549 0.4114-0.24379 0.9193-0.24379 0.259 0 0.4977 0.0406 0.2438 0.0406 0.3911 0.0762t0.1828 0.0457l-0.041 0.82786h-0.2641l-0.1117-0.58916q-0.076-0.066-0.2743-0.11173-0.1981-0.0457-0.4825-0.0457-0.3504 0-0.6298 0.193-0.2793 0.18792-0.4419 0.5536-0.1574 0.36568-0.1574 0.87357 0 0.47741 0.1371 0.87865 0.1422 0.40123 0.4267 0.64502 0.2844 0.23871 0.7008 0.23871 0.2895 0 0.4521-0.0457 0.1625-0.0508 0.2742-0.14221l0.2032-0.47742 0.2489 0.0356-0.127 0.68057q-0.1219 5e-3 -0.2946 0.066-0.1828 0.0609-0.3504 0.0914-0.1676 0.0356-0.4165 0.0356z"/>
    <path d="m1312.9283 116.80269q0-0.49266 0.4875-0.71105 0.4876-0.22347 1.2139-0.23871v-0.15744q0-0.25903-0.056-0.40632-0.051-0.15236-0.1828-0.21839-0.1321-0.0711-0.3708-0.0711-0.259 0-0.4723 0.0813-0.2082 0.0762-0.4063 0.18792l-0.1118-0.22347q0.056-0.0508 0.2337-0.14221 0.1777-0.0914 0.4063-0.16253 0.2285-0.0711 0.4419-0.0711 0.3453 0 0.5434 0.0965 0.2031 0.0965 0.2895 0.30981 0.091 0.21331 0.091 0.57391v1.67604h0.3149v0.18792q-0.2793 0.0762-0.4723 0.0762-0.1219 0-0.1676-0.0406-0.046-0.0356-0.046-0.17268v-0.18792q-0.1829 0.16253-0.4013 0.2895-0.2133 0.12189-0.4876 0.12189-0.3656 0-0.6094-0.20315-0.2387-0.20316-0.2387-0.59423zm1.0005 0.49773q0.1422 0 0.3403-0.0914t0.3606-0.2184v-0.89896q-0.6145 5e-3 -0.9345 0.18284-0.3149 0.17776-0.3149 0.47742 0 0.28949 0.1473 0.42154 0.1473 0.12698 0.4012 0.12698z"/>
    <path d="m1315.7217 117.32581 0.325-0.0406v-2.22456l-0.3911-0.0863v-0.22855l0.6451-0.0813 0.1117 0.0813v0.22347l-0.01 0.12697q0.1879-0.16252 0.4927-0.29965 0.3047-0.13713 0.5536-0.13713 0.2742 0 0.4367 0.0914 0.1677 0.0914 0.254 0.28442 0.1574-0.13205 0.4571-0.25395 0.3047-0.12189 0.5587-0.12189 0.3199 0 0.4926 0.12189 0.1778 0.1219 0.2489 0.37584 0.071 0.25395 0.071 0.68565v1.44241l0.386 0.0406v0.21839h-1.1377v-0.21839l0.3454-0.0406v-1.42717q0-0.31997-0.046-0.50789t-0.1778-0.28442q-0.132-0.0965-0.386-0.0965-0.1879 0-0.3961 0.0863-0.2032 0.0813-0.3505 0.18792 0.051 0.23363 0.051 0.60947v1.43225l0.386 0.0406v0.21839h-1.1631v-0.21839l0.3657-0.0406v-1.43733q0-0.32505-0.041-0.50789-0.036-0.18284-0.1575-0.27426-0.1219-0.0914-0.3606-0.0914-0.198 0-0.4317 0.10158-0.2285 0.0965-0.4012 0.23363v1.97569l0.3606 0.0406v0.21839h-1.097z"/>
    <path d="m1321.3186 114.19213q-0.2743 0-0.2743-0.2895 0-0.14728 0.086-0.2387 0.086-0.0965 0.2336-0.0965 0.1524 0 0.2184 0.0863 0.066 0.0813 0.066 0.20315 0 0.15745-0.086 0.24887-0.081 0.0863-0.2387 0.0863zm-0.1625 0.86849-0.3962-0.0863v-0.22855l0.6958-0.0813h0.01l0.1016 0.0813v2.54453l0.4418 0.0356v0.21839h-1.3002v-0.21839l0.447-0.0406z"/>
    <path d="m1322.7864 113.70456-0.4317-0.0457v-0.18792l0.7415-0.0863h0.01l0.096 0.066v3.83965l0.4774 0.0356v0.21839h-1.3357v-0.21839l0.4469-0.0406z"/>
    <path d="m1324.0714 116.80269q0-0.49266 0.4875-0.71105 0.4876-0.22347 1.2139-0.23871v-0.15744q0-0.25903-0.056-0.40632-0.051-0.15236-0.1828-0.21839-0.1321-0.0711-0.3708-0.0711-0.259 0-0.4723 0.0813-0.2083 0.0762-0.4063 0.18792l-0.1118-0.22347q0.056-0.0508 0.2337-0.14221 0.1777-0.0914 0.4063-0.16253 0.2285-0.0711 0.4418-0.0711 0.3454 0 0.5435 0.0965 0.2031 0.0965 0.2895 0.30981 0.091 0.21331 0.091 0.57391v1.67604h0.3149v0.18792q-0.2793 0.0762-0.4723 0.0762-0.1219 0-0.1677-0.0406-0.046-0.0356-0.046-0.17268v-0.18792q-0.1828 0.16253-0.4012 0.2895-0.2133 0.12189-0.4876 0.12189-0.3656 0-0.6094-0.20315-0.2387-0.20316-0.2387-0.59423zm1.0005 0.49773q0.1422 0 0.3403-0.0914t0.3606-0.2184v-0.89896q-0.6146 5e-3 -0.9345 0.18284-0.3149 0.17776-0.3149 0.47742 0 0.28949 0.1473 0.42154 0.1473 0.12698 0.4012 0.12698z"/>
    <path d="m1329.2975 117.60007q-0.259 0-0.4571-0.0457-0.198-0.0457-0.4571-0.12697-0.1726-0.0559-0.2082-0.061l0.041-0.90404h0.2641l0.076 0.66533q0.096 0.0914 0.3048 0.15745 0.2133 0.066 0.4621 0.066 0.4114 0 0.6298-0.18792t0.2184-0.51805q0-0.21331-0.1168-0.3606-0.1117-0.14729-0.2946-0.24887-0.1777-0.10158-0.4977-0.23871-0.2997-0.12697-0.513-0.25394-0.2082-0.12697-0.3657-0.34029-0.1574-0.21839-0.1574-0.51805 0-0.27934 0.1524-0.49773 0.1523-0.21839 0.4215-0.33521 0.2743-0.12189 0.6247-0.12189 0.2133 0 0.3758 0.0356 0.1677 0.0305 0.4216 0.10158 0.1371 0.0406 0.1625 0.0457l-0.03 0.83294h-0.2546l-0.091-0.62978q-0.061-0.0508-0.2387-0.0965-0.1727-0.0508-0.3708-0.0508-0.3758 0-0.5739 0.15745-0.1981 0.15236-0.1981 0.4571 0 0.20823 0.1067 0.35044 0.1066 0.13713 0.2742 0.23363t0.5181 0.25902q0.3657 0.17269 0.5688 0.29966 0.2083 0.12189 0.3606 0.32505 0.1575 0.19808 0.1575 0.48249 0 0.26919-0.1575 0.51805-0.1574 0.24379-0.4571 0.39616-0.2996 0.15236-0.7009 0.15236z"/>
    <path d="m1331.4358 117.60007q-0.1169 0-0.1981-0.0762-0.081-0.0813-0.081-0.20824 0-0.14221 0.096-0.2387 0.1016-0.0965 0.2336-0.0965 0.1372 0 0.2032 0.0813 0.071 0.0813 0.071 0.20316 0 0.1422-0.097 0.2387-0.096 0.0965-0.2285 0.0965z"/>
   </g>
   <g transform="matrix(7.2567965,0,0,7.2567965,-319.05089,-61.425362)" stop-color="#000000" style="shape-inside:url(#rect21758);white-space:pre" aria-label="Geovane M. S.">
    <path d="m235.99288 105.92234q-0.53836 0-0.93452-0.24379-0.39615-0.24379-0.60438-0.67041-0.20824-0.42663-0.20824-0.96499 0-0.61963 0.24887-1.06657 0.25394-0.45203 0.68565-0.68566 0.4317-0.2387 0.97007-0.2387 0.33521 0 0.59931 0.0457t0.54852 0.11173l-0.0406 0.8431h-0.2641l-0.11174-0.58407q-0.0813-0.066-0.27426-0.11682-0.18792-0.0559-0.50281-0.0559-0.40124 0-0.71613 0.18284-0.30981 0.18284-0.48757 0.54853-0.17776 0.3606-0.17776 0.88372 0 0.46726 0.14221 0.8685 0.14728 0.40123 0.44186 0.65009 0.29458 0.24887 0.71613 0.24887 0.26918 0 0.50789-0.061 0.24378-0.066 0.38091-0.17268v-1.15799l-0.70596-0.0508v-0.26918h1.4424v0.26918l-0.30981 0.0508v1.37638q-0.10666 5e-3 -0.3606 0.0864-0.25903 0.0813-0.4825 0.12697-0.21839 0.0457-0.50281 0.0457z"/>
    <path d="m239.2129 105.92234q-0.58915 0-0.90912-0.40123-0.3149-0.40632-0.3149-1.07673 0-0.43171 0.16761-0.76692 0.1676-0.3352 0.46218-0.51804 0.29965-0.18792 0.67041-0.18792 0.45202 0 0.70089 0.25902 0.25395 0.25903 0.27426 0.7466 0 0.31489-0.0305 0.44694h-1.80809q0 0.53329 0.23871 0.87357 0.24379 0.33521 0.68057 0.33521 0.21331 0 0.43679-0.0762 0.22347-0.0762 0.34536-0.18284l0.0813 0.18792q-0.14728 0.15236-0.4317 0.25902-0.27934 0.10158-0.56376 0.10158zm0.59423-1.73699q0.0152-0.10665 0.0152-0.22347-5e-3 -0.3352-0.16253-0.53328-0.15236-0.19808-0.47234-0.19808-0.6958 0-0.75675 0.95483z"/>
    <path d="m240.72133 104.4393q0-0.44186 0.18284-0.77707 0.18792-0.33521 0.48757-0.51297 0.30474-0.17776 0.63486-0.17776 0.63995 0 0.94468 0.41647 0.30981 0.41647 0.30981 1.06657 0 0.44186-0.18792 0.77707-0.18284 0.33521-0.48757 0.51297-0.29966 0.17776-0.62978 0.17776-0.63995 0-0.94976-0.41647-0.30473-0.41647-0.30473-1.06657zm1.27988 1.21894q0.39108 0 0.60439-0.29966 0.21331-0.29965 0.21331-0.87357 0-0.54852-0.19807-0.89897-0.19808-0.35044-0.61455-0.35044-0.39108 0-0.60947 0.29966-0.21331 0.29965-0.21331 0.87357 0 0.5536 0.19807 0.90404 0.20316 0.34537 0.61963 0.34537z"/>
    <path d="m243.52488 103.04768h1.07672v0.20824l-0.37584 0.066 0.54345 1.50843 0.24886 0.72121 0.21332-0.69581 0.54344-1.53383-0.35552-0.066v-0.20824h0.97007v0.20824l-0.25903 0.066-1.00054 2.58516h-0.34029l-1.02593-2.58516-0.23871-0.066z"/>
    <path d="m246.6484 105.12495q0-0.49265 0.48757-0.71105 0.48758-0.22347 1.21386-0.2387v-0.15745q0-0.25902-0.0559-0.40631-0.0508-0.15237-0.18284-0.21839-0.13205-0.0711-0.37076-0.0711-0.25902 0-0.47233 0.0813-0.20824 0.0762-0.40632 0.18792l-0.11173-0.22347q0.0559-0.0508 0.23363-0.14221 0.17776-0.0914 0.40631-0.16252 0.22855-0.0711 0.44186-0.0711 0.34537 0 0.54345 0.0965 0.20315 0.0965 0.28949 0.30981 0.0914 0.21332 0.0914 0.57392v1.67604h0.31489v0.18792q-0.27933 0.0762-0.47233 0.0762-0.1219 0-0.16761-0.0406-0.0457-0.0356-0.0457-0.17268v-0.18792q-0.18284 0.16252-0.40123 0.28949-0.21331 0.1219-0.48757 0.1219-0.36568 0-0.60947-0.20316-0.23871-0.20315-0.23871-0.59423zm1.00054 0.49773q0.14221 0 0.34029-0.0914t0.3606-0.21839v-0.89897q-0.61455 5e-3 -0.93452 0.18285-0.31489 0.17776-0.31489 0.47741 0 0.2895 0.14729 0.42155 0.14729 0.12697 0.40123 0.12697z"/>
    <path d="m249.76684 103.38289-0.39108-0.0863v-0.22859l0.64503-0.0813h0.0152l0.0965 0.0813v0.22347l-5e-3 0.12697q0.18792-0.16252 0.49773-0.29965 0.30982-0.13713 0.57392-0.13713 0.32505 0 0.49773 0.12697 0.17776 0.12189 0.24379 0.38092 0.0711 0.25394 0.0711 0.68565v1.43733l0.38092 0.0355v0.21839h-1.13259v-0.21839l0.34028-0.0355v-1.44241q0-0.31997-0.0457-0.50281-0.0406-0.18284-0.1676-0.27426-0.12189-0.0965-0.3606-0.0965-0.20316 0-0.44187 0.10157-0.23363 0.10158-0.40631 0.23871v1.97062l0.37076 0.0406v0.21839h-1.12244v-0.21839l0.34029-0.0406z"/>
    <path d="m253.99756 105.92234q-0.58915 0-0.90912-0.40123-0.31489-0.40632-0.31489-1.07673 0-0.43171 0.1676-0.76692 0.16761-0.3352 0.46218-0.51804 0.29966-0.18792 0.67042-0.18792 0.45202 0 0.70088 0.25902 0.25395 0.25903 0.27427 0.7466 0 0.31489-0.0305 0.44694h-1.80809q0 0.53329 0.23871 0.87357 0.24379 0.33521 0.68057 0.33521 0.21332 0 0.43679-0.0762t0.34536-0.18284l0.0813 0.18792q-0.14729 0.15236-0.43171 0.25902-0.27934 0.10158-0.56376 0.10158zm0.59423-1.73699q0.0152-0.10665 0.0152-0.22347-5e-3 -0.3352-0.16252-0.53328-0.15237-0.19808-0.47234-0.19808-0.69581 0-0.75676 0.95483z"/>
    <path d="m257.32931 102.36711-0.56375-0.0559v-0.21839h1.19862l0.78723 2.34645 0.18792 0.68057 0.1676-0.68057 0.78215-2.34645h1.18846v0.21839l-0.55868 0.0559 0.40124 3.23018 0.46218 0.0508v0.21839h-1.36623v-0.21839l0.47234-0.0457-0.23363-2.31598-0.11173-1.01578-0.22348 0.70089-0.91928 2.71213h-0.20315l-0.86342-2.42771-0.33012-0.98531-0.10158 1.01578-0.20824 2.31598 0.49773 0.0457v0.21839h-1.26972v-0.21839l0.43171-0.0457z"/>
    <path d="m262.02729 105.92234q-0.11681 0-0.19807-0.0762-0.0813-0.0813-0.0813-0.20823 0-0.14221 0.0965-0.23871 0.10158-0.0965 0.23363-0.0965 0.13713 0 0.20316 0.0813 0.0711 0.0813 0.0711 0.20316 0 0.14221-0.0965 0.23871t-0.22855 0.0965z"/>
    <path d="m265.33365 105.92234q-0.25902 0-0.4571-0.0457-0.19807-0.0457-0.4571-0.12697-0.17268-0.0559-0.20823-0.061l0.0406-0.90405h0.2641l0.0762 0.66534q0.0965 0.0914 0.30474 0.15745 0.21331 0.066 0.46218 0.066 0.41139 0 0.62978-0.18792t0.21839-0.51805q0-0.21331-0.11681-0.3606-0.11174-0.14729-0.29458-0.24886-0.17776-0.10158-0.49773-0.23871-0.29965-0.12697-0.51297-0.25395-0.20823-0.12697-0.36568-0.34028-0.15744-0.2184-0.15744-0.51805 0-0.27934 0.15236-0.49773 0.15237-0.2184 0.42155-0.33521 0.27426-0.12189 0.62471-0.12189 0.21331 0 0.37583 0.0356 0.16761 0.0305 0.42155 0.10158 0.13713 0.0406 0.16253 0.0457l-0.0305 0.83294h-0.25394l-0.0914-0.62979q-0.0609-0.0508-0.23871-0.0965-0.17268-0.0508-0.37076-0.0508-0.37584 0-0.57391 0.15745-0.19808 0.15237-0.19808 0.4571 0 0.20824 0.10666 0.35045 0.10665 0.13713 0.27426 0.23363 0.1676 0.0965 0.51804 0.25902 0.36568 0.17268 0.56884 0.29965 0.20824 0.1219 0.3606 0.32505 0.15745 0.19808 0.15745 0.4825 0 0.26918-0.15745 0.51805-0.15744 0.24378-0.4571 0.39615-0.29965 0.15237-0.70089 0.15237z"/>
    <path d="m267.47187 105.92234q-0.11682 0-0.19808-0.0762-0.0813-0.0813-0.0813-0.20823 0-0.14221 0.0965-0.23871 0.10157-0.0965 0.23363-0.0965 0.13713 0 0.20315 0.0813 0.0711 0.0813 0.0711 0.20316 0 0.14221-0.0965 0.23871t-0.22855 0.0965z"/>
   </g>
  </g>
  <g transform="translate(-.02883626 9.706212)">
   <g transform="matrix(7.2567965,0,0,7.2567965,1000.5961,790.18561)" stop-color="#000000" style="shape-inside:url(#rect4613);white-space:pre" aria-label="João Gabriel G. M.">
    <path d="m-0.0050789 0.69580928q0.23362939-0.0609468 0.41646979-0.23362939 0.18284039-0.1676037 0.25902389-0.41646979 0.0660257-0.2082349 0.0812624-0.46725879 0.0203156-0.25902389 0.0203156-0.86341301v-2.2093214l-0.50788999-0.0609468v-0.2183927h1.41701311v0.2183927l-0.4875744 0.060947v2.4937398q0 0.31997072-0.010158 0.52820561-0.010158 0.203156-0.040631 0.36568079-0.081262 0.41139089-0.38091752 0.66533588-0.29457619 0.253945-0.65517808 0.3199707z"/>
    <path d="m2.1331282-1.4271709q0-0.4418642 0.1828404-0.7770716 0.1879193-0.3352074 0.4875744-0.5129689 0.304734-0.1777615 0.6348625-0.1777615 0.6399414 0 0.9446754 0.4164698 0.3098129 0.4164698 0.3098129 1.0665689 0 0.44186433-0.1879193 0.77707172-0.1828404 0.33520739-0.4875744 0.51296888-0.2996551 0.1777615-0.6297836 0.1777615-0.6399414 0-0.9497543-0.41646979-0.304734-0.41646979-0.304734-1.06656901zm1.2798828 1.21893601q0.3910753 0 0.6043891-0.2996551 0.2133138-0.29965509 0.2133138-0.87357081 0-0.5485211-0.1980771-0.8989652t-0.6145469-0.3504441q-0.3910753 0-0.609468 0.2996551-0.2133138 0.2996551-0.2133138 0.8735707 0 0.55360012 0.1980771 0.90404422 0.203156 0.34536519 0.6196258 0.34536519z"/>
    <path d="m5.1855433-0.74151938q0-0.49265332 0.4875744-0.71104602 0.4875744-0.2234716 1.213857-0.2387083v-0.1574458q0-0.2590239-0.055868-0.406312-0.050789-0.152367-0.1828404-0.2183927-0.1320513-0.071105-0.3707596-0.071105-0.2590239 0-0.4723377 0.081262-0.2082349 0.076184-0.406312 0.1879193l-0.1117357-0.2234708q0.055868-0.050789 0.2336294-0.1422092 0.1777615-0.09142 0.406312-0.1625248 0.2285505-0.071105 0.4418643-0.071105 0.3453651 0 0.5434422 0.096499 0.203156 0.096499 0.2894973 0.3098129 0.09142 0.2133138 0.09142 0.5739157v1.67603691h0.314892v0.18791979q-0.2793395 0.0761835-0.4723377 0.0761835-0.1218936 0-0.1676037-0.0406312-0.04571-0.0355523-0.04571-0.1726826v-0.18791929q-0.1828404 0.1625248-0.401233 0.28949729-0.2133138 0.1218936-0.4875744 0.1218936-0.3656808 0-0.609468-0.203156-0.2387083-0.20315599-0.2387083-0.59423128zm1.0005433 0.49773219q0.1422092 0 0.3402862-0.0914202 0.1980771-0.0914202 0.3606019-0.21839269v-0.89896532q-0.6145468 0.00508-0.9345175 0.1828404-0.3148918 0.1777615-0.3148918 0.47741662 0 0.28949729 0.1472881 0.42154869 0.1472881 0.1269725 0.4012331 0.1269725zm-0.8278607-3.30636381q0.050789-0.203156 0.1929982-0.3504441 0.1472881-0.152367 0.3910753-0.152367 0.152367 0 0.253945 0.060947t0.2336294 0.1828404q0.086341 0.086341 0.147288 0.1269725 0.060947 0.040631 0.1320514 0.040631 0.1422092 0 0.2234716-0.1066569 0.081262-0.1066569 0.096499-0.2082349l0.2336294 0.1066569q-0.1574459 0.5129689-0.5739157 0.5129689-0.1472881 0-0.248866-0.060947-0.096499-0.060947-0.2183927-0.1777615-0.096499-0.09142-0.1574459-0.1320514-0.060947-0.040631-0.1371303-0.040631-0.1422092 0-0.2133138 0.081262-0.071105 0.076183-0.1066569 0.1472881-0.030473 0.071105-0.040631 0.086341z"/>
    <path d="m7.9840131-1.4271709q0-0.4418642 0.1828404-0.7770716 0.1879193-0.3352074 0.4875744-0.5129689 0.304734-0.1777615 0.6348625-0.1777615 0.6399414 0 0.9446756 0.4164698 0.309813 0.4164698 0.309813 1.0665689 0 0.44186433-0.18792 0.77707172-0.18284 0.33520739-0.487574 0.51296888-0.2996551 0.1777615-0.6297836 0.1777615-0.6399414 0-0.9497543-0.41646979-0.304734-0.41646979-0.304734-1.06656901zm1.2798828 1.21893601q0.3910753 0 0.6043891-0.2996551 0.213314-0.29965509 0.213314-0.87357081 0-0.5485211-0.1980773-0.8989652-0.1980771-0.3504441-0.6145469-0.3504441-0.3910753 0-0.609468 0.2996551-0.2133138 0.2996551-0.2133138 0.8735707 0 0.55360012 0.1980771 0.90404422 0.203156 0.34536519 0.6196258 0.34536519z"/>
    <path d="m13.972031 0.0558679q-0.538364 0-0.934518-0.24378719-0.396154-0.2437872-0.604389-0.67041479-0.208235-0.42662762-0.208235-0.96499092 0-0.6196258 0.248866-1.066569 0.253945-0.4520221 0.685652-0.6856515 0.431706-0.2387083 0.97007-0.2387083 0.335207 0 0.59931 0.04571t0.548521 0.1117358l-0.04063 0.8430974h-0.264104l-0.111736-0.5840734q-0.08126-0.066026-0.27426-0.1168147-0.18792-0.055868-0.502811-0.055868-0.401234 0-0.716125 0.1828404-0.309813 0.1828404-0.487575 0.5485212-0.177761 0.3606019-0.177761 0.8837286 0 0.4672587 0.142209 0.8684918 0.147288 0.40123312 0.441864 0.65009921 0.294576 0.2488661 0.716125 0.2488661 0.269182 0 0.50789-0.0609468 0.243787-0.0660257 0.380918-0.1726826v-1.15798911l-0.705967-0.050789v-0.2691816h1.442407v0.2691816l-0.309813 0.050789v1.37638191q-0.106657 0.005079-0.360602 0.0863413-0.259024 0.0812624-0.482495 0.1269725-0.218393 0.0457101-0.502811 0.0457101z"/>
    <path d="m15.988348-0.74151938q0-0.49265332 0.487575-0.71104602 0.487574-0.2234716 1.213857-0.2387083v-0.1574458q0-0.2590239-0.05587-0.406312-0.05079-0.152367-0.182841-0.2183927-0.132051-0.071105-0.370759-0.071105-0.259024 0-0.472338 0.081262-0.208235 0.076184-0.406312 0.1879193l-0.111736-0.2234716q0.05587-0.050789 0.23363-0.1422092 0.177761-0.09142 0.406312-0.1625248 0.22855-0.071105 0.441864-0.071105 0.345365 0 0.543442 0.096499 0.203156 0.096499 0.289497 0.3098129 0.09142 0.2133138 0.09142 0.5739157v1.67603691h0.314891v0.18791929q-0.279339 0.0761835-0.472337 0.0761835-0.121894 0-0.167604-0.0406312-0.04571-0.0355523-0.04571-0.1726826v-0.18791929q-0.18284 0.1625248-0.401233 0.28949729-0.213314 0.1218936-0.487574 0.1218936-0.365681 0-0.609468-0.203156-0.238709-0.20315599-0.238709-0.59423128zm1.000544 0.49773219q0.142209 0 0.340286-0.0914202t0.360602-0.21839269v-0.89896532q-0.614547 0.00508-0.934518 0.1828404-0.314892 0.1777615-0.314892 0.47741662 0 0.28949729 0.147288 0.42154869 0.147289 0.1269725 0.401234 0.1269725z"/>
    <path d="m18.543031-4.0732777 0.741519-0.086341h0.01016l0.0965 0.071105v1.5439856q0.157446-0.1472881 0.375839-0.2488661 0.223471-0.101578 0.492653-0.101578 0.299655 0 0.548521 0.1472881 0.253945 0.1472881 0.406312 0.457101 0.157446 0.3098129 0.157446 0.7770716 0 0.4367854-0.177761 0.79738732-0.177762 0.35552299-0.50789 0.56375788-0.330129 0.2082349-0.761835 0.2082349-0.314892 0-0.599311-0.0660257-0.284418-0.0660257-0.345365-0.1269725v-3.702518l-0.436785-0.04571zm1.549064 1.4881177q-0.213313 0-0.401233 0.101578-0.187919 0.101578-0.299655 0.2234716v1.87919291q0.03555 0.0812624 0.198077 0.1320514 0.167604 0.0457101 0.37076 0.0457101 0.436785 0 0.700888-0.3199707 0.264103-0.32504959 0.264103-0.94975431 0-0.5586789-0.238708-0.8329395-0.23363-0.2793395-0.594232-0.2793395z"/>
    <path d="m21.854466-0.21331379 0.406312-0.0304734v-2.23979481l-0.391075-0.086341v-0.2285505l0.64502-0.081262h0.01016l0.0965 0.081262v0.081262l-0.01016 0.3859964h0.01016q0.01016-0.010158 0.132052-0.152367 0.126972-0.1472881 0.370759-0.2793395 0.248867-0.1320514 0.497733-0.1320514 0.08126 0 0.152367 0.020316v0.4469432q-0.02032-0.015237-0.09142-0.030473-0.06602-0.015237-0.142209-0.015237-0.289497 0-0.492653 0.086341t-0.375839 0.2133138v1.92490301l0.675494 0.0406312v0.20823479h-1.493197z"/>
    <path d="m24.71388-3.3520739q-0.274261 0-0.274261-0.2894973 0-0.1472881 0.08634-0.2387083 0.08634-0.096499 0.233629-0.096499 0.152367 0 0.218393 0.086341 0.06603 0.081262 0.06603 0.203156 0 0.1574459-0.08634 0.2488661-0.08126 0.086341-0.238708 0.086341zm-0.162525 0.8684919-0.396154-0.086341v-0.2285505l0.695809-0.081262h0.01016l0.101578 0.081262v2.54452881l0.441864 0.0355523v0.21839239h-1.300198v-0.21839269l0.446943-0.0406312z"/>
    <path d="m26.999382 0.0558679q-0.589152 0-0.909123-0.40123309-0.314891-0.40631199-0.314891-1.07672681 0-0.4317064 0.167603-0.7669138 0.167604-0.3352074 0.46218-0.5180478 0.299655-0.1879193 0.670415-0.1879193 0.452022 0 0.700888 0.2590239 0.253945 0.2590239 0.274261 0.7465983 0 0.3148917-0.03047 0.4469431h-1.808088q0 0.53328452 0.238708 0.87357082 0.243787 0.33520739 0.680573 0.33520739 0.213314 0 0.436785-0.0761835 0.223472-0.0761835 0.345365-0.1828404l0.08126 0.1879193q-0.147288 0.15236699-0.431707 0.25902389-0.279339 0.101578-0.563758 0.101578zm0.594232-1.7369838q0.01524-0.1066569 0.01524-0.2234715-0.0051-0.3352074-0.162524-0.5332845-0.152367-0.1980771-0.472338-0.1980771-0.695809 0-0.756756 0.9548331z"/>
    <path d="m28.924281-3.8396483-0.431707-0.04571v-0.1879193l0.74152-0.086341h0.0051l0.0965 0.066026v3.83964831l0.477416 0.0355523v0.21839199h-1.33575v-0.21839269l0.446943-0.0406312z"/>
    <path d="m33.144837 0.0558679q-0.538364 0-0.934518-0.24378719-0.396154-0.2437872-0.604389-0.67041479-0.208235-0.42662762-0.208235-0.96499092 0-0.6196258 0.248866-1.066569 0.253945-0.4520221 0.685652-0.6856515 0.431706-0.2387083 0.970069-0.2387083 0.335208 0 0.599311 0.04571 0.264102 0.04571 0.548521 0.1117358l-0.04063 0.8430974h-0.264104l-0.111736-0.5840734q-0.08126-0.066026-0.274261-0.1168147-0.187919-0.055868-0.502811-0.055868-0.401233 0-0.716125 0.1828404-0.309812 0.1828404-0.487574 0.5485212-0.177761 0.3606019-0.177761 0.8837286 0 0.4672587 0.142209 0.8684918 0.147288 0.40123312 0.441864 0.65009921 0.294576 0.2488661 0.716125 0.2488661 0.269182 0 0.50789-0.0609468 0.243787-0.0660257 0.380917-0.1726826v-1.15798911l-0.705967-0.050789v-0.2691816h1.442408v0.2691816l-0.309813 0.050789v1.37638191q-0.106657 0.005079-0.360602 0.0863413-0.259024 0.0812624-0.482495 0.1269725-0.218393 0.0457101-0.502811 0.0457101z"/>
    <path d="m35.506519 0.0558679q-0.116814 0-0.198077-0.0761835-0.08126-0.0812624-0.08126-0.20823489 0-0.1422092 0.0965-0.2387083 0.101578-0.0964991 0.233629-0.0964991 0.137131 0 0.203156 0.0812624 0.07111 0.0812624 0.07111 0.203156 0 0.14220919-0.0965 0.23870829t-0.228551 0.0964991z"/>
    <path d="m38.20849-3.499362-0.563758-0.055868v-0.2183927h1.19862l0.78723 2.3464517 0.187919 0.68057262 0.167604-0.68057262 0.78215-2.3464517h1.188463v0.2183927l-0.558679 0.055868 0.401233 3.23018031 0.46218 0.050789v0.21839269h-1.366224v-0.21839269l0.472337-0.0457101-0.233629-2.31597831-0.111736-1.01578-0.223471 0.7008882-0.919281 2.71213251h-0.203156l-0.863413-2.42771411-0.330129-0.9853066-0.101578 1.01578-0.208235 2.31597831 0.497733 0.0457101v0.21839269h-1.269725v-0.21839269l0.431706-0.0457101z"/>
    <path d="m42.906471 0.0558679q-0.116815 0-0.198077-0.0761835-0.08126-0.0812624-0.08126-0.20823489 0-0.1422092 0.0965-0.2387083 0.101578-0.0964991 0.233629-0.0964991 0.13713 0 0.203156 0.0812624 0.07111 0.0812624 0.07111 0.203156 0 0.14220919-0.0965 0.23870829t-0.228551 0.0964991z"/>
   </g>
   <g transform="matrix(7.2567965 0 0 7.2567965 -.79272173 561.73392)" stop-color="#000000" style="shape-inside:url(#rect26000);white-space:pre" aria-label="João Pedro S. C.">
    <path d="m188.95586 31.595483q0.23363-0.06095 0.41647-0.23363 0.18284-0.167603 0.25902-0.41647 0.066-0.208234 0.0813-0.467258 0.0203-0.259024 0.0203-0.863413v-2.209322l-0.50789-0.06095v-0.218392h1.41701v0.218392l-0.48757 0.06095v2.49374q0 0.319971-0.0102 0.528206-0.0102 0.203156-0.0406 0.36568-0.0813 0.411391-0.38092 0.665336-0.29457 0.253945-0.65518 0.319971z"/>
    <path d="m191.09407 29.472503q0-0.441865 0.18284-0.777072 0.18792-0.335208 0.48757-0.512969 0.30473-0.177762 0.63486-0.177762 0.63994 0 0.94468 0.41647 0.30981 0.41647 0.30981 1.066569 0 0.441864-0.18792 0.777072-0.18284 0.335207-0.48757 0.512969-0.29966 0.177761-0.62979 0.177761-0.63994 0-0.94975-0.41647-0.30473-0.416469-0.30473-1.066568zm1.27988 1.218935q0.39107 0 0.60439-0.299655 0.21331-0.299655 0.21331-0.87357 0-0.548522-0.19808-0.898966-0.19807-0.350444-0.61454-0.350444-0.39108 0-0.60947 0.299655-0.21331 0.299655-0.21331 0.873571 0 0.5536 0.19807 0.904044 0.20316 0.345365 0.61963 0.345365z"/>
    <path d="m194.14648 30.158154q0-0.492653 0.48758-0.711046 0.48757-0.223472 1.21385-0.238708v-0.157446q0-0.259024-0.0559-0.406312-0.0508-0.152367-0.18284-0.218393-0.13205-0.0711-0.37076-0.0711-0.25902 0-0.47233 0.08126-0.20824 0.07618-0.40632 0.187919l-0.11173-0.223471q0.0559-0.05079 0.23363-0.14221 0.17776-0.09142 0.40631-0.162524 0.22855-0.0711 0.44186-0.0711 0.34537 0 0.54345 0.0965 0.20315 0.0965 0.28949 0.309813 0.0914 0.213314 0.0914 0.573916v1.676037h0.3149v0.187911q-0.27934 0.07618-0.47234 0.07618-0.1219 0-0.16761-0.04063-0.0457-0.03555-0.0457-0.172682v-0.18792q-0.18284 0.162525-0.40123 0.289498-0.21331 0.121893-0.48757 0.121893-0.36568 0-0.60947-0.203156-0.23871-0.203156-0.23871-0.594231zm1.00054 0.497732q0.14221 0 0.34029-0.09142t0.3606-0.218393v-0.898965q-0.61454 0.0051-0.93452 0.18284-0.31489 0.177762-0.31489 0.477417 0 0.289497 0.14729 0.421549 0.14729 0.126972 0.40123 0.126972zm-0.82786-3.306364q0.0508-0.203156 0.193-0.350444 0.14729-0.152367 0.39108-0.152367 0.15236 0 0.25394 0.06095t0.23363 0.18284q0.0863 0.08634 0.14729 0.126973 0.061 0.04063 0.13205 0.04063 0.14221 0 0.22347-0.106657 0.0813-0.106657 0.0965-0.208235l0.23363 0.106657q-0.15745 0.512969-0.57391 0.512969-0.14729 0-0.24887-0.06095-0.0965-0.06095-0.21839-0.177761-0.0965-0.09142-0.15745-0.132052-0.0609-0.04063-0.13713-0.04063-0.14221 0-0.21331 0.08126-0.0711 0.07618-0.10666 0.147288-0.0305 0.0711-0.0406 0.08634z"/>
    <path d="m196.94495 29.472503q0-0.441865 0.18284-0.777072 0.18792-0.335208 0.48758-0.512969 0.30473-0.177762 0.63486-0.177762 0.63994 0 0.94467 0.41647 0.30982 0.41647 0.30982 1.066569 0 0.441864-0.18792 0.777072-0.18284 0.335207-0.48758 0.512969-0.29965 0.177761-0.62978 0.177761-0.63994 0-0.94976-0.41647-0.30473-0.416469-0.30473-1.066568zm1.27988 1.218935q0.39108 0 0.60439-0.299655 0.21332-0.299655 0.21332-0.87357 0-0.548522-0.19808-0.898966t-0.61455-0.350444q-0.39107 0-0.60947 0.299655-0.21331 0.299655-0.21331 0.873571 0 0.5536 0.19808 0.904044 0.20315 0.345365 0.61962 0.345365z"/>
    <path d="m201.64801 27.400311-0.40632-0.05587v-0.218392h0.61455q0.11174 0 0.21839-0.0051 0.11174-0.01016 0.16253-0.01016 0.2641-0.02032 0.50789-0.02032 0.71612 0 1.0107 0.269182 0.29966 0.264103 0.29966 0.797387 0 0.401234-0.193 0.69581t-0.52313 0.452022q-0.33013 0.152367-0.73644 0.152367-0.16253 0-0.33521-0.0051-0.1676-0.01016-0.20315-0.01524v1.193542l0.70596 0.05079v0.218392h-1.55922v-0.218392l0.43679-0.04571zm0.41647 1.787773q0.12697 0.02032 0.54852 0.02032 0.43678 0 0.71612-0.243787 0.27934-0.248867 0.27934-0.807546 0-0.441864-0.23871-0.629783-0.2387-0.192998-0.75167-0.192998-0.15745 0-0.35045 0.02032-0.15236 0.01016-0.20315 0.01016z"/>
    <path d="m205.66033 30.955541q-0.58915 0-0.90912-0.401233-0.31489-0.406312-0.31489-1.076727 0-0.431706 0.1676-0.766913 0.1676-0.335208 0.46218-0.518048 0.29965-0.18792 0.67041-0.18792 0.45203 0 0.70089 0.259024 0.25395 0.259024 0.27426 0.746599 0 0.314891-0.0305 0.446943h-1.80809q0 0.533284 0.23871 0.873571 0.24379 0.335207 0.68057 0.335207 0.21332 0 0.43679-0.07618t0.34536-0.18284l0.0813 0.187919q-0.14729 0.152367-0.43171 0.259024-0.27934 0.101578-0.56376 0.101578zm0.59423-1.736983q0.0152-0.106657 0.0152-0.223472-5e-3 -0.335207-0.16253-0.533285-0.15236-0.198077-0.47233-0.198077-0.69581 0-0.75676 0.954834z"/>
    <path d="m208.28612 30.955541q-0.29966 0-0.5536-0.152367-0.25395-0.157446-0.40632-0.472337-0.15236-0.314892-0.15236-0.771993 0-0.436786 0.17776-0.78723 0.17776-0.355523 0.50281-0.558679 0.33013-0.208235 0.76691-0.208235 0.27934 0 0.53837 0.06095v-1.005622l-0.52821-0.05079v-0.18284l0.83294-0.08634h0.0102l0.0965 0.0711v3.859964h0.30981v0.198078q-0.0254 0.0051-0.17268 0.04063-0.14729 0.03555-0.31489 0.03555-0.11682 0-0.16761-0.04063-0.0457-0.04063-0.0457-0.177761v-0.177762q-0.15744 0.172683-0.38599 0.289498-0.22347 0.116814-0.50789 0.116814zm0.1676-0.31997q0.21839 0 0.41139-0.101578 0.19808-0.106657 0.29458-0.23363v-1.869035q-0.0406-0.0711-0.21332-0.121894-0.1676-0.05079-0.3606-0.05079-0.43678 0-0.70089 0.314892-0.2641 0.309813-0.2641 0.944676 0 0.568836 0.23363 0.843097t0.59931 0.274261z"/>
    <path d="m210.32783 30.68636 0.40631-0.03047v-2.239795l-0.39108-0.08634v-0.228555l0.64502-0.08126h0.0102l0.0965 0.08126v0.08126l-0.0102 0.385996h0.0102q0.0102-0.01016 0.13205-0.152367 0.12697-0.147288 0.37076-0.279339 0.24887-0.132052 0.49773-0.132052 0.0813 0 0.15237 0.02032v0.446943q-0.0203-0.01524-0.0914-0.03047-0.066-0.01524-0.14221-0.01524-0.2895 0-0.49265 0.08634-0.20316 0.08634-0.37584 0.213314v1.924903l0.67549 0.04063v0.208235h-1.49319z"/>
    <path d="m212.59301 29.472503q0-0.441865 0.18284-0.777072 0.18792-0.335208 0.48757-0.512969 0.30474-0.177762 0.63487-0.177762 0.63994 0 0.94467 0.41647 0.30981 0.41647 0.30981 1.066569 0 0.441864-0.18792 0.777072-0.18284 0.335207-0.48757 0.512969-0.29965 0.177761-0.62978 0.177761-0.63994 0-0.94976-0.41647-0.30473-0.416469-0.30473-1.066568zm1.27988 1.218935q0.39108 0 0.60439-0.299655t0.21331-0.87357q0-0.548522-0.19807-0.898966-0.19808-0.350444-0.61455-0.350444-0.39108 0-0.60947 0.299655-0.21331 0.299655-0.21331 0.873571 0 0.5536 0.19808 0.904044 0.20315 0.345365 0.61962 0.345365z"/>
    <path d="m218.04266 30.955541q-0.25902 0-0.4571-0.04571t-0.4571-0.126972q-0.17268-0.05587-0.20823-0.06095l0.0406-0.904044h0.2641l0.0762 0.665336q0.0965 0.09142 0.30474 0.157445 0.21331 0.06603 0.46218 0.06603 0.41139 0 0.62978-0.187919t0.21839-0.518048q0-0.213314-0.11681-0.360602-0.11174-0.147288-0.29458-0.248866-0.17776-0.101578-0.49773-0.238708-0.29965-0.126973-0.51297-0.253945-0.20823-0.126973-0.36568-0.340286-0.15745-0.218393-0.15745-0.518048 0-0.27934 0.15237-0.497732 0.15237-0.218393 0.42155-0.335208 0.27426-0.121893 0.62471-0.121893 0.21331 0 0.37583 0.03555 0.16761 0.03047 0.42155 0.101578 0.13713 0.04063 0.16253 0.04571l-0.0305 0.83294h-0.25394l-0.0914-0.629784q-0.061-0.05079-0.23871-0.0965-0.17268-0.05079-0.37076-0.05079-0.37584 0-0.57391 0.157446-0.19808 0.152367-0.19808 0.457101 0 0.208235 0.10665 0.350444 0.10666 0.13713 0.27427 0.233629 0.1676 0.0965 0.51804 0.259024 0.36568 0.172683 0.56884 0.299655 0.20823 0.121894 0.3606 0.32505 0.15745 0.198077 0.15745 0.482495 0 0.269182-0.15745 0.518048-0.15744 0.243787-0.4571 0.396154-0.29965 0.152367-0.70089 0.152367z"/>
    <path d="m220.18088 30.955541q-0.11682 0-0.19808-0.07618-0.0813-0.08126-0.0813-0.208235 0-0.142209 0.0965-0.238708 0.10157-0.0965 0.23362-0.0965 0.13713 0 0.20316 0.08126 0.0711 0.08126 0.0711 0.203156 0 0.142209-0.0965 0.238708-0.0965 0.0965-0.22855 0.0965z"/>
    <path d="m223.94942 30.955541q-0.54345 0-0.93452-0.243787-0.39108-0.243787-0.59423-0.685651-0.20316-0.441865-0.20316-1.031017 0-0.5536 0.23871-0.990386 0.23871-0.436785 0.6501-0.675493 0.41139-0.243787 0.91928-0.243787 0.25902 0 0.49773 0.04063 0.24379 0.04063 0.39108 0.07618t0.18284 0.04571l-0.0406 0.827861h-0.26411l-0.11173-0.589152q-0.0762-0.06603-0.27426-0.111736-0.19808-0.04571-0.4825-0.04571-0.35044 0-0.62978 0.192998-0.27934 0.187919-0.44187 0.5536-0.15744 0.365681-0.15744 0.873571 0 0.477416 0.13713 0.878649 0.14221 0.401234 0.42663 0.645021 0.28442 0.238708 0.70088 0.238708 0.2895 0 0.45203-0.04571 0.16252-0.05079 0.27426-0.142209l0.20315-0.477417 0.24887 0.03555-0.12697 0.680573q-0.1219 0.0051-0.29458 0.06603-0.18284 0.06095-0.35044 0.09142-0.16761 0.03555-0.41647 0.03555z"/>
    <path d="m225.93526 30.955541q-0.11682 0-0.19808-0.07618-0.0813-0.08126-0.0813-0.208235 0-0.142209 0.0965-0.238708 0.10157-0.0965 0.23363-0.0965 0.13713 0 0.20315 0.08126 0.0711 0.08126 0.0711 0.203156 0 0.142209-0.0965 0.238708-0.0965 0.0965-0.22855 0.0965z"/>
   </g>
  </g>
  <g transform="translate(-9.2735493,5.9883993e-5)">
   <g transform="matrix(7.2567965,0,0,7.2567965,187.00748,880.49457)" stop-color="#000000" style="shape-inside:url(#rect27216);white-space:pre" aria-label="Rebeca M.  C.">
    <path d="m84.326211 2.09339 0.436785-0.04571v-3.2403381l-0.406312-0.060947v-0.2082349h0.619626q0.13713 0 0.391075-0.020316 0.243787-0.020316 0.360602-0.020316 0.726283 0 1.036096 0.2437872 0.309812 0.2437872 0.309812 0.75167721 0 0.37075969-0.208234 0.67041479-0.203156 0.29965509-0.553601 0.40123308 0.132052 0.0863413 0.264103 0.2894973 0.137131 0.19807712 0.335208 0.55360012 0.172682 0.3098129 0.27426 0.4672587 0.106657 0.152367 0.18792 0.1676037l0.213313 0.055868v0.2133138h-0.594231q-0.08126 0-0.187919-0.1726826-0.106657-0.1726818-0.299655-0.5586781-0.208235-0.4215487-0.345366-0.64502033-0.132051-0.22347159-0.264102-0.29965509-0.619626 0-0.716125-0.005079v1.41701312l0.523126 0.04571v0.2183927h-1.376381zm1.538906-1.70651031q0.350444 0 0.5536-0.21839269 0.203156-0.2183927 0.203156-0.63994139 0-0.37075969-0.208235-0.57391571-0.208234-0.2082349-0.726282-0.2082349-0.177762 0-0.350444 0.020316-0.121894 0.010158-0.157446 0.010158v1.60493239q0.09142 0.005079 0.365681 0.005079z"/>
    <path d="m89.054661 2.3676506q-0.589153 0-0.909123-0.4012331-0.314892-0.4063119-0.314892-1.07672672 0-0.43170649 0.167604-0.76691388 0.167603-0.33520739 0.462179-0.51804779 0.299656-0.18791929 0.670415-0.18791929 0.452022 0 0.700888 0.25902389 0.253945 0.25902389 0.274261 0.74659828 0 0.31489179-0.03047 0.44694319h-1.808089q0 0.53328452 0.238709 0.87357082 0.243787 0.3352073 0.680572 0.3352073 0.213314 0 0.436785-0.076183 0.223472-0.076183 0.345366-0.1828403l0.08126 0.1879192q-0.147288 0.152367-0.431706 0.2590239-0.27934 0.101578-0.563758 0.101578zm0.594231-1.73698372q0.01524-0.10665689 0.01524-0.22347159-0.0051-0.33520739-0.162525-0.53328449-0.152367-0.19807709-0.472338-0.19807709-0.695809 0-0.756756 0.95483317z"/>
    <path d="m90.319302-1.761495 0.741519-0.086341h0.01016l0.0965 0.071104v1.54398561q0.157446-0.1472881 0.375839-0.2488661 0.223471-0.10157799 0.492653-0.10157799 0.299655 0 0.548521 0.14728809 0.253945 0.1472881 0.406312 0.45710099 0.157446 0.30981289 0.157446 0.77707168 0 0.43678542-0.177762 0.79738732-0.177761 0.3555229-0.507889 0.5637578-0.330129 0.2082349-0.761835 0.2082349-0.314892 0-0.599311-0.066026-0.284418-0.066026-0.345365-0.1269725v-3.702518l-0.436785-0.04571zm1.549064 1.48811771q-0.213314 0-0.401233 0.101578-0.187919 0.10157799-0.299655 0.22347159v1.8791929q0.03555 0.081262 0.198077 0.1320514 0.167604 0.04571 0.37076 0.04571 0.436785 0 0.700888-0.3199706 0.264103-0.3250496 0.264103-0.94975432 0-0.55867899-0.238708-0.83293958-0.23363-0.27933949-0.594232-0.27933949z"/>
    <path d="m94.844593 2.3676506q-0.589152 0-0.909123-0.4012331-0.314891-0.4063119-0.314891-1.07672672 0-0.43170649 0.167603-0.76691388 0.167604-0.33520739 0.46218-0.51804779 0.299655-0.18791929 0.670415-0.18791929 0.452022 0 0.700888 0.25902389 0.253945 0.25902389 0.274261 0.74659828 0 0.31489179-0.03047 0.44694319h-1.808088q0 0.53328452 0.238708 0.87357082 0.243787 0.3352073 0.680573 0.3352073 0.213314 0 0.436785-0.076183 0.223472-0.076183 0.345365-0.1828403l0.08126 0.1879192q-0.147288 0.152367-0.431707 0.2590239-0.279339 0.101578-0.563758 0.101578zm0.594232-1.73698372q0.01524-0.10665689 0.01524-0.22347159-0.0051-0.33520739-0.162524-0.53328449-0.152367-0.19807709-0.472338-0.19807709-0.695809 0-0.756756 0.95483317z"/>
    <path d="m96.297154 0.92016418q0-0.41139089 0.157446-0.75167718 0.162525-0.34536519 0.477417-0.54852119 0.31997-0.20315599 0.777071-0.20315599 0.198078 0 0.385997 0.050789 0.187919 0.0457101 0.325049 0.101578l-0.02032 0.72628268h-0.253945l-0.106657-0.48757438q-0.03047-0.152367-0.436785-0.152367-0.396155 0-0.634863 0.30473399-0.233629 0.30473399-0.233629 0.83293958 0 0.62978362 0.253945 0.95483322 0.253945 0.3250495 0.660257 0.3250495 0.213313 0 0.411391-0.071105 0.203156-0.071105 0.335207-0.1625248l0.08126 0.1676037q-0.147288 0.1472881-0.406312 0.253945t-0.512969 0.1066569q-0.401233 0-0.685651-0.1879193-0.284411-0.19299781-0.4317-0.51804731-0.142209-0.3301285-0.142209-0.74151942z"/>
    <path d="m98.968649 1.5702634q0-0.4926533 0.487575-0.71104602 0.487574-0.2234716 1.213856-0.2387083v-0.15744589q0-0.2590239-0.0559-0.40631199-0.0508-0.152367-0.18284-0.2183927-0.13205-0.0711046-0.37076-0.0711046-0.259021 0-0.472335 0.0812624-0.208235 0.0761835-0.406312 0.1879193l-0.111736-0.22347159q0.05587-0.050789 0.23363-0.1422092 0.177761-0.0914202 0.406312-0.1625248 0.22855-0.0711046 0.441861-0.0711046 0.34537 0 0.54345 0.0964991 0.20315 0.0964991 0.28949 0.30981289 0.0914 0.2133138 0.0914 0.57391569v1.67603691h0.31489v0.1879193q-0.27934 0.076183-0.47233 0.076183-0.1219 0-0.16761-0.040631-0.0457-0.035552-0.0457-0.1726826v-0.187919q-0.18284 0.1625248-0.40123 0.2894973-0.21331 0.1218936-0.487575 0.1218936-0.36568 0-0.609468-0.203156-0.238708-0.203156-0.238708-0.5942312zm1.000543 0.4977321q0.142208 0 0.340288-0.09142t0.3606-0.2183926v-0.89896552q-0.61455 0.005079-0.934517 0.18284042-0.314892 0.1777615-0.314892 0.4774166 0 0.2894973 0.147288 0.4215486 0.147288 0.1269725 0.401233 0.1269725z"/>
    <path d="m103.59044-1.1875793-0.56376-0.055868v-0.2183927h1.19862l0.78723 2.34645178 0.18792 0.68057262 0.16761-0.68057262 0.78215-2.34645178h1.18846v0.2183927l-0.55868 0.055868 0.40123 3.2301803 0.46218 0.050789v0.2183927h-1.36622v-0.2183927l0.47234-0.04571-0.23363-2.31597829-0.11174-1.01578001-0.22347 0.70088822-0.91928 2.71213248h-0.20316l-0.86341-2.42771409-0.33013-0.98530661-0.10158 1.01578001-0.20823 2.31597829 0.49773 0.04571v0.2183927h-1.26972v-0.2183927l0.4317-0.04571z"/>
    <path d="m108.28842 2.3676506q-0.11681 0-0.19808-0.076183-0.0813-0.081262-0.0813-0.2082349 0-0.1422092 0.0965-0.2387083 0.10158-0.096499 0.23363-0.096499 0.13713 0 0.20316 0.081262 0.0711 0.081262 0.0711 0.2031559 0 0.1422092-0.0965 0.2387083-0.0965 0.096499-0.22855 0.096499z"/>
    <path d="m113.26066 2.3676506q-0.54344 0-0.93452-0.2437872-0.39107-0.2437872-0.59423-0.6856514-0.20316-0.44186433-0.20316-1.03101671 0-0.55360009 0.23871-0.99038547 0.23871-0.43678542 0.6501-0.67549372 0.41139-0.2437872 0.91928-0.2437872 0.25903 0 0.49773 0.040631 0.24379 0.040631 0.39108 0.076183t0.18284 0.04571l-0.0406 0.82786071h-0.2641l-0.11177-0.58915161q-0.0762-0.066026-0.27426-0.1117358-0.19808-0.04571-0.4825-0.04571-0.35044 0-0.62978 0.1929982-0.27934 0.18791932-0.44186 0.55360011-0.15745 0.36568079-0.15745 0.87357078 0 0.47741659 0.13713 0.87864971 0.14221 0.4012331 0.42663 0.6450202 0.28442 0.2387083 0.70089 0.2387083 0.28949 0 0.45202-0.04571 0.16252-0.050789 0.27426-0.1422092l0.20315-0.4774165 0.24887 0.035552-0.12697 0.6805725q-0.1219 0.00508-0.29458 0.066026-0.18284 0.060947-0.35044 0.09142-0.16761 0.035552-0.41647 0.035552z"/>
    <path d="m115.2465 2.3676506q-0.11681 0-0.19808-0.076183-0.0813-0.081262-0.0813-0.2082349 0-0.1422092 0.0965-0.2387083 0.10158-0.096499 0.23363-0.096499 0.13713 0 0.20315 0.081262 0.0711 0.081262 0.0711 0.2031559 0 0.1422092-0.0965 0.2387083-0.0965 0.096499-0.22855 0.096499z"/>
   </g>
   <g transform="matrix(7.2567965,0,0,7.2567965,608.59095,537.27077)" stop-color="#000000" style="shape-inside:url(#rect27684);white-space:pre" aria-label="Pamela F. S. L. O.">
    <path d="m103.42667 46.109296-0.40631-0.05587v-0.218393h0.61455q0.11173 0 0.21839-0.0051 0.11173-0.01016 0.16252-0.01016 0.26411-0.02031 0.50789-0.02031 0.71613 0 1.0107 0.269182 0.29966 0.264102 0.29966 0.797387 0 0.401233-0.193 0.695809t-0.52313 0.452022q-0.33012 0.152367-0.73644 0.152367-0.16252 0-0.3352-0.0051-0.16761-0.01016-0.20316-0.01524v1.193541l0.70597 0.05079v0.218393h-1.55923v-0.218393l0.43679-0.04571zm0.41647 1.787772q0.12697 0.02032 0.54852 0.02032 0.43679 0 0.71613-0.243787 0.27934-0.248866 0.27934-0.807545 0-0.441864-0.23871-0.629784-0.23871-0.192998-0.75168-0.192998-0.15745 0-0.35044 0.02032-0.15237 0.01016-0.20316 0.01016z"/>
    <path d="m106.2353 48.867138q0-0.492653 0.48757-0.711046 0.48757-0.223471 1.21386-0.238708v-0.157446q0-0.259024-0.0559-0.406312-0.0508-0.152367-0.18284-0.218392-0.13205-0.0711-0.37076-0.0711-0.25902 0-0.47234 0.08126-0.20823 0.07618-0.40631 0.18792l-0.11174-0.223472q0.0559-0.05079 0.23363-0.142209 0.17776-0.09142 0.40632-0.162525 0.22855-0.0711 0.44186-0.0711 0.34536 0 0.54344 0.0965 0.20316 0.0965 0.2895 0.309812 0.0914 0.213314 0.0914 0.573916v1.676037h0.31489v0.187919q-0.27934 0.07618-0.47234 0.07618-0.12189 0-0.1676-0.04063-0.0457-0.03555-0.0457-0.172683v-0.187919q-0.18284 0.162525-0.40123 0.289497-0.21332 0.121894-0.48758 0.121894-0.36568 0-0.60947-0.203156-0.2387-0.203156-0.2387-0.594232zm1.00054 0.497733q0.14221 0 0.34029-0.09142 0.19807-0.09142 0.3606-0.218392v-0.898966q-0.61455 0.0051-0.93452 0.182841-0.31489 0.177761-0.31489 0.477416 0 0.289498 0.14729 0.421549 0.14728 0.126973 0.40123 0.126973z"/>
    <path d="m109.02869 49.390265 0.32505-0.04063v-2.224558l-0.39108-0.08634v-0.22855l0.64502-0.08126 0.11174 0.08126v0.223472l-5e-3 0.126972q0.18792-0.162525 0.49265-0.299655 0.30474-0.13713 0.5536-0.13713 0.27426 0 0.43679 0.09142 0.1676 0.09142 0.25394 0.284418 0.15745-0.132051 0.4571-0.253945 0.30474-0.121893 0.55868-0.121893 0.31997 0 0.49266 0.121893 0.17776 0.121894 0.24886 0.375839t0.0711 0.685651v1.442408l0.38599 0.04063v0.218393h-1.13767v-0.218393l0.34536-0.04063v-1.427171q0-0.319971-0.0457-0.50789t-0.17776-0.284418q-0.13205-0.0965-0.38599-0.0965-0.18792 0-0.39616 0.08634-0.20315 0.08126-0.35044 0.187919 0.0508 0.233629 0.0508 0.609468v1.43225l0.38599 0.04063v0.218393h-1.16306v-0.218393l0.36568-0.04063v-1.437329q0-0.325049-0.0406-0.50789-0.0356-0.18284-0.15744-0.27426-0.12189-0.09142-0.3606-0.09142-0.19808 0-0.43171 0.101578-0.22855 0.0965-0.40123 0.23363v1.975692l0.3606 0.04063v0.218393h-1.09704z"/>
    <path d="m115.26557 49.664526q-0.58915 0-0.90912-0.401233-0.31489-0.406312-0.31489-1.076727 0-0.431707 0.1676-0.766914t0.46218-0.518048q0.29966-0.187919 0.67042-0.187919 0.45202 0 0.70088 0.259024 0.25395 0.259024 0.27426 0.746598 0 0.314892-0.0305 0.446943h-1.80809q0 0.533285 0.23871 0.873571 0.24379 0.335207 0.68057 0.335207 0.21332 0 0.43679-0.07618t0.34536-0.182841l0.0813 0.18792q-0.14729 0.152367-0.43171 0.259024-0.27934 0.101578-0.56376 0.101578zm0.59423-1.736984q0.0152-0.106657 0.0152-0.223472-5e-3 -0.335207-0.16252-0.533284-0.15237-0.198077-0.47234-0.198077-0.69581 0-0.75676 0.954833z"/>
    <path d="m117.19047 45.769009-0.43171-0.04571v-0.187919l0.74152-0.08634h5e-3l0.0965 0.06603v3.839649l0.47742 0.03555v0.218393h-1.33575v-0.218393l0.44694-0.04063z"/>
    <path d="m118.47542 48.867138q0-0.492653 0.48758-0.711046 0.48757-0.223471 1.21386-0.238708v-0.157446q0-0.259024-0.0559-0.406312-0.0508-0.152367-0.18284-0.218392-0.13205-0.0711-0.37076-0.0711-0.25903 0-0.47234 0.08126-0.20824 0.07618-0.40631 0.18792l-0.11171-0.223475q0.0559-0.05079 0.23363-0.142209 0.17776-0.09142 0.40631-0.162525 0.22855-0.0711 0.44187-0.0711 0.34536 0 0.54344 0.0965 0.20316 0.0965 0.2895 0.309812 0.0914 0.213314 0.0914 0.573916v1.676037h0.31489v0.187919q-0.27934 0.07618-0.47234 0.07618-0.12189 0-0.1676-0.04063-0.0457-0.03555-0.0457-0.172683v-0.187919q-0.18284 0.162525-0.40124 0.289497-0.21331 0.121894-0.48757 0.121894-0.36568 0-0.60947-0.203156-0.23871-0.203156-0.23871-0.594232zm1.00055 0.497733q0.14221 0 0.34028-0.09142 0.19808-0.09142 0.36061-0.218392v-0.898966q-0.61455 0.0051-0.93452 0.182841-0.31489 0.177761-0.31489 0.477416 0 0.289498 0.14728 0.421549 0.14729 0.126973 0.40124 0.126973z"/>
    <path d="m122.93977 46.109296-0.44694-0.05587v-0.218393h2.66134l0.0508 0.83294h-0.27934l-0.13713-0.573916-1.43225-0.02539v1.503354l1.01578-0.01524 0.0863-0.411391h0.23363v1.122437h-0.23363l-0.0863-0.431706-1.01578-0.02032v1.528749l0.79739 0.04571v0.218393h-1.63033v-0.218393l0.41647-0.04571z"/>
    <path d="m125.9871 49.664526q-0.11681 0-0.19807-0.07618-0.0813-0.08126-0.0813-0.208235 0-0.142209 0.0965-0.238708 0.10158-0.0965 0.23363-0.0965 0.13713 0 0.20316 0.08126 0.0711 0.08126 0.0711 0.203156 0 0.142209-0.0965 0.238709t-0.22855 0.0965z"/>
    <path d="m129.29346 49.664526q-0.25902 0-0.4571-0.04571-0.19807-0.04571-0.4571-0.126973-0.17268-0.05587-0.20823-0.06095l0.0406-0.904044h0.2641l0.0762 0.665336q0.0965 0.09142 0.30474 0.157446 0.21331 0.06603 0.46218 0.06603 0.41139 0 0.62978-0.18792 0.21839-0.187919 0.21839-0.518048 0-0.213313-0.11681-0.360601-0.11174-0.147289-0.29458-0.248867-0.17776-0.101578-0.49773-0.238708-0.29965-0.126972-0.51297-0.253945-0.20823-0.126972-0.36568-0.340286-0.15744-0.218393-0.15744-0.518048 0-0.279339 0.15236-0.497732 0.15237-0.218393 0.42155-0.335207 0.27426-0.121894 0.62471-0.121894 0.21331 0 0.37583 0.03555 0.16761 0.03047 0.42155 0.101578 0.13713 0.04063 0.16253 0.04571l-0.0305 0.83294h-0.25395l-0.0914-0.629784q-0.061-0.05079-0.23871-0.0965-0.17268-0.05079-0.37076-0.05079-0.37584 0-0.57391 0.157446-0.19808 0.152367-0.19808 0.457101 0 0.208235 0.10666 0.350444 0.10665 0.137131 0.27426 0.23363 0.1676 0.0965 0.51804 0.259023 0.36569 0.172683 0.56884 0.299656 0.20824 0.121893 0.3606 0.325049 0.15745 0.198077 0.15745 0.482496 0 0.269181-0.15745 0.518047-0.15744 0.243788-0.4571 0.396155-0.29965 0.152367-0.70089 0.152367z"/>
    <path d="m131.43168 49.664526q-0.11682 0-0.19808-0.07618-0.0813-0.08126-0.0813-0.208235 0-0.142209 0.0965-0.238708 0.10157-0.0965 0.23363-0.0965 0.13713 0 0.20315 0.08126 0.0711 0.08126 0.0711 0.203156 0 0.142209-0.0965 0.238709t-0.22855 0.0965z"/>
    <path d="m133.99144 46.109296-0.42663-0.05587v-0.218393h1.35099v0.218393l-0.50789 0.05587v3.235259l1.44749-0.04063 0.28441-0.792309 0.24379 0.04063-0.18792 1.056411h-2.64103v-0.218393l0.43679-0.04571z"/>
    <path d="m137.09464 49.664526q-0.11682 0-0.19808-0.07618-0.0813-0.08126-0.0813-0.208235 0-0.142209 0.0965-0.238708 0.10158-0.0965 0.23363-0.0965 0.13713 0 0.20315 0.08126 0.0711 0.08126 0.0711 0.203156 0 0.142209-0.0965 0.238709t-0.22855 0.0965z"/>
    <path d="m140.70065 49.664526q-0.49265 0-0.84817-0.238709-0.35045-0.243787-0.53329-0.675493-0.18284-0.431707-0.18284-1.000544 0-0.584073 0.22347-1.025937 0.22348-0.446944 0.60947-0.685652 0.386-0.243787 0.85834-0.243787 0.50281 0 0.85833 0.233629 0.3606 0.23363 0.54344 0.660257 0.18792 0.426628 0.18792 1.000544 0 0.589152-0.22855 1.041174-0.22855 0.446943-0.61962 0.69073-0.39108 0.243788-0.8685 0.243788zm0.0813-3.631414q-0.54345 0-0.86342 0.441865-0.31997 0.436785-0.31997 1.274803 0 0.487575 0.13713 0.868492 0.13713 0.380918 0.40124 0.594232 0.2641 0.213313 0.62978 0.213313 0.35552 0 0.61962-0.192998 0.26411-0.198077 0.4114-0.589152 0.14728-0.391076 0.14728-0.954833 0-0.492654-0.13713-0.863413-0.13713-0.375839-0.40123-0.584074-0.25902-0.208235-0.6247-0.208235z"/>
    <path d="m143.20455 49.664526q-0.11681 0-0.19808-0.07618-0.0813-0.08126-0.0813-0.208235 0-0.142209 0.0965-0.238708 0.10158-0.0965 0.23363-0.0965 0.13713 0 0.20316 0.08126 0.0711 0.08126 0.0711 0.203156 0 0.142209-0.0965 0.238709t-0.22855 0.0965z"/>
   </g>
   <g transform="matrix(7.2567965,0,0,7.2567965,655.74353,667.28173)" stop-color="#000000" style="shape-inside:url(#rect28996);white-space:pre" aria-label="Valter R. S. J.">
    <path d="m58.351551 27.469801h1.234173v0.218392l-0.467259 0.05587 0.883728 2.44803 0.213314 0.69073 0.192998-0.700888 0.792309-2.437872-0.406312-0.05587v-0.218392h1.071648v0.218392l-0.32505 0.05587-1.224015 3.539994h-0.335207l-1.315435-3.539994-0.314892-0.05587z"/>
    <path d="m62.038831 30.501904q0-0.492653 0.487575-0.711046 0.487574-0.223472 1.213857-0.238708v-0.157446q0-0.259024-0.05587-0.406312-0.05079-0.152367-0.18284-0.218393-0.132052-0.0711-0.37076-0.0711-0.259024 0-0.472338 0.08126-0.208235 0.07618-0.406312 0.187919l-0.111736-0.223471q0.05587-0.05079 0.23363-0.14221 0.177761-0.09142 0.406312-0.162524 0.22855-0.0711 0.441864-0.0711 0.345365 0 0.543442 0.0965 0.203156 0.0965 0.289498 0.309813 0.09142 0.213314 0.09142 0.573916v1.676037h0.314892v0.187919q-0.27934 0.07618-0.472338 0.07618-0.121894 0-0.167604-0.04063-0.04571-0.03555-0.04571-0.172682v-0.187926q-0.18284 0.162525-0.401233 0.289498-0.213314 0.121893-0.487574 0.121893-0.365681 0-0.609468-0.203156-0.238709-0.203156-0.238709-0.594231zm1.000544 0.497732q0.142209 0 0.340286-0.09142t0.360602-0.218393v-0.898965q-0.614547 0.0051-0.934518 0.18284-0.314891 0.177762-0.314891 0.477417 0 0.289497 0.147288 0.421549 0.147288 0.126972 0.401233 0.126972z"/>
    <path d="m65.253771 27.403775-0.431706-0.04571v-0.187919l0.741519-0.08634h0.0051l0.0965 0.06603v3.839648l0.477417 0.03555v0.218392h-1.335751v-0.218392l0.446943-0.04063z"/>
    <path d="m67.386902 31.299291q-0.269182 0-0.406312-0.121893-0.13713-0.126973-0.13713-0.446944v-2.006165h-0.385997v-0.198077q0.253945-0.05587 0.294576-0.08126 0.07618-0.04063 0.111736-0.157446 0.03047-0.07618 0.08126-0.274261 0.05079-0.198077 0.07618-0.309813h0.233629v0.721204h0.898966v0.299655h-0.89896v1.645564q0 0.294576 0.02032 0.416469 0.02032 0.116815 0.08126 0.152367 0.06095 0.03555 0.213314 0.03555 0.147288 0 0.330129-0.04063 0.18284-0.04063 0.27426-0.08634l0.06603 0.192998q-0.116815 0.09142-0.385996 0.177762-0.269182 0.08126-0.467259 0.08126z"/>
    <path d="m69.804449 31.299291q-0.589152 0-0.909123-0.401233-0.314891-0.406312-0.314891-1.076727 0-0.431706 0.167603-0.766913 0.167604-0.335208 0.46218-0.518048 0.299655-0.18792 0.670415-0.18792 0.452022 0 0.700888 0.259024 0.253945 0.259024 0.274261 0.746599 0 0.314891-0.03047 0.446943h-1.808092q0 0.533284 0.238708 0.873571 0.243787 0.335207 0.680573 0.335207 0.213314 0 0.436785-0.07618 0.223472-0.07618 0.345365-0.18284l0.08126 0.187919q-0.147288 0.152367-0.431707 0.259024-0.279339 0.101578-0.563758 0.101578zm0.594232-1.736983q0.01524-0.106657 0.01524-0.223472-0.0051-0.335207-0.162524-0.533285-0.152367-0.198077-0.472338-0.198077-0.695809 0-0.756756 0.954834z"/>
    <path d="m71.333193 31.03011 0.406312-0.03047v-2.239799l-0.391075-0.086341v-0.22855l0.64502-0.08126h0.01016l0.0965 0.08126v0.08126l-0.01016 0.385996h0.01016q0.01016-0.01016 0.132051-0.152367 0.126973-0.147288 0.37076-0.279339 0.248866-0.132052 0.497732-0.132052 0.08126 0 0.152367 0.02032v0.446943q-0.02032-0.01524-0.09142-0.03047-0.06603-0.01524-0.142209-0.01524-0.289498 0-0.492654 0.08634t-0.375838 0.213314v1.924903l0.675493 0.04063v0.208235h-1.493196z"/>
    <path d="m74.827468 31.025031 0.436785-0.04571v-3.240339l-0.406312-0.06095v-0.208235h0.619626q0.13713 0 0.391075-0.02032 0.243787-0.02032 0.360602-0.02032 0.726283 0 1.036095 0.243787 0.309813 0.243787 0.309813 0.751677 0 0.37076-0.208235 0.670415-0.203156 0.299655-0.5536 0.401233 0.132052 0.08634 0.264103 0.289497 0.13713 0.198077 0.335208 0.5536 0.172682 0.309813 0.27426 0.467259 0.106657 0.152367 0.187919 0.167604l0.213314 0.05587v0.213313h-0.594231q-0.08126 0-0.187919-0.172682-0.106657-0.172683-0.299655-0.558679-0.208235-0.421549-0.345366-0.645021-0.132051-0.223471-0.264102-0.299655-0.619626 0-0.716125-0.0051v1.417013l0.523126 0.04571v0.218392h-1.376381zm1.538906-1.706511q0.350444 0 0.5536-0.218392 0.203156-0.218393 0.203156-0.639942 0-0.370759-0.208235-0.573915-0.208234-0.208235-0.726282-0.208235-0.177762 0-0.350444 0.02032-0.121894 0.01016-0.157446 0.01016v1.604932q0.09142 0.0051 0.365681 0.0051z"/>
    <path d="m78.697584 31.299291q-0.116815 0-0.198077-0.07618-0.08126-0.08126-0.08126-0.208235 0-0.142209 0.0965-0.238708 0.101578-0.0965 0.233629-0.0965 0.13713 0 0.203156 0.08126 0.07111 0.08126 0.07111 0.203156 0 0.142209-0.0965 0.238708-0.0965 0.0965-0.228551 0.0965z"/>
    <path d="m82.003944 31.299291q-0.259024 0-0.457101-0.04571t-0.457101-0.126972q-0.172683-0.05587-0.208235-0.06095l0.04063-0.904044h0.264103l0.07618 0.665336q0.0965 0.09142 0.304734 0.157445 0.213314 0.06603 0.46218 0.06603 0.411391 0 0.629784-0.187919 0.218392-0.187919 0.218392-0.518048 0-0.213314-0.116814-0.360602-0.111736-0.147288-0.294577-0.248866-0.177761-0.101578-0.497732-0.238708-0.299655-0.126973-0.512969-0.253945-0.208234-0.126973-0.36568-0.340286-0.157446-0.218393-0.157446-0.518048 0-0.27934 0.152367-0.497732 0.152367-0.218393 0.421548-0.335208 0.274261-0.121893 0.624705-0.121893 0.213314 0 0.375839 0.03555 0.167603 0.03047 0.421548 0.101578 0.137131 0.04063 0.162525 0.04571l-0.03047 0.83294h-0.253944l-0.09142-0.629784q-0.06095-0.05079-0.238709-0.0965-0.172682-0.05079-0.370759-0.05079-0.375839 0-0.573916 0.157446-0.198077 0.152367-0.198077 0.457101 0 0.208235 0.106657 0.350444 0.106657 0.13713 0.27426 0.233629 0.167604 0.0965 0.518048 0.259024 0.365681 0.172683 0.568837 0.299655 0.208235 0.121894 0.360602 0.32505 0.157446 0.198077 0.157446 0.482495 0 0.269182-0.157446 0.518048-0.157446 0.243787-0.457101 0.396154t-0.700888 0.152367z"/>
    <path d="m84.142156 31.299291q-0.116814 0-0.198077-0.07618-0.08126-0.08126-0.08126-0.208235 0-0.142209 0.0965-0.238708 0.101578-0.0965 0.233629-0.0965 0.137131 0 0.203156 0.08126 0.07111 0.08126 0.07111 0.203156 0 0.142209-0.0965 0.238708-0.0965 0.0965-0.228551 0.0965z"/>
    <path d="m85.990874 31.939233q0.233629-0.06095 0.416469-0.23363 0.182841-0.167603 0.259024-0.41647 0.06603-0.208234 0.08126-0.467258 0.02031-0.259024 0.02031-0.863413v-2.209322l-0.50789-0.06095v-0.218392h1.417013v0.218392l-0.487574 0.06095v2.49374q0 0.319971-0.01016 0.528206-0.01016 0.203156-0.04063 0.36568-0.08126 0.411391-0.380917 0.665336-0.294577 0.253945-0.655178 0.319971z"/>
    <path d="m88.504919 31.299291q-0.116815 0-0.198077-0.07618-0.08126-0.08126-0.08126-0.208235 0-0.142209 0.0965-0.238708 0.101578-0.0965 0.233629-0.0965 0.13713 0 0.203156 0.08126 0.07111 0.08126 0.07111 0.203156 0 0.142209-0.0965 0.238708-0.0965 0.0965-0.22855 0.0965z"/>
   </g>
  </g>
 </g>
</svg>
