<?xml version="1.0" encoding="UTF-8"?>

<svg width="960" height="540" version="1.1" viewBox="0 0 960 540" xml:space="preserve" xmlns="http://www.w3.org/2000/svg"><g transform="matrix(1.3333333,0,0,-1.3333333,0,540)"><g transform="matrix(1,0,0,-1,0,405)"><g transform="scale(.0019685)"><path d="m16589 17801h336708v22908h-336708z" fill-opacity="0"/></g><g transform="matrix(.7499985 0 0 .7499985 32.655448 35.041269)"><g transform="translate(9,41.255997)" fill="#ed4e38" aria-label="REFERÊNCIAS"><path d="m2.0159999-27.215999h7.4927997q4.4687994 0 6.7535994 1.5792t2.2848 5.6112q0 2.7216-0.7056 4.3344t-2.6208 2.52l3.7296 13.171199h-6.216l-2.9903994-12.196799h-1.7136v12.196799h-6.0143997zm7.6943997 11.5584q1.8143994 0 2.5199994-0.9408 0.7392-0.9744 0.7392-2.8896 0-1.848-0.672-2.7552-0.672-0.9408-2.3183995-0.9408h-1.9487999v7.5264z"/><path d="m26.175956-27.215999h12.230399v4.0992h-6.215999v6.7536h4.737599v4.1664h-4.737599v8.1311992h6.283199v4.0655998h-12.297599z"/><path d="m45.195115-27.215999h11.76v4.0656h-5.7456v6.8544h5.0064v4.2h-5.0064v12.095999h-6.0144z"/><path d="m63.777459-27.215999h12.2304v4.0992h-6.216v6.7536h4.7376v4.1664h-4.7376v8.1311992h6.2832v4.0655998h-12.2976z"/><path d="m82.796617-27.215999h7.492799q4.4688 0 6.7536 1.5792t2.2848 5.6112q0 2.7216-0.7056 4.3344t-2.6208 2.52l3.7296 13.171199h-6.216l-2.9904-12.196799h-1.7136v12.196799h-6.014399zm7.694399 11.5584q1.8144 0 2.52-0.9408 0.7392-0.9744 0.7392-2.8896 0-1.848-0.672-2.7552-0.672-0.9408-2.3184-0.9408h-1.9488v7.5264z"/><path d="m106.95657-27.215999h12.2304v4.0992h-6.216v6.7536h4.7376v4.1664h-4.7376v8.1311992h6.2832v4.0655998h-12.2976zm3.8976-8.836799h4.4688l3.2928 6.451199h-4.032l-1.4784-3.998399-1.4448 3.998399h-3.9984z"/><path d="m125.97573-27.215999h4.2336l5.5776 13.104v-13.104h4.9728v27.215999h-4.0656l-5.5776-14.111999v14.111999h-5.1408z"/><path d="m156.62051 0.40319998q-4.4352 0-6.3168-2.31839988-1.848-2.3519999-1.848-6.7535997v-9.8111994q0-4.5024 1.848-6.7872 1.848-2.3184 6.3168-2.3184 4.2672 0 6.048 2.0496t1.7808 5.8128v2.352h-5.88v-2.7216q0-1.5792-0.336-2.4192t-1.6128-0.84-1.68 0.9072q-0.4032 0.8736-0.4032 2.4528v12.8015993q0 1.6128 0.4032 2.4863999 0.4368 0.84 1.68 0.84t1.5792-0.84q0.3696-0.8735999 0.3696-2.4863999v-2.8560003h5.88v2.3520003q0 3.8303999-1.7808 5.9807998-1.7808 2.11679988-6.048 2.11679988z"/><path d="m171.7757-27.215999h6.0144v27.215999h-6.0144z"/><path d="m189.68608-27.215999h6.8544l5.0736 27.215999h-5.544l-0.9072-5.7455997h-3.9984l-0.9408 5.7455997h-5.6784zm4.9056 17.8751994-1.4448-10.6175994-1.4448 10.6175994z"/><path d="m215.32438 0.40319998q-3.8976 0-5.8128-2.04959988-1.8816-2.0831999-2.016-6.5855997l5.1408-0.7728q0.0336 2.5871999 0.6048 3.7295998 0.6048 1.1088 1.7808 1.1088 1.512 0 1.512-1.9823999 0-1.5791999-0.7392-2.7215999-0.7056-1.1424004-2.2512-2.4527994l-2.352-2.0496q-1.7472-1.4784-2.7216-3.1248-0.9408-1.68-0.9408-3.9648 0-3.4272 2.016-5.2752 2.0496-1.848 5.6112-1.848 3.864 0 5.2416 2.2512 1.4112 2.2512 1.512 5.4768l-5.1744 0.6384q-0.0672-2.1168-0.4032-3.024-0.3024-0.9408-1.3776-0.9408-0.7728 0-1.2096 0.672-0.4032 0.6384-0.4032 1.4448 0 1.3776 0.6048 2.3184 0.6384 0.9408 2.016 2.1504l2.2512 1.9824q2.016 1.7136 3.1248 3.628799 1.1088 1.9152004 1.1088 4.5360003 0 1.9151999-0.9072 3.4943998-0.8736 1.5456-2.4864 2.45279992-1.6128 0.90719996-3.7296 0.90719996z"/></g></g><g transform="scale(.0019685)"><path d="m16589 46099h329112v136656h-329112z" fill-opacity="0"/></g></g></g></svg>
