<?xml version="1.0" encoding="UTF-8" standalone="no"?>


<svg
   version="1.1"
   id="svg2"
   xml:space="preserve"
   width="960"
   height="540"
   viewBox="0 0 960 540"
   sodipodi:docname="1.svg"
   inkscape:version="1.1 (c4e8f9ed74, 2021-05-24)"
   xmlns:inkscape="http://www.inkscape.org/namespaces/inkscape"
   xmlns:sodipodi="http://sodipodi.sourceforge.net/DTD/sodipodi-0.dtd"
   xmlns="http://www.w3.org/2000/svg"
   xmlns:svg="http://www.w3.org/2000/svg"><defs
     id="defs6"><clipPath
       clipPathUnits="userSpaceOnUse"
       id="clipPath18"><path
         d="M 0,0 H 365760 V 205740 H 0 Z"
         id="path16" /></clipPath></defs><sodipodi:namedview
     id="namedview4"
     pagecolor="#ffffff"
     bordercolor="#666666"
     borderopacity="1.0"
     inkscape:pageshadow="2"
     inkscape:pageopacity="0.0"
     inkscape:pagecheckerboard="0"
     showgrid="false"
     inkscape:snap-bbox="true"
     inkscape:bbox-paths="true"
     inkscape:bbox-nodes="true"
     inkscape:snap-bbox-edge-midpoints="true"
     inkscape:snap-bbox-midpoints="true"
     inkscape:object-paths="true"
     inkscape:object-nodes="true"
     inkscape:snap-intersection-paths="true"
     inkscape:snap-smooth-nodes="true"
     inkscape:snap-midpoints="true"
     inkscape:zoom="1.3944444"
     inkscape:cx="263.18725"
     inkscape:cy="218.36653"
     inkscape:window-width="1920"
     inkscape:window-height="1012"
     inkscape:window-x="0"
     inkscape:window-y="32"
     inkscape:window-maximized="1"
     inkscape:current-layer="text42" /><g
     id="g8"
     inkscape:groupmode="layer"
     inkscape:label="Sociologia (1)"
     transform="matrix(1.3333333,0,0,-1.3333333,0,540)"><g
       id="g10"
       transform="matrix(1,0,0,-1,0,405)"><g
         id="g12"
         transform="scale(0.0019685)"><g
           id="g14"
           clip-path="url(#clipPath18)"><g
             transform="matrix(3.0311141,0,0,3.0311141,-57006.15,-223832.82)"
             stroke-width="0.329913"
             id="g3877"><path
               d="m 28479.452,95369.918 c 156.184,135.02 255.159,324.34 276.751,529.66 21.588,205.33 -35.829,411.27 -160.509,575.82 -130.887,164.7 -320.449,272.17 -528.979,299.9 -208.528,27.72 -400.323,-9.74 -569.699,-134.5 -13.223,-8.93 -34.668,-0.84 -47.244,6.13 -7.486,4.14 -33.234,38.95 -57.912,69.41 -20.854,-12.95 -43.386,-29.5 -52.363,-27.75 0,0 -5.042,11.71 -6.616,17.87 -17.812,69.62 -87.083,159.57 -133.629,214.05 -25.213,29.52 -185.21,190.43 -324.672,359.08 -77.591,93.83 -171.821,240.28 -177.998,247.6 -24.087,28.55 -4.611,52.45 -4.611,52.45 0,0 28.933,26.48 44.41,38.48 15.571,12.06 48.57,33.64 48.57,33.64 0,0 27.77,12.84 49.461,-17.58 5.562,-7.8 124.11,-135.34 195.763,-233.78 128.79,-176.92 245.014,-371.71 267.353,-403.46 41.239,-58.59 111.253,-148.11 174.284,-182.63 5.569,-3.05 15.778,-10.93 15.778,-10.93 -0.438,-7.66 -18.892,-21.81 -33.453,-36.63 26.911,-27.41 57.793,-67.31 76.172,-49.91 175.657,136.6 398.483,197.73 619.287,170.11 220.801,-27.61 421.492,-141.7 558.098,-317.36 136.606,-175.65 216.43,-401.51 170.241,-619.19 -52.271,-246.34 -155.537,-481.73 -398.482,-580.48 z"
               fill="#ed4e38"
               style="paint-order:fill markers stroke"
               id="path3869" /><g
               transform="rotate(4.7574269,178373.68,71098.412)"
               stroke-width="0.329913"
               id="g3875"><g
                 transform="translate(9702.9621,2327.6761)"
                 stroke-width="0.329913"
                 id="g3873"><path
                   d="m 20635.038,105655.32 c -7.394,8.98 -14.061,18.32 -20.433,27.69 l -511.605,621.53 c -9.436,11.46 -7.814,28.23 3.655,37.67 l 221.653,182.45 c 11.457,9.43 28.236,7.81 37.673,-3.66 l 301.705,-366.52 c 98.518,67.94 865.519,750.13 1267.84,1073.95 87.57,70.49 275.157,194.98 275.157,194.98 23.375,19.24 57.619,16.14 76.86,-7.24 l 21.066,-25.59 c 19.241,-23.38 14.913,-56.67 -7.474,-77.06 0,0 -168.715,-165.22 -261.396,-238.01 -393.682,-309.19 -1202.077,-943.54 -1280.634,-1032.09 l 118.479,-143.93 c 30.204,-30.88 58.316,-69.88 71.92,-102.7 l 173.392,-419.76 c 20.021,-48.46 0.973,-64.13 -42.733,-35.18 l -378.608,250.84 c -21.858,14.48 -45.733,37.38 -66.518,62.63 z"
                   fill="#ed4e38"
                   style="paint-order:fill markers stroke"
                   id="path3871" /></g></g></g><g
             id="g26"><g
               id="g28"><g
                 id="g30"><path
                   d="M 16589,17801 H 353297 V 40709 H 16589 Z"
                   style="fill:#000000;fill-opacity:0;fill-rule:evenodd;stroke:none"
                   id="path32" /></g></g></g><g
             id="g34"
             transform="scale(381)"><g
               id="g36"
               transform="translate(43.540684,46.721786)"><g
                 id="g38"><g
                   aria-label="CONTEXTO HISTÓRICO"
                   transform="translate(9,41.255997)"
                   id="text42"
                   style="font-weight:bold;font-size:33.6px;font-family:Oswald;-inkscape-font-specification:Oswald-Bold;letter-spacing:4.00001px;fill:#ed4e38"><path
                     d="m 9.8111996,0.40319998 q -4.4351998,0 -6.3167998,-2.31839988 -1.8479999,-2.3519999 -1.8479999,-6.7535997 v -9.8111994 q 0,-4.5024 1.8479999,-6.7872 1.848,-2.3184 6.3167998,-2.3184 4.2671994,0 6.0479994,2.0496 1.7808,2.0496 1.7808,5.8128 v 2.352 h -5.88 v -2.7216 q 0,-1.5792 -0.336,-2.4192 -0.336,-0.84 -1.6127994,-0.84 -1.2768,0 -1.68,0.9072 -0.4032,0.8736 -0.4032,2.4528 v 12.8015993 q 0,1.6128 0.4032,2.4863999 0.4368,0.84 1.68,0.84 1.2431994,0 1.5791994,-0.84 0.3696,-0.8735999 0.3696,-2.4863999 V -10.0464 h 5.88 v 2.3520003 q 0,3.8303999 -1.7808,5.9807998 -1.7808,2.11679988 -6.0479994,2.11679988 z"
                     id="path8986" /><path
                     d="m 32.727997,0.40319998 q -4.4016,0 -6.2832,-2.25119988 -1.881599,-2.2847999 -1.881599,-6.7199997 V -18.681599 q 0,-4.4352 1.881599,-6.6528 1.8816,-2.2512 6.2832,-2.2512 4.4352,0 6.3168,2.2512 1.9152,2.2512 1.9152,6.6528 v 10.1135994 q 0,4.4351998 -1.9152,6.7199997 -1.8816,2.25119988 -6.3168,2.25119988 z m 0,-4.26719978 q 1.2768,0 1.68,-0.84 0.4032,-0.8735999 0.4032,-2.3519999 V -20.159999 q 0,-1.512 -0.4032,-2.352 -0.4032,-0.84 -1.68,-0.84 -1.2096,0 -1.6128,0.8736 -0.4032,0.84 -0.4032,2.3184 v 13.1039993 q 0,1.4784 0.3696,2.3519999 0.3696,0.84 1.6464,0.84 z"
                     id="path8988" /><path
                     d="m 48.622357,-27.215999 h 4.2336 l 5.5776,13.104 v -13.104 h 4.9728 V 0 h -4.0656 l -5.5776,-14.111999 V 0 h -5.1408 z"
                     id="path8990" /><path
                     d="m 73.924725,-22.747199 h -4.0992 v -4.4688 h 14.212799 v 4.4688 H 79.972725 V 0 h -6.048 z"
                     id="path8992" /><path
                     d="m 90.423928,-27.215999 h 12.230402 v 4.0992 h -6.216002 v 6.7536 h 4.737602 v 4.1664 h -4.737602 v 8.1311992 h 6.283202 V 0 H 90.423928 Z"
                     id="path8994" /><path
                     d="m 112.93749,-14.649599 -5.04,-12.5664 h 5.6784 l 2.9904,7.3584 2.4192,-7.3584 h 5.0064 l -4.7712,14.1456 L 124.52949,0 h -5.6448 L 115.55829,-8.1311996 112.63509,0 h -4.9728 z"
                     id="path8996" /><path
                     d="m 133.19988,-22.747199 h -4.0992 v -4.4688 h 14.2128 v 4.4688 h -4.0656 V 0 h -6.048 z"
                     id="path8998" /><path
                     d="m 157.22543,0.40319998 q -4.4016,0 -6.2832,-2.25119988 -1.8816,-2.2847999 -1.8816,-6.7199997 V -18.681599 q 0,-4.4352 1.8816,-6.6528 1.8816,-2.2512 6.2832,-2.2512 4.4352,0 6.3168,2.2512 1.9152,2.2512 1.9152,6.6528 v 10.1135994 q 0,4.4351998 -1.9152,6.7199997 -1.8816,2.25119988 -6.3168,2.25119988 z m 0,-4.26719978 q 1.2768,0 1.68,-0.84 0.4032,-0.8735999 0.4032,-2.3519999 V -20.159999 q 0,-1.512 -0.4032,-2.352 -0.4032,-0.84 -1.68,-0.84 -1.2096,0 -1.6128,0.8736 -0.4032,0.84 -0.4032,2.3184 v 13.1039993 q 0,1.4784 0.3696,2.3519999 0.3696,0.84 1.6464,0.84 z"
                     id="path9000" /><path
                     d="m 185.82214,-27.215999 h 6.0144 v 11.0208 h 4.2 v -11.0208 h 6.048 V 0 h -6.048 v -11.894399 h -4.2 V 0 h -6.0144 z"
                     id="path9002" /><path
                     d="m 210.25091,-27.215999 h 6.0144 V 0 h -6.0144 z"
                     id="path9004" /><path
                     d="m 231.55486,0.40319998 q -3.8976,0 -5.8128,-2.04959988 -1.88159,-2.0831999 -2.01599,-6.5855997 l 5.14079,-0.7728 q 0.0336,2.5871999 0.6048,3.7295998 0.6048,1.1088 1.7808,1.1088 1.512,0 1.512,-1.9823999 0,-1.5791999 -0.7392,-2.7215999 -0.7056,-1.1424004 -2.2512,-2.4527994 l -2.352,-2.0496 q -1.7472,-1.4784 -2.72159,-3.1248 -0.9408,-1.68 -0.9408,-3.9648 0,-3.4272 2.01599,-5.2752 2.0496,-1.848 5.6112,-1.848 3.864,0 5.2416,2.2512 1.4112,2.2512 1.512,5.4768 l -5.1744,0.6384 q -0.0672,-2.1168 -0.4032,-3.024 -0.3024,-0.9408 -1.3776,-0.9408 -0.7728,0 -1.2096,0.672 -0.4032,0.6384 -0.4032,1.4448 0,1.3776 0.6048,2.3184 0.6384,0.9408 2.016,2.1504 l 2.2512,1.9824 q 2.016,1.7136 3.1248,3.628799 1.1088,1.9152004 1.1088,4.5360003 0,1.9151999 -0.9072,3.4943998 -0.8736,1.5456 -2.4864,2.45279992 -1.6128,0.90719996 -3.7296,0.90719996 z"
                     id="path9006" /><path
                     d="m 248.05408,-22.747199 h -4.0992 v -4.4688 h 14.2128 v 4.4688 h -4.0656 V 0 h -6.048 z"
                     id="path9008" /><path
                     d="m 272.07963,0.40319998 q -4.4016,0 -6.2832,-2.25119988 -1.8816,-2.2847999 -1.8816,-6.7199997 V -18.681599 q 0,-4.4352 1.8816,-6.6528 1.8816,-2.2512 6.2832,-2.2512 4.4352,0 6.3168,2.2512 1.9152,2.2512 1.9152,6.6528 v 10.1135994 q 0,4.4351998 -1.9152,6.7199997 -1.8816,2.25119988 -6.3168,2.25119988 z m 0,-4.26719978 q 1.2768,0 1.68,-0.84 0.4032,-0.8735999 0.4032,-2.3519999 V -20.159999 q 0,-1.512 -0.4032,-2.352 -0.4032,-0.84 -1.68,-0.84 -1.2096,0 -1.6128,0.8736 -0.4032,0.84 -0.4032,2.3184 v 13.1039993 q 0,1.4784 0.3696,2.3519999 0.3696,0.84 1.6464,0.84 z m 0.336,-32.2559982 h 5.5776 l -4.2336,6.753599 h -3.4608 z"
                     id="path9010" /><path
                     d="m 287.97398,-27.215999 h 7.4928 q 4.4688,0 6.7536,1.5792 2.2848,1.5792 2.2848,5.6112 0,2.7216 -0.7056,4.3344 -0.7056,1.6128 -2.6208,2.52 L 304.90838,0 h -6.216 l -2.9904,-12.196799 h -1.7136 V 0 h -6.0144 z m 7.6944,11.5584 q 1.8144,0 2.52,-0.9408 0.7392,-0.9744 0.7392,-2.8896 0,-1.848 -0.672,-2.7552 -0.672,-0.9408 -2.3184,-0.9408 h -1.9488 v 7.5264 z"
                     id="path9012" /><path
                     d="m 312.16755,-27.215999 h 6.0144 V 0 h -6.0144 z"
                     id="path9014" /><path
                     d="m 334.04271,0.40319998 q -4.4352,0 -6.3168,-2.31839988 -1.848,-2.3519999 -1.848,-6.7535997 v -9.8111994 q 0,-4.5024 1.848,-6.7872 1.848,-2.3184 6.3168,-2.3184 4.2672,0 6.048,2.0496 1.7808,2.0496 1.7808,5.8128 v 2.352 h -5.88 v -2.7216 q 0,-1.5792 -0.336,-2.4192 -0.336,-0.84 -1.6128,-0.84 -1.2768,0 -1.68,0.9072 -0.4032,0.8736 -0.4032,2.4528 v 12.8015993 q 0,1.6128 0.4032,2.4863999 0.4368,0.84 1.68,0.84 1.2432,0 1.5792,-0.84 0.3696,-0.8735999 0.3696,-2.4863999 V -10.0464 h 5.88 v 2.3520003 q 0,3.8303999 -1.7808,5.9807998 -1.7808,2.11679988 -6.048,2.11679988 z"
                     id="path9016" /><path
                     d="m 356.95951,0.40319998 q -4.40159,0 -6.28319,-2.25119988 -1.8816,-2.2847999 -1.8816,-6.7199997 V -18.681599 q 0,-4.4352 1.8816,-6.6528 1.8816,-2.2512 6.28319,-2.2512 4.4352,0 6.3168,2.2512 1.9152,2.2512 1.9152,6.6528 v 10.1135994 q 0,4.4351998 -1.9152,6.7199997 -1.8816,2.25119988 -6.3168,2.25119988 z m 0,-4.26719978 q 1.2768,0 1.68,-0.84 0.4032,-0.8735999 0.4032,-2.3519999 V -20.159999 q 0,-1.512 -0.4032,-2.352 -0.4032,-0.84 -1.68,-0.84 -1.20959,0 -1.61279,0.8736 -0.4032,0.84 -0.4032,2.3184 v 13.1039993 q 0,1.4784 0.3696,2.3519999 0.3696,0.84 1.64639,0.84 z"
                     id="path9018" /></g></g></g></g><g
             id="g44"
             transform="scale(381)" /><g
             id="g46"><g
               id="g48"><g
                 id="g50"><path
                   d="M 16589,46099 H 345701 V 182755 H 16589 Z"
                   style="fill:#000000;fill-opacity:0;fill-rule:evenodd;stroke:none"
                   id="path52" /></g></g></g><g
             aria-label="Primeira Revolução Industrial;"
             id="text66"
             style="font-weight:300;font-size:7620px;font-family:Merriweather;-inkscape-font-specification:Merriweather-Light;fill:#ed4e38;stroke-width:381"><path
               d="m 39365.18,51593.019 -609.6,-83.82 v -327.66 h 922.02 q 167.64,0 327.66,-7.62 167.64,-15.24 243.84,-15.24 396.24,-30.48 762,-30.48 1074.42,0 1516.38,403.86 449.58,396.24 449.58,1196.34 0,601.98 -289.56,1043.94 -289.56,441.96 -784.86,678.18 -495.3,228.6 -1104.9,228.6 -243.84,0 -502.92,-7.62 -251.46,-15.24 -304.8,-22.86 v 1790.7 l 1059.18,76.2 v 327.66 h -2339.34 v -327.66 l 655.32,-68.58 z m 624.84,2682.24 q 190.5,30.48 822.96,30.48 655.32,0 1074.42,-365.76 419.1,-373.38 419.1,-1211.58 0,-662.94 -358.14,-944.88 -358.14,-289.56 -1127.76,-289.56 -236.22,0 -525.78,30.48 -228.6,15.24 -304.8,15.24 z"
               id="path8929" /><path
               d="m 43563.798,56523.159 609.6,-45.72 v -3360.42 l -586.74,-129.54 v -342.9 l 967.74,-121.92 h 15.24 l 144.78,121.92 v 121.92 l -15.24,579.12 h 15.24 q 15.24,-15.24 198.12,-228.6 190.5,-220.98 556.26,-419.1 373.38,-198.12 746.76,-198.12 121.92,0 228.6,30.48 v 670.56 q -30.48,-22.86 -137.16,-45.72 -99.06,-22.86 -213.36,-22.86 -434.34,0 -739.14,129.54 -304.8,129.54 -563.88,320.04 v 2887.98 l 1013.46,60.96 v 312.42 h -2240.28 z"
               id="path8931" /><path
               d="m 47853.858,51813.999 q -411.48,0 -411.48,-434.34 0,-220.98 129.54,-358.14 129.54,-144.78 350.52,-144.78 228.6,0 327.66,129.54 99.06,121.92 99.06,304.8 0,236.22 -129.54,373.38 -121.92,129.54 -358.14,129.54 z m -243.84,1303.02 -594.36,-129.54 v -342.9 l 1043.94,-121.92 h 15.24 l 152.4,121.92 v 3817.62 l 662.94,53.34 v 327.66 h -1950.72 v -327.66 l 670.56,-60.96 z"
               id="path8933" /><path
               d="m 49423.581,56515.539 487.68,-60.96 v -3337.56 l -586.74,-129.54 v -342.9 l 967.74,-121.92 167.64,121.92 v 335.28 l -7.62,190.5 q 281.94,-243.84 739.14,-449.58 457.2,-205.74 830.58,-205.74 411.48,0 655.32,137.16 251.46,137.16 381,426.72 236.22,-198.12 685.8,-381 457.2,-182.88 838.2,-182.88 480.06,0 739.14,182.88 266.7,182.88 373.38,563.88 106.68,381 106.68,1028.7 v 2164.08 l 579.12,60.96 v 327.66 h -1706.88 v -327.66 l 518.16,-60.96 v -2141.22 q 0,-480.06 -68.58,-762 -68.58,-281.94 -266.7,-426.72 -198.12,-144.78 -579.12,-144.78 -281.94,0 -594.36,129.54 -304.8,121.92 -525.78,281.94 76.2,350.52 76.2,914.4 v 2148.84 l 579.12,60.96 v 327.66 h -1744.98 v -327.66 l 548.64,-60.96 v -2156.46 q 0,-487.68 -60.96,-762 -53.34,-274.32 -236.22,-411.48 -182.88,-137.16 -541.02,-137.16 -297.18,0 -647.7,152.4 -342.9,144.78 -601.98,350.52 v 2964.18 l 541.02,60.96 v 327.66 h -1645.92 z"
               id="path8935" /><path
               d="m 58780.939,56927.019 q -883.92,0 -1363.98,-601.98 -472.44,-609.6 -472.44,-1615.44 0,-647.7 251.46,-1150.62 251.46,-502.92 693.42,-777.24 449.58,-281.94 1005.84,-281.94 678.18,0 1051.56,388.62 381,388.62 411.48,1120.14 0,472.44 -45.72,670.56 h -2712.72 q 0,800.1 358.14,1310.64 365.76,502.92 1021.08,502.92 320.04,0 655.32,-114.3 335.28,-114.3 518.16,-274.32 l 121.92,281.94 q -220.98,228.6 -647.7,388.62 -419.1,152.4 -845.82,152.4 z m 891.54,-2606.04 q 22.86,-160.02 22.86,-335.28 -7.62,-502.92 -243.84,-800.1 -228.6,-297.18 -708.66,-297.18 -1043.94,0 -1135.38,1432.56 z"
               id="path8937" /><path
               d="m 61935.62,51813.999 q -411.48,0 -411.48,-434.34 0,-220.98 129.54,-358.14 129.54,-144.78 350.52,-144.78 228.6,0 327.66,129.54 99.06,121.92 99.06,304.8 0,236.22 -129.54,373.38 -121.92,129.54 -358.14,129.54 z m -243.84,1303.02 -594.36,-129.54 v -342.9 l 1043.94,-121.92 h 15.24 l 152.4,121.92 v 3817.62 l 662.94,53.34 v 327.66 h -1950.72 v -327.66 l 670.56,-60.96 z"
               id="path8939" /><path
               d="m 63543.442,56523.159 609.601,-45.72 v -3360.42 l -586.741,-129.54 v -342.9 l 967.741,-121.92 h 15.24 l 144.78,121.92 v 121.92 l -15.24,579.12 h 15.24 q 15.239,-15.24 198.12,-228.6 190.5,-220.98 556.259,-419.1 373.38,-198.12 746.76,-198.12 121.92,0 228.6,30.48 v 670.56 q -30.48,-22.86 -137.16,-45.72 -99.06,-22.86 -213.36,-22.86 -434.34,0 -739.139,129.54 -304.8,129.54 -563.881,320.04 v 2887.98 l 1013.46,60.96 v 312.42 h -2240.28 z"
               id="path8941" /><path
               d="m 66987.682,55730.679 q 0,-739.14 731.52,-1066.8 731.52,-335.28 1821.181,-358.14 v -236.22 q 0,-388.62 -83.821,-609.6 -76.2,-228.6 -274.32,-327.66 -198.12,-106.68 -556.26,-106.68 -388.62,0 -708.66,121.92 -312.42,114.3 -609.6,281.94 l -167.64,-335.28 q 83.82,-76.2 350.52,-213.36 266.7,-137.16 609.6,-243.84 342.9,-106.68 662.94,-106.68 518.16,0 815.34,144.78 304.8,144.78 434.34,464.82 137.16,320.04 137.16,861.06 v 2514.6 h 472.44 v 281.94 q -419.1,114.3 -708.66,114.3 -182.879,0 -251.46,-60.96 -68.58,-53.34 -68.58,-259.08 v -281.94 q -274.32,243.84 -601.98,434.34 -320.04,182.88 -731.52,182.88 -548.64,0 -914.4,-304.8 -358.14,-304.8 -358.14,-891.54 z m 1501.14,746.76 q 213.36,0 510.54,-137.16 297.18,-137.16 541.021,-327.66 v -1348.74 q -922.021,7.62 -1402.081,274.32 -472.44,266.7 -472.44,716.28 0,434.34 220.98,632.46 220.98,190.5 601.98,190.5 z"
               id="path8943" /><path
               d="m 73030.336,56515.539 655.32,-68.58 v -4861.56 l -609.6,-91.44 v -312.42 h 929.64 q 205.74,0 586.74,-30.48 365.76,-30.48 541.02,-30.48 1089.66,0 1554.48,365.76 464.82,365.76 464.82,1127.76 0,556.26 -312.42,1005.84 -304.8,449.58 -830.58,601.98 198.12,129.54 396.24,434.34 205.74,297.18 502.92,830.58 259.08,464.82 411.48,701.04 160.02,228.6 281.94,251.46 l 320.04,83.82 v 320.04 h -891.54 q -121.92,0 -281.94,-259.08 -160.02,-259.08 -449.58,-838.2 -312.42,-632.46 -518.16,-967.74 -198.12,-335.28 -396.24,-449.58 -929.64,0 -1074.42,-7.62 v 2125.98 l 784.86,68.58 v 327.66 h -2065.02 z m 2308.86,-2560.32 q 525.78,0 830.58,-327.66 304.8,-327.66 304.8,-960.12 0,-556.26 -312.42,-861.06 -312.42,-312.42 -1089.66,-312.42 -266.7,0 -525.78,30.48 -182.88,15.24 -236.22,15.24 v 2407.92 q 137.16,7.62 548.64,7.62 z"
               id="path8945" /><path
               d="m 80124.56,56927.019 q -883.92,0 -1363.98,-601.98 -472.44,-609.6 -472.44,-1615.44 0,-647.7 251.46,-1150.62 251.46,-502.92 693.42,-777.24 449.58,-281.94 1005.84,-281.94 678.18,0 1051.56,388.62 381,388.62 411.48,1120.14 0,472.44 -45.72,670.56 h -2712.72 q 0,800.1 358.14,1310.64 365.76,502.92 1021.08,502.92 320.04,0 655.32,-114.3 335.28,-114.3 518.16,-274.32 l 121.92,281.94 q -220.98,228.6 -647.7,388.62 -419.1,152.4 -845.82,152.4 z m 891.54,-2606.04 q 22.86,-160.02 22.86,-335.28 -7.62,-502.92 -243.84,-800.1 -228.6,-297.18 -708.66,-297.18 -1043.94,0 -1135.38,1432.56 z"
               id="path8947" /><path
               d="m 82060.037,52614.099 h 1615.44 v 312.42 l -563.88,99.06 815.34,2263.14 373.38,1082.04 320.04,-1043.94 815.34,-2301.24 -533.4,-99.06 v -312.42 h 1455.42 v 312.42 l -388.62,99.06 -1501.14,3878.58 h -510.54 l -1539.24,-3878.58 -358.14,-99.06 z"
               id="path8949" /><path
               d="m 86700.627,54701.979 q 0,-662.94 274.32,-1165.86 281.94,-502.92 731.52,-769.62 457.2,-266.7 952.5,-266.7 960.12,0 1417.32,624.84 464.82,624.84 464.82,1600.2 0,662.94 -281.94,1165.86 -274.32,502.92 -731.52,769.62 -449.58,266.7 -944.88,266.7 -960.12,0 -1424.94,-624.84 -457.2,-624.84 -457.2,-1600.2 z m 1920.24,1828.8 q 586.74,0 906.78,-449.58 320.04,-449.58 320.04,-1310.64 0,-822.96 -297.18,-1348.74 -297.18,-525.78 -922.02,-525.78 -586.74,0 -914.4,449.58 -320.04,449.58 -320.04,1310.64 0,830.58 297.18,1356.36 304.8,518.16 929.64,518.16 z"
               id="path8951" /><path
               d="m 91859.357,51082.479 -647.7,-68.58 v -281.94 l 1112.52,-129.54 h 7.62 l 144.78,99.06 v 5760.72 l 716.28,53.34 v 327.66 h -2004.06 v -327.66 l 670.56,-60.96 z"
               id="path8953" /><path
               d="m 97231.462,56911.779 q -198.12,0 -289.56,-68.58 -91.44,-68.58 -91.44,-251.46 v -297.18 q -281.94,251.46 -662.94,441.96 -381,190.5 -762,190.5 -693.42,0 -990.6,-388.62 -289.56,-388.62 -289.56,-1264.92 v -2240.28 l -449.58,-129.54 v -281.94 l 922.02,-99.06 h 7.62 l 137.16,91.44 v 2567.94 q 0,480.06 68.58,754.38 68.58,266.7 251.46,396.24 182.88,129.54 533.4,129.54 335.28,0 640.08,-144.78 304.8,-144.78 525.78,-342.9 v -2941.32 l -579.12,-129.54 v -281.94 l 1013.46,-99.06 h 7.62 l 175.26,91.44 v 3893.82 h 472.44 l -7.62,289.56 q -38.1,7.62 -220.98,60.96 -182.88,53.34 -411.48,53.34 z"
               id="path8955" /><path
               d="m 98443.041,54755.319 q 0,-617.22 236.22,-1127.76 243.84,-518.16 716.28,-822.96 480.06,-304.8 1165.859,-304.8 297.18,0 579.12,76.2 281.94,68.58 487.68,152.4 l -30.48,1089.66 h -381 l -160.02,-731.52 q -45.72,-228.6 -655.32,-228.6 -594.359,0 -952.499,457.2 -350.52,457.2 -350.52,1249.68 0,944.88 381,1432.56 381,487.68 990.599,487.68 320.04,0 617.22,-106.68 304.8,-106.68 502.92,-243.84 l 121.92,251.46 q -213.36,213.36 -594.36,373.38 -381,160.02 -754.38,167.64 152.4,182.88 274.32,434.34 121.92,259.08 121.92,518.16 0,403.86 -236.22,579.12 -236.22,175.26 -693.419,175.26 -129.54,0 -281.94,-30.48 -152.4,-30.48 -259.08,-68.58 l 7.62,-449.58 q 76.2,22.86 175.26,38.1 106.68,22.86 175.26,22.86 304.8,0 441.959,-106.68 137.16,-106.68 137.16,-434.34 0,-182.88 -68.58,-373.38 -68.58,-190.5 -152.4,-327.66 -746.759,-114.3 -1158.239,-701.04 -403.86,-594.36 -403.86,-1447.8 z"
               id="path8957" /><path
               d="m 102451.16,55730.679 q 0,-739.14 731.52,-1066.8 731.52,-335.28 1821.18,-358.14 v -236.22 q 0,-388.62 -83.82,-609.6 -76.2,-228.6 -274.32,-327.66 -198.12,-106.68 -556.26,-106.68 -388.62,0 -708.66,121.92 -312.42,114.3 -609.6,281.94 l -167.64,-335.28 q 83.82,-76.2 350.52,-213.36 266.7,-137.16 609.6,-243.84 342.9,-106.68 662.94,-106.68 518.16,0 815.34,144.78 304.8,144.78 434.34,464.82 137.16,320.04 137.16,861.06 v 2514.6 h 472.44 v 281.94 q -419.1,114.3 -708.66,114.3 -182.88,0 -251.46,-60.96 -68.58,-53.34 -68.58,-259.08 v -281.94 q -274.32,243.84 -601.98,434.34 -320.04,182.88 -731.52,182.88 -548.64,0 -914.4,-304.8 -358.14,-304.8 -358.14,-891.54 z m 1501.14,746.76 q 213.36,0 510.54,-137.16 297.18,-137.16 541.02,-327.66 v -1348.74 q -922.02,7.62 -1402.08,274.32 -472.44,266.7 -472.44,716.28 0,434.34 220.98,632.46 220.98,190.5 601.98,190.5 z m -1242.06,-4960.62 q 76.2,-304.8 289.56,-525.78 220.98,-228.6 586.74,-228.6 228.6,0 381,91.44 152.4,91.44 350.52,274.32 129.54,129.54 220.98,190.5 91.44,60.96 198.12,60.96 213.36,0 335.28,-160.02 121.92,-160.02 144.78,-312.42 l 350.52,160.02 q -236.22,769.62 -861.06,769.62 -220.98,0 -373.38,-91.44 -144.78,-91.44 -327.66,-266.7 -144.78,-137.16 -236.22,-198.12 -91.44,-60.96 -205.74,-60.96 -213.36,0 -320.04,121.92 -106.68,114.3 -160.02,220.98 -45.72,106.68 -60.96,129.54 z"
               id="path8959" /><path
               d="m 106649.78,54701.979 q 0,-662.94 274.32,-1165.86 281.94,-502.92 731.52,-769.62 457.2,-266.7 952.5,-266.7 960.12,0 1417.32,624.84 464.82,624.84 464.82,1600.2 0,662.94 -281.94,1165.86 -274.32,502.92 -731.52,769.62 -449.58,266.7 -944.88,266.7 -960.12,0 -1424.94,-624.84 -457.2,-624.84 -457.2,-1600.2 z m 1920.24,1828.8 q 586.74,0 906.78,-449.58 320.04,-449.58 320.04,-1310.64 0,-822.96 -297.18,-1348.74 -297.18,-525.78 -922.02,-525.78 -586.74,0 -914.4,449.58 -320.04,449.58 -320.04,1310.64 0,830.58 297.18,1356.36 304.8,518.16 929.64,518.16 z"
               id="path8961" /><path
               d="m 113843.06,51593.019 -739.14,-83.82 v -327.66 h 2110.74 v 327.66 l -739.14,83.82 v 4853.94 l 739.14,76.2 v 320.04 h -2110.74 v -327.66 l 739.14,-68.58 z"
               id="path8963" /><path
               d="m 116494.82,53117.019 -586.74,-129.54 v -342.9 l 967.74,-121.92 h 22.86 l 144.78,121.92 v 335.28 l -7.62,190.5 q 281.94,-243.84 746.76,-449.58 464.82,-205.74 861.06,-205.74 487.68,0 746.76,190.5 266.7,182.88 365.76,571.5 106.68,381 106.68,1028.7 v 2156.46 l 571.5,53.34 v 327.66 h -1699.26 v -327.66 l 510.54,-53.34 v -2164.08 q 0,-480.06 -68.58,-754.38 -60.96,-274.32 -251.46,-411.48 -182.88,-144.78 -541.02,-144.78 -304.8,0 -662.94,152.4 -350.52,152.4 -609.6,358.14 v 2956.56 l 556.26,60.96 v 327.66 h -1684.02 v -327.66 l 510.54,-60.96 z"
               id="path8965" /><path
               d="m 122667.02,56927.019 q -449.58,0 -830.58,-228.6 -381,-236.22 -609.6,-708.66 -228.6,-472.44 -228.6,-1158.24 0,-655.32 266.7,-1181.1 266.7,-533.4 754.38,-838.2 495.3,-312.42 1150.62,-312.42 419.1,0 807.72,91.44 v -1508.76 l -792.48,-76.2 v -274.32 l 1249.68,-129.54 h 15.24 l 144.78,106.68 v 5791.2 h 464.82 v 297.18 q -38.1,7.62 -259.08,60.96 -220.98,53.34 -472.44,53.34 -175.26,0 -251.46,-60.96 -68.58,-60.96 -68.58,-266.7 v -266.7 q -236.22,259.08 -579.12,434.34 -335.28,175.26 -762,175.26 z m 251.46,-480.06 q 327.66,0 617.22,-152.4 297.18,-160.02 441.96,-350.52 v -2804.16 q -60.96,-106.68 -320.04,-182.88 -251.46,-76.2 -541.02,-76.2 -655.32,0 -1051.56,472.44 -396.24,464.82 -396.24,1417.32 0,853.44 350.52,1264.92 350.52,411.48 899.16,411.48 z"
               id="path8967" /><path
               d="m 129189.74,56911.779 q -198.12,0 -289.56,-68.58 -91.44,-68.58 -91.44,-251.46 v -297.18 q -281.94,251.46 -662.94,441.96 -381,190.5 -762,190.5 -693.42,0 -990.6,-388.62 -289.56,-388.62 -289.56,-1264.92 v -2240.28 l -449.58,-129.54 v -281.94 l 922.02,-99.06 h 7.62 l 137.16,91.44 v 2567.94 q 0,480.06 68.58,754.38 68.58,266.7 251.46,396.24 182.88,129.54 533.4,129.54 335.28,0 640.08,-144.78 304.8,-144.78 525.78,-342.9 v -2941.32 l -579.12,-129.54 v -281.94 l 1013.46,-99.06 h 7.62 l 175.26,91.44 v 3893.82 h 472.44 l -7.62,289.56 q -38.1,7.62 -220.98,60.96 -182.88,53.34 -411.48,53.34 z"
               id="path8969" /><path
               d="m 131109.98,56241.219 q 83.82,129.54 350.52,228.6 266.7,99.06 571.5,99.06 929.64,0 929.64,-685.8 0,-312.42 -259.08,-502.92 -259.08,-198.12 -883.92,-434.34 -617.22,-220.98 -899.16,-525.78 -281.94,-304.8 -281.94,-815.34 0,-327.66 198.12,-571.5 205.74,-243.84 541.02,-373.38 342.9,-137.16 739.14,-137.16 388.62,0 647.7,68.58 266.7,68.58 525.78,167.64 v 906.78 h -373.38 l -137.16,-556.26 q -53.34,-99.06 -274.32,-167.64 -213.36,-68.58 -472.44,-68.58 -365.76,0 -594.36,167.64 -228.6,160.02 -228.6,434.34 0,243.84 114.3,403.86 114.3,160.02 281.94,259.08 167.64,91.44 464.82,213.36 l 144.78,60.96 q 434.34,167.64 701.04,320.04 266.7,144.78 441.96,388.62 175.26,236.22 175.26,594.36 0,563.88 -434.34,891.54 -426.72,320.04 -1143,320.04 -327.66,0 -746.76,-106.68 -419.1,-106.68 -624.84,-213.36 v -960.12 h 411.48 z"
               id="path8971" /><path
               d="m 135582.93,56927.019 q -403.86,0 -609.6,-182.88 -205.74,-190.5 -205.74,-670.56 v -3009.9 h -579.12 v -297.18 q 381,-83.82 441.96,-121.92 114.3,-60.96 167.64,-236.22 45.72,-114.3 121.92,-411.48 76.2,-297.18 114.3,-464.82 h 350.52 v 1082.04 h 1348.74 v 449.58 h -1348.74 v 2468.88 q 0,441.96 30.48,624.84 30.48,175.26 121.92,228.6 91.44,53.34 320.04,53.34 220.98,0 495.3,-60.96 274.32,-60.96 411.48,-129.54 l 99.06,289.56 q -175.26,137.16 -579.12,266.7 -403.86,121.92 -701.04,121.92 z"
               id="path8973" /><path
               d="m 137388.85,56523.159 609.6,-45.72 v -3360.42 l -586.74,-129.54 v -342.9 l 967.74,-121.92 h 15.24 l 144.78,121.92 v 121.92 l -15.24,579.12 h 15.24 q 15.24,-15.24 198.12,-228.6 190.5,-220.98 556.26,-419.1 373.38,-198.12 746.76,-198.12 121.92,0 228.6,30.48 v 670.56 q -30.48,-22.86 -137.16,-45.72 -99.06,-22.86 -213.36,-22.86 -434.34,0 -739.14,129.54 -304.8,129.54 -563.88,320.04 v 2887.98 l 1013.46,60.96 v 312.42 h -2240.28 z"
               id="path8975" /><path
               d="m 141678.91,51813.999 q -411.48,0 -411.48,-434.34 0,-220.98 129.54,-358.14 129.54,-144.78 350.52,-144.78 228.6,0 327.66,129.54 99.06,121.92 99.06,304.8 0,236.22 -129.54,373.38 -121.92,129.54 -358.14,129.54 z m -243.84,1303.02 -594.36,-129.54 v -342.9 l 1043.94,-121.92 h 15.24 l 152.4,121.92 v 3817.62 l 662.94,53.34 v 327.66 h -1950.72 v -327.66 l 670.56,-60.96 z"
               id="path8977" /><path
               d="m 143301.98,55730.679 q 0,-739.14 731.52,-1066.8 731.52,-335.28 1821.18,-358.14 v -236.22 q 0,-388.62 -83.82,-609.6 -76.2,-228.6 -274.32,-327.66 -198.12,-106.68 -556.26,-106.68 -388.62,0 -708.66,121.92 -312.42,114.3 -609.6,281.94 l -167.64,-335.28 q 83.82,-76.2 350.52,-213.36 266.7,-137.16 609.6,-243.84 342.9,-106.68 662.94,-106.68 518.16,0 815.34,144.78 304.8,144.78 434.34,464.82 137.16,320.04 137.16,861.06 v 2514.6 h 472.44 v 281.94 q -419.1,114.3 -708.66,114.3 -182.88,0 -251.46,-60.96 -68.58,-53.34 -68.58,-259.08 v -281.94 q -274.32,243.84 -601.98,434.34 -320.04,182.88 -731.52,182.88 -548.64,0 -914.4,-304.8 -358.14,-304.8 -358.14,-891.54 z m 1501.14,746.76 q 213.36,0 510.54,-137.16 297.18,-137.16 541.02,-327.66 v -1348.74 q -922.02,7.62 -1402.08,274.32 -472.44,266.7 -472.44,716.28 0,434.34 220.98,632.46 220.98,190.5 601.98,190.5 z"
               id="path8979" /><path
               d="m 148125.44,51082.479 -647.7,-68.58 v -281.94 l 1112.52,-129.54 h 7.62 l 144.78,99.06 v 5760.72 l 716.28,53.34 v 327.66 h -2004.06 v -327.66 l 670.56,-60.96 z"
               id="path8981" /><path
               d="m 150952.45,53757.099 q -175.26,0 -297.18,-114.3 -121.92,-121.92 -121.92,-312.42 0,-213.36 144.78,-358.14 152.4,-144.78 350.52,-144.78 205.74,0 304.8,121.92 106.68,121.92 106.68,304.8 0,213.36 -144.78,358.14 -144.78,144.78 -342.9,144.78 z m 22.86,2026.92 q 243.84,0 388.62,228.6 144.78,228.6 144.78,647.7 0,419.1 -121.92,792.48 -121.92,373.38 -312.42,640.08 -190.5,266.7 -381,381 h -7.62 l -220.98,-152.4 v -68.58 q 91.44,-68.58 198.12,-281.94 114.3,-205.74 190.5,-480.06 83.82,-274.32 83.82,-533.4 0,-114.3 -45.72,-182.88 -38.1,-68.58 -121.92,-160.02 -99.06,-99.06 -152.4,-190.5 -45.72,-91.44 -45.72,-251.46 0,-175.26 106.68,-281.94 114.3,-106.68 266.7,-106.68 z"
               id="path8983" /></g><g
             aria-label="Princípio de igualdade."
             id="text74"
             style="font-weight:300;font-size:7620px;font-family:Merriweather;-inkscape-font-specification:Merriweather-Light;fill:#ed4e38;stroke-width:381"><path
               d="m 39365.18,65309.015 -609.6,-83.82 v -327.66 h 922.02 q 167.64,0 327.66,-7.62 167.64,-15.24 243.84,-15.24 396.24,-30.48 762,-30.48 1074.42,0 1516.38,403.86 449.58,396.24 449.58,1196.34 0,601.98 -289.56,1043.94 -289.56,441.96 -784.86,678.18 -495.3,228.6 -1104.9,228.6 -243.84,0 -502.92,-7.62 -251.46,-15.24 -304.8,-22.86 v 1790.7 l 1059.18,76.2 v 327.66 h -2339.34 v -327.66 l 655.32,-68.58 z m 624.84,2682.24 q 190.5,30.48 822.96,30.48 655.32,0 1074.42,-365.76 419.1,-373.38 419.1,-1211.58 0,-662.94 -358.14,-944.88 -358.14,-289.56 -1127.76,-289.56 -236.22,0 -525.78,30.48 -228.6,15.24 -304.8,15.24 z"
               id="path8886" /><path
               d="m 43563.798,70239.155 609.6,-45.72 v -3360.42 l -586.74,-129.54 v -342.9 l 967.74,-121.92 h 15.24 l 144.78,121.92 v 121.92 l -15.24,579.12 h 15.24 q 15.24,-15.24 198.12,-228.6 190.5,-220.98 556.26,-419.1 373.38,-198.12 746.76,-198.12 121.92,0 228.6,30.48 v 670.56 q -30.48,-22.86 -137.16,-45.72 -99.06,-22.86 -213.36,-22.86 -434.34,0 -739.14,129.54 -304.8,129.54 -563.88,320.04 v 2887.98 l 1013.46,60.96 v 312.42 h -2240.28 z"
               id="path8888" /><path
               d="m 47853.858,65529.995 q -411.48,0 -411.48,-434.34 0,-220.98 129.54,-358.14 129.54,-144.78 350.52,-144.78 228.6,0 327.66,129.54 99.06,121.92 99.06,304.8 0,236.22 -129.54,373.38 -121.92,129.54 -358.14,129.54 z m -243.84,1303.02 -594.36,-129.54 v -342.9 l 1043.94,-121.92 h 15.24 l 152.4,121.92 v 3817.62 l 662.94,53.34 v 327.66 h -1950.72 v -327.66 l 670.56,-60.96 z"
               id="path8890" /><path
               d="m 49911.261,66833.015 -586.74,-129.54 v -342.9 l 967.74,-121.92 h 22.86 l 144.78,121.92 v 335.28 l -7.62,190.5 q 281.94,-243.84 746.76,-449.58 464.82,-205.74 861.06,-205.74 487.68,0 746.76,190.5 266.7,182.88 365.76,571.5 106.68,381 106.68,1028.7 v 2156.46 l 571.5,53.34 v 327.66 h -1699.26 v -327.66 l 510.54,-53.34 v -2164.08 q 0,-480.06 -68.58,-754.38 -60.96,-274.32 -251.46,-411.48 -182.88,-144.78 -541.02,-144.78 -304.8,0 -662.94,152.4 -350.52,152.4 -609.6,358.14 v 2956.56 l 556.26,60.96 v 327.66 h -1684.02 v -327.66 l 510.54,-60.96 z"
               id="path8892" /><path
               d="m 54323.24,68471.315 q 0,-617.22 236.22,-1127.76 243.84,-518.16 716.28,-822.96 480.06,-304.8 1165.86,-304.8 297.18,0 579.12,76.2 281.94,68.58 487.68,152.4 l -30.48,1089.66 h -381 l -160.02,-731.52 q -45.72,-228.6 -655.32,-228.6 -594.36,0 -952.5,457.2 -350.52,457.2 -350.52,1249.68 0,944.88 381,1432.56 381,487.68 990.6,487.68 320.04,0 617.22,-106.68 304.8,-106.68 502.92,-243.84 l 121.92,251.46 q -220.98,220.98 -609.6,381 -388.62,160.02 -769.62,160.02 -601.98,0 -1028.7,-281.94 -426.72,-289.56 -647.7,-777.24 -213.36,-495.3 -213.36,-1112.52 z"
               id="path8894" /><path
               d="m 58933.342,66833.015 -594.36,-129.54 v -342.9 l 1043.94,-121.92 h 15.24 l 152.4,121.92 v 3817.62 l 662.94,53.34 v 327.66 h -1950.72 v -327.66 l 670.56,-60.96 z m -274.32,-1501.14 1181.1,-1470.66 518.16,419.1 q -152.4,228.6 -678.18,685.8 -518.16,449.58 -784.86,571.5 z"
               id="path8896" /><path
               d="m 64815.981,68288.435 q 0,655.32 -266.7,1196.34 -266.7,533.4 -762,845.82 -487.68,312.42 -1120.14,312.42 -213.36,0 -449.58,-38.1 -236.22,-30.48 -388.62,-83.82 l 15.24,647.7 v 822.96 l 845.82,76.2 v 335.28 h -2042.16 v -335.28 l 586.74,-76.2 v -5158.74 l -594.36,-129.54 v -342.9 l 975.36,-121.92 h 15.24 l 137.16,121.92 v 464.82 q 243.84,-251.46 594.36,-426.72 350.52,-182.88 784.86,-182.88 441.96,0 822.96,220.98 381,220.98 609.6,685.8 236.22,464.82 236.22,1165.86 z m -1920.24,-1607.82 q -327.66,0 -609.6,137.16 -281.94,137.16 -441.96,304.8 v 2903.22 q 60.96,99.06 304.8,182.88 251.46,76.2 548.64,76.2 655.32,0 1051.56,-480.06 403.86,-487.68 403.86,-1432.56 0,-845.82 -358.14,-1264.92 -350.52,-426.72 -899.16,-426.72 z"
               id="path8898" /><path
               d="m 66400.94,65529.995 q -411.48,0 -411.48,-434.34 0,-220.98 129.54,-358.14 129.54,-144.78 350.52,-144.78 228.6,0 327.66,129.54 99.06,121.92 99.06,304.8 0,236.22 -129.54,373.38 -121.92,129.54 -358.14,129.54 z m -243.84,1303.02 -594.36,-129.54 v -342.9 l 1043.94,-121.92 h 15.24 l 152.4,121.92 v 3817.62 l 662.94,53.34 v 327.66 h -1950.72 v -327.66 l 670.56,-60.96 z"
               id="path8900" /><path
               d="m 67978.283,68417.975 q 0,-662.94 274.32,-1165.86 281.94,-502.92 731.52,-769.62 457.2,-266.7 952.5,-266.7 960.12,0 1417.32,624.84 464.82,624.84 464.82,1600.2 0,662.94 -281.94,1165.86 -274.32,502.92 -731.52,769.62 -449.58,266.7 -944.88,266.7 -960.12,0 -1424.94,-624.84 -457.2,-624.84 -457.2,-1600.2 z m 1920.24,1828.8 q 586.74,0 906.78,-449.58 320.04,-449.58 320.04,-1310.64 0,-822.96 -297.18,-1348.74 -297.18,-525.78 -922.02,-525.78 -586.74,0 -914.4,449.58 -320.04,449.58 -320.04,1310.64 0,830.58 297.18,1356.36 304.8,518.16 929.64,518.16 z"
               id="path8902" /><path
               d="m 75994.527,70643.015 q -449.58,0 -830.58,-228.6 -381,-236.22 -609.6,-708.66 -228.6,-472.44 -228.6,-1158.24 0,-655.32 266.7,-1181.1 266.7,-533.4 754.38,-838.2 495.3,-312.42 1150.62,-312.42 419.1,0 807.72,91.44 v -1508.76 l -792.48,-76.2 v -274.32 l 1249.68,-129.54 h 15.24 l 144.78,106.68 v 5791.2 h 464.82 v 297.18 q -38.1,7.62 -259.08,60.96 -220.98,53.34 -472.44,53.34 -175.26,0 -251.46,-60.96 -68.58,-60.96 -68.58,-266.7 v -266.7 q -236.22,259.08 -579.12,434.34 -335.28,175.26 -762,175.26 z m 251.46,-480.06 q 327.66,0 617.22,-152.4 297.18,-160.02 441.96,-350.52 v -2804.16 q -60.96,-106.68 -320.04,-182.88 -251.46,-76.2 -541.02,-76.2 -655.32,0 -1051.56,472.44 -396.24,464.82 -396.24,1417.32 0,853.44 350.52,1264.92 350.52,411.48 899.16,411.48 z"
               id="path8904" /><path
               d="m 80878.943,70643.015 q -883.92,0 -1363.98,-601.98 -472.44,-609.6 -472.44,-1615.44 0,-647.7 251.46,-1150.62 251.46,-502.92 693.42,-777.24 449.58,-281.94 1005.84,-281.94 678.18,0 1051.56,388.62 381,388.62 411.48,1120.14 0,472.44 -45.72,670.56 h -2712.72 q 0,800.1 358.14,1310.64 365.76,502.92 1021.08,502.92 320.04,0 655.32,-114.3 335.28,-114.3 518.16,-274.32 l 121.92,281.94 q -220.98,228.6 -647.7,388.62 -419.1,152.4 -845.82,152.4 z m 891.54,-2606.04 q 22.86,-160.02 22.86,-335.28 -7.62,-502.92 -243.84,-800.1 -228.6,-297.18 -708.66,-297.18 -1043.94,0 -1135.38,1432.56 z"
               id="path8906" /><path
               d="m 85839.557,65529.995 q -411.48,0 -411.48,-434.34 0,-220.98 129.54,-358.14 129.54,-144.78 350.52,-144.78 228.6,0 327.66,129.54 99.06,121.92 99.06,304.8 0,236.22 -129.54,373.38 -121.92,129.54 -358.14,129.54 z m -243.84,1303.02 -594.36,-129.54 v -342.9 l 1043.94,-121.92 h 15.24 l 152.4,121.92 v 3817.62 l 662.94,53.34 v 327.66 h -1950.72 v -327.66 l 670.56,-60.96 z"
               id="path8908" /><path
               d="m 89222.84,72616.595 q -1798.32,0 -1798.32,-1143 0,-342.9 205.74,-624.84 213.36,-281.94 502.92,-441.96 -358.14,-190.5 -358.14,-632.46 0,-281.94 160.02,-525.78 160.02,-251.46 411.48,-381 -358.14,-167.64 -563.88,-472.44 -198.12,-312.42 -198.12,-723.9 0,-441.96 243.84,-769.62 243.84,-335.28 632.46,-510.54 396.24,-175.26 822.96,-175.26 708.66,0 1135.38,312.42 114.3,-106.68 350.52,-205.74 243.84,-106.68 518.16,-106.68 h 251.46 v 563.88 h -868.68 q 220.98,304.8 220.98,739.14 0,449.58 -228.6,800.1 -228.6,342.9 -617.22,533.4 -381,190.5 -845.82,190.5 -312.42,0 -571.5,-68.58 -137.16,106.68 -220.98,251.46 -76.2,137.16 -76.2,281.94 0,289.56 182.88,403.86 190.5,114.3 655.32,114.3 h 899.16 q 708.66,0 1043.94,274.32 342.9,274.32 342.9,769.62 0,411.48 -297.18,762 -297.18,358.14 -815.34,571.5 -510.54,213.36 -1120.14,213.36 z m 53.34,-3947.16 q 967.74,0 967.74,-1066.8 0,-1013.46 -1005.84,-1013.46 -1005.84,0 -1005.84,998.22 0,480.06 259.08,784.86 259.08,297.18 784.86,297.18 z m -15.24,3558.54 q 411.48,0 784.86,-121.92 373.38,-114.3 601.98,-342.9 228.6,-220.98 228.6,-518.16 0,-236.22 -76.2,-381 -68.58,-144.78 -281.94,-228.6 -205.74,-76.2 -601.98,-76.2 h -944.88 q -365.76,0 -556.26,-45.72 -373.38,358.14 -373.38,838.2 0,434.34 274.32,655.32 274.32,220.98 944.88,220.98 z"
               id="path8910" /><path
               d="m 95456.001,70627.775 q -198.12,0 -289.56,-68.58 -91.44,-68.58 -91.44,-251.46 v -297.18 q -281.94,251.46 -662.94,441.96 -381,190.5 -762,190.5 -693.42,0 -990.6,-388.62 -289.56,-388.62 -289.56,-1264.92 v -2240.28 l -449.58,-129.54 v -281.94 l 922.02,-99.06 h 7.62 l 137.16,91.44 v 2567.94 q 0,480.06 68.58,754.38 68.58,266.7 251.46,396.24 182.88,129.54 533.4,129.54 335.28,0 640.08,-144.78 304.8,-144.78 525.78,-342.9 v -2941.32 l -579.12,-129.54 v -281.94 l 1013.46,-99.06 h 7.62 l 175.26,91.44 v 3893.82 h 472.44 l -7.62,289.56 q -38.1,7.62 -220.98,60.96 -182.88,53.34 -411.48,53.34 z"
               id="path8912" /><path
               d="m 96797.12,69446.675 q 0,-739.14 731.52,-1066.8 731.52,-335.28 1821.18,-358.14 v -236.22 q 0,-388.62 -83.82,-609.6 -76.2,-228.6 -274.32,-327.66 -198.12,-106.68 -556.26,-106.68 -388.62,0 -708.66,121.92 -312.42,114.3 -609.6,281.94 l -167.64,-335.28 q 83.82,-76.2 350.52,-213.36 266.7,-137.16 609.6,-243.84 342.9,-106.68 662.94,-106.68 518.16,0 815.34,144.78 304.8,144.78 434.34,464.82 137.16,320.04 137.16,861.06 v 2514.6 h 472.44 v 281.94 q -419.1,114.3 -708.66,114.3 -182.88,0 -251.46,-60.96 -68.58,-53.34 -68.58,-259.08 v -281.94 q -274.32,243.84 -601.98,434.34 -320.04,182.88 -731.52,182.88 -548.64,0 -914.4,-304.8 -358.14,-304.8 -358.14,-891.54 z m 1501.14,746.76 q 213.36,0 510.54,-137.16 297.18,-137.16 541.02,-327.66 v -1348.74 q -922.02,7.62 -1402.08,274.32 -472.44,266.7 -472.44,716.28 0,434.34 220.98,632.46 220.98,190.5 601.98,190.5 z"
               id="path8914" /><path
               d="m 101620.58,64798.475 -647.7,-68.58 v -281.94 l 1112.52,-129.54 h 7.62 l 144.78,99.06 v 5760.72 l 716.28,53.34 v 327.66 h -2004.06 v -327.66 l 670.56,-60.96 z"
               id="path8916" /><path
               d="m 105179.12,70643.015 q -449.58,0 -830.58,-228.6 -381,-236.22 -609.6,-708.66 -228.6,-472.44 -228.6,-1158.24 0,-655.32 266.7,-1181.1 266.7,-533.4 754.38,-838.2 495.3,-312.42 1150.62,-312.42 419.1,0 807.72,91.44 v -1508.76 l -792.48,-76.2 v -274.32 l 1249.68,-129.54 h 15.24 l 144.78,106.68 v 5791.2 h 464.82 v 297.18 q -38.1,7.62 -259.08,60.96 -220.98,53.34 -472.44,53.34 -175.26,0 -251.46,-60.96 -68.58,-60.96 -68.58,-266.7 v -266.7 q -236.22,259.08 -579.12,434.34 -335.28,175.26 -762,175.26 z m 251.46,-480.06 q 327.66,0 617.22,-152.4 297.18,-160.02 441.96,-350.52 v -2804.16 q -60.96,-106.68 -320.04,-182.88 -251.46,-76.2 -541.02,-76.2 -655.32,0 -1051.56,472.44 -396.24,464.82 -396.24,1417.32 0,853.44 350.52,1264.92 350.52,411.48 899.16,411.48 z"
               id="path8918" /><path
               d="m 108257.6,69446.675 q 0,-739.14 731.52,-1066.8 731.52,-335.28 1821.18,-358.14 v -236.22 q 0,-388.62 -83.82,-609.6 -76.2,-228.6 -274.32,-327.66 -198.12,-106.68 -556.26,-106.68 -388.62,0 -708.66,121.92 -312.42,114.3 -609.6,281.94 l -167.64,-335.28 q 83.82,-76.2 350.52,-213.36 266.7,-137.16 609.6,-243.84 342.9,-106.68 662.94,-106.68 518.16,0 815.34,144.78 304.8,144.78 434.34,464.82 137.16,320.04 137.16,861.06 v 2514.6 h 472.44 v 281.94 q -419.1,114.3 -708.66,114.3 -182.88,0 -251.46,-60.96 -68.58,-53.34 -68.58,-259.08 v -281.94 q -274.32,243.84 -601.98,434.34 -320.04,182.88 -731.52,182.88 -548.64,0 -914.4,-304.8 -358.14,-304.8 -358.14,-891.54 z m 1501.14,746.76 q 213.36,0 510.54,-137.16 297.18,-137.16 541.02,-327.66 v -1348.74 q -922.02,7.62 -1402.08,274.32 -472.44,266.7 -472.44,716.28 0,434.34 220.98,632.46 220.98,190.5 601.98,190.5 z"
               id="path8920" /><path
               d="m 114132.62,70643.015 q -449.58,0 -830.58,-228.6 -381,-236.22 -609.6,-708.66 -228.6,-472.44 -228.6,-1158.24 0,-655.32 266.7,-1181.1 266.7,-533.4 754.38,-838.2 495.3,-312.42 1150.62,-312.42 419.1,0 807.72,91.44 v -1508.76 l -792.48,-76.2 v -274.32 l 1249.68,-129.54 h 15.24 l 144.78,106.68 v 5791.2 h 464.82 v 297.18 q -38.1,7.62 -259.08,60.96 -220.98,53.34 -472.44,53.34 -175.26,0 -251.46,-60.96 -68.58,-60.96 -68.58,-266.7 v -266.7 q -236.22,259.08 -579.12,434.34 -335.28,175.26 -762,175.26 z m 251.46,-480.06 q 327.66,0 617.22,-152.4 297.18,-160.02 441.96,-350.52 v -2804.16 q -60.96,-106.68 -320.04,-182.88 -251.46,-76.2 -541.02,-76.2 -655.32,0 -1051.56,472.44 -396.24,464.82 -396.24,1417.32 0,853.44 350.52,1264.92 350.52,411.48 899.16,411.48 z"
               id="path8922" /><path
               d="m 119017.04,70643.015 q -883.92,0 -1363.98,-601.98 -472.44,-609.6 -472.44,-1615.44 0,-647.7 251.46,-1150.62 251.46,-502.92 693.42,-777.24 449.58,-281.94 1005.84,-281.94 678.18,0 1051.56,388.62 381,388.62 411.48,1120.14 0,472.44 -45.72,670.56 h -2712.72 q 0,800.1 358.14,1310.64 365.76,502.92 1021.08,502.92 320.04,0 655.32,-114.3 335.28,-114.3 518.16,-274.32 l 121.92,281.94 q -220.98,228.6 -647.7,388.62 -419.1,152.4 -845.82,152.4 z m 891.54,-2606.04 q 22.86,-160.02 22.86,-335.28 -7.62,-502.92 -243.84,-800.1 -228.6,-297.18 -708.66,-297.18 -1043.94,0 -1135.38,1432.56 z"
               id="path8924" /><path
               d="m 121844.06,70643.015 q -175.26,0 -297.18,-114.3 -121.92,-121.92 -121.92,-312.42 0,-213.36 144.78,-358.14 152.4,-144.78 350.52,-144.78 205.74,0 304.8,121.92 106.68,121.92 106.68,304.8 0,213.36 -144.78,358.14 -144.78,144.78 -342.9,144.78 z"
               id="path8926" /></g><g
             aria-label="Contratualistas Jean-Jacques Rousseau (1712 - 1778) e Montesquieu (1689 - "
             id="text82"
             style="font-weight:300;font-size:7620px;font-family:Merriweather;-inkscape-font-specification:Merriweather-Light;fill:#ed4e38;stroke-width:381"><path
               d="m 41178.74,84359.015 q -815.34,0 -1402.08,-365.76 -586.74,-365.76 -891.54,-1028.7 -304.8,-662.94 -304.8,-1546.86 0,-830.58 358.14,-1485.9 358.14,-655.32 975.36,-1013.46 617.22,-365.76 1379.22,-365.76 388.62,0 746.76,60.96 365.76,60.96 586.74,114.3 220.98,53.34 274.32,68.58 l -60.96,1242.06 h -396.24 l -167.64,-883.92 q -114.3,-99.06 -411.48,-167.64 -297.18,-68.58 -723.9,-68.58 -525.78,0 -944.88,289.56 -419.1,281.94 -662.94,830.58 -236.22,548.64 -236.22,1310.64 0,716.28 205.74,1318.26 213.36,601.98 640.08,967.74 426.72,358.14 1051.56,358.14 434.34,0 678.18,-68.58 243.84,-76.2 411.48,-213.36 l 304.8,-716.28 373.38,53.34 -190.5,1021.08 q -182.88,7.62 -441.96,99.06 -274.32,91.44 -525.78,137.16 -251.46,53.34 -624.84,53.34 z"
               id="path8757" /><path
               d="m 43594.279,82133.975 q 0,-662.94 274.32,-1165.86 281.94,-502.92 731.52,-769.62 457.2,-266.7 952.5,-266.7 960.12,0 1417.32,624.84 464.82,624.84 464.82,1600.2 0,662.94 -281.94,1165.86 -274.32,502.92 -731.52,769.62 -449.58,266.7 -944.88,266.7 -960.12,0 -1424.94,-624.84 -457.2,-624.84 -457.2,-1600.2 z m 1920.24,1828.8 q 586.74,0 906.78,-449.58 320.04,-449.58 320.04,-1310.64 0,-822.96 -297.18,-1348.74 -297.18,-525.78 -922.02,-525.78 -586.74,0 -914.4,449.58 -320.04,449.58 -320.04,1310.64 0,830.58 297.18,1356.36 304.8,518.16 929.64,518.16 z"
               id="path8759" /><path
               d="m 48608.237,80549.015 -586.74,-129.54 v -342.9 l 967.74,-121.92 h 22.86 l 144.78,121.92 v 335.28 l -7.62,190.5 q 281.94,-243.84 746.76,-449.58 464.82,-205.74 861.06,-205.74 487.68,0 746.76,190.5 266.7,182.88 365.76,571.5 106.68,381 106.68,1028.7 v 2156.46 l 571.5,53.34 v 327.66 h -1699.26 v -327.66 l 510.54,-53.34 v -2164.08 q 0,-480.06 -68.58,-754.38 -60.96,-274.32 -251.46,-411.48 -182.88,-144.78 -541.02,-144.78 -304.8,0 -662.94,152.4 -350.52,152.4 -609.6,358.14 v 2956.56 l 556.26,60.96 v 327.66 h -1684.02 v -327.66 l 510.54,-60.96 z"
               id="path8761" /><path
               d="m 54422.301,84359.015 q -403.86,0 -609.6,-182.88 -205.74,-190.5 -205.74,-670.56 v -3009.9 h -579.12 v -297.18 q 381,-83.82 441.96,-121.92 114.3,-60.96 167.64,-236.22 45.72,-114.3 121.92,-411.48 76.2,-297.18 114.3,-464.82 h 350.52 v 1082.04 h 1348.74 v 449.58 h -1348.74 v 2468.88 q 0,441.96 30.48,624.84 30.48,175.26 121.92,228.6 91.44,53.34 320.04,53.34 220.98,0 495.3,-60.96 274.32,-60.96 411.48,-129.54 l 99.06,289.56 q -175.26,137.16 -579.12,266.7 -403.86,121.92 -701.04,121.92 z"
               id="path8763" /><path
               d="m 56228.239,83955.155 609.6,-45.72 v -3360.42 l -586.74,-129.54 v -342.9 l 967.74,-121.92 h 15.24 l 144.78,121.92 v 121.92 l -15.24,579.12 h 15.24 q 15.24,-15.24 198.12,-228.6 190.5,-220.98 556.26,-419.1 373.38,-198.12 746.76,-198.12 121.92,0 228.6,30.48 v 670.56 q -30.48,-22.86 -137.16,-45.72 -99.06,-22.86 -213.36,-22.86 -434.34,0 -739.14,129.54 -304.8,129.54 -563.88,320.04 v 2887.98 l 1013.46,60.96 v 312.42 h -2240.28 z"
               id="path8765" /><path
               d="m 59672.479,83162.675 q 0,-739.14 731.52,-1066.8 731.52,-335.28 1821.18,-358.14 v -236.22 q 0,-388.62 -83.82,-609.6 -76.2,-228.6 -274.32,-327.66 -198.12,-106.68 -556.26,-106.68 -388.62,0 -708.66,121.92 -312.42,114.3 -609.6,281.94 l -167.64,-335.28 q 83.82,-76.2 350.52,-213.36 266.7,-137.16 609.6,-243.84 342.9,-106.68 662.94,-106.68 518.16,0 815.34,144.78 304.8,144.78 434.34,464.82 137.16,320.04 137.16,861.06 v 2514.6 h 472.44 v 281.94 q -419.1,114.3 -708.66,114.3 -182.88,0 -251.46,-60.96 -68.58,-53.34 -68.58,-259.08 v -281.94 q -274.32,243.84 -601.98,434.34 -320.04,182.88 -731.52,182.88 -548.64,0 -914.4,-304.8 -358.14,-304.8 -358.14,-891.54 z m 1501.14,746.76 q 213.36,0 510.54,-137.16 297.18,-137.16 541.02,-327.66 v -1348.74 q -922.02,7.62 -1402.08,274.32 -472.44,266.7 -472.44,716.28 0,434.34 220.98,632.46 220.98,190.5 601.98,190.5 z"
               id="path8767" /><path
               d="m 65189.359,84359.015 q -403.86,0 -609.6,-182.88 -205.74,-190.5 -205.74,-670.56 v -3009.9 h -579.12 v -297.18 q 381,-83.82 441.96,-121.92 114.3,-60.96 167.64,-236.22 45.72,-114.3 121.92,-411.48 76.2,-297.18 114.3,-464.82 h 350.52 v 1082.04 h 1348.74 v 449.58 h -1348.74 v 2468.88 q 0,441.96 30.48,624.84 30.48,175.26 121.92,228.6 91.44,53.34 320.04,53.34 220.98,0 495.3,-60.96 274.32,-60.96 411.48,-129.54 l 99.06,289.56 q -175.26,137.16 -579.12,266.7 -403.86,121.92 -701.04,121.92 z"
               id="path8769" /><path
               d="m 70454.782,84343.775 q -198.12,0 -289.56,-68.58 -91.44,-68.58 -91.44,-251.46 v -297.18 q -281.94,251.46 -662.94,441.96 -381,190.5 -762,190.5 -693.42,0 -990.6,-388.62 -289.56,-388.62 -289.56,-1264.92 v -2240.28 l -449.58,-129.54 v -281.94 l 922.02,-99.06 h 7.62 l 137.16,91.44 v 2567.94 q 0,480.06 68.58,754.38 68.58,266.7 251.46,396.24 182.88,129.54 533.4,129.54 335.28,0 640.08,-144.78 304.8,-144.78 525.78,-342.9 v -2941.32 l -579.12,-129.54 v -281.94 l 1013.46,-99.06 h 7.62 l 175.26,91.44 v 3893.82 h 472.44 l -7.62,289.56 q -38.1,7.62 -220.98,60.96 -182.88,53.34 -411.48,53.34 z"
               id="path8771" /><path
               d="m 71795.901,83162.675 q 0,-739.14 731.52,-1066.8 731.52,-335.28 1821.18,-358.14 v -236.22 q 0,-388.62 -83.82,-609.6 -76.2,-228.6 -274.32,-327.66 -198.12,-106.68 -556.26,-106.68 -388.62,0 -708.66,121.92 -312.42,114.3 -609.6,281.94 l -167.64,-335.28 q 83.82,-76.2 350.52,-213.36 266.7,-137.16 609.6,-243.84 342.9,-106.68 662.94,-106.68 518.16,0 815.34,144.78 304.8,144.78 434.34,464.82 137.16,320.04 137.16,861.06 v 2514.6 h 472.44 v 281.94 q -419.1,114.3 -708.66,114.3 -182.88,0 -251.46,-60.96 -68.58,-53.34 -68.58,-259.08 v -281.94 q -274.32,243.84 -601.98,434.34 -320.04,182.88 -731.52,182.88 -548.64,0 -914.4,-304.8 -358.14,-304.8 -358.14,-891.54 z m 1501.14,746.76 q 213.36,0 510.54,-137.16 297.18,-137.16 541.02,-327.66 v -1348.74 q -922.02,7.62 -1402.08,274.32 -472.44,266.7 -472.44,716.28 0,434.34 220.98,632.46 220.98,190.5 601.98,190.5 z"
               id="path8773" /><path
               d="m 76619.357,78514.475 -647.7,-68.58 v -281.94 l 1112.52,-129.54 h 7.62 l 144.78,99.06 v 5760.72 l 716.28,53.34 v 327.66 h -2004.06 v -327.66 l 670.56,-60.96 z"
               id="path8775" /><path
               d="m 79393.042,79245.995 q -411.48,0 -411.48,-434.34 0,-220.98 129.54,-358.14 129.54,-144.78 350.52,-144.78 228.6,0 327.66,129.54 99.06,121.92 99.06,304.8 0,236.22 -129.54,373.38 -121.92,129.54 -358.14,129.54 z m -243.84,1303.02 -594.36,-129.54 v -342.9 l 1043.94,-121.92 h 15.24 l 152.4,121.92 v 3817.62 l 662.94,53.34 v 327.66 h -1950.72 v -327.66 l 670.56,-60.96 z"
               id="path8777" /><path
               d="m 81595.217,83673.215 q 83.82,129.54 350.52,228.6 266.7,99.06 571.5,99.06 929.64,0 929.64,-685.8 0,-312.42 -259.08,-502.92 -259.08,-198.12 -883.92,-434.34 -617.22,-220.98 -899.16,-525.78 -281.94,-304.8 -281.94,-815.34 0,-327.66 198.12,-571.5 205.74,-243.84 541.02,-373.38 342.9,-137.16 739.14,-137.16 388.62,0 647.7,68.58 266.7,68.58 525.78,167.64 v 906.78 h -373.38 l -137.16,-556.26 q -53.34,-99.06 -274.32,-167.64 -213.36,-68.58 -472.44,-68.58 -365.76,0 -594.36,167.64 -228.6,160.02 -228.6,434.34 0,243.84 114.3,403.86 114.3,160.02 281.94,259.08 167.64,91.44 464.82,213.36 l 144.78,60.96 q 434.34,167.64 701.04,320.04 266.7,144.78 441.96,388.62 175.26,236.22 175.26,594.36 0,563.88 -434.34,891.54 -426.72,320.04 -1143,320.04 -327.66,0 -746.76,-106.68 -419.1,-106.68 -624.84,-213.36 v -960.12 h 411.48 z"
               id="path8779" /><path
               d="m 86068.16,84359.015 q -403.86,0 -609.6,-182.88 -205.74,-190.5 -205.74,-670.56 v -3009.9 h -579.12 v -297.18 q 381,-83.82 441.96,-121.92 114.3,-60.96 167.64,-236.22 45.72,-114.3 121.92,-411.48 76.2,-297.18 114.3,-464.82 h 350.52 v 1082.04 h 1348.74 v 449.58 h -1348.74 v 2468.88 q 0,441.96 30.48,624.84 30.48,175.26 121.92,228.6 91.44,53.34 320.04,53.34 220.98,0 495.3,-60.96 274.32,-60.96 411.48,-129.54 l 99.06,289.56 q -175.26,137.16 -579.12,266.7 -403.86,121.92 -701.04,121.92 z"
               id="path8781" /><path
               d="m 87889.339,83162.675 q 0,-739.14 731.52,-1066.8 731.52,-335.28 1821.18,-358.14 v -236.22 q 0,-388.62 -83.82,-609.6 -76.2,-228.6 -274.32,-327.66 -198.12,-106.68 -556.26,-106.68 -388.62,0 -708.66,121.92 -312.42,114.3 -609.6,281.94 l -167.64,-335.28 q 83.82,-76.2 350.52,-213.36 266.7,-137.16 609.6,-243.84 342.9,-106.68 662.94,-106.68 518.16,0 815.34,144.78 304.8,144.78 434.34,464.82 137.16,320.04 137.16,861.06 v 2514.6 h 472.44 v 281.94 q -419.1,114.3 -708.66,114.3 -182.88,0 -251.46,-60.96 -68.58,-53.34 -68.58,-259.08 v -281.94 q -274.32,243.84 -601.98,434.34 -320.04,182.88 -731.52,182.88 -548.64,0 -914.4,-304.8 -358.14,-304.8 -358.14,-891.54 z m 1501.14,746.76 q 213.36,0 510.54,-137.16 297.18,-137.16 541.02,-327.66 v -1348.74 q -922.02,7.62 -1402.08,274.32 -472.44,266.7 -472.44,716.28 0,434.34 220.98,632.46 220.98,190.5 601.98,190.5 z"
               id="path8783" /><path
               d="m 92712.795,83673.215 q 83.82,129.54 350.52,228.6 266.7,99.06 571.5,99.06 929.64,0 929.64,-685.8 0,-312.42 -259.08,-502.92 -259.08,-198.12 -883.92,-434.34 -617.22,-220.98 -899.16,-525.78 -281.94,-304.8 -281.94,-815.34 0,-327.66 198.12,-571.5 205.74,-243.84 541.02,-373.38 342.9,-137.16 739.14,-137.16 388.62,0 647.7,68.58 266.7,68.58 525.78,167.64 v 906.78 h -373.38 l -137.16,-556.26 q -53.34,-99.06 -274.32,-167.64 -213.36,-68.58 -472.44,-68.58 -365.76,0 -594.36,167.64 -228.6,160.02 -228.6,434.34 0,243.84 114.3,403.86 114.3,160.02 281.94,259.08 167.64,91.44 464.82,213.36 l 144.78,60.96 q 434.34,167.64 701.04,320.04 266.7,144.78 441.96,388.62 175.26,236.22 175.26,594.36 0,563.88 -434.34,891.54 -426.72,320.04 -1143,320.04 -327.66,0 -746.76,-106.68 -419.1,-106.68 -624.84,-213.36 v -960.12 h 411.48 z"
               id="path8785" /><path
               d="m 99128.841,85319.135 q 350.52,-91.44 624.84,-350.52 274.319,-251.46 388.619,-624.84 99.06,-312.42 121.92,-701.04 30.48,-388.62 30.48,-1295.4 v -3314.7 l -761.999,-91.44 v -327.66 h 2125.979 v 327.66 l -731.52,91.44 v 3147.06 594.36 q 0,480.06 -15.24,792.48 -15.24,304.8 -60.96,548.64 -121.92,617.22 -571.5,998.22 -441.959,381 -982.979,480.06 z"
               id="path8787" /><path
               d="m 104188.52,84359.015 q -883.92,0 -1363.98,-601.98 -472.44,-609.6 -472.44,-1615.44 0,-647.7 251.46,-1150.62 251.46,-502.92 693.42,-777.24 449.58,-281.94 1005.84,-281.94 678.18,0 1051.56,388.62 381,388.62 411.48,1120.14 0,472.44 -45.72,670.56 h -2712.72 q 0,800.1 358.14,1310.64 365.76,502.92 1021.08,502.92 320.04,0 655.32,-114.3 335.28,-114.3 518.16,-274.32 l 121.92,281.94 q -220.98,228.6 -647.7,388.62 -419.1,152.4 -845.82,152.4 z m 891.54,-2606.04 q 22.86,-160.02 22.86,-335.28 -7.62,-502.92 -243.84,-800.1 -228.6,-297.18 -708.66,-297.18 -1043.94,0 -1135.38,1432.56 z"
               id="path8789" /><path
               d="m 106497.39,83162.675 q 0,-739.14 731.52,-1066.8 731.52,-335.28 1821.18,-358.14 v -236.22 q 0,-388.62 -83.82,-609.6 -76.2,-228.6 -274.32,-327.66 -198.12,-106.68 -556.26,-106.68 -388.62,0 -708.66,121.92 -312.42,114.3 -609.6,281.94 l -167.64,-335.28 q 83.82,-76.2 350.52,-213.36 266.7,-137.16 609.6,-243.84 342.9,-106.68 662.94,-106.68 518.16,0 815.34,144.78 304.8,144.78 434.34,464.82 137.16,320.04 137.16,861.06 v 2514.6 h 472.44 v 281.94 q -419.1,114.3 -708.66,114.3 -182.88,0 -251.46,-60.96 -68.58,-53.34 -68.58,-259.08 v -281.94 q -274.32,243.84 -601.98,434.34 -320.04,182.88 -731.52,182.88 -548.64,0 -914.4,-304.8 -358.14,-304.8 -358.14,-891.54 z m 1501.14,746.76 q 213.36,0 510.54,-137.16 297.18,-137.16 541.02,-327.66 v -1348.74 q -922.02,7.62 -1402.08,274.32 -472.44,266.7 -472.44,716.28 0,434.34 220.98,632.46 220.98,190.5 601.98,190.5 z"
               id="path8791" /><path
               d="m 111176.06,80549.015 -586.74,-129.54 v -342.9 l 967.74,-121.92 h 22.86 l 144.78,121.92 v 335.28 l -7.62,190.5 q 281.94,-243.84 746.76,-449.58 464.82,-205.74 861.06,-205.74 487.68,0 746.76,190.5 266.7,182.88 365.76,571.5 106.68,381 106.68,1028.7 v 2156.46 l 571.5,53.34 v 327.66 h -1699.26 v -327.66 l 510.54,-53.34 v -2164.08 q 0,-480.06 -68.58,-754.38 -60.96,-274.32 -251.46,-411.48 -182.88,-144.78 -541.02,-144.78 -304.8,0 -662.94,152.4 -350.52,152.4 -609.6,358.14 v 2956.56 l 556.26,60.96 v 327.66 h -1684.02 v -327.66 l 510.54,-60.96 z"
               id="path8793" /><path
               d="m 119253.26,82057.775 h -3070.86 v -457.2 h 3070.86 z"
               id="path8795" /><path
               d="m 120099.08,85319.135 q 350.52,-91.44 624.84,-350.52 274.32,-251.46 388.62,-624.84 99.06,-312.42 121.92,-701.04 30.48,-388.62 30.48,-1295.4 v -3314.7 l -762,-91.44 v -327.66 h 2125.98 v 327.66 l -731.52,91.44 v 3147.06 594.36 q 0,480.06 -15.24,792.48 -15.24,304.8 -60.96,548.64 -121.92,617.22 -571.5,998.22 -441.96,381 -982.98,480.06 z"
               id="path8797" /><path
               d="m 123352.82,83162.675 q 0,-739.14 731.52,-1066.8 731.52,-335.28 1821.18,-358.14 v -236.22 q 0,-388.62 -83.82,-609.6 -76.2,-228.6 -274.32,-327.66 -198.12,-106.68 -556.26,-106.68 -388.62,0 -708.66,121.92 -312.42,114.3 -609.6,281.94 l -167.64,-335.28 q 83.82,-76.2 350.52,-213.36 266.7,-137.16 609.6,-243.84 342.9,-106.68 662.94,-106.68 518.16,0 815.34,144.78 304.8,144.78 434.34,464.82 137.16,320.04 137.16,861.06 v 2514.6 h 472.44 v 281.94 q -419.1,114.3 -708.66,114.3 -182.88,0 -251.46,-60.96 -68.58,-53.34 -68.58,-259.08 v -281.94 q -274.32,243.84 -601.98,434.34 -320.04,182.88 -731.52,182.88 -548.64,0 -914.4,-304.8 -358.14,-304.8 -358.14,-891.54 z m 1501.14,746.76 q 213.36,0 510.54,-137.16 297.18,-137.16 541.02,-327.66 v -1348.74 q -922.02,7.62 -1402.08,274.32 -472.44,266.7 -472.44,716.28 0,434.34 220.98,632.46 220.98,190.5 601.98,190.5 z"
               id="path8799" /><path
               d="m 127467.62,82187.315 q 0,-617.22 236.22,-1127.76 243.84,-518.16 716.28,-822.96 480.06,-304.8 1165.86,-304.8 297.18,0 579.12,76.2 281.94,68.58 487.68,152.4 l -30.48,1089.66 h -381 l -160.02,-731.52 q -45.72,-228.6 -655.32,-228.6 -594.36,0 -952.5,457.2 -350.52,457.2 -350.52,1249.68 0,944.88 381,1432.56 381,487.68 990.6,487.68 320.04,0 617.22,-106.68 304.8,-106.68 502.92,-243.84 l 121.92,251.46 q -220.98,220.98 -609.6,381 -388.62,160.02 -769.62,160.02 -601.98,0 -1028.7,-281.94 -426.72,-289.56 -647.7,-777.24 -213.36,-495.3 -213.36,-1112.52 z"
               id="path8801" /><path
               d="m 133556.01,85806.815 853.44,-76.2 v -1280.16 l 22.85,-655.32 q -579.11,563.88 -1318.25,563.88 -441.97,0 -830.58,-228.6 -381,-236.22 -617.22,-716.28 -228.61,-480.06 -228.61,-1173.48 0,-655.32 266.71,-1181.1 266.7,-525.78 754.38,-822.96 495.29,-304.8 1150.62,-304.8 457.2,0 944.88,129.54 l 342.9,-106.68 129.54,121.92 v 5654.04 l 533.4,76.2 v 312.42 h -2004.06 z m -190.5,-1889.76 q 327.66,0 601.97,-137.16 274.32,-144.78 441.97,-320.04 v -2926.08 q -45.72,-99.06 -312.43,-182.88 -259.07,-83.82 -548.63,-83.82 -647.7,0 -1043.94,480.06 -396.25,480.06 -396.25,1432.56 0,571.5 167.65,960.12 167.63,388.62 449.57,586.74 289.56,190.5 640.09,190.5 z"
               id="path8803" /><path
               d="m 139530.08,84343.775 q -198.12,0 -289.56,-68.58 -91.44,-68.58 -91.44,-251.46 v -297.18 q -281.94,251.46 -662.94,441.96 -381,190.5 -762,190.5 -693.42,0 -990.6,-388.62 -289.56,-388.62 -289.56,-1264.92 v -2240.28 l -449.58,-129.54 v -281.94 l 922.02,-99.06 h 7.62 l 137.16,91.44 v 2567.94 q 0,480.06 68.58,754.38 68.58,266.7 251.46,396.24 182.88,129.54 533.4,129.54 335.28,0 640.08,-144.78 304.8,-144.78 525.78,-342.9 v -2941.32 l -579.12,-129.54 v -281.94 l 1013.46,-99.06 h 7.62 l 175.26,91.44 v 3893.82 h 472.44 l -7.62,289.56 q -38.1,7.62 -220.98,60.96 -182.88,53.34 -411.48,53.34 z"
               id="path8805" /><path
               d="m 142677.14,84359.015 q -883.92,0 -1363.98,-601.98 -472.44,-609.6 -472.44,-1615.44 0,-647.7 251.46,-1150.62 251.46,-502.92 693.42,-777.24 449.58,-281.94 1005.84,-281.94 678.18,0 1051.56,388.62 381,388.62 411.48,1120.14 0,472.44 -45.72,670.56 h -2712.72 q 0,800.1 358.14,1310.64 365.76,502.92 1021.08,502.92 320.04,0 655.32,-114.3 335.28,-114.3 518.16,-274.32 l 121.92,281.94 q -220.98,228.6 -647.7,388.62 -419.1,152.4 -845.82,152.4 z m 891.54,-2606.04 q 22.86,-160.02 22.86,-335.28 -7.62,-502.92 -243.84,-800.1 -228.6,-297.18 -708.66,-297.18 -1043.94,0 -1135.38,1432.56 z"
               id="path8807" /><path
               d="m 145565.13,83673.215 q 83.82,129.54 350.52,228.6 266.7,99.06 571.5,99.06 929.64,0 929.64,-685.8 0,-312.42 -259.08,-502.92 -259.08,-198.12 -883.92,-434.34 -617.22,-220.98 -899.16,-525.78 -281.94,-304.8 -281.94,-815.34 0,-327.66 198.12,-571.5 205.74,-243.84 541.02,-373.38 342.9,-137.16 739.14,-137.16 388.62,0 647.7,68.58 266.7,68.58 525.78,167.64 v 906.78 h -373.38 l -137.16,-556.26 q -53.34,-99.06 -274.32,-167.64 -213.36,-68.58 -472.44,-68.58 -365.76,0 -594.36,167.64 -228.6,160.02 -228.6,434.34 0,243.84 114.3,403.86 114.3,160.02 281.94,259.08 167.64,91.44 464.82,213.36 l 144.78,60.96 q 434.34,167.64 701.04,320.04 266.7,144.78 441.96,388.62 175.26,236.22 175.26,594.36 0,563.88 -434.34,891.54 -426.72,320.04 -1143,320.04 -327.66,0 -746.76,-106.68 -419.1,-106.68 -624.84,-213.36 v -960.12 h 411.48 z"
               id="path8809" /><path
               d="m 150563.84,83947.535 655.32,-68.58 v -4861.56 l -609.6,-91.44 v -312.42 h 929.64 q 205.74,0 586.74,-30.48 365.76,-30.48 541.02,-30.48 1089.66,0 1554.48,365.76 464.82,365.76 464.82,1127.76 0,556.26 -312.42,1005.84 -304.8,449.58 -830.58,601.98 198.12,129.54 396.24,434.34 205.74,297.18 502.92,830.58 259.08,464.82 411.48,701.04 160.02,228.6 281.94,251.46 l 320.04,83.82 v 320.04 h -891.54 q -121.92,0 -281.94,-259.08 -160.02,-259.08 -449.58,-838.2 -312.42,-632.46 -518.16,-967.74 -198.12,-335.28 -396.24,-449.58 -929.64,0 -1074.42,-7.62 v 2125.98 l 784.86,68.58 v 327.66 h -2065.02 z m 2308.86,-2560.32 q 525.78,0 830.58,-327.66 304.8,-327.66 304.8,-960.12 0,-556.26 -312.42,-861.06 -312.42,-312.42 -1089.66,-312.42 -266.7,0 -525.78,30.48 -182.88,15.24 -236.22,15.24 v 2407.92 q 137.16,7.62 548.64,7.62 z"
               id="path8811" /><path
               d="m 155806.4,82133.975 q 0,-662.94 274.32,-1165.86 281.94,-502.92 731.52,-769.62 457.2,-266.7 952.5,-266.7 960.12,0 1417.32,624.84 464.82,624.84 464.82,1600.2 0,662.94 -281.94,1165.86 -274.32,502.92 -731.52,769.62 -449.58,266.7 -944.88,266.7 -960.12,0 -1424.94,-624.84 -457.2,-624.84 -457.2,-1600.2 z m 1920.24,1828.8 q 586.74,0 906.78,-449.58 320.04,-449.58 320.04,-1310.64 0,-822.96 -297.18,-1348.74 -297.18,-525.78 -922.02,-525.78 -586.74,0 -914.4,449.58 -320.04,449.58 -320.04,1310.64 0,830.58 297.18,1356.36 304.8,518.16 929.64,518.16 z"
               id="path8813" /><path
               d="m 163830.25,84343.775 q -198.12,0 -289.56,-68.58 -91.44,-68.58 -91.44,-251.46 v -297.18 q -281.94,251.46 -662.94,441.96 -381,190.5 -762,190.5 -693.42,0 -990.6,-388.62 -289.56,-388.62 -289.56,-1264.92 v -2240.28 l -449.58,-129.54 v -281.94 l 922.02,-99.06 h 7.62 l 137.16,91.44 v 2567.94 q 0,480.06 68.58,754.38 68.58,266.7 251.46,396.24 182.88,129.54 533.4,129.54 335.28,0 640.08,-144.78 304.8,-144.78 525.78,-342.9 v -2941.32 l -579.12,-129.54 v -281.94 l 1013.46,-99.06 h 7.62 l 175.26,91.44 v 3893.82 h 472.44 l -7.62,289.56 q -38.1,7.62 -220.98,60.96 -182.88,53.34 -411.48,53.34 z"
               id="path8815" /><path
               d="m 165750.49,83673.215 q 83.82,129.54 350.52,228.6 266.7,99.06 571.5,99.06 929.64,0 929.64,-685.8 0,-312.42 -259.08,-502.92 -259.08,-198.12 -883.92,-434.34 -617.22,-220.98 -899.16,-525.78 -281.94,-304.8 -281.94,-815.34 0,-327.66 198.12,-571.5 205.74,-243.84 541.02,-373.38 342.9,-137.16 739.14,-137.16 388.62,0 647.7,68.58 266.7,68.58 525.78,167.64 v 906.78 h -373.38 l -137.16,-556.26 q -53.34,-99.06 -274.32,-167.64 -213.36,-68.58 -472.44,-68.58 -365.76,0 -594.36,167.64 -228.6,160.02 -228.6,434.34 0,243.84 114.3,403.86 114.3,160.02 281.94,259.08 167.64,91.44 464.82,213.36 l 144.78,60.96 q 434.34,167.64 701.04,320.04 266.7,144.78 441.96,388.62 175.26,236.22 175.26,594.36 0,563.88 -434.34,891.54 -426.72,320.04 -1143,320.04 -327.66,0 -746.76,-106.68 -419.1,-106.68 -624.84,-213.36 v -960.12 h 411.48 z"
               id="path8817" /><path
               d="m 169530.02,83673.215 q 83.82,129.54 350.52,228.6 266.7,99.06 571.5,99.06 929.64,0 929.64,-685.8 0,-312.42 -259.08,-502.92 -259.08,-198.12 -883.92,-434.34 -617.22,-220.98 -899.16,-525.78 -281.94,-304.8 -281.94,-815.34 0,-327.66 198.12,-571.5 205.74,-243.84 541.02,-373.38 342.9,-137.16 739.14,-137.16 388.62,0 647.7,68.58 266.7,68.58 525.78,167.64 v 906.78 h -373.38 l -137.16,-556.26 q -53.34,-99.06 -274.32,-167.64 -213.36,-68.58 -472.44,-68.58 -365.76,0 -594.36,167.64 -228.6,160.02 -228.6,434.34 0,243.84 114.3,403.86 114.3,160.02 281.94,259.08 167.64,91.44 464.82,213.36 l 144.78,60.96 q 434.34,167.64 701.04,320.04 266.7,144.78 441.96,388.62 175.26,236.22 175.26,594.36 0,563.88 -434.34,891.54 -426.72,320.04 -1143,320.04 -327.66,0 -746.76,-106.68 -419.1,-106.68 -624.84,-213.36 v -960.12 h 411.48 z"
               id="path8819" /><path
               d="m 174536.36,84359.015 q -883.92,0 -1363.98,-601.98 -472.44,-609.6 -472.44,-1615.44 0,-647.7 251.46,-1150.62 251.46,-502.92 693.42,-777.24 449.58,-281.94 1005.84,-281.94 678.18,0 1051.56,388.62 381,388.62 411.48,1120.14 0,472.44 -45.72,670.56 h -2712.72 q 0,800.1 358.14,1310.64 365.76,502.92 1021.08,502.92 320.04,0 655.32,-114.3 335.28,-114.3 518.16,-274.32 l 121.92,281.94 q -220.98,228.6 -647.7,388.62 -419.1,152.4 -845.82,152.4 z m 891.54,-2606.04 q 22.86,-160.02 22.86,-335.28 -7.62,-502.92 -243.84,-800.1 -228.6,-297.18 -708.66,-297.18 -1043.94,0 -1135.38,1432.56 z"
               id="path8821" /><path
               d="m 176845.21,83162.675 q 0,-739.14 731.52,-1066.8 731.52,-335.28 1821.18,-358.14 v -236.22 q 0,-388.62 -83.82,-609.6 -76.2,-228.6 -274.32,-327.66 -198.12,-106.68 -556.26,-106.68 -388.62,0 -708.66,121.92 -312.42,114.3 -609.6,281.94 l -167.64,-335.28 q 83.82,-76.2 350.52,-213.36 266.7,-137.16 609.6,-243.84 342.9,-106.68 662.94,-106.68 518.16,0 815.34,144.78 304.8,144.78 434.34,464.82 137.16,320.04 137.16,861.06 v 2514.6 h 472.44 v 281.94 q -419.1,114.3 -708.66,114.3 -182.88,0 -251.46,-60.96 -68.58,-53.34 -68.58,-259.08 v -281.94 q -274.32,243.84 -601.98,434.34 -320.04,182.88 -731.52,182.88 -548.64,0 -914.4,-304.8 -358.14,-304.8 -358.14,-891.54 z m 1501.14,746.76 q 213.36,0 510.54,-137.16 297.18,-137.16 541.02,-327.66 v -1348.74 q -922.02,7.62 -1402.08,274.32 -472.44,266.7 -472.44,716.28 0,434.34 220.98,632.46 220.98,190.5 601.98,190.5 z"
               id="path8823" /><path
               d="m 184533.8,84343.775 q -198.12,0 -289.56,-68.58 -91.44,-68.58 -91.44,-251.46 v -297.18 q -281.94,251.46 -662.94,441.96 -381,190.5 -762,190.5 -693.42,0 -990.6,-388.62 -289.56,-388.62 -289.56,-1264.92 v -2240.28 l -449.58,-129.54 v -281.94 l 922.02,-99.06 h 7.62 l 137.16,91.44 v 2567.94 q 0,480.06 68.58,754.38 68.58,266.7 251.46,396.24 182.88,129.54 533.4,129.54 335.28,0 640.08,-144.78 304.8,-144.78 525.78,-342.9 v -2941.32 l -579.12,-129.54 v -281.94 l 1013.46,-99.06 h 7.62 l 175.26,91.44 v 3893.82 h 472.44 l -7.62,289.56 q -38.1,7.62 -220.98,60.96 -182.88,53.34 -411.48,53.34 z"
               id="path8825" /><path
               d="m 187848.51,81730.115 q 0,-990.6 342.9,-1790.7 342.9,-807.72 777.24,-1303.02 434.34,-502.92 716.28,-655.32 l 274.32,175.26 q -236.22,152.4 -586.74,617.22 -342.9,457.2 -624.84,1226.82 -281.94,762 -281.94,1737.36 0,1013.46 281.94,1805.94 281.94,784.86 632.46,1257.3 358.14,480.06 609.6,655.32 l -304.8,205.74 q -289.56,-175.26 -716.28,-647.7 -419.1,-464.82 -769.62,-1303.02 -350.52,-845.82 -350.52,-1981.2 z"
               id="path8827" /><path
               d="m 191993.78,80213.735 q -160.02,68.58 -510.54,167.64 -350.52,99.06 -586.74,129.54 l -76.2,-358.14 q 381,-83.82 762,-274.32 381,-190.5 655.32,-426.72 h 7.62 l 365.76,76.2 v 4358.64 l 998.22,60.96 v 327.66 h -2636.52 v -327.66 l 1021.08,-60.96 z"
               id="path8829" /><path
               d="m 195064.64,85372.475 q 365.76,-815.34 701.04,-1638.3 335.28,-822.96 967.74,-2407.92 l 525.78,-1325.88 -2407.92,22.86 -266.7,952.5 -403.86,-68.58 152.4,-1394.46 h 3368.04 l 129.54,167.64 q -30.48,60.96 -1043.94,2933.7 -1036.32,2910.84 -1051.56,2941.32 z"
               id="path8831" /><path
               d="m 199705.23,80213.735 q -160.02,68.58 -510.54,167.64 -350.52,99.06 -586.74,129.54 l -76.2,-358.14 q 381,-83.82 762,-274.32 381,-190.5 655.32,-426.72 h 7.62 l 365.76,76.2 v 4358.64 l 998.22,60.96 v 327.66 h -2636.52 v -327.66 l 1021.08,-60.96 z"
               id="path8833" /><path
               d="m 201884.55,84016.115 q 708.66,-396.24 1318.26,-929.64 617.22,-541.02 982.98,-1120.14 373.38,-579.12 373.38,-1066.8 0,-449.58 -266.7,-716.28 -266.7,-266.7 -762,-266.7 -457.2,0 -800.1,190.5 -335.28,182.88 -601.98,441.96 l -213.36,-289.56 q 281.94,-312.42 754.38,-556.26 472.44,-251.46 1028.7,-251.46 518.16,0 868.68,198.12 358.14,190.5 525.78,510.54 175.26,312.42 175.26,678.18 0,777.24 -746.76,1615.44 -739.14,830.58 -1821.18,1463.04 l 2461.26,-160.02 251.46,-662.94 335.28,68.58 -182.88,1112.52 h -3589.02 z"
               id="path8835" /><path
               d="m 211744.83,82057.775 h -3070.86 v -457.2 h 3070.86 z"
               id="path8837" /><path
               d="m 215882.5,80213.735 q -160.02,68.58 -510.54,167.64 -350.52,99.06 -586.74,129.54 l -76.2,-358.14 q 381,-83.82 762,-274.32 381,-190.5 655.32,-426.72 h 7.62 l 365.76,76.2 v 4358.64 l 998.22,60.96 v 327.66 h -2636.52 v -327.66 l 1021.08,-60.96 z"
               id="path8839" /><path
               d="m 218953.36,85372.475 q 365.76,-815.34 701.04,-1638.3 335.28,-822.96 967.74,-2407.92 l 525.78,-1325.88 -2407.92,22.86 -266.7,952.5 -403.86,-68.58 152.4,-1394.46 h 3368.04 l 129.54,167.64 q -30.48,60.96 -1043.94,2933.7 -1036.32,2910.84 -1051.56,2941.32 z"
               id="path8841" /><path
               d="m 223403.44,85372.475 q 365.76,-815.34 701.04,-1638.3 335.28,-822.96 967.74,-2407.92 l 525.78,-1325.88 -2407.92,22.86 -266.7,952.5 -403.86,-68.58 152.4,-1394.46 h 3368.04 l 129.54,167.64 q -30.48,60.96 -1043.94,2933.7 -1036.32,2910.84 -1051.56,2941.32 z"
               id="path8843" /><path
               d="m 227114.37,82880.735 q 0,-457.2 297.18,-853.44 297.18,-396.24 899.16,-670.56 -464.82,-281.94 -716.28,-594.36 -243.84,-320.04 -243.84,-807.72 0,-441.96 236.22,-762 236.22,-320.04 617.22,-480.06 381,-167.64 807.72,-167.64 701.04,0 1143,342.9 441.96,342.9 441.96,914.4 0,441.96 -274.32,830.58 -266.7,381 -762,670.56 609.6,335.28 937.26,678.18 335.28,342.9 335.28,838.2 0,457.2 -266.7,807.72 -266.7,342.9 -701.04,533.4 -426.72,182.88 -914.4,182.88 -464.82,0 -883.92,-152.4 -411.48,-152.4 -685.8,-480.06 -266.7,-327.66 -266.7,-830.58 z m 777.24,-3063.24 q 0,297.18 175.26,518.16 175.26,220.98 426.72,381 251.46,152.4 731.52,403.86 381,-190.5 601.98,-487.68 228.6,-297.18 228.6,-655.32 0,-525.78 -297.18,-822.96 -289.56,-297.18 -777.24,-297.18 -457.2,0 -777.24,266.7 -312.42,259.08 -312.42,693.42 z m 2316.48,3139.44 q 0,-281.94 -167.64,-495.3 -167.64,-220.98 -411.48,-373.38 -243.84,-160.02 -678.18,-381 l -327.66,-175.26 q -403.86,190.5 -655.32,518.16 -251.46,320.04 -251.46,701.04 0,579.12 350.52,922.02 350.52,335.28 952.5,335.28 297.18,0 571.5,-129.54 274.32,-137.16 441.96,-373.38 175.26,-243.84 175.26,-548.64 z"
               id="path8845" /><path
               d="m 234010.45,81905.375 q 0,990.6 -342.9,1798.32 -342.9,800.1 -777.24,1295.4 -434.34,502.92 -716.28,655.32 l -274.32,-175.26 q 236.22,-152.4 579.12,-617.22 350.52,-457.2 632.46,-1219.2 281.94,-769.62 281.94,-1744.98 0,-1013.46 -281.94,-1798.32 -281.94,-792.48 -640.08,-1264.92 -350.52,-480.06 -601.98,-655.32 l 304.8,-205.74 q 289.56,175.26 708.66,647.7 426.72,464.82 777.24,1310.64 350.52,838.2 350.52,1973.58 z"
               id="path8847" /><path
               d="m 238567.23,84359.015 q -883.92,0 -1363.98,-601.98 -472.44,-609.6 -472.44,-1615.44 0,-647.7 251.46,-1150.62 251.46,-502.92 693.42,-777.24 449.58,-281.94 1005.84,-281.94 678.18,0 1051.56,388.62 381,388.62 411.48,1120.14 0,472.44 -45.72,670.56 h -2712.72 q 0,800.1 358.14,1310.64 365.76,502.92 1021.08,502.92 320.04,0 655.32,-114.3 335.28,-114.3 518.16,-274.32 l 121.92,281.94 q -220.98,228.6 -647.7,388.62 -419.1,152.4 -845.82,152.4 z m 891.54,-2606.04 q 22.86,-160.02 22.86,-335.28 -7.62,-502.92 -243.84,-800.1 -228.6,-297.18 -708.66,-297.18 -1043.94,0 -1135.38,1432.56 z"
               id="path8849" /><path
               d="m 243565.96,79025.015 -845.82,-83.82 v -327.66 h 1798.32 l 1181.1,3520.44 281.94,1021.08 251.46,-1021.08 1173.48,-3520.44 h 1783.08 v 327.66 l -838.2,83.82 601.98,4846.32 693.42,76.2 v 327.66 h -2049.78 v -327.66 l 708.66,-68.58 -350.52,-3474.72 -167.64,-1524 -335.28,1051.56 -1379.22,4069.08 h -304.8 l -1295.4,-3642.36 -495.3,-1478.28 -152.4,1524 -312.42,3474.72 746.76,68.58 v 327.66 h -1905 v -327.66 l 647.7,-68.58 z"
               id="path8851" /><path
               d="m 250050.57,82133.975 q 0,-662.94 274.32,-1165.86 281.94,-502.92 731.52,-769.62 457.2,-266.7 952.5,-266.7 960.12,0 1417.32,624.84 464.82,624.84 464.82,1600.2 0,662.94 -281.94,1165.86 -274.32,502.92 -731.52,769.62 -449.58,266.7 -944.88,266.7 -960.12,0 -1424.94,-624.84 -457.2,-624.84 -457.2,-1600.2 z m 1920.24,1828.8 q 586.74,0 906.78,-449.58 320.04,-449.58 320.04,-1310.64 0,-822.96 -297.18,-1348.74 -297.18,-525.78 -922.02,-525.78 -586.74,0 -914.4,449.58 -320.04,449.58 -320.04,1310.64 0,830.58 297.18,1356.36 304.8,518.16 929.64,518.16 z"
               id="path8853" /><path
               d="m 255064.54,80549.015 -586.74,-129.54 v -342.9 l 967.74,-121.92 h 22.86 l 144.78,121.92 v 335.28 l -7.62,190.5 q 281.94,-243.84 746.76,-449.58 464.82,-205.74 861.06,-205.74 487.68,0 746.76,190.5 266.7,182.88 365.76,571.5 106.68,381 106.68,1028.7 v 2156.46 l 571.5,53.34 v 327.66 h -1699.26 v -327.66 l 510.54,-53.34 v -2164.08 q 0,-480.06 -68.58,-754.38 -60.96,-274.32 -251.46,-411.48 -182.88,-144.78 -541.02,-144.78 -304.8,0 -662.94,152.4 -350.52,152.4 -609.6,358.14 v 2956.56 l 556.26,60.96 v 327.66 H 254554 v -327.66 l 510.54,-60.96 z"
               id="path8855" /><path
               d="m 260878.6,84359.015 q -403.86,0 -609.6,-182.88 -205.74,-190.5 -205.74,-670.56 v -3009.9 h -579.12 v -297.18 q 381,-83.82 441.96,-121.92 114.3,-60.96 167.64,-236.22 45.72,-114.3 121.92,-411.48 76.2,-297.18 114.3,-464.82 h 350.52 v 1082.04 h 1348.74 v 449.58 h -1348.74 v 2468.88 q 0,441.96 30.48,624.84 30.48,175.26 121.92,228.6 91.44,53.34 320.04,53.34 220.98,0 495.3,-60.96 274.32,-60.96 411.48,-129.54 l 99.06,289.56 q -175.26,137.16 -579.12,266.7 -403.86,121.92 -701.04,121.92 z"
               id="path8857" /><path
               d="m 264505.72,84359.015 q -883.92,0 -1363.98,-601.98 -472.44,-609.6 -472.44,-1615.44 0,-647.7 251.46,-1150.62 251.46,-502.92 693.42,-777.24 449.58,-281.94 1005.84,-281.94 678.18,0 1051.56,388.62 381,388.62 411.48,1120.14 0,472.44 -45.72,670.56 h -2712.72 q 0,800.1 358.14,1310.64 365.76,502.92 1021.08,502.92 320.04,0 655.32,-114.3 335.28,-114.3 518.16,-274.32 l 121.92,281.94 q -220.98,228.6 -647.7,388.62 -419.1,152.4 -845.82,152.4 z m 891.54,-2606.04 q 22.86,-160.02 22.86,-335.28 -7.62,-502.92 -243.84,-800.1 -228.6,-297.18 -708.66,-297.18 -1043.94,0 -1135.38,1432.56 z"
               id="path8859" /><path
               d="m 267393.68,83673.215 q 83.82,129.54 350.52,228.6 266.7,99.06 571.5,99.06 929.64,0 929.64,-685.8 0,-312.42 -259.08,-502.92 -259.08,-198.12 -883.92,-434.34 -617.22,-220.98 -899.16,-525.78 -281.94,-304.8 -281.94,-815.34 0,-327.66 198.12,-571.5 205.74,-243.84 541.02,-373.38 342.9,-137.16 739.14,-137.16 388.62,0 647.7,68.58 266.7,68.58 525.78,167.64 v 906.78 h -373.38 l -137.16,-556.26 q -53.34,-99.06 -274.32,-167.64 -213.36,-68.58 -472.44,-68.58 -365.76,0 -594.36,167.64 -228.6,160.02 -228.6,434.34 0,243.84 114.3,403.86 114.3,160.02 281.94,259.08 167.64,91.44 464.82,213.36 l 144.78,60.96 q 434.34,167.64 701.04,320.04 266.7,144.78 441.96,388.62 175.26,236.22 175.26,594.36 0,563.88 -434.34,891.54 -426.72,320.04 -1143,320.04 -327.66,0 -746.76,-106.68 -419.1,-106.68 -624.84,-213.36 v -960.12 h 411.48 z"
               id="path8861" /><path
               d="m 272674.35,85806.815 853.44,-76.2 v -1280.16 l 22.86,-655.32 q -579.12,563.88 -1318.26,563.88 -441.96,0 -830.58,-228.6 -381,-236.22 -617.22,-716.28 -228.6,-480.06 -228.6,-1173.48 0,-655.32 266.7,-1181.1 266.7,-525.78 754.38,-822.96 495.3,-304.8 1150.62,-304.8 457.2,0 944.88,129.54 l 342.9,-106.68 129.54,121.92 v 5654.04 l 533.4,76.2 v 312.42 h -2004.06 z m -190.5,-1889.76 q 327.66,0 601.98,-137.16 274.32,-144.78 441.96,-320.04 v -2926.08 q -45.72,-99.06 -312.42,-182.88 -259.08,-83.82 -548.64,-83.82 -647.7,0 -1043.94,480.06 -396.24,480.06 -396.24,1432.56 0,571.5 167.64,960.12 167.64,388.62 449.58,586.74 289.56,190.5 640.08,190.5 z"
               id="path8863" /><path
               d="m 278648.42,84343.775 q -198.12,0 -289.56,-68.58 -91.44,-68.58 -91.44,-251.46 v -297.18 q -281.94,251.46 -662.94,441.96 -381,190.5 -762,190.5 -693.42,0 -990.6,-388.62 -289.56,-388.62 -289.56,-1264.92 v -2240.28 l -449.58,-129.54 v -281.94 l 922.02,-99.06 h 7.62 l 137.16,91.44 v 2567.94 q 0,480.06 68.58,754.38 68.58,266.7 251.46,396.24 182.88,129.54 533.4,129.54 335.28,0 640.08,-144.78 304.8,-144.78 525.78,-342.9 v -2941.32 l -579.12,-129.54 v -281.94 l 1013.46,-99.06 h 7.62 l 175.26,91.44 v 3893.82 h 472.44 l -7.62,289.56 q -38.1,7.62 -220.98,60.96 -182.88,53.34 -411.48,53.34 z"
               id="path8865" /><path
               d="m 280835.38,79245.995 q -411.48,0 -411.48,-434.34 0,-220.98 129.54,-358.14 129.54,-144.78 350.52,-144.78 228.6,0 327.66,129.54 99.06,121.92 99.06,304.8 0,236.22 -129.54,373.38 -121.92,129.54 -358.14,129.54 z m -243.84,1303.02 -594.36,-129.54 v -342.9 l 1043.94,-121.92 h 15.24 l 152.4,121.92 v 3817.62 l 662.94,53.34 v 327.66 h -1950.72 v -327.66 l 670.56,-60.96 z"
               id="path8867" /><path
               d="m 284264.37,84359.015 q -883.92,0 -1363.98,-601.98 -472.44,-609.6 -472.44,-1615.44 0,-647.7 251.46,-1150.62 251.46,-502.92 693.42,-777.24 449.58,-281.94 1005.84,-281.94 678.18,0 1051.56,388.62 381,388.62 411.48,1120.14 0,472.44 -45.72,670.56 h -2712.72 q 0,800.1 358.14,1310.64 365.76,502.92 1021.08,502.92 320.04,0 655.32,-114.3 335.28,-114.3 518.16,-274.32 l 121.92,281.94 q -220.98,228.6 -647.7,388.62 -419.1,152.4 -845.82,152.4 z m 891.54,-2606.04 q 22.86,-160.02 22.86,-335.28 -7.62,-502.92 -243.84,-800.1 -228.6,-297.18 -708.66,-297.18 -1043.94,0 -1135.38,1432.56 z"
               id="path8869" /><path
               d="m 290017.45,84343.775 q -198.12,0 -289.56,-68.58 -91.44,-68.58 -91.44,-251.46 v -297.18 q -281.94,251.46 -662.94,441.96 -381,190.5 -762,190.5 -693.42,0 -990.6,-388.62 -289.56,-388.62 -289.56,-1264.92 v -2240.28 l -449.58,-129.54 v -281.94 l 922.02,-99.06 h 7.62 l 137.16,91.44 v 2567.94 q 0,480.06 68.58,754.38 68.58,266.7 251.46,396.24 182.88,129.54 533.4,129.54 335.28,0 640.08,-144.78 304.8,-144.78 525.78,-342.9 v -2941.32 l -579.12,-129.54 v -281.94 l 1013.46,-99.06 h 7.62 l 175.26,91.44 v 3893.82 h 472.44 l -7.62,289.56 q -38.1,7.62 -220.98,60.96 -182.88,53.34 -411.48,53.34 z"
               id="path8871" /><path
               d="m 293332.17,81730.115 q 0,-990.6 342.9,-1790.7 342.9,-807.72 777.24,-1303.02 434.34,-502.92 716.28,-655.32 l 274.32,175.26 q -236.22,152.4 -586.74,617.22 -342.9,457.2 -624.84,1226.82 -281.94,762 -281.94,1737.36 0,1013.46 281.94,1805.94 281.94,784.86 632.46,1257.3 358.14,480.06 609.6,655.32 l -304.8,205.74 q -289.56,-175.26 -716.28,-647.7 -419.1,-464.82 -769.62,-1303.02 -350.52,-845.82 -350.52,-1981.2 z"
               id="path8873" /><path
               d="m 297477.44,80213.735 q -160.02,68.58 -510.54,167.64 -350.52,99.06 -586.74,129.54 l -76.2,-358.14 q 381,-83.82 762,-274.32 381,-190.5 655.32,-426.72 h 7.62 l 365.76,76.2 v 4358.64 l 998.22,60.96 v 327.66 h -2636.52 v -327.66 l 1021.08,-60.96 z"
               id="path8875" /><path
               d="m 301797.99,84359.015 q -609.6,0 -1043.94,-304.8 -434.34,-312.42 -655.32,-830.58 -220.98,-525.78 -220.98,-1150.62 0,-952.5 449.58,-1767.84 457.2,-815.34 1173.48,-1341.12 716.28,-533.4 1485.9,-678.18 l 144.78,281.94 q -944.88,297.18 -1592.58,998.22 -640.08,693.42 -868.68,1562.1 198.12,-243.84 556.26,-419.1 358.14,-175.26 822.96,-175.26 807.72,0 1226.82,464.82 419.1,464.82 419.1,1287.78 0,548.64 -228.6,1028.7 -220.98,472.44 -655.32,762 -426.72,281.94 -1013.46,281.94 z m 106.68,-3413.76 q -327.66,0 -601.98,114.3 -274.32,106.68 -464.82,266.7 -182.88,152.4 -251.46,297.18 -15.24,137.16 -15.24,213.36 -22.86,929.64 266.7,1554.48 297.18,624.84 1005.84,624.84 388.62,0 655.32,-228.6 266.7,-236.22 396.24,-594.36 129.54,-358.14 129.54,-746.76 0,-784.86 -304.8,-1143 -297.18,-358.14 -815.34,-358.14 z"
               id="path8877" /><path
               d="m 304830.73,82880.735 q 0,-457.2 297.18,-853.44 297.18,-396.24 899.16,-670.56 -464.82,-281.94 -716.28,-594.36 -243.84,-320.04 -243.84,-807.72 0,-441.96 236.22,-762 236.22,-320.04 617.22,-480.06 381,-167.64 807.72,-167.64 701.04,0 1143,342.9 441.96,342.9 441.96,914.4 0,441.96 -274.32,830.58 -266.7,381 -762,670.56 609.6,335.28 937.26,678.18 335.28,342.9 335.28,838.2 0,457.2 -266.7,807.72 -266.7,342.9 -701.04,533.4 -426.72,182.88 -914.4,182.88 -464.82,0 -883.92,-152.4 -411.48,-152.4 -685.8,-480.06 -266.7,-327.66 -266.7,-830.58 z m 777.24,-3063.24 q 0,297.18 175.26,518.16 175.26,220.98 426.72,381 251.46,152.4 731.52,403.86 381,-190.5 601.98,-487.68 228.6,-297.18 228.6,-655.32 0,-525.78 -297.18,-822.96 -289.56,-297.18 -777.24,-297.18 -457.2,0 -777.24,266.7 -312.42,259.08 -312.42,693.42 z m 2316.48,3139.44 q 0,-281.94 -167.64,-495.3 -167.64,-220.98 -411.48,-373.38 -243.84,-160.02 -678.18,-381 l -327.66,-175.26 q -403.86,190.5 -655.32,518.16 -251.46,320.04 -251.46,701.04 0,579.12 350.52,922.02 350.52,335.28 952.5,335.28 297.18,0 571.5,-129.54 274.32,-137.16 441.96,-373.38 175.26,-243.84 175.26,-548.64 z"
               id="path8879" /><path
               d="m 311582.06,79451.735 q 632.46,0 1059.18,297.18 426.72,289.56 632.46,792.48 213.36,495.3 213.36,1120.14 0,998.22 -411.48,1828.8 -411.48,830.58 -1089.66,1363.98 -670.56,533.4 -1440.18,685.8 l -144.78,-289.56 q 929.64,-312.42 1508.76,-998.22 586.74,-685.8 784.86,-1577.34 -190.5,243.84 -541.02,426.72 -342.9,175.26 -739.14,175.26 -822.96,0 -1295.4,-495.3 -464.82,-502.92 -464.82,-1341.12 0,-533.4 228.6,-982.98 236.22,-457.2 670.56,-731.52 441.96,-274.32 1028.7,-274.32 z m -106.68,3429 q 320.04,0 594.36,-114.3 274.32,-114.3 457.2,-281.94 182.88,-167.64 251.46,-320.04 15.24,-182.88 15.24,-266.7 0,-937.26 -266.7,-1516.38 -266.7,-586.74 -990.6,-586.74 -388.62,0 -662.94,220.98 -274.32,220.98 -411.48,571.5 -137.16,342.9 -137.16,716.28 0,815.34 312.42,1196.34 312.42,381 838.2,381 z"
               id="path8881" /><path
               d="m 319811.67,82057.775 h -3070.85 v -457.2 h 3070.85 z"
               id="path8883" /></g><g
             aria-label="1775)"
             id="text86"
             style="font-weight:300;font-size:7620px;font-family:Merriweather;-inkscape-font-specification:Merriweather-Light;fill:#ed4e38;stroke-width:381"><path
               d="m 39784.28,93929.735 q -160.02,68.58 -510.54,167.64 -350.52,99.06 -586.74,129.54 l -76.2,-358.14 q 381,-83.82 762,-274.32 381,-190.5 655.32,-426.72 h 7.62 l 365.76,76.2 v 4358.64 l 998.22,60.96 v 327.66 H 38763.2 v -327.66 l 1021.08,-60.96 z"
               id="path8746" /><path
               d="m 42855.139,99088.475 q 365.76,-815.34 701.04,-1638.3 335.28,-822.96 967.74,-2407.92 l 525.78,-1325.88 -2407.92,22.86 -266.7,952.5 -403.86,-68.58 152.4,-1394.46 h 3368.04 l 129.54,167.64 q -30.48,60.96 -1043.94,2933.7 -1036.32,2910.84 -1051.56,2941.32 z"
               id="path8748" /><path
               d="m 47305.218,99088.475 q 365.76,-815.34 701.04,-1638.3 335.28,-822.96 967.739,-2407.92 l 525.78,-1325.88 -2407.919,22.86 -266.7,952.5 -403.86,-68.58 152.4,-1394.46 h 3368.04 l 129.539,167.64 q -30.479,60.96 -1043.939,2933.7 -1036.32,2910.84 -1051.561,2941.32 z"
               id="path8750" /><path
               d="m 51206.66,98875.115 q 220.98,22.86 457.2,22.86 556.26,0 1013.46,-220.98 464.82,-220.98 731.52,-632.46 266.7,-403.86 266.7,-922.02 0,-685.8 -320.04,-1005.84 -312.42,-320.04 -868.68,-320.04 -251.46,0 -571.5,76.2 -320.04,76.2 -548.64,182.88 l -175.26,-129.54 381,-2697.48 h 2049.78 l 76.2,-144.78 h 441.96 l -121.92,678.18 h -1981.2 l -365.76,1897.38 q 198.12,-114.3 518.16,-190.5 320.04,-76.2 632.46,-76.2 708.66,0 1127.76,419.1 419.1,411.48 419.1,1226.82 0,556.26 -327.66,1059.18 -327.66,502.92 -929.64,807.72 -594.36,312.42 -1371.6,312.42 -327.66,0 -533.4,-53.34 z"
               id="path8752" /><path
               d="m 57576.98,95621.375 q 0,990.6 -342.9,1798.32 -342.9,800.1 -777.24,1295.4 -434.34,502.92 -716.28,655.32 l -274.32,-175.26 q 236.22,-152.4 579.12,-617.22 350.52,-457.2 632.46,-1219.2 281.94,-769.62 281.94,-1744.98 0,-1013.46 -281.94,-1798.32 -281.94,-792.48 -640.08,-1264.92 -350.52,-480.06 -601.98,-655.32 l 304.8,-205.74 q 289.56,175.26 708.66,647.7 426.72,464.82 777.24,1310.64 350.52,838.2 350.52,1973.58 z"
               id="path8754" /></g><g
             transform="matrix(3.0311141,0,0,3.0311141,-57006.148,-237548.82)"
             stroke-width="0.329913"
             id="g1289"><path
               d="m 28479.452,95369.918 c 156.184,135.02 255.159,324.34 276.751,529.66 21.588,205.33 -35.829,411.27 -160.509,575.82 -130.887,164.7 -320.449,272.17 -528.979,299.9 -208.528,27.72 -400.323,-9.74 -569.699,-134.5 -13.223,-8.93 -34.668,-0.84 -47.244,6.13 -7.486,4.14 -33.234,38.95 -57.912,69.41 -20.854,-12.95 -43.386,-29.5 -52.363,-27.75 0,0 -5.042,11.71 -6.616,17.87 -17.812,69.62 -87.083,159.57 -133.629,214.05 -25.213,29.52 -185.21,190.43 -324.672,359.08 -77.591,93.83 -171.821,240.28 -177.998,247.6 -24.087,28.55 -4.611,52.45 -4.611,52.45 0,0 28.933,26.48 44.41,38.48 15.571,12.06 48.57,33.64 48.57,33.64 0,0 27.77,12.84 49.461,-17.58 5.562,-7.8 124.11,-135.34 195.763,-233.78 128.79,-176.92 245.014,-371.71 267.353,-403.46 41.239,-58.59 111.253,-148.11 174.284,-182.63 5.569,-3.05 15.778,-10.93 15.778,-10.93 -0.438,-7.66 -18.892,-21.81 -33.453,-36.63 26.911,-27.41 57.793,-67.31 76.172,-49.91 175.657,136.6 398.483,197.73 619.287,170.11 220.801,-27.61 421.492,-141.7 558.098,-317.36 136.606,-175.65 216.43,-401.51 170.241,-619.19 -52.271,-246.34 -155.537,-481.73 -398.482,-580.48 z"
               fill="#ed4e38"
               style="paint-order:fill markers stroke"
               id="path1281" /><g
               transform="rotate(4.7574269,178373.68,71098.412)"
               stroke-width="0.329913"
               id="g1287"><g
                 transform="translate(9702.9621,2327.6761)"
                 stroke-width="0.329913"
                 id="g1285"><path
                   d="m 20635.038,105655.32 c -7.394,8.98 -14.061,18.32 -20.433,27.69 l -511.605,621.53 c -9.436,11.46 -7.814,28.23 3.655,37.67 l 221.653,182.45 c 11.457,9.43 28.236,7.81 37.673,-3.66 l 301.705,-366.52 c 98.518,67.94 865.519,750.13 1267.84,1073.95 87.57,70.49 275.157,194.98 275.157,194.98 23.375,19.24 57.619,16.14 76.86,-7.24 l 21.066,-25.59 c 19.241,-23.38 14.913,-56.67 -7.474,-77.06 0,0 -168.715,-165.22 -261.396,-238.01 -393.682,-309.19 -1202.077,-943.54 -1280.634,-1032.09 l 118.479,-143.93 c 30.204,-30.88 58.316,-69.88 71.92,-102.7 l 173.392,-419.76 c 20.021,-48.46 0.973,-64.13 -42.733,-35.18 l -378.608,250.84 c -21.858,14.48 -45.733,37.38 -66.518,62.63 z"
                   fill="#ed4e38"
                   style="paint-order:fill markers stroke"
                   id="path1283" /></g></g></g><g
             transform="matrix(3.0311141,0,0,3.0311141,-57006.15,-210116.82)"
             stroke-width="0.329913"
             id="g3887"><path
               d="m 28479.452,95369.918 c 156.184,135.02 255.159,324.34 276.751,529.66 21.588,205.33 -35.829,411.27 -160.509,575.82 -130.887,164.7 -320.449,272.17 -528.979,299.9 -208.528,27.72 -400.323,-9.74 -569.699,-134.5 -13.223,-8.93 -34.668,-0.84 -47.244,6.13 -7.486,4.14 -33.234,38.95 -57.912,69.41 -20.854,-12.95 -43.386,-29.5 -52.363,-27.75 0,0 -5.042,11.71 -6.616,17.87 -17.812,69.62 -87.083,159.57 -133.629,214.05 -25.213,29.52 -185.21,190.43 -324.672,359.08 -77.591,93.83 -171.821,240.28 -177.998,247.6 -24.087,28.55 -4.611,52.45 -4.611,52.45 0,0 28.933,26.48 44.41,38.48 15.571,12.06 48.57,33.64 48.57,33.64 0,0 27.77,12.84 49.461,-17.58 5.562,-7.8 124.11,-135.34 195.763,-233.78 128.79,-176.92 245.014,-371.71 267.353,-403.46 41.239,-58.59 111.253,-148.11 174.284,-182.63 5.569,-3.05 15.778,-10.93 15.778,-10.93 -0.438,-7.66 -18.892,-21.81 -33.453,-36.63 26.911,-27.41 57.793,-67.31 76.172,-49.91 175.657,136.6 398.483,197.73 619.287,170.11 220.801,-27.61 421.492,-141.7 558.098,-317.36 136.606,-175.65 216.43,-401.51 170.241,-619.19 -52.271,-246.34 -155.537,-481.73 -398.482,-580.48 z"
               fill="#ed4e38"
               style="paint-order:fill markers stroke"
               id="path3879" /><g
               transform="rotate(4.7574269,178373.68,71098.412)"
               stroke-width="0.329913"
               id="g3885"><g
                 transform="translate(9702.9621,2327.6761)"
                 stroke-width="0.329913"
                 id="g3883"><path
                   d="m 20635.038,105655.32 c -7.394,8.98 -14.061,18.32 -20.433,27.69 l -511.605,621.53 c -9.436,11.46 -7.814,28.23 3.655,37.67 l 221.653,182.45 c 11.457,9.43 28.236,7.81 37.673,-3.66 l 301.705,-366.52 c 98.518,67.94 865.519,750.13 1267.84,1073.95 87.57,70.49 275.157,194.98 275.157,194.98 23.375,19.24 57.619,16.14 76.86,-7.24 l 21.066,-25.59 c 19.241,-23.38 14.913,-56.67 -7.474,-77.06 0,0 -168.715,-165.22 -261.396,-238.01 -393.682,-309.19 -1202.077,-943.54 -1280.634,-1032.09 l 118.479,-143.93 c 30.204,-30.88 58.316,-69.88 71.92,-102.7 l 173.392,-419.76 c 20.021,-48.46 0.973,-64.13 -42.733,-35.18 l -378.608,250.84 c -21.858,14.48 -45.733,37.38 -66.518,62.63 z"
                   fill="#ed4e38"
                   style="paint-order:fill markers stroke"
                   id="path3881" /></g></g></g><g
             id="g88"
             transform="scale(381)" /></g></g></g></g></svg>
