<svg height="540" viewBox="0 0 960 540" width="960" xmlns="http://www.w3.org/2000/svg"><g transform="matrix(1.3333333 0 0 -1.3333333 0 540)"><path d="m16589 17801h336708v22908h-336708z" fill="none" transform="matrix(.0019685 0 0 -.0019685 0 405)"/><g fill="#ed4e38" transform="matrix(.7499985 0 0 -.7499985 39.405435 339.016794)"><path d="m.73919997-27.215999h5.14079973l2.9231999 18.4799994 2.7215994-18.4799994h5.4432l-4.9728 27.215999h-6.3503993z"/><path d="m31.14877.40319998q-4.4016 0-6.2832-2.25119988-1.8816-2.2847999-1.8816-6.7199997v-10.1135994q0-4.4352 1.8816-6.6528 1.8816-2.2512 6.2832-2.2512 4.4352 0 6.316799 2.2512 1.9152 2.2512 1.9152 6.6528v10.1135994q0 4.4351998-1.9152 6.7199997-1.881599 2.25119988-6.316799 2.25119988zm0-4.26719978q1.2768 0 1.68-.84.4032-.8735999.4032-2.3519999v-13.1039993q0-1.512-.4032-2.352t-1.68-.84q-1.2096 0-1.6128.8736-.4032.84-.4032 2.3184v13.1039993q0 1.4784.3696 2.3519999.3696.84 1.6464.84z"/><path d="m47.04313-27.215999h4.2336l5.5776 13.104v-13.104h4.972799v27.215999h-4.065599l-5.5776-14.111999v14.111999h-5.1408z"/><path d="m72.345501-22.747199h-4.0992v-4.4688h14.2128v4.4688h-4.0656v22.747199h-6.048z"/><path d="m91.465464-27.215999h6.8544l5.073596 27.215999h-5.543996l-.9072-5.7455997h-3.9984l-.9408 5.7455997h-5.6784zm4.9056 17.8751994-1.4448-10.6175994-1.4448 10.6175994z"/><path d="m110.14863-27.215999h6.888q3.528 0 5.5104.8736t2.7888 2.7552q.84 1.848.84 4.9728v9.8783994q0 3.1583999-.84 5.0399998-.8064 1.8815999-2.7888 2.78879984-1.9488.90719996-5.4432.90719996h-6.9552zm6.9552 23.0495992q1.3104 0 1.9152-.3696.6384-.4032.8064-1.1087999.168-.7392.168-2.1503999v-11.8607994q0-1.3104-.2016-1.9824-.168-.7056-.8064-1.0416-.6048-.336-1.9152-.336h-.9072v18.8495992z"/><path d="m133.83819-27.215999h12.2304v4.0992h-6.216v6.7536h4.7376v4.1664h-4.7376v8.1311992h6.2832v4.0655998h-12.2976z"/><path d="m172.54852.40319998q-4.032 0-5.7456-2.45279988-1.7136-2.4527999-1.7136-6.9551997v-9.1391994q0-4.6032 1.848-7.0224 1.8816-2.4192 6.3168-2.4192 4.2672 0 6.1152 2.0832t1.848 5.88v1.7472h-5.88v-2.2176q0-1.6128-.3696-2.4192-.3696-.84-1.6464-.84-1.3104 0-1.7136.9072-.3696.9072-.3696 2.52v12.5999993q0 1.6128.4704 2.5535999.504.9072 1.7808.9072 2.352 0 2.352-3.5279999v-3.1920003h-2.4528v-3.527999h7.8624v14.111999h-3.9648l-.336-2.2511999q-1.2768 2.65439988-4.4016 2.65439988z"/><path d="m189.01408-27.215999h12.2304v4.0992h-6.216v6.7536h4.7376v4.1664h-4.7376v8.1311992h6.2832v4.0655998h-12.2976z"/><path d="m208.03324-27.215999h7.4928q4.4688 0 6.7536 1.5792t2.2848 5.6112q0 2.7216-.7056 4.3344t-2.6208 2.52l3.7296 13.171199h-6.216l-2.9904-12.196799h-1.7136v12.196799h-6.0144zm7.6944 11.5584q1.8144 0 2.52-.9408.7392-.9744.7392-2.8896 0-1.848-.672-2.7552-.672-.9408-2.3184-.9408h-1.9488v7.5264z"/><path d="m236.0236-27.215999h6.8544l5.0736 27.215999h-5.544l-.9072-5.7455997h-3.9984l-.9408 5.7455997h-5.6784zm4.9056 17.8751994-1.4448-10.6175994-1.4448 10.6175994z"/><path d="m254.70677-27.215999h6.0144v23.1503992h6.24959v4.0655998h-12.26399z"/><path d="m461.3382-27.215999h5.1408l2.9232 18.4799994 2.7216-18.4799994h5.4432l-4.9728 27.215999h-6.3504z"/><path d="m491.74775.40319998q-4.4016 0-6.2832-2.25119988-1.8816-2.2847999-1.8816-6.7199997v-10.1135994q0-4.4352 1.8816-6.6528 1.8816-2.2512 6.2832-2.2512 4.4352 0 6.3168 2.2512 1.9152 2.2512 1.9152 6.6528v10.1135994q0 4.4351998-1.9152 6.7199997-1.8816 2.25119988-6.3168 2.25119988zm0-4.26719978q1.2768 0 1.68-.84.4032-.8735999.4032-2.3519999v-13.1039993q0-1.512-.4032-2.352t-1.68-.84q-1.2096 0-1.6128.8736-.4032.84-.4032 2.3184v13.1039993q0 1.4784.3696 2.3519999.3696.84 1.6464.84z"/><path d="m507.64213-27.215999h4.2336l5.5776 13.104v-13.104h4.9728v27.215999h-4.0656l-5.5776-14.111999v14.111999h-5.1408z"/><path d="m532.94451-22.747199h-4.0992v-4.4688h14.2128v4.4688h-4.0656v22.747199h-6.048z"/><path d="m552.06448-27.215999h6.8544l5.0736 27.215999h-5.544l-.9072-5.7455997h-3.9984l-.9408 5.7455997h-5.6784zm4.9056 17.8751994-1.4448-10.6175994-1.4448 10.6175994z"/><path d="m570.74763-27.215999h6.888q3.528 0 5.5104.8736t2.7888 2.7552q.84 1.848.84 4.9728v9.8783994q0 3.1583999-.84 5.0399998-.8064 1.8815999-2.7888 2.78879984-1.9488.90719996-5.4432.90719996h-6.9552zm6.9552 23.0495992q1.3104 0 1.9152-.3696.6384-.4032.8064-1.1087999.168-.7392.168-2.1503999v-11.8607994q0-1.3104-.2016-1.9824-.168-.7056-.8064-1.0416-.6048-.336-1.9152-.336h-.9072v18.8495992z"/><path d="m594.4372-27.215999h12.2304v4.0992h-6.216v6.7536h4.7376v4.1664h-4.7376v8.1311992h6.2832v4.0655998h-12.2976z"/><path d="m626.05787-27.215999h6.888q3.528 0 5.5104.8736t2.7888 2.7552q.84 1.848.84 4.9728v9.8783994q0 3.1583999-.84 5.0399998-.8064 1.8815999-2.7888 2.78879984-1.9488.90719996-5.4432.90719996h-6.9552zm6.9552 23.0495992q1.3104 0 1.9152-.3696.6384-.4032.8064-1.1087999.168-.7392.168-2.1503999v-11.8607994q0-1.3104-.2016-1.9824-.168-.7056-.8064-1.0416-.6048-.336-1.9152-.336h-.9072v18.8495992z"/><path d="m649.74745-27.215999h12.23039v4.0992h-6.216v6.7536h4.7376v4.1664h-4.7376v8.1311992h6.2832v4.0655998h-12.29759z"/><path d="m683.82097-22.747199h-4.0992v-4.4688h14.2128v4.4688h-4.0656v22.747199h-6.048z"/><path d="m707.84654.40319998q-4.4016 0-6.2832-2.25119988-1.8816-2.2847999-1.8816-6.7199997v-10.1135994q0-4.4352 1.8816-6.6528 1.8816-2.2512 6.2832-2.2512 4.4352 0 6.3168 2.2512 1.9152 2.2512 1.9152 6.6528v10.1135994q0 4.4351998-1.9152 6.7199997-1.8816 2.25119988-6.3168 2.25119988zm0-4.26719978q1.2768 0 1.68-.84.4032-.8735999.4032-2.3519999v-13.1039993q0-1.512-.4032-2.352t-1.68-.84q-1.2096 0-1.6128.8736-.4032.84-.4032 2.3184v13.1039993q0 1.4784.3696 2.3519999.3696.84 1.6464.84z"/><path d="m723.74091-27.215999h6.888q3.528 0 5.5104.8736t2.7888 2.7552q.84 1.848.84 4.9728v9.8783994q0 3.1583999-.84 5.0399998-.8064 1.8815999-2.7888 2.78879984-1.9488.90719996-5.4432.90719996h-6.9552zm6.9552 23.0495992q1.3104 0 1.9152-.3696.6384-.4032.8064-1.1087999.168-.7392.168-2.1503999v-11.8607994q0-1.3104-.2016-1.9824-.168-.7056-.8064-1.0416-.6048-.336-1.9152-.336h-.9072v18.8495992z"/><path d="m755.22569.40319998q-4.4016 0-6.2832-2.25119988-1.8816-2.2847999-1.8816-6.7199997v-10.1135994q0-4.4352 1.8816-6.6528 1.8816-2.2512 6.2832-2.2512 4.4352 0 6.3168 2.2512 1.9152 2.2512 1.9152 6.6528v10.1135994q0 4.4351998-1.9152 6.7199997-1.8816 2.25119988-6.3168 2.25119988zm0-4.26719978q1.2768 0 1.68-.84.4032-.8735999.4032-2.3519999v-13.1039993q0-1.512-.4032-2.352t-1.68-.84q-1.2096 0-1.6128.8736-.4032.84-.4032 2.3184v13.1039993q0 1.4784.3696 2.3519999.3696.84 1.6464.84z"/><path d="m778.344.40319998q-3.8976 0-5.8128-2.04959988-1.8816-2.0831999-2.016-6.5855997l5.1408-.7728q.0336 2.5871999.6048 3.7295998.6048 1.1088 1.7808 1.1088 1.512 0 1.512-1.9823999 0-1.5791999-.7392-2.7215999-.7056-1.1424004-2.2512-2.4527994l-2.352-2.0496q-1.7472-1.4784-2.7216-3.1248-.9408-1.68-.9408-3.9648 0-3.4272 2.016-5.2752 2.0496-1.848 5.6112-1.848 3.864 0 5.2416 2.2512 1.4112 2.2512 1.512 5.4768l-5.1744.6384q-.0672-2.1168-.4032-3.024-.3024-.9408-1.3776-.9408-.7728 0-1.2096.672-.4032.6384-.4032 1.4448 0 1.3776.6048 2.3184.6384.9408 2.016 2.1504l2.2512 1.9824q2.016 1.7136 3.1248 3.628799 1.1088 1.9152004 1.1088 4.5360003 0 1.9151999-.9072 3.4943998-.8736 1.5456-2.4864 2.45279992-1.6128.90719996-3.7296.90719996z"/></g><path d="m16589 46099h155880v136656h-155880z" fill="none" transform="matrix(.0019685 0 0 -.0019685 0 405)"/><g fill="#ed4e38" transform="matrix(.7499985 0 0 -.7499985 32.655448 314.25412)"><g transform="translate(57 28.199999)"><path d="m2.78-13.78-1.6-.22v-.86h2.42q.44 0 .86-.02.44-.04.64-.04 1.04-.08 2-.08 2.82 0 3.98 1.06 1.18 1.04 1.18 3.14 0 1.58-.76 2.74t-2.06 1.78q-1.3.6-2.9.6-.64 0-1.32-.02-.66-.04-.8-.06v4.7l2.78.2v.86h-6.14v-.86l1.72-.18zm1.64 7.04q.5.08 2.16.08 1.72 0 2.82-.96 1.1-.98 1.1-3.18 0-1.74-.94-2.48-.94-.76-2.96-.76-.62 0-1.38.08-.6.04-.8.04z"/><path d="m18.58.22q-2.32 0-3.58-1.58-1.24-1.6-1.24-4.24 0-1.7.66-3.02t1.82-2.04q1.18-.74 2.64-.74 1.78 0 2.76 1.02 1 1.02 1.08 2.94 0 1.24-.12 1.76h-7.12q0 2.1.94 3.44.96 1.32 2.68 1.32.84 0 1.72-.3t1.36-.72l.32.74q-.58.6-1.7 1.02-1.1.4-2.22.4zm2.34-6.84q.06-.42.06-.88-.02-1.32-.64-2.1-.6-.78-1.86-.78-2.74 0-2.98 3.76z"/><path d="m26.160001-1.58q.22.34.92.6t1.5.26q2.44 0 2.44-1.8 0-.82-.68-1.32-.68-.52-2.32-1.14-1.62-.58-2.36-1.38t-.74-2.14q0-.86.52-1.5.54-.64 1.42-.98.9-.36 1.94-.36 1.02 0 1.7.18.7.18 1.38.44v2.38h-.98l-.36-1.46q-.14-.26-.72-.44-.56-.18-1.24-.18-.96 0-1.56.44-.6.42-.6 1.14 0 .64.3 1.06t.74.68q.44.24 1.22.56l.38.16q1.14.44 1.84.84.7.38 1.16 1.02.46.62.46 1.56 0 1.48-1.14 2.34-1.12.84-3 .84-.86 0-1.96-.28t-1.64-.56v-2.52h1.08z"/><path d="m36.080001-1.58q.22.34.92.6t1.5.26q2.44 0 2.44-1.8 0-.82-.68-1.32-.68-.52-2.32-1.14-1.62-.58-2.36-1.38t-.74-2.14q0-.86.52-1.5.54-.64 1.42-.98.9-.36 1.94-.36 1.02 0 1.7.18.7.18 1.38.44v2.38h-.98l-.36-1.46q-.14-.26-.72-.44-.56-.18-1.24-.18-.96 0-1.56.44-.6.42-.6 1.14 0 .64.3 1.06t.74.68q.44.24 1.22.56l.38.16q1.14.44 1.84.84.7.38 1.16 1.02.46.62.46 1.56 0 1.48-1.14 2.34-1.12.84-3 .84-.86 0-1.96-.28t-1.64-.56v-2.52h1.08z"/><path d="m44.359999-5.62q0-1.74.72-3.06.74-1.32 1.92-2.02 1.2-.7 2.5-.7 2.52 0 3.72 1.64 1.22 1.64 1.22 4.2 0 1.74-.74 3.06-.72 1.32-1.92 2.02-1.18.7-2.48.7-2.52 0-3.74-1.64-1.2-1.64-1.2-4.2zm5.04 4.8q1.54 0 2.38-1.18t.84-3.44q0-2.16-.78-3.54t-2.42-1.38q-1.54 0-2.4 1.18-.84 1.18-.84 3.44 0 2.18.78 3.56.8 1.36 2.44 1.36z"/><path d="m56.380001-2.92q0-1.94 1.92-2.8 1.92-.88 4.78-.94v-.62q0-1.02-.22-1.6-.2-.6-.72-.86-.52-.28-1.46-.28-1.02 0-1.86.32-.82.3-1.6.74l-.44-.88q.22-.2.92-.56t1.6-.64 1.74-.28q1.36 0 2.14.38.8.38 1.14 1.22.36.84.36 2.26v6.6h1.24v.74q-1.1.3-1.86.3-.48 0-.66-.16-.18-.14-.18-.68v-.74q-.72.64-1.58 1.14-.84.48-1.92.48-1.44 0-2.4-.8-.94-.8-.94-2.34zm3.94 1.96q.56 0 1.34-.36t1.42-.86v-3.54q-2.42.02-3.68.72-1.24.7-1.24 1.88 0 1.14.58 1.66.58.5 1.58.5z"/><path d="m82.799998-5.96q0 1.72-.7 3.14-.7 1.4-2 2.22-1.28.82-2.94.82-.56 0-1.18-.1-.62-.08-1.02-.22l.04 1.7v2.16l2.22.2v.88h-5.36v-.88l1.54-.2v-13.54l-1.56-.34v-.9l2.56-.32h.04l.36.32v1.22q.64-.66 1.56-1.12.92-.48 2.06-.48 1.16 0 2.16.58t1.6 1.8q.62 1.22.62 3.06zm-5.04-4.22q-.86 0-1.6.36t-1.16.8v7.62q.16.26.8.48.66.2 1.44.2 1.72 0 2.76-1.26 1.06-1.28 1.06-3.76 0-2.22-.94-3.32-.92-1.12-2.36-1.12z"/><path d="m93.780001.18q-.52 0-.76-.18t-.24-.66v-.78q-.74.66-1.74 1.16t-2 .5q-1.82 0-2.6-1.02-.76-1.02-.76-3.32v-5.88l-1.18-.34v-.74l2.42-.26h.02l.36.24v6.74q0 1.26.18 1.98.18.7.66 1.04t1.4.34q.88 0 1.68-.38t1.38-.9v-7.72l-1.52-.34v-.74l2.66-.26h.02l.46.24v10.22h1.24l-.02.76q-.1.02-.58.16t-1.08.14zm-5.42-13.9 3.1-3.86 1.36 1.1q-.4.6-1.78 1.8-1.36 1.18-2.06 1.5z"/><path d="m96.219999-16.04 2.92-.34h.04l.38.28v6.08q.620001-.58 1.480001-.98.88-.4 1.94-.4 1.18 0 2.16.58 1 .58 1.6 1.8.62 1.22.62 3.06 0 1.72-.7 3.14-.7 1.4-2 2.22t-3 .82q-1.24 0-2.360001-.26-1.12-.26-1.36-.5v-14.58l-1.72-.18zm6.100001 5.86q-.84 0-1.58.4-.740001.4-1.180001.88v7.4q.14.32.780001.52.66.18 1.46.18 1.72 0 2.76-1.26 1.04-1.28 1.04-3.74 0-2.2-.94-3.28-.92-1.1-2.34-1.1z"/><path d="m110.82-15.12-1.7-.18v-.74l2.92-.34h.02l.38.26v15.12l1.88.14v.86h-5.26v-.86l1.76-.16z"/><path d="m118.1-13.2q-1.08 0-1.08-1.14 0-.58.34-.94.34-.38.92-.38.6 0 .86.34.26.32.26.8 0 .62-.34.98-.32.34-.94.34zm-.64 3.42-1.56-.34v-.9l2.74-.32h.04l.4.32v10.02l1.74.14v.86h-5.12v-.86l1.76-.16z"/><path d="m122.02-5.48q0-1.62.62-2.96.64-1.36 1.88-2.16 1.26-.8 3.06-.8.78 0 1.52.2.74.18 1.28.4l-.08 2.86h-1l-.42-1.92q-.12-.6-1.72-.6-1.56 0-2.5 1.2-.92 1.2-.92 3.28 0 2.48 1 3.76t2.6 1.28q.84 0 1.62-.28.8-.28 1.32-.64l.32.66q-.58.58-1.6 1t-2.02.42q-1.58 0-2.7-.74-1.12-.76-1.7-2.04-.56-1.3-.56-2.92z"/><path d="m132.54-2.92q0-1.94 1.92-2.8 1.92-.88 4.78-.94v-.62q0-1.02-.22-1.6-.2-.6-.72-.86-.52-.28-1.46-.28-1.02 0-1.86.32-.82.3-1.6.74l-.44-.88q.22-.2.92-.56t1.6-.64 1.74-.28q1.36 0 2.14.38.8.38 1.14 1.22.36.84.36 2.26v6.6h1.24v.74q-1.1.3-1.86.3-.48 0-.66-.16-.18-.14-.18-.68v-.74q-.72.64-1.58 1.14-.84.48-1.92.48-1.44 0-2.4-.8-.94-.8-.94-2.34zm3.94 1.96q.56 0 1.34-.36t1.42-.86v-3.54q-2.42.02-3.68.72-1.24.7-1.24 1.88 0 1.14.58 1.66.58.5 1.58.5z"/><path d="m146.04-8.1q-.46 0-.78-.3-.32-.32-.32-.82 0-.56.38-.94.4-.38.92-.38.54 0 .8.32.28.32.28.8 0 .56-.38.94t-.9.38zm.06 5.32q.64 0 1.02.6t.38 1.7-.32 2.08-.82 1.68-1 1h-.02l-.58-.4v-.18q.24-.18.52-.74.3-.54.5-1.26.22-.72.22-1.4 0-.3-.12-.48-.1-.18-.32-.42-.26-.26-.4-.5-.12-.24-.12-.66 0-.46.28-.74.3-.28.7-.28z"/></g><g transform="translate(57 64.2)"><path d="m7.54.22q-2.14 0-3.68-.96t-2.34-2.7-.8-4.06q0-2.18.94-3.9t2.56-2.66q1.62-.96 3.62-.96 1.02 0 1.96.16.96.16 1.54.3t.72.18l-.16 3.26h-1.04l-.44-2.32q-.3-.26-1.08-.44t-1.9-.18q-1.38 0-2.48.76-1.1.74-1.74 2.18-.62 1.44-.62 3.44 0 1.88.54 3.46.56 1.58 1.68 2.54 1.12.94 2.76.94 1.14 0 1.78-.18.64-.2 1.08-.56l.8-1.88.98.14-.5 2.68q-.48.02-1.16.26-.72.24-1.38.36-.66.14-1.64.14z"/><path d="m16.22-13.2q-1.08 0-1.08-1.14 0-.58.34-.94.34-.38.92-.38.6 0 .86.34.26.32.26.8 0 .62-.34.98-.32.34-.94.34zm-.64 3.42-1.56-.34v-.9l2.74-.32h.04l.4.32v10.02l1.74.14v.86h-5.12v-.86l1.76-.16z"/><path d="m24.759999.22q-1.18 0-2.18-.6-1-.62-1.6-1.86t-.6-3.04q0-1.72.7-3.1.7-1.4 1.98-2.2 1.3-.82 3.02-.82 1.1 0 2.12.24v-3.96l-2.08-.2v-.72l3.28-.34h.04l.38.28v15.2h1.22v.78q-.1.02-.68.16t-1.24.14q-.46 0-.66-.16-.18-.16-.18-.7v-.7q-.62.68-1.52 1.14-.88.46-2 .46zm.66-1.26q.86 0 1.62-.4.78-.42 1.16-.92v-7.36q-.16-.28-.84-.48-.66-.2-1.42-.2-1.72 0-2.76 1.24-1.04 1.22-1.04 3.72 0 2.24.92 3.32t2.36 1.08z"/><path d="m32.84-2.92q0-1.94 1.92-2.8 1.92-.88 4.78-.94v-.62q0-1.02-.22-1.6-.2-.6-.72-.86-.52-.28-1.46-.28-1.02 0-1.86.32-.82.3-1.6.74l-.44-.88q.22-.2.92-.56t1.6-.64 1.74-.28q1.36 0 2.14.38.8.38 1.14 1.22.36.84.36 2.26v6.6h1.24v.74q-1.1.3-1.86.3-.48 0-.66-.16-.18-.14-.18-.68v-.74q-.72.64-1.58 1.14-.84.48-1.92.48-1.44 0-2.4-.8-.94-.8-.94-2.34zm3.94 1.96q.56 0 1.34-.36t1.42-.86v-3.54q-2.42.02-3.68.72-1.24.7-1.24 1.88 0 1.14.58 1.66.58.5 1.58.5z"/><path d="m48.259999.22q-1.18 0-2.18-.6-1-.62-1.6-1.86t-.6-3.04q0-1.72.7-3.1.7-1.4 1.98-2.2 1.3-.82 3.02-.82 1.1 0 2.12.24v-3.96l-2.08-.2v-.72l3.28-.34h.04l.38.28v15.2h1.22v.78q-.1.02-.68.16t-1.24.14q-.46 0-.66-.16-.18-.16-.18-.7v-.7q-.62.68-1.52 1.14-.88.46-2 .46zm.66-1.26q.86 0 1.62-.4.78-.42 1.16-.92v-7.36q-.16-.28-.84-.48-.66-.2-1.42-.2-1.72 0-2.76 1.24-1.04 1.22-1.04 3.72 0 2.24.92 3.32t2.36 1.08z"/><path d="m56.34-2.92q0-1.94 1.92-2.8 1.92-.88 4.78-.94v-.62q0-1.02-.22-1.6-.2-.6-.72-.86-.52-.28-1.46-.28-1.02 0-1.86.32-.82.3-1.6.74l-.44-.88q.22-.2.92-.56t1.6-.64 1.74-.28q1.36 0 2.14.38.8.38 1.14 1.22.36.84.36 2.26v6.6h1.24v.74q-1.1.3-1.86.3-.48 0-.66-.16-.18-.14-.18-.68v-.74q-.72.64-1.58 1.14-.84.48-1.92.48-1.44 0-2.4-.8-.94-.8-.94-2.34zm3.94 1.96q.56 0 1.34-.36t1.42-.86v-3.54q-2.42.02-3.68.72-1.24.7-1.24 1.88 0 1.14.58 1.66.58.5 1.58.5zm-3.26-13.02q.2-.8.76-1.38.58-.6 1.54-.6.6 0 1 .24t.92.72q.34.34.58.5t.52.16q.56 0 .88-.42t.38-.82l.92.42q-.62 2.02-2.26 2.02-.58 0-.98-.24-.38-.24-.86-.7-.38-.36-.62-.52t-.54-.16q-.56 0-.84.32-.28.3-.42.58-.12.28-.16.34z"/><path d="m67.359999-5.62q0-1.74.72-3.06.74-1.32 1.92-2.02 1.2-.7 2.5-.7 2.52 0 3.72 1.64 1.22 1.64 1.22 4.2 0 1.74-.74 3.06-.72 1.32-1.92 2.02-1.18.7-2.48.7-2.52 0-3.74-1.64-1.2-1.64-1.2-4.2zm5.04 4.8q1.54 0 2.38-1.18t.84-3.44q0-2.16-.78-3.54t-2.42-1.38q-1.54 0-2.4 1.18-.84 1.18-.84 3.44 0 2.18.78 3.56.8 1.36 2.44 1.36z"/><path d="m80.620001 3.54h-1.5l5.6-19.16h1.5z"/><path d="m89.520003-1.58q.22.34.92.6t1.5.26q2.44 0 2.44-1.8 0-.82-.68-1.32-.68-.52-2.32-1.14-1.62-.58-2.36-1.38t-.74-2.14q0-.86.52-1.5.54-.64 1.42-.98.9-.36 1.94-.36 1.02 0 1.7.18.7.18 1.38.44v2.38h-.98l-.36-1.46q-.14-.26-.72-.44-.56-.18-1.24-.18-.96 0-1.56.44-.6.42-.6 1.14 0 .64.3 1.06t.74.68q.44.24 1.22.56l.38.16q1.14.44 1.84.84.7.38 1.16 1.02.46.62.46 1.56 0 1.48-1.14 2.34-1.12.84-3 .84-.86 0-1.96-.28t-1.64-.56v-2.52h1.08z"/><path d="m106.96.18q-.52 0-.76-.18t-.24-.66v-.78q-.74.66-1.74 1.16t-2 .5q-1.82 0-2.599998-1.02-.76-1.02-.76-3.32v-5.88l-1.18-.34v-.74l2.419998-.26h.02l.36.24v6.74q0 1.26.18 1.98.18.7.66 1.04t1.4.34q.88 0 1.68-.38t1.38-.9v-7.72l-1.52-.34v-.74l2.66-.26h.02l.46.24v10.22h1.24l-.02.76q-.1.02-.58.16t-1.08.14zm-5.42-13.9 3.1-3.86 1.36 1.1q-.4.6-1.78 1.8-1.36 1.18-2.06 1.5z"/><path d="m114.76.22q-1.18 0-2.18-.6-1-.62-1.6-1.86t-.6-3.04q0-1.72.7-3.1.7-1.4 1.98-2.2 1.3-.82 3.02-.82 1.1 0 2.12.24v-3.96l-2.08-.2v-.72l3.28-.34h.04l.38.28v15.2h1.22v.78q-.1.02-.68.16t-1.24.14q-.46 0-.66-.16-.18-.16-.18-.7v-.7q-.62.68-1.52 1.14-.88.46-2 .46zm.66-1.26q.86 0 1.62-.4.78-.42 1.16-.92v-7.36q-.16-.28-.84-.48-.66-.2-1.42-.2-1.72 0-2.76 1.24-1.04 1.22-1.04 3.72 0 2.24.92 3.32t2.36 1.08z"/><path d="m125.06-13.2q-1.08 0-1.08-1.14 0-.58.34-.94.34-.38.92-.38.6 0 .86.34.26.32.26.8 0 .62-.34.98-.32.34-.94.34zm-.64 3.42-1.56-.34v-.9l2.74-.32h.04l.4.32v10.02l1.74.14v.86h-5.12v-.86l1.76-.16z"/><path d="m132.66.22q-1.06 0-1.6-.48-.54-.5-.54-1.76v-7.9h-1.52v-.78q1-.22 1.16-.32.3-.16.44-.62.12-.3.32-1.08t.3-1.22h.92v2.84h3.54v1.18h-3.54v6.48q0 1.16.08 1.64.08.46.32.6t.84.14q.58 0 1.3-.16t1.08-.34l.26.76q-.46.36-1.52.7-1.06.32-1.84.32z"/><path d="m137.32-5.62q0-1.74.72-3.06.74-1.32 1.92-2.02 1.2-.7 2.5-.7 2.52 0 3.72 1.64 1.22 1.64 1.22 4.2 0 1.74-.74 3.06-.72 1.32-1.92 2.02-1.18.7-2.48.7-2.52 0-3.74-1.64-1.2-1.64-1.2-4.2zm5.04 4.8q1.54 0 2.38-1.18t.84-3.44q0-2.16-.78-3.54t-2.42-1.38q-1.54 0-2.4 1.18-.84 1.18-.84 3.44 0 2.18.78 3.56.8 1.36 2.44 1.36z"/><path d="m151.70001-8.1q-.46 0-.78-.3-.32-.32-.32-.82 0-.56.38-.94.4-.38.92-.38.54 0 .8.32.28.32.28.8 0 .56-.38.94t-.9.38zm.06 5.32q.64 0 1.02.6t.38 1.7-.32 2.08-.82 1.68-1 1h-.02l-.58-.4v-.18q.24-.18.52-.74.3-.54.5-1.26.22-.72.22-1.4 0-.3-.12-.48-.1-.18-.32-.42-.26-.26-.4-.5-.12-.24-.12-.66 0-.46.28-.74.3-.28.7-.28z"/></g><g transform="translate(57 100.19999)"><path d="m3.14-13.78-1.94-.22v-.86h5.54v.86l-1.94.22v12.74l1.94.2v.84h-5.54v-.86l1.94-.18z"/><path d="m10.1-9.78-1.5399999-.34v-.9l2.5399999-.32h.06l.38.32v.88l-.02.5q.74-.64 1.96-1.18t2.26-.54q1.28 0 1.96.5.7.48.96 1.5.28 1 .28 2.7v5.66l1.5.14v.86h-4.46v-.86l1.34-.14v-5.68q0-1.26-.18-1.98-.16-.72-.66-1.08-.48-.38-1.42-.38-.8 0-1.74.4-.92.4-1.6.94v7.76l1.46.16v.86h-4.4199999v-.86l1.3399999-.16z"/><path d="m25.36.22q-1.06 0-1.6-.48-.54-.5-.54-1.76v-7.9h-1.52v-.78q1-.22 1.16-.32.3-.16.44-.62.12-.3.32-1.08t.3-1.22h.92v2.84h3.54v1.18h-3.54v6.48q0 1.16.08 1.64.08.46.32.6t.84.14q.58 0 1.3-.16t1.08-.34l.26.76q-.46.36-1.52.7-1.06.32-1.84.32z"/><path d="m34.880001.22q-2.32 0-3.58-1.58-1.24-1.6-1.24-4.24 0-1.7.66-3.02t1.82-2.04q1.18-.74 2.64-.74 1.78 0 2.76 1.02 1 1.02 1.08 2.94 0 1.24-.12 1.76h-7.12q0 2.1.94 3.44.96 1.32 2.68 1.32.84 0 1.72-.3t1.36-.72l.32.74q-.58.6-1.7 1.02-1.1.4-2.22.4zm2.34-6.84q.06-.42.06-.88-.02-1.32-.64-2.1-.6-.78-1.86-.78-2.74 0-2.98 3.76z"/><path d="m40.899998-.84 1.6-.12v-8.82l-1.54-.34v-.9l2.54-.32h.04l.38.32v.32l-.04 1.52h.04q.04-.04.52-.6.5-.58 1.46-1.1.98-.52 1.96-.52.32 0 .6.08v1.76q-.08-.06-.36-.12-.26-.06-.56-.06-1.14 0-1.94.34t-1.48.84v7.58l2.66.16v.82h-5.88z"/><path d="m54.679998.22q-2.32 0-3.58-1.58-1.24-1.6-1.24-4.24 0-1.7.66-3.02t1.82-2.04q1.18-.74 2.64-.74 1.78 0 2.76 1.02 1 1.02 1.08 2.94 0 1.24-.12 1.76h-7.12q0 2.1.94 3.44.96 1.32 2.68 1.32.84 0 1.72-.3t1.36-.72l.32.74q-.58.6-1.7 1.02-1.1.4-2.22.4zm2.34-6.84q.06-.42.06-.88-.02-1.32-.64-2.1-.6-.78-1.86-.78-2.74 0-2.98 3.76z"/><path d="m62.260001-1.58q.22.34.92.6t1.5.26q2.44 0 2.44-1.8 0-.82-.68-1.32-.68-.52-2.32-1.14-1.62-.58-2.36-1.38t-.74-2.14q0-.86.52-1.5.54-.64 1.42-.98.9-.36 1.94-.36 1.02 0 1.7.18.7.18 1.38.44v2.38h-.98l-.36-1.46q-.14-.26-.72-.44-.56-.18-1.24-.18-.96 0-1.56.44-.6.42-.6 1.14 0 .64.3 1.06t.74.68q.44.24 1.22.56l.38.16q1.14.44 1.84.84.7.38 1.16 1.02.46.62.46 1.56 0 1.48-1.14 2.34-1.12.84-3 .84-.86 0-1.96-.28t-1.64-.56v-2.52h1.08z"/><path d="m72.179999-1.58q.22.34.92.6t1.5.26q2.44 0 2.44-1.8 0-.82-.68-1.32-.68-.52-2.32-1.14-1.62-.58-2.36-1.38t-.74-2.14q0-.86.52-1.5.54-.64 1.42-.98.9-.36 1.94-.36 1.02 0 1.7.18.7.18 1.38.44v2.38h-.98l-.36-1.46q-.14-.26-.72-.44-.56-.18-1.24-.18-.96 0-1.56.44-.6.42-.6 1.14 0 .64.3 1.06t.74.68q.44.24 1.22.56l.38.16q1.14.44 1.84.84.7.38 1.16 1.02.46.62.46 1.56 0 1.48-1.14 2.34-1.12.84-3 .84-.86 0-1.96-.28t-1.64-.56v-2.52h1.08z"/><path d="m85.319998.22q-2.32 0-3.58-1.58-1.24-1.6-1.24-4.24 0-1.7.66-3.02t1.82-2.04q1.18-.74 2.64-.74 1.78 0 2.76 1.02 1 1.02 1.08 2.94 0 1.24-.12 1.76h-7.12q0 2.1.94 3.44.96 1.32 2.68 1.32.84 0 1.72-.3t1.36-.72l.32.74q-.58.6-1.7 1.02-1.1.4-2.22.4zm2.34-6.84q.06-.42.06-.88-.02-1.32-.64-2.1-.6-.78-1.86-.78-2.74 0-2.98 3.76z"/><path d="m95.779998-5.48q0-1.62.62-2.96.64-1.36 1.88-2.16 1.26-.8 3.060002-.8.78 0 1.52.2.74.18 1.28.4l-.08 2.86h-1l-.42-1.92q-.12-.6-1.72-.6-1.560002 0-2.500002 1.2-.92 1.2-.92 3.28 0 2.48 1 3.76t2.600002 1.28q.84 0 1.62-.28.8-.28 1.32-.64l.32.66q-.58.58-1.6 1t-2.02.42q-1.580002 0-2.700002-.74-1.12-.76-1.7-2.04-.56-1.3-.56-2.92z"/><path d="m106.18-5.62q0-1.74.72-3.06.74-1.32 1.92-2.02 1.2-.7 2.5-.7 2.52 0 3.72 1.64 1.22 1.64 1.22 4.2 0 1.74-.74 3.06-.72 1.32-1.92 2.02-1.18.7-2.48.7-2.52 0-3.74-1.64-1.2-1.64-1.2-4.2zm5.04 4.8q1.54 0 2.38-1.18t.84-3.44q0-2.16-.78-3.54t-2.42-1.38q-1.54 0-2.4 1.18-.84 1.18-.84 3.44 0 2.18.78 3.56.8 1.36 2.44 1.36z"/><path d="m119.72-15.12-1.7-.18v-.74l2.92-.34h.02l.38.26v15.12l1.88.14v.86h-5.26v-.86l1.76-.16z"/><path d="m129.52.22q-2.32 0-3.58-1.58-1.24-1.6-1.24-4.24 0-1.7.66-3.02t1.82-2.04q1.18-.74 2.64-.74 1.78 0 2.76 1.02 1 1.02 1.08 2.94 0 1.24-.12 1.76h-7.12q0 2.1.94 3.44.96 1.32 2.68 1.32.84 0 1.72-.3t1.36-.72l.32.74q-.58.6-1.7 1.02-1.1.4-2.22.4zm2.34-6.84q.06-.42.06-.88-.02-1.32-.64-2.1-.6-.78-1.86-.78-2.74 0-2.98 3.76z"/><path d="m138.92.22q-1.06 0-1.6-.48-.54-.5-.54-1.76v-7.9h-1.52v-.78q1-.22 1.16-.32.3-.16.44-.62.12-.3.32-1.08t.3-1.22h.92v2.84h3.54v1.18h-3.54v6.48q0 1.16.08 1.64.08.46.32.6t.84.14q.58 0 1.3-.16t1.08-.34l.26.76q-.46.36-1.52.7-1.06.32-1.84.32z"/><path d="m145.91999-13.2q-1.08 0-1.08-1.14 0-.58.34-.94.34-.38.92-.38.6 0 .86.34.26.32.26.8 0 .62-.34.98-.32.34-.94.34zm-.64 3.42-1.56-.34v-.9l2.74-.32h.04l.4.32v10.02l1.74.14v.86h-5.12v-.86l1.76-.16z"/><path d="m149.2-11.1h4.24v.82l-1.48.26 2.14 5.94.98 2.84.84-2.74 2.14-6.04-1.4-.26v-.82h3.82v.82l-1.02.26-3.94 10.18h-1.34l-4.04-10.18-.94-.26z"/><path d="m161.38-5.62q0-1.74.72-3.06.74-1.32 1.92-2.02 1.2-.7 2.5-.7 2.52 0 3.72 1.64 1.22 1.64 1.22 4.2 0 1.74-.74 3.06-.72 1.32-1.92 2.02-1.18.7-2.48.7-2.52 0-3.74-1.64-1.2-1.64-1.2-4.2zm5.04 4.8q1.54 0 2.38-1.18t.84-3.44q0-2.16-.78-3.54t-2.42-1.38q-1.54 0-2.4 1.18-.84 1.18-.84 3.44 0 2.18.78 3.56.8 1.36 2.44 1.36z"/><path d="m188.68-5.96q0 1.72-.7 3.14-.7 1.4-2 2.22-1.28.82-2.94.82-.56 0-1.18-.1-.62-.08-1.02-.22l.04 1.7v2.16l2.22.2v.88h-5.36v-.88l1.54-.2v-13.54l-1.56-.34v-.9l2.56-.32h.04l.36.32v1.22q.64-.66 1.56-1.12.92-.48 2.06-.48 1.16 0 2.16.58t1.6 1.8q.62 1.22.62 3.06zm-5.04-4.22q-.86 0-1.6.36t-1.16.8v7.62q.16.26.8.48.66.2 1.44.2 1.72 0 2.76-1.26 1.06-1.28 1.06-3.76 0-2.22-.94-3.32-.92-1.12-2.36-1.12z"/><path d="m190.62001-2.92q0-1.94 1.92-2.8 1.92-.88 4.78-.94v-.62q0-1.02-.22-1.6-.2-.6-.72-.86-.52-.28-1.46-.28-1.02 0-1.86.32-.82.3-1.6.74l-.44-.88q.22-.2.92-.56t1.6-.64 1.74-.28q1.36 0 2.14.38.8.38 1.14 1.22.36.84.36 2.26v6.6h1.24v.74q-1.1.3-1.86.3-.48 0-.66-.16-.18-.14-.18-.68v-.74q-.72.64-1.58 1.14-.84.48-1.92.48-1.44 0-2.4-.8-.94-.8-.94-2.34zm3.94 1.96q.56 0 1.34-.36t1.42-.86v-3.54q-2.42.02-3.68.72-1.24.7-1.24 1.88 0 1.14.58 1.66.58.5 1.58.5z"/><path d="m201.72001-.84 1.6-.12v-8.82l-1.54-.34v-.9l2.54-.32h.04l.38.32v.32l-.04 1.52h.04q.04-.04.52-.6.5-.58 1.46-1.1.98-.52 1.96-.52.32 0 .6.08v1.76q-.08-.06-.36-.12-.26-.06-.56-.06-1.14 0-1.94.34t-1.48.84v7.58l2.66.16v.82h-5.88z"/><path d="m210.76001-2.92q0-1.94 1.92-2.8 1.92-.88 4.78-.94v-.62q0-1.02-.22-1.6-.2-.6-.72-.86-.52-.28-1.46-.28-1.02 0-1.86.32-.82.3-1.6.74l-.44-.88q.22-.2.92-.56t1.6-.64 1.74-.28q1.36 0 2.14.38.8.38 1.14 1.22.36.84.36 2.26v6.6h1.24v.74q-1.1.3-1.86.3-.48 0-.66-.16-.18-.14-.18-.68v-.74q-.72.64-1.58 1.14-.84.48-1.92.48-1.44 0-2.4-.8-.94-.8-.94-2.34zm3.94 1.96q.56 0 1.34-.36t1.42-.86v-3.54q-2.42.02-3.68.72-1.24.7-1.24 1.88 0 1.14.58 1.66.58.5 1.58.5z"/><path d="m226.52-5.62q0-1.74.72-3.06.74-1.32 1.92-2.02 1.2-.7 2.5-.7 2.52 0 3.72 1.64 1.22 1.64 1.22 4.2 0 1.74-.74 3.06-.72 1.32-1.92 2.02-1.18.7-2.48.7-2.52 0-3.74-1.64-1.2-1.64-1.2-4.2zm5.04 4.8q1.54 0 2.38-1.18t.84-3.44q0-2.16-.78-3.54t-2.42-1.38q-1.54 0-2.4 1.18-.84 1.18-.84 3.44 0 2.18.78 3.56.8 1.36 2.44 1.36z"/><path d="m242.19999-16.04 2.92-.34h.04l.38.28v6.08q.62-.58 1.48-.98.88-.4 1.94-.4 1.18 0 2.16.58 1 .58 1.6 1.8.62 1.22.62 3.06 0 1.72-.7 3.14-.7 1.4-2 2.22t-3 .82q-1.24 0-2.36-.26t-1.36-.5v-14.58l-1.72-.18zm6.1 5.86q-.84 0-1.58.4t-1.18.88v7.4q.14.32.78.52.66.18 1.46.18 1.72 0 2.76-1.26 1.04-1.28 1.04-3.74 0-2.2-.94-3.28-.92-1.1-2.34-1.1z"/><path d="m260.01999.22q-2.32 0-3.58-1.58-1.24-1.6-1.24-4.24 0-1.7.66-3.02t1.82-2.04q1.18-.74 2.64-.74 1.78 0 2.76 1.02 1 1.02 1.08 2.94 0 1.24-.12 1.76h-7.12q0 2.1.94 3.44.96 1.32 2.68 1.32.84 0 1.72-.3t1.36-.72l.32.74q-.58.6-1.7 1.02-1.1.4-2.22.4zm2.34-6.84q.06-.42.06-.88-.02-1.32-.64-2.1-.6-.78-1.86-.78-2.74 0-2.98 3.76z"/><path d="m265.94-.86 1.28-.16v-8.76l-1.54-.34v-.9l2.54-.32.44.32v.88l-.02.5q.74-.64 1.94-1.18t2.18-.54q1.08 0 1.72.36.66.36 1 1.12.62-.52 1.8-1 1.2-.48 2.2-.48 1.26 0 1.94.48.7.48.98 1.48t.28 2.7v5.68l1.52.16v.86h-4.48v-.86l1.36-.16v-5.62q0-1.26-.18-2t-.7-1.12-1.52-.38q-.74 0-1.56.34-.8.32-1.38.74.2.92.2 2.4v5.64l1.52.16v.86h-4.58v-.86l1.44-.16v-5.66q0-1.28-.16-2-.14-.72-.62-1.08t-1.42-.36q-.78 0-1.7.4-.9.38-1.58.92v7.78l1.42.16v.86h-4.32z"/></g><g transform="translate(57 136.19998)"><path d="m.68-5.48q0-1.62.62-2.96.64-1.36 1.88-2.16 1.26-.8 3.06-.8.78 0 1.52.2.74.18 1.28.4l-.08 2.86h-1l-.42-1.92q-.12-.6-1.72-.6-1.56 0-2.5 1.2-.92 1.2-.92 3.28 0 2.48 1 3.76t2.6 1.28q.84 0 1.62-.28.8-.28 1.32-.64l.32.66q-.58.58-1.6 1t-2.02.42q-1.58 0-2.7-.74-1.12-.76-1.7-2.04-.56-1.3-.56-2.92z"/><path d="m11.08-5.62q0-1.74.72-3.06.74-1.32 1.92-2.02 1.2-.7 2.5-.7 2.52 0 3.72 1.64 1.22 1.64 1.22 4.2 0 1.74-.74 3.06-.72 1.32-1.92 2.02-1.18.7-2.48.7-2.52 0-3.74-1.64-1.2-1.64-1.2-4.2zm5.04 4.8q1.54 0 2.38-1.18t.84-3.44q0-2.16-.78-3.54t-2.42-1.38q-1.54 0-2.4 1.18-.84 1.18-.84 3.44 0 2.18.78 3.56.8 1.36 2.44 1.36z"/><path d="m22.96-.86 1.28-.16v-8.76l-1.54-.34v-.9l2.54-.32.44.32v.88l-.02.5q.74-.64 1.94-1.18t2.18-.54q1.08 0 1.72.36.66.36 1 1.12.62-.52 1.8-1 1.2-.48 2.2-.48 1.26 0 1.94.48.7.48.98 1.48t.28 2.7v5.68l1.52.16v.86h-4.48v-.86l1.36-.16v-5.62q0-1.26-.18-2t-.7-1.12-1.52-.38q-.74 0-1.56.34-.8.32-1.38.74.2.92.2 2.4v5.64l1.52.16v.86h-4.58v-.86l1.44-.16v-5.66q0-1.28-.16-2-.14-.72-.62-1.08t-1.42-.36q-.78 0-1.7.4-.9.38-1.58.92v7.78l1.42.16v.86h-4.32z"/><path d="m51.819998.18q-.52 0-.76-.18t-.24-.66v-.78q-.74.66-1.74 1.16t-2 .5q-1.82 0-2.6-1.02-.76-1.02-.76-3.32v-5.88l-1.18-.34v-.74l2.42-.26h.02l.36.24v6.74q0 1.26.18 1.98.18.7.66 1.04t1.4.34q.88 0 1.68-.38t1.38-.9v-7.72l-1.52-.34v-.74l2.66-.26h.02l.46.24v10.22h1.24l-.02.76q-.1.02-.58.16t-1.08.14z"/><path d="m55.2-.86 1.28-.16v-8.76l-1.54-.34v-.9l2.54-.32.44.32v.88l-.02.5q.74-.64 1.94-1.18t2.18-.54q1.08 0 1.72.36.66.36 1 1.12.62-.52 1.8-1 1.2-.48 2.2-.48 1.26 0 1.94.48.7.48.98 1.48t.28 2.7v5.68l1.52.16v.86h-4.48v-.86l1.36-.16v-5.62q0-1.26-.18-2t-.7-1.12-1.52-.38q-.74 0-1.56.34-.8.32-1.38.74.2.92.2 2.4v5.64l1.52.16v.86h-4.58v-.86l1.44-.16v-5.66q0-1.28-.16-2-.14-.72-.62-1.08t-1.42-.36q-.78 0-1.7.4-.9.38-1.58.92v7.78l1.42.16v.86h-4.32z"/><path d="m76.38.22q-.46 0-.78-.3-.32-.32-.32-.82 0-.56.38-.94.4-.38.92-.38.54 0 .8.32.28.32.28.8 0 .56-.38.94t-.9.38z"/></g></g><path d="m193296 46099h159996v136656h-159996z" fill="none" transform="matrix(.0019685 0 0 -.0019685 0 405)"/><g fill="#ed4e38"><g transform="matrix(.7499985 0 0 -.7499985 423.253105 293.104163)"><path d="m2.78-13.78-1.6-.22v-.86h2.42q.44 0 .86-.02.44-.04.64-.04 1.04-.08 2-.08 2.82 0 3.98 1.06 1.18 1.04 1.18 3.14 0 1.58-.76 2.74t-2.06 1.78q-1.3.6-2.9.6-.64 0-1.32-.02-.66-.04-.8-.06v4.7l2.78.2v.86h-6.14v-.86l1.72-.18zm1.64 7.04q.5.08 2.16.08 1.72 0 2.82-.96 1.1-.98 1.1-3.18 0-1.74-.94-2.48-.94-.76-2.96-.76-.62 0-1.38.08-.6.04-.8.04z"/><path d="m18.58.22q-2.32 0-3.58-1.58-1.24-1.6-1.24-4.24 0-1.7.66-3.02t1.82-2.04q1.18-.74 2.64-.74 1.78 0 2.76 1.02 1 1.02 1.08 2.94 0 1.24-.12 1.76h-7.12q0 2.1.94 3.44.96 1.32 2.68 1.32.84 0 1.72-.3t1.36-.72l.32.74q-.58.6-1.7 1.02-1.1.4-2.22.4zm2.34-6.84q.06-.42.06-.88-.02-1.32-.64-2.1-.6-.78-1.86-.78-2.74 0-2.98 3.76z"/><path d="m26.160001-1.58q.22.34.92.6t1.5.26q2.44 0 2.44-1.8 0-.82-.68-1.32-.68-.52-2.32-1.14-1.62-.58-2.36-1.38t-.74-2.14q0-.86.52-1.5.54-.64 1.42-.98.9-.36 1.94-.36 1.02 0 1.7.18.7.18 1.38.44v2.38h-.98l-.36-1.46q-.14-.26-.72-.44-.56-.18-1.24-.18-.96 0-1.56.44-.6.42-.6 1.14 0 .64.3 1.06t.74.68q.44.24 1.22.56l.38.16q1.14.44 1.84.84.7.38 1.16 1.02.46.62.46 1.56 0 1.48-1.14 2.34-1.12.84-3 .84-.86 0-1.96-.28t-1.64-.56v-2.52h1.08z"/><path d="m36.080001-1.58q.22.34.92.6t1.5.26q2.44 0 2.44-1.8 0-.82-.68-1.32-.68-.52-2.32-1.14-1.62-.58-2.36-1.38t-.74-2.14q0-.86.52-1.5.54-.64 1.42-.98.9-.36 1.94-.36 1.02 0 1.7.18.7.18 1.38.44v2.38h-.98l-.36-1.46q-.14-.26-.72-.44-.56-.18-1.24-.18-.96 0-1.56.44-.6.42-.6 1.14 0 .64.3 1.06t.74.68q.44.24 1.22.56l.38.16q1.14.44 1.84.84.7.38 1.16 1.02.46.62.46 1.56 0 1.48-1.14 2.34-1.12.84-3 .84-.86 0-1.96-.28t-1.64-.56v-2.52h1.08z"/><path d="m44.359999-5.62q0-1.74.72-3.06.74-1.32 1.92-2.02 1.2-.7 2.5-.7 2.52 0 3.72 1.64 1.22 1.64 1.22 4.2 0 1.74-.74 3.06-.72 1.32-1.92 2.02-1.18.7-2.48.7-2.52 0-3.74-1.64-1.2-1.64-1.2-4.2zm5.04 4.8q1.54 0 2.38-1.18t.84-3.44q0-2.16-.78-3.54t-2.42-1.38q-1.54 0-2.4 1.18-.84 1.18-.84 3.44 0 2.18.78 3.56.8 1.36 2.44 1.36z"/><path d="m56.380001-2.92q0-1.94 1.92-2.8 1.92-.88 4.78-.94v-.62q0-1.02-.22-1.6-.2-.6-.72-.86-.52-.28-1.46-.28-1.02 0-1.86.32-.82.3-1.6.74l-.44-.88q.22-.2.92-.56t1.6-.64 1.74-.28q1.36 0 2.14.38.8.38 1.14 1.22.36.84.36 2.26v6.6h1.24v.74q-1.1.3-1.86.3-.48 0-.66-.16-.18-.14-.18-.68v-.74q-.72.64-1.58 1.14-.84.48-1.92.48-1.44 0-2.4-.8-.94-.8-.94-2.34zm3.94 1.96q.56 0 1.34-.36t1.42-.86v-3.54q-2.42.02-3.68.72-1.24.7-1.24 1.88 0 1.14.58 1.66.58.5 1.58.5z"/><path d="m82.799998-5.96q0 1.72-.7 3.14-.7 1.4-2 2.22-1.28.82-2.94.82-.56 0-1.18-.1-.62-.08-1.02-.22l.04 1.7v2.16l2.22.2v.88h-5.36v-.88l1.54-.2v-13.54l-1.56-.34v-.9l2.56-.32h.04l.36.32v1.22q.64-.66 1.56-1.12.92-.48 2.06-.48 1.16 0 2.16.58t1.6 1.8q.62 1.22.62 3.06zm-5.04-4.22q-.86 0-1.6.36t-1.16.8v7.62q.16.26.8.48.66.2 1.44.2 1.72 0 2.76-1.26 1.06-1.28 1.06-3.76 0-2.22-.94-3.32-.92-1.12-2.36-1.12z"/><path d="m84.700001-.84 1.6-.12v-8.82l-1.54-.34v-.9l2.54-.32h.04l.38.32v.32l-.04 1.52h.04q.04-.04.52-.6.5-.58 1.46-1.1.98-.52 1.96-.52.32 0 .6.08v1.76q-.08-.06-.36-.12-.26-.06-.56-.06-1.14 0-1.94.34t-1.48.84v7.58l2.66.16v.82h-5.88z"/><path d="m95.960001-13.2q-1.08 0-1.08-1.14 0-.58.34-.94.34-.38.92-.38.6 0 .86.34.26.32.26.8 0 .62-.34.98-.32.34-.94.34zm-.64 3.42-1.56-.34v-.9l2.74-.32h.04l.4.32v10.02l1.74.14v.86h-5.12v-.86l1.76-.16z"/><path d="m99.239997-11.1h4.240003v.82l-1.48.26 2.14 5.94.98 2.84.84-2.74 2.14-6.04-1.4-.26v-.82h3.82v.82l-1.02.26-3.94 10.18h-1.34l-4.04-10.18-.940003-.26z"/><path d="m111.54-2.92q0-1.94 1.92-2.8 1.92-.88 4.78-.94v-.62q0-1.02-.22-1.6-.2-.6-.72-.86-.52-.28-1.46-.28-1.02 0-1.86.32-.82.3-1.6.74l-.44-.88q.22-.2.92-.56t1.6-.64 1.74-.28q1.36 0 2.14.38.8.38 1.14 1.22.36.84.36 2.26v6.6h1.24v.74q-1.1.3-1.86.3-.48 0-.66-.16-.18-.14-.18-.68v-.74q-.72.64-1.58 1.14-.84.48-1.92.48-1.44 0-2.4-.8-.94-.8-.94-2.34zm3.94 1.96q.56 0 1.34-.36t1.42-.86v-3.54q-2.42.02-3.68.72-1.24.7-1.24 1.88 0 1.14.58 1.66.58.5 1.58.5z"/><path d="m126.96.22q-1.18 0-2.18-.6-1-.62-1.6-1.86t-.6-3.04q0-1.72.7-3.1.7-1.4 1.98-2.2 1.3-.82 3.02-.82 1.1 0 2.12.24v-3.96l-2.08-.2v-.72l3.28-.34h.04l.38.28v15.2h1.22v.78q-.1.02-.68.16t-1.24.14q-.46 0-.66-.16-.18-.16-.18-.7v-.7q-.62.68-1.52 1.14-.88.46-2 .46zm.66-1.26q.86 0 1.62-.4.78-.42 1.16-.92v-7.36q-.16-.28-.84-.48-.66-.2-1.42-.2-1.72 0-2.76 1.24-1.04 1.22-1.04 3.72 0 2.24.92 3.32t2.36 1.08z"/><path d="m135.04-2.92q0-1.94 1.92-2.8 1.92-.88 4.78-.94v-.62q0-1.02-.22-1.6-.2-.6-.72-.86-.52-.28-1.46-.28-1.02 0-1.86.32-.82.3-1.6.74l-.44-.88q.22-.2.92-.56t1.6-.64 1.74-.28q1.36 0 2.14.38.8.38 1.14 1.22.36.84.36 2.26v6.6h1.24v.74q-1.1.3-1.86.3-.48 0-.66-.16-.18-.14-.18-.68v-.74q-.72.64-1.58 1.14-.84.48-1.92.48-1.44 0-2.4-.8-.94-.8-.94-2.34zm3.94 1.96q.56 0 1.34-.36t1.42-.86v-3.54q-2.42.02-3.68.72-1.24.7-1.24 1.88 0 1.14.58 1.66.58.5 1.58.5z"/><path d="m148.54-8.1q-.46 0-.78-.3-.32-.32-.32-.82 0-.56.38-.94.4-.38.92-.38.54 0 .8.32.28.32.28.8 0 .56-.38.94t-.9.38zm.06 5.32q.64 0 1.02.6t.38 1.7-.32 2.08-.82 1.68-1 1h-.02l-.58-.4v-.18q.24-.18.52-.74.3-.54.5-1.26.22-.72.22-1.4 0-.3-.12-.48-.1-.18-.32-.42-.26-.26-.4-.5-.12-.24-.12-.66 0-.46.28-.74.3-.28.7-.28z"/></g><g transform="matrix(.7499985 0 0 -.7499985 423.253105 266.104216)"><path d="m3.14-13.78-1.94-.22v-.86h5.54v.86l-1.94.22v12.74l1.94.2v.84h-5.54v-.86l1.94-.18z"/><path d="m10.1-9.78-1.5399999-.34v-.9l2.5399999-.32h.06l.38.32v.88l-.02.5q.74-.64 1.96-1.18t2.26-.54q1.28 0 1.96.5.7.48.96 1.5.28 1 .28 2.7v5.66l1.5.14v.86h-4.46v-.86l1.34-.14v-5.68q0-1.26-.18-1.98-.16-.72-.66-1.08-.48-.38-1.42-.38-.8 0-1.74.4-.92.4-1.6.94v7.76l1.46.16v.86h-4.4199999v-.86l1.3399999-.16z"/><path d="m25.36.22q-1.06 0-1.6-.48-.54-.5-.54-1.76v-7.9h-1.52v-.78q1-.22 1.16-.32.3-.16.44-.62.12-.3.32-1.08t.3-1.22h.92v2.84h3.54v1.18h-3.54v6.48q0 1.16.08 1.64.08.46.32.6t.84.14q.58 0 1.3-.16t1.08-.34l.26.76q-.46.36-1.52.7-1.06.32-1.84.32z"/><path d="m34.880001.22q-2.32 0-3.58-1.58-1.24-1.6-1.24-4.24 0-1.7.66-3.02t1.82-2.04q1.18-.74 2.64-.74 1.78 0 2.76 1.02 1 1.02 1.08 2.94 0 1.24-.12 1.76h-7.12q0 2.1.94 3.44.96 1.32 2.68 1.32.84 0 1.72-.3t1.36-.72l.32.74q-.58.6-1.7 1.02-1.1.4-2.22.4zm2.34-6.84q.06-.42.06-.88-.02-1.32-.64-2.1-.6-.78-1.86-.78-2.74 0-2.98 3.76z"/><path d="m40.899998-.84 1.6-.12v-8.82l-1.54-.34v-.9l2.54-.32h.04l.38.32v.32l-.04 1.52h.04q.04-.04.52-.6.5-.58 1.46-1.1.98-.52 1.96-.52.32 0 .6.08v1.76q-.08-.06-.36-.12-.26-.06-.56-.06-1.14 0-1.94.34t-1.48.84v7.58l2.66.16v.82h-5.88z"/><path d="m54.679998.22q-2.32 0-3.58-1.58-1.24-1.6-1.24-4.24 0-1.7.66-3.02t1.82-2.04q1.18-.74 2.64-.74 1.78 0 2.76 1.02 1 1.02 1.08 2.94 0 1.24-.12 1.76h-7.12q0 2.1.94 3.44.96 1.32 2.68 1.32.84 0 1.72-.3t1.36-.72l.32.74q-.58.6-1.7 1.02-1.1.4-2.22.4zm2.34-6.84q.06-.42.06-.88-.02-1.32-.64-2.1-.6-.78-1.86-.78-2.74 0-2.98 3.76z"/><path d="m62.260001-1.58q.22.34.92.6t1.5.26q2.44 0 2.44-1.8 0-.82-.68-1.32-.68-.52-2.32-1.14-1.62-.58-2.36-1.38t-.74-2.14q0-.86.52-1.5.54-.64 1.42-.98.9-.36 1.94-.36 1.02 0 1.7.18.7.18 1.38.44v2.38h-.98l-.36-1.46q-.14-.26-.72-.44-.56-.18-1.24-.18-.96 0-1.56.44-.6.42-.6 1.14 0 .64.3 1.06t.74.68q.44.24 1.22.56l.38.16q1.14.44 1.84.84.7.38 1.16 1.02.46.62.46 1.56 0 1.48-1.14 2.34-1.12.84-3 .84-.86 0-1.96-.28t-1.64-.56v-2.52h1.08z"/><path d="m72.179999-1.58q.22.34.92.6t1.5.26q2.44 0 2.44-1.8 0-.82-.68-1.32-.68-.52-2.32-1.14-1.62-.58-2.36-1.38t-.74-2.14q0-.86.52-1.5.54-.64 1.42-.98.9-.36 1.94-.36 1.02 0 1.7.18.7.18 1.38.44v2.38h-.98l-.36-1.46q-.14-.26-.72-.44-.56-.18-1.24-.18-.96 0-1.56.44-.6.42-.6 1.14 0 .64.3 1.06t.74.68q.44.24 1.22.56l.38.16q1.14.44 1.84.84.7.38 1.16 1.02.46.62.46 1.56 0 1.48-1.14 2.34-1.12.84-3 .84-.86 0-1.96-.28t-1.64-.56v-2.52h1.08z"/><path d="m85.319998.22q-2.32 0-3.58-1.58-1.24-1.6-1.24-4.24 0-1.7.66-3.02t1.82-2.04q1.18-.74 2.64-.74 1.78 0 2.76 1.02 1 1.02 1.08 2.94 0 1.24-.12 1.76h-7.12q0 2.1.94 3.44.96 1.32 2.68 1.32.84 0 1.72-.3t1.36-.72l.32.74q-.58.6-1.7 1.02-1.1.4-2.22.4zm2.34-6.84q.06-.42.06-.88-.02-1.32-.64-2.1-.6-.78-1.86-.78-2.74 0-2.98 3.76z"/><path d="m92.900001-1.58q.22.34.92.6t1.5.26q2.44 0 2.44-1.8 0-.82-.68-1.32-.68-.52-2.32-1.14-1.62-.58-2.36-1.38t-.74-2.14q0-.86.52-1.5.54-.64 1.42-.98.9-.36 1.94-.36 1.02 0 1.7.18.7.18 1.38.44v2.38h-.98l-.36-1.46q-.14-.26-.72-.44-.56-.18-1.24-.18-.96 0-1.56.44-.6.42-.6 1.14 0 .64.3 1.06t.74.68q.44.24 1.22.56l.38.16q1.14.44 1.84.84.7.38 1.16 1.02.46.62.46 1.56 0 1.48-1.14 2.34-1.12.84-3 .84-.86 0-1.96-.28t-1.64-.56v-2.52h1.08z"/><path d="m116.58-5.96q0 1.72-.7 3.14-.7 1.4-2 2.22-1.28.82-2.94.82-.56 0-1.18-.1-.62-.08-1.02-.22l.04 1.7v2.16l2.22.2v.88h-5.36v-.88l1.54-.2v-13.54l-1.56-.34v-.9l2.56-.32h.04l.36.32v1.22q.64-.66 1.56-1.12.92-.48 2.06-.48 1.16 0 2.16.58t1.6 1.8q.62 1.22.62 3.06zm-5.04-4.22q-.86 0-1.6.36t-1.16.8v7.62q.16.26.8.48.66.2 1.44.2 1.72 0 2.76-1.26 1.06-1.28 1.06-3.76 0-2.22-.94-3.32-.92-1.12-2.36-1.12z"/><path d="m123.26.22q-2.32 0-3.58-1.58-1.24-1.6-1.24-4.24 0-1.7.66-3.02t1.82-2.04q1.18-.74 2.64-.74 1.78 0 2.76 1.02 1 1.02 1.08 2.94 0 1.24-.12 1.76h-7.12q0 2.1.94 3.44.96 1.32 2.68 1.32.84 0 1.72-.3t1.36-.72l.32.74q-.58.6-1.7 1.02-1.1.4-2.22.4zm2.34-6.84q.06-.42.06-.88-.02-1.32-.64-2.1-.6-.78-1.86-.78-2.74 0-2.98 3.76z"/><path d="m130.84-1.58q.22.34.92.6t1.5.26q2.44 0 2.44-1.8 0-.82-.68-1.32-.68-.52-2.32-1.14-1.62-.58-2.36-1.38t-.74-2.14q0-.86.52-1.5.54-.64 1.42-.98.9-.36 1.94-.36 1.02 0 1.7.18.7.18 1.38.44v2.38h-.98l-.36-1.46q-.14-.26-.72-.44-.56-.18-1.24-.18-.96 0-1.56.44-.6.42-.6 1.14 0 .64.3 1.06t.74.68q.44.24 1.22.56l.38.16q1.14.44 1.84.84.7.38 1.16 1.02.46.62.46 1.56 0 1.48-1.14 2.34-1.12.84-3 .84-.86 0-1.96-.28t-1.64-.56v-2.52h1.08z"/><path d="m140.76-1.58q.22.34.92.6t1.5.26q2.44 0 2.44-1.8 0-.82-.68-1.32-.68-.52-2.32-1.14-1.62-.58-2.36-1.38t-.74-2.14q0-.86.52-1.5.54-.64 1.42-.98.9-.36 1.94-.36 1.02 0 1.7.18.7.18 1.38.44v2.38h-.98l-.36-1.46q-.14-.26-.72-.44-.56-.18-1.24-.18-.96 0-1.56.44-.6.42-.6 1.14 0 .64.3 1.06t.74.68q.44.24 1.22.56l.38.16q1.14.44 1.84.84.7.38 1.16 1.02.46.62.46 1.56 0 1.48-1.14 2.34-1.12.84-3 .84-.86 0-1.96-.28t-1.64-.56v-2.52h1.08z"/><path d="m149.04-5.62q0-1.74.72-3.06.74-1.32 1.92-2.02 1.2-.7 2.5-.7 2.52 0 3.72 1.64 1.22 1.64 1.22 4.2 0 1.74-.74 3.06-.72 1.32-1.92 2.02-1.18.7-2.48.7-2.52 0-3.74-1.64-1.2-1.64-1.2-4.2zm5.04 4.8q1.54 0 2.38-1.18t.84-3.44q0-2.16-.78-3.54t-2.42-1.38q-1.54 0-2.4 1.18-.84 1.18-.84 3.44 0 2.18.78 3.56.8 1.36 2.44 1.36z"/><path d="m161.05999-2.92q0-1.94 1.92-2.8 1.92-.88 4.78-.94v-.62q0-1.02-.22-1.6-.2-.6-.72-.86-.52-.28-1.46-.28-1.02 0-1.86.32-.82.3-1.6.74l-.44-.88q.22-.2.92-.56t1.6-.64 1.74-.28q1.36 0 2.14.38.8.38 1.14 1.22.36.84.36 2.26v6.6h1.24v.74q-1.1.3-1.86.3-.48 0-.66-.16-.18-.14-.18-.68v-.74q-.72.64-1.58 1.14-.84.48-1.92.48-1.44 0-2.4-.8-.94-.8-.94-2.34zm3.94 1.96q.56 0 1.34-.36t1.42-.86v-3.54q-2.42.02-3.68.72-1.24.7-1.24 1.88 0 1.14.58 1.66.58.5 1.58.5z"/><path d="m174.41999-13.2q-1.08 0-1.08-1.14 0-.58.34-.94.34-.38.92-.38.6 0 .86.34.26.32.26.8 0 .62-.34.98-.32.34-.94.34zm-.64 3.42-1.56-.34v-.9l2.74-.32h.04l.4.32v10.02l1.74.14v.86h-5.12v-.86l1.76-.16z"/><path d="m180.2-1.58q.22.34.92.6t1.5.26q2.44 0 2.44-1.8 0-.82-.68-1.32-.68-.52-2.32-1.14-1.62-.58-2.36-1.38t-.74-2.14q0-.86.52-1.5.54-.64 1.42-.98.9-.36 1.94-.36 1.02 0 1.7.18.7.18 1.38.44v2.38h-.98l-.36-1.46q-.14-.26-.72-.44-.56-.18-1.24-.18-.96 0-1.56.44-.6.42-.6 1.14 0 .64.3 1.06t.74.68q.44.24 1.22.56l.38.16q1.14.44 1.84.84.7.38 1.16 1.02.46.62.46 1.56 0 1.48-1.14 2.34-1.12.84-3 .84-.86 0-1.96-.28t-1.64-.56v-2.52h1.08z"/><path d="m190.96-8.1q-.46 0-.78-.3-.32-.32-.32-.82 0-.56.38-.94.4-.38.92-.38.54 0 .8.32.28.32.28.8 0 .56-.38.94t-.9.38zm.06 5.32q.64 0 1.02.6t.38 1.7-.32 2.08-.82 1.68-1 1h-.02l-.58-.4v-.18q.24-.18.52-.74.3-.54.5-1.26.22-.72.22-1.4 0-.3-.12-.48-.1-.18-.32-.42-.26-.26-.4-.5-.12-.24-.12-.66 0-.46.28-.74.3-.28.7-.28z"/></g><g transform="matrix(.7499985 0 0 -.7499985 423.253105 239.104278)"><path d="m-.3-14.86h4.86v.86l-1.84.22 3.48 9.64.84 2.72.76-2.76 3.12-9.6-1.6-.22v-.86h4.22v.86l-1.28.22-4.82 13.94h-1.32l-5.18-13.94-1.24-.22z"/><path d="m14.1-5.62q0-1.74.72-3.06.74-1.32 1.92-2.02 1.2-.7 2.5-.7 2.52 0 3.72 1.64 1.22 1.64 1.22 4.2 0 1.74-.74 3.06-.72 1.32-1.92 2.02-1.18.7-2.48.7-2.52 0-3.74-1.64-1.2-1.64-1.2-4.2zm5.04 4.8q1.54 0 2.38-1.18t.84-3.44q0-2.16-.78-3.54t-2.42-1.38q-1.54 0-2.4 1.18-.84 1.18-.84 3.44 0 2.18.78 3.56.8 1.36 2.44 1.36z"/><path d="m27.26-9.78-1.54-.34v-.9l2.54-.32h.06l.38.32v.88l-.02.5q.74-.64 1.96-1.18t2.26-.54q1.28 0 1.96.5.7.48.96 1.5.28 1 .28 2.7v5.66l1.5.14v.86h-4.46v-.86l1.34-.14v-5.68q0-1.26-.18-1.98-.16-.72-.66-1.08-.48-.38-1.42-.38-.8 0-1.74.4-.92.4-1.6.94v7.76l1.46.16v.86h-4.42v-.86l1.34-.16z"/><path d="m42.52.22q-1.06 0-1.6-.48-.54-.5-.54-1.76v-7.9h-1.52v-.78q1-.22 1.16-.32.3-.16.44-.62.12-.3.32-1.08t.3-1.22h.92v2.84h3.54v1.18h-3.54v6.48q0 1.16.08 1.64.08.46.32.6t.84.14q.58 0 1.3-.16t1.08-.34l.26.76q-.46.36-1.52.7-1.06.32-1.84.32z"/><path d="m47.299999-2.92q0-1.94 1.92-2.8 1.92-.88 4.78-.94v-.62q0-1.02-.22-1.6-.2-.6-.72-.86-.52-.28-1.46-.28-1.02 0-1.86.32-.82.3-1.6.74l-.44-.88q.22-.2.92-.56t1.6-.64 1.74-.28q1.36 0 2.14.38.8.38 1.14 1.22.36.84.36 2.26v6.6h1.24v.74q-1.1.3-1.86.3-.48 0-.66-.16-.18-.14-.18-.68v-.74q-.72.64-1.58 1.14-.84.48-1.92.48-1.44 0-2.4-.8-.94-.8-.94-2.34zm3.94 1.96q.56 0 1.34-.36t1.42-.86v-3.54q-2.42.02-3.68.72-1.24.7-1.24 1.88 0 1.14.58 1.66.58.5 1.58.5z"/><path d="m62.719998.22q-1.18 0-2.18-.6-1-.62-1.6-1.86t-.6-3.04q0-1.72.7-3.1.7-1.4 1.98-2.2 1.3-.82 3.02-.82 1.1 0 2.12.24v-3.96l-2.08-.2v-.72l3.28-.34h.04l.38.28v15.2h1.22v.78q-.1.02-.68.16t-1.24.14q-.46 0-.66-.16-.18-.16-.18-.7v-.7q-.62.68-1.52 1.14-.88.46-2 .46zm.66-1.26q.86 0 1.62-.4.78-.42 1.16-.92v-7.36q-.16-.28-.84-.48-.66-.2-1.42-.2-1.72 0-2.76 1.24-1.04 1.22-1.04 3.72 0 2.24.92 3.32t2.36 1.08z"/><path d="m75.539999.22q-2.32 0-3.58-1.58-1.24-1.6-1.24-4.24 0-1.7.66-3.02t1.82-2.04q1.18-.74 2.64-.74 1.78 0 2.76 1.02 1 1.02 1.08 2.94 0 1.24-.12 1.76h-7.12q0 2.1.94 3.44.96 1.32 2.68 1.32.84 0 1.72-.3t1.36-.72l.32.74q-.58.6-1.7 1.02-1.1.4-2.22.4zm2.34-6.84q.06-.42.06-.88-.02-1.32-.64-2.1-.6-.78-1.86-.78-2.74 0-2.98 3.76z"/><path d="m83.120002-1.58q.22.34.92.6t1.5.26q2.44 0 2.44-1.8 0-.82-.68-1.32-.68-.52-2.32-1.14-1.62-.58-2.36-1.38t-.74-2.14q0-.86.52-1.5.54-.64 1.42-.98.9-.36 1.94-.36 1.02 0 1.7.18.7.18 1.38.44v2.38h-.98l-.36-1.46q-.14-.26-.72-.44-.56-.18-1.24-.18-.96 0-1.56.44-.6.42-.6 1.14 0 .64.3 1.06t.74.68q.44.24 1.22.56l.38.16q1.14.44 1.84.84.7.38 1.16 1.02.46.62.46 1.56 0 1.48-1.14 2.34-1.12.84-3 .84-.86 0-1.96-.28t-1.64-.56v-2.52h1.08z"/><path d="m106.8-5.96q0 1.72-.7 3.14-.7 1.4-2 2.22-1.28.82-2.94.82-.56 0-1.180002-.1-.62-.08-1.02-.22l.04 1.7v2.16l2.220002.2v.88h-5.360002v-.88l1.54-.2v-13.54l-1.56-.34v-.9l2.56-.32h.04l.36.32v1.22q.64-.66 1.560002-1.12.92-.48 2.06-.48 1.16 0 2.16.58t1.6 1.8q.62 1.22.62 3.06zm-5.04-4.22q-.86 0-1.6.36-.740002.36-1.160002.8v7.62q.16.26.8.48.660002.2 1.440002.2 1.72 0 2.76-1.26 1.06-1.28 1.06-3.76 0-2.22-.94-3.32-.92-1.12-2.36-1.12z"/><path d="m108.74-2.92q0-1.94 1.92-2.8 1.92-.88 4.78-.94v-.62q0-1.02-.22-1.6-.2-.6-.72-.86-.52-.28-1.46-.28-1.02 0-1.86.32-.82.3-1.6.74l-.44-.88q.22-.2.92-.56t1.6-.64 1.74-.28q1.36 0 2.14.38.8.38 1.14 1.22.36.84.36 2.26v6.6h1.24v.74q-1.1.3-1.86.3-.48 0-.66-.16-.18-.14-.18-.68v-.74q-.72.64-1.58 1.14-.84.48-1.92.48-1.44 0-2.4-.8-.94-.8-.94-2.34zm3.94 1.96q.56 0 1.34-.36t1.42-.86v-3.54q-2.42.02-3.68.72-1.24.7-1.24 1.88 0 1.14.58 1.66.58.5 1.58.5z"/><path d="m119.84-.84 1.6-.12v-8.82l-1.54-.34v-.9l2.54-.32h.04l.38.32v.32l-.04 1.52h.04q.04-.04.52-.6.5-.58 1.46-1.1.98-.52 1.96-.52.32 0 .6.08v1.76q-.08-.06-.36-.12-.26-.06-.56-.06-1.14 0-1.94.34t-1.48.84v7.58l2.66.16v.82h-5.88z"/><path d="m132.22.22q-1.06 0-1.6-.48-.54-.5-.54-1.76v-7.9h-1.52v-.78q1-.22 1.16-.32.3-.16.44-.62.12-.3.32-1.08t.3-1.22h.92v2.84h3.54v1.18h-3.54v6.48q0 1.16.08 1.64.08.46.32.6t.84.14q.58 0 1.3-.16t1.08-.34l.26.76q-.46.36-1.52.7-1.06.32-1.84.32z"/><path d="m139.22-13.2q-1.08 0-1.08-1.14 0-.58.34-.94.34-.38.92-.38.6 0 .86.34.26.32.26.8 0 .62-.34.98-.32.34-.94.34zm-.64 3.42-1.56-.34v-.9l2.74-.32h.04l.4.32v10.02l1.74.14v.86h-5.12v-.86l1.76-.16z"/><path d="m143.14001-5.48q0-1.62.62-2.96.64-1.36 1.88-2.16 1.26-.8 3.06-.8.78 0 1.52.2.74.18 1.28.4l-.08 2.86h-1l-.42-1.92q-.12-.6-1.72-.6-1.56 0-2.5 1.2-.92 1.2-.92 3.28 0 2.48 1 3.76t2.6 1.28q.84 0 1.62-.28.8-.28 1.32-.64l.32.66q-.58.58-1.6 1t-2.02.42q-1.58 0-2.7-.74-1.12-.76-1.7-2.04-.56-1.3-.56-2.92z"/><path d="m162.7.18q-.52 0-.76-.18t-.24-.66v-.78q-.74.66-1.74 1.16t-2 .5q-1.82 0-2.6-1.02-.76-1.02-.76-3.32v-5.88l-1.18-.34v-.74l2.42-.26h.02l.36.24v6.74q0 1.26.18 1.98.18.7.66 1.04t1.4.34q.88 0 1.68-.38t1.38-.9v-7.72l-1.52-.34v-.74l2.66-.26h.02l.46.24v10.22h1.24l-.02.76q-.1.02-.58.16t-1.08.14z"/><path d="m167.74-15.12-1.7-.18v-.74l2.92-.34h.02l.38.26v15.12l1.88.14v.86h-5.26v-.86l1.76-.16z"/><path d="m172.8-2.92q0-1.94 1.92-2.8 1.92-.88 4.78-.94v-.62q0-1.02-.22-1.6-.2-.6-.72-.86-.52-.28-1.46-.28-1.02 0-1.86.32-.82.3-1.6.74l-.44-.88q.22-.2.92-.56t1.6-.64 1.74-.28q1.36 0 2.14.38.8.38 1.14 1.22.36.84.36 2.26v6.6h1.24v.74q-1.1.3-1.86.3-.48 0-.66-.16-.18-.14-.18-.68v-.74q-.72.64-1.58 1.14-.84.48-1.92.48-1.44 0-2.4-.8-.94-.8-.94-2.34zm3.94 1.96q.56 0 1.34-.36t1.42-.86v-3.54q-2.42.02-3.68.72-1.24.7-1.24 1.88 0 1.14.58 1.66.58.5 1.58.5z"/><path d="m183.9-.84 1.6-.12v-8.82l-1.54-.34v-.9l2.54-.32h.04l.38.32v.32l-.04 1.52h.04q.04-.04.52-.6.5-.58 1.46-1.1.98-.52 1.96-.52.32 0 .6.08v1.76q-.08-.06-.36-.12-.26-.06-.56-.06-1.14 0-1.94.34t-1.48.84v7.58l2.66.16v.82h-5.88z"/><path d="m197.68.22q-2.32 0-3.58-1.58-1.24-1.6-1.24-4.24 0-1.7.66-3.02t1.82-2.04q1.18-.74 2.64-.74 1.78 0 2.76 1.02 1 1.02 1.08 2.94 0 1.24-.12 1.76h-7.12q0 2.1.94 3.44.96 1.32 2.68 1.32.84 0 1.72-.3t1.36-.72l.32.74q-.58.6-1.7 1.02-1.1.4-2.22.4zm2.34-6.84q.06-.42.06-.88-.02-1.32-.64-2.1-.6-.78-1.86-.78-2.74 0-2.98 3.76z"/><path d="m205.26-1.58q.22.34.92.6t1.5.26q2.44 0 2.44-1.8 0-.82-.68-1.32-.68-.52-2.32-1.14-1.62-.58-2.36-1.38t-.74-2.14q0-.86.52-1.5.54-.64 1.42-.98.9-.36 1.94-.36 1.02 0 1.7.18.7.18 1.38.44v2.38h-.98l-.36-1.46q-.14-.26-.72-.44-.56-.18-1.24-.18-.96 0-1.56.44-.6.42-.6 1.14 0 .64.3 1.06t.74.68q.44.24 1.22.56l.38.16q1.14.44 1.84.84.7.38 1.16 1.02.46.62.46 1.56 0 1.48-1.14 2.34-1.12.84-3 .84-.86 0-1.96-.28t-1.64-.56v-2.52h1.08z"/><path d="m215.02.22q-.46 0-.78-.3-.32-.32-.32-.82 0-.56.38-.94.4-.38.92-.38.54 0 .8.32.28.32.28.8 0 .56-.38.94t-.9.38z"/></g><g stroke-width=".329913"><g transform="matrix(.00596675 0 0 -.00596675 -112.21666 818.61515)"><path d="m28479.452 95369.918c156.184 135.02 255.159 324.34 276.751 529.66 21.588 205.33-35.829 411.27-160.509 575.82000000001-130.887 164.7-320.449 272.17-528.979 299.89999999999-208.528 27.72-400.323-9.74000000001-569.699-134.5-13.223-8.92999999999-34.668-.84-47.244 6.13-7.486 4.14-33.234 38.95-57.912 69.41-20.854-12.95-43.386-29.5-52.363-27.75 0 0-5.042 11.71000000001-6.616 17.87-17.812 69.62-87.083 159.57000000001-133.629 214.05-25.213 29.52-185.21 190.42999999999-324.672 359.08-77.591 93.83-171.821 240.28-177.998 247.60000000001-24.087 28.55-4.611 52.45-4.611 52.45s28.933 26.48 44.41 38.48c15.571 12.06 48.57 33.64 48.57 33.64s27.77 12.84 49.461-17.58c5.562-7.8 124.11-135.34 195.763-233.78 128.79-176.92 245.014-371.71000000001 267.353-403.46000000001 41.239-58.59 111.253-148.11 174.284-182.63 5.569-3.05 15.778-10.92999999999 15.778-10.92999999999-.438-7.66-18.892-21.81-33.453-36.63 26.911-27.41 57.793-67.31 76.172-49.91 175.657 136.60000000001 398.483 197.73 619.287 170.11 220.801-27.61 421.492-141.7 558.098-317.36 136.606-175.64999999999 216.43-401.50999999999 170.241-619.19-52.271-246.34-155.537-481.73-398.482-580.48z"/><path d="m20635.038 105655.32c-7.394 8.98-14.061 18.32000000001-20.433 27.69l-511.605 621.53c-9.436 11.46000000001-7.814 28.23 3.655 37.67l221.653 182.45c11.457 9.42999999999 28.236 7.81 37.673-3.66l301.705-366.52c98.518 67.94 865.519 750.13 1267.84 1073.95 87.57 70.49000000001 275.157 194.98 275.157 194.98 23.375 19.24000000001 57.619 16.14 76.86-7.24000000001l21.066-25.59c19.241-23.38 14.913-56.67-7.474-77.06 0 0-168.715-165.22-261.396-238.00999999999-393.682-309.19-1202.077-943.53999999999-1280.634-1032.09l118.479-143.92999999999c30.204-30.88 58.316-69.88 71.92-102.7l173.392-419.75999999999c20.021-48.46000000001.973-64.13-42.733-35.17999999999l-378.608 250.84c-21.858 14.48-45.733 37.38-66.518 62.63z" stroke-width=".329913" transform="matrix(.99655476 .08293739 -.08293739 .99655476 15987.73819 -11424.500531)"/></g><g transform="matrix(.00596675 0 0 -.00596675 -112.21666 845.61508)"><path d="m28479.452 95369.918c156.184 135.02 255.159 324.34 276.751 529.66 21.588 205.33-35.829 411.27-160.509 575.82000000001-130.887 164.7-320.449 272.17-528.979 299.89999999999-208.528 27.72-400.323-9.74000000001-569.699-134.5-13.223-8.92999999999-34.668-.84-47.244 6.13-7.486 4.14-33.234 38.95-57.912 69.41-20.854-12.95-43.386-29.5-52.363-27.75 0 0-5.042 11.71000000001-6.616 17.87-17.812 69.62-87.083 159.57000000001-133.629 214.05-25.213 29.52-185.21 190.42999999999-324.672 359.08-77.591 93.83-171.821 240.28-177.998 247.60000000001-24.087 28.55-4.611 52.45-4.611 52.45s28.933 26.48 44.41 38.48c15.571 12.06 48.57 33.64 48.57 33.64s27.77 12.84 49.461-17.58c5.562-7.8 124.11-135.34 195.763-233.78 128.79-176.92 245.014-371.71000000001 267.353-403.46000000001 41.239-58.59 111.253-148.11 174.284-182.63 5.569-3.05 15.778-10.92999999999 15.778-10.92999999999-.438-7.66-18.892-21.81-33.453-36.63 26.911-27.41 57.793-67.31 76.172-49.91 175.657 136.60000000001 398.483 197.73 619.287 170.11 220.801-27.61 421.492-141.7 558.098-317.36 136.606-175.64999999999 216.43-401.50999999999 170.241-619.19-52.271-246.34-155.537-481.73-398.482-580.48z"/><path d="m20635.038 105655.32c-7.394 8.98-14.061 18.32000000001-20.433 27.69l-511.605 621.53c-9.436 11.46000000001-7.814 28.23 3.655 37.67l221.653 182.45c11.457 9.42999999999 28.236 7.81 37.673-3.66l301.705-366.52c98.518 67.94 865.519 750.13 1267.84 1073.95 87.57 70.49000000001 275.157 194.98 275.157 194.98 23.375 19.24000000001 57.619 16.14 76.86-7.24000000001l21.066-25.59c19.241-23.38 14.913-56.67-7.474-77.06 0 0-168.715-165.22-261.396-238.00999999999-393.682-309.19-1202.077-943.53999999999-1280.634-1032.09l118.479-143.92999999999c30.204-30.88 58.316-69.88 71.92-102.7l173.392-419.75999999999c20.021-48.46000000001.973-64.13-42.733-35.17999999999l-378.608 250.84c-21.858 14.48-45.733 37.38-66.518 62.63z" stroke-width=".329913" transform="matrix(.99655476 .08293739 -.08293739 .99655476 15987.73819 -11424.500531)"/></g><g transform="matrix(.00596675 0 0 -.00596675 -112.21666 872.61503)"><path d="m28479.452 95369.918c156.184 135.02 255.159 324.34 276.751 529.66 21.588 205.33-35.829 411.27-160.509 575.82000000001-130.887 164.7-320.449 272.17-528.979 299.89999999999-208.528 27.72-400.323-9.74000000001-569.699-134.5-13.223-8.92999999999-34.668-.84-47.244 6.13-7.486 4.14-33.234 38.95-57.912 69.41-20.854-12.95-43.386-29.5-52.363-27.75 0 0-5.042 11.71000000001-6.616 17.87-17.812 69.62-87.083 159.57000000001-133.629 214.05-25.213 29.52-185.21 190.42999999999-324.672 359.08-77.591 93.83-171.821 240.28-177.998 247.60000000001-24.087 28.55-4.611 52.45-4.611 52.45s28.933 26.48 44.41 38.48c15.571 12.06 48.57 33.64 48.57 33.64s27.77 12.84 49.461-17.58c5.562-7.8 124.11-135.34 195.763-233.78 128.79-176.92 245.014-371.71000000001 267.353-403.46000000001 41.239-58.59 111.253-148.11 174.284-182.63 5.569-3.05 15.778-10.92999999999 15.778-10.92999999999-.438-7.66-18.892-21.81-33.453-36.63 26.911-27.41 57.793-67.31 76.172-49.91 175.657 136.60000000001 398.483 197.73 619.287 170.11 220.801-27.61 421.492-141.7 558.098-317.36 136.606-175.64999999999 216.43-401.50999999999 170.241-619.19-52.271-246.34-155.537-481.73-398.482-580.48z"/><path d="m20635.038 105655.32c-7.394 8.98-14.061 18.32000000001-20.433 27.69l-511.605 621.53c-9.436 11.46000000001-7.814 28.23 3.655 37.67l221.653 182.45c11.457 9.42999999999 28.236 7.81 37.673-3.66l301.705-366.52c98.518 67.94 865.519 750.13 1267.84 1073.95 87.57 70.49000000001 275.157 194.98 275.157 194.98 23.375 19.24000000001 57.619 16.14 76.86-7.24000000001l21.066-25.59c19.241-23.38 14.913-56.67-7.474-77.06 0 0-168.715-165.22-261.396-238.00999999999-393.682-309.19-1202.077-943.53999999999-1280.634-1032.09l118.479-143.92999999999c30.204-30.88 58.316-69.88 71.92-102.7l173.392-419.75999999999c20.021-48.46000000001.973-64.13-42.733-35.17999999999l-378.608 250.84c-21.858 14.48-45.733 37.38-66.518 62.63z" stroke-width=".329913" transform="matrix(.99655476 .08293739 -.08293739 .99655476 15987.73819 -11424.500531)"/></g><g transform="matrix(.00596675 0 0 -.00596675 235.63109 872.61503)"><path d="m28479.452 95369.918c156.184 135.02 255.159 324.34 276.751 529.66 21.588 205.33-35.829 411.27-160.509 575.82000000001-130.887 164.7-320.449 272.17-528.979 299.89999999999-208.528 27.72-400.323-9.74000000001-569.699-134.5-13.223-8.92999999999-34.668-.84-47.244 6.13-7.486 4.14-33.234 38.95-57.912 69.41-20.854-12.95-43.386-29.5-52.363-27.75 0 0-5.042 11.71000000001-6.616 17.87-17.812 69.62-87.083 159.57000000001-133.629 214.05-25.213 29.52-185.21 190.42999999999-324.672 359.08-77.591 93.83-171.821 240.28-177.998 247.60000000001-24.087 28.55-4.611 52.45-4.611 52.45s28.933 26.48 44.41 38.48c15.571 12.06 48.57 33.64 48.57 33.64s27.77 12.84 49.461-17.58c5.562-7.8 124.11-135.34 195.763-233.78 128.79-176.92 245.014-371.71000000001 267.353-403.46000000001 41.239-58.59 111.253-148.11 174.284-182.63 5.569-3.05 15.778-10.92999999999 15.778-10.92999999999-.438-7.66-18.892-21.81-33.453-36.63 26.911-27.41 57.793-67.31 76.172-49.91 175.657 136.60000000001 398.483 197.73 619.287 170.11 220.801-27.61 421.492-141.7 558.098-317.36 136.606-175.64999999999 216.43-401.50999999999 170.241-619.19-52.271-246.34-155.537-481.73-398.482-580.48z"/><path d="m20635.038 105655.32c-7.394 8.98-14.061 18.32000000001-20.433 27.69l-511.605 621.53c-9.436 11.46000000001-7.814 28.23 3.655 37.67l221.653 182.45c11.457 9.42999999999 28.236 7.81 37.673-3.66l301.705-366.52c98.518 67.94 865.519 750.13 1267.84 1073.95 87.57 70.49000000001 275.157 194.98 275.157 194.98 23.375 19.24000000001 57.619 16.14 76.86-7.24000000001l21.066-25.59c19.241-23.38 14.913-56.67-7.474-77.06 0 0-168.715-165.22-261.396-238.00999999999-393.682-309.19-1202.077-943.53999999999-1280.634-1032.09l118.479-143.92999999999c30.204-30.88 58.316-69.88 71.92-102.7l173.392-419.75999999999c20.021-48.46000000001.973-64.13-42.733-35.17999999999l-378.608 250.84c-21.858 14.48-45.733 37.38-66.518 62.63z" stroke-width=".329913" transform="matrix(.99655476 .08293739 -.08293739 .99655476 15987.73819 -11424.500531)"/></g><g transform="matrix(.00596675 0 0 -.00596675 235.63109 845.61508)"><path d="m28479.452 95369.918c156.184 135.02 255.159 324.34 276.751 529.66 21.588 205.33-35.829 411.27-160.509 575.82000000001-130.887 164.7-320.449 272.17-528.979 299.89999999999-208.528 27.72-400.323-9.74000000001-569.699-134.5-13.223-8.92999999999-34.668-.84-47.244 6.13-7.486 4.14-33.234 38.95-57.912 69.41-20.854-12.95-43.386-29.5-52.363-27.75 0 0-5.042 11.71000000001-6.616 17.87-17.812 69.62-87.083 159.57000000001-133.629 214.05-25.213 29.52-185.21 190.42999999999-324.672 359.08-77.591 93.83-171.821 240.28-177.998 247.60000000001-24.087 28.55-4.611 52.45-4.611 52.45s28.933 26.48 44.41 38.48c15.571 12.06 48.57 33.64 48.57 33.64s27.77 12.84 49.461-17.58c5.562-7.8 124.11-135.34 195.763-233.78 128.79-176.92 245.014-371.71000000001 267.353-403.46000000001 41.239-58.59 111.253-148.11 174.284-182.63 5.569-3.05 15.778-10.92999999999 15.778-10.92999999999-.438-7.66-18.892-21.81-33.453-36.63 26.911-27.41 57.793-67.31 76.172-49.91 175.657 136.60000000001 398.483 197.73 619.287 170.11 220.801-27.61 421.492-141.7 558.098-317.36 136.606-175.64999999999 216.43-401.50999999999 170.241-619.19-52.271-246.34-155.537-481.73-398.482-580.48z"/><path d="m20635.038 105655.32c-7.394 8.98-14.061 18.32000000001-20.433 27.69l-511.605 621.53c-9.436 11.46000000001-7.814 28.23 3.655 37.67l221.653 182.45c11.457 9.42999999999 28.236 7.81 37.673-3.66l301.705-366.52c98.518 67.94 865.519 750.13 1267.84 1073.95 87.57 70.49000000001 275.157 194.98 275.157 194.98 23.375 19.24000000001 57.619 16.14 76.86-7.24000000001l21.066-25.59c19.241-23.38 14.913-56.67-7.474-77.06 0 0-168.715-165.22-261.396-238.00999999999-393.682-309.19-1202.077-943.53999999999-1280.634-1032.09l118.479-143.92999999999c30.204-30.88 58.316-69.88 71.92-102.7l173.392-419.75999999999c20.021-48.46000000001.973-64.13-42.733-35.17999999999l-378.608 250.84c-21.858 14.48-45.733 37.38-66.518 62.63z" stroke-width=".329913" transform="matrix(.99655476 .08293739 -.08293739 .99655476 15987.73819 -11424.500531)"/></g><g transform="matrix(.00596675 0 0 -.00596675 235.63109 818.61515)"><path d="m28479.452 95369.918c156.184 135.02 255.159 324.34 276.751 529.66 21.588 205.33-35.829 411.27-160.509 575.82000000001-130.887 164.7-320.449 272.17-528.979 299.89999999999-208.528 27.72-400.323-9.74000000001-569.699-134.5-13.223-8.92999999999-34.668-.84-47.244 6.13-7.486 4.14-33.234 38.95-57.912 69.41-20.854-12.95-43.386-29.5-52.363-27.75 0 0-5.042 11.71000000001-6.616 17.87-17.812 69.62-87.083 159.57000000001-133.629 214.05-25.213 29.52-185.21 190.42999999999-324.672 359.08-77.591 93.83-171.821 240.28-177.998 247.60000000001-24.087 28.55-4.611 52.45-4.611 52.45s28.933 26.48 44.41 38.48c15.571 12.06 48.57 33.64 48.57 33.64s27.77 12.84 49.461-17.58c5.562-7.8 124.11-135.34 195.763-233.78 128.79-176.92 245.014-371.71000000001 267.353-403.46000000001 41.239-58.59 111.253-148.11 174.284-182.63 5.569-3.05 15.778-10.92999999999 15.778-10.92999999999-.438-7.66-18.892-21.81-33.453-36.63 26.911-27.41 57.793-67.31 76.172-49.91 175.657 136.60000000001 398.483 197.73 619.287 170.11 220.801-27.61 421.492-141.7 558.098-317.36 136.606-175.64999999999 216.43-401.50999999999 170.241-619.19-52.271-246.34-155.537-481.73-398.482-580.48z"/><path d="m20635.038 105655.32c-7.394 8.98-14.061 18.32000000001-20.433 27.69l-511.605 621.53c-9.436 11.46000000001-7.814 28.23 3.655 37.67l221.653 182.45c11.457 9.42999999999 28.236 7.81 37.673-3.66l301.705-366.52c98.518 67.94 865.519 750.13 1267.84 1073.95 87.57 70.49000000001 275.157 194.98 275.157 194.98 23.375 19.24000000001 57.619 16.14 76.86-7.24000000001l21.066-25.59c19.241-23.38 14.913-56.67-7.474-77.06 0 0-168.715-165.22-261.396-238.00999999999-393.682-309.19-1202.077-943.53999999999-1280.634-1032.09l118.479-143.92999999999c30.204-30.88 58.316-69.88 71.92-102.7l173.392-419.75999999999c20.021-48.46000000001.973-64.13-42.733-35.17999999999l-378.608 250.84c-21.858 14.48-45.733 37.38-66.518 62.63z" stroke-width=".329913" transform="matrix(.99655476 .08293739 -.08293739 .99655476 15987.73819 -11424.500531)"/></g></g></g></g></svg>