<?xml version="1.0" encoding="UTF-8"?>

<svg width="960" height="540" version="1.1" viewBox="0 0 960 540" xml:space="preserve" xmlns="http://www.w3.org/2000/svg"><defs><clipPath id="a"><path d="m0 0h365760v205740h-365760z"/></clipPath></defs><g transform="matrix(1.3333333,0,0,1.3333333,0,1.35e-5)"><g transform="scale(.0019685)"><g clip-path="url(#a)"><path d="m16589 17801h336708v22908h-336708z" fill-opacity="0"/><g transform="scale(381)"><g transform="translate(43.540684,46.721786)"><g transform="translate(9,41.255997)" fill="#ed4e38" aria-label="SOCIALISMO CIENTÍFICO "><path d="m9.2399996 0.40319998q-3.8975998 0-5.8127998-2.04959988-1.8815999-2.0831999-2.0159999-6.5855997l5.1407998-0.7728q0.0336 2.5871999 0.6048 3.7295998 0.6047999 1.1088 1.7807999 1.1088 1.5120004 0 1.5120004-1.9823999 0-1.5791999-0.7392004-2.7215999-0.7056-1.1424004-2.2511999-2.4527994l-2.3519999-2.0496q-1.7472-1.4784-2.7215999-3.1248-0.9408-1.68-0.9408-3.9648 0-3.4272 2.0159999-5.2752 2.0495999-1.848 5.6111998-1.848 3.8639994 0 5.2415994 2.2512 1.4112 2.2512 1.512 5.4768l-5.174399 0.6384q-0.0672-2.1168-0.4032-3.024-0.3024005-0.9408-1.3776004-0.9408-0.7728 0-1.2095999 0.672-0.4032 0.6384-0.4032 1.4448 0 1.3776 0.6047999 2.3184 0.6384 0.9408 2.016 2.1504l2.2511994 1.9824q2.016 1.7136 3.1248 3.628799 1.1088 1.9152004 1.1088 4.5360003 0 1.9151999-0.9072 3.4943998-0.8736 1.5456-2.4864 2.45279992-1.6128 0.90719996-3.7295994 0.90719996z"/><path d="m31.081604 0.40319998q-4.401599 0-6.283199-2.25119988-1.8816-2.2847999-1.8816-6.7199997v-10.1135994q0-4.4352 1.8816-6.6528 1.8816-2.2512 6.283199-2.2512 4.4352 0 6.3168 2.2512 1.9152 2.2512 1.9152 6.6528v10.1135994q0 4.4351998-1.9152 6.7199997-1.8816 2.25119988-6.3168 2.25119988zm0-4.26719978q1.2768 0 1.68-0.84 0.4032-0.8735999 0.4032-2.3519999v-13.1039993q0-1.512-0.4032-2.352t-1.68-0.84q-1.2096 0-1.6128 0.8736-0.4032 0.84-0.4032 2.3184v13.1039993q0 1.4784 0.3696 2.3519999 0.3696 0.84 1.6464 0.84z"/><path d="m54.771164 0.40319998q-4.435199 0-6.316799-2.31839988-1.848-2.3519999-1.848-6.7535997v-9.8111994q0-4.5024 1.848-6.7872 1.848-2.3184 6.316799-2.3184 4.2672 0 6.048 2.0496t1.7808 5.8128v2.352h-5.88v-2.7216q0-1.5792-0.336-2.4192t-1.6128-0.84-1.68 0.9072q-0.4032 0.8736-0.4032 2.4528v12.8015993q0 1.6128 0.4032 2.4863999 0.4368 0.84 1.68 0.84t1.5792-0.84q0.3696-0.8735999 0.3696-2.4863999v-2.8560003h5.88v2.3520003q0 3.8303999-1.7808 5.9807998-1.7808 2.11679988-6.048 2.11679988z"/><path d="m69.926362-27.215999h6.0144v27.215999h-6.0144z"/><path d="m87.836726-27.215999h6.854399l5.0736 27.215999h-5.544l-0.9072-5.7455997h-3.998399l-0.9408 5.7455997h-5.6784zm4.905599 17.8751994-1.444799-10.6175994-1.4448 10.6175994z"/><path d="m106.51989-27.215999h6.0144v23.1503992h6.2496v4.0655998h-12.264z"/><path d="m125.43826-27.215999h6.0144v27.215999h-6.0144z"/><path d="m146.74223 0.40319998q-3.8976 0-5.8128-2.04959988-1.8816-2.0831999-2.016-6.5855997l5.1408-0.7728q0.0336 2.5871999 0.6048 3.7295998 0.6048 1.1088 1.7808 1.1088 1.512 0 1.512-1.9823999 0-1.5791999-0.7392-2.7215999-0.7056-1.1424004-2.2512-2.4527994l-2.352-2.0496q-1.7472-1.4784-2.7216-3.1248-0.9408-1.68-0.9408-3.9648 0-3.4272 2.016-5.2752 2.0496-1.848 5.6112-1.848 3.864 0 5.2416 2.2512 1.4112 2.2512 1.512 5.4768l-5.1744 0.6384q-0.0672-2.1168-0.4032-3.024-0.3024-0.9408-1.3776-0.9408-0.7728 0-1.2096 0.672-0.4032 0.6384-0.4032 1.4448 0 1.3776 0.6048 2.3184 0.6384 0.9408 2.016 2.1504l2.2512 1.9824q2.016 1.7136 3.1248 3.628799 1.1088 1.9152004 1.1088 4.5360003 0 1.9151999-0.9072 3.4943998-0.8736 1.5456-2.4864 2.45279992-1.6128 0.90719996-3.7296 0.90719996z"/><path d="m160.88938-27.215999h6.4512l2.9904 15.8256 3.2256-15.8256h6.216l0.4704 27.215999h-4.2672l-0.504-18.110399-3.1584 18.110399h-3.7968l-3.36-18.244799-0.4032 18.244799h-4.3344z"/><path d="m195.96934 0.40319998q-4.4016 0-6.2832-2.25119988-1.8816-2.2847999-1.8816-6.7199997v-10.1135994q0-4.4352 1.8816-6.6528 1.8816-2.2512 6.2832-2.2512 4.4352 0 6.3168 2.2512 1.9152 2.2512 1.9152 6.6528v10.1135994q0 4.4351998-1.9152 6.7199997-1.8816 2.25119988-6.3168 2.25119988zm0-4.26719978q1.2768 0 1.68-0.84 0.4032-0.8735999 0.4032-2.3519999v-13.1039993q0-1.512-0.4032-2.352t-1.68-0.84q-1.2096 0-1.6128 0.8736-0.4032 0.84-0.4032 2.3184v13.1039993q0 1.4784 0.3696 2.3519999 0.3696 0.84 1.6464 0.84z"/><path d="m232.26046 0.40319998q-4.4352 0-6.3168-2.31839988-1.848-2.3519999-1.848-6.7535997v-9.8111994q0-4.5024 1.848-6.7872 1.848-2.3184 6.3168-2.3184 4.2672 0 6.048 2.0496t1.7808 5.8128v2.352h-5.88v-2.7216q0-1.5792-0.336-2.4192t-1.6128-0.84-1.68 0.9072q-0.4032 0.8736-0.4032 2.4528v12.8015993q0 1.6128 0.4032 2.4863999 0.4368 0.84 1.68 0.84t1.5792-0.84q0.3696-0.8735999 0.3696-2.4863999v-2.8560003h5.88v2.3520003q0 3.8303999-1.7808 5.9807998-1.7808 2.11679988-6.048 2.11679988z"/><path d="m247.41566-27.215999h6.0144v27.215999h-6.0144z"/><path d="m261.49561-27.215999h12.2304v4.0992h-6.216v6.7536h4.7376v4.1664h-4.7376v8.1311992h6.2832v4.0655998h-12.2976z"/><path d="m280.51478-27.215999h4.2336l5.5776 13.104v-13.104h4.9728v27.215999h-4.0656l-5.5776-14.111999v14.111999h-5.1408z"/><path d="m305.81716-22.747199h-4.0992v-4.4688h14.2128v4.4688h-4.0656v22.747199h-6.048z"/><path d="m322.34995-27.215999h6.0144v27.215999h-6.0144zm3.2928-8.903999h5.5776l-4.2336 6.753599h-3.4608z"/><path d="m336.42991-27.215999h11.76v4.0656h-5.7456v6.8544h5.0064v4.2h-5.0064v12.095999h-6.0144z"/><path d="m355.04585-27.215999h6.0144v27.215999h-6.0144z"/><path d="m376.92103 0.40319998q-4.4352 0-6.3168-2.31839988-1.848-2.3519999-1.848-6.7535997v-9.8111994q0-4.5024 1.848-6.7872 1.848-2.3184 6.3168-2.3184 4.2672 0 6.048 2.0496t1.7808 5.8128v2.352h-5.88v-2.7216q0-1.5792-0.336-2.4192t-1.6128-0.84-1.68 0.9072q-0.4032 0.8736-0.4032 2.4528v12.8015993q0 1.6128 0.4032 2.4863999 0.4368 0.84 1.68 0.84t1.5792-0.84q0.3696-0.8735999 0.3696-2.4863999v-2.8560003h5.88v2.3520003q0 3.8303999-1.7808 5.9807998-1.7808 2.11679988-6.048 2.11679988z"/><path d="m399.83781 0.40319998q-4.4016 0-6.2832-2.25119988-1.8816-2.2847999-1.8816-6.7199997v-10.1135994q0-4.4352 1.8816-6.6528 1.8816-2.2512 6.2832-2.2512 4.4352 0 6.3168 2.2512 1.9152 2.2512 1.9152 6.6528v10.1135994q0 4.4351998-1.9152 6.7199997-1.8816 2.25119988-6.3168 2.25119988zm0-4.26719978q1.2768 0 1.68-0.84 0.4032-0.8735999 0.4032-2.3519999v-13.1039993q0-1.512-0.4032-2.352t-1.68-0.84q-1.2096 0-1.6128 0.8736-0.4032 0.84-0.4032 2.3184v13.1039993q0 1.4784 0.3696 2.3519999 0.3696 0.84 1.6464 0.84z"/></g></g></g><path d="m16589 46099h329112v136656h-329112z" fill-opacity="0"/><g fill="#ed4e38" stroke-width="381"><g aria-label="Proletariado como uma única classe social;"><path d="m39365.18 51593.019-609.6-83.82v-327.66h922.02q167.64 0 327.66-7.62 167.64-15.24 243.84-15.24 396.24-30.48 762-30.48 1074.42 0 1516.38 403.86 449.58 396.24 449.58 1196.34 0 601.98-289.56 1043.94t-784.86 678.18q-495.3 228.6-1104.9 228.6-243.84 0-502.92-7.62-251.46-15.24-304.8-22.86v1790.7l1059.18 76.2v327.66h-2339.34v-327.66l655.32-68.58zm624.84 2682.24q190.5 30.48 822.96 30.48 655.32 0 1074.42-365.76 419.1-373.38 419.1-1211.58 0-662.94-358.14-944.88-358.14-289.56-1127.76-289.56-236.22 0-525.78 30.48-228.6 15.24-304.8 15.24z"/><path d="m43563.802 56523.159 609.6-45.72v-3360.42l-586.74-129.54v-342.9l967.74-121.92h15.24l144.78 121.92v121.92l-15.24 579.12h15.24q15.24-15.24 198.12-228.6 190.5-220.98 556.26-419.1 373.38-198.12 746.76-198.12 121.92 0 228.6 30.48v670.56q-30.48-22.86-137.16-45.72-99.06-22.86-213.36-22.86-434.34 0-739.14 129.54t-563.88 320.04v2887.98l1013.46 60.96v312.42h-2240.28z"/><path d="m46962.322 54701.979q0-662.94 274.32-1165.86 281.94-502.92 731.52-769.62 457.2-266.7 952.5-266.7 960.12 0 1417.32 624.84 464.82 624.84 464.82 1600.2 0 662.94-281.94 1165.86-274.32 502.92-731.52 769.62-449.58 266.7-944.88 266.7-960.12 0-1424.94-624.84-457.2-624.84-457.2-1600.2zm1920.24 1828.8q586.74 0 906.78-449.58t320.04-1310.64q0-822.96-297.18-1348.74t-922.02-525.78q-586.74 0-914.4 449.58-320.04 449.58-320.04 1310.64 0 830.58 297.18 1356.36 304.8 518.16 929.64 518.16z"/><path d="m52121.06 51082.479-647.7-68.58v-281.94l1112.52-129.54h7.62l144.78 99.06v5760.72l716.28 53.34v327.66h-2004.06v-327.66l670.56-60.96z"/><path d="m55854.861 56927.019q-883.92 0-1363.98-601.98-472.44-609.6-472.44-1615.44 0-647.7 251.46-1150.62t693.42-777.24q449.58-281.94 1005.84-281.94 678.18 0 1051.56 388.62 381 388.62 411.48 1120.14 0 472.44-45.72 670.56h-2712.72q0 800.1 358.14 1310.64 365.76 502.92 1021.08 502.92 320.04 0 655.32-114.3t518.16-274.32l121.92 281.94q-220.98 228.6-647.7 388.62-419.1 152.4-845.82 152.4zm891.54-2606.04q22.86-160.02 22.86-335.28-7.62-502.92-243.84-800.1-228.6-297.18-708.66-297.18-1043.94 0-1135.38 1432.56z"/><path d="m59436.262 56927.019q-403.86 0-609.6-182.88-205.74-190.5-205.74-670.56v-3009.9h-579.12v-297.18q381-83.82 441.96-121.92 114.3-60.96 167.64-236.22 45.72-114.3 121.92-411.48t114.3-464.82h350.52v1082.04h1348.74v449.58h-1348.74v2468.88q0 441.96 30.48 624.84 30.48 175.26 121.92 228.6t320.04 53.34q220.98 0 495.3-60.96t411.48-129.54l99.06 289.56q-175.26 137.16-579.12 266.7-403.86 121.92-701.04 121.92z"/><path d="m61257.44 55730.679q0-739.14 731.52-1066.8 731.52-335.28 1821.18-358.14v-236.22q0-388.62-83.82-609.6-76.2-228.6-274.32-327.66-198.12-106.68-556.26-106.68-388.62 0-708.66 121.92-312.42 114.3-609.6 281.94l-167.64-335.28q83.82-76.2 350.52-213.36t609.6-243.84 662.94-106.68q518.16 0 815.34 144.78 304.8 144.78 434.34 464.82 137.16 320.04 137.16 861.06v2514.6h472.44v281.94q-419.1 114.3-708.66 114.3-182.88 0-251.46-60.96-68.58-53.34-68.58-259.08v-281.94q-274.32 243.84-601.98 434.34-320.04 182.88-731.52 182.88-548.64 0-914.4-304.8-358.14-304.8-358.14-891.54zm1501.14 746.76q213.36 0 510.54-137.16t541.02-327.66v-1348.74q-922.02 7.62-1402.08 274.32-472.44 266.7-472.44 716.28 0 434.34 220.98 632.46 220.98 190.5 601.98 190.5z"/><path d="m65486.54 56523.159 609.6-45.72v-3360.42l-586.74-129.54v-342.9l967.74-121.92h15.24l144.78 121.92v121.92l-15.24 579.12h15.24q15.24-15.24 198.12-228.6 190.5-220.98 556.26-419.1 373.38-198.12 746.76-198.12 121.92 0 228.6 30.48v670.56q-30.48-22.86-137.16-45.72-99.06-22.86-213.36-22.86-434.34 0-739.14 129.54t-563.88 320.04v2887.98l1013.46 60.96v312.42h-2240.28z"/><path d="m69776.604 51813.999q-411.48 0-411.48-434.34 0-220.98 129.54-358.14 129.54-144.78 350.52-144.78 228.6 0 327.66 129.54 99.06 121.92 99.06 304.8 0 236.22-129.54 373.38-121.92 129.54-358.14 129.54zm-243.84 1303.02-594.36-129.54v-342.9l1043.94-121.92h15.24l152.4 121.92v3817.62l662.94 53.34v327.66h-1950.72v-327.66l670.56-60.96z"/><path d="m71399.659 55730.679q0-739.14 731.52-1066.8 731.52-335.28 1821.18-358.14v-236.22q0-388.62-83.82-609.6-76.2-228.6-274.32-327.66-198.12-106.68-556.26-106.68-388.62 0-708.66 121.92-312.42 114.3-609.6 281.94l-167.64-335.28q83.82-76.2 350.52-213.36t609.6-243.84 662.94-106.68q518.16 0 815.34 144.78 304.8 144.78 434.34 464.82 137.16 320.04 137.16 861.06v2514.6h472.44v281.94q-419.1 114.3-708.66 114.3-182.88 0-251.46-60.96-68.58-53.34-68.58-259.08v-281.94q-274.32 243.84-601.98 434.34-320.04 182.88-731.52 182.88-548.64 0-914.4-304.8-358.14-304.8-358.14-891.54zm1501.14 746.76q213.36 0 510.54-137.16t541.02-327.66v-1348.74q-922.02 7.62-1402.08 274.32-472.44 266.7-472.44 716.28 0 434.34 220.98 632.46 220.98 190.5 601.98 190.5z"/><path d="m77274.683 56927.019q-449.58 0-830.58-228.6-381-236.22-609.6-708.66t-228.6-1158.24q0-655.32 266.7-1181.1 266.7-533.4 754.38-838.2 495.3-312.42 1150.62-312.42 419.1 0 807.72 91.44v-1508.76l-792.48-76.2v-274.32l1249.68-129.54h15.24l144.78 106.68v5791.2h464.82v297.18q-38.1 7.62-259.08 60.96t-472.44 53.34q-175.26 0-251.46-60.96-68.58-60.96-68.58-266.7v-266.7q-236.22 259.08-579.12 434.34-335.28 175.26-762 175.26zm251.46-480.06q327.66 0 617.22-152.4 297.18-160.02 441.96-350.52v-2804.16q-60.96-106.68-320.04-182.88-251.46-76.2-541.02-76.2-655.32 0-1051.56 472.44-396.24 464.82-396.24 1417.32 0 853.44 350.52 1264.92t899.16 411.48z"/><path d="m80307.439 54701.979q0-662.94 274.32-1165.86 281.94-502.92 731.52-769.62 457.2-266.7 952.5-266.7 960.12 0 1417.32 624.84 464.82 624.84 464.82 1600.2 0 662.94-281.94 1165.86-274.32 502.92-731.52 769.62-449.58 266.7-944.88 266.7-960.12 0-1424.94-624.84-457.2-624.84-457.2-1600.2zm1920.24 1828.8q586.74 0 906.78-449.58t320.04-1310.64q0-822.96-297.18-1348.74t-922.02-525.78q-586.74 0-914.4 449.58-320.04 449.58-320.04 1310.64 0 830.58 297.18 1356.36 304.8 518.16 929.64 518.16z"/><path d="m86563.463 54755.319q0-617.22 236.22-1127.76 243.84-518.16 716.28-822.96 480.06-304.8 1165.86-304.8 297.18 0 579.12 76.2 281.94 68.58 487.68 152.4l-30.48 1089.66h-381l-160.02-731.52q-45.72-228.6-655.32-228.6-594.36 0-952.5 457.2-350.52 457.2-350.52 1249.68 0 944.88 381 1432.56t990.6 487.68q320.04 0 617.22-106.68 304.8-106.68 502.92-243.84l121.92 251.46q-220.98 220.98-609.6 381t-769.62 160.02q-601.98 0-1028.7-281.94-426.72-289.56-647.7-777.24-213.36-495.3-213.36-1112.52z"/><path d="m90525.861 54701.979q0-662.94 274.32-1165.86 281.94-502.92 731.52-769.62 457.2-266.7 952.5-266.7 960.12 0 1417.32 624.84 464.82 624.84 464.82 1600.2 0 662.94-281.94 1165.86-274.32 502.92-731.52 769.62-449.58 266.7-944.88 266.7-960.12 0-1424.94-624.84-457.2-624.84-457.2-1600.2zm1920.24 1828.8q586.74 0 906.78-449.58t320.04-1310.64q0-822.96-297.18-1348.74t-922.02-525.78q-586.74 0-914.4 449.58-320.04 449.58-320.04 1310.64 0 830.58 297.18 1356.36 304.8 518.16 929.64 518.16z"/><path d="m95052.139 56515.539 487.68-60.96v-3337.56l-586.74-129.54v-342.9l967.74-121.92 167.64 121.92v335.28l-7.62 190.5q281.94-243.84 739.14-449.58t830.58-205.74q411.48 0 655.32 137.16 251.46 137.16 381 426.72 236.22-198.12 685.8-381 457.2-182.88 838.201-182.88 480.06 0 739.14 182.88 266.7 182.88 373.38 563.88t106.68 1028.7v2164.08l579.12 60.96v327.66h-1706.88v-327.66l518.16-60.96v-2141.22q0-480.06-68.58-762t-266.7-426.72-579.121-144.78q-281.94 0-594.36 129.54-304.8 121.92-525.78 281.94 76.2 350.52 76.2 914.4v2148.84l579.12 60.96v327.66h-1744.98v-327.66l548.64-60.96v-2156.46q0-487.68-60.96-762-53.34-274.32-236.22-411.48t-541.02-137.16q-297.18 0-647.7 152.4-342.9 144.78-601.98 350.52v2964.18l541.02 60.96v327.66h-1645.92z"/><path d="m102557.85 54701.979q0-662.94 274.32-1165.86 281.94-502.92 731.52-769.62 457.2-266.7 952.5-266.7 960.12 0 1417.32 624.84 464.82 624.84 464.82 1600.2 0 662.94-281.94 1165.86-274.32 502.92-731.52 769.62-449.58 266.7-944.88 266.7-960.12 0-1424.94-624.84-457.2-624.84-457.2-1600.2zm1920.24 1828.8q586.74 0 906.78-449.58t320.04-1310.64q0-822.96-297.18-1348.74t-922.02-525.78q-586.74 0-914.4 449.58-320.04 449.58-320.04 1310.64 0 830.58 297.18 1356.36 304.8 518.16 929.64 518.16z"/><path d="m112387.64 56911.779q-198.12 0-289.56-68.58t-91.44-251.46v-297.18q-281.94 251.46-662.94 441.96t-762 190.5q-693.42 0-990.6-388.62-289.56-388.62-289.56-1264.92v-2240.28l-449.58-129.54v-281.94l922.02-99.06h7.62l137.16 91.44v2567.94q0 480.06 68.58 754.38 68.58 266.7 251.46 396.24t533.4 129.54q335.28 0 640.08-144.78t525.78-342.9v-2941.32l-579.12-129.54v-281.94l1013.46-99.06h7.62l175.26 91.44v3893.82h472.44l-7.62 289.56q-38.1 7.62-220.98 60.96t-411.48 53.34z"/><path d="m113675.42 56515.539 487.68-60.96v-3337.56l-586.74-129.54v-342.9l967.74-121.92 167.64 121.92v335.28l-7.62 190.5q281.94-243.84 739.14-449.58t830.58-205.74q411.48 0 655.32 137.16 251.46 137.16 381 426.72 236.22-198.12 685.8-381 457.2-182.88 838.2-182.88 480.06 0 739.14 182.88 266.7 182.88 373.38 563.88t106.68 1028.7v2164.08l579.12 60.96v327.66h-1706.88v-327.66l518.16-60.96v-2141.22q0-480.06-68.58-762t-266.7-426.72-579.12-144.78q-281.94 0-594.36 129.54-304.8 121.92-525.78 281.94 76.2 350.52 76.2 914.4v2148.84l579.12 60.96v327.66h-1744.98v-327.66l548.64-60.96v-2156.46q0-487.68-60.96-762-53.34-274.32-236.22-411.48t-541.02-137.16q-297.18 0-647.7 152.4-342.9 144.78-601.98 350.52v2964.18l541.02 60.96v327.66h-1645.92z"/><path d="m121226.84 55730.679q0-739.14 731.52-1066.8 731.52-335.28 1821.18-358.14v-236.22q0-388.62-83.82-609.6-76.2-228.6-274.32-327.66-198.12-106.68-556.26-106.68-388.62 0-708.66 121.92-312.42 114.3-609.6 281.94l-167.64-335.28q83.82-76.2 350.52-213.36t609.6-243.84 662.94-106.68q518.16 0 815.34 144.78 304.8 144.78 434.34 464.82 137.16 320.04 137.16 861.06v2514.6h472.44v281.94q-419.1 114.3-708.66 114.3-182.88 0-251.46-60.96-68.58-53.34-68.58-259.08v-281.94q-274.32 243.84-601.98 434.34-320.04 182.88-731.52 182.88-548.64 0-914.4-304.8-358.14-304.8-358.14-891.54zm1501.14 746.76q213.36 0 510.54-137.16t541.02-327.66v-1348.74q-922.02 7.62-1402.08 274.32-472.44 266.7-472.44 716.28 0 434.34 220.98 632.46 220.98 190.5 601.98 190.5z"/><path d="m130721.36 56911.779q-198.12 0-289.56-68.58t-91.44-251.46v-297.18q-281.94 251.46-662.94 441.96t-762 190.5q-693.42 0-990.6-388.62-289.56-388.62-289.56-1264.92v-2240.28l-449.58-129.54v-281.94l922.02-99.06h7.62l137.16 91.44v2567.94q0 480.06 68.58 754.38 68.58 266.7 251.46 396.24t533.4 129.54q335.28 0 640.08-144.78t525.78-342.9v-2941.32l-579.12-129.54v-281.94l1013.46-99.06h7.62l175.26 91.44v3893.82h472.44l-7.62 289.56q-38.1 7.62-220.98 60.96t-411.48 53.34zm-2065.02-5295.9 1181.1-1470.66 518.16 419.1q-152.4 228.6-678.18 685.8-518.16 449.58-784.86 571.5z"/><path d="m132496.82 53117.019-586.74-129.54v-342.9l967.74-121.92h22.86l144.78 121.92v335.28l-7.62 190.5q281.94-243.84 746.76-449.58t861.06-205.74q487.68 0 746.76 190.5 266.7 182.88 365.76 571.5 106.68 381 106.68 1028.7v2156.46l571.5 53.34v327.66h-1699.26v-327.66l510.54-53.34v-2164.08q0-480.06-68.58-754.38-60.96-274.32-251.46-411.48-182.88-144.78-541.02-144.78-304.8 0-662.94 152.4-350.52 152.4-609.6 358.14v2956.56l556.26 60.96v327.66h-1684.02v-327.66l510.54-60.96z"/><path d="m137884.16 51813.999q-411.48 0-411.48-434.34 0-220.98 129.54-358.14 129.54-144.78 350.52-144.78 228.6 0 327.66 129.54 99.06 121.92 99.06 304.8 0 236.22-129.54 373.38-121.92 129.54-358.14 129.54zm-243.84 1303.02-594.36-129.54v-342.9l1043.94-121.92h15.24l152.4 121.92v3817.62l662.94 53.34v327.66h-1950.72v-327.66l670.56-60.96z"/><path d="m139377.69 54755.319q0-617.22 236.22-1127.76 243.84-518.16 716.28-822.96 480.06-304.8 1165.86-304.8 297.18 0 579.12 76.2 281.94 68.58 487.68 152.4l-30.48 1089.66h-381l-160.02-731.52q-45.72-228.6-655.32-228.6-594.36 0-952.5 457.2-350.52 457.2-350.52 1249.68 0 944.88 381 1432.56t990.6 487.68q320.04 0 617.22-106.68 304.8-106.68 502.92-243.84l121.92 251.46q-220.98 220.98-609.6 381t-769.62 160.02q-601.98 0-1028.7-281.94-426.72-289.56-647.7-777.24-213.36-495.3-213.36-1112.52z"/><path d="m143385.81 55730.679q0-739.14 731.52-1066.8 731.52-335.28 1821.18-358.14v-236.22q0-388.62-83.82-609.6-76.2-228.6-274.32-327.66-198.12-106.68-556.26-106.68-388.62 0-708.66 121.92-312.42 114.3-609.6 281.94l-167.64-335.28q83.82-76.2 350.52-213.36t609.6-243.84 662.94-106.68q518.16 0 815.34 144.78 304.8 144.78 434.34 464.82 137.16 320.04 137.16 861.06v2514.6h472.44v281.94q-419.1 114.3-708.66 114.3-182.88 0-251.46-60.96-68.58-53.34-68.58-259.08v-281.94q-274.32 243.84-601.98 434.34-320.04 182.88-731.52 182.88-548.64 0-914.4-304.8-358.14-304.8-358.14-891.54zm1501.14 746.76q213.36 0 510.54-137.16t541.02-327.66v-1348.74q-922.02 7.62-1402.08 274.32-472.44 266.7-472.44 716.28 0 434.34 220.98 632.46 220.98 190.5 601.98 190.5z"/><path d="m149306.55 54755.319q0-617.22 236.22-1127.76 243.84-518.16 716.28-822.96 480.06-304.8 1165.86-304.8 297.18 0 579.12 76.2 281.94 68.58 487.68 152.4l-30.48 1089.66h-381l-160.02-731.52q-45.72-228.6-655.32-228.6-594.36 0-952.5 457.2-350.52 457.2-350.52 1249.68 0 944.88 381 1432.56t990.6 487.68q320.04 0 617.22-106.68 304.8-106.68 502.92-243.84l121.92 251.46q-220.98 220.98-609.6 381t-769.62 160.02q-601.98 0-1028.7-281.94-426.72-289.56-647.7-777.24-213.36-495.3-213.36-1112.52z"/><path d="m153893.79 51082.479-647.7-68.58v-281.94l1112.52-129.54h7.62l144.78 99.06v5760.72l716.28 53.34v327.66h-2004.06v-327.66l670.56-60.96z"/><path d="m155821.65 55730.679q0-739.14 731.52-1066.8 731.52-335.28 1821.18-358.14v-236.22q0-388.62-83.82-609.6-76.2-228.6-274.32-327.66-198.12-106.68-556.26-106.68-388.62 0-708.66 121.92-312.42 114.3-609.6 281.94l-167.64-335.28q83.82-76.2 350.52-213.36t609.6-243.84 662.94-106.68q518.16 0 815.34 144.78 304.8 144.78 434.34 464.82 137.16 320.04 137.16 861.06v2514.6h472.44v281.94q-419.1 114.3-708.66 114.3-182.88 0-251.46-60.96-68.58-53.34-68.58-259.08v-281.94q-274.32 243.84-601.98 434.34-320.04 182.88-731.52 182.88-548.64 0-914.4-304.8-358.14-304.8-358.14-891.54zm1501.14 746.76q213.36 0 510.54-137.16t541.02-327.66v-1348.74q-922.02 7.62-1402.08 274.32-472.44 266.7-472.44 716.28 0 434.34 220.98 632.46 220.98 190.5 601.98 190.5z"/><path d="m160645.1 56241.219q83.82 129.54 350.52 228.6t571.5 99.06q929.64 0 929.64-685.8 0-312.42-259.08-502.92-259.08-198.12-883.92-434.34-617.22-220.98-899.16-525.78t-281.94-815.34q0-327.66 198.12-571.5 205.74-243.84 541.02-373.38 342.9-137.16 739.14-137.16 388.62 0 647.7 68.58 266.7 68.58 525.78 167.64v906.78h-373.38l-137.16-556.26q-53.34-99.06-274.32-167.64-213.36-68.58-472.44-68.58-365.76 0-594.36 167.64-228.6 160.02-228.6 434.34 0 243.84 114.3 403.86t281.94 259.08q167.64 91.44 464.82 213.36l144.78 60.96q434.34 167.64 701.04 320.04 266.7 144.78 441.96 388.62 175.26 236.22 175.26 594.36 0 563.88-434.34 891.54-426.72 320.04-1143 320.04-327.66 0-746.76-106.68t-624.84-213.36v-960.12h411.48z"/><path d="m164424.63 56241.219q83.82 129.54 350.52 228.6t571.5 99.06q929.64 0 929.64-685.8 0-312.42-259.08-502.92-259.08-198.12-883.92-434.34-617.22-220.98-899.16-525.78t-281.94-815.34q0-327.66 198.12-571.5 205.74-243.84 541.02-373.38 342.9-137.16 739.14-137.16 388.62 0 647.7 68.58 266.7 68.58 525.78 167.64v906.78h-373.38l-137.16-556.26q-53.34-99.06-274.32-167.64-213.36-68.58-472.44-68.58-365.76 0-594.36 167.64-228.6 160.02-228.6 434.34 0 243.84 114.3 403.86t281.94 259.08q167.64 91.44 464.82 213.36l144.78 60.96q434.34 167.64 701.04 320.04 266.7 144.78 441.96 388.62 175.26 236.22 175.26 594.36 0 563.88-434.34 891.54-426.72 320.04-1143 320.04-327.66 0-746.76-106.68t-624.84-213.36v-960.12h411.48z"/><path d="m169430.97 56927.019q-883.92 0-1363.98-601.98-472.44-609.6-472.44-1615.44 0-647.7 251.46-1150.62t693.42-777.24q449.58-281.94 1005.84-281.94 678.18 0 1051.56 388.62 381 388.62 411.48 1120.14 0 472.44-45.72 670.56h-2712.72q0 800.1 358.14 1310.64 365.76 502.92 1021.08 502.92 320.04 0 655.32-114.3t518.16-274.32l121.92 281.94q-220.98 228.6-647.7 388.62-419.1 152.4-845.82 152.4zm891.54-2606.04q22.86-160.02 22.86-335.28-7.62-502.92-243.84-800.1-228.6-297.18-708.66-297.18-1043.94 0-1135.38 1432.56z"/><path d="m174124.88 56241.219q83.82 129.54 350.52 228.6t571.5 99.06q929.64 0 929.64-685.8 0-312.42-259.08-502.92-259.08-198.12-883.92-434.34-617.22-220.98-899.16-525.78t-281.94-815.34q0-327.66 198.12-571.5 205.74-243.84 541.02-373.38 342.9-137.16 739.14-137.16 388.62 0 647.7 68.58 266.7 68.58 525.78 167.64v906.78h-373.38l-137.16-556.26q-53.34-99.06-274.32-167.64-213.36-68.58-472.44-68.58-365.76 0-594.36 167.64-228.6 160.02-228.6 434.34 0 243.84 114.3 403.86t281.94 259.08q167.64 91.44 464.82 213.36l144.78 60.96q434.34 167.64 701.04 320.04 266.7 144.78 441.96 388.62 175.26 236.22 175.26 594.36 0 563.88-434.34 891.54-426.72 320.04-1143 320.04-327.66 0-746.76-106.68t-624.84-213.36v-960.12h411.48z"/><path d="m177279.56 54701.979q0-662.94 274.32-1165.86 281.94-502.92 731.52-769.62 457.2-266.7 952.5-266.7 960.12 0 1417.32 624.84 464.82 624.84 464.82 1600.2 0 662.94-281.94 1165.86-274.32 502.92-731.52 769.62-449.58 266.7-944.88 266.7-960.12 0-1424.94-624.84-457.2-624.84-457.2-1600.2zm1920.24 1828.8q586.74 0 906.78-449.58t320.04-1310.64q0-822.96-297.18-1348.74t-922.02-525.78q-586.74 0-914.4 449.58-320.04 449.58-320.04 1310.64 0 830.58 297.18 1356.36 304.8 518.16 929.64 518.16z"/><path d="m181729.64 54755.319q0-617.22 236.22-1127.76 243.84-518.16 716.28-822.96 480.06-304.8 1165.86-304.8 297.18 0 579.12 76.2 281.94 68.58 487.68 152.4l-30.48 1089.66h-381l-160.02-731.52q-45.72-228.6-655.32-228.6-594.36 0-952.5 457.2-350.52 457.2-350.52 1249.68 0 944.88 381 1432.56t990.6 487.68q320.04 0 617.22-106.68 304.8-106.68 502.92-243.84l121.92 251.46q-220.98 220.98-609.6 381t-769.62 160.02q-601.98 0-1028.7-281.94-426.72-289.56-647.7-777.24-213.36-495.3-213.36-1112.52z"/><path d="m186583.58 51813.999q-411.48 0-411.48-434.34 0-220.98 129.54-358.14 129.54-144.78 350.52-144.78 228.6 0 327.66 129.54 99.06 121.92 99.06 304.8 0 236.22-129.54 373.38-121.92 129.54-358.14 129.54zm-243.84 1303.02-594.36-129.54v-342.9l1043.94-121.92h15.24l152.4 121.92v3817.62l662.94 53.34v327.66h-1950.72v-327.66l670.56-60.96z"/><path d="m188206.65 55730.679q0-739.14 731.52-1066.8 731.52-335.28 1821.18-358.14v-236.22q0-388.62-83.82-609.6-76.2-228.6-274.32-327.66-198.12-106.68-556.26-106.68-388.62 0-708.66 121.92-312.42 114.3-609.6 281.94l-167.64-335.28q83.82-76.2 350.52-213.36t609.6-243.84 662.94-106.68q518.16 0 815.34 144.78 304.8 144.78 434.34 464.82 137.16 320.04 137.16 861.06v2514.6h472.44v281.94q-419.1 114.3-708.66 114.3-182.88 0-251.46-60.96-68.58-53.34-68.58-259.08v-281.94q-274.32 243.84-601.98 434.34-320.04 182.88-731.52 182.88-548.64 0-914.4-304.8-358.14-304.8-358.14-891.54zm1501.14 746.76q213.36 0 510.54-137.16t541.02-327.66v-1348.74q-922.02 7.62-1402.08 274.32-472.44 266.7-472.44 716.28 0 434.34 220.98 632.46 220.98 190.5 601.98 190.5z"/><path d="m193030.1 51082.479-647.7-68.58v-281.94l1112.52-129.54h7.62l144.78 99.06v5760.72l716.28 53.34v327.66h-2004.06v-327.66l670.56-60.96z"/><path d="m195857.12 53757.099q-175.26 0-297.18-114.3-121.92-121.92-121.92-312.42 0-213.36 144.78-358.14 152.4-144.78 350.52-144.78 205.74 0 304.8 121.92 106.68 121.92 106.68 304.8 0 213.36-144.78 358.14t-342.9 144.78zm22.86 2026.92q243.84 0 388.62 228.6t144.78 647.7-121.92 792.48-312.42 640.08-381 381h-7.62l-220.98-152.4v-68.58q91.44-68.58 198.12-281.94 114.3-205.74 190.5-480.06 83.82-274.32 83.82-533.4 0-114.3-45.72-182.88-38.1-68.58-121.92-160.02-99.06-99.06-152.4-190.5-45.72-91.44-45.72-251.46 0-175.26 106.68-281.94 114.3-106.68 266.7-106.68z"/></g><g aria-label="Revolução para tomada do poder;"><path d="m38687 70231.543 655.32-68.58v-4861.56l-609.6-91.44v-312.42h929.64q205.74 0 586.74-30.48 365.76-30.48 541.02-30.48 1089.66 0 1554.48 365.76t464.82 1127.76q0 556.26-312.42 1005.84-304.8 449.58-830.58 601.98 198.12 129.54 396.24 434.34 205.74 297.18 502.92 830.58 259.08 464.82 411.48 701.04 160.02 228.6 281.94 251.46l320.04 83.82v320.04h-891.54q-121.92 0-281.94-259.08t-449.58-838.2q-312.42-632.46-518.16-967.74-198.12-335.28-396.24-449.58-929.64 0-1074.42-7.62v2125.98l784.86 68.58v327.66h-2065.02zm2308.86-2560.32q525.78 0 830.58-327.66t304.8-960.12q0-556.26-312.42-861.06-312.42-312.42-1089.66-312.42-266.7 0-525.78 30.48-182.88 15.24-236.22 15.24v2407.92q137.16 7.62 548.64 7.62z"/><path d="m45781.22 70643.023q-883.92 0-1363.98-601.98-472.44-609.6-472.44-1615.44 0-647.7 251.46-1150.62t693.42-777.24q449.58-281.94 1005.84-281.94 678.18 0 1051.56 388.62 381 388.62 411.48 1120.14 0 472.44-45.72 670.56h-2712.72q0 800.1 358.14 1310.64 365.76 502.92 1021.08 502.92 320.04 0 655.32-114.3t518.16-274.32l121.92 281.94q-220.98 228.6-647.7 388.62-419.1 152.4-845.82 152.4zm891.54-2606.04q22.86-160.02 22.86-335.28-7.62-502.92-243.84-800.1-228.6-297.18-708.66-297.18-1043.94 0-1135.38 1432.56z"/><path d="m47716.701 66330.103h1615.44v312.42l-563.88 99.06 815.34 2263.14 373.38 1082.04 320.04-1043.94 815.34-2301.24-533.4-99.06v-312.42h1455.42v312.42l-388.62 99.06-1501.14 3878.58h-510.54l-1539.24-3878.58-358.14-99.06z"/><path d="m52357.279 68417.983q0-662.94 274.32-1165.86 281.94-502.92 731.52-769.62 457.2-266.7 952.5-266.7 960.12 0 1417.32 624.84 464.82 624.84 464.82 1600.2 0 662.94-281.94 1165.86-274.32 502.92-731.52 769.62-449.58 266.7-944.88 266.7-960.12 0-1424.94-624.84-457.2-624.84-457.2-1600.2zm1920.24 1828.8q586.74 0 906.78-449.58t320.04-1310.64q0-822.96-297.18-1348.74t-922.02-525.78q-586.74 0-914.4 449.58-320.04 449.58-320.04 1310.64 0 830.58 297.18 1356.36 304.8 518.16 929.64 518.16z"/><path d="m57516.021 64798.483-647.7-68.58v-281.94l1112.52-129.54h7.62l144.78 99.06v5760.72l716.28 53.34v327.66h-2004.06v-327.66l670.56-60.96z"/><path d="m62888.122 70627.783q-198.12 0-289.56-68.58t-91.44-251.46v-297.18q-281.94 251.46-662.94 441.96t-762 190.5q-693.42 0-990.6-388.62-289.56-388.62-289.56-1264.92v-2240.28l-449.58-129.54v-281.94l922.02-99.06h7.62l137.16 91.44v2567.94q0 480.06 68.58 754.38 68.58 266.7 251.46 396.24t533.4 129.54q335.28 0 640.08-144.78t525.78-342.9v-2941.32l-579.12-129.54v-281.94l1013.46-99.06h7.62l175.26 91.44v3893.82h472.44l-7.62 289.56q-38.1 7.62-220.98 60.96t-411.48 53.34z"/><path d="m64099.701 68471.323q0-617.22 236.22-1127.76 243.84-518.16 716.28-822.96 480.06-304.8 1165.86-304.8 297.18 0 579.12 76.2 281.94 68.58 487.68 152.4l-30.48 1089.66h-381l-160.02-731.52q-45.72-228.6-655.32-228.6-594.36 0-952.5 457.2-350.52 457.2-350.52 1249.68 0 944.88 381 1432.56t990.6 487.68q320.04 0 617.22-106.68 304.8-106.68 502.92-243.84l121.92 251.46q-213.36 213.36-594.36 373.38t-754.38 167.64q152.4 182.88 274.32 434.34 121.92 259.08 121.92 518.16 0 403.86-236.22 579.12t-693.42 175.26q-129.54 0-281.94-30.48t-259.08-68.58l7.62-449.58q76.2 22.86 175.26 38.1 106.68 22.86 175.26 22.86 304.8 0 441.96-106.68t137.16-434.34q0-182.88-68.58-373.38t-152.4-327.66q-746.76-114.3-1158.24-701.04-403.86-594.36-403.86-1447.8z"/><path d="m68107.823 69446.683q0-739.14 731.52-1066.8 731.52-335.28 1821.18-358.14v-236.22q0-388.62-83.82-609.6-76.2-228.6-274.32-327.66-198.12-106.68-556.26-106.68-388.62 0-708.66 121.92-312.42 114.3-609.6 281.94l-167.64-335.28q83.82-76.2 350.52-213.36t609.6-243.84 662.94-106.68q518.16 0 815.34 144.78 304.8 144.78 434.34 464.82 137.16 320.04 137.16 861.06v2514.6h472.44v281.94q-419.1 114.3-708.66 114.3-182.88 0-251.46-60.96-68.58-53.34-68.58-259.08v-281.94q-274.32 243.84-601.98 434.34-320.04 182.88-731.52 182.88-548.64 0-914.4-304.8-358.14-304.8-358.14-891.54zm1501.14 746.76q213.36 0 510.54-137.16t541.02-327.66v-1348.74q-922.02 7.62-1402.08 274.32-472.44 266.7-472.44 716.28 0 434.34 220.98 632.46 220.98 190.5 601.98 190.5zm-1242.06-4960.62q76.2-304.8 289.56-525.78 220.98-228.6 586.74-228.6 228.6 0 381 91.44t350.52 274.32q129.54 129.54 220.98 190.5t198.12 60.96q213.36 0 335.28-160.02t144.78-312.42l350.52 160.02q-236.22 769.62-861.06 769.62-220.98 0-373.38-91.44-144.78-91.44-327.66-266.7-144.78-137.16-236.22-198.12t-205.74-60.96q-213.36 0-320.04 121.92-106.68 114.3-160.02 220.98-45.72 106.68-60.96 129.54z"/><path d="m72306.439 68417.983q0-662.94 274.32-1165.86 281.94-502.92 731.52-769.62 457.2-266.7 952.5-266.7 960.12 0 1417.32 624.84 464.82 624.84 464.82 1600.2 0 662.94-281.94 1165.86-274.32 502.92-731.52 769.62-449.58 266.7-944.88 266.7-960.12 0-1424.94-624.84-457.2-624.84-457.2-1600.2zm1920.24 1828.8q586.74 0 906.78-449.58t320.04-1310.64q0-822.96-297.18-1348.74t-922.02-525.78q-586.74 0-914.4 449.58-320.04 449.58-320.04 1310.64 0 830.58 297.18 1356.36 304.8 518.16 929.64 518.16z"/><path d="m82707.743 68288.443q0 655.32-266.7 1196.34-266.7 533.4-762 845.82-487.68 312.42-1120.14 312.42-213.36 0-449.58-38.1-236.22-30.48-388.62-83.82l15.24 647.7v822.96l845.82 76.2v335.28h-2042.16v-335.28l586.74-76.2v-5158.74l-594.36-129.54v-342.9l975.36-121.92h15.24l137.16 121.92v464.82q243.84-251.46 594.36-426.72 350.52-182.88 784.86-182.88 441.96 0 822.96 220.98t609.6 685.8q236.22 464.82 236.22 1165.86zm-1920.24-1607.82q-327.66 0-609.6 137.16t-441.96 304.8v2903.22q60.96 99.06 304.8 182.88 251.46 76.2 548.64 76.2 655.32 0 1051.56-480.06 403.86-487.68 403.86-1432.56 0-845.82-358.14-1264.92-350.52-426.72-899.16-426.72z"/><path d="m83446.878 69446.683q0-739.14 731.52-1066.8 731.52-335.28 1821.18-358.14v-236.22q0-388.62-83.82-609.6-76.2-228.6-274.32-327.66-198.12-106.68-556.26-106.68-388.62 0-708.66 121.92-312.42 114.3-609.6 281.94l-167.64-335.28q83.82-76.2 350.52-213.36t609.6-243.84 662.94-106.68q518.16 0 815.34 144.78 304.8 144.78 434.34 464.82 137.16 320.04 137.16 861.06v2514.6h472.44v281.94q-419.1 114.3-708.66 114.3-182.88 0-251.46-60.96-68.58-53.34-68.58-259.08v-281.94q-274.32 243.84-601.98 434.34-320.04 182.88-731.52 182.88-548.64 0-914.4-304.8-358.14-304.8-358.14-891.54zm1501.14 746.76q213.36 0 510.54-137.16t541.02-327.66v-1348.74q-922.02 7.62-1402.08 274.32-472.44 266.7-472.44 716.28 0 434.34 220.98 632.46 220.98 190.5 601.98 190.5z"/><path d="m87675.982 70239.163 609.6-45.72v-3360.42l-586.74-129.54v-342.9l967.74-121.92h15.24l144.78 121.92v121.92l-15.24 579.12h15.24q15.24-15.24 198.12-228.6 190.5-220.98 556.26-419.1 373.38-198.12 746.76-198.12 121.92 0 228.6 30.48v670.56q-30.48-22.86-137.16-45.72-99.06-22.86-213.36-22.86-434.34 0-739.14 129.54t-563.88 320.04v2887.98l1013.46 60.96v312.42h-2240.28z"/><path d="m91120.222 69446.683q0-739.14 731.52-1066.8 731.52-335.28 1821.18-358.14v-236.22q0-388.62-83.82-609.6-76.2-228.6-274.32-327.66-198.12-106.68-556.26-106.68-388.62 0-708.66 121.92-312.42 114.3-609.6 281.94l-167.64-335.28q83.82-76.2 350.52-213.36t609.6-243.84 662.94-106.68q518.16 0 815.34 144.78 304.8 144.78 434.34 464.82 137.16 320.04 137.16 861.06v2514.6h472.44v281.94q-419.1 114.3-708.66 114.3-182.88 0-251.46-60.96-68.58-53.34-68.58-259.08v-281.94q-274.32 243.84-601.98 434.34-320.04 182.88-731.52 182.88-548.64 0-914.4-304.8-358.14-304.8-358.14-891.54zm1501.14 746.76q213.36 0 510.54-137.16t541.02-327.66v-1348.74q-922.02 7.62-1402.08 274.32-472.44 266.7-472.44 716.28 0 434.34 220.98 632.46 220.98 190.5 601.98 190.5z"/><path d="m98443.043 70643.023q-403.86 0-609.6-182.88-205.74-190.5-205.74-670.56v-3009.9h-579.12v-297.18q381-83.82 441.96-121.92 114.3-60.96 167.64-236.22 45.72-114.3 121.92-411.48t114.3-464.82h350.52v1082.04h1348.74v449.58h-1348.74v2468.88q0 441.96 30.48 624.84 30.48 175.26 121.92 228.6t320.04 53.34q220.98 0 495.3-60.96t411.48-129.54l99.06 289.56q-175.26 137.16-579.12 266.7-403.86 121.92-701.04 121.92z"/><path d="m100218.5 68417.983q0-662.94 274.32-1165.86 281.94-502.92 731.52-769.62 457.2-266.7 952.5-266.7 960.12 0 1417.32 624.84 464.82 624.84 464.82 1600.2 0 662.94-281.94 1165.86-274.32 502.92-731.52 769.62-449.58 266.7-944.88 266.7-960.12 0-1424.94-624.84-457.2-624.84-457.2-1600.2zm1920.24 1828.8q586.74 0 906.78-449.58t320.04-1310.64q0-822.96-297.18-1348.74t-922.02-525.78q-586.74 0-914.4 449.58-320.04 449.58-320.04 1310.64 0 830.58 297.18 1356.36 304.8 518.16 929.64 518.16z"/><path d="m104744.78 70231.543 487.68-60.96v-3337.56l-586.74-129.54v-342.9l967.74-121.92 167.64 121.92v335.28l-7.62 190.5q281.94-243.84 739.14-449.58t830.58-205.74q411.48 0 655.32 137.16 251.46 137.16 381 426.72 236.22-198.12 685.8-381 457.2-182.88 838.2-182.88 480.06 0 739.14 182.88 266.7 182.88 373.38 563.88t106.68 1028.7v2164.08l579.12 60.96v327.66h-1706.88v-327.66l518.16-60.96v-2141.22q0-480.06-68.58-762t-266.7-426.72-579.12-144.78q-281.94 0-594.36 129.54-304.8 121.92-525.78 281.94 76.2 350.52 76.2 914.4v2148.84l579.12 60.96v327.66h-1744.98v-327.66l548.64-60.96v-2156.46q0-487.68-60.96-762-53.34-274.32-236.22-411.48t-541.02-137.16q-297.18 0-647.7 152.4-342.9 144.78-601.98 350.52v2964.18l541.02 60.96v327.66h-1645.92z"/><path d="m112296.2 69446.683q0-739.14 731.52-1066.8 731.52-335.28 1821.18-358.14v-236.22q0-388.62-83.82-609.6-76.2-228.6-274.32-327.66-198.12-106.68-556.26-106.68-388.62 0-708.66 121.92-312.42 114.3-609.6 281.94l-167.64-335.28q83.82-76.2 350.52-213.36t609.6-243.84 662.94-106.68q518.16 0 815.34 144.78 304.8 144.78 434.34 464.82 137.16 320.04 137.16 861.06v2514.6h472.44v281.94q-419.1 114.3-708.66 114.3-182.88 0-251.46-60.96-68.58-53.34-68.58-259.08v-281.94q-274.32 243.84-601.98 434.34-320.04 182.88-731.52 182.88-548.64 0-914.4-304.8-358.14-304.8-358.14-891.54zm1501.14 746.76q213.36 0 510.54-137.16t541.02-327.66v-1348.74q-922.02 7.62-1402.08 274.32-472.44 266.7-472.44 716.28 0 434.34 220.98 632.46 220.98 190.5 601.98 190.5z"/><path d="m118171.22 70643.023q-449.58 0-830.58-228.6-381-236.22-609.6-708.66t-228.6-1158.24q0-655.32 266.7-1181.1 266.7-533.4 754.38-838.2 495.3-312.42 1150.62-312.42 419.1 0 807.72 91.44v-1508.76l-792.48-76.2v-274.32l1249.68-129.54h15.24l144.78 106.68v5791.2h464.82v297.18q-38.1 7.62-259.08 60.96t-472.44 53.34q-175.26 0-251.46-60.96-68.58-60.96-68.58-266.7v-266.7q-236.22 259.08-579.12 434.34-335.28 175.26-762 175.26zm251.46-480.06q327.66 0 617.22-152.4 297.18-160.02 441.96-350.52v-2804.16q-60.96-106.68-320.04-182.88-251.46-76.2-541.02-76.2-655.32 0-1051.56 472.44-396.24 464.82-396.24 1417.32 0 853.44 350.52 1264.92t899.16 411.48z"/><path d="m121249.7 69446.683q0-739.14 731.52-1066.8 731.52-335.28 1821.18-358.14v-236.22q0-388.62-83.82-609.6-76.2-228.6-274.32-327.66-198.12-106.68-556.26-106.68-388.62 0-708.66 121.92-312.42 114.3-609.6 281.94l-167.64-335.28q83.82-76.2 350.52-213.36t609.6-243.84 662.94-106.68q518.16 0 815.34 144.78 304.8 144.78 434.34 464.82 137.16 320.04 137.16 861.06v2514.6h472.44v281.94q-419.1 114.3-708.66 114.3-182.88 0-251.46-60.96-68.58-53.34-68.58-259.08v-281.94q-274.32 243.84-601.98 434.34-320.04 182.88-731.52 182.88-548.64 0-914.4-304.8-358.14-304.8-358.14-891.54zm1501.14 746.76q213.36 0 510.54-137.16t541.02-327.66v-1348.74q-922.02 7.62-1402.08 274.32-472.44 266.7-472.44 716.28 0 434.34 220.98 632.46 220.98 190.5 601.98 190.5z"/><path d="m128930.66 70643.023q-449.58 0-830.58-228.6-381-236.22-609.6-708.66t-228.6-1158.24q0-655.32 266.7-1181.1 266.7-533.4 754.38-838.2 495.3-312.42 1150.62-312.42 419.1 0 807.72 91.44v-1508.76l-792.48-76.2v-274.32l1249.68-129.54h15.24l144.78 106.68v5791.2h464.82v297.18q-38.1 7.62-259.08 60.96t-472.44 53.34q-175.26 0-251.46-60.96-68.58-60.96-68.58-266.7v-266.7q-236.22 259.08-579.12 434.34-335.28 175.26-762 175.26zm251.46-480.06q327.66 0 617.22-152.4 297.18-160.02 441.96-350.52v-2804.16q-60.96-106.68-320.04-182.88-251.46-76.2-541.02-76.2-655.32 0-1051.56 472.44-396.24 464.82-396.24 1417.32 0 853.44 350.52 1264.92t899.16 411.48z"/><path d="m131963.42 68417.983q0-662.94 274.32-1165.86 281.94-502.92 731.52-769.62 457.2-266.7 952.5-266.7 960.12 0 1417.32 624.84 464.82 624.84 464.82 1600.2 0 662.94-281.94 1165.86-274.32 502.92-731.52 769.62-449.58 266.7-944.88 266.7-960.12 0-1424.94-624.84-457.2-624.84-457.2-1600.2zm1920.24 1828.8q586.74 0 906.78-449.58t320.04-1310.64q0-822.96-297.18-1348.74t-922.02-525.78q-586.74 0-914.4 449.58-320.04 449.58-320.04 1310.64 0 830.58 297.18 1356.36 304.8 518.16 929.64 518.16z"/><path d="m142364.72 68288.443q0 655.32-266.7 1196.34-266.7 533.4-762 845.82-487.68 312.42-1120.14 312.42-213.36 0-449.58-38.1-236.22-30.48-388.62-83.82l15.24 647.7v822.96l845.82 76.2v335.28h-2042.16v-335.28l586.74-76.2v-5158.74l-594.36-129.54v-342.9l975.36-121.92h15.24l137.16 121.92v464.82q243.84-251.46 594.36-426.72 350.52-182.88 784.86-182.88 441.96 0 822.96 220.98t609.6 685.8q236.22 464.82 236.22 1165.86zm-1920.24-1607.82q-327.66 0-609.6 137.16t-441.96 304.8v2903.22q60.96 99.06 304.8 182.88 251.46 76.2 548.64 76.2 655.32 0 1051.56-480.06 403.86-487.68 403.86-1432.56 0-845.82-358.14-1264.92-350.52-426.72-899.16-426.72z"/><path d="m143058.15 68417.983q0-662.94 274.32-1165.86 281.94-502.92 731.52-769.62 457.2-266.7 952.5-266.7 960.12 0 1417.32 624.84 464.82 624.84 464.82 1600.2 0 662.94-281.94 1165.86-274.32 502.92-731.52 769.62-449.58 266.7-944.88 266.7-960.12 0-1424.94-624.84-457.2-624.84-457.2-1600.2zm1920.24 1828.8q586.74 0 906.78-449.58t320.04-1310.64q0-822.96-297.18-1348.74t-922.02-525.78q-586.74 0-914.4 449.58-320.04 449.58-320.04 1310.64 0 830.58 297.18 1356.36 304.8 518.16 929.64 518.16z"/><path d="m149268.44 70643.023q-449.58 0-830.58-228.6-381-236.22-609.6-708.66t-228.6-1158.24q0-655.32 266.7-1181.1 266.7-533.4 754.38-838.2 495.3-312.42 1150.62-312.42 419.1 0 807.72 91.44v-1508.76l-792.48-76.2v-274.32l1249.68-129.54h15.24l144.78 106.68v5791.2h464.82v297.18q-38.1 7.62-259.08 60.96t-472.44 53.34q-175.26 0-251.46-60.96-68.58-60.96-68.58-266.7v-266.7q-236.22 259.08-579.12 434.34-335.28 175.26-762 175.26zm251.46-480.06q327.66 0 617.22-152.4 297.18-160.02 441.96-350.52v-2804.16q-60.96-106.68-320.04-182.88-251.46-76.2-541.02-76.2-655.32 0-1051.56 472.44-396.24 464.82-396.24 1417.32 0 853.44 350.52 1264.92t899.16 411.48z"/><path d="m154152.86 70643.023q-883.92 0-1363.98-601.98-472.44-609.6-472.44-1615.44 0-647.7 251.46-1150.62t693.42-777.24q449.58-281.94 1005.84-281.94 678.18 0 1051.56 388.62 381 388.62 411.48 1120.14 0 472.44-45.72 670.56h-2712.72q0 800.1 358.14 1310.64 365.76 502.92 1021.08 502.92 320.04 0 655.32-114.3t518.16-274.32l121.92 281.94q-220.98 228.6-647.7 388.62-419.1 152.4-845.82 152.4zm891.54-2606.04q22.86-160.02 22.86-335.28-7.62-502.92-243.84-800.1-228.6-297.18-708.66-297.18-1043.94 0-1135.38 1432.56z"/><path d="m156446.49 70239.163 609.6-45.72v-3360.42l-586.74-129.54v-342.9l967.74-121.92h15.24l144.78 121.92v121.92l-15.24 579.12h15.24q15.24-15.24 198.12-228.6 190.5-220.98 556.26-419.1 373.38-198.12 746.76-198.12 121.92 0 228.6 30.48v670.56q-30.48-22.86-137.16-45.72-99.06-22.86-213.36-22.86-434.34 0-739.14 129.54t-563.88 320.04v2887.98l1013.46 60.96v312.42h-2240.28z"/><path d="m160789.89 67473.103q-175.26 0-297.18-114.3-121.92-121.92-121.92-312.42 0-213.36 144.78-358.14 152.4-144.78 350.52-144.78 205.74 0 304.8 121.92 106.68 121.92 106.68 304.8 0 213.36-144.78 358.14t-342.9 144.78zm22.86 2026.92q243.84 0 388.62 228.6t144.78 647.7-121.92 792.48-312.42 640.08-381 381h-7.62l-220.98-152.4v-68.58q91.44-68.58 198.12-281.94 114.3-205.74 190.5-480.06 83.82-274.32 83.82-533.4 0-114.3-45.72-182.88-38.1-68.58-121.92-160.02-99.06-99.06-152.4-190.5-45.72-91.44-45.72-251.46 0-175.26 106.68-281.94 114.3-106.68 266.7-106.68z"/></g><g aria-label="Sociedade igualitária."><path d="m40485.32 84359.015q-388.62 0-685.8-68.58t-685.8-190.5q-259.08-83.82-312.42-91.44l60.96-1356.36h396.24l114.3 998.22q144.78 137.16 457.2 236.22 320.04 99.06 693.42 99.06 617.22 0 944.88-281.94t327.66-777.24q0-320.04-175.26-541.02-167.64-220.98-441.96-373.38-266.7-152.4-746.76-358.14-449.58-190.5-769.62-381-312.42-190.5-548.64-510.54-236.22-327.66-236.22-777.24 0-419.1 228.6-746.76t632.46-502.92q411.48-182.88 937.26-182.88 320.04 0 563.88 53.34 251.46 45.72 632.46 152.4 205.74 60.96 243.84 68.58l-45.72 1249.68h-381l-137.16-944.88q-91.44-76.2-358.14-144.78-259.08-76.2-556.26-76.2-563.88 0-861.06 236.22-297.18 228.6-297.18 685.8 0 312.42 160.02 525.78 160.02 205.74 411.48 350.52t777.24 388.62q548.64 259.08 853.44 449.58 312.42 182.88 541.02 487.68 236.22 297.18 236.22 723.9 0 403.86-236.22 777.24-236.22 365.76-685.8 594.36t-1051.56 228.6z"/><path d="m43129.463 82133.975q0-662.94 274.32-1165.86 281.94-502.92 731.519-769.62 457.201-266.7 952.5-266.7 960.121 0 1417.32 624.84 464.82 624.84 464.82 1600.2 0 662.94-281.939 1165.86-274.32 502.92-731.52 769.62-449.581 266.7-944.88 266.7-960.12 0-1424.94-624.84-457.2-624.84-457.2-1600.2zm1920.24 1828.8q586.739 0 906.78-449.58 320.04-449.58 320.04-1310.64 0-822.96-297.18-1348.74t-922.02-525.78q-586.741 0-914.4 449.58-320.04 449.58-320.04 1310.64 0 830.58 297.18 1356.36 304.8 518.16 929.64 518.16z"/><path d="m47579.541 82187.315q0-617.22 236.22-1127.76 243.84-518.16 716.28-822.96 480.06-304.8 1165.86-304.8 297.18 0 579.12 76.2 281.94 68.58 487.68 152.4l-30.48 1089.66h-381l-160.02-731.52q-45.72-228.6-655.32-228.6-594.36 0-952.5 457.2-350.52 457.2-350.52 1249.68 0 944.88 381 1432.56t990.6 487.68q320.04 0 617.22-106.68 304.8-106.68 502.92-243.84l121.92 251.46q-220.98 220.98-609.6 381t-769.62 160.02q-601.98 0-1028.7-281.94-426.72-289.56-647.7-777.24-213.36-495.3-213.36-1112.52z"/><path d="m52433.483 79245.995q-411.48 0-411.48-434.34 0-220.98 129.54-358.14 129.54-144.78 350.52-144.78 228.6 0 327.66 129.54 99.06 121.92 99.06 304.8 0 236.22-129.54 373.38-121.92 129.54-358.14 129.54zm-243.84 1303.02-594.36-129.54v-342.9l1043.94-121.92h15.24l152.4 121.92v3817.62l662.94 53.34v327.66h-1950.72v-327.66l670.56-60.96z"/><path d="m55862.482 84359.015q-883.92 0-1363.98-601.98-472.44-609.6-472.44-1615.44 0-647.7 251.46-1150.62t693.42-777.24q449.58-281.94 1005.84-281.94 678.18 0 1051.56 388.62 381 388.62 411.48 1120.14 0 472.44-45.72 670.56h-2712.72q0 800.1 358.14 1310.64 365.76 502.92 1021.08 502.92 320.04 0 655.32-114.3t518.16-274.32l121.92 281.94q-220.98 228.6-647.7 388.62-419.1 152.4-845.82 152.4zm891.54-2606.04q22.86-160.02 22.86-335.28-7.62-502.92-243.84-800.1-228.6-297.18-708.66-297.18-1043.94 0-1135.38 1432.56z"/><path d="m59802.019 84359.015q-449.58 0-830.58-228.6-381-236.22-609.6-708.66t-228.6-1158.24q0-655.32 266.7-1181.1 266.7-533.4 754.38-838.2 495.3-312.42 1150.62-312.42 419.1 0 807.72 91.44v-1508.76l-792.48-76.2v-274.32l1249.68-129.54h15.24l144.78 106.68v5791.2h464.82v297.18q-38.1 7.62-259.08 60.96t-472.44 53.34q-175.26 0-251.46-60.96-68.58-60.96-68.58-266.7v-266.7q-236.22 259.08-579.12 434.34-335.28 175.26-762 175.26zm251.46-480.06q327.66 0 617.22-152.4 297.18-160.02 441.96-350.52v-2804.16q-60.96-106.68-320.04-182.88-251.46-76.2-541.02-76.2-655.32 0-1051.56 472.44-396.24 464.82-396.24 1417.32 0 853.44 350.52 1264.92t899.16 411.48z"/><path d="m62880.499 83162.675q0-739.14 731.52-1066.8 731.52-335.28 1821.18-358.14v-236.22q0-388.62-83.82-609.6-76.2-228.6-274.32-327.66-198.12-106.68-556.26-106.68-388.62 0-708.66 121.92-312.42 114.3-609.6 281.94l-167.64-335.28q83.82-76.2 350.52-213.36t609.6-243.84 662.94-106.68q518.16 0 815.34 144.78 304.8 144.78 434.34 464.82 137.16 320.04 137.16 861.06v2514.6h472.44v281.94q-419.1 114.3-708.66 114.3-182.88 0-251.46-60.96-68.58-53.34-68.58-259.08v-281.94q-274.32 243.84-601.98 434.34-320.04 182.88-731.52 182.88-548.64 0-914.4-304.8-358.14-304.8-358.14-891.54zm1501.14 746.76q213.36 0 510.54-137.16t541.02-327.66v-1348.74q-922.02 7.62-1402.08 274.32-472.44 266.7-472.44 716.28 0 434.34 220.98 632.46 220.98 190.5 601.98 190.5z"/><path d="m68755.519 84359.015q-449.58 0-830.58-228.6-381-236.22-609.6-708.66t-228.6-1158.24q0-655.32 266.7-1181.1 266.7-533.4 754.38-838.2 495.3-312.42 1150.62-312.42 419.1 0 807.72 91.44v-1508.76l-792.48-76.2v-274.32l1249.68-129.54h15.24l144.78 106.68v5791.2h464.82v297.18q-38.1 7.62-259.08 60.96t-472.44 53.34q-175.26 0-251.46-60.96-68.58-60.96-68.58-266.7v-266.7q-236.22 259.08-579.12 434.34-335.28 175.26-762 175.26zm251.46-480.06q327.66 0 617.22-152.4 297.18-160.02 441.96-350.52v-2804.16q-60.96-106.68-320.04-182.88-251.46-76.2-541.02-76.2-655.32 0-1051.56 472.44-396.24 464.82-396.24 1417.32 0 853.44 350.52 1264.92t899.16 411.48z"/><path d="m73639.943 84359.015q-883.92 0-1363.98-601.98-472.44-609.6-472.44-1615.44 0-647.7 251.46-1150.62t693.42-777.24q449.58-281.94 1005.84-281.94 678.18 0 1051.56 388.62 381 388.62 411.48 1120.14 0 472.44-45.72 670.56h-2712.72q0 800.1 358.14 1310.64 365.76 502.92 1021.08 502.92 320.04 0 655.32-114.3t518.16-274.32l121.92 281.94q-220.98 228.6-647.7 388.62-419.1 152.4-845.82 152.4zm891.54-2606.04q22.86-160.02 22.86-335.28-7.62-502.92-243.84-800.1-228.6-297.18-708.66-297.18-1043.94 0-1135.38 1432.56z"/><path d="m78600.557 79245.995q-411.48 0-411.48-434.34 0-220.98 129.54-358.14 129.54-144.78 350.52-144.78 228.6 0 327.66 129.54 99.06 121.92 99.06 304.8 0 236.22-129.54 373.38-121.92 129.54-358.14 129.54zm-243.84 1303.02-594.36-129.54v-342.9l1043.94-121.92h15.24l152.4 121.92v3817.62l662.94 53.34v327.66h-1950.72v-327.66l670.56-60.96z"/><path d="m81983.84 86332.595q-1798.32 0-1798.32-1143 0-342.9 205.74-624.84 213.36-281.94 502.92-441.96-358.14-190.5-358.14-632.46 0-281.94 160.02-525.78 160.02-251.46 411.48-381-358.14-167.64-563.88-472.44-198.12-312.42-198.12-723.9 0-441.96 243.84-769.62 243.84-335.28 632.46-510.54 396.24-175.26 822.96-175.26 708.66 0 1135.38 312.42 114.3-106.68 350.52-205.74 243.84-106.68 518.16-106.68h251.46v563.88h-868.68q220.98 304.8 220.98 739.14 0 449.58-228.6 800.1-228.6 342.9-617.22 533.4-381 190.5-845.82 190.5-312.42 0-571.5-68.58-137.16 106.68-220.98 251.46-76.2 137.16-76.2 281.94 0 289.56 182.88 403.86 190.5 114.3 655.32 114.3h899.16q708.66 0 1043.94 274.32 342.9 274.32 342.9 769.62 0 411.48-297.18 762-297.18 358.14-815.34 571.5-510.54 213.36-1120.14 213.36zm53.34-3947.16q967.74 0 967.74-1066.8 0-1013.46-1005.84-1013.46t-1005.84 998.22q0 480.06 259.08 784.86 259.08 297.18 784.86 297.18zm-15.24 3558.54q411.48 0 784.86-121.92 373.38-114.3 601.98-342.9 228.6-220.98 228.6-518.16 0-236.22-76.2-381-68.58-144.78-281.94-228.6-205.74-76.2-601.98-76.2h-944.88q-365.76 0-556.26-45.72-373.38 358.14-373.38 838.2 0 434.34 274.32 655.32t944.88 220.98z"/><path d="m88217.001 84343.775q-198.12 0-289.56-68.58t-91.44-251.46v-297.18q-281.94 251.46-662.94 441.96t-762 190.5q-693.42 0-990.6-388.62-289.56-388.62-289.56-1264.92v-2240.28l-449.58-129.54v-281.94l922.02-99.06h7.62l137.16 91.44v2567.94q0 480.06 68.58 754.38 68.58 266.7 251.46 396.24t533.4 129.54q335.28 0 640.08-144.78t525.78-342.9v-2941.32l-579.12-129.54v-281.94l1013.46-99.06h7.62l175.26 91.44v3893.82h472.44l-7.62 289.56q-38.1 7.62-220.98 60.96t-411.48 53.34z"/><path d="m89558.12 83162.675q0-739.14 731.52-1066.8 731.52-335.28 1821.18-358.14v-236.22q0-388.62-83.82-609.6-76.2-228.6-274.32-327.66-198.12-106.68-556.26-106.68-388.62 0-708.66 121.92-312.42 114.3-609.6 281.94l-167.64-335.28q83.82-76.2 350.52-213.36t609.6-243.84 662.94-106.68q518.16 0 815.34 144.78 304.8 144.78 434.34 464.82 137.16 320.04 137.16 861.06v2514.6h472.44v281.94q-419.1 114.3-708.66 114.3-182.88 0-251.46-60.96-68.58-53.34-68.58-259.08v-281.94q-274.32 243.84-601.98 434.34-320.04 182.88-731.52 182.88-548.64 0-914.4-304.8-358.14-304.8-358.14-891.54zm1501.14 746.76q213.36 0 510.54-137.16t541.02-327.66v-1348.74q-922.02 7.62-1402.08 274.32-472.44 266.7-472.44 716.28 0 434.34 220.98 632.46 220.98 190.5 601.98 190.5z"/><path d="m94381.584 78514.475-647.7-68.58v-281.94l1112.52-129.54h7.62l144.78 99.06v5760.72l716.28 53.34v327.66h-2004.06v-327.66l670.56-60.96z"/><path d="m97155.26 79245.995q-411.48 0-411.48-434.34 0-220.98 129.54-358.14 129.54-144.78 350.52-144.78 228.6 0 327.66 129.54 99.06 121.92 99.06 304.8 0 236.22-129.54 373.38-121.92 129.54-358.14 129.54zm-243.84 1303.02-594.36-129.54v-342.9l1043.94-121.92h15.24l152.4 121.92v3817.62l662.94 53.34v327.66h-1950.72v-327.66l670.56-60.96z"/><path d="m100050.86 84359.015q-403.857 0-609.597-182.88-205.74-190.5-205.74-670.56v-3009.9h-579.12v-297.18q381-83.82 441.96-121.92 114.3-60.96 167.64-236.22 45.72-114.3 121.92-411.48t114.3-464.82h350.52v1082.04h1348.737v449.58h-1348.737v2468.88q0 441.96 30.48 624.84 30.48 175.26 121.917 228.6 91.44 53.34 320.04 53.34 220.98 0 495.3-60.96t411.48-129.54l99.06 289.56q-175.26 137.16-579.12 266.7-403.86 121.92-701.04 121.92z"/><path d="m101872.04 83162.675q0-739.14 731.52-1066.8 731.52-335.28 1821.18-358.14v-236.22q0-388.62-83.82-609.6-76.2-228.6-274.32-327.66-198.12-106.68-556.26-106.68-388.62 0-708.66 121.92-312.42 114.3-609.6 281.94l-167.64-335.28q83.82-76.2 350.52-213.36t609.6-243.84 662.94-106.68q518.16 0 815.34 144.78 304.8 144.78 434.34 464.82 137.16 320.04 137.16 861.06v2514.6h472.44v281.94q-419.1 114.3-708.66 114.3-182.88 0-251.46-60.96-68.58-53.34-68.58-259.08v-281.94q-274.32 243.84-601.98 434.34-320.04 182.88-731.52 182.88-548.64 0-914.4-304.8-358.14-304.8-358.14-891.54zm1501.14 746.76q213.36 0 510.54-137.16t541.02-327.66v-1348.74q-922.02 7.62-1402.08 274.32-472.44 266.7-472.44 716.28 0 434.34 220.98 632.46 220.98 190.5 601.98 190.5zm-350.52-4861.56 1181.1-1470.66 518.16 419.1q-152.4 228.6-678.18 685.8-518.16 449.58-784.86 571.5z"/><path d="m106101.15 83955.155 609.6-45.72v-3360.42l-586.74-129.54v-342.9l967.74-121.92h15.24l144.78 121.92v121.92l-15.24 579.12h15.24q15.24-15.24 198.12-228.6 190.5-220.98 556.26-419.1 373.38-198.12 746.76-198.12 121.92 0 228.6 30.48v670.56q-30.48-22.86-137.16-45.72-99.06-22.86-213.36-22.86-434.34 0-739.14 129.54t-563.88 320.04v2887.98l1013.46 60.96v312.42h-2240.28z"/><path d="m110391.21 79245.995q-411.48 0-411.48-434.34 0-220.98 129.54-358.14 129.54-144.78 350.52-144.78 228.6 0 327.66 129.54 99.06 121.92 99.06 304.8 0 236.22-129.54 373.38-121.92 129.54-358.14 129.54zm-243.84 1303.02-594.36-129.54v-342.9l1043.94-121.92h15.24l152.4 121.92v3817.62l662.94 53.34v327.66h-1950.72v-327.66l670.56-60.96z"/><path d="m112014.26 83162.675q0-739.14 731.52-1066.8 731.52-335.28 1821.18-358.14v-236.22q0-388.62-83.82-609.6-76.2-228.6-274.32-327.66-198.12-106.68-556.26-106.68-388.62 0-708.66 121.92-312.42 114.3-609.6 281.94l-167.64-335.28q83.82-76.2 350.52-213.36t609.6-243.84 662.94-106.68q518.16 0 815.34 144.78 304.8 144.78 434.34 464.82 137.16 320.04 137.16 861.06v2514.6h472.44v281.94q-419.1 114.3-708.66 114.3-182.88 0-251.46-60.96-68.58-53.34-68.58-259.08v-281.94q-274.32 243.84-601.98 434.34-320.04 182.88-731.52 182.88-548.64 0-914.4-304.8-358.14-304.8-358.14-891.54zm1501.14 746.76q213.36 0 510.54-137.16t541.02-327.66v-1348.74q-922.02 7.62-1402.08 274.32-472.44 266.7-472.44 716.28 0 434.34 220.98 632.46 220.98 190.5 601.98 190.5z"/><path d="m116776.76 84359.015q-175.26 0-297.18-114.3-121.92-121.92-121.92-312.42 0-213.36 144.78-358.14 152.4-144.78 350.52-144.78 205.74 0 304.8 121.92 106.68 121.92 106.68 304.8 0 213.36-144.78 358.14t-342.9 144.78z"/></g></g><g stroke-width=".329913"><g transform="matrix(3.0311151,0,0,3.0311151,-57006.177,-237548.91)"><path d="m28479.452 95369.918c156.184 135.02 255.159 324.34 276.751 529.66 21.588 205.33-35.829 411.27-160.509 575.82-130.887 164.7-320.449 272.17-528.979 299.9-208.528 27.72-400.323-9.74-569.699-134.5-13.223-8.93-34.668-0.84-47.244 6.13-7.486 4.14-33.234 38.95-57.912 69.41-20.854-12.95-43.386-29.5-52.363-27.75 0 0-5.042 11.71-6.616 17.87-17.812 69.62-87.083 159.57-133.629 214.05-25.213 29.52-185.21 190.43-324.672 359.08-77.591 93.83-171.821 240.28-177.998 247.6-24.087 28.55-4.611 52.45-4.611 52.45s28.933 26.48 44.41 38.48c15.571 12.06 48.57 33.64 48.57 33.64s27.77 12.84 49.461-17.58c5.562-7.8 124.11-135.34 195.763-233.78 128.79-176.92 245.014-371.71 267.353-403.46 41.239-58.59 111.253-148.11 174.284-182.63 5.569-3.05 15.778-10.93 15.778-10.93-0.438-7.66-18.892-21.81-33.453-36.63 26.911-27.41 57.793-67.31 76.172-49.91 175.657 136.6 398.483 197.73 619.287 170.11 220.801-27.61 421.492-141.7 558.098-317.36 136.606-175.65 216.43-401.51 170.241-619.19-52.271-246.34-155.537-481.73-398.482-580.48z" fill="#ed4e38" style="paint-order:fill markers stroke"/><g transform="rotate(4.7574269,178373.68,71098.412)" stroke-width=".329913"><g transform="translate(9702.9621,2327.6761)" stroke-width=".329913"><path d="m20635.038 105655.32c-7.394 8.98-14.061 18.32-20.433 27.69l-511.605 621.53c-9.436 11.46-7.814 28.23 3.655 37.67l221.653 182.45c11.457 9.43 28.236 7.81 37.673-3.66l301.705-366.52c98.518 67.94 865.519 750.13 1267.84 1073.95 87.57 70.49 275.157 194.98 275.157 194.98 23.375 19.24 57.619 16.14 76.86-7.24l21.066-25.59c19.241-23.38 14.913-56.67-7.474-77.06 0 0-168.715-165.22-261.396-238.01-393.682-309.19-1202.077-943.54-1280.634-1032.09l118.479-143.93c30.204-30.88 58.316-69.88 71.92-102.7l173.392-419.76c20.021-48.46 0.973-64.13-42.733-35.18l-378.608 250.84c-21.858 14.48-45.733 37.38-66.518 62.63z" fill="#ed4e38" style="paint-order:fill markers stroke"/></g></g></g><g transform="matrix(3.0311151,0,0,3.0311151,-57006.177,-223832.91)"><path d="m28479.452 95369.918c156.184 135.02 255.159 324.34 276.751 529.66 21.588 205.33-35.829 411.27-160.509 575.82-130.887 164.7-320.449 272.17-528.979 299.9-208.528 27.72-400.323-9.74-569.699-134.5-13.223-8.93-34.668-0.84-47.244 6.13-7.486 4.14-33.234 38.95-57.912 69.41-20.854-12.95-43.386-29.5-52.363-27.75 0 0-5.042 11.71-6.616 17.87-17.812 69.62-87.083 159.57-133.629 214.05-25.213 29.52-185.21 190.43-324.672 359.08-77.591 93.83-171.821 240.28-177.998 247.6-24.087 28.55-4.611 52.45-4.611 52.45s28.933 26.48 44.41 38.48c15.571 12.06 48.57 33.64 48.57 33.64s27.77 12.84 49.461-17.58c5.562-7.8 124.11-135.34 195.763-233.78 128.79-176.92 245.014-371.71 267.353-403.46 41.239-58.59 111.253-148.11 174.284-182.63 5.569-3.05 15.778-10.93 15.778-10.93-0.438-7.66-18.892-21.81-33.453-36.63 26.911-27.41 57.793-67.31 76.172-49.91 175.657 136.6 398.483 197.73 619.287 170.11 220.801-27.61 421.492-141.7 558.098-317.36 136.606-175.65 216.43-401.51 170.241-619.19-52.271-246.34-155.537-481.73-398.482-580.48z" fill="#ed4e38" style="paint-order:fill markers stroke"/><g transform="rotate(4.7574269,178373.68,71098.412)" stroke-width=".329913"><g transform="translate(9702.9621,2327.6761)" stroke-width=".329913"><path d="m20635.038 105655.32c-7.394 8.98-14.061 18.32-20.433 27.69l-511.605 621.53c-9.436 11.46-7.814 28.23 3.655 37.67l221.653 182.45c11.457 9.43 28.236 7.81 37.673-3.66l301.705-366.52c98.518 67.94 865.519 750.13 1267.84 1073.95 87.57 70.49 275.157 194.98 275.157 194.98 23.375 19.24 57.619 16.14 76.86-7.24l21.066-25.59c19.241-23.38 14.913-56.67-7.474-77.06 0 0-168.715-165.22-261.396-238.01-393.682-309.19-1202.077-943.54-1280.634-1032.09l118.479-143.93c30.204-30.88 58.316-69.88 71.92-102.7l173.392-419.76c20.021-48.46 0.973-64.13-42.733-35.18l-378.608 250.84c-21.858 14.48-45.733 37.38-66.518 62.63z" fill="#ed4e38" style="paint-order:fill markers stroke"/></g></g></g><g transform="matrix(3.0311151,0,0,3.0311151,-57006.177,-210116.92)"><path d="m28479.452 95369.918c156.184 135.02 255.159 324.34 276.751 529.66 21.588 205.33-35.829 411.27-160.509 575.82-130.887 164.7-320.449 272.17-528.979 299.9-208.528 27.72-400.323-9.74-569.699-134.5-13.223-8.93-34.668-0.84-47.244 6.13-7.486 4.14-33.234 38.95-57.912 69.41-20.854-12.95-43.386-29.5-52.363-27.75 0 0-5.042 11.71-6.616 17.87-17.812 69.62-87.083 159.57-133.629 214.05-25.213 29.52-185.21 190.43-324.672 359.08-77.591 93.83-171.821 240.28-177.998 247.6-24.087 28.55-4.611 52.45-4.611 52.45s28.933 26.48 44.41 38.48c15.571 12.06 48.57 33.64 48.57 33.64s27.77 12.84 49.461-17.58c5.562-7.8 124.11-135.34 195.763-233.78 128.79-176.92 245.014-371.71 267.353-403.46 41.239-58.59 111.253-148.11 174.284-182.63 5.569-3.05 15.778-10.93 15.778-10.93-0.438-7.66-18.892-21.81-33.453-36.63 26.911-27.41 57.793-67.31 76.172-49.91 175.657 136.6 398.483 197.73 619.287 170.11 220.801-27.61 421.492-141.7 558.098-317.36 136.606-175.65 216.43-401.51 170.241-619.19-52.271-246.34-155.537-481.73-398.482-580.48z" fill="#ed4e38" style="paint-order:fill markers stroke"/><g transform="rotate(4.7574269,178373.68,71098.412)" stroke-width=".329913"><g transform="translate(9702.9621,2327.6761)" stroke-width=".329913"><path d="m20635.038 105655.32c-7.394 8.98-14.061 18.32-20.433 27.69l-511.605 621.53c-9.436 11.46-7.814 28.23 3.655 37.67l221.653 182.45c11.457 9.43 28.236 7.81 37.673-3.66l301.705-366.52c98.518 67.94 865.519 750.13 1267.84 1073.95 87.57 70.49 275.157 194.98 275.157 194.98 23.375 19.24 57.619 16.14 76.86-7.24l21.066-25.59c19.241-23.38 14.913-56.67-7.474-77.06 0 0-168.715-165.22-261.396-238.01-393.682-309.19-1202.077-943.54-1280.634-1032.09l118.479-143.93c30.204-30.88 58.316-69.88 71.92-102.7l173.392-419.76c20.021-48.46 0.973-64.13-42.733-35.18l-378.608 250.84c-21.858 14.48-45.733 37.38-66.518 62.63z" fill="#ed4e38" style="paint-order:fill markers stroke"/></g></g></g></g></g></g></g></svg>
