<svg height="540" viewBox="0 0 960 540" width="960" xml:space="preserve" xmlns="http://www.w3.org/2000/svg"><g transform="matrix(1.3333333 0 0 -1.3333333 0 540)"><path d="m16589 17801h336708v22908h-336708z" fill="none" transform="matrix(.0019685 0 0 -.0019685 0 405)"/><text fill="#ed4e38" font-family="Oswald" font-size="33.6" font-weight="bold" letter-spacing="4.0000081" transform="matrix(.7499985 0 0 -.7499985 39.405435 339.016794)"><tspan x="0" y="0">SOCIALISMO CIENTÍFICO </tspan></text><path d="m16589 46099h329112v136656h-329112z" fill="none" transform="matrix(.0019685 0 0 -.0019685 0 405)"/><g fill="#ed4e38"><g font-family="Merriweather" font-size="20" font-weight="300" transform="matrix(.7499985 0 0 -.7499985 32.655448 314.25412)"><text x="57" y="28.199999"><tspan x="57 68.760002 80.660004 90.839996 97.32 108.46 115.04 121.52 132.54001 143.67999 153.86 165 176.89999 181.64 194 205.89999 215.82001 220.56 240.24001 251.03999 257.52002 269.41998 279.34 284.08002 296.44 307.23999 311.97998 324.45999 333.45999 345.35999 357.72 370.28 380.45999 391.60001 403.5" y="28.199999">Socialização dos meios de produção;</tspan></text><text x="57" y="64.199997"><tspan x="57 69.82 76.400002 87.540001 100.6 107.08 121.46 131.64 142.78 152.95999 164.10001 176 180.73999 193.10001 204.24001 208.98 219.78 229.96001 241.86 254.92 266.82001 286.5 292.97998 304.12" y="64.199997">Planiﬁcação da economia;</tspan></text><text x="57" y="100.19999"><tspan x="57 71.379997 76.120003 88.459999 94.940002 114.62 119.36 131.72 142.86 147.60001 160.08 169.08 180.98001 193.46001 202.46001 208.94 219.74001 232.10001 243.24001 255.60001 266.39999 271.14001 283.62 292.62 299.10001 310.41998 321.56 333.92001 345.06" y="100.19999">O Fim da propriedade privada;</tspan></text><text x="57" y="136.19998"><tspan x="57 70.860001 81.660004 88.239998 99.380005 109.56 120.7 132.60001 137.34 147.51999 159.42 179.10001 183.84 197.7 209.60001 222.16 232.08 242 252.8 263.94 276.5" y="136.19998">Relação com Rousseau.</tspan></text></g><g stroke-width=".329913"><g transform="matrix(.00596675 0 0 -.00596675 -112.21666 872.61503)"><path d="m28479.452 95369.918c156.184 135.02 255.159 324.34 276.751 529.66 21.588 205.33-35.829 411.27-160.509 575.82000000001-130.887 164.7-320.449 272.17-528.979 299.89999999999-208.528 27.72-400.323-9.74000000001-569.699-134.5-13.223-8.92999999999-34.668-.84-47.244 6.13-7.486 4.14-33.234 38.95-57.912 69.41-20.854-12.95-43.386-29.5-52.363-27.75 0 0-5.042 11.71000000001-6.616 17.87-17.812 69.62-87.083 159.57000000001-133.629 214.05-25.213 29.52-185.21 190.42999999999-324.672 359.08-77.591 93.83-171.821 240.28-177.998 247.60000000001-24.087 28.55-4.611 52.45-4.611 52.45s28.933 26.48 44.41 38.48c15.571 12.06 48.57 33.64 48.57 33.64s27.77 12.84 49.461-17.58c5.562-7.8 124.11-135.34 195.763-233.78 128.79-176.92 245.014-371.71000000001 267.353-403.46000000001 41.239-58.59 111.253-148.11 174.284-182.63 5.569-3.05 15.778-10.92999999999 15.778-10.92999999999-.438-7.66-18.892-21.81-33.453-36.63 26.911-27.41 57.793-67.31 76.172-49.91 175.657 136.60000000001 398.483 197.73 619.287 170.11 220.801-27.61 421.492-141.7 558.098-317.36 136.606-175.64999999999 216.43-401.50999999999 170.241-619.19-52.271-246.34-155.537-481.73-398.482-580.48z"/><path d="m20635.038 105655.32c-7.394 8.98-14.061 18.32000000001-20.433 27.69l-511.605 621.53c-9.436 11.46000000001-7.814 28.23 3.655 37.67l221.653 182.45c11.457 9.42999999999 28.236 7.81 37.673-3.66l301.705-366.52c98.518 67.94 865.519 750.13 1267.84 1073.95 87.57 70.49000000001 275.157 194.98 275.157 194.98 23.375 19.24000000001 57.619 16.14 76.86-7.24000000001l21.066-25.59c19.241-23.38 14.913-56.67-7.474-77.06 0 0-168.715-165.22-261.396-238.00999999999-393.682-309.19-1202.077-943.53999999999-1280.634-1032.09l118.479-143.92999999999c30.204-30.88 58.316-69.88 71.92-102.7l173.392-419.75999999999c20.021-48.46000000001.973-64.13-42.733-35.17999999999l-378.608 250.84c-21.858 14.48-45.733 37.38-66.518 62.63z" stroke-width=".329913" transform="matrix(.99655476 .08293739 -.08293739 .99655476 15987.73819 -11424.500531)"/></g><g transform="matrix(.00596675 0 0 -.00596675 -112.21666 845.61508)"><path d="m28479.452 95369.918c156.184 135.02 255.159 324.34 276.751 529.66 21.588 205.33-35.829 411.27-160.509 575.82000000001-130.887 164.7-320.449 272.17-528.979 299.89999999999-208.528 27.72-400.323-9.74000000001-569.699-134.5-13.223-8.92999999999-34.668-.84-47.244 6.13-7.486 4.14-33.234 38.95-57.912 69.41-20.854-12.95-43.386-29.5-52.363-27.75 0 0-5.042 11.71000000001-6.616 17.87-17.812 69.62-87.083 159.57000000001-133.629 214.05-25.213 29.52-185.21 190.42999999999-324.672 359.08-77.591 93.83-171.821 240.28-177.998 247.60000000001-24.087 28.55-4.611 52.45-4.611 52.45s28.933 26.48 44.41 38.48c15.571 12.06 48.57 33.64 48.57 33.64s27.77 12.84 49.461-17.58c5.562-7.8 124.11-135.34 195.763-233.78 128.79-176.92 245.014-371.71000000001 267.353-403.46000000001 41.239-58.59 111.253-148.11 174.284-182.63 5.569-3.05 15.778-10.92999999999 15.778-10.92999999999-.438-7.66-18.892-21.81-33.453-36.63 26.911-27.41 57.793-67.31 76.172-49.91 175.657 136.60000000001 398.483 197.73 619.287 170.11 220.801-27.61 421.492-141.7 558.098-317.36 136.606-175.64999999999 216.43-401.50999999999 170.241-619.19-52.271-246.34-155.537-481.73-398.482-580.48z"/><path d="m20635.038 105655.32c-7.394 8.98-14.061 18.32000000001-20.433 27.69l-511.605 621.53c-9.436 11.46000000001-7.814 28.23 3.655 37.67l221.653 182.45c11.457 9.42999999999 28.236 7.81 37.673-3.66l301.705-366.52c98.518 67.94 865.519 750.13 1267.84 1073.95 87.57 70.49000000001 275.157 194.98 275.157 194.98 23.375 19.24000000001 57.619 16.14 76.86-7.24000000001l21.066-25.59c19.241-23.38 14.913-56.67-7.474-77.06 0 0-168.715-165.22-261.396-238.00999999999-393.682-309.19-1202.077-943.53999999999-1280.634-1032.09l118.479-143.92999999999c30.204-30.88 58.316-69.88 71.92-102.7l173.392-419.75999999999c20.021-48.46000000001.973-64.13-42.733-35.17999999999l-378.608 250.84c-21.858 14.48-45.733 37.38-66.518 62.63z" stroke-width=".329913" transform="matrix(.99655476 .08293739 -.08293739 .99655476 15987.73819 -11424.500531)"/></g><g transform="matrix(.00596675 0 0 -.00596675 -112.21666 818.61515)"><path d="m28479.452 95369.918c156.184 135.02 255.159 324.34 276.751 529.66 21.588 205.33-35.829 411.27-160.509 575.82000000001-130.887 164.7-320.449 272.17-528.979 299.89999999999-208.528 27.72-400.323-9.74000000001-569.699-134.5-13.223-8.92999999999-34.668-.84-47.244 6.13-7.486 4.14-33.234 38.95-57.912 69.41-20.854-12.95-43.386-29.5-52.363-27.75 0 0-5.042 11.71000000001-6.616 17.87-17.812 69.62-87.083 159.57000000001-133.629 214.05-25.213 29.52-185.21 190.42999999999-324.672 359.08-77.591 93.83-171.821 240.28-177.998 247.60000000001-24.087 28.55-4.611 52.45-4.611 52.45s28.933 26.48 44.41 38.48c15.571 12.06 48.57 33.64 48.57 33.64s27.77 12.84 49.461-17.58c5.562-7.8 124.11-135.34 195.763-233.78 128.79-176.92 245.014-371.71000000001 267.353-403.46000000001 41.239-58.59 111.253-148.11 174.284-182.63 5.569-3.05 15.778-10.92999999999 15.778-10.92999999999-.438-7.66-18.892-21.81-33.453-36.63 26.911-27.41 57.793-67.31 76.172-49.91 175.657 136.60000000001 398.483 197.73 619.287 170.11 220.801-27.61 421.492-141.7 558.098-317.36 136.606-175.64999999999 216.43-401.50999999999 170.241-619.19-52.271-246.34-155.537-481.73-398.482-580.48z"/><path d="m20635.038 105655.32c-7.394 8.98-14.061 18.32000000001-20.433 27.69l-511.605 621.53c-9.436 11.46000000001-7.814 28.23 3.655 37.67l221.653 182.45c11.457 9.42999999999 28.236 7.81 37.673-3.66l301.705-366.52c98.518 67.94 865.519 750.13 1267.84 1073.95 87.57 70.49000000001 275.157 194.98 275.157 194.98 23.375 19.24000000001 57.619 16.14 76.86-7.24000000001l21.066-25.59c19.241-23.38 14.913-56.67-7.474-77.06 0 0-168.715-165.22-261.396-238.00999999999-393.682-309.19-1202.077-943.53999999999-1280.634-1032.09l118.479-143.92999999999c30.204-30.88 58.316-69.88 71.92-102.7l173.392-419.75999999999c20.021-48.46000000001.973-64.13-42.733-35.17999999999l-378.608 250.84c-21.858 14.48-45.733 37.38-66.518 62.63z" stroke-width=".329913" transform="matrix(.99655476 .08293739 -.08293739 .99655476 15987.73819 -11424.500531)"/></g><g transform="matrix(.00596675 0 0 -.00596675 -112.21666 791.61521)"><path d="m28479.452 95369.918c156.184 135.02 255.159 324.34 276.751 529.66 21.588 205.33-35.829 411.27-160.509 575.82000000001-130.887 164.7-320.449 272.17-528.979 299.89999999999-208.528 27.72-400.323-9.74000000001-569.699-134.5-13.223-8.92999999999-34.668-.84-47.244 6.13-7.486 4.14-33.234 38.95-57.912 69.41-20.854-12.95-43.386-29.5-52.363-27.75 0 0-5.042 11.71000000001-6.616 17.87-17.812 69.62-87.083 159.57000000001-133.629 214.05-25.213 29.52-185.21 190.42999999999-324.672 359.08-77.591 93.83-171.821 240.28-177.998 247.60000000001-24.087 28.55-4.611 52.45-4.611 52.45s28.933 26.48 44.41 38.48c15.571 12.06 48.57 33.64 48.57 33.64s27.77 12.84 49.461-17.58c5.562-7.8 124.11-135.34 195.763-233.78 128.79-176.92 245.014-371.71000000001 267.353-403.46000000001 41.239-58.59 111.253-148.11 174.284-182.63 5.569-3.05 15.778-10.92999999999 15.778-10.92999999999-.438-7.66-18.892-21.81-33.453-36.63 26.911-27.41 57.793-67.31 76.172-49.91 175.657 136.60000000001 398.483 197.73 619.287 170.11 220.801-27.61 421.492-141.7 558.098-317.36 136.606-175.64999999999 216.43-401.50999999999 170.241-619.19-52.271-246.34-155.537-481.73-398.482-580.48z"/><path d="m20635.038 105655.32c-7.394 8.98-14.061 18.32000000001-20.433 27.69l-511.605 621.53c-9.436 11.46000000001-7.814 28.23 3.655 37.67l221.653 182.45c11.457 9.42999999999 28.236 7.81 37.673-3.66l301.705-366.52c98.518 67.94 865.519 750.13 1267.84 1073.95 87.57 70.49000000001 275.157 194.98 275.157 194.98 23.375 19.24000000001 57.619 16.14 76.86-7.24000000001l21.066-25.59c19.241-23.38 14.913-56.67-7.474-77.06 0 0-168.715-165.22-261.396-238.00999999999-393.682-309.19-1202.077-943.53999999999-1280.634-1032.09l118.479-143.92999999999c30.204-30.88 58.316-69.88 71.92-102.7l173.392-419.75999999999c20.021-48.46000000001.973-64.13-42.733-35.17999999999l-378.608 250.84c-21.858 14.48-45.733 37.38-66.518 62.63z" stroke-width=".329913" transform="matrix(.99655476 .08293739 -.08293739 .99655476 15987.73819 -11424.500531)"/></g></g></g></g></svg>