<?xml version="1.0" encoding="UTF-8" standalone="no"?>
<!-- Created with Inkscape (http://www.inkscape.org/) -->

<svg
   xmlns:dc="http://purl.org/dc/elements/1.1/"
   xmlns:cc="http://creativecommons.org/ns#"
   xmlns:rdf="http://www.w3.org/1999/02/22-rdf-syntax-ns#"
   xmlns:svg="http://www.w3.org/2000/svg"
   xmlns="http://www.w3.org/2000/svg"
   xmlns:xlink="http://www.w3.org/1999/xlink"
   xmlns:sodipodi="http://sodipodi.sourceforge.net/DTD/sodipodi-0.dtd"
   xmlns:inkscape="http://www.inkscape.org/namespaces/inkscape"
   width="981.36639"
   height="1024.0876"
   viewBox="0 0 981.36643 1024.0877"
   version="1.1"
   id="svg8"
   inkscape:version="0.92.4 5da689c313, 2019-01-14"
   sodipodi:docname="balloon.svg">
  <defs
     id="defs2">
    <linearGradient
       inkscape:collect="always"
       id="linearGradient1459">
      <stop
         style="stop-color:#141d79;stop-opacity:1;"
         offset="0"
         id="stop1455" />
      <stop
         style="stop-color:#141d79;stop-opacity:0;"
         offset="1"
         id="stop1457" />
    </linearGradient>
    <linearGradient
       inkscape:collect="always"
       id="linearGradient1227">
      <stop
         style="stop-color:#121212;stop-opacity:1"
         offset="0"
         id="stop1223" />
      <stop
         style="stop-color:#ffffff;stop-opacity:1"
         offset="1"
         id="stop1225" />
    </linearGradient>
    <linearGradient
       inkscape:collect="always"
       xlink:href="#linearGradient1227"
       id="linearGradient1229"
       x1="1438.5979"
       y1="739.27417"
       x2="1598.4124"
       y2="371.02875"
       gradientUnits="userSpaceOnUse" />
    <linearGradient
       inkscape:collect="always"
       xlink:href="#linearGradient1459"
       id="linearGradient1461"
       x1="1638.5544"
       y1="564.19006"
       x2="1564.3997"
       y2="528.34943"
       gradientUnits="userSpaceOnUse" />
    <linearGradient
       inkscape:collect="always"
       xlink:href="#linearGradient1459"
       id="linearGradient1471"
       x1="1677.1206"
       y1="578.38019"
       x2="1445.1794"
       y2="524.49786"
       gradientUnits="userSpaceOnUse"
       gradientTransform="translate(0,11.249983)" />
    <linearGradient
       inkscape:collect="always"
       xlink:href="#linearGradient1459"
       id="linearGradient1481"
       x1="1383.6415"
       y1="554.14465"
       x2="1152.7891"
       y2="554.14465"
       gradientUnits="userSpaceOnUse" />
    <linearGradient
       inkscape:collect="always"
       xlink:href="#linearGradient1459"
       id="linearGradient1499"
       x1="1713.4015"
       y1="569.21686"
       x2="1038.832"
       y2="569.21686"
       gradientUnits="userSpaceOnUse"
       gradientTransform="translate(0,11.249983)" />
    <linearGradient
       inkscape:collect="always"
       xlink:href="#linearGradient1227"
       id="linearGradient1507"
       x1="1908.452"
       y1="560.20251"
       x2="1475.123"
       y2="564.60455"
       gradientUnits="userSpaceOnUse"
       gradientTransform="translate(0,11.249983)" />
    <linearGradient
       inkscape:collect="always"
       xlink:href="#linearGradient1227"
       id="linearGradient1515"
       x1="2155.989"
       y1="-323.46179"
       x2="1070.7122"
       y2="477.93936"
       gradientUnits="userSpaceOnUse"
       gradientTransform="translate(0,11.249983)" />
    <linearGradient
       inkscape:collect="always"
       xlink:href="#linearGradient1227"
       id="linearGradient1523"
       x1="1884.4087"
       y1="539.66089"
       x2="1211.0389"
       y2="538.63147"
       gradientUnits="userSpaceOnUse"
       gradientTransform="translate(0,11.249983)" />
    <linearGradient
       inkscape:collect="always"
       xlink:href="#linearGradient1227"
       id="linearGradient1525"
       x1="1944.2605"
       y1="454.44019"
       x2="1402.8744"
       y2="454.44019"
       gradientUnits="userSpaceOnUse"
       gradientTransform="translate(0,11.249983)" />
    <linearGradient
       inkscape:collect="always"
       xlink:href="#linearGradient1459"
       id="linearGradient1543"
       x1="1708.4988"
       y1="465.78165"
       x2="1238.6398"
       y2="465.78165"
       gradientUnits="userSpaceOnUse" />
    <linearGradient
       inkscape:collect="always"
       xlink:href="#linearGradient1459"
       id="linearGradient1651"
       gradientUnits="userSpaceOnUse"
       x1="1638.5544"
       y1="564.19006"
       x2="1564.3997"
       y2="528.34943"
       gradientTransform="translate(0,11.249983)" />
    <linearGradient
       inkscape:collect="always"
       xlink:href="#linearGradient1459"
       id="linearGradient1653"
       gradientUnits="userSpaceOnUse"
       x1="1383.6415"
       y1="554.14465"
       x2="1152.7891"
       y2="554.14465"
       gradientTransform="translate(0,11.249983)" />
    <linearGradient
       inkscape:collect="always"
       xlink:href="#linearGradient1459"
       id="linearGradient1655"
       gradientUnits="userSpaceOnUse"
       x1="1768.4988"
       y1="465.78165"
       x2="1238.6398"
       y2="465.78165" />
    <linearGradient
       inkscape:collect="always"
       xlink:href="#linearGradient1459"
       id="linearGradient1805"
       x1="1793.5322"
       y1="559.39844"
       x2="1553.0859"
       y2="559.39844"
       gradientUnits="userSpaceOnUse" />
    <linearGradient
       inkscape:collect="always"
       xlink:href="#linearGradient1459"
       id="linearGradient1815"
       x1="494.44696"
       y1="556.46686"
       x2="1167.5945"
       y2="556.46686"
       gradientUnits="userSpaceOnUse" />
    <linearGradient
       inkscape:collect="always"
       xlink:href="#linearGradient1227"
       id="linearGradient1830"
       gradientUnits="userSpaceOnUse"
       gradientTransform="translate(0,11.249983)"
       x1="1944.2605"
       y1="454.44019"
       x2="1362.8744"
       y2="454.44019" />
    <linearGradient
       inkscape:collect="always"
       xlink:href="#linearGradient1459"
       id="linearGradient1851"
       x1="1880.0554"
       y1="516.89508"
       x2="1456.5176"
       y2="506.77734"
       gradientUnits="userSpaceOnUse" />
    <linearGradient
       inkscape:collect="always"
       xlink:href="#linearGradient1459"
       id="linearGradient1921"
       x1="1460.8496"
       y1="408.13983"
       x2="1117.9156"
       y2="494.28912"
       gradientUnits="userSpaceOnUse" />
    <linearGradient
       inkscape:collect="always"
       xlink:href="#linearGradient1459"
       id="linearGradient1939"
       gradientUnits="userSpaceOnUse"
       x1="1460.8496"
       y1="408.13983"
       x2="1117.9156"
       y2="494.28912"
       gradientTransform="translate(0,-11.249983)" />
    <linearGradient
       inkscape:collect="always"
       xlink:href="#linearGradient1459"
       id="linearGradient1946"
       gradientUnits="userSpaceOnUse"
       x1="1768.4988"
       y1="465.78165"
       x2="1238.6398"
       y2="465.78165" />
    <linearGradient
       inkscape:collect="always"
       xlink:href="#linearGradient1227"
       id="linearGradient1973"
       gradientUnits="userSpaceOnUse"
       gradientTransform="translate(4.6965496e-7,11.249983)"
       x1="1741.452"
       y1="590.20251"
       x2="1515.123"
       y2="530.60455" />
    <linearGradient
       inkscape:collect="always"
       xlink:href="#linearGradient1459"
       id="linearGradient2345"
       gradientUnits="userSpaceOnUse"
       gradientTransform="translate(0,11.249983)"
       x1="1638.5544"
       y1="564.19006"
       x2="1564.3997"
       y2="528.34943" />
    <linearGradient
       inkscape:collect="always"
       xlink:href="#linearGradient1227"
       id="linearGradient2349"
       gradientUnits="userSpaceOnUse"
       gradientTransform="translate(0,11.249983)"
       x1="2155.989"
       y1="-323.46179"
       x2="1070.7122"
       y2="477.93936" />
    <linearGradient
       inkscape:collect="always"
       xlink:href="#linearGradient1227"
       id="linearGradient2351"
       gradientUnits="userSpaceOnUse"
       gradientTransform="translate(0,11.249983)"
       x1="1908.452"
       y1="560.20251"
       x2="1475.123"
       y2="564.60455" />
    <linearGradient
       inkscape:collect="always"
       xlink:href="#linearGradient1227"
       id="linearGradient2353"
       gradientUnits="userSpaceOnUse"
       gradientTransform="translate(0,11.249983)"
       x1="1944.2605"
       y1="454.44019"
       x2="1402.8744"
       y2="454.44019" />
    <linearGradient
       inkscape:collect="always"
       xlink:href="#linearGradient1459"
       id="linearGradient2355"
       gradientUnits="userSpaceOnUse"
       x1="1793.5322"
       y1="559.39844"
       x2="1553.0859"
       y2="559.39844" />
    <linearGradient
       inkscape:collect="always"
       xlink:href="#linearGradient1227"
       id="linearGradient2357"
       gradientUnits="userSpaceOnUse"
       gradientTransform="translate(0,11.249983)"
       x1="1944.2605"
       y1="454.44019"
       x2="1362.8744"
       y2="454.44019" />
    <linearGradient
       inkscape:collect="always"
       xlink:href="#linearGradient1459"
       id="linearGradient2359"
       gradientUnits="userSpaceOnUse"
       x1="1880.0554"
       y1="516.89508"
       x2="1456.5176"
       y2="506.77734" />
    <linearGradient
       inkscape:collect="always"
       xlink:href="#linearGradient1459"
       id="linearGradient2361"
       gradientUnits="userSpaceOnUse"
       x1="1880.0554"
       y1="516.89508"
       x2="1456.5176"
       y2="506.77734" />
    <linearGradient
       inkscape:collect="always"
       xlink:href="#linearGradient1459"
       id="linearGradient2363"
       gradientUnits="userSpaceOnUse"
       x1="1460.8496"
       y1="408.13983"
       x2="1117.9156"
       y2="494.28912" />
  </defs>
  <sodipodi:namedview
     id="base"
     pagecolor="#ffffff"
     bordercolor="#666666"
     borderopacity="1.0"
     inkscape:pageopacity="0.0"
     inkscape:pageshadow="2"
     inkscape:zoom="0.5"
     inkscape:cx="474.59087"
     inkscape:cy="359.08177"
     inkscape:document-units="px"
     inkscape:current-layer="layer1"
     showgrid="false"
     units="px"
     showguides="true"
     inkscape:window-width="1360"
     inkscape:window-height="678"
     inkscape:window-x="0"
     inkscape:window-y="0"
     inkscape:window-maximized="1"
     inkscape:snap-bbox="true"
     inkscape:bbox-paths="true"
     inkscape:snap-bbox-edge-midpoints="true"
     inkscape:snap-bbox-midpoints="true"
     inkscape:object-paths="true"
     inkscape:snap-intersection-paths="true"
     inkscape:snap-smooth-nodes="true"
     inkscape:snap-midpoints="true"
     inkscape:snap-global="false"
     inkscape:bbox-nodes="true"
     fit-margin-bottom="4"
     fit-margin-top="4"
     fit-margin-left="4"
     fit-margin-right="4" />
  <metadata
     id="metadata5">
    <rdf:RDF>
      <cc:Work
         rdf:about="">
        <dc:format>image/svg+xml</dc:format>
        <dc:type
           rdf:resource="http://purl.org/dc/dcmitype/StillImage" />
        <dc:title />
      </cc:Work>
    </rdf:RDF>
  </metadata>
  <g
     inkscape:label="Layer 1"
     inkscape:groupmode="layer"
     id="layer1"
     transform="translate(-922.32142,-104.83942)">
    <g
       transform="translate(100.80404,-48.083261)"
       id="g2235">
      <path
         sodipodi:nodetypes="ccccccc"
         inkscape:connector-curvature="0"
         id="path2081"
         d="m 1289.5703,986.24998 -3.5,-2.52197 v -4.24331 c 33.4127,-3.12833 64.3916,-1.46089 95.5,0 v 4.24331 l -3.5,2.52197 z"
         style="fill:#3e46b8;fill-opacity:1;stroke:none;stroke-width:1px;stroke-linecap:butt;stroke-linejoin:miter;stroke-opacity:1" />
      <path
         sodipodi:nodetypes="sccccsccccccccccccccccsccc"
         inkscape:connector-curvature="0"
         id="path1763"
         d="m 1335.2031,166.9238 c -6.661,0.0619 -13.1943,2.68882 -19.3242,7.07891 v 0 c -14.3967,1.48932 -29.0822,4.44562 -42.4727,9.8696 -0.5139,0.10171 -1.0061,0.21177 -1.5137,0.31608 -69.6845,8.44764 -94.4863,31.80959 -118.0254,54.50545 -4.2218,4.07056 -8.2131,8.23942 -11.9941,12.49457 -60.9105,51.70664 -95.7598,125.41574 -95.8809,202.80979 0.1127,37.02431 8.1871,73.6404 23.7325,107.62327 l -0.3653,0.004 c 69.4191,146.22538 126.8623,232.69397 211.7735,351.05245 h 54.6523 c -0.027,7.4e-4 -0.063,0.003 -0.09,0.004 0.2789,9.9e-4 0.7067,-0.003 1.0429,-0.004 h 50.2793 c 88.0056,-112.78304 166.3146,-239.95653 216.127,-357.26407 l -0.2442,0.002 c 13.7284,-32.24085 20.8215,-66.6625 20.8985,-101.41742 -0.033,-74.41852 -32.1872,-145.60131 -89.0254,-197.08769 -3.9173,-4.61482 -12.2749,-13.58765 -17.125,-18.21667 -20.9766,-19.93106 -52.5818,-40.05769 -103.7559,-50.49671 -17.8916,-9.03966 -39.4687,-13.64797 -59.9218,-15.02701 -6.0398,-3.99805 -12.3939,-6.30548 -18.7657,-6.24632 z m 88.5313,26.93954 c 45.1575,27.05915 36.8099,14.9478 0.018,0.0115 -0.01,-0.004 -0.012,-0.008 -0.018,-0.0115 z"
         style="fill:#4c56e0;fill-opacity:1;stroke:none;stroke-width:1px;stroke-linecap:butt;stroke-linejoin:miter;stroke-opacity:1" />
      <path
         id="path1060"
         d="m 1335.2031,156.92381 c -22.6893,0.21347 -43.94,30.40422 -52.5625,59.70703 -49.3774,167.80354 9.9954,496.21311 38.7071,633.42187 a 83.791,20.94775 0 0 1 13.8476,-0.3125 83.791,20.94775 0 0 1 14.1309,0.30079 c 29.282,-137.2314 89.9289,-465.87127 39.9023,-633.41016 -8.8787,-29.7343 -31.336,-59.92049 -54.0254,-59.70703 z m -29.8828,694.21875 a 83.791,20.94775 0 0 0 -0.1738,0.0156 83.791,20.94775 0 0 1 0.1738,-0.0156 z m -7.543,0.83008 a 83.791,20.94775 0 0 0 -0.3457,0.041 83.791,20.94775 0 0 1 0.3457,-0.041 z m -7.2441,1.01953 a 83.791,20.94775 0 0 0 -0.4023,0.0625 83.791,20.94775 0 0 1 0.4023,-0.0625 z m -6.791,1.19336 a 83.791,20.94775 0 0 0 -0.4688,0.0898 83.791,20.94775 0 0 1 0.4688,-0.0898 z m -6.209,1.33789 a 83.791,20.94775 0 0 0 -0.6289,0.14648 83.791,20.94775 0 0 1 0.6289,-0.14648 z m -5.5039,1.4414 a 83.791,20.94775 0 0 0 -0.9727,0.27735 83.791,20.94775 0 0 1 0.9727,-0.27735 z m -5.0781,1.61524 a 83.791,20.94775 0 0 0 -0.9844,0.34375 83.791,20.94775 0 0 1 0.9844,-0.34375 z m -4.3672,1.70898 a 83.791,20.94775 0 0 0 -1.0449,0.45508 83.791,20.94775 0 0 1 1.0449,-0.45508 z m -3.6856,1.80469 a 83.791,20.94775 0 0 0 -1.0117,0.56445 83.791,20.94775 0 0 1 1.0117,-0.56445 z m -3.0039,1.91016 a 83.791,20.94775 0 0 0 -0.8593,0.64648 83.791,20.94775 0 0 1 0.8593,-0.64648 z m -2.2031,1.93554 a 83.791,20.94775 0 0 0 -0.707,0.78711 83.791,20.94775 0 0 1 0.707,-0.78711 z m -1.4512,1.98047 a 83.791,20.94775 0 0 0 -0.4433,0.91406 83.791,20.94775 0 0 1 0.4433,-0.91406 z m -0.8066,2.57227 a 83.791,20.94775 0 0 0 -0.027,0.1875 83.791,20.94775 0 0 1 0.027,-0.1875 z"
         style="fill:#4c56e0;fill-opacity:1;stroke:none;stroke-width:1px;stroke-linecap:butt;stroke-linejoin:miter;stroke-opacity:1"
         inkscape:connector-curvature="0" />
      <path
         style="opacity:1;vector-effect:none;fill:url(#linearGradient2345);fill-opacity:1;stroke:none;stroke-width:67.8992157;stroke-linecap:round;stroke-linejoin:bevel;stroke-miterlimit:4;stroke-dasharray:none;stroke-dashoffset:0;stroke-opacity:1;paint-order:markers fill stroke"
         d="m 1534.7656,248.10936 c 141.1632,170.68851 -43.8793,481.00267 -134.3847,609.44531 12.0013,3.7151 18.565,8.34381 18.6035,13.11914 0,0.005 -0.01,0.009 -0.01,0.0137 v 0 c 63.5784,-86.45208 135.6288,-202.05215 184.1679,-320.06445 l -0.2441,0.002 c 13.7284,-32.67317 20.8214,-67.55639 20.8984,-102.77734 -0.033,-75.42001 -32.1899,-147.56092 -89.0332,-199.73828 z"
         id="path1453"
         inkscape:connector-curvature="0"
         sodipodi:nodetypes="ccccccccc" />
      <path
         style="fill:url(#linearGradient1471);fill-opacity:1;stroke:none;stroke-width:1px;stroke-linecap:butt;stroke-linejoin:miter;stroke-opacity:1"
         d="m 1423.7383,184.23045 c 9.2425,6.20144 17.0065,13.92116 22.3828,23.41406 91.9849,162.41659 -29.0456,503.47145 -85.5488,643.10547 a 83.791,20.94775 0 0 1 21.3691,2.57422 c 79.4193,-135.92693 241.1188,-460.91753 102.1543,-625.64258 -13.5091,-16.01317 -32.4356,-32.14721 -60.3574,-43.45117 z"
         id="path1463"
         inkscape:connector-curvature="0" />
      <path
         style="fill:url(#linearGradient1653);fill-opacity:1;stroke:none;stroke-width:1px;stroke-linecap:butt;stroke-linejoin:miter;stroke-opacity:1"
         d="m 1273.416,174.09764 c -48.9043,9.79096 -67.7278,31.99022 -85.6797,53.58398 -137.5265,165.42497 26.7432,489.37509 103.25,625.24219 a 83.791,20.94775 0 0 1 17.9453,-2.11133 c -53.3759,-138.67912 -160.4384,-476.65793 -78.4062,-638.88086 9.4629,-18.71326 25.0242,-30.50097 42.8906,-37.83398 z m 60.4707,738.58007 c 0,0 0.757,0.0314 1.9024,0 h -1.5352 z"
         id="path1473"
         inkscape:connector-curvature="0" />
      <path
         style="opacity:1;vector-effect:none;fill:url(#linearGradient1499);fill-opacity:1;stroke:none;stroke-width:67.8992157;stroke-linecap:round;stroke-linejoin:bevel;stroke-miterlimit:4;stroke-dasharray:none;stroke-dashoffset:0;stroke-opacity:1;paint-order:markers fill stroke"
         d="m 1141.9531,242.24607 c -60.9619,52.40351 -95.8418,127.1341 -95.9629,205.60157 0.1127,37.52077 8.1871,74.62785 23.7325,109.0664 l -0.3653,0.004 c 44.9463,107.65389 110.3935,211.31281 182.0488,313.76172 0.036,-4.88775 6.9081,-9.61846 19.4258,-13.37305 -84.5483,-124.5338 -280.25469,-442.56598 -128.8789,-615.06055 z m 109.4551,628.43555 v 0.006 0 c -0.01,-0.002 -0.01,-0.004 -0.01,-0.006 z"
         id="path1491"
         inkscape:connector-curvature="0"
         sodipodi:nodetypes="ccccccccccccc" />
      <path
         id="path1380"
         d="m 1334.8945,171.06639 a 288.90363,276.7818 0 0 0 -0.209,0.01 c 0.2152,1.5e-4 0.424,0.003 0.6387,0.004 a 288.90363,276.7818 0 0 0 -0.4297,-0.0137 z"
         style="opacity:1;vector-effect:none;fill:#2738dc;fill-opacity:1;stroke:none;stroke-width:67.8992157;stroke-linecap:round;stroke-linejoin:bevel;stroke-miterlimit:4;stroke-dasharray:none;stroke-dashoffset:0;stroke-opacity:1;paint-order:markers fill stroke"
         inkscape:connector-curvature="0" />
      <path
         sodipodi:nodetypes="ccccccccccc"
         inkscape:connector-curvature="0"
         id="path1378"
         d="m 1141.9531,242.24607 c -60.9619,52.40351 -95.8418,127.1341 -95.9629,205.60157 0.1127,37.52077 8.1871,74.62785 23.7325,109.0664 l -0.3653,0.004 c 44.9463,107.65389 110.3935,211.31281 182.0488,313.76172 0.036,-4.88775 6.9081,-9.61846 19.4258,-13.37305 -84.5483,-124.5338 -280.25469,-442.56598 -128.8789,-615.06055 z m 109.4551,628.43555 c 0,0.002 0,0.004 0,0.006 v 0 c -0.01,-0.002 -0.01,-0.004 -0.01,-0.006 z"
         style="opacity:1;vector-effect:none;fill:#4c56e0;fill-opacity:1;stroke:none;stroke-width:67.8992157;stroke-linecap:round;stroke-linejoin:bevel;stroke-miterlimit:4;stroke-dasharray:none;stroke-dashoffset:0;stroke-opacity:1;paint-order:markers fill stroke" />
      <path
         sodipodi:nodetypes="ccccccccc"
         inkscape:connector-curvature="0"
         id="path1034"
         d="m 1534.7656,248.10936 c 141.1632,170.68851 -43.8793,481.00267 -134.3847,609.44531 12.0013,3.7151 18.565,8.34381 18.6035,13.11914 0,0.005 -0.01,0.009 -0.01,0.0137 v 0 c 63.5784,-86.45208 135.6288,-202.05215 184.1679,-320.06445 l -0.2441,0.002 c 13.7284,-32.67317 20.8214,-67.55639 20.8984,-102.77734 -0.033,-75.42001 -32.1899,-147.56092 -89.0332,-199.73828 z"
         style="opacity:1;vector-effect:none;fill:#4c56e0;fill-opacity:1;stroke:none;stroke-width:67.8992157;stroke-linecap:round;stroke-linejoin:bevel;stroke-miterlimit:4;stroke-dasharray:none;stroke-dashoffset:0;stroke-opacity:1;paint-order:markers fill stroke" />
      <path
         id="path1370"
         d="m 1271.957,174.41209 c -69.7361,8.55391 -94.5451,32.2365 -118.0918,55.24414 -173.11828,169.15519 30.3244,500.03602 116.9688,627.64844 a 83.791,20.94775 0 0 1 20.1523,-4.38086 c -76.5068,-135.8671 -240.7765,-459.81722 -103.25,-625.24219 17.7691,-21.37388 36.4179,-43.32944 84.2207,-53.26953 z"
         style="fill:url(#linearGradient2349);fill-opacity:1;stroke:none;stroke-width:1px;stroke-linecap:butt;stroke-linejoin:miter;stroke-opacity:1"
         inkscape:connector-curvature="0" />
      <path
         id="path1368"
         d="m 1394.0742,175.02732 c 44.9528,10.15915 72.1918,31.51969 90.0215,52.6543 138.882,164.62731 -22.656,489.53912 -102.1445,625.64453 a 83.791,20.94775 0 0 1 18.4277,4.22852 c 93.8693,-133.20995 289.4634,-462.09027 117.2676,-627.89844 -23.5624,-22.6882 -60.5124,-45.63859 -123.5723,-54.62891 z m -58.291,737.65039 c -0.027,7.5e-4 -0.063,0.003 -0.09,0.004 0.2789,0.001 0.7067,-0.003 1.0429,-0.004 z"
         style="fill:url(#linearGradient2351);fill-opacity:1;stroke:none;stroke-width:1px;stroke-linecap:butt;stroke-linejoin:miter;stroke-opacity:1"
         inkscape:connector-curvature="0" />
      <path
         id="path1093"
         d="m 1333.2051,912.666 c 6e-4,1.2e-4 0.059,0.0117 0.059,0.0117 0,0 0.8816,-10e-4 1.1093,0.002 -0.099,-0.003 -0.4863,-0.002 -0.4863,-0.002 0,0 -0.4454,-0.0108 -0.6816,-0.0117 z"
         style="fill:#ffffff;fill-opacity:1;stroke:none;stroke-width:1px;stroke-linecap:butt;stroke-linejoin:miter;stroke-opacity:1"
         inkscape:connector-curvature="0" />
      <path
         id="path1374"
         d="m 1353.9688,163.25389 c 15.4665,10.37563 28.8744,31.99285 35.2597,53.37695 50.0267,167.53934 -10.6205,496.17945 -39.9023,633.41016 a 83.791,20.94775 0 0 1 11.2832,0.71289 c 56.3022,-139.03044 177.6397,-480.44001 85.5117,-643.10938 -16.6713,-29.43627 -56.1838,-41.93294 -92.1523,-44.39062 z"
         style="fill:url(#linearGradient2353);fill-opacity:1;stroke:none;stroke-width:1px;stroke-linecap:butt;stroke-linejoin:miter;stroke-opacity:1"
         inkscape:connector-curvature="0" />
      <path
         id="path1095"
         d="m 1315.8789,164.09764 c -33.6018,3.5224 -68.7992,15.09711 -85.3535,47.83398 -82.0322,162.22293 25.0303,500.20174 78.4062,638.88086 a 83.791,20.94775 0 0 1 12.4161,-0.75977 C 1292.636,712.844 1233.2632,384.43438 1282.6406,216.63084 c 6.0911,-20.69989 18.4878,-41.82781 33.2383,-52.5332 z"
         style="fill:url(#linearGradient1523);fill-opacity:1;stroke:none;stroke-width:1px;stroke-linecap:butt;stroke-linejoin:miter;stroke-opacity:1"
         inkscape:connector-curvature="0" />
      <path
         id="path1391"
         d="m 1273.416,174.09764 c -48.9043,9.79096 -67.7278,31.99022 -85.6797,53.58398 -137.5265,165.42497 26.7432,489.37509 103.25,625.24219 a 83.791,20.94775 0 0 1 17.9453,-2.11133 c -53.3759,-138.67912 -160.4384,-476.65793 -78.4062,-638.88086 9.4629,-18.71326 25.0242,-30.50097 42.8906,-37.83398 z m 60.4707,738.58007 c 0,0 0.757,0.0314 1.9024,0 h -1.5352 z"
         style="fill:#4c56e0;fill-opacity:1;stroke:none;stroke-width:1px;stroke-linecap:butt;stroke-linejoin:miter;stroke-opacity:1"
         inkscape:connector-curvature="0" />
      <path
         id="path1330"
         d="m 1423.7383,184.23045 c 9.2425,6.20144 17.0065,13.92116 22.3828,23.41406 91.9849,162.41659 -29.0456,503.47145 -85.5488,643.10547 a 83.791,20.94775 0 0 1 21.3691,2.57422 c 79.4193,-135.92693 241.1188,-460.91753 102.1543,-625.64258 -13.5091,-16.01317 -32.4356,-32.14721 -60.3574,-43.45117 z"
         style="fill:#4c56e0;fill-opacity:1;stroke:none;stroke-width:1px;stroke-linecap:butt;stroke-linejoin:miter;stroke-opacity:1"
         inkscape:connector-curvature="0" />
      <path
         style="fill:#000000;fill-opacity:0.18181817;stroke:none;stroke-width:1px;stroke-linecap:butt;stroke-linejoin:miter;stroke-opacity:1"
         d="m 1335.1953,849.74021 a 83.791,20.94775 0 0 0 -83.7891,20.93946 c 0,0.003 0,0.005 0.01,0.008 h -0.01 l 1.1016,1.55664 c 1.2818,1.82518 2.5675,3.64959 3.8496,5.47461 a 83.791,20.94775 0 0 0 0.045,0.0273 l 24.7285,34.93164 h 105.8848 l 26.2109,-34.42788 a 83.791,20.94775 0 0 0 0.3125,-0.20508 c 1.6726,-2.24806 3.3571,-4.53451 5.0429,-6.82617 l 0.4043,-0.53125 h -0.012 c 0,-0.005 0.01,-0.009 0.01,-0.0137 a 83.791,20.94775 0 0 0 -83.7891,-20.9336 z"
         id="path1097"
         inkscape:connector-curvature="0" />
      <path
         style="fill:none;stroke:#4c56e0;stroke-width:1.00157475;stroke-linecap:round;stroke-linejoin:miter;stroke-miterlimit:4;stroke-dasharray:none;stroke-opacity:1"
         d="m 1334.0708,919.42698 -0.2505,52.16596"
         id="path2119"
         inkscape:connector-curvature="0"
         sodipodi:nodetypes="cc" />
      <path
         style="opacity:1;vector-effect:none;fill:url(#linearGradient2355);fill-opacity:1;stroke:none;stroke-width:67.8992157;stroke-linecap:round;stroke-linejoin:bevel;stroke-miterlimit:4;stroke-dasharray:none;stroke-dashoffset:0;stroke-opacity:1;paint-order:markers fill stroke"
         d="m 1534.7656,248.10936 c 141.1632,170.68851 -43.8793,481.00267 -134.3847,609.44531 12.0013,3.7151 18.565,8.34381 18.6035,13.11914 0,0.005 -0.01,0.009 -0.01,0.0137 v 0 c 63.5784,-86.45208 135.6288,-202.05215 184.1679,-320.06445 l -0.2441,0.002 c 13.7284,-32.67317 20.8214,-67.55639 20.8984,-102.77734 -0.033,-75.42001 -32.1899,-147.56092 -89.0332,-199.73828 z"
         id="path1797"
         inkscape:connector-curvature="0"
         sodipodi:nodetypes="ccccccccc" />
      <path
         style="opacity:1;vector-effect:none;fill:url(#linearGradient1815);fill-opacity:1;stroke:none;stroke-width:67.8992157;stroke-linecap:round;stroke-linejoin:bevel;stroke-miterlimit:4;stroke-dasharray:none;stroke-dashoffset:0;stroke-opacity:1;paint-order:markers fill stroke"
         d="m 1141.9531,242.24607 c -60.9619,52.40351 -95.8418,127.1341 -95.9629,205.60157 0.1127,37.52077 8.1871,74.62785 23.7325,109.0664 l -0.3653,0.004 c 44.9463,107.65389 110.3935,211.31281 182.0488,313.76172 0.036,-4.88775 6.9081,-9.61846 19.4258,-13.37305 -84.5483,-124.5338 -280.25469,-442.56598 -128.8789,-615.06055 z m 109.4551,628.43555 c 0,0.002 0,0.004 0,0.006 v 0 c -0.01,-0.002 -0.01,-0.004 -0.01,-0.006 z"
         id="path1807"
         inkscape:connector-curvature="0"
         sodipodi:nodetypes="ccccccccccc" />
      <path
         sodipodi:nodetypes="caccsc"
         inkscape:connector-curvature="0"
         style="fill:url(#linearGradient2357);fill-opacity:1;stroke:none;stroke-width:1px;stroke-linecap:butt;stroke-linejoin:miter;stroke-opacity:1"
         d="m 1353.9688,163.25389 c 15.4665,10.37563 62.01,51.19501 72.5526,87.61959 55.9868,193.43391 -47.9134,461.93681 -77.1952,599.16752 3.8226,0.17197 7.5928,0.41017 11.2832,0.71289 56.3022,-139.03044 177.6397,-480.44001 85.5117,-643.10938 -16.6713,-29.43627 -56.1838,-41.93294 -92.1523,-44.39062 z"
         id="path1828" />
      <path
         inkscape:connector-curvature="0"
         style="fill:url(#linearGradient2359);fill-opacity:1;stroke:none;stroke-width:1px;stroke-linecap:butt;stroke-linejoin:miter;stroke-opacity:1"
         d="m 1423.7383,184.23045 c 9.2425,6.20144 17.0065,13.92116 22.3828,23.41406 91.9849,162.41659 -29.0456,503.47145 -85.5488,643.10547 a 83.791,20.94775 0 0 1 21.3691,2.57422 c 79.4193,-135.92693 241.1188,-460.91753 102.1543,-625.64258 -13.5091,-16.01317 -32.4356,-32.14721 -60.3574,-43.45117 z"
         id="path1843" />
      <path
         id="path1859"
         d="m 1423.7383,184.23045 c 9.2425,6.20144 17.0065,13.92116 22.3828,23.41406 91.9849,162.41659 -29.0456,503.47145 -85.5488,643.10547 a 83.791,20.94775 0 0 1 21.3691,2.57422 c 79.4193,-135.92693 241.1188,-460.91753 102.1543,-625.64258 -13.5091,-16.01317 -32.4356,-32.14721 -60.3574,-43.45117 z"
         style="fill:url(#linearGradient2361);fill-opacity:1;stroke:none;stroke-width:1px;stroke-linecap:butt;stroke-linejoin:miter;stroke-opacity:1"
         inkscape:connector-curvature="0" />
      <ellipse
         ry="6.7496085"
         rx="52.942833"
         cy="912.67737"
         cx="1334.0708"
         id="ellipse1794"
         style="opacity:1;vector-effect:none;fill:#4c56e0;fill-opacity:1;stroke:none;stroke-width:67.8992157;stroke-linecap:round;stroke-linejoin:bevel;stroke-miterlimit:4;stroke-dasharray:none;stroke-dashoffset:0;stroke-opacity:1;paint-order:markers fill stroke" />
      <path
         inkscape:connector-curvature="0"
         style="fill:url(#linearGradient2363);fill-opacity:1;stroke:none;stroke-width:1px;stroke-linecap:butt;stroke-linejoin:miter;stroke-opacity:1"
         d="m 1273.416,174.09764 c -48.9043,9.79096 -67.7278,31.99022 -85.6797,53.58398 -137.5265,165.42497 26.7432,489.37509 103.25,625.24219 a 83.791,20.94775 0 0 1 17.9453,-2.11133 c -53.3759,-138.67912 -160.4384,-476.65793 -78.4062,-638.88086 9.4629,-18.71326 25.0242,-30.50097 42.8906,-37.83398 z m 60.4707,738.58007 c 0,0 0.757,0.0314 1.9024,0 h -1.5352 z"
         id="path1913" />
      <ellipse
         style="opacity:1;vector-effect:none;fill:#000000;fill-opacity:0.45075755;stroke:none;stroke-width:67.8992157;stroke-linecap:round;stroke-linejoin:bevel;stroke-miterlimit:4;stroke-dasharray:none;stroke-dashoffset:0;stroke-opacity:1;paint-order:markers fill stroke"
         id="ellipse892"
         cx="1334.0708"
         cy="912.67737"
         rx="52.942833"
         ry="6.7496085" />
      <path
         sodipodi:nodetypes="cc"
         inkscape:connector-curvature="0"
         id="path2121"
         d="m 1313.9724,906.43303 -19.4505,66.73585"
         style="fill:none;stroke:#4c56e0;stroke-width:1.00157475;stroke-linecap:round;stroke-linejoin:miter;stroke-miterlimit:4;stroke-dasharray:none;stroke-opacity:1" />
      <path
         sodipodi:nodetypes="ccccccccccccccccccccccccccsccc"
         inkscape:connector-curvature="0"
         id="path1923"
         transform="translate(0,11.249983)"
         d="m 1243.7168,174.16211 c -3.8961,0.78001 -7.5804,1.64718 -11.1094,2.57812 -1.2319,0.65057 -2.4285,1.31452 -3.6015,1.98829 -0.2206,0.12668 -0.4358,0.25534 -0.6543,0.38281 -0.9266,0.54041 -1.835,1.08847 -2.7266,1.64258 -0.277,0.17215 -0.5544,0.34415 -0.8281,0.51757 -0.9743,0.61724 -1.9309,1.24231 -2.8653,1.875 -0.083,0.056 -0.1695,0.10985 -0.2519,0.16602 -1.0744,0.73175 -2.1216,1.47389 -3.1465,2.22461 -0.1003,0.0735 -0.197,0.14897 -0.2969,0.22266 -0.884,0.65204 -1.75,1.31151 -2.5996,1.97656 -0.201,0.15737 -0.4024,0.31459 -0.6015,0.47265 -0.8119,0.64422 -1.6081,1.29409 -2.3907,1.94922 -0.1311,0.10983 -0.2661,0.21801 -0.3965,0.32813 -0.9117,0.76997 -1.8046,1.54672 -2.6796,2.33008 -0.09,0.0809 -0.1776,0.16308 -0.2676,0.24414 -0.7738,0.69677 -1.5336,1.39938 -2.2813,2.10547 -0.185,0.17477 -0.3692,0.35009 -0.5527,0.52539 -0.6685,0.6385 -1.327,1.27878 -1.9766,1.92382 -0.1596,0.15853 -0.3219,0.31572 -0.4804,0.47461 -0.7748,0.77638 -1.5364,1.55749 -2.2871,2.3418 -1.1045,1.154 -2.1797,2.31678 -3.2403,3.48438 -0.2782,0.3062 -0.5545,0.61296 -0.8301,0.91992 -0.5919,0.65938 -1.1708,1.32208 -1.7519,1.98437 -1.0482,1.19432 -2.0845,2.3915 -3.1055,3.5918 -0.375,0.44095 -0.7546,0.88092 -1.1269,1.32227 -1.3206,1.56545 -2.6314,3.13318 -3.9317,4.69726 -125.0373,150.40227 -0.6168,431.80476 80.5137,583.79297 -63.8716,-162.51543 -153.1629,-452.69274 -67.4238,-588.22852 9.4629,-18.71326 25.0242,-30.50097 42.8906,-37.83398 z"
         style="fill:url(#linearGradient1939);fill-opacity:1;stroke:none;stroke-width:1px;stroke-linecap:butt;stroke-linejoin:miter;stroke-opacity:1" />
      <path
         sodipodi:nodetypes="cccccccccccccccccc"
         inkscape:connector-curvature="0"
         id="path2022"
         d="m 1487.1934,194.95508 c 8.7276,6.87365 15.9956,14.18795 22.1445,21.47656 139.076,165.12769 -24.9188,478.86276 -114.6797,628.2793 2.0143,0.50652 3.9237,1.03847 5.7207,1.59375 64.7649,-91.90783 177.9455,-276.95848 185.3535,-437.33203 1.5655,-42.32589 -3.8556,-82.51296 -18.5156,-118.31446 -10.9865,-26.31789 -27.1559,-50.66896 -49.5703,-72.25195 -0.9158,-0.88182 -1.8592,-1.76478 -2.8164,-2.64648 -0.2799,-0.25787 -0.5642,-0.51567 -0.8477,-0.77344 -0.8447,-0.76784 -1.7026,-1.53457 -2.5801,-2.30078 -0.1359,-0.11881 -0.2694,-0.23672 -0.4062,-0.35547 -1.0669,-0.92574 -2.1589,-1.85209 -3.2754,-2.77344 -0.1511,-0.12475 -0.307,-0.2484 -0.459,-0.37305 -1.0179,-0.83421 -2.055,-1.66525 -3.1152,-2.49414 -0.1492,-0.11667 -0.2973,-0.23305 -0.4473,-0.34961 -2.4414,-1.8959 -4.9933,-3.77633 -7.668,-5.63086 -0.076,-0.0525 -0.1525,-0.10375 -0.2285,-0.15625 -2.7418,-1.89475 -5.6073,-3.7649 -8.6093,-5.59765 z"
         style="fill:#000000;fill-opacity:0.03787878;stroke:none;stroke-width:1px;stroke-linecap:butt;stroke-linejoin:miter;stroke-opacity:1"
         transform="translate(0,11.249983)" />
      <path
         inkscape:connector-curvature="0"
         transform="translate(0,11.249983)"
         id="rect2033"
         d="M 1333.8203,971.61719 A 44.25,3.3821654 0 0 0 1289.5703,975 l 5.25,43.5 h 78.5 l 4.75,-43.5 a 44.25,3.3821654 0 0 0 -44.25,-3.38281 z"
         style="opacity:1;vector-effect:none;fill:#8087e9;fill-opacity:1;stroke:none;stroke-width:0;stroke-linecap:round;stroke-linejoin:bevel;stroke-miterlimit:4;stroke-dasharray:none;stroke-dashoffset:0;stroke-opacity:1;paint-order:markers fill stroke" />
      <ellipse
         ry="3"
         rx="39.25"
         cy="1029.8055"
         cx="1334.0708"
         id="path2035"
         style="opacity:1;vector-effect:none;fill:#3e46b8;fill-opacity:1;stroke:none;stroke-width:0;stroke-linecap:round;stroke-linejoin:bevel;stroke-miterlimit:4;stroke-dasharray:none;stroke-dashoffset:0;stroke-opacity:1;paint-order:markers fill stroke" />
      <path
         sodipodi:nodetypes="cc"
         inkscape:connector-curvature="0"
         id="path2115"
         d="m 1281.1328,912.67792 13.3891,60.49096"
         style="fill:none;stroke:#4c56e0;stroke-width:1.00157475;stroke-linecap:round;stroke-linejoin:miter;stroke-miterlimit:4;stroke-dasharray:none;stroke-opacity:1" />
      <path
         sodipodi:nodetypes="cc"
         inkscape:connector-curvature="0"
         id="path2117"
         d="m 1387.0173,912.67792 -14.1922,60.45894"
         style="fill:#4c56e0;fill-opacity:1;stroke:#4c56e0;stroke-width:1.00157475;stroke-linecap:round;stroke-linejoin:miter;stroke-miterlimit:4;stroke-dasharray:none;stroke-opacity:1" />
      <path
         style="fill:#4c56e0;fill-opacity:1;stroke:#4c56e0;stroke-width:1.00157475;stroke-linecap:round;stroke-linejoin:miter;stroke-miterlimit:4;stroke-dasharray:none;stroke-opacity:1"
         d="m 1353.3746,906.40101 19.4505,66.73585"
         id="path2123"
         inkscape:connector-curvature="0"
         sodipodi:nodetypes="cc" />
      <path
         sodipodi:nodetypes="sccsccs"
         inkscape:connector-curvature="0"
         id="ellipse2055"
         d="m 1333.8203,971.59294 c -26.3653,0 -47.741,1.63326 -47.75,3.64844 v 8.48663 c -0.01,-2.01594 21.3748,-3.65039 47.75,-3.65039 26.3752,0 47.7551,1.63445 47.75,3.65039 v -8.48663 c -0.01,-2.01518 -21.3847,-3.64844 -47.75,-3.64844 z"
         style="opacity:1;vector-effect:none;fill:#8087e9;fill-opacity:1;stroke:none;stroke-width:0;stroke-linecap:round;stroke-linejoin:bevel;stroke-miterlimit:4;stroke-dasharray:none;stroke-dashoffset:0;stroke-opacity:1;paint-order:markers fill stroke" />
    </g>
    <path
       sodipodi:nodetypes="ccccc"
       inkscape:connector-curvature="0"
       id="path6245"
       d="m 945.12363,510.91741 c 12.8816,-1.27936 28.2489,-4.39119 43.3592,7.19978 13.50897,-10.15838 28.68897,-6.52631 38.96007,-7.19978 -16.0506,4.5308 -31.98907,7.17911 -38.96007,19.39695 -7.8084,-12.57007 -21.2872,-17.20479 -43.3592,-19.39695 z"
       style="fill:#bcbed6;fill-opacity:1;stroke:none;stroke-width:0.37946066px;stroke-linecap:butt;stroke-linejoin:miter;stroke-opacity:1" />
    <path
       style="fill:#bcbed6;fill-opacity:1;stroke:none;stroke-width:0.50406283px;stroke-linecap:butt;stroke-linejoin:miter;stroke-opacity:1"
       d="m 1762.9846,583.57893 c 17.1116,-1.69945 35.7428,-3.69455 55.8148,11.70251 17.9449,-13.49406 40.9608,-4.74866 54.6046,-5.64326 -21.3211,6.01856 -45.3445,5.6158 -54.6046,21.84556 -7.521,-16.69765 -26.4951,-24.99283 -55.8148,-27.90481 z"
       id="path6258"
       inkscape:connector-curvature="0"
       sodipodi:nodetypes="ccccc" />
    <path
       style="fill:#bcbed6;fill-opacity:1;stroke:none;stroke-width:0.55670863px;stroke-linecap:butt;stroke-linejoin:miter;stroke-opacity:1"
       d="m 1706.5436,868.74307 c 18.8987,-1.87696 41.4441,-6.44234 63.6125,10.56283 19.8191,-14.90342 42.0896,-9.57479 57.1584,-10.56283 -23.548,6.64715 -46.9312,10.53251 -57.1584,28.45735 -11.4557,-18.4416 -31.2306,-25.24124 -63.6125,-28.45735 z"
       id="path938"
       inkscape:connector-curvature="0"
       sodipodi:nodetypes="ccccc" />
  </g>
</svg>
